<?xml version="1.0" standalone="no"?>
<!DOCTYPE svg PUBLIC "-//W3C//DTD SVG 1.1//EN" "http://www.w3.org/Graphics/SVG/1.1/DTD/svg11.dtd" >
<svg xmlns="http://www.w3.org/2000/svg" xmlns:xlink="http://www.w3.org/1999/xlink" version="1.1">
<metadata>
Created by FontForge 20170731 at Wed Jun 22 17:24:06 2022
 By Aleksey,,,
Copyright (c) 2017 by Rakel Tomas. All rights reserved.
</metadata>
<defs>
<font id="SilkSerif-BoldItalic" horiz-adv-x="1259" >
  <font-face 
    font-family="Silk Serif"
    font-weight="700"
    font-style="italic"
    font-stretch="normal"
    units-per-em="2048"
    panose-1="0 0 8 0 0 0 0 0 0 0"
    ascent="1532"
    descent="-516"
    x-height="940"
    cap-height="1434"
    bbox="-540.588 -782 2585 1951.18"
    underline-thickness="102"
    underline-position="-307"
    unicode-range="U+0020-2265"
  />
<missing-glyph horiz-adv-x="937" 
d="M174 1434h594v-1874h-594v1874zM625 1247v62h-310v-62h121v-69h-123v-64h312v64h-125v69h125zM500 936v131h-187v-195h312v64h-125zM375 1004h61v-68h-61v68zM625 760v61h-312v-61h123v-70h-123v-61h187v131h125zM625 520v189h-62v-123h-250v-66h312zM625 268v211h-189
v-104h64v43h63v-88h-188v149h-62v-211h312zM625 -55v211h-312v-211h312zM375 94h188v-88h-188v88zM625 -162v64h-312v-64h131l-131 -88v-61h312v61h-193l131 88h62z" />
    <glyph glyph-name=".notdef" horiz-adv-x="937" 
d="M174 1434h594v-1874h-594v1874zM625 1247v62h-310v-62h121v-69h-123v-64h312v64h-125v69h125zM500 936v131h-187v-195h312v64h-125zM375 1004h61v-68h-61v68zM625 760v61h-312v-61h123v-70h-123v-61h187v131h125zM625 520v189h-62v-123h-250v-66h312zM625 268v211h-189
v-104h64v43h63v-88h-188v149h-62v-211h312zM625 -55v211h-312v-211h312zM375 94h188v-88h-188v88zM625 -162v64h-312v-64h131l-131 -88v-61h312v61h-193l131 88h62z" />
    <glyph glyph-name=".null" horiz-adv-x="0" 
 />
    <glyph glyph-name="nonmarkingreturn" horiz-adv-x="682" 
 />
    <glyph glyph-name="space" unicode=" " horiz-adv-x="552" 
 />
    <glyph glyph-name="exclam" unicode="!" horiz-adv-x="641" 
d="M262 319q38 116 96 345q60 242 72 299q19 91 55 213q32 103 73 148.5t101 45.5q102 0 99 -88q-3 -103 -191 -426q-265 -462 -305 -537zM197 -8q54 0 91.5 39.5t37.5 93.5t-37.5 93.5t-91.5 39.5q-57 0 -96.5 -38.5t-39.5 -94.5t39.5 -94.5t96.5 -38.5z" />
    <glyph glyph-name="quotedbl" unicode="&#x22;" horiz-adv-x="276" 
d="M309 1348l-233 -338l94 397q10 51 43 73t70 5q44 -18 50.5 -59.5t-24.5 -77.5zM522 1335l-233 -336l94 398q11 50 43.5 72.5t69.5 5.5q44 -20 50.5 -61t-24.5 -79z" />
    <glyph glyph-name="numbersign" unicode="#" horiz-adv-x="1288" 
d="M1354 1436h26l-293 -512h244l-6 -19h-248l-233 -405h364l-6 -21h-371l-286 -499h-29l287 499h-422l-287 -499h-28l286 499h-233l6 21h240l233 407h-354l6 19h360l293 510h27l-293 -510l422 -2zM393 500h422l234 405l-422 2z" />
    <glyph glyph-name="dollar" unicode="$" horiz-adv-x="1212" 
d="M1077 1532l-39 -94q143 -12 209.5 -83.5t42.5 -197.5q-18 -89 -80 -160q-58 -67 -135 -67q-42 0 -69.5 22t-30.5 52t12 61q20 44 82 90q60 48 80 98q40 105 -53 146q-28 12 -66 18l-217 -543q85 -21 141 -60.5t79.5 -88t25.5 -106.5t-15 -115t-49 -117
q-79 -146 -229 -248q-145 -97 -301 -125l-62 -151h-20l293 723q-73 19 -78 20q-4 0 -18.5 4t-18.5 4l-305 -751h-18l59 147h-6q-133 15 -209 76q-135 108 -49 299q37 88 102 156q67 73 150 73q50 0 69 -33t7.5 -76t-42.5 -75q-27 -30 -83 -65q-57 -35 -82 -76
q-49 -77 -34.5 -147.5t91.5 -100.5q37 -13 92 -16l240 596q-87 27 -139 77.5t-65.5 113.5t-2.5 131t45 138q66 134 201 224q140 96 286 122l43 105h21l-252 -623q40 -15 90 -24q20 -4 23 -4l264 651h20zM741 1372q-49 -24 -94.5 -66.5t-74.5 -96t-36.5 -107t24.5 -103.5
t104 -81l200 495q-69 -16 -123 -41zM842 305q21 60 23 110t-40 94t-131 73l-223 -551q124 21 224.5 93.5t146.5 180.5z" />
    <glyph glyph-name="percent" unicode="%" horiz-adv-x="1394" 
d="M-51 0h39l1515 1436h-35zM582 1403q104 34 164.5 -11.5t60.5 -136.5q-3 -155 -117 -278q-115 -124 -244 -109q-52 3 -83 30.5t-39 70t-4 87t18 89.5q38 103 104 167.5t140 90.5zM604 1393q-66 -38 -133 -248q-20 -81 -29 -170q-3 -96 54 -96q53 3 106 127q53 125 74 243
q9 44 7.5 73t-8 46t-19 23.5t-25.5 6.5t-27 -5zM918 541q104 34 164.5 -11.5t60.5 -136.5q-3 -155 -117 -278q-115 -124 -244 -109q-50 3 -80.5 30.5t-38.5 70t-4.5 87t17.5 89.5q36 102 102 167t140 91zM940 530q-67 -42 -133 -247q-20 -81 -29 -170q-3 -97 53 -97
q54 3 107 127t74 244q9 43 8 72t-8.5 47t-19.5 25.5t-25.5 7t-26.5 -8.5z" />
    <glyph glyph-name="ampersand" unicode="&#x26;" horiz-adv-x="1593" 
d="M1661 862q-69 -39 -129 -88q-87 -71 -174 -153q-69 -65 -180 -162l-35 -29l51 -178q21 -76 52 -108t87 -31q121 3 203 123q-47 -101 -152 -183q-103 -83 -217 -86q-54 -3 -102 8q-42 8 -82.5 55t-62.5 126l-17 61q-149 -129 -261 -189.5t-230 -66.5q-176 -9 -250 86
q-71 96 2 268q28 66 104 160q21 26 72 64l70 51q22 19 84 49q25 14 79 41l95 43l88 41l-13 43l-22 76q0 8 -8 32q-4 21 -6 38.5t-5 31.5q-1 12 3 70q6 54 34 121q68 151 207 225t283 74q72 0 133 -25q41 -18 67.5 -48.5t36.5 -80t-16 -113.5q-74 -206 -289 -301
q-16 -7 -69 -27.5t-68 -27.5l115 -406l125 109q72 64 114 118.5t53 93.5t0 70t-37.5 50.5t-66.5 32.5h492q-51 0 -158 -58zM973 1212q-17 -92 -2 -161q8 -43 16 -70l27 -96l4 -17q13 6 43 29q145 115 227 338q37 82 16.5 153t-90.5 72q-90 1 -150.5 -62t-90.5 -186zM555 170
q169 -12 336 90l-129 481q-243 -147 -320 -335q-26 -60 -24.5 -111t37.5 -85.5t100 -39.5z" />
    <glyph glyph-name="quotesingle" unicode="'" horiz-adv-x="192" 
d="M399 1337l-247 -325l110 393q14 50 47 70.5t70 1.5q43 -20 47.5 -61t-27.5 -79z" />
    <glyph glyph-name="parenleft" unicode="(" horiz-adv-x="538" 
d="M322 -324l14 -59q-45 64 -98 258q-34 111 -52 246q-16 136 -4 299q15 171 70 319q58 155 150.5 291.5t187.5 218.5q84 74 176.5 131.5t145 79.5t57.5 17l-43 -25q-17 -9 -103 -82q-65 -55 -145 -145q-71 -80 -154 -219q-88 -147 -143 -301q-53 -143 -79 -311t-21 -306
q9 -267 41 -412z" />
    <glyph glyph-name="parenright" unicode=")" horiz-adv-x="524" 
d="M-324 -401l50 43q36 32 116 118q89 92 158 189q75 101 154 250q80 148 125 307q42 159 57 320.5t2 277.5q-24 225 -70 330l-18 43q6 -1 21 -20t40.5 -63.5t48.5 -99.5q43 -94 72 -204q32 -107 28.5 -274.5t-46.5 -328.5q-42 -148 -129 -295t-187 -253q-93 -104 -186 -179
q-173 -142 -236 -161z" />
    <glyph glyph-name="asterisk" unicode="*" horiz-adv-x="360" 
d="M571 1178q1 -29 -21.5 -43t-60.5 -9l-180 29l111 -151q42 -70 -4 -97q-28 -10 -49.5 8t-32.5 58l-25 182l-125 -141q-26 -23 -54.5 -24.5t-41.5 18.5q-13 24 3.5 49t53.5 39l162 59l-168 78q-32 12 -45 39.5t4 46.5q21 23 50.5 13.5t50.5 -42.5l110 -135v2l2 180
q1 36 20.5 56t43.5 12q58 -12 20 -98l-86 -150h2l-2 -2l174 57q37 10 60 1t28 -35z" />
    <glyph glyph-name="plus" unicode="+" horiz-adv-x="1122" 
d="M625 719h417l-10 -27h-418l-176 -436h-28l176 436h-428l10 27h428l166 411h29z" />
    <glyph glyph-name="comma" unicode="," horiz-adv-x="399" 
d="M182 248q51 -8 81.5 -51t23.5 -97q-21 -129 -133 -235q-114 -108 -242 -154q94 43 180 129q92 92 109 162q-37 -10 -62 -4q-54 11 -83 54t-19 98q11 51 53.5 80.5t91.5 17.5z" />
    <glyph glyph-name="hyphen" unicode="-" horiz-adv-x="966" 
d="M221 553v27h721v-27h-721z" />
    <glyph glyph-name="period" unicode="." horiz-adv-x="423" 
d="M184 -8q-57 0 -96 38.5t-39 94.5t39 94.5t96 38.5q54 0 92.5 -39.5t38.5 -93.5t-38.5 -93.5t-92.5 -39.5z" />
    <glyph glyph-name="slash" unicode="/" horiz-adv-x="575" 
d="M-100 0l-25 4l1045 1432l24 2z" />
    <glyph glyph-name="zero" unicode="0" horiz-adv-x="1343" 
d="M1210 1403q163 -85 172 -340q9 -258 -151 -551q-93 -168 -230.5 -298t-285.5 -194q-144 -64 -292.5 -52t-256.5 104q-87 75 -117 223q-27 153 19 352q50 201 178 381q102 145 228.5 246.5t253 147.5t252 42t230.5 -61zM977 1446q-114 12 -244 -115q-128 -128 -266 -459
q-126 -311 -141 -575q-15 -266 100 -309q112 -35 256 94q75 67 152 206.5t143 332.5q69 197 106 391q35 180 8.5 303.5t-114.5 130.5z" />
    <glyph glyph-name="one" unicode="1" horiz-adv-x="909" 
d="M434 1249l498 230l-152 -371l-47 -115l-274 -682l-39 -94q-18 -44 -21.5 -80t4 -58t24.5 -38.5t33 -24t36.5 -11.5t29.5 -4.5t17 -0.5h-668q35 0 78 14q135 43 201 205l266 658l98 245q38 87 16.5 121.5t-100.5 5.5z" />
    <glyph glyph-name="two" unicode="2" horiz-adv-x="1021" 
d="M809 1434q91 10 159 -8t104.5 -55.5t53 -89t11 -108.5t-28.5 -114q-30 -73 -74 -134.5t-116 -127.5q-48 -44 -140 -119l-186 -143l-213 -166q-198 -157 -129 -185q18 -6 117 -6h57q338 0 494 199l-289 -377h-873q363 186 680 446q329 270 410 558q34 114 -33 184
q-63 66 -188 51q-96 -13 -185 -55q-91 -40 -139 -76l-47 -35q2 3 11.5 14t18 21t29.5 32t49 48q56 54 123 104q66 51 155 91.5t169 50.5zM918 377l18 22z" />
    <glyph glyph-name="three" unicode="3" horiz-adv-x="1185" 
d="M1159 1155q-84 -208 -285 -311q259 -95 117 -420q-107 -242 -346 -358q-238 -117 -452 -56q-108 31 -155.5 133t-29.5 242q11 -101 77 -170.5t189 -79.5q127 -12 246 64q122 78 182 204q66 142 15 242q-50 105 -189 96q-23 -4 -45 -8.5t-31 -6t-10 -1.5q48 16 125 59
q73 39 121 74q64 46 125.5 111.5t95.5 132.5q46 79 27.5 149t-96.5 88q-170 47 -394 -116q234 214 465 223q169 9 232 -82q63 -87 16 -209z" />
    <glyph glyph-name="four" unicode="4" horiz-adv-x="1357" 
d="M1290 541l-299 -211h-194l-82 -207l-363 -285l201 492h-604l1311 1143l-377 -932h407zM285 539h350l164 405q34 80 -2 77q-2 -1 -4 -1q-25 -3 -78 -47l-424 -373q-55 -55 -6 -61z" />
    <glyph glyph-name="five" unicode="5" horiz-adv-x="1128" 
d="M434 1071l-86 -139q-19 -36 -16 -41q5 -5 22 4q113 64 193 82q71 19 182 22q182 3 264 -110q83 -114 4 -309q-70 -172 -313 -344q-135 -97 -346 -179q-195 -76 -356 -118l-146 -35q296 86 533 260q241 174 317 352q85 205 -59 264q-47 17 -102 16.5t-101.5 -12t-96 -32.5
t-82 -39t-61.5 -37l-28 -23l477 783h690l-266 -228h-447q-47 0 -80 -20q-30 -19 -45 -38.5t-51 -78.5z" />
    <glyph glyph-name="six" unicode="6" horiz-adv-x="1208" 
d="M647 1225q340 252 647 252q-225 -24 -456 -252q-166 -166 -254 -324q33 10 34 10q245 53 371 -53q129 -105 58 -348q-69 -221 -261 -373q-195 -154 -395 -157q-145 0 -256 65q-64 38 -90.5 119.5t-3.5 193.5q38 170 139 361q67 123 187.5 254.5t279.5 251.5zM469 6
q103 27 186 191q85 163 129 364q14 75 14.5 138.5t-13 106t-37.5 68.5t-57.5 26.5t-74.5 -19.5q-101 -52 -178 -217q-76 -162 -106 -316q-12 -63 -15 -115.5t2 -89t15.5 -65t26 -44t33 -25.5t37 -8.5t38.5 5.5z" />
    <glyph glyph-name="seven" unicode="7" horiz-adv-x="1163" 
d="M565 1438h914q-279 -236 -553 -547q-96 -112 -171 -219.5t-110 -173.5q-29 -59 -74 -170l-67 -166q-59 -133 -170 -160q-82 -21 -117 33q-26 45 8 115q61 118 162 231q99 113 295 303q217 213 311 317q147 154 126 199q-13 30 -111 32q-20 1 -68 1h-47h-80
q-188 0 -307.5 -43.5t-214.5 -157.5z" />
    <glyph glyph-name="eight" unicode="8" horiz-adv-x="1157" 
d="M897 774q53 -33 88 -92q22 -39 28.5 -93t-8.5 -125.5t-53 -141.5q-94 -177 -305 -267q-208 -88 -414 -61q-169 20 -222 116.5t18 266.5q60 122 163.5 197t282.5 143q-37 22 -74 78q-34 55 -43 149q-9 96 58 209q88 161 252 242q170 83 323 71q153 -7 210 -101t-1 -235
q-88 -212 -393 -294q5 -2 16 -10.5t31.5 -23t42.5 -28.5zM639 1171q-26 -101 11 -178.5t149 -148.5q138 132 209 289q24 51 34.5 103.5t6 99.5t-35.5 78t-85 34q-80 3 -148 -53q-59 -49 -89 -102t-52 -122zM489 709q-142 -121 -219 -334q-24 -61 -31.5 -120.5t2.5 -112.5
t48.5 -87.5t103.5 -38.5q85 -4 155.5 38t108.5 112q73 137 76 256q3 101 -61 162q-31 31 -58 49q-30 23 -125 76z" />
    <glyph glyph-name="nine" unicode="9" horiz-adv-x="1169" 
d="M872 1477q28 0 55.5 -2t59.5 -7.5t60 -15.5t57 -25.5t51 -36.5t41 -49t27 -64t10.5 -80.5t-10.5 -98.5q-94 -487 -607 -867q-339 -254 -647 -254q226 24 459 254q148 142 252 324q-10 -10 -33 -10q-245 -56 -373 51t-55 350q69 221 258 373q196 155 395 158zM932 1108
q12 63 15 115.5t-1.5 89t-15 65t-25.5 43.5t-32.5 24.5t-37 8t-38.5 -5.5q-103 -27 -189 -191q-85 -168 -127 -362q-15 -75 -15.5 -138.5t12.5 -106.5t37 -69t58 -26.5t76 20.5q98 50 176 213q77 165 107 320z" />
    <glyph glyph-name="colon" unicode=":" horiz-adv-x="534" 
d="M430 682q-55 0 -95 39.5t-40 93.5t40 93.5t95 39.5q54 0 92.5 -39.5t38.5 -93.5t-38.5 -93.5t-92.5 -39.5zM152 -8q-55 0 -95.5 39.5t-40.5 93.5t40.5 93.5t95.5 39.5q54 0 92.5 -39.5t38.5 -93.5t-38.5 -93.5t-92.5 -39.5z" />
    <glyph glyph-name="semicolon" unicode=";" horiz-adv-x="573" 
d="M459 948q54 0 91.5 -39.5t37.5 -93.5t-37.5 -93.5t-91.5 -39.5q-55 0 -95 39.5t-40 93.5q0 55 39 94t96 39zM221 248q51 -8 81.5 -51t23.5 -97q-20 -127 -136 -237q-111 -105 -241 -152q91 41 180 129q88 88 109 162q-29 -10 -62 -4q-54 11 -83 54t-19 98q11 52 54 81
t93 17z" />
    <glyph glyph-name="less" unicode="&#x3c;" horiz-adv-x="958" 
d="M764 434l-594 291l836 309v-22l-779 -289l537 -264v-25z" />
    <glyph glyph-name="equal" unicode="=" horiz-adv-x="1220" 
d="M215 834l12 28h971l-12 -28h-971zM92 524l10 29h971l-10 -29h-971z" />
    <glyph glyph-name="greater" unicode="&#x3e;" horiz-adv-x="958" 
d="M309 1018l594 -291l-835 -309v22l778 289l-537 264v25z" />
    <glyph glyph-name="question" unicode="?" horiz-adv-x="788" 
d="M252 317q-4 78 15.5 153.5t59.5 141.5t78.5 115t90.5 102q155 167 184 271q34 123 -8 217q-41 95 -146 92q-85 -2 -127 -35.5t-49 -118.5q-3 -35 31 -90q37 -52 37 -82q0 -63 -39 -102.5t-96 -32.5q-54 6 -86.5 56t-26.5 122q11 137 104.5 218t255.5 81q195 0 294.5 -101
t76.5 -273q-4 -39 -26.5 -80.5t-48 -72t-76 -73.5t-80.5 -65t-94 -67.5t-87 -61.5q-97 -67 -161.5 -148.5t-75.5 -165.5zM307 31q38 38 38 94t-38 94q-37 39 -92.5 39t-93.5 -41q-38 -38 -38 -91.5t38 -94.5q38 -38 93.5 -38t92.5 38z" />
    <glyph glyph-name="at" unicode="@" horiz-adv-x="1437" 
d="M1073 1204q236 3 340 -139q105 -141 0 -375q-77 -174 -213 -301q-128 -121 -255 -180t-236 -64q-74 -5 -86 33t47 123l284 365l-4 -2q92 125 103 172q6 31 -6 52t-43 21q-52 0 -144 -57.5t-176 -146.5q-124 -130 -178 -256q-40 -104 12 -125q44 -16 102 8t99 65l35 35
q3 0 -10.5 -16.5t-45.5 -53.5q-57 -62 -157 -137q-92 -69 -174 -69q-70 0 -90 51t14 129q54 134 180 268q311 335 561 320q71 -3 107 -64l108 29l-399 -533q-73 -98 -78 -120q-9 -34 31 -31q130 9 274 135q144 129 223 322q67 163 -10 290q-77 130 -270 127
q-138 -1 -273.5 -56.5t-242.5 -148.5q-216 -188 -303 -409q-84 -221 -12 -344t278 -123q400 0 694 250q-381 -372 -799 -375q-181 0 -282 82q-183 150 -62 483q134 327 430 543q305 220 627 223z" />
    <glyph glyph-name="A" unicode="A" 
d="M1262 2h-715q75 0 147 57q77 59 74 172l-6 250h-434l-166 -237q-39 -56 -41.5 -104.5t22 -77t57 -44.5t62.5 -16h-459q183 41 369 303l864 1223l64 -1303q4 -101 48.5 -159.5t113.5 -63.5zM641 932l-297 -426h418l-10 393q-3 117 -13 127q-4 4 -6 4q-20 11 -92 -98z" />
    <glyph glyph-name="B" unicode="B" horiz-adv-x="1538" 
d="M453 1434h710q220 0 331.5 -100.5t78.5 -262.5q-30 -150 -142 -239t-272 -97q167 -21 244 -141q76 -116 41 -258q-18 -73 -57.5 -130t-92.5 -92t-118 -61t-133.5 -36t-140 -17t-137 -5t-124.5 1h-53l-699 4q201 15 283 223l403 998q77 192 -122 213zM995 1415l-264 -655
q65 0 160 10q281 47 375 301q49 132 -13 238q-57 106 -211 106h-47zM600 18l27 -2q104 -9 217 43q65 32 122 104t91 173q57 158 -21 280q-77 121 -245 121h-68l-211 -512q-83 -195 88 -207z" />
    <glyph glyph-name="C" unicode="C" horiz-adv-x="1394" 
d="M1593 1264l-192 -392q12 218 -39 371q-53 160 -186 178q-148 21 -287 -82q-142 -105 -234 -276q-71 -134 -95 -277.5t9 -296.5q41 -145 148 -215q78 -58 203 -59.5t246.5 56t183.5 157.5q-120 -238 -299.5 -351t-413.5 -73q-145 26 -246 126t-137 241q-34 134 -11 295.5
t99 298.5q276 504 858 477q252 -12 393 -178z" />
    <glyph glyph-name="D" unicode="D" horiz-adv-x="1671" 
d="M1468 1362q64 -36 118.5 -106.5t90.5 -168.5q38 -94 31.5 -236.5t-61.5 -287.5q-215 -563 -940 -563h-832q94 6 180 54.5t117 123.5l426 1059q34 81 -10.5 136.5t-130.5 60.5h510q106 1 187.5 1t161 -17t152.5 -56zM1102 256q134 145 217 379q85 240 76 414
q-6 180 -87.5 271.5t-248.5 92.5h-62l-483 -1206q-30 -67 -18.5 -107t40 -56.5t70.5 -16.5h17q136 0 249 51.5t230 177.5z" />
    <glyph glyph-name="E" unicode="E" horiz-adv-x="1583" 
d="M1180 186q235 125 356 299l-193 -485h-1507q92 0 195 68q101 70 141 168l412 1007q30 76 -16.5 131t-131.5 60h1176l30 -476q-15 35 -47 89q-2 4 -55 83q-26 42 -69.5 87.5t-84.5 74.5q-100 69 -192 94q-89 24 -213 27l-258 -641h61q342 0 484 244l-232 -615
q12 41 5 96.5t-29 114.5q-21 58 -87.5 98t-156.5 40h-55l-244 -607q-20 -53 1 -84.5t73 -31.5h63q281 0 574 159z" />
    <glyph glyph-name="F" unicode="F" horiz-adv-x="1400" 
d="M473 1434h1159l31 -486l-35 70q-21 46 -88 137q-65 88 -133 137q-106 71 -193 92q-93 26 -213 29l-264 -651h64q339 0 481 244l-231 -615q26 71 -25 211q-20 58 -86 97.5t-156 39.5h-55l-209 -514q-37 -104 3.5 -162t131.5 -63h-798q92 0 186 55q97 57 143 170l414 1016
q31 80 -7 134t-120 59z" />
    <glyph glyph-name="G" unicode="G" horiz-adv-x="1601" 
d="M1661 1247l-182 -377q15 168 -37 326q-52 163 -152 203q-72 30 -142 31t-130 -24.5t-114 -68t-99 -101.5t-80.5 -124t-62.5 -137q-51 -139 -63 -288t14 -274t102 -209.5t190 -92.5q160 -12 230 67q35 38 53 70q22 39 41 86q18 45 18.5 81.5t-10.5 59t-32 39t-39.5 24
t-39.5 11.5h537l-37 -6q-39 -7 -92 -57t-86 -124l-162 -389l-10 39q-12 46 -43.5 92t-71.5 62q-50 -58 -87.5 -86.5t-106.5 -52.5q-77 -27 -176 -27q-167 -1 -294 80.5t-184 216.5q-55 131 -47.5 301t78.5 332q66 153 175.5 265.5t228.5 164.5q113 52 233 70q209 35 356 -9
q97 -25 189.5 -74t134.5 -100z" />
    <glyph glyph-name="H" unicode="H" horiz-adv-x="1746" 
d="M1456 1434h731q-81 0 -159 -49.5t-117 -145.5l-410 -1014q-43 -106 12 -164q58 -58 148 -61h-787q80 3 168 63q84 60 125 156l209 518h-626l-207 -512q-43 -106 12 -164q58 -58 147 -61h-786q80 3 168 63q86 61 123 156l411 1018q34 82 -3 137t-119 60h733
q-83 0 -161 -49.5t-118 -145.5l-194 -483h628l195 481q34 84 -3 138t-120 59z" />
    <glyph glyph-name="I" unicode="I" horiz-adv-x="884" 
d="M463 1434h772q-45 3 -99.5 -14.5t-111.5 -65t-86 -115.5l-410 -1014q-43 -106 21 -164t158 -61h-826q81 6 178 66q95 59 136 155l378 944q48 106 18.5 181.5t-128.5 87.5z" />
    <glyph glyph-name="J" unicode="J" horiz-adv-x="749" 
d="M444 1434h770q-71 0 -165 -52q-91 -49 -131 -143l-406 -1010q-66 -161 -173 -275.5t-247 -174.5q-259 -114 -602 -117q108 0 317 123q109 64 210.5 183t160.5 263l410 1006q34 82 -15 137q-48 57 -129 60z" />
    <glyph glyph-name="K" unicode="K" horiz-adv-x="1495" 
d="M457 1434h710q-78 0 -147.5 -49t-108.5 -146l-409 -1014q-43 -106 12 -164q58 -58 148 -61h-787q85 5 170.5 66.5t122.5 154.5l412 1014q31 84 -5 139t-118 60zM1100 768l164 -426q65 -168 131 -255t114 -87h-393q-41 53 -96 190l-189 467q-27 72 -122 37l575 453
q47 35 72.5 77t25 79t-16 68t-49 48t-75.5 15h621q-75 0 -248 -95q-172 -96 -354 -241l-130 -105q-106 -84 -30 -225z" />
    <glyph glyph-name="L" unicode="L" horiz-adv-x="1370" 
d="M915 1245l-423 -1055q-30 -69 -5.5 -112t95.5 -43h20q88 0 208 42.5t224 112.5q265 166 350 299l-215 -489h-1292q83 3 168 63q83 60 125 158l412 1016q34 82 -3 137t-118 60h710q-75 0 -146 -47.5t-110 -141.5z" />
    <glyph glyph-name="M" unicode="M" horiz-adv-x="2199" 
d="M1292 453l830 979l461 2q-74 0 -146.5 -76.5t-116.5 -200.5l-333 -887q-43 -115 4 -192q48 -75 133 -78h-799q90 0 170 63.5t127 190.5l299 776q44 120 27 127q-19 10 -84 -67l-971 -1156l-209 1139q-11 64 -21 85.5t-24 21.5q-23 0 -64 -95l-309 -759
q-28 -78 -28.5 -134.5t28 -96.5t69.5 -62.5t97 -32.5h-596q99 9 219 90q120 79 187 242l321 784q46 119 -6 217t-170 101h567l179 -981q10 -58 16.5 -75t19.5 -22q34 -9 123 97zM2583 1434h2h-2z" />
    <glyph glyph-name="N" unicode="N" horiz-adv-x="1546" 
d="M1425 1436h590q-89 -3 -198 -80q-104 -76 -175 -250l-475 -1165l-446 1095l-25 62q-7 23 -21.5 42.5t-25.5 22.5q-19 5 -37 -19t-43 -85l-282 -697q-123 -304 141 -362h-573q107 21 204 84q117 78 203 289l299 735q46 106 -10 215q-52 108 -156 111h525l350 -867
q35 -80 55 -86q17 -5 35 19.5t47 93.5l211 520q53 134 -4 223q-59 96 -189 99z" />
    <glyph glyph-name="O" unicode="O" horiz-adv-x="1738" 
d="M1513 1423q86 -31 147 -108.5t87 -190.5q27 -115 -1.5 -271t-111.5 -323q-85 -171 -230.5 -306.5t-313.5 -205.5q-162 -71 -344.5 -69.5t-321.5 84.5q-119 67 -160 231q-41 167 12 373q53 209 185 391q211 285 504 387q288 100 548 8zM1280 1446q-129 15 -274 -115
q-148 -132 -285 -459q-82 -193 -114.5 -393.5t-2.5 -341.5t121 -160q130 -35 283 115t284 526q73 211 102.5 392t2 302.5t-116.5 133.5z" />
    <glyph glyph-name="P" unicode="P" horiz-adv-x="1327" 
d="M1518 1245q51 -90 36 -225q-15 -130 -92 -219q-114 -133 -293 -173.5t-419 5.5q410 12 518 375q10 40 15 84.5t-1.5 102.5t-29.5 103t-76.5 78t-133.5 37q-5 0 -21 1t-20 1l-479 -1190q-41 -106 23 -164t155 -61h-825q81 6 178 66q91 56 133 155l412 1014q34 82 -14 139
t-127 60h553h112q290 0 396 -189z" />
    <glyph glyph-name="Q" unicode="Q" horiz-adv-x="1568" 
d="M1442 1423q86 -31 146.5 -108.5t86.5 -190.5q27 -116 -1 -272t-111 -322q-85 -171 -231 -306.5t-314 -205.5q-161 -71 -342 -69.5t-324 84.5q-118 67 -159 231q-41 167 12 373q54 213 186 391q212 286 502 387t549 8zM1210 1446q-129 15 -274 -115q-146 -128 -285 -459
q-82 -194 -114.5 -394t-2.5 -340.5t121 -160.5q131 -35 281 115q154 151 285 526q76 205 105.5 388.5t1 306t-117.5 133.5zM430 -88q80 -25 137 -76q20 -18 110.5 -107.5t137.5 -119.5q64 -41 138 -58.5t151.5 3.5t122.5 90q-42 -119 -146 -181q-104 -65 -247 -38
q-88 19 -163 66t-120 103q-42 56 -106.5 112t-129.5 85q-73 40 -171.5 27.5t-168.5 -78.5q83 115 211 162t244 10z" />
    <glyph glyph-name="R" unicode="R" horiz-adv-x="1443" 
d="M1513 999q-82 -253 -458 -315l4 -2q75 -37 127 -178l76 -205q59 -160 102 -215q54 -66 123 -84h-412q-40 34 -92 182l-115 342q-35 105 -72.5 145.5t-101.5 53.5l-202 -500q-46 -106 2 -166q48 -57 124 -57h-722q66 0 155 59q91 64 131 166l406 1014q32 78 -5.5 134
t-117.5 61h665q83 0 151 -18.5t114.5 -50t78.5 -74t45.5 -91t12 -100t-18.5 -101.5zM1223 1030q24 59 28 123t-14 123t-73.5 98t-143.5 41h-43l-275 -672q68 -8 168 9q143 26 224 91.5t129 186.5z" />
    <glyph glyph-name="S" unicode="S" horiz-adv-x="1261" 
d="M1425 1290l-165 -293q3 76 -52 217q-53 136 -166 191q-153 74 -251 -14q-95 -89 -80 -263q1 -23 24 -94q6 -15 30.5 -46.5t25.5 -33.5q3 -6 14.5 -17.5l22 -22t22.5 -22t14 -13.5l43 -41l45 -39q57 -49 92.5 -88t71.5 -95q45 -64 60 -112q20 -51 16 -123t-35 -137
q-52 -110 -182 -181q-126 -69 -258 -75q-341 -15 -563 149q-52 40 -99 92l211 396v-52q-2 -56 11 -139.5t38 -146.5q46 -110 156 -197q113 -84 242 -84q92 0 147 46t60 112q3 64 0 123q-7 53 -39.5 109t-69.5 93q-39 39 -94 86l-86 76q-111 104 -161 198.5t-48 174t45 166.5
q73 150 219 209q143 61 313 55q79 -4 155 -22.5t108 -34.5q10 -4 77 -41q57 -33 86 -66z" />
    <glyph glyph-name="T" unicode="T" horiz-adv-x="1562" 
d="M434 1434h1288v-371l-18 41q-9 27 -59 92q-49 67 -113 119q-121 92 -244 92h-39q-11 -42 -28 -82l-445 -1098q-38 -95 11 -158.5t155 -68.5h-821q82 0 180 61q100 63 141 166l447 1096q10 22 16.5 43t7.5 31t0 10h-47q-150 0 -327 -104q-72 -45 -136 -101
q-60 -52 -106 -102l-37 -41z" />
    <glyph glyph-name="U" unicode="U" horiz-adv-x="1439" 
d="M1407 1434h567q-106 0 -212 -92.5t-183 -284.5l-209 -527q-52 -132 -103.5 -221.5t-123.5 -169.5q-147 -159 -400 -159q-157 0 -267 63t-161 172q-98 210 29 533l172 426q103 257 -98 260h743q-215 0 -291 -193l-235 -598q-90 -259 -39 -407q54 -153 203 -168
q189 -21 317 98q129 120 248 422l190 475q70 177 30.5 271.5t-177.5 99.5z" />
    <glyph glyph-name="V" unicode="V" horiz-adv-x="1175" 
d="M459 -76l-84 1288q-7 103 -50.5 162t-111.5 64h725q-74 0 -152 -60q-75 -57 -69 -170l28 -639q6 -121 21 -127q23 -10 70 56l6 8l483 680q39 56 42 106t-20.5 80.5t-55 48t-60.5 17.5h448q-176 -41 -362 -303z" />
    <glyph glyph-name="W" unicode="W" horiz-adv-x="2004" 
d="M2050 1434h451q-175 -37 -363 -299l-858 -1211l-70 1039l-725 -1041l-84 1290q-6 103 -48 160t-111 62h729q-74 0 -150 -58q-74 -54 -71 -168l24 -620q6 -133 25 -142q15 -6 69 72l340 479l-14 215q-6 102 -48.5 159.5t-111.5 62.5h723q-75 0 -151 -58q-76 -55 -70 -168
l29 -639q6 -123 20 -129q25 -9 68 54l8 10l483 682q40 56 44 105.5t-20 79t-56 46.5t-62 17z" />
    <glyph glyph-name="X" unicode="X" horiz-adv-x="1449" 
d="M1038 788l176 -563q35 -108 125 -168q89 -57 177 -57h-824q113 18 159.5 85.5t16.5 154.5l-141 428l-324 -346q-71 -81 -88 -153t19 -116.5t115 -52.5h-564q93 15 221 100q136 93 201 164l410 434l-178 543q-64 193 -267 193h756q-77 -5 -117.5 -58.5t-15.5 -132.5
l133 -426l279 307q58 63 75 122.5t-0.5 98.5t-50 63t-69.5 26h514q-76 -12 -203 -107q-137 -103 -254 -231z" />
    <glyph glyph-name="Y" unicode="Y" horiz-adv-x="1433" 
d="M1315 1434h428q-52 -6 -144.5 -79t-193.5 -190l-342 -397q-35 -38 -92 -176l-148 -365q-43 -108 21 -166t157 -61h-782q52 0 141 68q93 72 127 153l160 391q47 118 29 193l-107 405q-29 116 -102 170t-131 54h645q-69 -7 -102 -64t-13 -131l109 -408q12 -46 33 -49
q29 -3 65 41l287 330q49 58 64.5 112.5t1.5 90t-44 57t-67 21.5z" />
    <glyph glyph-name="Z" unicode="Z" horiz-adv-x="1353" 
d="M524 23h37q187 0 428 170q222 154 328 305l-148 -498h-1228l1216 1309q21 23 32 40t12.5 32.5t-17.5 23.5t-58 8h-36q-173 0 -428 -156q-249 -149 -343 -292l189 469h1128l-1192 -1287q-48 -49 -24.5 -86.5t104.5 -37.5z" />
    <glyph glyph-name="bracketleft" unicode="[" horiz-adv-x="579" 
d="M297 -375l-395 -2l737 1807l395 -5l-334 -65l-677 -1675z" />
    <glyph glyph-name="backslash" unicode="\" horiz-adv-x="813" 
d="M672 0h-33l-549 1436h31z" />
    <glyph glyph-name="bracketright" unicode="]" horiz-adv-x="501" 
d="M303 1434l393 2l-737 -1807l-393 4l332 66l680 1675z" />
    <glyph glyph-name="asciicircum" unicode="^" horiz-adv-x="843" 
d="M430 1262l291 -527l-293 461l-307 -440z" />
    <glyph glyph-name="underscore" unicode="_" horiz-adv-x="970" 
d="M35 4v29h813v-29h-813z" />
    <glyph glyph-name="grave" unicode="`" horiz-adv-x="1196" 
d="M123 1350l41 -314l-170 267q-23 37 -30.5 67t-0.5 49t18.5 30t26.5 17q43 14 75.5 -15.5t39.5 -100.5z" />
    <glyph glyph-name="a" unicode="a" horiz-adv-x="1167" 
d="M893 78q33 -8 94 35q65 43 111 90l45 47q-8 -9 -43 -55q-23 -29 -53 -64q-11 -15 -56 -57q-49 -50 -103 -74.5t-128 -30.5q-50 0 -84 16t-48 41t-17 57.5t3 62.5t17 59l157 397q121 331 23 352q-64 14 -168 -82q-97 -90 -182 -241q-93 -162 -111 -293q-18 -134 45 -168
q42 -27 88.5 -16t83 38.5t62.5 63.5l-17 -35q-19 -43 -63 -106q-42 -67 -114 -108.5t-165 -37.5q-103 3 -157 94q-52 89 -32 230.5t107 279.5q72 118 162.5 204t177.5 124q153 68 256 68q131 -3 193 -86l67 20l154 49l-301 -782q-35 -86 -4 -92z" />
    <glyph glyph-name="b" unicode="b" horiz-adv-x="1118" 
d="M524 733q156 237 342 240q81 4 137.5 -43.5t77.5 -129t-2.5 -197t-95.5 -236.5q-121 -209 -254.5 -305.5t-298.5 -94.5q-96 2 -164.5 39.5t-103 99.5t-45.5 141t3 164t48 169l252 612q57 140 41 182q-10 23 -53 39t-89 21l-40 2h514l-410 -998q-37 -86 -54.5 -184
t-4.5 -175t59 -89q70 -18 143.5 59.5t163.5 239.5q85 156 113 309q28 154 -23 199q-39 35 -88.5 30t-93.5 -31t-74 -63z" />
    <glyph glyph-name="c" unicode="c" horiz-adv-x="942" 
d="M780 956q76 -13 127.5 -68t57.5 -120q15 -89 -39 -158q-38 -36 -91 -38.5t-85 28.5q-38 37 -33 90t49 82l12 8l10.5 7t8 5.5t7.5 6.5t5.5 6.5t6 8t4.5 9.5t5.5 12t5.5 15q21 85 -65 100q-137 21 -266 -114q-88 -88 -135 -215q-42 -119 -39 -226q5 -99 51 -169.5
t123 -88.5q58 -14 108.5 -6.5t87 21t66 37t46.5 43t28 38.5l12 21q-17 -52 -53 -115q-35 -56 -76 -100q-46 -47 -120 -81t-155 -34q-136 -3 -243 84q-102 89 -123 244q-41 307 188 522q213 197 514 145z" />
    <glyph glyph-name="d" unicode="d" horiz-adv-x="1196" 
d="M881 96q15 -24 73 10q56 36 107 87l51 47q-117 -145 -174 -189q-92 -69 -188 -69q-70 0 -105 71q-35 75 2 176l154 373q124 325 10 346q-70 15 -170 -71q-94 -85 -178 -232q-90 -167 -111 -309q-21 -147 37 -174q65 -35 137 2q77 38 117 104q-1 -1 -6.5 -12.5t-13 -27
t-11.5 -23.5q-28 -63 -51 -90q-115 -150 -278 -150q-106 0 -162 90q-57 90 -38 237t110 286q77 122 166.5 208t175.5 123q160 70 270 58q75 -9 127 -52l133 326q41 102 31 131q-9 23 -70 39q-63 16 -113 19l-55 2h537l-498 -1248q-27 -68 -16 -88z" />
    <glyph glyph-name="e" unicode="e" horiz-adv-x="983" 
d="M778 967q83 -10 144 -59t73 -122t-53 -161q-78 -99 -258 -140q-101 -15 -139 -16q-29 -2 -62 -2h-55h-41q211 21 369 217q34 44 58 103t25.5 105.5t-32.5 59.5q-77 18 -197 -84t-192 -243q-46 -85 -63.5 -189t10 -192t102.5 -109q48 -13 94 -14t83.5 10t70 25.5t59 35.5
t44.5 38t32 34l18 23q1 -2 -7 -20.5t-29 -52.5t-48 -69q-42 -55 -96 -96t-142.5 -66.5t-189.5 -11.5q-113 15 -186 113q-72 99 -75.5 231.5t63.5 280.5q58 117 142.5 199.5t176.5 119.5q161 65 301 52z" />
    <glyph glyph-name="f" unicode="f" horiz-adv-x="741" 
d="M1239 1268q7 -82 -33.5 -133t-99.5 -45q-66 9 -86 65q-20 57 14 100q52 61 51.5 112.5t-55.5 68.5q-72 18 -148 -73.5t-149 -279.5l-63 -161h280l-35 -23h-253l-322 -825q-54 -137 -125.5 -244t-140.5 -160q-61 -50 -135 -78q-67 -27 -118 -33t-89 1q-72 6 -138 37.5
t-100 80.5q-42 54 -33 119q6 66 52 90q53 38 110 17q59 -21 68 -86q1 -26 -8 -57.5t-20 -55t-11 -24.5q-9 -90 82 -99q102 -9 196 166q36 67 72 148q15 32 66 161l335 842h-108l-27 23h144l61 151q88 220 237 313.5t334 63.5q177 -27 195 -182z" />
    <glyph glyph-name="g" unicode="g" horiz-adv-x="1019" 
d="M670 971q134 -1 215 -70t86 -174q9 -205 -133 -317q-143 -113 -346 -101q-81 3 -152 33q-56 -35 -35 -98q8 -31 80 -72l170 -88q102 -54 152 -107q46 -46 69 -110.5t12 -112.5q-27 -127 -155 -188q-125 -61 -299 -55q-125 2 -222 29.5t-158.5 90t-57.5 152.5
q4 58 36.5 102t78 65.5t85.5 31.5t72 10l31 2q-63 -26 -90 -109q-28 -84 -13 -141q21 -99 91.5 -155.5t183.5 -57.5q100 -1 159.5 49.5t61.5 126.5q2 58 -42.5 118.5t-121.5 104.5q-41 25 -102 52l-109 51q-46 22 -76.5 60.5t-29.5 84.5q3 120 219 170q-131 66 -140 201
q-15 177 125 299q141 126 355 123zM741 686q41 235 -59 264q-93 27 -166 -80q-74 -108 -92 -266q-35 -245 84 -272q79 -21 147 88q71 109 86 266zM1098 965q29 -1 44 -16t15 -36q0 -26 -15.5 -44t-43.5 -17q-13 1 -39 17.5t-37 19.5q-34 9 -80 -31q12 20 21 32t29 33t47 32
t59 10z" />
    <glyph glyph-name="h" unicode="h" horiz-adv-x="1222" 
d="M823 1434l-592 -1434h-245l475 1192l35 80q47 114 30 131q-7 10 -56 17.5t-101 9.5l-47 4h501zM932 84q16 -10 76 35q69 52 114 92l52 47l-39 -45q-29 -39 -45 -55q-3 -3 -19 -21t-29 -31q-50 -52 -112 -88q-61 -38 -135 -38q-56 0 -90 25.5t-41.5 80t24.5 139.5l123 275
q38 85 54 138.5t13 93.5t-28 73q-10 14 -29.5 20.5t-51 2t-68 -21.5t-84.5 -57.5t-97 -99.5q107 177 246 254q137 76 252 49q214 -58 80 -385l-152 -370q-30 -89 -24 -105q3 -6 10 -8z" />
    <glyph glyph-name="i" unicode="i" horiz-adv-x="708" 
d="M754 1079q-44 -44 -108.5 -44t-108.5 44q-43 47 -43 110.5t43 106.5q44 44 108.5 44t108.5 -44q44 -43 44 -106.5t-44 -110.5zM115 215l225 530q24 59 18 68l-10 6q-16 10 -78 -28q-62 -37 -114 -78l-54 -43q82 92 189 172q112 87 188 102q94 15 148 -45q52 -58 6 -172
l-234 -563q-28 -66 -6 -72q17 -8 80 33q65 41 117 84l53 45q-53 -58 -82 -88q-28 -31 -90 -84q-123 -102 -246 -102q-31 0 -60 13t-51.5 41.5t-23 73t24.5 107.5z" />
    <glyph glyph-name="j" unicode="j" horiz-adv-x="763" 
d="M815 1079q-44 -44 -108.5 -44t-108.5 44q-43 47 -43 110.5t43 106.5q44 44 108.5 44t108.5 -44q44 -43 44 -106.5t-44 -110.5zM709 731l-326 -811q-30 -74 -72.5 -132.5t-87.5 -95.5t-97 -62.5t-98.5 -37t-94.5 -16t-82 -3t-64 6.5q-72 6 -140.5 42.5t-99.5 90.5
q-34 62 -29.5 121t42.5 92q46 46 118 31q72 -18 84 -100q0 -22 0.5 -32t-6.5 -32.5t-10 -30.5t-11 -26.5t-9 -20.5q-12 -36 3 -68t50 -42q76 -24 144 46t136 234l334 820q45 111 23 120q-18 9 -80 -32q-83 -58 -113 -84l-51 -43l98 106q40 39 107 92q75 56 127 72
q122 39 188 -27q64 -64 17 -178z" />
    <glyph glyph-name="k" unicode="k" horiz-adv-x="1050" 
d="M834 156q52 -13 97 1.5t66 41.5l19 24q-54 -142 -124 -201.5t-169 -46.5q-151 27 -172 273l-10 164q-4 71 -27 104q-21 35 -57 41l-228 -557h-247l481 1219q59 146 47 167q-13 30 -150 44l-45 2h498l-350 -859q152 47 207 -75q12 -24 28 -119q15 -95 45.5 -150t90.5 -73z
M1040 969q60 0 79 -49q18 -46 -13 -87q-32 -41 -94 -40q-168 -6 -289 -45q-63 -22 -120.5 -56t-82.5 -61l-22 -23q67 102 190 207q187 166 352 154z" />
    <glyph glyph-name="l" unicode="l" horiz-adv-x="649" 
d="M831 1434l-493 -1211q-62 -148 -27 -151q30 -3 88 37q59 41 105 84l45 43l-51 -62q-20 -24 -62 -72q-129 -134 -248 -125q-118 0 -147 77t33 241l401 973q37 90 21 112q-13 19 -56.5 33.5t-83.5 16.5l-37 4h512z" />
    <glyph glyph-name="m" unicode="m" horiz-adv-x="1837" 
d="M573 676q98 168 240 242q140 76 258 32q33 -11 58 -37t41 -69t9 -112t-40 -154l-232 -580h-266l203 512q83 210 49 276q-6 12 -23.5 23.5t-48.5 15.5t-67 -5t-84.5 -45.5t-96.5 -98.5zM1599 96q34 -3 89 35q59 40 100 82l43 41q-110 -130 -176 -180q-100 -74 -197 -74
q-180 0 -112 227l114 283q53 126 64 182q15 60 -6 101q-9 17 -29.5 26.5t-53 6.5t-70 -19t-85 -55.5t-94.5 -98.5q108 170 233 251t232 54q217 -43 100 -380l-137 -345q-49 -131 -15 -137zM578 727l-295 -727h-260l294 733q27 66 -2 82q-21 12 -79 -22q-62 -37 -105 -74
l-49 -41q76 85 176 172q97 81 160 96q110 27 164 -24t-4 -195z" />
    <glyph glyph-name="n" unicode="n" horiz-adv-x="1261" 
d="M995 96q32 -4 88 35q53 37 105 82l43 43q-13 -13 -27 -31q-17 -23 -30 -35q-2 -3 -31 -32q-35 -38 -70 -66q-102 -92 -221 -92q-86 0 -116.5 54t3.5 175l115 285q52 127 64 184q12 56 -7 101q-8 18 -28.5 27.5t-53 6t-70.5 -20t-86 -56t-95 -97.5q109 172 234 253t235 55
q65 -14 103 -59.5t43.5 -127t-44.5 -198.5l-141 -346q-47 -134 -13 -140zM588 735l-285 -735h-264l262 682q46 106 27 115q-24 12 -78 -19q-54 -28 -94 -65l-41 -35q221 255 358 270q67 8 103.5 -19t37.5 -77t-26 -117z" />
    <glyph glyph-name="o" unicode="o" horiz-adv-x="1077" 
d="M649 967q60 6 118 -1.5t112 -32.5t93.5 -65.5t61.5 -104.5t17 -145q-9 -205 -121 -370q-108 -164 -271 -234q-168 -72 -325 -39q-113 24 -176 115.5t-58 206.5q3 105 39 225q43 121 108.5 211t139.5 135q135 87 262 99zM662 938q-71 -35 -137.5 -154t-108.5 -282
q-69 -278 -41 -418q15 -81 69 -90q92 -15 191 166q99 180 153 471q34 165 3 256q-34 101 -129 51z" />
    <glyph glyph-name="p" unicode="p" horiz-adv-x="1150" 
d="M950 965q92 1 145.5 -59t61.5 -151.5t-23 -204t-98 -212.5q-61 -97 -129 -170.5t-131 -110.5q-59 -38 -122 -57t-110 -19t-89 7q-84 18 -125 80l-123 -306q-65 -152 -47 -170q9 -9 82 -18q70 -9 139 -12l65 -2h-796l4 2q166 12 196 35q10 7 24 27t22 38q11 33 45 100
l381 949q14 32 20.5 48.5t10.5 31.5t2.5 22.5t-7.5 13.5q-28 9 -88 -30q-59 -38 -104 -80l-47 -41q90 110 204 196q123 90 219 82q144 -18 80 -190l-137 -340q-29 -98 -41 -150q-15 -80 -12 -168q3 -85 51 -100q140 -49 315 291q100 189 115 330q15 140 -67 174
q-57 17 -118.5 -9.5t-96.5 -70.5l-31 -37q6 12 16.5 31.5t47 68.5t75.5 86.5t99.5 67t121.5 27.5z" />
    <glyph glyph-name="q" unicode="q" horiz-adv-x="1122" 
d="M668 -408q16 -16 163 -30l50 -2h-748q169 3 203 37q24 21 59 104l391 956q95 275 -2 297q-63 15 -163 -75q-98 -88 -177 -230q-60 -111 -94 -216.5t-31 -185t52 -100.5q55 -25 116 3q62 32 91 71l32 43q-3 -6 -8 -17t-22 -41.5t-36 -58t-49.5 -61.5t-62.5 -57.5
t-74.5 -39.5t-85.5 -14q-77 2 -129.5 59.5t-70 144t3 197.5t80.5 214q70 122 156 205.5t173 119.5q151 65 289 52q117 -15 182 -80l199 55l39 12l-494 -1222q-52 -123 -32 -140z" />
    <glyph glyph-name="r" unicode="r" horiz-adv-x="972" 
d="M627 713l10 16q38 63 90 117q116 125 252 119q91 2 122 -67q24 -55 -3 -111q-28 -58 -86 -57q-12 0 -25 3q-46 6 -72 43q-25 35 -49 45q-102 41 -239 -108zM358 766l-311 -766h275l305 750q22 61 22 96q0 78 -78 102q-78 28 -141 -12q-45 -20 -151 -109
q-104 -90 -162 -157l47 39q39 34 104 79q59 41 80 41q33 0 10 -63z" />
    <glyph glyph-name="s" unicode="s" horiz-adv-x="929" 
d="M635 971q132 5 216 -55.5t85 -163.5q2 -57 -30 -100.5t-87 -49.5q-47 -4 -86 25.5t-37 68.5q0 32 33 74q34 43 37 78q5 51 -33.5 86t-93.5 29q-68 -9 -98 -76q-28 -68 -17 -123q7 -26 29 -90q18 -22 33 -58l49 -71q42 -61 61 -99q22 -35 40 -87t18 -101
q-3 -167 -144 -238q-140 -67 -329 -49q-105 8 -177 66t-84 160q-10 90 41.5 154.5t133.5 66.5q58 2 93.5 -39t18.5 -94q-16 -54 -59 -74q-45 -22 -60 -51q-34 -58 0 -119q37 -58 117 -61q92 -1 138 58.5t38 160.5q0 54 -39 120q-17 44 -34 66q-3 6 -11.5 20.5t-18.5 30
t-11 17.5q-107 168 -86 284q38 216 354 234z" />
    <glyph glyph-name="t" unicode="t" horiz-adv-x="702" 
d="M780 901h-137l-289 -717q-34 -85 -14 -92q28 -12 94 33q64 42 125 100l55 54q-4 -4 -12.5 -15t-23.5 -30t-29 -37q-60 -73 -82 -99q-37 -39 -91 -74t-100 -40q-106 -15 -172 51q-65 65 0 221l267 645h-99l-16 21h123l72 176l342 176l-142 -352h150z" />
    <glyph glyph-name="u" unicode="u" horiz-adv-x="1212" 
d="M317 842q-16 9 -71 -31q-70 -51 -103 -82l-45 -43l74 84q21 24 78 78q103 100 205 100q54 0 89.5 -26.5t45.5 -78.5t-17 -130q-56 -142 -112 -297q-68 -189 -68 -230q0 -27 13 -43q9 -16 24.5 -25t41 -8t56.5 15.5t73 51.5t87 93q-86 -161 -196.5 -234t-217.5 -48
q-212 50 -110 364l141 381q28 91 23 101q-2 3 -11 8zM1210 922l-270 -748q-27 -75 -8 -78q25 -6 76 33q56 43 94 84l41 45l-39 -51q-39 -56 -49 -68q-3 -3 -20.5 -22t-33.5 -35q-49 -52 -99 -75.5t-118 -26.5q-71 5 -106.5 68t-1.5 151l266 723h268z" />
    <glyph glyph-name="v" unicode="v" horiz-adv-x="1042" 
d="M952 535q-107 -174 -270 -349q-162 -171 -297 -249q22 232 -20 559q-23 168 -54.5 241t-89.5 97q-46 13 -94 -13t-78 -96q19 90 81.5 151.5t152.5 71.5q66 6 110 -4t86 -47q90 -73 137 -367q33 -215 33 -354q166 172 238 285q109 199 20 295q-52 52 -49 112q3 35 35 64
q30 27 86 18q57 -9 78 -49q59 -97 -105 -366z" />
    <glyph glyph-name="w" unicode="w" horiz-adv-x="1488" 
d="M1448 934q36 -5 56 -30t22.5 -70t-12.5 -106t-51.5 -143t-92.5 -177q-89 -144 -256 -289q-162 -142 -264 -180q37 187 -19 487q1 -3 -17.5 -28.5t-59.5 -71t-88 -88.5q-66 -61 -177 -154q-43 -38 -137 -113l-49 -37l6 84l10 205q6 144 -4 246q-13 185 -40.5 263t-81.5 89
q-95 21 -138 -114q9 51 33 120q35 78 123 103q23 5 46.5 7t56.5 -2.5t62 -17.5t60 -41.5t54 -69.5t40 -107.5t23 -151.5q18 -254 4 -383q177 130 270 278l-30 99q-49 160 -49 196q4 99 65 152t166 51q49 -1 70.5 -43.5t9.5 -101.5q-9 -63 -49 -160q81 -190 84 -518
q121 98 206 213q92 125 117 198q35 96 -8 174q-7 13 -34 41.5t-43 56t-11 52.5q1 42 41.5 67.5t85.5 14.5zM1049 831q0 47 -21 71t-47 7q-48 -34 -14 -159l34 -99l3 4q13 20 29 71.5t16 104.5z" />
    <glyph glyph-name="x" unicode="x" horiz-adv-x="1042" 
d="M971 940q54 2 86.5 -22t41.5 -59t7 -76t-10 -71.5t-17 -47.5q8 62 -24 104.5t-92 48.5q-102 9 -207 -108q-40 -39 -101 -134l31 -233q35 -247 117 -262q96 -18 155 96q0 -3 -4 -18t-17 -42t-32.5 -53t-56.5 -49t-84 -32q-262 -40 -309 280l-13 86l-90 -141
q-88 -131 -146.5 -182t-123.5 -50q-113 3 -131 101q-9 49 18 104q33 76 72 115q-26 -51 -8 -111q21 -55 71 -69q118 -30 222 94q41 44 114 153l-41 314q-21 155 -98 164q-90 12 -158 -109q4 19 31 70q76 129 207 143q223 24 260 -254l12 -102q47 87 74 121q31 51 45 69
q12 21 47 70q39 44 74.5 68t77.5 24z" />
    <glyph glyph-name="y" unicode="y" horiz-adv-x="1005" 
d="M928 956q138 -9 98 -190q-34 -154 -190 -379q-238 -352 -611 -641l-30 -25q-32 -26 -78 -55q-74 -53 -150 -63q-132 -18 -174 24q-28 36 -14 88q12 54 65 66q37 10 78 -4q6 -4 25 -10q4 -3 25.5 -14.5t25.5 -14.5q114 -49 270 74l56 43q38 30 120 118q-9 125 -36 295
q-22 135 -58 273q-46 166 -90 223q-43 58 -90 61q-97 9 -143 -92q15 66 62 124.5t116 80.5q148 42 240 -41.5t145 -314.5q55 -253 55 -394q68 75 143 168q70 97 107 176q59 132 -14 211l-52 58q-21 26 -18 69q2 36 34 63t83 23z" />
    <glyph glyph-name="z" unicode="z" horiz-adv-x="890" 
d="M586 154q169 -34 268 86q-16 -44 -51 -97q-42 -73 -107 -123t-147 -51q-96 3 -201 66q-101 64 -184 67q-151 9 -240 -65q58 113 172 215q192 177 514 354q57 33 135 94l17 15q-96 -9 -174 0q-62 10 -131 49q-27 15 -78 41q-27 9 -62 12q-41 5 -96 -19t-90 -75
q16 38 49 84q115 156 256 156q62 -3 129 -39q77 -36 113 -39q74 -6 166 20q97 27 106 47q-33 -73 -65.5 -121.5t-83.5 -97.5l-58 -51q-17 -14 -67 -49l-60 -39l-63 -37l-51 -31q-98 -60 -187 -123q-130 -95 -180 -145l21 10q18 8 62 15.5t83 3.5q66 -6 143 -62t142 -71z" />
    <glyph glyph-name="braceleft" unicode="{" horiz-adv-x="688" 
d="M1124 1417q-149 15 -227 -14q-73 -30 -125 -100q-76 -101 -123 -324q-12 -61 -21.5 -100t-29 -93.5t-42.5 -92t-61 -76.5t-87 -66q31 -39 28 -133q-3 -99 -39 -166q-13 -30 -53 -102l-55 -111q-62 -130 -64 -229q0 -60 27.5 -106t73.5 -72.5t93.5 -41t100.5 -20.5
q-108 1 -191 30t-131.5 80.5t-68 120t-5 150.5t61.5 170l33 63q38 68 51 99q19 41 29 75q9 35 6 84q0 104 -92 131q68 9 141 66q38 32 82 119q44 81 70 170q1 2 26 108.5t48 165.5q40 101 116.5 163t161.5 73q162 20 266 -21z" />
    <glyph glyph-name="bar" unicode="|" horiz-adv-x="258" 
d="M-487 -115l688 1768h28l-688 -1768h-28z" />
    <glyph glyph-name="braceright" unicode="}" horiz-adv-x="679" 
d="M-352 -406q147 -15 227 15q73 30 125 100q76 101 123 324q15 75 29.5 126t41.5 113.5t70.5 110.5t102.5 82q-31 36 -31 129q3 101 39 168q11 26 65 125q56 103 79.5 171.5t27.5 143.5q0 60 -27.5 106t-73.5 72.5t-93.5 41t-100.5 20.5q108 -1 191 -30t131.5 -80.5
t68 -120t5 -150.5t-61.5 -170l-58 -105l-36 -77q-1 -4 -11 -31t-10 -33q0 -2 -3.5 -33.5t1.5 -38.5q0 -104 92 -131q-70 -9 -141 -65q-37 -31 -84 -121q-45 -85 -70 -172q-1 -3 -25.5 -109t-47.5 -165q-40 -101 -117 -163t-162 -73q-164 -20 -266 20z" />
    <glyph glyph-name="asciitilde" unicode="~" horiz-adv-x="794" 
d="M113 582q40 90 112 140t146 44q53 -3 123 -57q70 -52 112 -52q123 0 189 97q-25 -75 -86.5 -124.5t-130.5 -49.5q-73 0 -140 55q-66 57 -137 57q-112 0 -188 -110z" />
    <glyph glyph-name="exclamdown" unicode="&#xa1;" horiz-adv-x="559" 
d="M238 913q39 39 94.5 39t93.5 -41q38 -38 38 -91.5t-38 -94.5q-38 -38 -94 -38t-94 38q-37 38 -37 94t37 94zM264 625q-49 -148 -98 -346q-45 -180 -70 -297q-25 -118 -57 -213q-31 -103 -71.5 -149t-100.5 -46q-51 0 -75.5 22t-22.5 66q3 104 190 426q265 462 305 537z
" />
    <glyph glyph-name="cent" unicode="&#xa2;" horiz-adv-x="1112" 
d="M932 868q9 -79 -37 -131q-30 -32 -74.5 -34.5t-70.5 24.5q-32 31 -28.5 75.5t40.5 69.5q5 3 16.5 10.5t16 11t11.5 10.5t9.5 15t3.5 19q2 30 -19 51t-61 25q-21 3 -43 0l-274 -682q34 -37 86 -49q70 -9 121.5 -2t92 31.5t63 47.5t34.5 46l12 18q-19 -51 -51 -107
q-46 -82 -126 -137t-197 -59q-62 0 -115 16l-57 -143h-21l62 149q-180 70 -207 279q-37 269 170 473q176 164 401 152l58 143h20l-57 -143q2 0 55 -9q69 -12 114.5 -61t51.5 -109zM408 348l268 664q-80 -15 -166 -92q-83 -75 -125.5 -186t-36.5 -214q6 -105 60 -172z" />
    <glyph glyph-name="sterling" unicode="&#xa3;" horiz-adv-x="1314" 
d="M1413 1450q128 -7 174 -78.5t-6 -165.5q-47 -102 -145 -102q-64 0 -76 46t37 120q52 79 41 126t-74 42q-101 -6 -295 -283l-401 -563h163l-26 -19h-150q-81 -113 -209 -276q82 -9 117 -27q38 -15 84 -61q71 -71 174 -86q78 -11 152 9t102 69q19 35 -6 50t-96 21
q-34 1 -50 28t-8 65q27 83 115 108q51 12 86.5 -7t40.5 -60q18 -85 -45 -191q-81 -134 -178 -200.5t-229 -55.5q-71 7 -117.5 49.5t-59.5 97.5q-34 143 -100 162q-2 -2 -78 -86t-100 -108q-119 -107 -219 -107q-57 0 -88.5 17t-35.5 44t4 54t26 53q43 68 127 116t182 60
l174 262h-158l-16 19h186l352 520q251 362 629 338zM98 147q37 18 56 43q9 9 24 29l53 68q-40 -3 -102 -39q-59 -36 -72 -70q-11 -19 3 -30t38 -1z" />
    <glyph glyph-name="currency" unicode="&#xa4;" horiz-adv-x="1073" 
d="M1020 1049l39 -58l-162 -114q27 -96 -16 -201q-49 -119 -158 -211l68 -109l-68 -49l-64 111q-131 -88 -268 -88q-120 0 -182 71l-152 -108l-39 57l152 111q-38 95 12 215q52 125 178 227l-71 109l65 45l68 -113q128 78 250 78q129 0 194 -86zM805 674q46 114 4 194
q-41 84 -162 84q-107 0 -229 -84q-119 -84 -164 -194q-47 -117 -1 -197t159 -80q112 0 227 80q116 82 166 197z" />
    <glyph glyph-name="yen" unicode="&#xa5;" horiz-adv-x="1597" 
d="M1493 1434h502q-195 -12 -406 -240l-389 -418h254l-29 -24h-860l-14 24h194l-108 486q-16 68 -61.5 113t-88.5 52l-38 7h761q-71 0 -159 -70q-89 -68 -62 -174q49 -218 105 -414h73l359 381q69 72 90 135.5t-11.5 102t-111.5 39.5zM764 614h-254l-14 25h903l-29 -25h-268
q-24 -47 -45 -100l-117 -289q-18 -45 -21.5 -82t5 -59.5t26 -39.5t35.5 -25t40 -13t33 -5.5t21 -0.5h-782q47 0 131 29q57 19 107.5 71t80.5 125l117 289q23 67 31 100z" />
    <glyph glyph-name="brokenbar" unicode="&#xa6;" horiz-adv-x="264" 
d="M-111 838l228 559h26l-227 -559h-27zM-440 18l225 560h27l-226 -560h-26z" />
    <glyph glyph-name="section" unicode="&#xa7;" horiz-adv-x="970" 
d="M543 1473q121 -3 182 -76q62 -75 25 -166q-41 -103 -123 -103q-63 0 -66 46q-3 44 33 86q53 77 14 137q-34 60 -129 57q-134 -9 -205 -98q-28 -35 -40 -74.5t-6.5 -79t43 -73t104.5 -50.5q65 -18 113 -39.5t77.5 -42.5t45.5 -47t21 -48.5t0 -52t-13 -52.5t-23 -54
q-50 -97 -168 -200q52 -94 -18 -238q-59 -128 -189 -209q-133 -80 -274 -80q-191 0 -246 88q-57 86 -10 207q21 54 61.5 88.5t89.5 34.5t65 -37t-11 -80q-3 -7 -26.5 -44.5t-27.5 -47.5q-39 -71 -14 -110q27 -65 123 -74t194 41q101 52 142 147q32 80 -17.5 131t-197.5 89
q-76 20 -125.5 48t-72.5 57.5t-27.5 68t4.5 74.5t30 83q49 114 166 193q-41 86 12 207q56 124 187 209q130 87 297 84zM250 848q-131 24 -187 98q-12 -12 -38 -49q-43 -68 1.5 -127t166.5 -88q156 -35 219 -113q23 29 32 60q35 79 -17 136.5t-177 82.5z" />
    <glyph glyph-name="dieresis" unicode="&#xa8;" horiz-adv-x="989" 
d="M252 1063q-54 0 -91.5 38.5t-37.5 94.5q0 50 37.5 85.5t91.5 35.5q55 0 93 -35.5t38 -85.5q0 -57 -37.5 -95t-93.5 -38zM719 1063q-52 0 -90.5 39t-38.5 94q0 49 39 85t90 36q55 0 93 -35.5t38 -85.5q0 -57 -37 -95t-94 -38z" />
    <glyph glyph-name="copyright" unicode="&#xa9;" horiz-adv-x="1417" 
d="M991 20q-274 -194 -549 -194q-274 0 -391 194q-118 198 -6 472q112 276 385 469q274 194 549 194q274 0 391 -194q118 -195 6 -469q-112 -276 -385 -472zM1362 494q108 267 -6 454q-114 191 -381 191t-535 -191q-261 -186 -370 -454q-109 -270 4 -459q115 -189 379 -189
q263 0 532 189q269 192 377 459zM473 477q-24 -121 18.5 -198.5t137.5 -98.5q121 -27 252 13q137 42 229 159q-85 -137 -250 -252q-161 -112 -346 -112q-202 0 -293 129q-89 130 -4 354q74 188 227 317q150 127 319.5 174.5t321.5 14.5q105 -25 152.5 -99t11.5 -165
q-29 -72 -82 -113t-110 -35q-66 10 -77 60.5t36 117.5q150 228 -21 234q-168 3 -323 -146q-152 -146 -199 -354z" />
    <glyph glyph-name="guillemotleft" unicode="&#xab;" horiz-adv-x="677" 
d="M326 279l-179 290l359 310l-230 -318zM530 279l-178 290l359 310l-230 -318z" />
    <glyph glyph-name="logicalnot" unicode="&#xac;" horiz-adv-x="952" 
d="M145 662h707l-10 -21h2l-88 -217h-27l86 211h-682z" />
    <glyph glyph-name="registered" unicode="&#xae;" horiz-adv-x="1486" 
d="M508 961q274 194 549 194q274 0 391 -194q118 -195 6 -469q-112 -276 -385 -472q-274 -194 -549 -194q-274 0 -391 194q-118 198 -6 472q112 276 385 469zM1440 494q108 267 -6 454q-114 191 -381 191t-535 -191q-263 -187 -371 -454q-109 -269 5 -459q115 -189 378 -189
q264 0 533 189q269 192 377 459zM934 930q112 -2 171.5 -18t82.5 -54q30 -47 -4 -141q-41 -90 -123 -148q-82 -55 -121 -55q4 0 11 -6.5t19.5 -38.5t18.5 -84l15 -115q7 -50 29.5 -86.5t45.5 -48.5l21 -8h-256q-21 55 -27 127l-22 164q-13 90 -74 90h-8l-127 -313
q-7 -23 -3.5 -37.5t17 -21t24.5 -8.5t19 -1h-379q12 0 26 2.5t40.5 12t52 35t41.5 63.5l229 567q15 56 3.5 81t-44.5 30l-28 4q4 0 168 4q133 6 182 4zM1014 723q41 112 8 157.5t-143 37.5l-160 -396q53 0 102 15q135 41 193 186z" />
    <glyph glyph-name="overscore" unicode="&#xaf;" horiz-adv-x="1228" 
d="M313 1106l9 14l403 2l-8 -16h-404z" />
    <glyph glyph-name="degree" unicode="&#xb0;" horiz-adv-x="487" 
d="M109 1171q0 51 34.5 88t85.5 37q55 0 89.5 -34.5t33.5 -90.5q-2 -50 -38 -86t-85 -36t-84.5 36t-35.5 86zM168 1108q26 -26 63.5 -26t63.5 26q26 29 26 66t-26 63q-26 29 -63.5 29t-63.5 -29q-26 -26 -26 -63t26 -66z" />
    <glyph glyph-name="plusminus" unicode="&#xb1;" horiz-adv-x="1122" 
d="M784 1128l-153 -383h422l-11 -26h-424l-153 -383h-27l154 383h-424l10 26h426l154 383h26zM844 223h-875l11 27h874z" />
    <glyph glyph-name="acute" unicode="&#xb4;" horiz-adv-x="585" 
d="M305 1014l170 268q25 40 55 60.5t55.5 18.5t41.5 -24q12 -10 18 -25t4.5 -34.5t-21 -44t-55.5 -47.5z" />
    <glyph glyph-name="middot" unicode="&#xb7;" horiz-adv-x="460" 
d="M229 485q-55 0 -95 39.5t-40 93.5q0 56 39 95t96 39q54 0 91.5 -39t37.5 -95q0 -54 -37.5 -93.5t-91.5 -39.5z" />
    <glyph glyph-name="cedilla" unicode="&#xb8;" horiz-adv-x="1228" 
d="M-76 -139l150 131l22 8l-78 -88q61 -4 90.5 -30.5t28.5 -62t-24 -75.5q-34 -62 -91.5 -98.5t-113 -42.5t-103.5 8.5t-67 46.5q36 -18 87.5 -20.5t107 23.5t81.5 81q27 56 -0.5 85t-89.5 34z" />
    <glyph glyph-name="guillemotright" unicode="&#xbb;" horiz-adv-x="698" 
d="M260 854l178 -291l-358 -309l227 317zM453 848l178 -291l-359 -309l228 317z" />
    <glyph glyph-name="questiondown" unicode="&#xbf;" horiz-adv-x="876" 
d="M684 977q55 0 95 -39.5t40 -93.5t-40 -93.5t-95 -39.5q-54 0 -92.5 39.5t-38.5 93.5t38.5 93.5t92.5 39.5zM631 651q3 -80 -17 -154.5t-60 -140.5t-78.5 -114t-92.5 -105q-152 -160 -182 -268q-31 -129 8 -217q41 -95 145 -92q85 2 126.5 35t51.5 118q3 39 -32 88
q-35 53 -35 84q0 64 38 103t97 32q52 -6 85.5 -58t27.5 -120q-12 -137 -106.5 -218t-256.5 -81q-191 0 -290.5 101.5t-79.5 273.5q3 30 16.5 60.5t30 55.5t47.5 56.5t53 51.5t64.5 52t64 47.5t70 49t65.5 45.5q218 156 240 315z" />
    <glyph glyph-name="Agrave" unicode="&#xc0;" 
d="M1087 1829l43 -313l-172 266q-30 48 -32 85t12 53.5t35 25.5q43 14 75 -16t39 -101zM1262 2h-715q75 0 147 57q77 59 74 172l-6 250h-434l-166 -237q-39 -56 -41.5 -104.5t22 -77t57 -44.5t62.5 -16h-459q183 41 369 303l864 1223l64 -1303q4 -101 48.5 -159.5
t113.5 -63.5zM641 932l-297 -426h418l-10 393q-3 117 -13 127q-4 4 -6 4q-20 11 -92 -98z" />
    <glyph glyph-name="Aacute" unicode="&#xc1;" 
d="M1210 1898q11 -11 17 -25.5t4.5 -34t-20.5 -44t-54 -47.5l-270 -172l170 268q40 61 85 75t68 -20zM1262 2h-715q75 0 147 57q77 59 74 172l-6 250h-434l-166 -237q-39 -56 -41.5 -104.5t22 -77t57 -44.5t62.5 -16h-459q183 41 369 303l864 1223l64 -1303
q4 -101 48.5 -159.5t113.5 -63.5zM641 932l-297 -426h418l-10 393q-3 117 -13 127q-4 4 -6 4q-20 11 -92 -98z" />
    <glyph glyph-name="Acircumflex" unicode="&#xc2;" 
d="M1182 1829l26 -316l-135 209l-368 -209l319 316h158zM1262 2h-715q75 0 147 57q77 59 74 172l-6 250h-434l-166 -237q-39 -56 -41.5 -104.5t22 -77t57 -44.5t62.5 -16h-459q183 41 369 303l864 1223l64 -1303q4 -101 48.5 -159.5t113.5 -63.5zM641 932l-297 -426h418
l-10 393q-3 117 -13 127q-4 4 -6 4q-20 11 -92 -98z" />
    <glyph glyph-name="Atilde" unicode="&#xc3;" 
d="M1174 1636q47 -2 98 30.5t82 90.5q-28 -71 -99 -139q-66 -63 -137 -66q-39 -1 -68.5 16.5t-44.5 39t-36.5 41t-44.5 20.5q-102 0 -181 -131q42 103 115 160t148 49q46 -3 88 -57q39 -51 80 -54zM1036 1528l64 -1303q4 -101 48.5 -159.5t113.5 -63.5h-715q75 0 147 57
q77 59 74 172l-6 250h-434l-166 -237q-39 -56 -41.5 -104.5t22 -77t57 -44.5t62.5 -16h-459q183 41 369 303zM641 932l-297 -426h418l-10 393q-3 117 -13 127q-4 4 -6 4q-20 11 -92 -98z" />
    <glyph glyph-name="Adieresis" unicode="&#xc4;" 
d="M766 1599q-54 0 -91.5 39t-37.5 95q0 50 37.5 85t91.5 35q55 0 93 -35t38 -85q0 -57 -37.5 -95.5t-93.5 -38.5zM1233 1853q55 0 93 -35t38 -85q0 -57 -37 -95.5t-94 -38.5q-52 0 -90.5 39.5t-38.5 94.5q0 49 38.5 84.5t90.5 35.5zM1036 1528l64 -1303q4 -101 48.5 -159.5
t113.5 -63.5h-715q75 0 147 57q77 59 74 172l-6 250h-434l-166 -237q-39 -56 -41.5 -104.5t22 -77t57 -44.5t62.5 -16h-459q183 41 369 303zM641 932l-297 -426h418l-10 393q-3 117 -13 127q-4 4 -6 4q-20 11 -92 -98z" />
    <glyph glyph-name="Aring" unicode="&#xc5;" 
d="M915 1692q0 51 35 88t86 37q55 0 89.5 -34.5t33.5 -90.5q-2 -50 -38 -86.5t-85 -36.5t-85 36.5t-36 86.5zM1102 1757q-26 29 -63.5 29t-63.5 -29q-26 -26 -26 -63t26 -66q26 -26 63.5 -26t63.5 26q26 29 26 66t-26 63zM1262 2h-715q75 0 147 57q77 59 74 172l-6 250h-434
l-166 -237q-39 -56 -41.5 -104.5t22 -77t57 -44.5t62.5 -16h-459q183 41 369 303l864 1223l64 -1303q4 -101 48.5 -159.5t113.5 -63.5zM641 932l-297 -426h418l-10 393q-3 117 -13 127q-4 4 -6 4q-20 11 -92 -98z" />
    <glyph glyph-name="AE" unicode="&#xc6;" horiz-adv-x="2209" 
d="M1839 190q148 80 219 142q80 73 142 151l-183 -483h-1487q72 0 152 45q83 47 117 131l188 465h-399l-336 -356q-105 -105 -84 -195q21 -87 166 -90h-565q175 0 419 262l895 959q74 89 39 151t-114 62h1284l37 -453q-7 21 -21 49q-12 33 -74 111q-57 75 -139 135
q-86 61 -178 90q-99 32 -148 35q-55 6 -133 6h-8h-4q-16 -43 -37 -90l-215 -543h88q304 0 432 236l-209 -615q6 26 7 60t-4 74.5t-22.5 78.5t-44 70t-72 51t-103.5 19h-82l-240 -607q-46 -116 92 -116h39q293 3 586 165zM1163 1251l-549 -581h385l250 614q15 39 6 45
q-5 0 -7.5 1t-10.5 -5.5t-13 -10.5t-14.5 -14t-15.5 -16t-16 -16.5t-15 -16.5z" />
    <glyph glyph-name="Ccedilla" unicode="&#xc7;" horiz-adv-x="1599" 
d="M1665 1264l-192 -392q12 218 -39 371q-53 160 -187 178q-147 21 -286 -82q-142 -105 -234 -276q-66 -123 -94 -279q-27 -152 10 -295q38 -145 145 -215q78 -58 203 -59.5t246.5 56t183.5 157.5q-240 -476 -667 -430l-68 -74q61 -4 91 -30.5t29 -62t-24 -75.5
q-35 -62 -92.5 -98t-113 -42t-103 8t-65.5 46q36 -18 87.5 -20.5t107 23.5t81.5 81q27 56 -0.5 84t-89.5 33l145 129l-28 4q-147 25 -247.5 125t-137.5 242q-34 134 -11 295.5t99 298.5q276 504 858 477q252 -12 393 -178z" />
    <glyph glyph-name="Egrave" unicode="&#xc8;" horiz-adv-x="1583" 
d="M1128 1829l41 -313l-170 266q-30 48 -32 85t12 53.5t35 25.5q43 14 75 -16t39 -101zM1180 186q235 125 356 299l-193 -485h-1507q92 0 195 68q101 70 141 168l412 1007q30 76 -16.5 131t-131.5 60h1176l30 -476q-15 35 -47 89q-2 4 -55 83q-26 42 -69.5 87.5t-84.5 74.5
q-100 69 -192 94q-89 24 -213 27l-258 -641h61q342 0 484 244l-232 -615q12 41 5 96.5t-29 114.5q-21 58 -87.5 98t-156.5 40h-55l-244 -607q-20 -53 1 -84.5t73 -31.5h63q281 0 574 159z" />
    <glyph glyph-name="Eacute" unicode="&#xc9;" horiz-adv-x="1583" 
d="M1475 1898q12 -10 18 -25t4.5 -34.5t-21 -44t-55.5 -47.5l-268 -172l170 268q25 40 55 60.5t55.5 18.5t41.5 -24zM1180 186q235 125 356 299l-193 -485h-1507q92 0 195 68q101 70 141 168l412 1007q30 76 -16.5 131t-131.5 60h1176l30 -476q-15 35 -47 89q-2 4 -55 83
q-26 42 -69.5 87.5t-84.5 74.5q-100 69 -192 94q-89 24 -213 27l-258 -641h61q342 0 484 244l-232 -615q12 41 5 96.5t-29 114.5q-21 58 -87.5 98t-156.5 40h-55l-244 -607q-20 -53 1 -84.5t73 -31.5h63q281 0 574 159z" />
    <glyph glyph-name="Ecircumflex" unicode="&#xca;" horiz-adv-x="1583" 
d="M1417 1866l27 -318l-135 211l-369 -211l320 318h157zM1180 186q235 125 356 299l-193 -485h-1507q92 0 195 68q101 70 141 168l412 1007q30 76 -16.5 131t-131.5 60h1176l30 -476q-15 35 -47 89q-2 4 -55 83q-26 42 -69.5 87.5t-84.5 74.5q-100 69 -192 94
q-89 24 -213 27l-258 -641h61q342 0 484 244l-232 -615q12 41 5 96.5t-29 114.5q-21 58 -87.5 98t-156.5 40h-55l-244 -607q-20 -53 1 -84.5t73 -31.5h63q281 0 574 159z" />
    <glyph glyph-name="Edieresis" unicode="&#xcb;" horiz-adv-x="1583" 
d="M928 1599q-54 0 -91.5 39t-37.5 95q0 50 37.5 85t91.5 35q55 0 93 -35t38 -85q0 -57 -37.5 -95.5t-93.5 -38.5zM1395 1599q-52 0 -90.5 39.5t-38.5 94.5q0 49 38.5 84.5t90.5 35.5q55 0 93 -35t38 -85q0 -57 -37 -95.5t-94 -38.5zM1180 186q235 125 356 299l-193 -485
h-1507q92 0 195 68q101 70 141 168l412 1007q30 76 -16.5 131t-131.5 60h1176l30 -476q-15 35 -47 89q-2 4 -55 83q-26 42 -69.5 87.5t-84.5 74.5q-100 69 -192 94q-89 24 -213 27l-258 -641h61q342 0 484 244l-232 -615q12 41 5 96.5t-29 114.5q-21 58 -87.5 98t-156.5 40
h-55l-244 -607q-20 -53 1 -84.5t73 -31.5h63q281 0 574 159z" />
    <glyph glyph-name="Igrave" unicode="&#xcc;" horiz-adv-x="884" 
d="M842 1829l43 -313l-172 266q-23 37 -30.5 67t-0.5 49t18.5 30.5t26.5 17.5q43 14 75.5 -16t39.5 -101zM463 1434h772q-45 3 -99.5 -14.5t-111.5 -65t-86 -115.5l-410 -1014q-43 -106 21 -164t158 -61h-826q81 6 178 66q95 59 136 155l378 944q48 106 18.5 181.5
t-128.5 87.5z" />
    <glyph glyph-name="Iacute" unicode="&#xcd;" horiz-adv-x="884" 
d="M805 1575l170 268q25 40 55 60.5t55.5 18.5t42.5 -24q12 -10 17.5 -25t3.5 -34.5t-21.5 -44t-54.5 -47.5zM1235 1434h-772q99 -12 128.5 -87.5t-18.5 -181.5l-378 -944q-41 -96 -136 -155q-97 -60 -178 -66h826q-94 3 -158 61t-21 164l410 1014q29 68 86 115.5t111.5 65
t99.5 14.5z" />
    <glyph glyph-name="Icircumflex" unicode="&#xce;" horiz-adv-x="884" 
d="M573 1513l320 316h158l26 -316l-137 209zM1235 1434h-772q99 -12 128.5 -87.5t-18.5 -181.5l-378 -944q-41 -96 -136 -155q-97 -60 -178 -66h826q-94 3 -158 61t-21 164l410 1014q29 68 86 115.5t111.5 65t99.5 14.5z" />
    <glyph glyph-name="Idieresis" unicode="&#xcf;" horiz-adv-x="884" 
d="M641 1599q-54 0 -91.5 39t-37.5 95q0 50 37.5 85t91.5 35q55 0 93 -35t38 -85q0 -57 -37.5 -95.5t-93.5 -38.5zM1108 1599q-52 0 -90.5 39.5t-38.5 94.5q0 49 38.5 84.5t90.5 35.5q55 0 93 -35t38 -85q0 -57 -37 -95.5t-94 -38.5zM463 1434h772q-45 3 -99.5 -14.5
t-111.5 -65t-86 -115.5l-410 -1014q-43 -106 21 -164t158 -61h-826q81 6 178 66q95 59 136 155l378 944q48 106 18.5 181.5t-128.5 87.5z" />
    <glyph glyph-name="Eth" unicode="&#xd0;" horiz-adv-x="1611" 
d="M1438 1362q64 -36 118.5 -106.5t90.5 -168.5q38 -94 31 -236.5t-62 -287.5q-215 -563 -938 -563h-834q94 6 181 54.5t118 123.5l219 545h-180l-12 18h201l198 496q34 82 -14 137q-48 57 -129 60h510q106 1 188 1.5t162.5 -16.5t151.5 -57zM1073 256q134 145 217 379
q82 230 76 414q-8 180 -89.5 271.5t-246.5 92.5h-63l-269 -672h271l-17 -18h-262l-207 -516q-30 -67 -17 -107t42 -56.5t70 -16.5h14q136 0 250 51.5t231 177.5z" />
    <glyph glyph-name="Ntilde" unicode="&#xd1;" horiz-adv-x="1546" 
d="M961 1538q42 103 115 160t149 49q44 -3 86 -57q39 -51 80 -54q46 -2 97 30.5t85 90.5q-30 -77 -98 -139q-69 -63 -140 -66q-39 -1 -68.5 16.5t-44.5 39t-36.5 41t-44.5 20.5q-101 0 -180 -131zM2015 1436h-590q130 -3 189 -99q57 -89 4 -223l-211 -520q-29 -69 -47 -93.5
t-35 -19.5q-20 6 -55 86l-350 867h-525q104 -3 156 -111q56 -109 10 -215l-299 -735q-86 -211 -203 -289q-97 -63 -204 -84h573q-264 58 -141 362l282 697q25 61 43 85t37 19q11 -3 25.5 -22.5t21.5 -42.5l25 -62l446 -1095l475 1165q71 174 175 250q109 77 198 80z" />
    <glyph glyph-name="Ograve" unicode="&#xd2;" horiz-adv-x="1738" 
d="M1249 1829l41 -313l-170 266q-30 48 -32 85t12 53.5t35 25.5q41 14 74 -16.5t40 -100.5zM1513 1423q86 -31 147 -108.5t87 -190.5q27 -115 -1.5 -271t-111.5 -323q-85 -171 -230.5 -306.5t-313.5 -205.5q-162 -71 -344.5 -69.5t-321.5 84.5q-119 67 -160 231
q-41 167 12 373q53 209 185 391q211 285 504 387q288 100 548 8zM1280 1446q-129 15 -274 -115q-148 -132 -285 -459q-82 -193 -114.5 -393.5t-2.5 -341.5t121 -160q130 -35 283 115t284 526q73 211 102.5 392t2 302.5t-116.5 133.5z" />
    <glyph glyph-name="Oacute" unicode="&#xd3;" horiz-adv-x="1738" 
d="M1327 1575l170 268q40 61 85.5 75t68.5 -20q11 -11 16.5 -25.5t4 -34t-20.5 -44t-54 -47.5zM1513 1423q-260 92 -548 -8q-293 -102 -504 -387q-132 -182 -185 -391q-53 -206 -12 -373q41 -164 160 -231q139 -83 321.5 -84.5t344.5 69.5q168 70 313.5 205.5t230.5 306.5
q83 167 111.5 323t1.5 271q-26 113 -87 190.5t-147 108.5zM1280 1446q89 -12 116.5 -133.5t-2 -302.5t-102.5 -392q-131 -376 -284 -526t-283 -115q-91 19 -121 160t2.5 341.5t114.5 393.5q137 327 285 459q145 130 274 115z" />
    <glyph glyph-name="Ocircumflex" unicode="&#xd4;" horiz-adv-x="1738" 
d="M1036 1548l320 318h157l27 -318l-135 211zM1513 1423q-260 92 -548 -8q-293 -102 -504 -387q-132 -182 -185 -391q-53 -206 -12 -373q41 -164 160 -231q139 -83 321.5 -84.5t344.5 69.5q168 70 313.5 205.5t230.5 306.5q83 167 111.5 323t1.5 271q-26 113 -87 190.5
t-147 108.5zM1280 1446q89 -12 116.5 -133.5t-2 -302.5t-102.5 -392q-131 -376 -284 -526t-283 -115q-91 19 -121 160t2.5 341.5t114.5 393.5q137 327 285 459q145 130 274 115z" />
    <glyph glyph-name="Otilde" unicode="&#xd5;" horiz-adv-x="1738" 
d="M995 1554q42 103 114 160t148 51q47 -3 89 -57q39 -50 77 -53q47 -2 98 30t85 91q-36 -80 -101 -142q-63 -60 -137 -63q-39 -1 -68.5 16.5t-44 39t-36 41t-45.5 20.5q-101 0 -179 -134zM1513 1423q-260 92 -548 -8q-293 -102 -504 -387q-132 -182 -185 -391
q-53 -206 -12 -373q41 -164 160 -231q139 -83 321.5 -84.5t344.5 69.5q168 70 313.5 205.5t230.5 306.5q83 167 111.5 323t1.5 271q-26 113 -87 190.5t-147 108.5zM1280 1446q89 -12 116.5 -133.5t-2 -302.5t-102.5 -392q-131 -376 -284 -526t-283 -115q-91 19 -121 160
t2.5 341.5t114.5 393.5q137 327 285 459q145 130 274 115z" />
    <glyph glyph-name="Odieresis" unicode="&#xd6;" horiz-adv-x="1738" 
d="M1051 1599q-54 0 -91.5 39t-37.5 95q0 50 37.5 85t91.5 35q55 0 93 -35t38 -85q0 -57 -37.5 -95.5t-93.5 -38.5zM1518 1599q-52 0 -90.5 39.5t-38.5 94.5q0 49 38.5 84.5t90.5 35.5q55 0 93 -35t38 -85q0 -57 -37 -95.5t-94 -38.5zM1513 1423q86 -31 147 -108.5
t87 -190.5q27 -115 -1.5 -271t-111.5 -323q-85 -171 -230.5 -306.5t-313.5 -205.5q-162 -71 -344.5 -69.5t-321.5 84.5q-119 67 -160 231q-41 167 12 373q53 209 185 391q211 285 504 387q288 100 548 8zM1280 1446q-129 15 -274 -115q-148 -132 -285 -459
q-82 -193 -114.5 -393.5t-2.5 -341.5t121 -160q130 -35 283 115t284 526q73 211 102.5 392t2 302.5t-116.5 133.5z" />
    <glyph glyph-name="multiply" unicode="&#xd7;" horiz-adv-x="880" 
d="M913 1032l13 -20l-412 -293l180 -303l-32 -23l-181 303l-424 -303l-12 21l424 303l-176 295l33 22l176 -295z" />
    <glyph glyph-name="Oslash" unicode="&#xd8;" horiz-adv-x="1701" 
d="M1690 1438l-60 -62q89 -68 129 -184q29 -79 30 -182t-30 -228.5t-94 -251.5q-85 -171 -231 -306.5t-314 -205.5q-161 -71 -341.5 -69.5t-323.5 84.5q-45 25 -82 71l-103 -104l-43 4l125 127q-101 143 -63 408q38 264 205 489q213 286 501 387q288 100 549 8
q46 -20 62 -28l41 41zM754 872q-98 -235 -125 -462l813 819q-9 202 -129 217q-130 15 -275 -115q-144 -127 -284 -459zM756 -23q132 -35 282 115q154 151 285 526q119 332 119 570l-817 -830q-12 -159 21.5 -261t109.5 -120z" />
    <glyph glyph-name="Ugrave" unicode="&#xd9;" horiz-adv-x="1439" 
d="M1241 1829l41 -313l-170 266q-23 37 -30.5 67t-0.5 49t18.5 30.5t26.5 17.5q43 14 75.5 -16t39.5 -101zM1407 1434h567q-66 0 -133.5 -36t-138.5 -123.5t-123 -217.5l-209 -527q-52 -132 -103.5 -221.5t-123.5 -169.5q-147 -159 -400 -159q-156 0 -266.5 63t-161.5 172
q-95 219 31 533l170 426q103 257 -98 260h745q-218 0 -291 -193l-237 -598q-90 -259 -39 -407q54 -153 203 -168q189 -21 317 98q132 123 250 422l188 475q70 177 30.5 271.5t-177.5 99.5z" />
    <glyph glyph-name="Uacute" unicode="&#xda;" horiz-adv-x="1439" 
d="M1321 1575l170 268q40 61 85.5 75t68.5 -20q11 -11 16.5 -25.5t4 -34t-20.5 -44t-54 -47.5zM1974 1434h-567q138 -5 177.5 -99.5t-30.5 -271.5l-188 -475q-118 -299 -250 -422q-128 -119 -317 -98q-149 15 -203 168q-51 148 39 407l237 598q73 193 291 193h-745
q201 -3 98 -260l-170 -426q-126 -314 -31 -533q51 -109 161.5 -172t266.5 -63q253 0 400 159q72 80 123.5 169.5t103.5 221.5l209 527q52 130 123 217.5t138.5 123.5t133.5 36z" />
    <glyph glyph-name="Ucircumflex" unicode="&#xdb;" horiz-adv-x="1439" 
d="M1059 1513l321 316h156l27 -316l-136 209zM1974 1434h-567q138 -5 177.5 -99.5t-30.5 -271.5l-188 -475q-118 -299 -250 -422q-128 -119 -317 -98q-149 15 -203 168q-51 148 39 407l237 598q73 193 291 193h-745q201 -3 98 -260l-170 -426q-126 -314 -31 -533
q51 -109 161.5 -172t266.5 -63q253 0 400 159q72 80 123.5 169.5t103.5 221.5l209 527q52 130 123 217.5t138.5 123.5t133.5 36z" />
    <glyph glyph-name="Udieresis" unicode="&#xdc;" horiz-adv-x="1439" 
d="M1110 1599q-54 0 -91.5 39t-37.5 95q0 50 37.5 85t91.5 35q55 0 93 -35t38 -85q0 -57 -37.5 -95.5t-93.5 -38.5zM1577 1599q-51 0 -89 39.5t-38 94.5q0 49 38 84.5t89 35.5q55 0 93 -35t38 -85q0 -57 -37 -95.5t-94 -38.5zM1407 1434h567q-66 0 -133.5 -36t-138.5 -123.5
t-123 -217.5l-209 -527q-52 -132 -103.5 -221.5t-123.5 -169.5q-147 -159 -400 -159q-156 0 -266.5 63t-161.5 172q-95 219 31 533l170 426q103 257 -98 260h745q-218 0 -291 -193l-237 -598q-90 -259 -39 -407q54 -153 203 -168q189 -21 317 98q132 123 250 422l188 475
q70 177 30.5 271.5t-177.5 99.5z" />
    <glyph glyph-name="Yacute" unicode="&#xdd;" horiz-adv-x="1433" 
d="M1153 1575l170 268q40 61 85.5 75t68.5 -20q11 -11 16.5 -25.5t4 -34t-20.5 -44t-54 -47.5zM1743 1434h-428q37 0 67 -21.5t44 -57t-1.5 -90t-64.5 -112.5l-285 -330q-36 -44 -65 -41q-21 3 -33 49l-111 408q-20 74 14 131t103 64h-647q86 0 164 -88q47 -50 69 -136
l107 -405q18 -75 -29 -193l-160 -391q-34 -81 -127 -153q-89 -68 -141 -68h782q-93 3 -157 61t-21 166l148 365q57 138 92 176l342 397q101 117 193.5 190t144.5 79z" />
    <glyph glyph-name="Thorn" unicode="&#xde;" horiz-adv-x="1292" 
d="M1329 936q43 -70 31 -174q-12 -107 -88 -195q-193 -225 -608 -151q160 5 279 89.5t159 242.5q30 124 -29 229q-57 106 -205 115l-348 -867q-34 -75 -6 -129q58 -93 184 -96h-825q81 6 178 66q91 56 133 155l381 944q47 105 17.5 181t-129.5 88h772q-75 0 -166 -48
q-88 -46 -131 -147l-54 -131h84q283 0 371 -172z" />
    <glyph glyph-name="germandbls" unicode="&#xdf;" horiz-adv-x="1040" 
d="M-61 -12l430 1065q42 103 93 176.5t105 112.5t115 60t122 19.5t126 -8.5q99 -15 157 -90q61 -76 58 -143q-3 -68 -27 -138q-27 -75 -102 -141t-178 -88q-49 -10 -99.5 -6t-89.5 -3t-41 -34q-3 -30 31 -51q7 -4 41.5 -26t60.5 -38q71 -43 117 -94q136 -154 96 -338
q-27 -121 -133 -190q-109 -73 -235 -70q-112 2 -184.5 57.5t-79.5 165.5q-6 82 40 146q45 63 109 63q56 0 79.5 -36t12.5 -83q-9 -43 -53 -67t-53 -39q-30 -38 -15 -102t76 -80q138 -35 201 118q25 66 31 89q12 41 -2 119t-60 163q-95 177 -106 205q-18 53 -11 80.5t37 52.5
q20 14 77 46t85 50q62 44 92 88l10 15l9 13.5t6.5 12t7.5 17.5q16 30 23 53l8 20q14 37 20 93q8 62 -6.5 114t-54.5 62q-42 10 -75.5 -3t-66.5 -58t-63 -107t-72 -168l-424 -1075h-245z" />
    <glyph glyph-name="agrave" unicode="&#xe0;" horiz-adv-x="1167" 
d="M926 1350l43 -314l-172 267q-23 37 -30.5 67t-0.5 49t18.5 30t26.5 17q43 14 75.5 -15.5t39.5 -100.5zM893 78q33 -8 94 35q65 43 111 90l45 47q-8 -9 -43 -55q-23 -29 -53 -64q-11 -15 -56 -57q-49 -50 -103 -74.5t-128 -30.5q-50 0 -84 16t-48 41t-17 57.5t3 62.5
t17 59l157 397q121 331 23 352q-64 14 -168 -82q-97 -90 -182 -241q-93 -162 -111 -293q-18 -134 45 -168q42 -27 88.5 -16t83 38.5t62.5 63.5l-17 -35q-19 -43 -63 -106q-42 -67 -114 -108.5t-165 -37.5q-103 3 -157 94q-52 89 -32 230.5t107 279.5q72 118 162.5 204
t177.5 124q153 68 256 68q131 -3 193 -86l67 20l154 49l-301 -782q-35 -86 -4 -92z" />
    <glyph glyph-name="aacute" unicode="&#xe1;" horiz-adv-x="1167" 
d="M1159 1378q12 -10 17.5 -25.5t3.5 -35.5t-21.5 -44.5t-54.5 -47.5l-268 -172l170 268q25 40 55 60.5t55.5 19t42.5 -22.5zM893 78q33 -8 94 35q65 43 111 90l45 47q-8 -9 -43 -55q-23 -29 -53 -64q-11 -15 -56 -57q-49 -50 -103 -74.5t-128 -30.5q-61 0 -97.5 23.5
t-45.5 61t-5 76t19 75.5l157 397q121 331 23 352q-64 14 -168 -82q-97 -90 -182 -241q-93 -162 -111 -293q-18 -134 45 -168q42 -27 88.5 -16t83 38.5t62.5 63.5l-17 -35q-19 -43 -63 -106q-42 -67 -114 -108.5t-165 -37.5q-103 3 -157 94q-52 89 -32 230.5t107 279.5
q72 118 162.5 204t177.5 124q153 68 256 68q128 -3 193 -86l67 20l154 49l-301 -782q-35 -89 -4 -92z" />
    <glyph glyph-name="acircumflex" unicode="&#xe2;" horiz-adv-x="1167" 
d="M1028 1325l27 -315l-137 209l-367 -209l319 315h158zM893 78q33 -8 94 35q65 43 111 90l45 47q-8 -9 -43 -55q-23 -29 -53 -64q-11 -15 -56 -57q-49 -50 -103 -74.5t-128 -30.5q-50 0 -84 16t-48 41t-17 57.5t3 62.5t17 59l157 397q121 331 23 352q-64 14 -168 -82
q-97 -90 -182 -241q-93 -162 -111 -293q-18 -134 45 -168q42 -27 88.5 -16t83 38.5t62.5 63.5l-17 -35q-19 -43 -63 -106q-42 -67 -114 -108.5t-165 -37.5q-103 3 -157 94q-52 89 -32 230.5t107 279.5q72 118 162.5 204t177.5 124q153 68 256 68q131 -3 193 -86l67 20
l154 49l-301 -782q-35 -86 -4 -92z" />
    <glyph glyph-name="atilde" unicode="&#xe3;" horiz-adv-x="1167" 
d="M684 1182q-101 0 -180 -131q42 103 115 160t149 49q43 -3 86 -58q39 -50 80 -53q46 -2 97 30.5t85 90.5q-31 -79 -98 -140q-68 -62 -139 -65q-32 -1 -57 10t-41 28t-30 34.5t-30.5 30.5t-36.5 14zM893 78q33 -8 94 35q65 43 111 90l45 47q-8 -9 -43 -55q-23 -29 -53 -64
q-11 -15 -56 -57q-49 -50 -103 -74.5t-128 -30.5q-50 0 -84 16t-48 41t-17 57.5t3 62.5t17 59l157 397q121 331 23 352q-64 14 -168 -82q-97 -90 -182 -241q-93 -162 -111 -293q-18 -134 45 -168q42 -27 88.5 -16t83 38.5t62.5 63.5l-17 -35q-19 -43 -63 -106
q-42 -67 -114 -108.5t-165 -37.5q-103 3 -157 94q-52 89 -32 230.5t107 279.5q72 118 162.5 204t177.5 124q153 68 256 68q131 -3 193 -86l67 20l154 49l-301 -782q-35 -86 -4 -92z" />
    <glyph glyph-name="adieresis" unicode="&#xe4;" horiz-adv-x="1167" 
d="M604 1063q-52 0 -90.5 39t-38.5 94q0 49 39 85t90 36q55 0 93 -35.5t38 -85.5q0 -57 -37 -95t-94 -38zM1073 1063q-54 0 -91.5 38.5t-37.5 94.5q0 50 37.5 85.5t91.5 35.5q55 0 93 -35.5t38 -85.5q0 -57 -37.5 -95t-93.5 -38zM1044 903l154 49l-301 -782q-35 -86 -4 -92
q33 -8 94 35q65 43 111 90l45 47q-8 -9 -43 -55q-23 -29 -53 -64q-11 -15 -56 -57q-49 -50 -103 -74.5t-128 -30.5q-50 0 -84 16t-48 41t-17 57.5t3 62.5t17 59l157 397q121 331 23 352q-64 14 -168 -82q-97 -90 -182 -241q-93 -162 -111 -293q-18 -134 45 -168
q42 -27 88.5 -16t83 38.5t62.5 63.5l-17 -35q-19 -43 -63 -106q-42 -67 -114 -108.5t-165 -37.5q-103 3 -157 94q-52 89 -32 230.5t107 279.5q72 118 162.5 204t177.5 124q153 68 256 68q131 -3 193 -86z" />
    <glyph glyph-name="aring" unicode="&#xe5;" horiz-adv-x="1167" 
d="M893 1049q-49 0 -85 36t-36 86q0 51 35 88t86 37q56 0 91 -34.5t34 -90.5q-2 -50 -38 -86t-87 -36zM895 1266q-37 0 -63.5 -27.5t-26.5 -64.5t27 -65t63 -28q34 -1 57 18t28.5 47t0 55.5t-28.5 46.5t-57 18zM893 78q33 -8 94 35q65 43 111 90l45 47q-8 -9 -43 -55
q-23 -29 -53 -64q-11 -15 -56 -57q-49 -50 -103 -74.5t-128 -30.5q-50 0 -84 16t-48 41t-17 57.5t3 62.5t17 59l157 397q121 331 23 352q-64 14 -168 -82q-97 -90 -182 -241q-93 -162 -111 -293q-18 -134 45 -168q42 -27 88.5 -16t83 38.5t62.5 63.5l-17 -35
q-19 -43 -63 -106q-42 -67 -114 -108.5t-165 -37.5q-103 3 -157 94q-52 89 -32 230.5t107 279.5q72 118 162.5 204t177.5 124q153 68 256 68q131 -3 193 -86l67 20l154 49l-301 -782q-35 -86 -4 -92z" />
    <glyph glyph-name="ae" unicode="&#xe6;" horiz-adv-x="1581" 
d="M1366 979q82 -10 148.5 -60t84.5 -124t-51 -162q-90 -115 -243 -144q-93 -15 -134 -16q-27 -2 -57 -2h-53h-39q131 18 207 88q33 33 39 43l39 49q13 17 32 45q34 48 59.5 103.5t31 103.5t-30.5 58q-60 15 -162 -87q-98 -98 -174 -241q-49 -91 -74 -189q-28 -92 -7 -181
t91 -118q67 -22 125.5 -13.5t101 33.5t72.5 64l45 54q-15 -46 -63 -117q-40 -58 -88 -100q-52 -47 -137 -77t-177 -24q-88 4 -153 58.5t-94.5 140t-17.5 202t71 236.5v2q2 2 2 4q33 62 71 185q21 66 13 112t-45 53q-69 17 -162.5 -67t-177.5 -242q-57 -100 -82 -206.5
t-14 -177t51 -79.5q33 -13 65.5 -8.5t58 14.5t49 29.5t38.5 36t26 33.5l13 18q0 -18 -64 -125q-26 -41 -56.5 -77t-72 -70t-94.5 -53.5t-109 -18.5q-79 -3 -132 54.5t-68.5 146t9.5 202.5t91 216q73 119 165.5 205t182.5 124q149 63 262 60q150 -9 203 -96q177 123 385 102z
" />
    <glyph glyph-name="ccedilla" unicode="&#xe7;" horiz-adv-x="942" 
d="M766 772l12 8l10.5 7t8 5.5t7.5 6.5t5.5 6.5t6 8t4.5 9.5t5.5 12t5.5 15q21 85 -65 100q-137 21 -266 -114q-88 -88 -135 -215q-42 -119 -39 -226q5 -99 51 -169.5t123 -88.5q58 -14 108.5 -6.5t87 21t66 37t46.5 43t28 38.5l12 21q-17 -52 -53 -115q-35 -56 -76 -100
q-46 -47 -120 -81t-155 -34q-38 0 -79 6l-50 -55q44 -3 73.5 -19t39.5 -40t5.5 -52.5t-23.5 -56.5q-35 -62 -92.5 -98.5t-113 -42.5t-103 8.5t-66.5 46.5q36 -18 87.5 -20.5t107 23.5t81.5 81q27 56 -0.5 85t-87.5 34l125 110q-108 27 -180.5 110t-89.5 208q-41 307 188 522
q213 197 514 145q76 -13 127.5 -68t57.5 -120q15 -89 -39 -158q-38 -36 -91 -38.5t-85 28.5q-38 37 -33 90t49 82z" />
    <glyph glyph-name="egrave" unicode="&#xe8;" horiz-adv-x="983" 
d="M762 1350l43 -314l-172 267q-23 37 -30.5 67t-0.5 49t18.5 30t26.5 17q43 14 75.5 -15.5t39.5 -100.5zM778 967q83 -10 144 -59t73 -122t-53 -161q-78 -99 -258 -140q-101 -15 -139 -16q-29 -2 -62 -2h-55h-41q211 21 369 217q34 44 58 103t25.5 105.5t-32.5 59.5
q-77 18 -197 -84t-192 -243q-46 -85 -63.5 -189t10 -192t102.5 -109q48 -13 94 -14t83.5 10t70 25.5t59 35.5t44.5 38t32 34l18 23q1 -2 -7 -20.5t-29 -52.5t-48 -69q-42 -55 -96 -96t-142.5 -66.5t-189.5 -11.5q-113 15 -186 113q-72 99 -75.5 231.5t63.5 280.5
q58 117 142.5 199.5t176.5 119.5q161 65 301 52z" />
    <glyph glyph-name="eacute" unicode="&#xe9;" horiz-adv-x="983" 
d="M793 1053l170 268q27 41 56.5 61t54.5 18.5t42 -22.5q12 -10 18 -25.5t4 -35.5t-21 -44.5t-54 -47.5zM778 967q-140 13 -301 -52q-92 -37 -176.5 -119.5t-142.5 -199.5q-67 -148 -63.5 -280.5t75.5 -231.5q73 -98 186 -113q101 -14 189.5 11.5t142.5 66.5t96 96
q27 35 48 69t29 52.5t7 20.5l-18 -23q-14 -17 -32 -34t-44.5 -38t-59 -35.5t-70 -25.5t-83.5 -10t-94 14q-75 21 -102.5 109t-10 192t63.5 189q72 141 192 243t197 84q34 -13 32.5 -59.5t-25.5 -105.5t-58 -103q-158 -196 -369 -217h41h55q33 0 62 2q38 1 139 16
q180 41 258 140q65 88 53 161t-73 122t-144 59z" />
    <glyph glyph-name="ecircumflex" unicode="&#xea;" horiz-adv-x="983" 
d="M461 1010l321 315h156l29 -315l-138 209zM778 967q-140 13 -301 -52q-92 -37 -176.5 -119.5t-142.5 -199.5q-67 -148 -63.5 -280.5t75.5 -231.5q73 -98 186 -113q101 -14 189.5 11.5t142.5 66.5t96 96q27 35 48 69t29 52.5t7 20.5l-18 -23q-14 -17 -32 -34t-44.5 -38
t-59 -35.5t-70 -25.5t-83.5 -10t-94 14q-75 21 -102.5 109t-10 192t63.5 189q72 141 192 243t197 84q34 -13 32.5 -59.5t-25.5 -105.5t-58 -103q-158 -196 -369 -217h41h55q33 0 62 2q38 1 139 16q180 41 258 140q65 88 53 161t-73 122t-144 59z" />
    <glyph glyph-name="edieresis" unicode="&#xeb;" horiz-adv-x="983" 
d="M604 1063q-52 0 -90.5 39t-38.5 94q0 49 39 85t90 36q55 0 93 -35.5t38 -85.5q0 -57 -37 -95t-94 -38zM1073 1063q-54 0 -91.5 38.5t-37.5 94.5q0 50 37.5 85.5t91.5 35.5q55 0 93 -35.5t38 -85.5q0 -57 -37.5 -95t-93.5 -38zM778 967q83 -10 144 -59t73 -122t-53 -161
q-78 -99 -258 -140q-101 -15 -139 -16q-29 -2 -62 -2h-55h-41q211 21 369 217q34 44 58 103t25.5 105.5t-32.5 59.5q-77 18 -197 -84t-192 -243q-46 -85 -63.5 -189t10 -192t102.5 -109q48 -13 94 -14t83.5 10t70 25.5t59 35.5t44.5 38t32 34l18 23q1 -2 -7 -20.5t-29 -52.5
t-48 -69q-42 -55 -96 -96t-142.5 -66.5t-189.5 -11.5q-113 15 -186 113q-72 99 -75.5 231.5t63.5 280.5q58 117 142.5 199.5t176.5 119.5q161 65 301 52z" />
    <glyph glyph-name="igrave" unicode="&#xec;" horiz-adv-x="614" 
d="M539 1350l41 -314l-170 267q-23 37 -30.5 67t-0.5 49t18.5 30t26.5 17q43 14 75.5 -15.5t39.5 -100.5zM84 215l223 530q25 60 19 68l-11 6q-16 9 -77 -28q-66 -40 -115 -78l-53 -43q84 94 188 172q112 87 188 102q94 15 148 -45t8 -172l-235 -563q-28 -66 -7 -72
q17 -8 80 33q64 41 117 84l53 45q-62 -70 -80 -88q-14 -14 -92 -84q-124 -102 -245 -102q-30 0 -59 13t-52.5 41.5t-24 73t26.5 107.5z" />
    <glyph glyph-name="iacute" unicode="&#xed;" horiz-adv-x="653" 
d="M532 1014l170 268q25 40 55 60.5t56 18.5t43 -24q12 -10 17.5 -25t3.5 -34.5t-21.5 -44t-54.5 -47.5zM307 745l-223 -530q-27 -63 -26.5 -107.5t24 -73t52.5 -41.5t59 -13q121 0 245 102q78 70 92 84q18 18 80 88l-53 -45q-53 -43 -117 -84q-63 -41 -80 -33q-21 6 7 72
l235 563q46 112 -8 172t-148 45q-76 -15 -188 -102q-104 -78 -188 -172l53 43q49 38 115 78q61 37 77 28l11 -6q6 -8 -19 -68z" />
    <glyph glyph-name="icircumflex" unicode="&#xee;" horiz-adv-x="653" 
d="M262 1010l320 315h157l27 -315l-135 209zM348 745l-225 -530q-25 -63 -24.5 -107.5t23 -73t51 -41.5t58.5 -13q125 0 248 102q62 53 90 84q29 30 82 88l-53 -45q-52 -43 -117 -84q-63 -41 -80 -33q-21 6 7 72l233 563q46 114 -6 172q-54 60 -148 45q-78 -15 -190 -102
q-116 -90 -186 -172l53 43q49 38 115 78q61 37 77 28l11 -6q6 -8 -19 -68z" />
    <glyph glyph-name="idieresis" unicode="&#xef;" horiz-adv-x="772" 
d="M340 1063q-54 0 -91.5 38.5t-37.5 94.5q0 50 37.5 85.5t91.5 35.5q55 0 93 -35.5t38 -85.5q0 -57 -37.5 -95t-93.5 -38zM807 1063q-52 0 -90.5 39t-38.5 94q0 49 39 85t90 36q55 0 93 -35.5t38 -85.5q0 -57 -37 -95t-94 -38zM123 215l225 530q25 60 19 68l-11 6
q-16 9 -77 -28q-66 -40 -115 -78l-53 -43q70 82 186 172q112 87 190 102q94 15 148 -45q52 -58 6 -172l-233 -563q-28 -66 -7 -72q17 -8 80 33q65 41 117 84l53 45q-53 -58 -82 -88q-28 -31 -90 -84q-123 -102 -248 -102q-30 0 -58.5 13t-51 41.5t-23 73t24.5 107.5z" />
    <glyph glyph-name="eth" unicode="&#xf0;" horiz-adv-x="1026" 
d="M922 1112h104l-16 -18h-82q76 -242 49 -480v-8q-8 -113 -53.5 -218.5t-116 -185t-155.5 -136t-180.5 -78.5t-184.5 -6q-89 13 -145.5 64.5t-73.5 123t-7 152t45 155.5q96 227 242 330q117 82 242 104q124 19 211 -14q16 94 16 197h-94l-14 18h106q-6 170 -63 313
q106 -127 170 -313zM725 606q31 157 15.5 230.5t-78.5 66.5q-18 -3 -39 -12q-70 -27 -142 -146q-68 -113 -116 -268q-39 -114 -56 -213q-20 -99 -4 -178.5t68 -89.5q87 -18 192 164q107 180 160 446z" />
    <glyph glyph-name="ntilde" unicode="&#xf1;" horiz-adv-x="1261" 
d="M575 1051q42 103 115 160t148 49q46 -3 88 -58q39 -50 80 -53q46 -2 97 30.5t85 90.5q-33 -81 -100.5 -141t-137.5 -64q-39 -1 -68.5 16.5t-44.5 39t-36.5 41t-44.5 20.5q-102 0 -181 -131zM995 96q-34 6 13 140l141 346q50 117 44.5 198.5t-43.5 127t-103 59.5
q-110 26 -235 -55t-234 -253q47 58 95 97.5t86 56t70.5 20t53 -6t28.5 -27.5q19 -45 7 -101q-12 -57 -64 -184l-115 -285q-34 -121 -3.5 -175t116.5 -54q119 0 221 92q35 28 70 66q29 29 31 32q13 12 30 35q14 18 27 31l-43 -43q-52 -45 -105 -82q-56 -39 -88 -35zM588 735
q27 67 26 117t-37.5 77t-103.5 19q-137 -15 -358 -270l41 35q40 37 94 65q54 31 78 19q19 -9 -27 -115l-262 -682h264z" />
    <glyph glyph-name="ograve" unicode="&#xf2;" horiz-adv-x="1077" 
d="M766 1350l43 -314l-172 267q-23 37 -30.5 67t-0.5 49t18.5 30t26.5 17q43 14 75.5 -15.5t39.5 -100.5zM649 967q60 6 118 -1.5t112 -32.5t93.5 -65.5t61.5 -104.5t17 -145q-9 -205 -121 -370q-108 -164 -271 -234q-168 -72 -325 -39q-113 24 -176 115.5t-58 206.5
q3 105 39 225q43 121 108.5 211t139.5 135q135 87 262 99zM662 938q-71 -35 -137.5 -154t-108.5 -282q-69 -278 -41 -418q15 -81 69 -90q92 -15 191 166q99 180 153 471q34 165 3 256q-34 101 -129 51z" />
    <glyph glyph-name="oacute" unicode="&#xf3;" horiz-adv-x="1077" 
d="M752 1053l170 268q25 40 55 60.5t55.5 19t42.5 -22.5q12 -10 17.5 -25.5t3.5 -35.5t-21.5 -44.5t-54.5 -47.5zM649 967q60 6 118 -1.5t112 -32.5t93.5 -65.5t61.5 -104.5t17 -145q-9 -205 -121 -370q-108 -164 -271 -234q-168 -72 -325 -39q-113 24 -176 115.5t-58 206.5
q3 105 39 225q43 121 108.5 211t139.5 135q135 87 262 99zM662 938q-71 -35 -137.5 -154t-108.5 -282q-69 -278 -41 -418q15 -81 69 -90q92 -15 191 166q99 180 153 471q34 165 3 256q-34 101 -129 51z" />
    <glyph glyph-name="ocircumflex" unicode="&#xf4;" horiz-adv-x="1077" 
d="M471 1010l322 315h155l29 -315l-137 209zM649 967q60 6 118 -1.5t112 -32.5t93.5 -65.5t61.5 -104.5t17 -145q-9 -205 -121 -370q-108 -164 -271 -234q-168 -72 -325 -39q-113 24 -176 115.5t-58 206.5q3 105 39 225q43 121 108.5 211t139.5 135q135 87 262 99zM662 938
q-71 -35 -137.5 -154t-108.5 -282q-69 -278 -41 -418q15 -81 69 -90q92 -15 191 166q99 180 153 471q34 165 3 256q-34 101 -129 51z" />
    <glyph glyph-name="otilde" unicode="&#xf5;" horiz-adv-x="1077" 
d="M432 1051q42 103 115 160t149 49q43 -3 86 -58q39 -50 80 -53q46 -2 97 30.5t85 90.5q-31 -79 -98 -140q-68 -62 -139 -65q-32 -1 -57 10t-41 28t-30 34.5t-30.5 30.5t-36.5 14q-101 0 -180 -131zM649 967q60 6 118 -1.5t112 -32.5t93.5 -65.5t61.5 -104.5t17 -145
q-9 -205 -121 -370q-108 -164 -271 -234q-168 -72 -325 -39q-113 24 -176 115.5t-58 206.5q3 105 39 225q43 121 108.5 211t139.5 135q135 87 262 99zM662 938q-71 -35 -137.5 -154t-108.5 -282q-69 -278 -41 -418q15 -81 69 -90q92 -15 191 166q99 180 153 471
q34 165 3 256q-34 101 -129 51z" />
    <glyph glyph-name="odieresis" unicode="&#xf6;" horiz-adv-x="1077" 
d="M522 1063q-52 0 -90.5 39t-38.5 94q0 49 39 85t90 36q55 0 93 -35.5t38 -85.5q0 -57 -37 -95t-94 -38zM991 1063q-54 0 -91.5 38.5t-37.5 94.5q0 50 37.5 85.5t91.5 35.5q55 0 93 -35.5t38 -85.5q0 -57 -37.5 -95t-93.5 -38zM649 967q60 6 118 -1.5t112 -32.5t93.5 -65.5
t61.5 -104.5t17 -145q-9 -205 -121 -370q-108 -164 -271 -234q-168 -72 -325 -39q-113 24 -176 115.5t-58 206.5q3 105 39 225q43 121 108.5 211t139.5 135q135 87 262 99zM662 938q-71 -35 -137.5 -154t-108.5 -282q-69 -278 -41 -418q15 -81 69 -90q92 -15 191 166
q99 180 153 471q34 165 3 256q-34 101 -129 51z" />
    <glyph glyph-name="divide" unicode="&#xf7;" horiz-adv-x="1075" 
d="M571 657q-44 0 -63 31.5t0 75.5q13 41 57.5 71.5t87.5 30.5q42 0 61.5 -30.5t2.5 -71.5q-17 -43 -61 -75t-85 -32zM92 532l8 19h830l-8 -19h-830zM391 211q-43 0 -62.5 31.5t-2.5 72.5q18 42 60.5 72.5t86.5 30.5q41 0 59.5 -30.5t4.5 -72.5q-19 -43 -62 -73.5t-84 -30.5
z" />
    <glyph glyph-name="oslash" unicode="&#xf8;" horiz-adv-x="925" 
d="M1030 924l45 2l-125 -105q49 -82 43 -203q-18 -314 -241 -503q-222 -192 -476 -140q-124 24 -186 136l-133 -111l-45 4l164 135q-73 165 4 383q44 121 109.5 211t140.5 135q135 87 262 99q107 12 198 -19.5t144 -103.5zM358 502q-14 -48 -34 -158l417 342q22 160 -18 224
t-121 28q-71 -35 -136.5 -154t-107.5 -282zM731 631q0 1 1 6t1 6l-416 -344q-41 -290 70 -305q92 -15 191 166q99 180 153 471z" />
    <glyph glyph-name="ugrave" unicode="&#xf9;" horiz-adv-x="1212" 
d="M717 1350l43 -314l-172 267q-23 37 -30.5 67t-0.5 49t18.5 30t26.5 17q44 14 76.5 -16t38.5 -100zM317 842q-16 9 -71 -31q-70 -51 -103 -82l-45 -43l74 84q21 24 78 78q103 100 205 100q54 0 89.5 -26.5t45.5 -78.5t-17 -130q-56 -142 -112 -297q-68 -189 -68 -230
q0 -27 13 -43q9 -16 24.5 -25t41 -8t56.5 15.5t73 51.5t87 93q-86 -161 -196.5 -234t-217.5 -48q-212 50 -110 364l141 381q28 91 23 101q-2 3 -11 8zM1210 922l-270 -748q-27 -75 -8 -78q25 -6 76 33q56 43 94 84l41 45l-39 -51q-39 -56 -49 -68q-3 -3 -20.5 -22t-33.5 -35
q-49 -52 -99 -75.5t-118 -26.5q-71 5 -106.5 68t-1.5 151l266 723h268z" />
    <glyph glyph-name="uacute" unicode="&#xfa;" horiz-adv-x="1212" 
d="M731 1053l170 268q27 41 57 61t55 18.5t42 -22.5q12 -10 17.5 -25.5t4 -35.5t-21 -44.5t-54.5 -47.5zM317 842q9 -5 11 -8q5 -10 -23 -101l-141 -381q-102 -314 110 -364q107 -25 217.5 48t196.5 234q-45 -56 -87 -93t-73 -51.5t-56.5 -15.5t-41 8t-24.5 25
q-13 16 -13 43q0 41 68 230q56 155 112 297q27 78 17 130t-45.5 78.5t-89.5 26.5q-102 0 -205 -100q-57 -54 -78 -78l-74 -84l45 43q33 31 103 82q55 40 71 31zM940 174l270 748h-268l-266 -723q-34 -88 1.5 -151t106.5 -68q68 3 118 26.5t99 75.5q16 16 33.5 35t20.5 22
q10 12 49 68l39 51l-41 -45q-38 -41 -94 -84q-51 -39 -76 -33q-19 3 8 78z" />
    <glyph glyph-name="ucircumflex" unicode="&#xfb;" horiz-adv-x="1212" 
d="M541 1010l319 315h158l26 -315l-137 209zM317 842q9 -5 11 -8q5 -10 -23 -101l-141 -381q-102 -314 110 -364q107 -25 217.5 48t196.5 234q-45 -56 -87 -93t-73 -51.5t-56.5 -15.5t-41 8t-24.5 25q-13 16 -13 43q0 41 68 230q56 155 112 297q27 78 17 130t-45.5 78.5
t-89.5 26.5q-102 0 -205 -100q-57 -54 -78 -78l-74 -84l45 43q33 31 103 82q55 40 71 31zM940 174l270 748h-268l-266 -723q-34 -88 1.5 -151t106.5 -68q68 3 118 26.5t99 75.5q16 16 33.5 35t20.5 22q10 12 49 68l39 51l-41 -45q-38 -41 -94 -84q-51 -39 -76 -33
q-19 3 8 78z" />
    <glyph glyph-name="udieresis" unicode="&#xfc;" horiz-adv-x="1212" 
d="M584 1063q-52 0 -90.5 39t-38.5 94q0 49 39 85t90 36q55 0 93 -35.5t38 -85.5q0 -57 -37.5 -95t-93.5 -38zM1053 1063q-54 0 -91.5 38.5t-37.5 94.5q0 50 37.5 85.5t91.5 35.5q55 0 93 -35.5t38 -85.5q0 -57 -37.5 -95t-93.5 -38zM317 842q-16 9 -71 -31
q-70 -51 -103 -82l-45 -43l74 84q21 24 78 78q103 100 205 100q54 0 89.5 -26.5t45.5 -78.5t-17 -130q-56 -142 -112 -297q-68 -189 -68 -230q0 -27 13 -43q9 -16 24.5 -25t41 -8t56.5 15.5t73 51.5t87 93q-86 -161 -196.5 -234t-217.5 -48q-212 50 -110 364l141 381
q28 91 23 101q-2 3 -11 8zM1210 922l-270 -748q-27 -75 -8 -78q25 -6 76 33q56 43 94 84l41 45l-39 -51q-39 -56 -49 -68q-3 -3 -20.5 -22t-33.5 -35q-49 -52 -99 -75.5t-118 -26.5q-71 5 -106.5 68t-1.5 151l266 723h268z" />
    <glyph glyph-name="yacute" unicode="&#xfd;" horiz-adv-x="1005" 
d="M938 1378q12 -10 17.5 -25.5t3.5 -35.5t-21.5 -44.5t-54.5 -47.5l-269 -172l170 268q24 40 54.5 60.5t56.5 19t43 -22.5zM928 956q138 -9 98 -190q-34 -154 -190 -379q-238 -352 -611 -641l-30 -25q-32 -26 -78 -55q-74 -53 -150 -63q-132 -18 -174 24q-28 36 -14 88
q12 54 65 66q37 10 78 -4q6 -4 25 -10q4 -3 25.5 -14.5t25.5 -14.5q114 -49 270 74l56 43q38 30 120 118q-9 125 -36 295q-22 135 -58 273q-46 166 -90 223q-43 58 -90 61q-97 9 -143 -92q15 66 62 124.5t116 80.5q148 42 240 -41.5t145 -314.5q55 -253 55 -394
q68 75 143 168q70 97 107 176q59 132 -14 211l-52 58q-21 26 -18 69q2 36 34 63t83 23z" />
    <glyph glyph-name="thorn" unicode="&#xfe;" horiz-adv-x="1159" 
d="M909 969q94 1 151 -54t68.5 -142.5t-16 -198t-92.5 -218.5q-88 -152 -205 -243q-107 -86 -203 -114t-206 -17q-72 3 -136 49l-125 -305q-46 -118 -30 -134q10 -10 58.5 -17t100.5 -9l45 -4h-706q153 3 190 35q21 18 74 145l621 1507q54 103 20 137q-26 26 -149 44l-39 4
h510l-486 -1196q-50 -207 60 -234q78 -21 161 68q91 97 156 225q96 184 111 328q15 145 -62 180q-43 14 -81.5 8t-66.5 -22t-50 -41l-31 -35q5 11 15.5 28.5t45 62t73.5 78.5t99.5 60.5t124.5 24.5z" />
    <glyph glyph-name="ydieresis" unicode="&#xff;" horiz-adv-x="1005" 
d="M401 1063q-54 0 -91.5 38.5t-37.5 94.5q0 50 37.5 85.5t91.5 35.5q55 0 93 -35.5t38 -85.5q0 -57 -37.5 -95t-93.5 -38zM868 1063q-52 0 -90.5 39t-38.5 94q0 49 39 85t90 36q55 0 93 -35.5t38 -85.5q0 -57 -37 -95t-94 -38zM928 956q138 -9 98 -190q-34 -154 -190 -379
q-238 -352 -611 -641l-30 -25q-32 -26 -78 -55q-74 -53 -150 -63q-132 -18 -174 24q-28 36 -14 88q12 54 65 66q37 10 78 -4q6 -4 25 -10q4 -3 25.5 -14.5t25.5 -14.5q114 -49 270 74l56 43q38 30 120 118q-9 125 -36 295q-22 135 -58 273q-46 166 -90 223q-43 58 -90 61
q-97 9 -143 -92q15 66 62 124.5t116 80.5q148 42 240 -41.5t145 -314.5q55 -253 55 -394q68 75 143 168q70 97 107 176q59 132 -14 211l-52 58q-21 26 -18 69q2 36 34 63t83 23z" />
    <glyph glyph-name="Amacron" unicode="&#x100;" 
d="M813 1622l404 2l-9 -16h-403zM1262 2h-715q75 0 147 57q77 59 74 172l-6 250h-434l-166 -237q-39 -56 -41.5 -104.5t22 -77t57 -44.5t62.5 -16h-459q183 41 369 303l864 1223l64 -1303q4 -101 48.5 -159.5t113.5 -63.5zM641 932l-297 -426h418l-10 393q-3 117 -13 127
q-4 4 -6 4q-20 11 -92 -98z" />
    <glyph glyph-name="amacron" unicode="&#x101;" horiz-adv-x="1167" 
d="M610 1120l404 2l-8 -16h-404zM893 78q33 -8 94 35q65 43 111 90l45 47q-8 -9 -43 -55q-23 -29 -53 -64q-11 -15 -56 -57q-49 -50 -103 -74.5t-128 -30.5q-50 0 -84 16t-48 41t-17 57.5t3 62.5t17 59l157 397q121 331 23 352q-64 14 -168 -82q-97 -90 -182 -241
q-93 -162 -111 -293q-18 -134 45 -168q42 -27 88.5 -16t83 38.5t62.5 63.5l-17 -35q-19 -43 -63 -106q-42 -67 -114 -108.5t-165 -37.5q-103 3 -157 94q-52 89 -32 230.5t107 279.5q72 118 162.5 204t177.5 124q153 68 256 68q131 -3 193 -86l67 20l154 49l-301 -782
q-35 -86 -4 -92z" />
    <glyph glyph-name="Abreve" unicode="&#x102;" 
d="M1028 1595q-61 0 -97.5 33t-39.5 83.5t20 109.5q-10 -61 32 -94t120 -33q176 0 252 125q-37 -85 -117 -156q-80 -68 -170 -68zM1036 1528l64 -1303q4 -101 48.5 -159.5t113.5 -63.5h-715q75 0 147 57q77 59 74 172l-6 250h-434l-166 -237q-39 -56 -41.5 -104.5t22 -77
t57 -44.5t62.5 -16h-459q183 41 369 303zM641 932l-297 -426h418l-10 393q-3 117 -13 127q-4 4 -6 4q-20 11 -92 -98z" />
    <glyph glyph-name="abreve" unicode="&#x103;" horiz-adv-x="1167" 
d="M860 1061q-62 0 -99 33t-39 83t21 109q-10 -61 32 -94t120 -33q176 0 252 125q-37 -86 -117 -156q-79 -67 -170 -67zM893 78q33 -8 94 35q65 43 111 90l45 47q-8 -9 -43 -55q-23 -29 -53 -64q-11 -15 -56 -57q-49 -50 -103 -74.5t-128 -30.5q-50 0 -84 16t-48 41
t-17 57.5t3 62.5t17 59l157 397q121 331 23 352q-64 14 -168 -82q-97 -90 -182 -241q-93 -162 -111 -293q-18 -134 45 -168q42 -27 88.5 -16t83 38.5t62.5 63.5l-17 -35q-19 -43 -63 -106q-42 -67 -114 -108.5t-165 -37.5q-103 3 -157 94q-52 89 -32 230.5t107 279.5
q72 118 162.5 204t177.5 124q153 68 256 68q131 -3 193 -86l67 20l154 49l-301 -782q-35 -86 -4 -92z" />
    <glyph glyph-name="Aogonek" unicode="&#x104;" 
d="M1262 2h-715q75 0 147 57q77 59 74 172l-6 250h-434l-166 -237q-39 -56 -41.5 -104.5t22 -77t57 -44.5t62.5 -16h-459q183 41 369 303l864 1223l64 -1303q4 -101 48.5 -159.5t113.5 -63.5zM641 932l-297 -426h418l-10 393q-3 117 -13 127q-4 4 -6 4q-20 11 -92 -98z
M926 0h174q-176 -89 -197 -197q-15 -74 43 -114q59 -44 133 -11q-63 -43 -133.5 -44t-119 38.5t-50.5 104.5q-3 146 150 223z" />
    <glyph glyph-name="aogonek" unicode="&#x105;" horiz-adv-x="1202" 
d="M924 78q33 -8 94 35q55 37 108 90l48 47q-12 -12 -44 -55q-23 -29 -53 -64q-13 -18 -55 -57q-49 -50 -103 -74.5t-128 -30.5q-55 0 -93 21q-65 -37 -107 -86t-46 -101q-6 -73 47 -114q57 -45 129 -11q-95 -65 -199 -34q-101 30 -104 133q-3 191 223 315q-6 54 21 113
l157 397q121 331 23 352q-64 14 -168 -82q-97 -90 -182 -241q-93 -162 -111 -293q-18 -134 45 -168q42 -27 88 -16t82.5 38.5t62.5 63.5l-16 -35q-19 -43 -63 -106q-42 -67 -114 -108.5t-165 -37.5q-104 3 -158 94q-52 90 -31.5 231t107.5 279q72 118 162.5 204t177.5 124
q153 68 256 68q131 -3 193 -86l67 20l154 49l-301 -782q-35 -86 -4 -92z" />
    <glyph glyph-name="Cacute" unicode="&#x106;" horiz-adv-x="1435" 
d="M1253 1575l170 268q25 40 55 60.5t55.5 18.5t41.5 -24q12 -10 18 -25t4.5 -34.5t-20.5 -44t-55 -47.5zM1634 1264l-192 -392q12 218 -39 371q-53 160 -186 178q-148 21 -287 -82q-142 -105 -234 -276q-71 -134 -94 -278t10 -296q38 -144 146 -215q78 -58 203 -59.5
t246.5 56t183.5 157.5q-120 -238 -299.5 -351t-411.5 -73q-147 25 -247.5 125t-137.5 242q-34 134 -11 295.5t99 298.5q276 504 858 477q252 -12 393 -178z" />
    <glyph glyph-name="cacute" unicode="&#x107;" horiz-adv-x="942" 
d="M754 1053l170 268q25 40 55 60.5t55.5 19t42.5 -22.5q12 -10 17.5 -25.5t3.5 -35.5t-21.5 -44.5t-54.5 -47.5zM780 956q-301 52 -514 -145q-229 -215 -188 -522q21 -155 123 -244q107 -87 243 -84q81 0 155 34t120 81q41 44 76 100q36 63 53 115l-12 -21
q-11 -19 -28 -38.5t-46.5 -43t-66 -37t-87 -21t-108.5 6.5q-77 18 -123 88.5t-51 169.5q-3 107 39 226q47 127 135 215q129 135 266 114q86 -15 65 -100q-3 -9 -5.5 -15t-5.5 -12t-4.5 -9.5t-6 -8t-5.5 -6.5t-7.5 -6.5t-8 -5.5l-10.5 -7l-12 -8q-44 -29 -49 -82t33 -90
q32 -31 85 -28.5t91 38.5q54 69 39 158q-6 65 -57.5 120t-127.5 68z" />
    <glyph glyph-name="Cdotaccent" unicode="&#x10a;" horiz-adv-x="1435" 
d="M1346 1628q-47 0 -82 36t-35 83q0 51 34.5 86t82.5 35q51 0 85.5 -35t34.5 -86q0 -48 -35 -83.5t-85 -35.5zM1634 1264l-192 -392q12 218 -39 371q-53 160 -186 178q-148 21 -287 -82q-142 -105 -234 -276q-71 -134 -94 -278t10 -296q38 -144 146 -215q78 -58 203 -59.5
t246.5 56t183.5 157.5q-120 -238 -299.5 -351t-411.5 -73q-147 25 -247.5 125t-137.5 242q-34 134 -11 295.5t99 298.5q276 504 858 477q252 -12 393 -178z" />
    <glyph glyph-name="cdotaccent" unicode="&#x10b;" horiz-adv-x="942" 
d="M881 1094q-57 0 -96.5 38.5t-39.5 94.5t39.5 94.5t96.5 38.5q54 0 91.5 -39.5t37.5 -93.5t-37.5 -93.5t-91.5 -39.5zM780 956q76 -13 127.5 -68t57.5 -120q15 -89 -39 -158q-38 -36 -91 -38.5t-85 28.5q-38 37 -33 90t49 82l12 8l10.5 7t8 5.5t7.5 6.5t5.5 6.5t6 8
t4.5 9.5t5.5 12t5.5 15q21 85 -65 100q-137 21 -266 -114q-88 -88 -135 -215q-42 -119 -39 -226q5 -99 51 -169.5t123 -88.5q58 -14 108.5 -6.5t87 21t66 37t46.5 43t28 38.5l12 21q-17 -52 -53 -115q-35 -56 -76 -100q-46 -47 -120 -81t-155 -34q-136 -3 -243 84
q-102 89 -123 244q-41 307 188 522q213 197 514 145z" />
    <glyph glyph-name="Ccaron" unicode="&#x10c;" horiz-adv-x="1435" 
d="M1106 1833l162 -188l286 188l-254 -283h-139zM1634 1264l-192 -392q12 218 -39 371q-53 160 -186 178q-148 21 -287 -82q-142 -105 -234 -276q-71 -134 -94 -278t10 -296q38 -144 146 -215q78 -58 203 -59.5t246.5 56t183.5 157.5q-120 -238 -299.5 -351t-411.5 -73
q-147 25 -247.5 125t-137.5 242q-34 134 -11 295.5t99 298.5q276 504 858 477q252 -12 393 -178z" />
    <glyph glyph-name="ccaron" unicode="&#x10d;" horiz-adv-x="942" 
d="M586 1335l162 -188l286 188l-256 -282h-139zM780 956q-301 52 -514 -145q-229 -215 -188 -522q21 -155 123 -244q107 -87 243 -84q81 0 155 34t120 81q41 44 76 100q36 63 53 115l-12 -21q-11 -19 -28 -38.5t-46.5 -43t-66 -37t-87 -21t-108.5 6.5q-77 18 -123 88.5
t-51 169.5q-3 107 39 226q47 127 135 215q129 135 266 114q86 -15 65 -100q-3 -9 -5.5 -15t-5.5 -12t-4.5 -9.5t-6 -8t-5.5 -6.5t-7.5 -6.5t-8 -5.5l-10.5 -7l-12 -8q-44 -29 -49 -82t33 -90q32 -31 85 -28.5t91 38.5q54 69 39 158q-6 65 -57.5 120t-127.5 68z" />
    <glyph glyph-name="Dcaron" unicode="&#x10e;" horiz-adv-x="1671" 
d="M1421 1837l-256 -283h-139l-53 283l160 -188zM1468 1362q64 -36 118.5 -106.5t90.5 -168.5q38 -94 31.5 -236.5t-61.5 -287.5q-215 -563 -940 -563h-832q94 6 180 54.5t117 123.5l426 1059q34 81 -10.5 136.5t-130.5 60.5h510q106 1 187.5 1t161 -17t152.5 -56zM1102 256
q134 145 217 379q85 240 76 414q-6 180 -87.5 271.5t-248.5 92.5h-62l-483 -1206q-30 -67 -18.5 -107t40 -56.5t70.5 -16.5h17q136 0 249 51.5t230 177.5z" />
    <glyph glyph-name="dcaron" unicode="&#x10f;" horiz-adv-x="1196" 
d="M1546 1530q51 -8 81.5 -51t23.5 -97q-20 -128 -135 -237q-110 -105 -242 -152q94 43 180 129q92 92 109 162q-37 -10 -62 -4q-54 11 -83 54t-19 98q11 52 54 81t93 17zM881 96q15 -24 73 10q56 36 107 87l51 47q-117 -145 -174 -189q-92 -69 -188 -69q-70 0 -105 71
q-35 75 2 176l154 373q124 325 10 346q-70 15 -170 -71q-94 -85 -178 -232q-90 -167 -111 -309q-21 -147 37 -174q65 -35 137 2q77 38 117 104q-1 -1 -6.5 -12.5t-13 -27t-11.5 -23.5q-28 -63 -51 -90q-115 -150 -278 -150q-106 0 -162 90q-57 90 -38 237t110 286
q77 122 166.5 208t175.5 123q160 70 270 58q75 -9 127 -52l133 326q41 102 31 131q-9 23 -70 39q-63 16 -113 19l-55 2h537l-498 -1248q-27 -68 -16 -88z" />
    <glyph glyph-name="Dcroat" unicode="&#x110;" horiz-adv-x="1671" 
d="M1468 1362q64 -36 118.5 -106.5t90.5 -168.5q38 -94 31.5 -236.5t-61.5 -287.5q-215 -563 -940 -563h-832q94 6 180 54.5t117 123.5l219 545h-209l-12 18h229l199 496q34 81 -10.5 136.5t-130.5 60.5h510q106 1 187.5 1t161 -17t152.5 -56zM1102 256q134 145 217 379
q85 240 76 414q-6 180 -87.5 271.5t-248.5 92.5h-62l-268 -672h240l-17 -18h-231l-207 -516q-30 -67 -18.5 -107t40 -56.5t70.5 -16.5h17q136 0 249 51.5t230 177.5z" />
    <glyph glyph-name="dslash" unicode="&#x111;" horiz-adv-x="1196" 
d="M881 96q15 -24 73 10q56 36 107 87l51 47q-117 -145 -174 -189q-92 -69 -188 -69q-70 0 -105 71q-35 75 2 176l154 373q124 325 10 346q-70 15 -170 -71q-94 -85 -178 -232q-90 -167 -111 -309q-21 -147 37 -174q65 -35 137 2q77 38 117 104q-1 -1 -6.5 -12.5t-13 -27
t-11.5 -23.5q-28 -63 -51 -90q-115 -150 -278 -150q-106 0 -162 90q-57 90 -38 237t110 286q77 122 166.5 208t175.5 123q160 70 270 58q75 -9 127 -52l78 191h-162l8 14h160l49 121q41 102 31 131q-9 23 -70 39q-63 16 -113 19l-55 2h537l-498 -1248q-27 -68 -16 -88z" />
    <glyph glyph-name="Emacron" unicode="&#x112;" horiz-adv-x="1583" 
d="M950 1610l404 2l-8 -17h-404zM1180 186q235 125 356 299l-193 -485h-1507q92 0 195 68q101 70 141 168l412 1007q30 76 -16.5 131t-131.5 60h1176l30 -476q-15 35 -47 89q-2 4 -55 83q-26 42 -69.5 87.5t-84.5 74.5q-100 69 -192 94q-89 24 -213 27l-258 -641h61
q342 0 484 244l-232 -615q12 41 5 96.5t-29 114.5q-21 58 -87.5 98t-156.5 40h-55l-244 -607q-20 -53 1 -84.5t73 -31.5h63q281 0 574 159z" />
    <glyph glyph-name="emacron" unicode="&#x113;" horiz-adv-x="983" 
d="M524 1106l8 14l404 2l-8 -16h-404zM778 967q83 -10 144 -59t73 -122t-53 -161q-78 -99 -258 -140q-101 -15 -139 -16q-29 -2 -62 -2h-55h-41q211 21 369 217q34 44 58 103t25.5 105.5t-32.5 59.5q-77 18 -197 -84t-192 -243q-46 -85 -63.5 -189t10 -192t102.5 -109
q48 -13 94 -14t83.5 10t70 25.5t59 35.5t44.5 38t32 34l18 23q1 -2 -7 -20.5t-29 -52.5t-48 -69q-42 -55 -96 -96t-142.5 -66.5t-189.5 -11.5q-113 15 -186 113q-72 99 -75.5 231.5t63.5 280.5q58 117 142.5 199.5t176.5 119.5q161 65 301 52z" />
    <glyph glyph-name="Edotaccent" unicode="&#x116;" horiz-adv-x="1525" 
d="M1102 1747q0 50 35 85.5t84 35.5t84.5 -35.5t35.5 -85.5q0 -48 -35.5 -83.5t-84.5 -35.5t-84 35.5t-35 83.5zM1210 186q238 128 359 299l-195 -485h-1507q91 0 194 68q105 73 144 168l409 1007q30 76 -16 131t-131 60h1175l31 -476q-15 35 -47 89q-2 4 -55 83
q-26 42 -69.5 87.5t-84.5 74.5q-100 69 -192 94q-89 24 -213 27l-258 -641h61q341 0 483 244l-231 -615q26 71 -25 211q-21 58 -87 98t-156 40h-56l-243 -607q-20 -53 0.5 -84.5t72.5 -31.5h64q281 0 573 159z" />
    <glyph glyph-name="edotaccent" unicode="&#x117;" horiz-adv-x="983" 
d="M1012 1133q-37 -38 -92.5 -38t-96.5 38q-38 41 -38 94.5t38 91.5q41 41 96.5 41t92.5 -39q38 -38 38 -94t-38 -94zM778 967q83 -10 144 -59t73 -122t-53 -161q-78 -99 -258 -140q-101 -15 -139 -16q-29 -2 -62 -2h-55h-41q211 21 369 217q34 44 58 103t25.5 105.5
t-32.5 59.5q-77 18 -197 -84t-192 -243q-46 -85 -63.5 -189t10 -192t102.5 -109q48 -13 94 -14t83.5 10t70 25.5t59 35.5t44.5 38t32 34l18 23q1 -2 -7 -20.5t-29 -52.5t-48 -69q-42 -55 -96 -96t-142.5 -66.5t-189.5 -11.5q-113 15 -186 113q-72 99 -75.5 231.5t63.5 280.5
q58 117 142.5 199.5t176.5 119.5q161 65 301 52z" />
    <glyph glyph-name="Eogonek" unicode="&#x118;" horiz-adv-x="1583" 
d="M1180 186q235 125 356 299l-193 -485h-34q-176 -89 -197 -197q-15 -74 43 -114q59 -44 133 -11q-63 -43 -133.5 -44t-119 38.5t-50.5 104.5q-3 146 148 223h-1297q92 0 195 68q101 70 141 168l412 1007q30 76 -16.5 131t-131.5 60h1176l30 -476q-15 35 -47 89
q-2 4 -55 83q-26 42 -69.5 87.5t-84.5 74.5q-100 69 -192 94q-89 24 -213 27l-258 -641h61q342 0 484 244l-232 -615q12 41 5 96.5t-29 114.5q-21 58 -87.5 98t-156.5 40h-55l-244 -607q-20 -53 1 -84.5t73 -31.5h63q281 0 574 159z" />
    <glyph glyph-name="eogonek" unicode="&#x119;" horiz-adv-x="983" 
d="M778 967q83 -10 144 -59t73 -122t-53 -161q-78 -99 -258 -140q-101 -15 -139 -16q-29 -2 -62 -2h-55h-41q211 21 369 217q34 44 58 103t25.5 105.5t-32.5 59.5q-77 18 -197 -84t-192 -243q-46 -85 -63.5 -189t10 -192t102.5 -109q48 -13 94 -14t83.5 10t70 25.5t59 35.5
t44.5 38t32 34l18 23q-14 -42 -63 -115q-40 -55 -86 -98q-51 -46 -133.5 -77t-169.5 -30q-122 -78 -137 -164q-15 -74 43 -114q59 -44 133 -11q-63 -43 -133.5 -44t-119 38.5t-50.5 104.5q-3 140 133 215q-141 63 -181 237q-41 176 54 367q58 117 142.5 199.5t176.5 119.5
q161 65 301 52z" />
    <glyph glyph-name="Ecaron" unicode="&#x11a;" horiz-adv-x="1583" 
d="M1532 1833l-256 -283h-139l-54 283l160 -188zM1180 186q235 125 356 299l-193 -485h-1507q92 0 195 68q101 70 141 168l412 1007q30 76 -16.5 131t-131.5 60h1176l30 -476q-15 35 -47 89q-2 4 -55 83q-26 42 -69.5 87.5t-84.5 74.5q-100 69 -192 94q-89 24 -213 27
l-258 -641h61q342 0 484 244l-232 -615q12 41 5 96.5t-29 114.5q-21 58 -87.5 98t-156.5 40h-55l-244 -607q-20 -53 1 -84.5t73 -31.5h63q281 0 574 159z" />
    <glyph glyph-name="ecaron" unicode="&#x11b;" horiz-adv-x="983" 
d="M608 1335l160 -188l289 188l-256 -282h-139zM778 967q-140 13 -301 -52q-92 -37 -176.5 -119.5t-142.5 -199.5q-67 -148 -63.5 -280.5t75.5 -231.5q73 -98 186 -113q101 -14 189.5 11.5t142.5 66.5t96 96q27 35 48 69t29 52.5t7 20.5l-18 -23q-14 -17 -32 -34t-44.5 -38
t-59 -35.5t-70 -25.5t-83.5 -10t-94 14q-75 21 -102.5 109t-10 192t63.5 189q72 141 192 243t197 84q34 -13 32.5 -59.5t-25.5 -105.5t-58 -103q-158 -196 -369 -217h41h55q33 0 62 2q38 1 139 16q180 41 258 140q65 88 53 161t-73 122t-144 59z" />
    <glyph glyph-name="Gbreve" unicode="&#x11e;" horiz-adv-x="1601" 
d="M1249 1675q173 0 252 125q-37 -82 -117 -153q-80 -68 -170 -68q-62 0 -99 32.5t-39.5 82t20.5 108.5q-10 -61 32.5 -94t120.5 -33zM1661 1247l-182 -377q15 168 -37 326q-52 163 -152 203q-72 30 -142 31t-130 -24.5t-114 -68t-99 -101.5t-80.5 -124t-62.5 -137
q-51 -139 -63 -288t14 -274t102 -209.5t190 -92.5q160 -12 230 67q35 38 53 70q22 39 41 86q18 45 18.5 81.5t-10.5 59t-32 39t-39.5 24t-39.5 11.5h537l-37 -6q-39 -7 -92 -57t-86 -124l-162 -389l-10 39q-12 46 -43.5 92t-71.5 62q-50 -58 -87.5 -86.5t-106.5 -52.5
q-77 -27 -176 -27q-167 -1 -294 80.5t-184 216.5q-55 131 -47.5 301t78.5 332q66 153 175.5 265.5t228.5 164.5q113 52 233 70q209 35 356 -9q97 -25 189.5 -74t134.5 -100z" />
    <glyph glyph-name="gbreve" unicode="&#x11f;" horiz-adv-x="1019" 
d="M678 1061q-62 0 -99.5 33t-40 83t20.5 109q-10 -61 33 -94t121 -33q173 0 252 125q-38 -84 -117 -154q-78 -69 -170 -69zM670 971q134 -1 215 -70t86 -174q9 -205 -133 -317q-143 -113 -346 -101q-81 3 -152 33q-56 -35 -35 -98q8 -31 80 -72l170 -88q102 -54 152 -107
q46 -46 69 -110.5t12 -112.5q-27 -127 -155 -188q-125 -61 -299 -55q-125 2 -222 29.5t-158.5 90t-57.5 152.5q4 58 36.5 102t78 65.5t85.5 31.5t72 10l31 2q-63 -26 -90 -109q-28 -84 -13 -141q21 -99 91.5 -155.5t183.5 -57.5q100 -1 159.5 49.5t61.5 126.5
q2 58 -42.5 118.5t-121.5 104.5q-41 25 -102 52l-109 51q-46 22 -76.5 60.5t-29.5 84.5q3 120 219 170q-131 66 -140 201q-15 177 125 299q141 126 355 123zM741 686q41 235 -59 264q-93 27 -166 -80q-74 -108 -92 -266q-35 -245 84 -272q79 -21 147 88q71 109 86 266z
M1098 965q29 -1 44 -16t15 -36q0 -26 -15.5 -44t-43.5 -17q-13 1 -39 17.5t-37 19.5q-34 9 -80 -31q12 20 21 32t29 33t47 32t59 10z" />
    <glyph glyph-name="Gdotaccent" unicode="&#x120;" horiz-adv-x="1601" 
d="M1286 1628q-47 0 -82 36t-35 83q0 51 34.5 86t82.5 35q51 0 86 -35t35 -86q0 -48 -36 -83.5t-85 -35.5zM1661 1247l-182 -377q15 168 -37 326q-52 163 -152 203q-72 30 -142 31t-130 -24.5t-114 -68t-99 -101.5t-80.5 -124t-62.5 -137q-51 -139 -63 -288t14 -274
t102 -209.5t190 -92.5q160 -12 230 67q35 38 53 70q22 39 41 86q18 45 18.5 81.5t-10.5 59t-32 39t-39.5 24t-39.5 11.5h537l-37 -6q-39 -7 -92 -57t-86 -124l-162 -389l-10 39q-12 46 -43.5 92t-71.5 62q-50 -58 -87.5 -86.5t-106.5 -52.5q-77 -27 -176 -27
q-167 -1 -294 80.5t-184 216.5q-55 131 -47.5 301t78.5 332q66 153 175.5 265.5t228.5 164.5q113 52 233 70q209 35 356 -9q97 -25 189.5 -74t134.5 -100z" />
    <glyph glyph-name="gdotaccent" unicode="&#x121;" horiz-adv-x="1019" 
d="M764 1094q-56 0 -95.5 39t-39.5 94t39.5 94t95.5 39q54 0 92.5 -39.5t38.5 -93.5t-38.5 -93.5t-92.5 -39.5zM670 971q134 -1 215 -70t86 -174q9 -205 -133 -317q-143 -113 -346 -101q-81 3 -152 33q-56 -35 -35 -98q8 -31 80 -72l170 -88q102 -54 152 -107
q46 -46 69 -110.5t12 -112.5q-27 -127 -155 -188q-125 -61 -299 -55q-125 2 -222 29.5t-158.5 90t-57.5 152.5q4 58 36.5 102t78 65.5t85.5 31.5t72 10l31 2q-63 -26 -90 -109q-28 -84 -13 -141q21 -99 91.5 -155.5t183.5 -57.5q100 -1 159.5 49.5t61.5 126.5
q2 58 -42.5 118.5t-121.5 104.5q-41 25 -102 52l-109 51q-46 22 -76.5 60.5t-29.5 84.5q3 120 219 170q-131 66 -140 201q-15 177 125 299q141 126 355 123zM741 686q41 235 -59 264q-93 27 -166 -80q-74 -108 -92 -266q-35 -245 84 -272q79 -21 147 88q71 109 86 266z
M1098 965q29 -1 44 -16t15 -36q0 -26 -15.5 -44t-43.5 -17q-13 1 -39 17.5t-37 19.5q-34 9 -80 -31q12 20 21 32t29 33t47 32t59 10z" />
    <glyph glyph-name="Gcommaaccent" unicode="&#x122;" horiz-adv-x="1601" 
d="M1126 549h537q-5 0 -15 -1.5t-37.5 -12t-52.5 -28.5t-56.5 -56t-53.5 -89l-162 -389l-2 8q-2 8 -6.5 23t-10.5 32.5t-16.5 37.5t-22.5 37.5t-29.5 32t-37.5 22.5q-50 -56 -82 -82q-41 -34 -118 -59t-170 -25q-167 -1 -294 80.5t-184 216.5q-55 131 -47.5 301t78.5 332
q66 153 175.5 265.5t228.5 164.5q113 52 233 70q209 35 356 -9q97 -25 189.5 -74t134.5 -100l-182 -377q15 168 -37 326q-52 163 -152 203q-72 30 -142 31t-130 -24.5t-114 -68t-99 -101.5t-80.5 -124t-62.5 -137q-51 -139 -63 -288t14 -274t102 -209.5t190 -92.5
q160 -12 230 67q35 38 53 70q22 39 41 86q18 45 18.5 81.5t-10.5 59t-32 39t-39.5 24t-39.5 11.5zM764 -115q51 -8 81 -50.5t23 -96.5q-21 -130 -135 -238q-109 -104 -241 -151q94 43 180 129q90 90 108 162q-31 -10 -61 -5q-54 11 -83.5 53.5t-19.5 96.5q10 53 53 82t95 18
z" />
    <glyph glyph-name="gcommaaccent" unicode="&#x123;" horiz-adv-x="1019" 
d="M670 971q134 -1 215 -70t86 -174q9 -205 -133 -317q-143 -113 -346 -101q-81 3 -152 33q-56 -35 -35 -98q8 -31 80 -72l170 -88q102 -54 152 -107q46 -46 69 -110.5t12 -112.5q-27 -127 -155 -188q-125 -61 -299 -55q-125 2 -222 29.5t-158.5 90t-57.5 152.5
q4 58 36.5 102t78 65.5t85.5 31.5t72 10l31 2q-63 -26 -90 -109q-28 -84 -13 -141q21 -99 91.5 -155.5t183.5 -57.5q100 -1 159.5 49.5t61.5 126.5q2 58 -42.5 118.5t-121.5 104.5q-41 25 -102 52l-109 51q-46 22 -76.5 60.5t-29.5 84.5q3 120 219 170q-131 66 -140 201
q-15 177 125 299q141 126 355 123zM741 686q41 235 -59 264q-93 27 -166 -80q-74 -108 -92 -266q-35 -245 84 -272q79 -21 147 88q71 109 86 266zM1098 965q29 -1 44 -16t15 -36q0 -26 -15.5 -44t-43.5 -17q-13 1 -39 17.5t-37 19.5q-34 9 -80 -31q12 20 21 32t29 33t47 32
t59 10z" />
    <glyph glyph-name="Hbar" unicode="&#x126;" horiz-adv-x="1736" 
d="M1942 1239l-62 -152h145l-20 -24h-135l-336 -838q-45 -106 10 -164q58 -58 148 -61h-787q80 3 168 63q84 60 125 156l209 518h-627l-207 -512q-42 -106 13 -164q58 -58 147 -61h-786q80 3 168 63q85 61 123 156l342 844h-185l21 24h174l61 150q31 84 -6 138t-119 59h734
q-83 0 -160.5 -49.5t-116.5 -145.5l-61 -152h626l62 150q34 84 -3 138t-120 59h731q-81 0 -158.5 -49.5t-117.5 -145.5zM788 756h627l125 307h-629z" />
    <glyph glyph-name="hbar" unicode="&#x127;" horiz-adv-x="1222" 
d="M766 1122l-8 -16h-70l-457 -1106h-245l440 1106h-72l8 14h70l29 72l35 80q47 114 30 131q-7 10 -56 17.5t-101 9.5l-47 4h501l-129 -312h72zM932 84q16 -10 76 35q69 52 114 92l52 47l-39 -45q-29 -39 -45 -55q-3 -3 -19 -21t-29 -31q-50 -52 -112 -88q-61 -38 -135 -38
q-56 0 -90 25.5t-41.5 80t24.5 139.5l123 275q38 85 54 138.5t13 93.5t-28 73q-10 14 -29.5 20.5t-51 2t-68 -21.5t-84.5 -57.5t-97 -99.5q107 177 246 254q137 76 252 49q214 -58 80 -385l-152 -370q-30 -89 -24 -105q3 -6 10 -8z" />
    <glyph glyph-name="Imacron" unicode="&#x12a;" horiz-adv-x="884" 
d="M655 1608l9 14l403 2l-8 -16h-404zM463 1434h772q-45 3 -99.5 -14.5t-111.5 -65t-86 -115.5l-410 -1014q-43 -106 21 -164t158 -61h-826q81 6 178 66q95 59 136 155l378 944q48 106 18.5 181.5t-128.5 87.5z" />
    <glyph glyph-name="imacron" unicode="&#x12b;" horiz-adv-x="653" 
d="M336 1106l8 14l404 2l-9 -16h-403zM84 215l223 530q25 60 19 68l-11 6q-16 9 -77 -28q-66 -40 -115 -78l-53 -43q84 94 188 172q112 87 188 102q94 15 148 -45t8 -172l-235 -563q-28 -66 -7 -72q17 -8 80 33q64 41 117 84l53 45q-62 -70 -80 -88q-14 -14 -92 -84
q-124 -102 -245 -102q-30 0 -59 13t-52.5 41.5t-24 73t26.5 107.5z" />
    <glyph glyph-name="Iogonek" unicode="&#x12e;" horiz-adv-x="884" 
d="M463 1434h772q-45 3 -99.5 -14.5t-111.5 -65t-86 -115.5l-410 -1014q-43 -106 21 -164t158 -61h-203q-176 -89 -197 -197q-15 -74 43 -114q59 -44 133 -11q-61 -44 -133.5 -44.5t-122.5 39.5t-49 104q-3 146 150 223h-447q81 6 178 66q95 59 136 155l378 944
q48 106 18.5 181.5t-128.5 87.5z" />
    <glyph glyph-name="iogonek" unicode="&#x12f;" horiz-adv-x="708" 
d="M598 1255q51 0 86 -35t35 -85q0 -49 -35.5 -84t-85.5 -35q-47 0 -82 36t-35 83q0 49 35 84.5t82 35.5zM604 727l-235 -563q-28 -66 -7 -72q17 -8 80 33q64 41 117 84l53 45l-77 -84l-82 -76q-110 -99 -230 -112q-114 -67 -135 -179q-15 -69 43 -112q59 -47 133 -13
q-98 -64 -201 -34q-101 30 -104 133q-1 65 36 129t101 112q-65 65 -12 197l225 530q25 60 19 68l-11 6q-16 9 -77 -28q-66 -40 -115 -78l-53 -43q84 94 188 172q112 87 189 102q93 15 147 -45t8 -172z" />
    <glyph glyph-name="Idot" unicode="&#x130;" horiz-adv-x="884" 
d="M768 1747q0 51 34.5 86t84.5 35t85.5 -35t35.5 -86q0 -48 -36 -83.5t-85 -35.5t-84 35.5t-35 83.5zM463 1434h772q-45 3 -99.5 -14.5t-111.5 -65t-86 -115.5l-410 -1014q-43 -106 21 -164t158 -61h-826q81 6 178 66q95 59 136 155l378 944q48 106 18.5 181.5t-128.5 87.5
z" />
    <glyph glyph-name="dotlessi" unicode="&#x131;" horiz-adv-x="673" 
d="M84 215l223 530q25 60 19 68l-11 6q-16 9 -77 -28q-66 -40 -115 -78l-53 -43q84 94 188 172q112 87 188 102q94 15 148 -45t8 -172l-235 -563q-28 -66 -7 -72q17 -8 80 33q64 41 117 84l53 45q-62 -70 -80 -88q-14 -14 -92 -84q-124 -102 -245 -102q-30 0 -59 13
t-52.5 41.5t-24 73t26.5 107.5z" />
    <glyph glyph-name="IJ" unicode="&#x132;" horiz-adv-x="1613" 
d="M938 1239l-410 -1014q-43 -106 21 -164t158 -61h-826q81 6 178 66q95 59 136 155l378 944q48 106 18.5 181.5t-128.5 87.5h772q-45 3 -99.5 -14.5t-111.5 -65t-86 -115.5zM1311 1434h770q-74 0 -168 -52q-92 -50 -129 -143l-408 -1010q-66 -161 -173 -275.5t-247 -174.5
q-259 -114 -602 -117q109 0 318 123q109 64 210 183t160 263l410 1006q31 82 -12.5 137t-128.5 60z" />
    <glyph glyph-name="ij" unicode="&#x133;" horiz-adv-x="1490" 
d="M754 1079q-44 -44 -108.5 -44t-108.5 44q-43 47 -43 110.5t43 106.5q44 44 108.5 44t108.5 -44q44 -43 44 -106.5t-44 -110.5zM1540 1079q-43 -44 -107 -44t-108 44q-44 47 -44 110.5t44 106.5q44 44 108 44t107 -44q44 -43 44 -106.5t-44 -110.5zM1436 731l-328 -811
q-34 -86 -84.5 -151t-107 -101.5t-113 -59t-114.5 -28.5t-98.5 -5.5t-76.5 5.5q-72 6 -141.5 42.5t-98.5 90.5q-35 62 -30.5 121t43.5 92q46 46 119 31q71 -18 83 -100q6 -21 -2 -50t-21 -57t-15 -35q-12 -36 3 -68t50 -42q76 -24 144 46t136 234l334 820q45 111 23 120
q-18 9 -80 -32q-74 -51 -111 -84l-51 -43l98 108q28 30 105 90q75 56 127 72q122 39 188 -27q65 -65 19 -178zM123 215l225 530q25 60 19 68l-11 6q-16 9 -77 -28q-66 -40 -115 -78l-53 -43q70 82 186 172q112 87 190 102q94 15 148 -45q52 -58 6 -172l-233 -563
q-28 -66 -7 -72q17 -8 80 33q65 41 117 84l53 45q-53 -58 -82 -88q-28 -31 -90 -84q-123 -102 -248 -102q-30 0 -58.5 13t-51 41.5t-23 73t24.5 107.5z" />
    <glyph glyph-name="Kcommaaccent" unicode="&#x136;" horiz-adv-x="1495" 
d="M911 1239l-409 -1014q-43 -106 12 -164q58 -58 148 -61h-787q85 5 170.5 66.5t122.5 154.5l412 1014q31 84 -5 139t-118 60h710q-78 0 -147.5 -49t-108.5 -146zM1100 768l164 -426q65 -168 131 -255t114 -87h-393q-41 53 -96 190l-189 467q-27 72 -122 37l575 453
q47 35 72.5 77t25 79t-16 68t-49 48t-75.5 15h621q-75 0 -248 -95q-172 -96 -354 -241l-130 -105q-106 -84 -30 -225zM729 -115q51 -8 81.5 -50.5t23.5 -96.5q-20 -129 -136 -238q-109 -104 -241 -151q94 43 180 129q90 90 108 162q-31 -10 -61 -5q-54 11 -83 53.5t-19 96.5
t53 82.5t94 17.5z" />
    <glyph glyph-name="kcommaaccent" unicode="&#x137;" horiz-adv-x="1050" 
d="M834 156q52 -13 97 1.5t66 41.5l19 24q-54 -142 -124 -201.5t-169 -46.5q-151 27 -172 273l-10 164q-4 71 -27 104q-21 35 -57 41l-228 -557h-247l481 1219q59 146 47 167q-13 30 -150 44l-45 2h498l-350 -859q152 47 207 -75q12 -24 28 -119q15 -95 45.5 -150t90.5 -73z
M1040 969q60 0 79 -49q18 -46 -13 -87q-32 -41 -94 -40q-168 -6 -289 -45q-63 -22 -120.5 -56t-82.5 -61l-22 -23q67 102 190 207q187 166 352 154zM569 -115q51 -8 81.5 -50.5t23.5 -96.5q-21 -130 -135 -238q-109 -103 -242 -151q95 42 182 129q92 92 109 162
q-39 -10 -64 -5q-54 11 -83 53.5t-19 96.5t53 82.5t94 17.5z" />
    <glyph glyph-name="Lacute" unicode="&#x139;" horiz-adv-x="1370" 
d="M764 1575l170 268q25 40 54.5 60.5t55 18.5t41.5 -24q12 -10 18 -25t4.5 -34.5t-20.5 -44t-55 -47.5zM492 190l423 1055q39 94 110 141.5t146 47.5h-710q81 -5 118 -60t3 -137l-412 -1016q-42 -98 -125 -158q-85 -60 -168 -63h1292l215 489q-85 -133 -350 -299
q-104 -70 -224 -112.5t-208 -42.5h-20q-71 0 -95.5 43t5.5 112z" />
    <glyph glyph-name="lacute" unicode="&#x13a;" horiz-adv-x="649" 
d="M614 1577l170 268q40 61 85.5 75.5t68.5 -19.5q12 -10 18 -25t4.5 -35t-20.5 -44.5t-55 -47.5zM338 223l493 1211h-512l37 -4q40 -2 83.5 -16.5t56.5 -33.5q16 -22 -21 -112l-401 -973q-62 -164 -33 -241t147 -77q119 -9 248 125q42 48 62 72l51 62l-45 -43
q-46 -43 -105 -84q-58 -40 -88 -37q-35 3 27 151z" />
    <glyph glyph-name="Lcommaaccent" unicode="&#x13b;" horiz-adv-x="1370" 
d="M1034 190q265 166 350 299l-215 -489h-1292q83 3 168 63q83 60 125 158l412 1016q34 82 -3 137t-118 60h710q-75 0 -146 -47.5t-110 -141.5l-423 -1055q-30 -69 -5.5 -112t95.5 -43h18h2q88 0 208 42.5t224 112.5zM586 -115q51 -8 81 -50.5t23 -96.5q-21 -132 -133 -238
q-109 -104 -244 -151q96 44 181 129q90 90 108 162q-35 -10 -59 -5q-54 7 -85 51.5t-20 98.5q10 53 53 82t95 18z" />
    <glyph glyph-name="lcommaaccent" unicode="&#x13c;" horiz-adv-x="649" 
d="M311 72q30 -3 88 37q59 41 105 84l45 43l-51 -62q-20 -24 -62 -72q-129 -134 -248 -125q-118 0 -147 77t33 241l401 973q37 90 21 112q-13 19 -56.5 33.5t-83.5 16.5l-37 4h512l-493 -1211q-62 -148 -27 -151zM90 -115q51 -8 81.5 -50.5t23.5 -96.5q-20 -129 -136 -238
q-109 -104 -241 -151q95 42 182 129q92 92 109 162q-39 -10 -64 -5q-54 11 -83 53.5t-19 96.5t53 82.5t94 17.5z" />
    <glyph glyph-name="Lcaron" unicode="&#x13d;" horiz-adv-x="1370" 
d="M1018 993q90 41 178 129q92 92 109 162q-33 -10 -60 -4q-54 11 -83 54t-19 98q-69 -6 -131 -54.5t-97 -132.5l-423 -1055q-30 -69 -5.5 -112t95.5 -43h18h2q88 0 208 42.5t224 112.5q265 166 350 299l-215 -489h-1292q83 3 168 63q83 60 125 158l412 1016q34 82 -3 137
t-118 60h682q11 51 53.5 79.5t91.5 16.5q51 -8 81.5 -51t23.5 -97q-21 -131 -133 -237q-110 -105 -242 -152z" />
    <glyph glyph-name="lcaron" unicode="&#x13e;" horiz-adv-x="808" 
d="M1057 1530q51 -7 81.5 -50.5t22.5 -97.5q-21 -131 -133 -237q-111 -105 -244 -152q96 44 181 129q90 90 108 162q-33 -10 -59 -4q-54 8 -84.5 52.5t-20.5 99.5q11 51 55 80.5t93 17.5zM311 72q30 -3 88 37q59 41 105 84l45 43l-51 -62q-20 -24 -62 -72
q-129 -134 -248 -125q-118 0 -147 77t33 241l401 973q37 90 21 112q-13 19 -56.5 33.5t-83.5 16.5l-37 4h512l-493 -1211q-62 -148 -27 -151z" />
    <glyph glyph-name="Ldot" unicode="&#x13f;" horiz-adv-x="1370" 
d="M915 1245l-423 -1055q-30 -69 -5.5 -112t95.5 -43h20q88 0 208 42.5t224 112.5q265 166 350 299l-215 -489h-1292q83 3 168 63q83 60 125 158l412 1016q34 82 -3 137t-118 60h710q-75 0 -146 -47.5t-110 -141.5zM1096 707q-32 -32 -80 -32t-80 32q-31 32 -31 79.5
t31 79.5q32 32 80 32t80 -32q35 -32 35 -79.5t-35 -79.5z" />
    <glyph glyph-name="ldot" unicode="&#x140;" horiz-adv-x="825" 
d="M831 1434l-493 -1211q-62 -148 -27 -151q30 -3 88 37q59 41 105 84l45 43l-51 -62q-20 -24 -62 -72q-129 -134 -248 -125q-118 0 -147 77t33 241l401 973q37 90 21 112q-13 19 -56.5 33.5t-83.5 16.5l-37 4h512zM803 674q-45 0 -78 32.5t-33 79.5t33 80t78 33
q49 0 83 -33t34 -80t-34 -79.5t-83 -32.5z" />
    <glyph glyph-name="Lslash" unicode="&#x141;" horiz-adv-x="1517" 
d="M1075 190q265 166 350 299l-215 -489h-1292q83 3 168 63q83 60 125 158l248 610h-15l-198 -51l14 23l201 51h6l156 383q34 82 -3 137t-118 60h710q-75 0 -146 -47.5t-110 -141.5l-141 -352l137 35l-10 -23l-135 -35l-275 -680q-30 -69 -5 -112t96 -43h18h2q88 0 208 42.5
t224 112.5z" />
    <glyph glyph-name="lslash" unicode="&#x142;" horiz-adv-x="727" 
d="M352 1434h514l-231 -568l145 31l-18 -39l-144 -31l-247 -604q-62 -148 -27 -151q30 -3 88 37q58 38 107 84l45 43q-7 -7 -52 -62q-46 -57 -61 -72q-50 -52 -117 -91t-133 -34q-237 0 -115 318l193 467l-80 -17l-24 29l120 25l193 469q36 89 20 112q-13 19 -56.5 33.5
t-82.5 16.5z" />
    <glyph glyph-name="Nacute" unicode="&#x143;" horiz-adv-x="1546" 
d="M1212 1575l170 268q40 61 85.5 75t68.5 -20q11 -11 17 -25.5t4.5 -34t-20.5 -44t-54 -47.5zM2015 1436h-590q130 -3 189 -99q57 -89 4 -223l-211 -520q-29 -69 -47 -93.5t-35 -19.5q-20 6 -55 86l-350 867h-525q104 -3 156 -111q56 -109 10 -215l-299 -735
q-86 -211 -203 -289q-97 -63 -204 -84h573q-264 58 -141 362l282 697q25 61 43 85t37 19q11 -3 25.5 -22.5t21.5 -42.5l25 -62l446 -1095l475 1165q71 174 175 250q109 77 198 80z" />
    <glyph glyph-name="nacute" unicode="&#x144;" horiz-adv-x="1261" 
d="M795 1053l170 268q25 40 55 60.5t55.5 19t42.5 -22.5q12 -10 17.5 -25.5t3.5 -35.5t-21.5 -44.5t-54.5 -47.5zM995 96q-34 6 13 140l141 346q50 117 44.5 198.5t-43.5 127t-103 59.5q-110 26 -235 -55t-234 -253q47 58 95 97.5t86 56t70.5 20t53 -6t28.5 -27.5
q19 -45 7 -101q-12 -57 -64 -184l-115 -285q-34 -121 -3.5 -175t116.5 -54q119 0 221 92q35 28 70 66q29 29 31 32q13 12 30 35q14 18 27 31l-43 -43q-52 -45 -105 -82q-56 -39 -88 -35zM588 735q27 67 26 117t-37.5 77t-103.5 19q-137 -15 -358 -270l41 35q40 37 94 65
q54 31 78 19q19 -9 -27 -115l-262 -682h264z" />
    <glyph glyph-name="Ncommaaccent" unicode="&#x145;" horiz-adv-x="1546" 
d="M1425 1436h590q-89 -3 -198 -80q-104 -76 -175 -250l-475 -1165l-446 1095l-25 62q-7 23 -21.5 42.5t-25.5 22.5q-19 5 -37 -19t-43 -85l-282 -697q-123 -304 141 -362h-573q107 21 204 84q117 78 203 289l299 735q46 106 -10 215q-52 108 -156 111h525l350 -867
q35 -80 55 -86q17 -5 35 19.5t47 93.5l211 520q53 134 -4 223q-59 96 -189 99zM649 -115q51 -8 81.5 -50.5t23.5 -96.5q-21 -132 -133 -238q-109 -103 -242 -151q90 41 178 129q92 92 109 162q-35 -11 -60 -5q-54 11 -83 53.5t-19 96.5q7 51 50.5 81t94.5 19z" />
    <glyph glyph-name="ncommaaccent" unicode="&#x146;" horiz-adv-x="1261" 
d="M995 96q32 -4 88 35q53 37 105 82l43 43q-13 -13 -27 -31q-17 -23 -30 -35q-2 -3 -31 -32q-35 -38 -70 -66q-102 -92 -221 -92q-86 0 -116.5 54t3.5 175l115 285q52 127 64 184q12 56 -7 101q-8 18 -28.5 27.5t-53 6t-70.5 -20t-86 -56t-95 -97.5q109 172 234 253t235 55
q65 -14 103 -59.5t43.5 -127t-44.5 -198.5l-141 -346q-47 -134 -13 -140zM303 0h-264l262 682q46 106 27 115q-24 12 -78 -19q-54 -28 -94 -65l-41 -35q221 255 358 270q67 8 103.5 -19t37.5 -77t-26 -117zM535 -115q51 -8 81 -50.5t23 -96.5q-21 -130 -135 -238
q-109 -103 -242 -151q95 42 182 129q92 92 109 162q-39 -10 -64 -5q-54 11 -83 53.5t-19 96.5q10 53 53 82t95 18z" />
    <glyph glyph-name="Ncaron" unicode="&#x147;" horiz-adv-x="1546" 
d="M1118 1827l160 -189l289 189l-256 -283h-140zM2015 1436h-590q130 -3 189 -99q57 -89 4 -223l-211 -520q-29 -69 -47 -93.5t-35 -19.5q-20 6 -55 86l-350 867h-525q104 -3 156 -111q56 -109 10 -215l-299 -735q-86 -211 -203 -289q-97 -63 -204 -84h573q-264 58 -141 362
l282 697q25 61 43 85t37 19q11 -3 25.5 -22.5t21.5 -42.5l25 -62l446 -1095l475 1165q71 174 175 250q109 77 198 80z" />
    <glyph glyph-name="ncaron" unicode="&#x148;" horiz-adv-x="1261" 
d="M721 1335l160 -188l286 188l-254 -282h-139zM995 96q-34 6 13 140l141 346q50 117 44.5 198.5t-43.5 127t-103 59.5q-110 26 -235 -55t-234 -253q47 58 95 97.5t86 56t70.5 20t53 -6t28.5 -27.5q19 -45 7 -101q-12 -57 -64 -184l-115 -285q-34 -121 -3.5 -175t116.5 -54
q119 0 221 92q35 28 70 66q29 29 31 32q13 12 30 35q14 18 27 31l-43 -43q-52 -45 -105 -82q-56 -39 -88 -35zM588 735q27 67 26 117t-37.5 77t-103.5 19q-137 -15 -358 -270l41 35q40 37 94 65q54 31 78 19q19 -9 -27 -115l-262 -682h264z" />
    <glyph glyph-name="Eng" unicode="&#x14a;" horiz-adv-x="1628" 
d="M1397 1436h590q-90 -3 -199 -80q-102 -75 -174 -250l-475 -1165v2l-2 -4q-29 -71 -67.5 -128.5t-79 -94t-86.5 -62t-87 -38t-83.5 -18t-74 -4.5t-59.5 5q-64 6 -125.5 38t-91.5 80q-29 56 -26 110t36 81q44 44 109 29q67 -15 76 -89q4 -21 -2 -44.5t-19 -52t-14 -32.5
q-11 -31 2 -59.5t45 -38.5q143 -43 272 270l148 367l-318 778q-50 124 -71 127q-19 5 -37 -19t-43 -85l-283 -697q-123 -304 141 -362h-573q59 12 103.5 30t99.5 54q116 74 204 289l299 735q46 109 -10 217q-52 106 -157 109h524l352 -867q35 -80 55 -86q19 -5 36.5 20
t43.5 93l213 520q53 134 -4 223q-59 96 -188 99zM1278 289v-2l2 8z" />
    <glyph glyph-name="eng" unicode="&#x14b;" horiz-adv-x="1288" 
d="M1051 905q207 -50 96 -360l-37 -94l-203 -512q-27 -71 -65 -127.5t-78 -93t-86 -62.5t-87.5 -38.5t-84 -18.5t-74 -5t-59.5 5q-66 6 -126.5 38t-88.5 80q-30 56 -26.5 110t36.5 81q44 44 106 29q67 -15 76 -89q4 -21 -2 -44.5t-19 -52t-14 -32.5q-8 -32 4 -60t43 -38
q142 -45 271 270l180 445l59 147q52 127 60 172q12 52 -6 95q-8 15 -27.5 23.5t-50 5.5t-66 -18t-80.5 -52t-90 -91q102 160 220 236t219 51zM354 0h-254l254 653q40 107 25 113q-23 10 -73 -17t-95 -65l-39 -35q92 108 185.5 180.5t158.5 79.5q96 12 126.5 -48.5
t-13.5 -153.5z" />
    <glyph glyph-name="Omacron" unicode="&#x14c;" horiz-adv-x="1738" 
d="M1112 1642l8 15l404 2l-8 -17h-404zM1513 1423q86 -31 147 -108.5t87 -190.5q27 -115 -1.5 -271t-111.5 -323q-85 -171 -230.5 -306.5t-313.5 -205.5q-162 -71 -344.5 -69.5t-321.5 84.5q-119 67 -160 231q-41 167 12 373q53 209 185 391q211 285 504 387q288 100 548 8z
M1280 1446q-129 15 -274 -115q-148 -132 -285 -459q-82 -193 -114.5 -393.5t-2.5 -341.5t121 -160q130 -35 283 115t284 526q73 211 102.5 392t2 302.5t-116.5 133.5z" />
    <glyph glyph-name="omacron" unicode="&#x14d;" horiz-adv-x="1077" 
d="M487 1106l9 14l403 2l-8 -16h-404zM649 967q60 6 118 -1.5t112 -32.5t93.5 -65.5t61.5 -104.5t17 -145q-9 -205 -121 -370q-108 -164 -271 -234q-168 -72 -325 -39q-113 24 -176 115.5t-58 206.5q3 105 39 225q43 121 108.5 211t139.5 135q135 87 262 99zM662 938
q-71 -35 -137.5 -154t-108.5 -282q-69 -278 -41 -418q15 -81 69 -90q92 -15 191 166q99 180 153 471q34 165 3 256q-34 101 -129 51z" />
    <glyph glyph-name="Ohungarumlaut" unicode="&#x150;" horiz-adv-x="1738" 
d="M1116 1604l170 268q25 40 55 60.5t55.5 18.5t41.5 -24q12 -10 18 -25t4.5 -34.5t-21 -44t-55.5 -47.5zM1362 1604l170 268q25 40 55 60.5t56 18.5t43 -24q12 -10 17.5 -25t3 -34.5t-22 -44t-54.5 -47.5zM1513 1423q-260 92 -548 -8q-293 -102 -504 -387
q-132 -182 -185 -391q-53 -206 -12 -373q41 -164 160 -231q139 -83 321.5 -84.5t344.5 69.5q168 70 313.5 205.5t230.5 306.5q83 167 111.5 323t1.5 271q-26 113 -87 190.5t-147 108.5zM1280 1446q89 -12 116.5 -133.5t-2 -302.5t-102.5 -392q-131 -376 -284 -526t-283 -115
q-91 19 -121 160t2.5 341.5t114.5 393.5q137 327 285 459q145 130 274 115z" />
    <glyph glyph-name="ohungarumlaut" unicode="&#x151;" horiz-adv-x="1077" 
d="M598 1055l170 268q40 61 85.5 75t68.5 -20q12 -10 17.5 -25t3 -34.5t-22 -44t-54.5 -47.5zM846 1055l170 268q40 61 85 75t68 -20q11 -11 17 -25.5t4.5 -34t-20.5 -44t-54 -47.5zM649 967q60 6 118 -1.5t112 -32.5t93.5 -65.5t61.5 -104.5t17 -145q-9 -205 -121 -370
q-108 -164 -271 -234q-168 -72 -325 -39q-113 24 -176 115.5t-58 206.5q3 105 39 225q43 121 108.5 211t139.5 135q135 87 262 99zM662 938q-71 -35 -137.5 -154t-108.5 -282q-69 -278 -41 -418q15 -81 69 -90q92 -15 191 166q99 180 153 471q34 165 3 256q-34 101 -129 51z
" />
    <glyph glyph-name="OE" unicode="&#x152;" horiz-adv-x="2443" 
d="M1980 176q240 127 359 299l-195 -485h-1165q-71 0 -209 -15q-137 -15 -231 -6t-203 62q-83 35 -139.5 114.5t-77.5 185.5t-13.5 224.5t51 242.5t117.5 228q310 469 842 428q20 -1 104.5 -10.5t163.5 -9.5h1033l30 -486l-34 70q-19 42 -89 137q-65 88 -133 137
q-103 69 -194 94q-89 24 -213 27l-260 -651h63q342 0 484 244l-232 -615q12 41 5 96.5t-29 114.5q-21 58 -87.5 97.5t-156.5 39.5h-58l-241 -606q-20 -53 1 -85t73 -32h61q282 0 573 160zM629 4q120 -37 231 74q38 36 88 127q52 95 78 162q14 30 102 254q42 107 74 180
q61 148 109 274q67 183 4 276t-246 79q-93 -3 -242 -107q-81 -57 -158.5 -175.5t-131.5 -275.5q-96 -296 -66 -565q30 -268 158 -303z" />
    <glyph glyph-name="oe" unicode="&#x153;" horiz-adv-x="1503" 
d="M1368 967q79 -10 136 -58.5t67 -122t-58 -163.5q-106 -131 -292 -158q-75 -10 -131 -14q-27 -2 -111 -2q214 21 364 221q32 40 55 95t22 101t-36 54q-76 21 -192 -72q-113 -87 -182 -223q-31 -59 -46.5 -130t-13 -138t33.5 -119.5t89 -69.5q60 -18 112.5 -14.5t94 17.5
t75.5 36.5t56.5 42.5t37.5 35q1 2 2.5 3.5l2.5 2.5l6 10q-49 -93 -67 -121q-169 -231 -447 -190q-133 18 -203 155q-103 -105 -232.5 -150.5t-256.5 -19.5q-82 18 -133 76.5t-66 138.5t-7.5 167t36.5 171q42 119 105.5 209t134.5 135q125 86 245 95q114 12 208.5 -31
t137.5 -137q99 98 221.5 139t231.5 29zM365 -6q79 -18 174 164q97 187 149 465q52 257 -26 315q-34 23 -82 0q-132 -65 -226 -428q-36 -150 -47 -231q-15 -102 -2 -191q12 -85 60 -94z" />
    <glyph glyph-name="Racute" unicode="&#x154;" horiz-adv-x="1443" 
d="M1393 1898q11 -11 16.5 -25.5t4 -34t-20.5 -44t-54 -47.5l-270 -172l170 268q40 61 85.5 75t68.5 -20zM1513 999q-82 -253 -458 -315l4 -2q75 -37 127 -178l76 -205q59 -160 102 -215q54 -66 123 -84h-412q-40 34 -92 182l-115 342q-35 105 -72.5 145.5t-101.5 53.5
l-202 -500q-46 -106 2 -166q48 -57 124 -57h-722q66 0 155 59q91 64 131 166l406 1014q32 78 -5.5 134t-117.5 61h665q83 0 151 -18.5t114.5 -50t78.5 -74t45.5 -91t12 -100t-18.5 -101.5zM1223 1030q24 59 28 123t-14 123t-73.5 98t-143.5 41h-43l-275 -672q68 -8 168 9
q143 26 224 91.5t129 186.5z" />
    <glyph glyph-name="racute" unicode="&#x155;" horiz-adv-x="972" 
d="M729 1053l172 268q37 61 82.5 76t69.5 -19q12 -10 17.5 -25.5t4 -35.5t-21 -44.5t-54.5 -47.5zM627 713l10 16q38 63 90 117q116 125 252 119q91 2 122 -67q24 -55 -3 -111q-28 -58 -86 -57q-12 0 -25 3q-46 6 -72 43q-25 35 -49 45q-102 41 -239 -108zM358 766
l-311 -766h275l305 750q22 61 22 96q0 78 -78 102q-78 28 -141 -12q-45 -20 -151 -109q-104 -90 -162 -157l47 39q39 34 104 79q59 41 80 41q33 0 10 -63z" />
    <glyph glyph-name="Rcommaaccent" unicode="&#x156;" horiz-adv-x="1443" 
d="M1513 999q-82 -253 -458 -315l4 -2q75 -37 127 -178l76 -205q59 -160 102 -215q54 -66 123 -84h-412q-40 34 -92 182l-115 342q-35 105 -72.5 145.5t-101.5 53.5l-202 -500q-46 -106 2 -166q48 -57 124 -57h-722q66 0 155 59q91 64 131 166l406 1014q32 78 -5.5 134
t-117.5 61h665q83 0 151 -18.5t114.5 -50t78.5 -74t45.5 -91t12 -100t-18.5 -101.5zM1223 1030q24 59 28 123t-14 123t-73.5 98t-143.5 41h-43l-275 -672q68 -8 168 9q143 26 224 91.5t129 186.5zM1006 -115q51 -8 82 -50.5t24 -96.5q-21 -130 -135 -238
q-109 -103 -242 -151q94 43 180 129q92 92 109 162q-38 -10 -61 -5q-54 11 -83.5 53.5t-19.5 96.5t52.5 82.5t93.5 17.5z" />
    <glyph glyph-name="rcommaaccent" unicode="&#x157;" horiz-adv-x="972" 
d="M979 965q91 2 122 -67q24 -55 -3 -111q-28 -58 -86 -57q-12 0 -25 3q-46 6 -72 43q-25 35 -49 45q-102 41 -239 -108q35 59 100 133q116 125 252 119zM649 846q0 -35 -22 -96l-305 -750h-275l311 766q23 63 -10 63q-21 0 -80 -41q-65 -45 -104 -79l-47 -39q58 67 162 157
q106 89 151 109q63 40 141 12q78 -24 78 -102zM123 -115q51 -8 81 -50.5t23 -96.5q-21 -132 -133 -238q-109 -104 -241 -151q90 41 178 129q90 90 108 162q-35 -10 -59 -5q-54 11 -83.5 53.5t-19.5 96.5q7 51 51 81t95 19z" />
    <glyph glyph-name="Rcaron" unicode="&#x158;" horiz-adv-x="1443" 
d="M1434 1827l-254 -283h-142l-53 283l162 -189zM1513 999q-82 -253 -458 -315l4 -2q75 -37 127 -178l76 -205q59 -160 102 -215q54 -66 123 -84h-412q-40 34 -92 182l-115 342q-35 105 -72.5 145.5t-101.5 53.5l-202 -500q-46 -106 2 -166q48 -57 124 -57h-722q66 0 155 59
q91 64 131 166l406 1014q32 78 -5.5 134t-117.5 61h665q83 0 151 -18.5t114.5 -50t78.5 -74t45.5 -91t12 -100t-18.5 -101.5zM1223 1030q24 59 28 123t-14 123t-73.5 98t-143.5 41h-43l-275 -672q68 -8 168 9q143 26 224 91.5t129 186.5z" />
    <glyph glyph-name="rcaron" unicode="&#x159;" horiz-adv-x="972" 
d="M629 1335l162 -188l286 188l-254 -282h-141zM627 713l10 16q38 63 90 117q116 125 252 119q91 2 122 -67q24 -55 -3 -111q-28 -58 -86 -57q-12 0 -25 3q-46 6 -72 43q-25 35 -49 45q-102 41 -239 -108zM358 766l-311 -766h275l305 750q22 61 22 96q0 78 -78 102
q-78 28 -141 -12q-45 -20 -151 -109q-104 -90 -162 -157l47 39q39 34 104 79q59 41 80 41q33 0 10 -63z" />
    <glyph glyph-name="Sacute" unicode="&#x15a;" horiz-adv-x="1261" 
d="M1049 1575l170 268q40 61 85 75t68 -20q11 -11 17 -25.5t4.5 -34t-20.5 -44t-54 -47.5zM1425 1290l-165 -293q3 76 -52 217q-53 136 -166 191q-153 74 -251 -14q-95 -89 -80 -263q1 -23 24 -94q6 -15 30.5 -46.5t25.5 -33.5q3 -6 14.5 -17.5l22 -22t22.5 -22t14 -13.5
l43 -41l45 -39q57 -49 92.5 -88t71.5 -95q45 -64 60 -112q20 -51 16 -123t-35 -137q-52 -110 -182 -181q-126 -69 -258 -75q-341 -15 -563 149q-52 40 -99 92l211 396v-52q-2 -56 11 -139.5t38 -146.5q46 -110 156 -197q113 -84 242 -84q92 0 147 46t60 112q3 64 0 123
q-7 53 -39.5 109t-69.5 93q-39 39 -94 86l-86 76q-111 104 -161 198.5t-48 174t45 166.5q73 150 219 209q143 61 313 55q79 -4 155 -22.5t108 -34.5q10 -4 77 -41q57 -33 86 -66z" />
    <glyph glyph-name="sacute" unicode="&#x15b;" horiz-adv-x="929" 
d="M690 1053l170 268q27 41 57 61t55 18.5t42 -22.5q12 -10 18 -25.5t4 -35.5t-21 -44.5t-54 -47.5zM635 971q-316 -18 -354 -234q-21 -116 86 -284q1 -2 11 -17.5t18.5 -30t11.5 -20.5q17 -22 34 -66q39 -66 39 -120q8 -101 -38 -160.5t-138 -58.5q-80 3 -117 61
q-34 61 0 119q15 29 60 51q43 20 59 74q17 53 -18.5 94t-93.5 39q-82 -2 -133.5 -66.5t-41.5 -154.5q12 -102 84 -160t177 -66q189 -18 329 49q141 71 144 238q0 49 -18 101t-40 87q-19 38 -61 99l-49 71q-15 36 -33 58q-22 64 -29 90q-11 55 17 123q30 67 98 76
q55 6 93.5 -29t33.5 -86q-3 -35 -37 -78q-33 -42 -33 -74q-2 -39 37 -68.5t86 -25.5q55 6 87 49.5t30 100.5q-1 103 -85 163.5t-216 55.5z" />
    <glyph glyph-name="Scedilla" unicode="&#x15e;" horiz-adv-x="1423" 
d="M1456 1290l-166 -293q3 79 -51 217q-53 136 -166 191q-154 74 -252 -14q-95 -89 -80 -263q1 -20 25 -94q6 -15 30 -46.5t25 -33.5q4 -7 19.5 -22.5t34.5 -33.5t20 -19l43 -41l45 -39q57 -49 92.5 -88t71.5 -95q43 -62 59 -112q20 -51 16.5 -123t-34.5 -137
q-52 -110 -182 -181q-126 -69 -258 -75q-342 -15 -564 149q-49 37 -98 92l211 396l-2 -52q0 -58 13.5 -141t37.5 -145q46 -110 156 -197q113 -84 241 -84q92 0 147 46t60 112q3 64 0 123q-7 53 -39 109t-69 93q-39 39 -94 86l-86 76q-111 104 -161 198.5t-48 174t45 166.5
q73 150 219 209q143 61 313 55q79 -4 154.5 -22t107.5 -35q15 -7 78 -41q57 -33 86 -66zM541 -8l-150 -131q62 -5 89.5 -34t0.5 -85q-26 -55 -81.5 -81t-107 -23.5t-87.5 20.5q18 -32 65.5 -46.5t103 -8.5t113.5 42.5t93 98.5q17 29 21 57t-5 52t-38 40t-75 19l80 88z" />
    <glyph glyph-name="scedilla" unicode="&#x15f;" horiz-adv-x="929" 
d="M936 752q2 -57 -30 -100.5t-87 -49.5q-47 -4 -86 25.5t-37 68.5q0 32 33 74q34 43 37 78q5 51 -33.5 86t-93.5 29q-68 -9 -98 -76q-28 -68 -17 -123q7 -26 29 -90q18 -22 33 -58l49 -71q42 -61 61 -99q22 -35 40 -87t18 -101q-3 -155 -123 -225q-122 -72 -293 -66
l-55 -55q61 -4 91 -30.5t29 -62t-24 -75.5q-35 -62 -92.5 -98.5t-113 -42.5t-103 8.5t-66.5 46.5q36 -18 88 -20.5t107.5 23.5t81.5 81q27 56 -1 85t-90 34l136 106q-5 0 -23 2t-22 2q-105 8 -177 66t-84 160q-10 90 41.5 154.5t133.5 66.5q58 2 93.5 -39t18.5 -94
q-16 -54 -59 -74q-45 -22 -60 -51q-34 -58 0 -119q37 -58 117 -61q92 -1 138 58.5t38 160.5q0 54 -39 120q-17 44 -34 66q-3 6 -11.5 20.5t-18.5 30t-11 17.5q-107 168 -86 284q38 216 354 234q132 5 216 -55.5t85 -163.5z" />
    <glyph glyph-name="Scaron" unicode="&#x160;" horiz-adv-x="1261" 
d="M961 1827l161 -189l287 189l-254 -283h-139zM1425 1290l-165 -293q3 76 -52 217q-53 136 -166 191q-151 74 -249 -14q-97 -87 -82 -263q1 -23 24 -94q6 -15 30.5 -46.5t25.5 -33.5q3 -6 14.5 -17.5l22 -22t22.5 -22t14 -13.5l43 -41l45 -39q57 -49 92.5 -88t71.5 -95
q45 -64 60 -112q20 -51 16 -123t-35 -137q-52 -110 -182 -181q-126 -69 -258 -75q-341 -15 -563 149q-52 40 -99 92l211 396v-52q-2 -56 11 -139.5t38 -146.5q47 -111 158 -197q113 -84 240 -84q60 0 103.5 18.5t65 48.5t34 67.5t10 75t-5.5 71.5q-7 53 -39.5 109t-69.5 93
q-39 39 -94 86l-86 76q-110 102 -160 197.5t-47.5 175t43.5 166.5q73 150 219 209q143 61 313 55q79 -4 155 -22.5t108 -34.5q10 -4 77 -41q57 -33 86 -66z" />
    <glyph glyph-name="scaron" unicode="&#x161;" horiz-adv-x="929" 
d="M528 1335l160 -188l289 188l-256 -282h-139zM635 971q-316 -18 -354 -234q-21 -116 86 -284q1 -2 11 -17.5t18.5 -30t11.5 -20.5q17 -22 34 -66q39 -66 39 -120q8 -101 -38 -160.5t-138 -58.5q-80 3 -117 61q-34 61 0 119q15 29 60 51q43 20 59 74q17 53 -18.5 94
t-93.5 39q-82 -2 -133.5 -66.5t-41.5 -154.5q12 -102 84 -160t177 -66q189 -18 329 49q141 71 144 238q0 49 -18 101t-40 87q-19 38 -61 99l-49 71q-15 36 -33 58q-22 64 -29 90q-11 55 17 123q30 67 98 76q55 6 93.5 -29t33.5 -86q-3 -35 -37 -78q-33 -42 -33 -74
q-2 -39 37 -68.5t86 -25.5q55 6 87 49.5t30 100.5q-1 103 -85 163.5t-216 55.5z" />
    <glyph glyph-name="uni0162" unicode="&#x162;" horiz-adv-x="1562" 
d="M434 1434h1290l-2 -371l-18 41q-9 27 -59 92q-49 67 -113 119q-118 92 -244 92h-37q-8 -29 -30 -82l-445 -1098q-38 -95 11 -158.5t155 -68.5h-821q84 0 182 61q99 64 139 166l447 1096q10 22 17 43t8.5 31t0.5 10h-49q-150 0 -327 -104q-72 -45 -136 -101
q-60 -52 -106 -102l-37 -41zM393 -139l148 131l22 8l-78 -88q44 -3 73.5 -19t39.5 -40t5.5 -52.5t-23.5 -56.5q-35 -62 -92.5 -98.5t-113 -42.5t-103 8.5t-66.5 46.5q36 -18 87.5 -20.5t107 23.5t81.5 81q27 56 -0.5 85t-87.5 34z" />
    <glyph glyph-name="uni0163" unicode="&#x163;" horiz-adv-x="702" 
d="M780 901h-137l-289 -717q-34 -85 -14 -92q28 -12 94 33q64 42 125 100l55 54q-4 -4 -12.5 -15t-23.5 -30t-29 -37q-60 -73 -82 -99q-37 -39 -91 -74t-100 -40q-6 -2 -26 -2l-64 -70q46 -3 75 -19t38 -40t5 -52t-21 -57q-35 -62 -93 -98.5t-114 -42.5t-103 8.5t-65 46.5
q26 -14 63.5 -18t77.5 2.5t77 32.5t56 67q29 56 1.5 85t-89.5 34l137 121q-33 1 -61 10t-51.5 30t-35 51t-7.5 77t28 106l267 645h-99l-16 21h123l72 176l342 176l-142 -352h150z" />
    <glyph glyph-name="Tcaron" unicode="&#x164;" horiz-adv-x="1562" 
d="M999 1827l160 -189l289 189l-256 -283h-139zM1724 1434h-1290l-174 -375l37 41q46 50 106 102q64 56 136 101q177 104 327 104h49q1 0 -0.5 -10t-8.5 -31t-17 -43l-447 -1096q-40 -102 -139 -166q-98 -61 -182 -61h821q-106 5 -155 68.5t-11 158.5l445 1098q22 53 30 82
h37q126 0 244 -92q64 -52 113 -119q50 -65 59 -92l18 -41z" />
    <glyph glyph-name="tcaron" unicode="&#x165;" horiz-adv-x="702" 
d="M1071 1530q51 -8 81.5 -51t23.5 -97q-20 -127 -136 -237q-111 -105 -241 -152q95 42 182 129q92 92 109 162q-36 -10 -64 -4q-54 11 -83 54t-19 98q11 51 54.5 80.5t92.5 17.5zM451 1098l342 176l-142 -352h150l-21 -21h-137l-289 -717q-34 -85 -14 -92q28 -12 94 33
q64 42 125 100l55 54q-4 -4 -12.5 -15t-23.5 -30t-29 -37q-60 -73 -82 -99q-37 -39 -91 -74t-100 -40q-106 -15 -172 51q-65 65 0 221l267 645h-99l-16 21h123z" />
    <glyph glyph-name="Tbar" unicode="&#x166;" horiz-adv-x="1562" 
d="M934 1608l8 14l404 2l-9 -16h-403zM434 1434h1290l-2 -371l-18 41q-9 27 -59 92q-49 67 -113 119q-118 92 -244 92h-37q-8 -29 -30 -82l-445 -1098q-38 -95 11 -158.5t155 -68.5h-821q84 0 182 61q99 64 139 166l447 1096q10 22 17 43t8.5 31t0.5 10h-49
q-150 0 -327 -104q-72 -45 -136 -101q-60 -52 -106 -102l-37 -41z" />
    <glyph glyph-name="tbar" unicode="&#x167;" horiz-adv-x="702" 
d="M780 901h-137l-289 -717q-34 -85 -14 -92q28 -12 94 33q64 42 125 100l55 54q-4 -4 -12.5 -15t-23.5 -30t-29 -37q-60 -73 -82 -99q-37 -39 -91 -74t-100 -40q-106 -15 -172 51q-65 65 0 221l267 645h-99l-16 21h123l72 176l16 8h-123l8 14h144l297 154l-62 -152h25
l-8 -16h-23l-74 -184h150z" />
    <glyph glyph-name="Umacron" unicode="&#x16a;" horiz-adv-x="1439" 
d="M1120 1608l8 14l404 2l-8 -16h-404zM1407 1434h567q-66 0 -133.5 -36t-138.5 -123.5t-123 -217.5l-209 -527q-52 -132 -103.5 -221.5t-123.5 -169.5q-147 -159 -400 -159q-156 0 -266.5 63t-161.5 172q-95 219 31 533l170 426q103 257 -98 260h745q-218 0 -291 -193
l-237 -598q-90 -259 -39 -407q54 -153 203 -168q189 -21 317 98q132 123 250 422l188 475q70 177 30.5 271.5t-177.5 99.5z" />
    <glyph glyph-name="umacron" unicode="&#x16b;" horiz-adv-x="1212" 
d="M573 1106l9 14l403 2l-8 -16h-404zM317 842q-16 9 -71 -31q-70 -51 -103 -82l-45 -43l74 84q21 24 78 78q103 100 205 100q54 0 89.5 -26.5t45.5 -78.5t-17 -130q-56 -142 -112 -297q-68 -189 -68 -230q0 -27 13 -43q9 -16 24.5 -25t41 -8t56.5 15.5t73 51.5t87 93
q-86 -161 -196.5 -234t-217.5 -48q-212 50 -110 364l141 381q28 91 23 101q-2 3 -11 8zM1210 922l-270 -748q-27 -75 -8 -78q25 -6 76 33q56 43 94 84l41 45l-39 -51q-39 -56 -49 -68q-3 -3 -20.5 -22t-33.5 -35q-49 -52 -99 -75.5t-118 -26.5q-71 5 -106.5 68t-1.5 151
l266 723h268z" />
    <glyph glyph-name="Uring" unicode="&#x16e;" horiz-adv-x="1439" 
d="M1235 1692q0 51 35 88t86 37q55 0 89.5 -34.5t33.5 -90.5q-2 -50 -38 -86.5t-85 -36.5t-85 36.5t-36 86.5zM1294 1628q26 -26 63.5 -26t63.5 26q26 29 26 66t-26 63q-26 29 -63.5 29t-63.5 -29q-26 -26 -26 -63t26 -66zM1407 1434h567q-66 0 -133.5 -36t-138.5 -123.5
t-123 -217.5l-209 -527q-52 -132 -103.5 -221.5t-123.5 -169.5q-147 -159 -400 -159q-156 0 -266.5 63t-161.5 172q-95 219 31 533l170 426q103 257 -98 260h745q-218 0 -291 -193l-237 -598q-90 -259 -39 -407q54 -153 203 -168q189 -21 317 98q132 123 250 422l188 475
q70 177 30.5 271.5t-177.5 99.5z" />
    <glyph glyph-name="uring" unicode="&#x16f;" horiz-adv-x="1212" 
d="M831 1049q-49 0 -84.5 36t-35.5 86q0 51 34.5 88t85.5 37q56 0 91 -34.5t34 -90.5q-2 -50 -38 -86t-87 -36zM834 1081q34 -1 57 18t28.5 47t0 55.5t-28.5 46.5t-57 18q-37 0 -64 -27.5t-27 -64.5t27 -65t64 -28zM317 842q-16 9 -71 -31q-70 -51 -103 -82l-45 -43l74 84
q21 24 78 78q103 100 205 100q54 0 89.5 -26.5t45.5 -78.5t-17 -130q-56 -142 -112 -297q-68 -189 -68 -230q0 -27 13 -43q9 -16 24.5 -25t41 -8t56.5 15.5t73 51.5t87 93q-86 -161 -196.5 -234t-217.5 -48q-212 50 -110 364l141 381q28 91 23 101q-2 3 -11 8zM1210 922
l-270 -748q-27 -75 -8 -78q25 -6 76 33q56 43 94 84l41 45l-39 -51q-39 -56 -49 -68q-3 -3 -20.5 -22t-33.5 -35q-49 -52 -99 -75.5t-118 -26.5q-71 5 -106.5 68t-1.5 151l266 723h268z" />
    <glyph glyph-name="Uhungarumlaut" unicode="&#x170;" horiz-adv-x="1439" 
d="M1102 1544l170 268q37 61 83.5 75.5t69.5 -19.5q12 -10 17.5 -25t3.5 -35t-21.5 -44.5t-54.5 -47.5zM1348 1544l170 268q40 61 85 75.5t68 -19.5q11 -11 17 -25.5t4.5 -34.5t-20.5 -44.5t-54 -47.5zM1974 1434h-567q138 -5 177.5 -99.5t-30.5 -271.5l-188 -475
q-118 -299 -250 -422q-128 -119 -317 -98q-149 15 -203 168q-51 148 39 407l237 598q73 193 291 193h-745q201 -3 98 -260l-170 -426q-126 -314 -31 -533q51 -109 161.5 -172t266.5 -63q253 0 400 159q72 80 123.5 169.5t103.5 221.5l209 527q52 130 123 217.5t138.5 123.5
t133.5 36z" />
    <glyph glyph-name="uhungarumlaut" unicode="&#x171;" horiz-adv-x="1212" 
d="M639 1055l170 268q40 61 85.5 75t68.5 -20q11 -11 16.5 -25.5t4 -34t-20.5 -44t-54 -47.5zM887 1055l172 268q25 40 54.5 60.5t55 18.5t41.5 -24q12 -10 18 -25t4.5 -34.5t-20.5 -44t-55 -47.5zM317 842q9 -5 11 -8q5 -10 -23 -101l-141 -381q-102 -314 110 -364
q107 -25 217.5 48t196.5 234q-45 -56 -87 -93t-73 -51.5t-56.5 -15.5t-41 8t-24.5 25q-13 16 -13 43q0 41 68 230q56 155 112 297q27 78 17 130t-45.5 78.5t-89.5 26.5q-102 0 -205 -100q-57 -54 -78 -78l-74 -84l45 43q33 31 103 82q55 40 71 31zM940 174l270 748h-268
l-266 -723q-34 -88 1.5 -151t106.5 -68q68 3 118 26.5t99 75.5q16 16 33.5 35t20.5 22q10 12 49 68l39 51l-41 -45q-38 -41 -94 -84q-51 -39 -76 -33q-19 3 8 78z" />
    <glyph glyph-name="Uogonek" unicode="&#x172;" horiz-adv-x="1439" 
d="M1407 1434h567q-66 0 -133.5 -36t-138.5 -123.5t-123 -217.5l-209 -527q-98 -251 -219.5 -382.5t-306.5 -161.5q-154 -83 -172 -183q-15 -74 43 -114q59 -44 133 -11q-63 -43 -133.5 -44t-119 38.5t-50.5 104.5q-3 131 119 207q-262 35 -349 231q-95 219 31 533l170 426
q103 257 -98 260h745q-218 0 -291 -193l-237 -598q-90 -259 -39 -407q54 -153 203 -168q189 -21 317 98q132 123 250 422l188 475q70 177 30.5 271.5t-177.5 99.5z" />
    <glyph glyph-name="uogonek" unicode="&#x173;" horiz-adv-x="1212" 
d="M338 -18q-144 -82 -162 -179q-15 -74 43 -114q59 -44 133 -11q-94 -64 -196 -34q-98 30 -107 133q-6 72 31.5 141t112.5 109q-114 95 -29 325l141 381q28 91 23 101q-2 3 -11 8q-16 9 -71 -31q-70 -51 -103 -82l-45 -43l74 84q21 24 78 78q103 100 205 100
q54 0 89.5 -26.5t45.5 -78.5t-17 -130q-56 -142 -112 -297q-68 -189 -68 -230q0 -27 13 -43q9 -16 24.5 -25t41 -8t56.5 15.5t73 51.5t87 93q-72 -136 -163.5 -209.5t-186.5 -78.5zM932 96q25 -6 76 33q56 43 94 84l41 45l-39 -51q-39 -56 -49 -68q-3 -3 -20.5 -22
t-33.5 -35q-49 -52 -99 -75.5t-118 -26.5q-71 5 -106.5 68t-1.5 151l266 723h268l-270 -748q-27 -75 -8 -78z" />
    <glyph glyph-name="Wcircumflex" unicode="&#x174;" horiz-adv-x="1923" 
d="M1634 1829l27 -316l-135 209l-369 -209l320 316h157zM2052 1434h449q-175 -37 -363 -299l-858 -1211l-68 1041l-727 -1043l-82 1290q-6 101 -49 159t-112 63h729q-74 0 -150 -58q-74 -54 -71 -168l24 -620q6 -133 25 -142q18 -6 71 72l340 481l-14 213q-7 103 -50 160
t-112 62h725q-43 0 -92 -21q-55 -21 -95 -76.5t-36 -128.5l29 -639q6 -123 22 -129q22 -10 66 52l8 12l483 682q33 46 41.5 87t-3 69.5t-34 50t-48 31.5t-48.5 10z" />
    <glyph glyph-name="wcircumflex" unicode="&#x175;" horiz-adv-x="1488" 
d="M639 1010l322 315h155l29 -315l-137 209zM1448 934q-45 11 -85.5 -14.5t-41.5 -67.5q-5 -25 11 -52.5t43 -56t34 -41.5q43 -78 8 -174q-25 -73 -117 -198q-85 -115 -206 -213q-3 328 -84 518q40 97 49 160q12 59 -9.5 101.5t-70.5 43.5q-105 2 -166 -51t-65 -152
q0 -36 49 -196l30 -99q-93 -148 -270 -278q14 129 -4 383q-6 85 -23 151.5t-40 107.5t-54 69.5t-60 41.5t-62 17.5t-56.5 2.5t-46.5 -7q-88 -25 -123 -103q-24 -69 -33 -120q43 135 138 114q54 -11 81.5 -89t40.5 -263q10 -102 4 -246l-10 -205l-6 -84l49 37q94 75 137 113
q111 93 177 154q47 43 88 88.5t59.5 71t17.5 28.5q56 -300 19 -487q102 38 264 180q167 145 256 289q56 95 92.5 177t51.5 143t12.5 106t-22.5 70t-56 30zM1049 831q0 -53 -16 -104.5t-29 -71.5l-3 -4l-34 99q-34 125 14 159q26 17 47 -7t21 -71z" />
    <glyph glyph-name="Ycircumflex" unicode="&#x176;" horiz-adv-x="1433" 
d="M930 1513l319 316h158l27 -316l-136 209zM1743 1434h-428q37 0 67 -21.5t44 -57t-1.5 -90t-64.5 -112.5l-285 -330q-36 -44 -65 -41q-21 3 -33 49l-111 408q-20 74 14 131t103 64h-647q86 0 164 -88q47 -50 69 -136l107 -405q18 -75 -29 -193l-160 -391
q-34 -81 -127 -153q-89 -68 -141 -68h782q-93 3 -157 61t-21 166l148 365q57 138 92 176l342 397q101 117 193.5 190t144.5 79z" />
    <glyph glyph-name="ycircumflex" unicode="&#x177;" horiz-adv-x="1005" 
d="M868 1325l27 -315l-137 209l-367 -209l320 315h157zM928 956q138 -9 98 -190q-34 -154 -190 -379q-238 -352 -611 -641l-30 -25q-32 -26 -78 -55q-74 -53 -150 -63q-132 -18 -174 24q-28 36 -14 88q12 54 65 66q37 10 78 -4q6 -4 25 -10q4 -3 25.5 -14.5t25.5 -14.5
q114 -49 270 74l56 43q38 30 120 118q-9 125 -36 295q-22 135 -58 273q-46 166 -90 223q-43 58 -90 61q-97 9 -143 -92q15 66 62 124.5t116 80.5q148 42 240 -41.5t145 -314.5q55 -253 55 -394q68 75 143 168q70 97 107 176q59 132 -14 211l-52 58q-21 26 -18 69q2 36 34 63
t83 23z" />
    <glyph glyph-name="Ydieresis" unicode="&#x178;" horiz-adv-x="1433" 
d="M969 1599q-52 0 -90.5 39.5t-38.5 94.5q0 49 38.5 84.5t90.5 35.5q55 0 93 -35t38 -85q0 -57 -37 -95.5t-94 -38.5zM1438 1599q-54 0 -91.5 39t-37.5 95q0 50 37.5 85t91.5 35q55 0 93 -35t38 -85q0 -57 -37.5 -95.5t-93.5 -38.5zM1315 1434h428q-52 -6 -144.5 -79
t-193.5 -190l-342 -397q-35 -38 -92 -176l-148 -365q-43 -108 21 -166t157 -61h-782q52 0 141 68q93 72 127 153l160 391q47 118 29 193l-107 405q-22 86 -69 136q-78 88 -164 88h647q-69 -7 -103 -64t-14 -131l111 -408q12 -46 33 -49q29 -3 65 41l285 330
q49 58 64.5 112.5t1.5 90t-44 57t-67 21.5z" />
    <glyph glyph-name="Zacute" unicode="&#x179;" horiz-adv-x="1353" 
d="M1001 1575l170 268q40 61 85.5 75t68.5 -20q11 -11 17 -25.5t4.5 -34t-20.5 -44t-54 -47.5zM526 23q-84 0 -107 37.5t25 86.5l1192 1287h-1128l-189 -469q94 143 343 292q255 156 430 156h34q38 0 57 -8t18.5 -23.5t-11 -33t-31.5 -39.5l-1218 -1309h1230l146 498
q-106 -151 -328 -305q-131 -92 -227.5 -131t-198.5 -39h-37z" />
    <glyph glyph-name="zacute" unicode="&#x17a;" horiz-adv-x="890" 
d="M893 1378q12 -10 17.5 -25.5t3.5 -35.5t-21.5 -44.5t-54.5 -47.5l-269 -172l170 268q24 40 54.5 60.5t56.5 19t43 -22.5zM586 154q169 -34 268 86q-16 -44 -51 -97q-42 -73 -107 -123t-147 -51q-96 3 -201 66q-101 64 -184 67q-151 9 -240 -65q58 113 172 215
q192 177 514 354q57 33 135 94l17 15q-96 -9 -174 0q-62 10 -131 49q-27 15 -78 41q-27 9 -62 12q-41 5 -96 -19t-90 -75q16 38 49 84q115 156 256 156q62 -3 129 -39q77 -36 113 -39q74 -6 166 20q97 27 106 47q-33 -73 -65.5 -121.5t-83.5 -97.5l-58 -51q-17 -14 -67 -49
l-60 -39l-63 -37l-51 -31q-98 -60 -187 -123q-130 -95 -180 -145l21 10q18 8 62 15.5t83 3.5q66 -6 143 -62t142 -71z" />
    <glyph glyph-name="Zdotaccent" unicode="&#x17b;" horiz-adv-x="1353" 
d="M1174 1628q-47 0 -83 36t-36 83q0 50 35.5 85.5t83.5 35.5q51 0 85.5 -35t34.5 -86q0 -48 -35 -83.5t-85 -35.5zM526 23h37q102 0 198.5 39t227.5 131q222 154 328 305l-146 -498h-1230l1218 1309q21 22 31.5 39.5t11 33t-18.5 23.5t-57 8h-34q-175 0 -430 -156
q-249 -149 -343 -292l189 469h1128l-1192 -1287q-48 -49 -25 -86.5t107 -37.5z" />
    <glyph glyph-name="zdotaccent" unicode="&#x17c;" horiz-adv-x="890" 
d="M766 1133q-37 -38 -92.5 -38t-93.5 38q-38 41 -38 94.5t38 91.5q38 41 93.5 41t92.5 -39q38 -38 38 -94t-38 -94zM586 154q169 -34 268 86q-16 -44 -51 -97q-42 -73 -107 -123t-147 -51q-96 3 -201 66q-101 64 -184 67q-151 9 -240 -65q58 113 172 215q192 177 514 354
q57 33 135 94l17 15q-96 -9 -174 0q-62 10 -131 49q-27 15 -78 41q-27 9 -62 12q-41 5 -96 -19t-90 -75q16 38 49 84q115 156 256 156q62 -3 129 -39q77 -36 113 -39q74 -6 166 20q97 27 106 47q-33 -73 -65.5 -121.5t-83.5 -97.5l-58 -51q-17 -14 -67 -49l-60 -39l-63 -37
l-51 -31q-98 -60 -187 -123q-130 -95 -180 -145l21 10q18 8 62 15.5t83 3.5q66 -6 143 -62t142 -71z" />
    <glyph glyph-name="Zcaron" unicode="&#x17d;" horiz-adv-x="1353" 
d="M993 1827l160 -189l287 189l-254 -283h-139zM526 23q-84 0 -107 37.5t25 86.5l1192 1287h-1128l-189 -469q94 143 343 292q255 156 430 156h34q38 0 57 -8t18.5 -23.5t-11 -33t-31.5 -39.5l-1218 -1309h1230l146 498q-106 -151 -328 -305q-131 -92 -227.5 -131
t-198.5 -39h-37z" />
    <glyph glyph-name="zcaron" unicode="&#x17e;" horiz-adv-x="890" 
d="M997 1335l-254 -282h-141l-53 282l162 -188zM950 952q-33 -73 -65.5 -121.5t-83.5 -97.5l-58 -51q-17 -14 -67 -49l-60 -39l-63 -37l-51 -31q-98 -60 -187 -123q-130 -95 -180 -145l21 10q18 8 62 15.5t83 3.5q66 -6 143 -62t142 -71q169 -34 268 86q-16 -44 -51 -97
q-42 -73 -107 -123t-147 -51q-96 3 -201 66q-101 64 -184 67q-151 9 -240 -65q58 113 172 215q192 177 514 354q57 33 135 94l17 15q-96 -9 -174 0q-62 10 -131 49q-27 15 -78 41q-27 9 -62 12q-41 5 -96 -19t-90 -75q16 38 49 84q115 156 256 156q62 -3 129 -39
q77 -36 113 -39q74 -6 166 20q97 27 106 47z" />
    <glyph glyph-name="Scommaaccent" unicode="&#x218;" horiz-adv-x="1261" 
d="M1417 1298l8 -8l-165 -293q3 76 -52 217q-53 136 -166 191q-151 74 -249 -14q-97 -87 -82 -263q1 -23 24 -94q6 -15 30.5 -46.5t25.5 -33.5q3 -6 14.5 -17.5l22 -22t22.5 -22t14 -13.5l43 -41l45 -39q57 -49 92.5 -88t71.5 -95q131 -185 41 -372q-52 -110 -182 -181
q-126 -69 -258 -75q-341 -15 -563 149q-48 36 -84 76l-15 16l211 396q-12 -189 49 -338q47 -111 158 -197q113 -84 240 -84q60 0 103.5 18.5t65 48.5t34 67.5t10 75t-5.5 71.5q-7 53 -39.5 109t-69.5 93q-39 39 -94 86l-86 76q-110 102 -160 197.5t-47.5 175t43.5 166.5
q73 150 219 209q143 61 313 55q89 -3 162 -24q74 -18 101 -33q10 -4 77 -41q19 -13 47 -34.5t31 -23.5zM514 -115q51 -8 81 -50.5t23 -96.5q-21 -132 -133 -238q-109 -104 -241 -151q90 41 178 129q90 90 108 162q-35 -10 -59 -5q-54 11 -83 53.5t-19 96.5q7 51 50.5 81
t94.5 19z" />
    <glyph glyph-name="scommaaccent" unicode="&#x219;" horiz-adv-x="929" 
d="M936 752q2 -57 -30 -100.5t-87 -49.5q-47 -4 -86 25.5t-37 68.5q0 32 33 74q34 43 37 78q5 51 -33.5 86t-93.5 29q-68 -9 -98 -76q-28 -68 -17 -123q7 -26 29 -90q18 -22 33 -58l49 -71q42 -61 61 -99q22 -35 40 -87t18 -101q-3 -167 -144 -238q-140 -67 -329 -49
q-105 8 -177 66t-84 160q-10 90 41.5 154.5t133.5 66.5q58 2 93.5 -39t18.5 -94q-16 -54 -59 -74q-45 -22 -60 -51q-34 -58 0 -119q37 -58 117 -61q92 -1 138 58.5t38 160.5q0 54 -39 120q-17 44 -34 66q-3 6 -11.5 20.5t-18.5 30t-11 17.5q-107 168 -86 284q38 216 354 234
q132 5 216 -55.5t85 -163.5zM264 -115q51 -8 81.5 -50.5t23.5 -96.5q-21 -132 -133 -238q-109 -103 -242 -151q90 41 178 129q92 92 109 162q-35 -11 -60 -5q-54 11 -83 53.5t-19 96.5q7 51 50.5 81t94.5 19z" />
    <glyph glyph-name="uni021A" unicode="&#x21a;" horiz-adv-x="1562" 
d="M260 1059l174 375h1290l-2 -371l-18 41q-9 27 -59 92q-49 67 -113 119q-118 92 -244 92h-37q-8 -29 -30 -82l-445 -1098q-38 -95 11 -158.5t155 -68.5h-821q84 0 182 61q99 64 139 166l447 1096q10 22 17 43t8.5 31t0.5 10h-49q-150 0 -327 -104q-72 -45 -136 -101
q-60 -52 -106 -102zM481 -115q51 -8 81.5 -50.5t23.5 -96.5q-21 -132 -133 -238q-109 -103 -242 -151q90 41 178 129q92 92 109 162q-35 -11 -60 -5q-54 11 -83 53.5t-19 96.5q7 51 50.5 81t94.5 19z" />
    <glyph glyph-name="uni021B" unicode="&#x21b;" horiz-adv-x="702" 
d="M780 901h-137l-289 -717q-34 -85 -14 -92q28 -12 94 33q64 42 125 100l55 54q-4 -4 -12.5 -15t-23.5 -30t-29 -37q-60 -73 -82 -99q-37 -39 -91 -74t-100 -40q-106 -15 -172 51q-65 65 0 221l267 645h-99l-16 21h123l72 176l342 176l-142 -352h150zM100 -115
q51 -8 81.5 -50.5t23.5 -96.5q-21 -130 -135 -238q-109 -103 -242 -151q95 42 182 129q92 92 109 162q-39 -10 -64 -5q-54 11 -83 53.5t-19 96.5t53 82.5t94 17.5z" />
    <glyph glyph-name="circumflex" unicode="&#x2c6;" horiz-adv-x="1228" 
d="M262 1010l320 315h157l27 -315l-135 209z" />
    <glyph glyph-name="caron" unicode="&#x2c7;" horiz-adv-x="1228" 
d="M416 1335l159 -188l287 188l-254 -282h-139z" />
    <glyph glyph-name="breve" unicode="&#x2d8;" horiz-adv-x="1228" 
d="M549 1159q176 0 252 125q-37 -86 -117 -156q-79 -67 -170 -67q-62 0 -99 33t-39 83t21 109q-10 -61 32 -94t120 -33z" />
    <glyph glyph-name="dotaccent" unicode="&#x2d9;" horiz-adv-x="1228" 
d="M467 1016q-47 0 -83 36t-36 83q0 49 35.5 84.5t83.5 35.5q50 0 85.5 -35.5t35.5 -84.5q0 -48 -36 -83.5t-85 -35.5z" />
    <glyph glyph-name="ring" unicode="&#x2da;" horiz-adv-x="1228" 
d="M356 1171q0 51 35 88t86 37q55 0 89.5 -34.5t33.5 -90.5q-2 -50 -38 -86t-85 -36t-85 36t-36 86zM416 1108q26 -26 63.5 -26t63.5 26q26 29 26 66t-26 63q-26 29 -63.5 29t-63.5 -29q-26 -26 -26 -63t26 -66z" />
    <glyph glyph-name="ogonek" unicode="&#x2db;" horiz-adv-x="1228" 
d="M-53 0h176q-176 -89 -197 -197q-15 -74 43 -114q59 -44 133 -11q-63 -43 -133.5 -44t-119 38.5t-50.5 104.5q-3 146 148 223z" />
    <glyph glyph-name="tilde" unicode="&#x2dc;" horiz-adv-x="1228" 
d="M299 1051q42 103 115 160t149 49q43 -3 86 -58q39 -50 80 -53q46 -2 97 30.5t85 90.5q-31 -79 -98 -140q-68 -62 -139 -65q-32 -1 -57 10t-41 28t-30 34.5t-30.5 30.5t-36.5 14q-101 0 -180 -131z" />
    <glyph glyph-name="hungarumlaut" unicode="&#x2dd;" horiz-adv-x="1228" 
d="M326 1014l170 268q25 40 55 60.5t55.5 18.5t42.5 -24q12 -10 17.5 -25t3.5 -34.5t-21.5 -44t-54.5 -47.5zM571 1014l170 268q25 40 55 60.5t56 18.5t43 -24q12 -10 17.5 -25t3.5 -34.5t-21.5 -44t-54.5 -47.5z" />
    <glyph glyph-name="Wgrave" unicode="&#x1e80;" horiz-adv-x="1923" 
d="M1397 1829l41 -313l-170 266q-23 37 -30.5 67t-0.5 49t18.5 30.5t26.5 17.5q43 14 75.5 -16t39.5 -101zM2052 1434h449q-175 -37 -363 -299l-858 -1211l-68 1041l-727 -1043l-82 1290q-6 101 -49 159t-112 63h729q-74 0 -150 -58q-74 -54 -71 -168l24 -620
q6 -133 25 -142q18 -6 71 72l340 481l-14 213q-7 103 -50 160t-112 62h725q-43 0 -92 -21q-55 -21 -95 -76.5t-36 -128.5l29 -639q6 -123 22 -129q22 -10 66 52l8 12l483 682q33 46 41.5 87t-3 69.5t-34 50t-48 31.5t-48.5 10z" />
    <glyph glyph-name="wgrave" unicode="&#x1e81;" horiz-adv-x="1488" 
d="M924 1350l41 -314l-170 267q-23 37 -30.5 67t-0.5 49t18.5 30t26.5 17q43 14 75.5 -15.5t39.5 -100.5zM1448 934q36 -5 56 -30t22.5 -70t-12.5 -106t-51.5 -143t-92.5 -177q-89 -144 -256 -289q-162 -142 -264 -180q37 187 -19 487q1 -3 -17.5 -28.5t-59.5 -71t-88 -88.5
q-66 -61 -177 -154q-43 -38 -137 -113l-49 -37l6 84l10 205q6 144 -4 246q-13 185 -40.5 263t-81.5 89q-95 21 -138 -114q9 51 33 120q35 78 123 103q23 5 46.5 7t56.5 -2.5t62 -17.5t60 -41.5t54 -69.5t40 -107.5t23 -151.5q18 -254 4 -383q177 130 270 278l-30 99
q-49 160 -49 196q4 99 65 152t166 51q49 -1 70.5 -43.5t9.5 -101.5q-9 -63 -49 -160q81 -190 84 -518q121 98 206 213q92 125 117 198q35 96 -8 174q-7 13 -34 41.5t-43 56t-11 52.5q1 42 41.5 67.5t85.5 14.5zM1049 831q0 47 -21 71t-47 7q-48 -34 -14 -159l34 -99l3 4
q13 20 29 71.5t16 104.5z" />
    <glyph glyph-name="Wacute" unicode="&#x1e82;" horiz-adv-x="1923" 
d="M1722 1898q11 -11 17 -25.5t4.5 -34t-20.5 -44t-54 -47.5l-270 -172l170 268q40 61 85 75t68 -20zM2052 1434h449q-175 -37 -363 -299l-858 -1211l-68 1041l-727 -1043l-82 1290q-6 101 -49 159t-112 63h729q-74 0 -150 -58q-74 -54 -71 -168l24 -620q6 -133 25 -142
q18 -6 71 72l340 481l-14 213q-7 103 -50 160t-112 62h725q-43 0 -92 -21q-55 -21 -95 -76.5t-36 -128.5l29 -639q6 -123 22 -129q22 -10 66 52l8 12l483 682q33 46 41.5 87t-3 69.5t-34 50t-48 31.5t-48.5 10z" />
    <glyph glyph-name="wacute" unicode="&#x1e83;" horiz-adv-x="1488" 
d="M854 1053l170 268q27 41 57 61t55 18.5t42 -22.5q12 -10 17.5 -25.5t4 -35.5t-21 -44.5t-54.5 -47.5zM1448 934q-45 11 -85.5 -14.5t-41.5 -67.5q-5 -25 11 -52.5t43 -56t34 -41.5q43 -78 8 -174q-25 -73 -117 -198q-85 -115 -206 -213q-3 328 -84 518q40 97 49 160
q12 59 -9.5 101.5t-70.5 43.5q-105 2 -166 -51t-65 -152q0 -36 49 -196l30 -99q-93 -148 -270 -278q14 129 -4 383q-6 85 -23 151.5t-40 107.5t-54 69.5t-60 41.5t-62 17.5t-56.5 2.5t-46.5 -7q-88 -25 -123 -103q-24 -69 -33 -120q43 135 138 114q54 -11 81.5 -89
t40.5 -263q10 -102 4 -246l-10 -205l-6 -84l49 37q94 75 137 113q111 93 177 154q47 43 88 88.5t59.5 71t17.5 28.5q56 -300 19 -487q102 38 264 180q167 145 256 289q56 95 92.5 177t51.5 143t12.5 106t-22.5 70t-56 30zM1049 831q0 -53 -16 -104.5t-29 -71.5l-3 -4l-34 99
q-34 125 14 159q26 17 47 -7t21 -71z" />
    <glyph glyph-name="Wdieresis" unicode="&#x1e84;" horiz-adv-x="1923" 
d="M1233 1599q-54 0 -91.5 39t-37.5 95q0 50 37.5 85t91.5 35q55 0 92 -35t37 -85q0 -57 -37 -95.5t-92 -38.5zM1700 1599q-52 0 -90.5 39.5t-38.5 94.5q0 49 38.5 84.5t90.5 35.5q55 0 93 -35t38 -85q0 -57 -37.5 -95.5t-93.5 -38.5zM2052 1434h449q-175 -37 -363 -299
l-858 -1211l-68 1041l-727 -1043l-82 1290q-6 101 -49 159t-112 63h729q-74 0 -150 -58q-74 -54 -71 -168l24 -620q6 -133 25 -142q18 -6 71 72l340 481l-14 213q-7 103 -50 160t-112 62h725q-43 0 -92 -21q-55 -21 -95 -76.5t-36 -128.5l29 -639q6 -123 22 -129
q22 -10 66 52l8 12l483 682q33 46 41.5 87t-3 69.5t-34 50t-48 31.5t-48.5 10z" />
    <glyph glyph-name="wdieresis" unicode="&#x1e85;" horiz-adv-x="1488" 
d="M702 1063q-52 0 -90.5 39t-38.5 94q0 49 39 85t90 36q55 0 93.5 -35.5t38.5 -85.5q0 -57 -38 -95t-94 -38zM1171 1063q-54 0 -91.5 38.5t-37.5 94.5q0 50 37.5 85.5t91.5 35.5q55 0 92 -35.5t37 -85.5q0 -57 -37 -95t-92 -38zM1448 934q36 -5 56 -30t22.5 -70t-12.5 -106
t-51.5 -143t-92.5 -177q-89 -144 -256 -289q-162 -142 -264 -180q37 187 -19 487q1 -3 -17.5 -28.5t-59.5 -71t-88 -88.5q-66 -61 -177 -154q-43 -38 -137 -113l-49 -37l6 84l10 205q6 144 -4 246q-13 185 -40.5 263t-81.5 89q-95 21 -138 -114q9 51 33 120q35 78 123 103
q23 5 46.5 7t56.5 -2.5t62 -17.5t60 -41.5t54 -69.5t40 -107.5t23 -151.5q18 -254 4 -383q177 130 270 278l-30 99q-49 160 -49 196q4 99 65 152t166 51q49 -1 70.5 -43.5t9.5 -101.5q-9 -63 -49 -160q81 -190 84 -518q121 98 206 213q92 125 117 198q35 96 -8 174
q-7 13 -34 41.5t-43 56t-11 52.5q1 42 41.5 67.5t85.5 14.5zM1049 831q0 47 -21 71t-47 7q-48 -34 -14 -159l34 -99l3 4q13 20 29 71.5t16 104.5z" />
    <glyph glyph-name="uni1EA0" unicode="&#x1ea0;" 
d="M1262 2h-715q75 0 147 57q77 59 74 172l-6 250h-434l-166 -237q-39 -56 -41.5 -104.5t22 -77t57 -44.5t62.5 -16h-459q183 41 369 303l864 1223l64 -1303q4 -101 48.5 -159.5t113.5 -63.5zM641 932l-297 -426h418l-10 393q-3 117 -13 127q-4 4 -6 4q-20 11 -92 -98z
M307 -141q54 0 92.5 -39.5t38.5 -93.5t-38.5 -94t-92.5 -40q-55 0 -95 40t-40 94t40 93.5t95 39.5z" />
    <glyph glyph-name="uni1EA1" unicode="&#x1ea1;" horiz-adv-x="1167" 
d="M893 78q33 -8 94 35q65 43 111 90l45 47q-8 -9 -43 -55q-23 -29 -53 -64q-11 -15 -56 -57q-49 -50 -103 -74.5t-128 -30.5q-50 0 -84 16t-48 41t-17 57.5t3 62.5t17 59l157 397q121 331 23 352q-64 14 -168 -82q-97 -90 -182 -241q-93 -162 -111 -293q-18 -134 45 -168
q42 -27 88.5 -16t83 38.5t62.5 63.5l-17 -35q-19 -43 -63 -106q-42 -67 -114 -108.5t-165 -37.5q-103 3 -157 94q-52 89 -32 230.5t107 279.5q72 118 162.5 204t177.5 124q153 68 256 68q131 -3 193 -86l67 20l154 49l-301 -782q-35 -86 -4 -92zM293 -141q54 0 91.5 -39.5
t37.5 -93.5t-37.5 -94t-91.5 -40q-55 0 -95 40t-40 94t40 93.5t95 39.5z" />
    <glyph glyph-name="uni1EB8" unicode="&#x1eb8;" horiz-adv-x="1583" 
d="M1180 186q235 125 356 299l-193 -485h-1507q92 0 195 68q101 70 141 168l412 1007q30 76 -16.5 131t-131.5 60h1176l30 -476q-15 35 -47 89q-2 4 -55 83q-26 42 -69.5 87.5t-84.5 74.5q-100 69 -192 94q-89 24 -213 27l-258 -641h61q342 0 484 244l-232 -615
q12 41 5 96.5t-29 114.5q-21 58 -87.5 98t-156.5 40h-55l-244 -607q-20 -53 1 -84.5t73 -31.5h63q281 0 574 159zM492 -180q38 38 93.5 38t92.5 -38q38 -38 38 -94.5t-38 -94.5q-37 -39 -92.5 -39t-93.5 41q-38 38 -38 92t38 95z" />
    <glyph glyph-name="uni1EB9" unicode="&#x1eb9;" horiz-adv-x="983" 
d="M778 967q83 -10 144 -59t73 -122t-53 -161q-78 -99 -258 -140q-101 -15 -139 -16q-29 -2 -62 -2h-55h-41q211 21 369 217q34 44 58 103t25.5 105.5t-32.5 59.5q-77 18 -197 -84t-192 -243q-46 -85 -63.5 -189t10 -192t102.5 -109q48 -13 94 -14t83.5 10t70 25.5t59 35.5
t44.5 38t32 34l18 23q1 -2 -7 -20.5t-29 -52.5t-48 -69q-42 -55 -96 -96t-142.5 -66.5t-189.5 -11.5q-113 15 -186 113q-72 99 -75.5 231.5t63.5 280.5q58 117 142.5 199.5t176.5 119.5q161 65 301 52zM315 -369q-37 -39 -92.5 -39t-93.5 41q-38 38 -38 92t38 95
q38 38 93.5 38t92.5 -38q38 -38 38 -94.5t-38 -94.5z" />
    <glyph glyph-name="uni1ECA" unicode="&#x1eca;" horiz-adv-x="884" 
d="M463 1434h772q-45 3 -99.5 -14.5t-111.5 -65t-86 -115.5l-410 -1014q-43 -106 21 -164t158 -61h-826q81 6 178 66q95 59 136 155l378 944q48 106 18.5 181.5t-128.5 87.5zM135 -408q-55 0 -95 40t-40 94t40 93.5t95 39.5q54 0 92.5 -39.5t38.5 -93.5t-38.5 -94t-92.5 -40
z" />
    <glyph glyph-name="uni1ECB" unicode="&#x1ecb;" horiz-adv-x="708" 
d="M754 1079q-44 -44 -108.5 -44t-108.5 44q-43 47 -43 110.5t43 106.5q44 44 108.5 44t108.5 -44q44 -43 44 -106.5t-44 -110.5zM84 215l223 530q25 60 19 68l-11 6q-16 9 -77 -28q-66 -40 -115 -78l-53 -43q84 94 188 172q112 87 188 102q94 15 148 -45t8 -172l-235 -563
q-28 -66 -7 -72q17 -8 80 33q64 41 117 84l53 45q-62 -70 -80 -88q-14 -14 -92 -84q-124 -102 -245 -102q-30 0 -59 13t-52.5 41.5t-24 73t26.5 107.5zM104 -408q-55 0 -95 40t-40 94t40 93.5t95 39.5q54 0 93 -39.5t39 -93.5t-39 -94t-93 -40z" />
    <glyph glyph-name="Ygrave" unicode="&#x1ef2;" horiz-adv-x="1433" 
d="M1151 1829l41 -313l-170 266q-23 37 -30.5 67t-0.5 49t18.5 30.5t26.5 17.5q41 14 74.5 -16.5t40.5 -100.5zM1315 1434h428q-52 -6 -144.5 -79t-193.5 -190l-342 -397q-35 -38 -92 -176l-148 -365q-43 -108 21 -166t157 -61h-782q52 0 141 68q93 72 127 153l160 391
q47 118 29 193l-107 405q-22 86 -69 136q-78 88 -164 88h647q-69 -7 -103 -64t-14 -131l111 -408q12 -46 33 -49q29 -3 65 41l285 330q49 58 64.5 112.5t1.5 90t-44 57t-67 21.5z" />
    <glyph glyph-name="ygrave" unicode="&#x1ef3;" horiz-adv-x="1005" 
d="M571 1350l43 -314l-172 267q-30 48 -32 85t12 53t35 25q43 14 75 -15.5t39 -100.5zM928 956q138 -9 98 -190q-34 -154 -190 -379q-238 -352 -611 -641l-30 -25q-32 -26 -78 -55q-74 -53 -150 -63q-132 -18 -174 24q-28 36 -14 88q12 54 65 66q37 10 78 -4q6 -4 25 -10
q4 -3 25.5 -14.5t25.5 -14.5q114 -49 270 74l56 43q38 30 120 118q-9 125 -36 295q-22 135 -58 273q-46 166 -90 223q-43 58 -90 61q-97 9 -143 -92q15 66 62 124.5t116 80.5q148 42 240 -41.5t145 -314.5q55 -253 55 -394q68 75 143 168q70 97 107 176q59 132 -14 211
l-52 58q-21 26 -18 69q2 36 34 63t83 23z" />
    <glyph glyph-name="uni1EF4" unicode="&#x1ef4;" horiz-adv-x="1433" 
d="M1315 1434h428q-52 -6 -144.5 -79t-193.5 -190l-342 -397q-35 -38 -92 -176l-148 -365q-43 -108 21 -166t157 -61h-782q52 0 141 68q93 72 127 153l160 391q47 118 29 193l-107 405q-22 86 -69 136q-78 88 -164 88h647q-69 -7 -103 -64t-14 -131l111 -408q12 -46 33 -49
q29 -3 65 41l285 330q49 58 64.5 112.5t1.5 90t-44 57t-67 21.5zM520 -369q-37 -39 -92.5 -39t-93.5 41q-38 38 -38 92t38 95q38 38 93.5 38t92.5 -38q38 -38 38 -94.5t-38 -94.5z" />
    <glyph glyph-name="uni1EF5" unicode="&#x1ef5;" horiz-adv-x="1005" 
d="M928 956q138 -9 98 -190q-34 -154 -190 -379q-238 -352 -611 -641l-30 -25q-32 -26 -78 -55q-74 -53 -150 -63q-132 -18 -174 24q-28 36 -14 88q12 54 65 66q37 10 78 -4q6 -4 25 -10q4 -3 25.5 -14.5t25.5 -14.5q114 -49 270 74l56 43q38 30 120 118q-9 125 -36 295
q-22 135 -58 273q-46 166 -90 223q-43 58 -90 61q-97 9 -143 -92q15 66 62 124.5t116 80.5q148 42 240 -41.5t145 -314.5q55 -253 55 -394q68 75 143 168q70 97 107 176q59 132 -14 211l-52 58q-21 26 -18 69q2 36 34 63t83 23zM287 -399q54 0 92.5 -39.5t38.5 -93.5
t-38.5 -94t-92.5 -40q-55 0 -95 40t-40 94t40 93.5t95 39.5z" />
    <glyph glyph-name="uni1EF9" unicode="&#x1ef9;" horiz-adv-x="944" 
d="M446 1204q-119 0 -149 -153q1 122 58.5 187.5t150.5 57.5q57 -6 127 -67q74 -59 123 -62q53 -5 98 35t57 107q0 -89 -49 -162q-50 -74 -131 -80q-44 -3 -87.5 17.5t-72.5 47t-63.5 49.5t-61.5 23zM657 922h412q-104 -20 -176 -95q-43 -45 -70 -108l-327 -791l-80 -194
q-42 -107 -93 -140t-128 -22q-49 7 -75 50.5t-14 94.5q21 81 111 78q31 -3 57 -37q29 -33 41 -37q67 -27 111 82l55 140l-372 817q-30 67 -79 109t-89 49l-35 4h596q-16 0 -60 -15q-29 -10 -41 -28q-43 -61 -6 -127l176 -385q18 -41 45 -41q18 0 26 8t22 39l141 334l8 22
q24 79 -23.5 133.5t-132.5 59.5z" />
    <glyph glyph-name="endash" unicode="&#x2013;" horiz-adv-x="1241" 
d="M221 553v27h977v-27h-977z" />
    <glyph glyph-name="emdash" unicode="&#x2014;" horiz-adv-x="1544" 
d="M260 553v27h1239v-27h-1239z" />
    <glyph glyph-name="quoteleft" unicode="&#x2018;" horiz-adv-x="245" 
d="M276 1257q54 -11 83.5 -53.5t19.5 -97.5q-11 -51 -54 -80.5t-94 -17.5q-51 8 -81 50.5t-23 96.5q21 132 133 238q107 102 244 151q-95 -42 -182 -129q-89 -89 -107 -162q36 9 61 4z" />
    <glyph glyph-name="quoteright" unicode="&#x2019;" horiz-adv-x="266" 
d="M399 1530q51 -8 81.5 -51t23.5 -97q-20 -128 -135 -237q-110 -105 -242 -152q95 42 182 129q92 92 109 162q-36 -10 -64 -4q-54 11 -83 54t-19 98q11 51 54.5 80.5t92.5 17.5z" />
    <glyph glyph-name="quotesinglbase" unicode="&#x201a;" horiz-adv-x="382" 
d="M164 248q51 -7 81.5 -50.5t22.5 -97.5q-21 -127 -135 -235t-242 -154q93 41 183 131t108 162q-30 -12 -63 -6q-54 11 -83.5 54t-19.5 98q11 51 55 80.5t93 17.5z" />
    <glyph glyph-name="quotedblleft" unicode="&#x201c;" horiz-adv-x="497" 
d="M250 1257q54 -11 83 -53.5t19 -97.5q-11 -52 -54 -81t-93 -17q-51 8 -81.5 50.5t-23.5 96.5q21 132 133 238q107 102 244 151q-91 -40 -180 -129q-88 -88 -109 -162q29 10 62 4zM539 1257q54 -11 83 -53.5t19 -97.5q-11 -52 -54 -81t-93 -17q-51 8 -81.5 50.5t-23.5 96.5
q21 132 133 238q107 102 244 151q-95 -42 -182 -129q-89 -89 -107 -162q37 10 62 4z" />
    <glyph glyph-name="quotedblright" unicode="&#x201d;" horiz-adv-x="432" 
d="M322 1530q51 -7 81.5 -50.5t22.5 -97.5q-20 -128 -135 -237q-110 -105 -242 -152q94 43 180 129q92 92 109 162q-37 -10 -62 -4q-54 11 -83 54t-19 98q11 51 54 80.5t94 17.5zM645 1530q51 -8 81.5 -51t23.5 -97q-20 -127 -136 -237q-111 -105 -241 -152q94 43 180 129
q92 92 109 162q-29 -10 -62 -4q-54 11 -83 54t-19 98q11 52 54 81t93 17z" />
    <glyph glyph-name="quotedblbase" unicode="&#x201e;" horiz-adv-x="710" 
d="M182 248q51 -7 82 -50.5t25 -97.5q-21 -127 -135 -235q-112 -106 -242 -154q94 43 180 129q92 92 109 162q-37 -10 -62 -4q-54 11 -83 54t-19 98q11 51 53.5 80.5t91.5 17.5zM483 248q51 -8 81.5 -51t23.5 -97q-21 -127 -135 -235t-242 -154q91 41 182 131q92 92 109 162
q-30 -12 -64 -6q-54 11 -83 54t-19 98q11 51 54.5 80.5t92.5 17.5z" />
    <glyph glyph-name="dagger" unicode="&#x2020;" horiz-adv-x="940" 
d="M401 1186h328l-10 -27h-328l-514 -1274h-29l514 1274h-344l11 27h344l188 467h29z" />
    <glyph glyph-name="daggerdbl" unicode="&#x2021;" horiz-adv-x="946" 
d="M733 1186l-8 -27h-346l-295 -731h344l-10 -27h-344l-209 -516h-27l209 516h-330l11 27h329l295 731h-327l8 27h329l189 467h27l-189 -467h344z" />
    <glyph glyph-name="bullet" unicode="&#x2022;" horiz-adv-x="466" 
d="M291 532q-57 0 -96 39t-39 95t39 94.5t96 38.5q54 0 92.5 -39.5t38.5 -93.5t-38.5 -94t-92.5 -40z" />
    <glyph glyph-name="ellipsis" unicode="&#x2026;" horiz-adv-x="1318" 
d="M242 31q-37 -38 -93 -38t-94 38q-38 41 -38 94.5t38 91.5q38 41 94 41t93 -39q38 -38 38 -94t-38 -94zM602 -8q-55 0 -95 39.5t-40 93.5t40 93.5t95 39.5q54 0 92.5 -39.5t38.5 -93.5t-38.5 -93.5t-92.5 -39.5zM1051 -8q-56 0 -96 39t-40 94t40 94t96 39q54 0 92.5 -39.5
t38.5 -93.5t-38.5 -93.5t-92.5 -39.5z" />
    <glyph glyph-name="perthousand" unicode="&#x2030;" horiz-adv-x="2041" 
d="M-51 0h39l1515 1436h-35zM582 1403q104 34 164.5 -11.5t60.5 -136.5q-3 -155 -117 -278q-115 -124 -244 -109q-52 3 -83 30.5t-39 70t-4 87t18 89.5q38 103 104 167.5t140 90.5zM604 1393q-66 -38 -133 -248q-20 -81 -29 -170q-3 -96 54 -96q53 3 106 127q53 125 74 243
q9 44 7.5 73t-8 46t-19 23.5t-25.5 6.5t-27 -5zM918 541q104 34 164.5 -11.5t60.5 -136.5q-3 -155 -117 -278q-115 -124 -244 -109q-50 3 -80.5 30.5t-38.5 70t-4.5 87t17.5 89.5q36 102 102 167t140 91zM1511 541q104 34 165 -11.5t61 -136.5q-3 -155 -117 -278
q-115 -124 -244 -109q-52 3 -83 30.5t-39 70t-4 87t18 89.5q39 103 104.5 167.5t138.5 90.5zM940 530q-67 -42 -133 -247q-20 -81 -29 -170q-3 -97 53 -97q54 3 107 127t74 244q9 43 8 72t-8.5 47t-19.5 25.5t-25.5 7t-26.5 -8.5zM1534 530q-67 -39 -133 -247
q-20 -81 -29 -170q-3 -97 53 -97q54 3 107 127t74 244q9 43 8 72t-8.5 47t-19.5 25.5t-25.5 7t-26.5 -8.5z" />
    <glyph glyph-name="guilsinglleft" unicode="&#x2039;" horiz-adv-x="425" 
d="M293 279l-178 290l358 310l-227 -318z" />
    <glyph glyph-name="guilsinglright" unicode="&#x203a;" horiz-adv-x="526" 
d="M270 854l179 -291l-359 -309l223 317z" />
    <glyph glyph-name="Euro" unicode="&#x20ac;" horiz-adv-x="1417" 
d="M918 1384q93 42 197.5 58t195.5 2t158 -58t85.5 -121t-22.5 -188q-28 -66 -81.5 -103.5t-109.5 -35.5q-45 2 -62.5 32.5t-7.5 74t40 88.5q55 84 72.5 145.5t1.5 92.5t-51.5 45.5t-83.5 10t-98 -19.5t-93 -39q-158 -88 -266 -270q-48 -81 -82 -154q-48 -102 -72 -162h494
l-27 -18h-897l-16 18h133q89 197 241 354.5t351 247.5zM1149 469q62 2 82.5 -35.5t-4.5 -116.5q-41 -95 -135 -174q-92 -75 -182.5 -117.5t-161.5 -50.5q-58 -13 -199 -4q-133 9 -199 47q-72 38 -110 114t-34.5 203t58.5 290h-112l-17 18h940l-26 -18h-474
q-78 -205 -81 -402q0 -102 45 -165.5t133 -67.5q123 -4 201 66t98 204q14 86 63 147t115 62z" />
    <glyph glyph-name="trademark" unicode="&#x2122;" horiz-adv-x="2332" 
d="M2220 1432h2h-2zM375 741l270 674h8q52 0 91.5 -14t52.5 -33q10 -10 32 -43q35 -58 60 -168l39 275h-727l-189 -283l37 35q87 83 178 149q125 82 238 82h12l-270 -674q-23 -53 -56.5 -89t-70.5 -50q-53 -18 -86 -18h463q-8 0 -16 1t-26 5t-30 14.5t-22 26.5t-7 44.5
t19 65.5zM1917 1432l-453 -562q-62 -77 -82 -59q-11 11 -15.5 25.5t-12.5 62.5l-72 533h-309l8 -2q13 0 28 -4t33 -15.5t29 -29.5t11 -50.5t-17 -73.5l-205 -505q-18 -47 -49.5 -81t-60 -50t-60.5 -25.5t-45 -10.5t-20 -1h356q-4 0 -10.5 0.5t-23.5 3.5t-32 9t-30.5 18.5
t-23.5 29.5t-6.5 45t15.5 62l183 450l8 19q34 66 49 39l90 -734l578 711q40 55 65 55q13 0 -24 -92l-191 -469q-20 -49 -50.5 -82.5t-64.5 -46.5q-48 -18 -77 -18h436q-7 -1 -19.5 1t-31 9t-29.5 23t-14 43.5t16 70.5l225 555q19 48 51 81t66 46q56 19 84 19h-303z" />
    <glyph glyph-name="partialdiff" unicode="&#x2202;" horiz-adv-x="1175" 
d="M379 -25q-130 -9 -252 64q-62 40 -87.5 123.5t-2.5 197.5q43 224 207 388q163 163 379 210q82 19 147 16t99.5 -10t37.5 -10q49 132 8 279q-41 145 -170 231q254 -67 349 -323q94 -253 -15 -566q-87 -248 -291 -419q-199 -169 -409 -181zM791 584q37 199 -3 301
q-40 101 -159 49q-104 -48 -185 -219q-80 -174 -104 -322q-37 -209 -2 -308.5t133 -78.5q98 20 188 199q93 185 132 379z" />
    <glyph glyph-name="emptyset" unicode="&#x2205;" horiz-adv-x="1187" 
d="M1051 920h43l-113 -109q74 -83 68 -225q-9 -191 -113 -344q-102 -148 -251 -215.5t-302 -36.5q-96 21 -158 98l-88 -86h-41l115 109q-43 74 -45.5 185t35.5 202q41 111 101 194.5t128 126.5q125 80 244 92q180 21 287 -77zM459 479q-18 -70 -35 -162l395 379
q7 121 -30 170.5t-105 16.5q-65 -32 -125.5 -142.5t-99.5 -261.5zM805 598q6 31 8 53l-395 -379q-30 -251 67 -266q88 -16 177 154q89 166 143 438z" />
    <glyph glyph-name="product" unicode="&#x220f;" horiz-adv-x="1320" 
d="M-299 -442l799 1976h1069l-797 -1972h-29l787 1945h-1012l-788 -1947z" />
    <glyph glyph-name="summation" unicode="&#x2211;" horiz-adv-x="1208" 
d="M731 -174h-928l13 33l958 901l-264 809l14 35h965l-14 -33h-924l272 -807l-966 -907h886z" />
    <glyph glyph-name="minus" unicode="&#x2212;" horiz-adv-x="954" 
d="M156 690l12 27h706l-12 -27h-706z" />
    <glyph glyph-name="radical" unicode="&#x221a;" horiz-adv-x="1138" 
d="M1350 1432l-1215 -1850l-20 697h-123l12 28h150l14 -629l1147 1756z" />
    <glyph glyph-name="infinity" unicode="&#x221e;" horiz-adv-x="1441" 
d="M754 772l106 98q175 169 381 154q74 -4 114.5 -43t43.5 -96t-18.5 -122.5t-63.5 -125.5q-65 -91 -158 -144.5t-196 -52.5q-169 3 -187 183q-61 -67 -190 -136q-130 -68 -256 -65q-74 0 -119.5 31t-58 81t-3.5 109t39 119q56 121 162 184q107 67 217 64q46 -1 83.5 -20.5
t58.5 -43.5q19 -23 28 -61q13 -44 13 -58q1 -4 1.5 -11.5t1 -20.5t1.5 -23zM795 641q3 -77 233 -68q181 9 275 103q37 48 45 63q65 109 -31 150q-87 40 -211 -10l-23 -11q-63 -28 -120 -73q-55 -41 -86 -72q-5 -5 -20 -19.5t-30.5 -30.5t-31.5 -32zM371 592q107 7 203.5 51
t158.5 109q-12 75 -90 96q-53 15 -131 18q-112 5 -202.5 -34t-121.5 -117q-26 -63 18.5 -96.5t164.5 -26.5z" />
    <glyph glyph-name="integral" unicode="&#x222b;" horiz-adv-x="1425" 
d="M1427 1640q76 0 125 -22t67.5 -60.5t16.5 -86.5t-24 -103q-25 -61 -75.5 -99t-104.5 -38q-74 0 -84 60t57 132q102 102 84 166q-12 34 -64 37q-93 1 -162 -68t-130 -219l-172 -424h2l-424 -1046q-66 -165 -269 -266q-196 -98 -366 -39q-84 30 -111 102t0 131
q26 66 79 106t108 40q51 0 72.5 -27t11.5 -69.5t-46 -90.5q-38 -55 -49.5 -99t8.5 -70.5t72 -26.5q66 0 121.5 71t120.5 230l172 424h-2l399 987q43 107 111 183.5t147.5 115t155 55t153.5 14.5z" />
    <glyph glyph-name="approxequal" unicode="&#x2248;" horiz-adv-x="794" 
d="M115 664q37 90 110.5 140t147.5 44q53 -3 123 -57q70 -52 112 -52q123 0 189 97q-25 -75 -86.5 -124.5t-130.5 -49.5q-73 0 -140 55q-66 57 -137 57q-112 0 -188 -110zM35 489q37 88 110.5 139t147.5 46q53 -6 123 -58q68 -51 116 -51q126 0 187 94q-25 -76 -86.5 -125
t-132.5 -49q-73 3 -140 58t-135 55q-110 0 -190 -109z" />
    <glyph glyph-name="notequal" unicode="&#x2260;" horiz-adv-x="1220" 
d="M1206 862l-12 -28h-410l-297 -281h594l-10 -29h-614l-164 -155l-45 4l162 151h-310l11 29h329l299 281h-514l11 28h534l174 164l45 2l-176 -166h393z" />
    <glyph glyph-name="lessequal" unicode="&#x2264;" horiz-adv-x="985" 
d="M766 428l-594 291l836 309v-22l-779 -289l537 -264v-25zM47 332l-8 -19h706l9 19h-707z" />
    <glyph glyph-name="greaterequal" unicode="&#x2265;" horiz-adv-x="989" 
d="M348 1010l594 -291l-836 -309v22l779 289l-537 264v25zM786 332l-10 -19h-706l10 19h706z" />
    <glyph glyph-name="NULL" horiz-adv-x="0" 
 />
    <glyph glyph-name="CR" horiz-adv-x="681" 
 />
    <glyph glyph-name="zero.osf" horiz-adv-x="1230" 
d="M397 -20q219 15 412 165q194 153 264 383q80 259 -49 373q-128 115 -385 60q-222 -52 -395 -222q-171 -171 -211 -381q-11 -62 -9 -114t16 -89t36.5 -67.5t52.5 -49t63.5 -32.5t69 -18.5t70 -8t65.5 0.5zM799 582q-40 -190 -127 -369q-84 -172 -193 -207q-19 -3 -39.5 -3
t-38.5 11.5t-34 28.5t-27 48t-15.5 70t-0.5 94t18 120q34 177 117 348q83 170 172 211q69 29 111.5 13t60.5 -71t16.5 -130t-20.5 -164z" />
    <glyph glyph-name="one.osf" horiz-adv-x="903" 
d="M221 784l522 238l-135 -330l-45 -114l-108 -267l-56 -133q-11 -29 -14.5 -53.5t1.5 -41.5t13.5 -30.5t22.5 -22t26.5 -14.5t28.5 -9t26 -4.5t21 -2.5h11h-660q32 0 107 23q46 14 87.5 55.5t65.5 101.5l121 297l57 144q43 117 20 155.5t-112 7.5z" />
    <glyph glyph-name="two.osf" horiz-adv-x="991" 
d="M621 971q156 18 206 -72q53 -89 9 -197q-22 -52 -49 -90t-80 -84l-86 -73l-134 -99l-145 -106q-100 -75 -74 -84l21 -6q3 0 40 1t46 1h313l-364 -385q114 127 102 175t-166 48h-385q215 88 453 260q246 173 305 385q26 91 -19 141t-135 39q-56 -7 -129.5 -39.5
t-120.5 -66.5l-43 -31q19 26 90 90q50 46 99 84q55 41 122 72t124 37z" />
    <glyph glyph-name="three.osf" horiz-adv-x="1187" 
d="M952 643q-84 -209 -284 -311q258 -95 116 -420q-107 -242 -346 -358q-238 -118 -450 -56q-110 31 -157 132.5t-28 242.5q8 -100 75 -170t190 -80q126 -12 245 64q123 79 183 204q66 141 14 242q-50 105 -188 96q-23 -4 -45 -8.5t-31 -6t-10 -1.5q46 15 124 59
q73 39 121 74q64 46 125.5 111.5t95.5 132.5q46 79 28.5 149t-97.5 88q-169 46 -393 -116q234 214 465 223q168 9 231 -82q63 -87 16 -209z" />
    <glyph glyph-name="four.osf" horiz-adv-x="1357" 
d="M1159 213l-301 -211h-194l-82 -207l-361 -284l199 491h-604l1310 1143l-376 -932h409zM152 211h350l164 405q34 82 -7 76q-22 -3 -75 -47l-426 -373q-55 -55 -6 -61z" />
    <glyph glyph-name="five.osf" horiz-adv-x="1128" 
d="M250 580l-84 -140q-22 -36 -19 -41q9 -4 25 4q113 64 193 82q75 20 182 23q181 3 264 -111q81 -113 2 -309q-70 -174 -311 -344q-126 -90 -346 -176q-216 -84 -357 -121l-145 -35q294 86 532 260q241 174 318 353q85 205 -60 264q-46 17 -101 16.5t-102.5 -12.5
t-96 -32.5t-81.5 -39.5t-59 -37l-31 -22l478 782h688l-265 -227h-448q-46 0 -80 -21q-30 -19 -45.5 -38.5t-50.5 -77.5z" />
    <glyph glyph-name="six.osf" horiz-adv-x="1208" 
d="M647 1225q340 252 647 252q-225 -24 -456 -252q-166 -166 -254 -324q33 10 37 10q116 26 209.5 14t154.5 -61.5t80 -138t-16 -215.5q-68 -219 -263 -373t-393 -157q-147 0 -258 65q-64 38 -90.5 119.5t-3.5 193.5q105 492 606 867zM469 6q101 27 188 193q87 167 127 362
q14 75 14.5 138.5t-13 106t-37.5 68.5t-57.5 26.5t-74.5 -19.5q-101 -52 -178 -217q-76 -162 -106 -316q-12 -63 -15 -115.5t2 -89t15.5 -65t26 -44t33 -25.5t37 -8.5t38.5 5.5z" />
    <glyph glyph-name="seven.osf" horiz-adv-x="1159" 
d="M362 938h914q-279 -236 -553 -547q-97 -113 -172 -221t-109 -174q-7 -15 -71 -168l-70 -166q-59 -133 -168 -160q-82 -21 -117 33q-28 45 9 115q61 118 159 231q97 108 295 303q164 159 312 318q47 49 75 85.5t43 61.5t9 41t-13.5 25t-39 13t-53 4.5t-69.5 0.5h-4h-47
h-82q-180 0 -301 -41q-119 -40 -221 -160z" />
    <glyph glyph-name="eight.osf" horiz-adv-x="1159" 
d="M897 774q53 -33 88 -92q24 -38 31 -93t-9 -125.5t-55 -141.5q-94 -177 -305 -267q-208 -88 -414 -61q-169 21 -222 116.5t20 266.5q58 122 161.5 197t282.5 143q-37 22 -74 78q-34 55 -43 149q-9 96 58 209q88 161 252 242q170 83 323 71q153 -7 210 -101t-1 -235
q-86 -208 -393 -294q5 -2 16 -10.5t31.5 -23t42.5 -28.5zM641 1171q-29 -100 8.5 -177.5t149.5 -149.5q144 138 209 289q22 51 32.5 102.5t7 99.5t-33.5 79.5t-86 33.5q-60 1 -113.5 -27.5t-89.5 -79.5q-62 -91 -84 -170zM489 709q-142 -121 -219 -334q-24 -61 -31.5 -120.5
t2.5 -112.5t48.5 -87.5t103.5 -38.5q85 -4 155.5 38t108.5 112q73 137 76 256q3 101 -61 162q-31 31 -58 49q-32 24 -69 43q-45 25 -56 33z" />
    <glyph glyph-name="nine.osf" horiz-adv-x="1167" 
d="M651 928q32 0 63 -2.5t67 -10t66.5 -21t61.5 -34t51.5 -49t36 -66.5t15 -86.5t-10.5 -109.5q-94 -486 -604 -866q-339 -254 -649 -254q226 24 459 254q149 143 252 323q-10 -10 -33 -10q-245 -56 -373 51t-55 350q69 221 258 373q196 155 395 158zM711 559
q13 63 16.5 115.5t-1.5 89t-15.5 65t-26.5 43.5t-34 24.5t-37.5 8t-37.5 -5.5q-103 -27 -188 -190q-84 -167 -127 -363q-15 -75 -15.5 -138.5t12.5 -106t37 -68.5t58 -26.5t76 20.5q98 50 176 213q78 166 107 319z" />
    <glyph glyph-name="ampersand.001" horiz-adv-x="1871" 
d="M1616 993q53 0 86 -22.5t33 -63.5q0 -27 -16 -45t-42 -18q-37 0 -71 37t-84 37q-61 0 -131 -41q-36 -23 -115 -113q-15 -17 -55 -78l-52 -82l-57 -92l-55 -94q98 -137 143 -244q74 -171 74 -324q0 -243 -154 -432q-86 -105 -183.5 -152.5t-234.5 -47.5q-48 0 -88 4
q-60 6 -112 33t-86 64t-54.5 69.5t-29.5 58.5l-10 23q1 -1 4.5 -8t7 -12.5t12.5 -17.5t23 -26q113 -121 286 -121q246 0 396 193q151 195 151 450q0 210 -162 463q-158 -261 -215 -330q-150 -187 -344 -196h-24q-144 0 -254 90q-107 88 -107 254q0 69 27 137q30 68 66.5 118
t103.5 111q77 67 119 99l135 98q78 54 129 92q-152 190 -152 340q0 130 80 219q79 88 199 88q100 0 161 -58.5t62 -162.5q1 -92 -52.5 -174t-162.5 -178q-7 -6 -21.5 -17t-40 -30.5t-47.5 -36.5l285 -344q10 -11 60 -78l61 100l68 109l55 90q82 125 147 174q104 88 238 88z
M555 1204q0 -85 27.5 -158t103.5 -174l72 58q109 93 155 174t45 180q-1 69 -46 116t-113 52q-92 6 -168 -70q-76 -73 -76 -178zM500 -59q162 0 297 147q66 68 118 143q62 89 115 177q-12 22 -49 73q-58 86 -133 174q-32 42 -74 88l-84 103q-142 -103 -188 -139
q-158 -124 -232.5 -232t-74.5 -237t81.5 -213t223.5 -84z" />
    </font>
</defs>
</svg>
