<?xml version="1.0" standalone="no"?>
<!DOCTYPE svg PUBLIC "-//W3C//DTD SVG 1.1//EN" "http://www.w3.org/Graphics/SVG/1.1/DTD/svg11.dtd" >
<svg xmlns="http://www.w3.org/2000/svg" xmlns:xlink="http://www.w3.org/1999/xlink" version="1.1">
<metadata>
Created by FontForge 20170731 at Wed Jun 22 17:24:04 2022
 By Aleksey,,,
Copyright (c) 2017 by Rakel Tomas. All rights reserved.
</metadata>
<defs>
<font id="SilkSerif-Regular" horiz-adv-x="1021" >
  <font-face 
    font-family="Silk Serif"
    font-weight="400"
    font-stretch="normal"
    units-per-em="2048"
    panose-1="0 0 5 0 0 0 0 0 0 0"
    ascent="1507"
    descent="-541"
    x-height="922"
    cap-height="1434"
    bbox="-199 -1235 2312 1862.61"
    underline-thickness="102"
    underline-position="-307"
    unicode-range="U+0020-2265"
  />
<missing-glyph horiz-adv-x="937" 
d="M174 1434h594v-1874h-594v1874zM625 1247v62h-310v-62h121v-69h-123v-64h312v64h-125v69h125zM500 936v131h-187v-195h312v64h-125zM375 1004h61v-68h-61v68zM625 760v61h-312v-61h123v-70h-123v-61h187v131h125zM625 520v189h-62v-123h-250v-66h312zM625 268v211h-189
v-104h64v43h63v-88h-188v149h-62v-211h312zM625 -55v211h-312v-211h312zM375 94h188v-88h-188v88zM625 -162v64h-312v-64h131l-131 -88v-61h312v61h-193l131 88h62z" />
    <glyph glyph-name=".notdef" horiz-adv-x="937" 
d="M174 1434h594v-1874h-594v1874zM625 1247v62h-310v-62h121v-69h-123v-64h312v64h-125v69h125zM500 936v131h-187v-195h312v64h-125zM375 1004h61v-68h-61v68zM625 760v61h-312v-61h123v-70h-123v-61h187v131h125zM625 520v189h-62v-123h-250v-66h312zM625 268v211h-189
v-104h64v43h63v-88h-188v149h-62v-211h312zM625 -55v211h-312v-211h312zM375 94h188v-88h-188v88zM625 -162v64h-312v-64h131l-131 -88v-61h312v61h-193l131 88h62z" />
    <glyph glyph-name=".null" horiz-adv-x="0" 
 />
    <glyph glyph-name="nonmarkingreturn" horiz-adv-x="682" 
 />
    <glyph glyph-name="space" unicode=" " horiz-adv-x="565" 
 />
    <glyph glyph-name="exclam" unicode="!" horiz-adv-x="466" 
d="M229 287q0 211 -45 520q-12 89 -19.5 150t-14 127t-8.5 109t-1 86.5t7 69t16.5 46.5t27 30t39.5 9q64 0 84 -72t7 -207q-6 -60 -27 -206.5t-27 -194.5q-39 -301 -39 -467zM229 287v-8v8zM319 86q0 -37 -27 -64.5t-65 -27.5t-66 27.5t-28 64.5q0 38 28 66t66 28t65 -28
t27 -66z" />
    <glyph glyph-name="quotedbl" unicode="&#x22;" horiz-adv-x="487" 
d="M250 1483q31 1 45 -23.5t8 -64.5l-47 -305l-2 6v-6l-53 309q-6 35 8.5 59.5t40.5 24.5z" />
    <glyph glyph-name="numbersign" unicode="#" horiz-adv-x="1273" 
d="M1221 899l-4 -20h-287l-121 -371h285l-4 -23h-289l-162 -497h-33l162 497h-373l-162 -497h-32l161 497h-329l4 23h334l121 371h-338l4 22h340l161 496h33l-162 -496l375 -2l162 498h31l-162 -498h285zM403 508h373l121 371h-373z" />
    <glyph glyph-name="dollar" unicode="$" horiz-adv-x="1153" 
d="M668 1417v-588q200 -40 291 -157.5t77 -284.5q-12 -148 -118 -248q-105 -102 -250 -129v-104h-21v743q-67 15 -86 17q-11 1 -45 8v-768h-18v98h-4q-127 15 -254 98q-159 108 -150 308q0 74 34.5 129t96.5 55t82 -51t0 -90q-15 -26 -53 -54q-39 -29 -45 -67
q-14 -100 46 -180t175 -115q42 -15 72 -17v658q-167 40 -249.5 150.5t-74.5 256.5q12 132 99 222t225 120v82h18v-651q69 -18 105 -20q3 -1 13 -2t13 -2v675h21v-71q278 -24 331 -258q14 -71 -10.5 -125t-79.5 -54q-50 0 -81.5 31.5t-26.5 71.5q3 30 35 67q33 39 30 86
q-9 98 -123 142q-40 13 -75 18zM389 1372q-49 -29 -81.5 -80t-39.5 -112t10.5 -121t74 -113t145.5 -82v549q-60 -14 -109 -41zM948 305q9 261 -280 340v-618q122 24 199 98t81 180z" />
    <glyph glyph-name="percent" unicode="%" horiz-adv-x="1351" 
d="M401 870q-31 -1 -62 2.5t-70 17.5t-70.5 37.5t-58 67t-38.5 101.5q-25 123 34.5 220t178.5 128q144 33 243 -33t112 -215q13 -135 -63.5 -226.5t-205.5 -99.5zM578 1208q-24 128 -92 190.5t-164 33.5q-87 -27 -115 -121q-26 -87 -10 -187q22 -129 87 -189.5t148 -47.5
q95 10 132.5 99.5t13.5 221.5zM211 0h-39l940 1436h35zM977 -6q-31 -1 -62 2.5t-70 17t-70.5 37t-58 67t-38.5 101.5q-25 123 34.5 220t178.5 128q144 33 242.5 -33t111.5 -215q13 -135 -63 -226t-205 -99zM1153 332q-24 128 -92 190t-164 33q-90 -27 -117 -123
q-26 -92 -8 -186q22 -129 87 -189t149 -49q95 12 132 102t13 222z" />
    <glyph glyph-name="ampersand" unicode="&#x26;" horiz-adv-x="1554" 
d="M1327 88q67 -5 119.5 36t71.5 112q-6 -90 -68 -170q-58 -79 -166 -82q-90 -2 -152 29t-120 114l-113 162q-122 -166 -211 -238q-93 -75 -231 -78q-151 -3 -252 82q-104 90 -101 248q-11 109 107 252q18 23 76 68l78 57l94 59l88 56l-23 32q-108 150 -129 209
q-28 76 -28 156q1 131 94 206t233 77q109 3 201 -64q87 -63 90 -184q3 -187 -178 -301q-9 -6 -58.5 -36t-64.5 -40l297 -418l92 123q78 111 101 184.5t-3.5 116t-101.5 64.5h410q-57 0 -136 -54q-50 -35 -94 -90q-48 -61 -110 -155q-52 -80 -115 -162l-33 -43l117 -164
l66 -86q71 -76 153 -78zM502 1210q6 -81 39 -145q35 -65 118 -180l15 -19q43 32 65 54q144 135 135 327q-5 91 -52.5 153t-129.5 62q-100 2 -150 -62.5t-40 -189.5zM504 109q178 -9 379 204l-326 467l-51 -39q-131 -104 -188.5 -187.5t-57.5 -193.5q0 -109 64.5 -179.5
t179.5 -71.5z" />
    <glyph glyph-name="quotesingle" unicode="'" horiz-adv-x="329" 
d="M215 1395l-47 -305l-53 309q-7 35 7 59.5t40 24.5q31 1 45 -23.5t8 -64.5z" />
    <glyph glyph-name="parenleft" unicode="(" horiz-adv-x="524" 
d="M426 -336l25 -39q-54 33 -146 168q-58 88 -100 180q-50 106 -82.5 255t-32.5 302q0 161 33.5 316.5t85.5 263.5q45 95 102.5 176.5t94 118.5t43.5 33q-31 -36 -87 -148q-33 -67 -73 -182q-31 -97 -58 -254q-26 -150 -26 -324q0 -151 24.5 -301.5t61.5 -259.5
q78 -223 135 -305z" />
    <glyph glyph-name="parenright" unicode=")" horiz-adv-x="532" 
d="M47 -375l27 39q58 90 131 305q39 108 63.5 258.5t24.5 302.5q0 168 -27 324q-30 176 -59 254q-30 98 -74 182q-55 115 -84 148q7 4 43.5 -33t93 -118.5t101.5 -176.5q53 -107 87 -263t34 -317q0 -153 -32.5 -302t-82.5 -255q-43 -94 -103 -180q-89 -135 -143 -168z" />
    <glyph glyph-name="asterisk" unicode="*" horiz-adv-x="735" 
d="M365 1419q48 3 38 -78l-34 -174l-90 -163q-40 -57 -78 -29q-39 33 26 86l140 106l-181 39q-31 4 -47 23.5t-8 38.5q13 23 38.5 22t51.5 -22l146 -101l2 2l-41 181q-6 31 4 50t33 19zM602 1266q7 -25 -8 -42t-47 -22l-178 -35l153 107q26 17 47.5 14.5t32.5 -22.5z
M532 971q-19 -14 -40.5 -4t-38.5 41l-84 159l145 -116q52 -43 18 -80z" />
    <glyph glyph-name="plus" unicode="+" horiz-adv-x="1107" 
d="M567 727h424v-22h-424v-431h-22v431h-428v22h428v422h22v-422z" />
    <glyph glyph-name="comma" unicode="," horiz-adv-x="407" 
d="M250 174q47 -18 56.5 -104.5t-28.5 -184.5t-110 -141q49 43 75.5 124t12.5 150q-18 -15 -47 -18q-41 -4 -71 20.5t-32 63.5q-4 38 20 67.5t62 34.5q35 3 62 -12z" />
    <glyph glyph-name="hyphen" unicode="-" horiz-adv-x="860" 
d="M117 541v22h626v-22h-626z" />
    <glyph glyph-name="period" unicode="." horiz-adv-x="421" 
d="M119 86q0 38 28 66t66 28t66 -28t28 -66q0 -37 -28 -64.5t-66 -27.5t-66 27.5t-28 64.5z" />
    <glyph glyph-name="slash" unicode="/" horiz-adv-x="765" 
d="M88 -12h-29l559 1448h29z" />
    <glyph glyph-name="zero" unicode="0" horiz-adv-x="1329" 
d="M690 1440q132 1 235.5 -62t161.5 -174q113 -216 113 -502q-3 -191 -65 -348q-64 -167 -189 -269.5t-276 -102.5q-136 0 -246.5 67.5t-175.5 181.5q-124 223 -121 494q3 308 158 510q158 202 405 205zM1038 690q-15 306 -118 508q-102 200 -256 209q-180 12 -279 -178
q-97 -192 -82 -484q12 -296 123 -505q112 -207 272 -222q76 -7 138 31t101 105.5t64 157.5t33.5 185.5t3.5 192.5z" />
    <glyph glyph-name="one" unicode="1" horiz-adv-x="653" 
d="M412 1008v-861q0 -49 21 -84t54 -47q54 -16 86 -16h-471q12 0 23.5 1t37 9t43.5 21.5t33 44t15 71.5v826q-3 52 0 168q0 68 -19 103t-51 34t-75 -25l305 215q0 -85 -1 -202.5t-1 -143.5v-114z" />
    <glyph glyph-name="two" unicode="2" horiz-adv-x="1083" 
d="M477 123h133q180 0 267 35q87 37 124 153l-96 -311h-850q228 172 449 434q139 167 205 305q64 134 55 303q-9 142 -117 224q-105 80 -239 59q-61 -10 -116.5 -38t-94 -63.5t-63 -64t-38.5 -53.5l-12 -21q20 53 55 115q37 62 74 105q44 50 116 90.5t148 50.5
q209 24 326 -96q119 -119 119 -279q0 -77 -17.5 -138t-66.5 -132q-67 -97 -84 -119q-51 -64 -131 -154q-114 -128 -146 -166q-155 -181 -137 -219q11 -20 115 -20h22z" />
    <glyph glyph-name="three" unicode="3" horiz-adv-x="1132" 
d="M760 817q136 -37 209.5 -139t72.5 -258q-3 -226 -178 -352q-176 -123 -418 -74q-253 52 -342 354q46 -87 123 -164q99 -93 267 -102q152 -9 258 74q104 85 110 243q9 171 -102 273q-108 99 -266 78q-4 0 -9 -1t-6 -1l21 6q66 25 155 94q53 43 88 110t41 146
q9 105 -57 186q-65 83 -188 86q-203 9 -338 -151q123 212 356 227q182 12 277 -80q99 -91 102 -215q9 -232 -176 -340z" />
    <glyph glyph-name="four" unicode="4" horiz-adv-x="1249" 
d="M1249 467l-133 -137h-227v-256l-150 -168v424h-665l815 1143v-1006h360zM276 465l463 2v635q0 61 -22 65.5t-53 -41.5l-412 -585q-49 -73 24 -76z" />
    <glyph glyph-name="five" unicode="5" horiz-adv-x="1105" 
d="M248 1159l-49 -229q-12 -55 -2 -62q3 -3 28 9q86 62 158 84t170 24q180 3 299 -104q121 -109 121 -303q0 -187 -158 -345q-99 -99 -274 -180q-172 -79 -308 -119l-131 -34q287 93 490 262q200 167 203 379q2 127 -63 210t-193 95q-75 10 -145 -1t-120 -36.5t-82 -48.5
t-51 -45l-16 -19l158 740h639l-109 -148h-446q-38 0 -58 -7.5t-33 -29.5q-15 -25 -28 -92z" />
    <glyph glyph-name="six" unicode="6" horiz-adv-x="1202" 
d="M403 1239q236 254 537 254q-120 -14 -237.5 -84t-204.5 -207q-109 -167 -150 -350q57 48 146 70q223 58 395 -50q172 -105 196 -352q21 -228 -108 -381q-129 -156 -338 -159q-409 -3 -500 380q-35 145 2 377q21 124 89.5 258t172.5 244zM686 4q142 15 199 174
q54 156 24 365q-30 198 -147 303q-112 106 -262 53q-131 -49 -172 -203q-41 -156 -15 -319q38 -216 148 -301q113 -87 225 -72z" />
    <glyph glyph-name="seven" unicode="7" horiz-adv-x="1101" 
d="M172 1438h901q-169 -230 -319 -547q-60 -130 -88 -211q-38 -112 -50 -174q-9 -50 -16 -76l-10 -82l-8 -74q0 -4 -1 -13t-2.5 -29.5t-3.5 -38.5l-2 -38l-1.5 -28.5t-0.5 -11.5q-9 -106 -77 -123q-58 -12 -88 41q-18 27 -15 69q12 117 74 275q61 156 117 264q16 30 194 360
q40 68 63.5 116.5t37.5 83t9 56t-11 34t-35.5 17.5t-51 6t-69.5 1h-2h-45h-187q-177 0 -264 -37q-86 -35 -129 -154z" />
    <glyph glyph-name="eight" unicode="8" horiz-adv-x="1159" 
d="M670 817l135 -69q111 -54 188 -166q77 -109 62 -254q-15 -180 -191 -279q-174 -94 -391 -67q-180 21 -283 133q-98 110 -77 272q14 139 129 227q92 69 229 129q-104 47 -197 154q-94 108 -79 260q15 155 147 238q133 83 301 71q158 -7 252.5 -99.5t89.5 -229.5
q-9 -207 -315 -320zM332 1171q6 -115 82.5 -194.5t234.5 -151.5q196 149 205 308q6 121 -61 215q-67 99 -197 102q-130 4 -199.5 -74t-64.5 -205zM492 733q-208 -134 -226 -348q-9 -149 76 -262q87 -112 250 -121q88 -4 154 20.5t102.5 68t53.5 100.5t12.5 119.5
t-27.5 123.5q-40 105 -139 168q-45 32 -89 51q-43 24 -94 45q-64 29 -73 35z" />
    <glyph glyph-name="nine" unicode="9" horiz-adv-x="1161" 
d="M772 217q-243 -258 -541 -258q117 13 237 86t210 209q109 166 151 358q-49 -44 -143 -69q-221 -59 -391 47q-171 109 -195 350q-21 219 109 373q132 153 334 162q147 9 284 -64q75 -38 130 -118t79 -195q34 -153 4 -367q-18 -125 -86.5 -259.5t-181.5 -254.5zM494 1452
q-91 -15 -150 -98q-53 -76 -66.5 -194.5t3.5 -241.5q27 -196 143 -300q115 -103 258 -51q93 35 141 127q31 60 41.5 135t7.5 123t-12 131q-42 226 -143 306q-104 84 -223 63z" />
    <glyph glyph-name="colon" unicode=":" horiz-adv-x="446" 
d="M293 776q-26 -26 -65 -26t-68 26q-26 29 -26 68t26 65q29 26 68 26t65 -26t26 -65t-26 -68zM133 86q0 38 28 66t66 28t65 -28t27 -66q0 -37 -27 -64.5t-65 -27.5t-66 27.5t-28 64.5z" />
    <glyph glyph-name="semicolon" unicode=";" horiz-adv-x="425" 
d="M303 776q-26 -26 -65 -26t-68 26q-29 29 -29 68t29 65q29 29 68 29t65 -29q26 -26 26 -65t-26 -68zM336 123q34 -70 0 -193q-34 -124 -123 -186q49 43 76 125q28 86 14 149q-21 -15 -49 -18q-39 -5 -68.5 19t-33.5 65q-4 38 19.5 67.5t61.5 34.5q36 4 64 -13t39 -50z" />
    <glyph glyph-name="less" unicode="&#x3c;" horiz-adv-x="868" 
d="M23 672l710 291v-25l-651 -268l651 -283v-25z" />
    <glyph glyph-name="equal" unicode="=" horiz-adv-x="1097" 
d="M117 856v23h864v-23h-864zM117 537v22h864v-22h-864z" />
    <glyph glyph-name="greater" unicode="&#x3e;" horiz-adv-x="944" 
d="M117 963l710 -291l-710 -310v25l651 283l-651 268v25z" />
    <glyph glyph-name="question" unicode="?" horiz-adv-x="913" 
d="M426 272q-19 127 14 248q38 140 84 217q43 73 94 199q44 112 41 197q-5 131 -69 207.5t-170 76.5q-86 -2 -145 -45.5t-58 -118.5q3 -23 29 -67q27 -47 30 -70q6 -47 -21 -81t-71 -34q-38 0 -65 35.5t-27 85.5q-3 110 84 207q89 100 242 109q173 9 282 -78
q112 -89 109 -248q0 -92 -61 -205q-53 -101 -132 -200q-75 -94 -131 -209q-59 -121 -59 -226zM334 86q0 -37 28 -64.5t66 -27.5t65 27.5t27 64.5q0 38 -27 66t-65 28t-66 -28t-28 -66z" />
    <glyph glyph-name="at" unicode="@" horiz-adv-x="1439" 
d="M770 283l152 403q25 80 22 133q-3 88 -82 88q-59 0 -139 -65q-79 -66 -133 -166q-84 -159 -84 -289q0 -107 67 -119q62 -12 121 29q65 46 90 92l29 47q0 -2 -12.5 -29t-37.5 -68t-57.5 -80t-79 -67t-94.5 -28q-70 0 -107.5 47.5t-37.5 128.5q0 133 70 264
q177 331 426 316q72 -3 114 -66l93 51l-201 -590q-19 -32 -19 -73q3 -44 45 -41q146 9 254 135q109 127 109 330q0 166 -133 305q-134 140 -330 137q-146 -1 -269 -59.5t-198 -157.5q-151 -199 -151 -436q0 -230 137 -361q138 -132 356 -129q367 0 584 289
q-104 -169 -264.5 -268.5t-370.5 -100.5q-263 -3 -408 162q-143 162 -143 393q0 308 203 523q206 218 518 221q234 3 385 -133q154 -139 145 -363q-4 -126 -51 -232t-121 -171q-150 -128 -295 -131q-66 -4 -94 31.5t-8 97.5z" />
    <glyph glyph-name="A" unicode="A" horiz-adv-x="1277" 
d="M627 1477l506 -1299q26 -68 75 -117q30 -27 55 -40.5t38 -16.5t36 -4h-549q15 0 62 16q30 10 47 31q48 72 14 139l-145 400h-473l-133 -350q-26 -64 -21 -114.5t46.5 -83.5t113.5 -38h-405q72 5 134 67.5t105 174.5l488 1253zM535 1149q-27 0 -86 -156l-146 -387l455 2
l-152 426q-44 115 -71 115zM1346 0h-9h9z" />
    <glyph glyph-name="B" unicode="B" horiz-adv-x="1308" 
d="M821 745q53 0 102.5 -8t105 -33t96 -64.5t67.5 -108t27 -158.5q0 -123 -48.5 -197t-134.5 -121q-46 -27 -112 -39q-113 -18 -228 -18l-659 2q43 0 108 23q40 14 65.5 55t25.5 96v1092q-1 45 -21.5 81t-48.5 50q-23 14 -60 24q-40 13 -69 13l618 4q233 0 348 -83t115 -263
q0 -148 -80 -241.5t-217 -105.5zM426 1419v-671q160 0 223 8q159 12 223 110q63 100 60 234q-3 207 -146 268q-127 60 -360 51zM1020 358q3 356 -375 365q-77 5 -219 2v-541q0 -86 49 -131q26 -18 55 -26q52 -11 119 -11q60 -1 112.5 8.5t100 34t82 63t55 99t21.5 137.5z
" />
    <glyph glyph-name="C" unicode="C" horiz-adv-x="1456" 
d="M291 741q21 -278 196 -450q177 -171 424 -174q94 0 179 27t135 67q106 88 131 149l12 29q-1 -2 -3.5 -11t-5.5 -17t-8.5 -21t-15.5 -32t-24 -42q-30 -53 -82 -112q-52 -55 -137.5 -100t-178.5 -58q-176 -24 -332.5 25.5t-261.5 154.5q-102 102 -160 237.5t-63 278.5
q-4 170 51.5 313t155.5 236q197 185 488 207q143 10 268 -16q69 -12 134 -37.5t95 -46.5l27 -17l-2 -293q-117 231 -326 330q-242 110 -452 -12q-131 -78 -195 -242q-64 -166 -49 -373z" />
    <glyph glyph-name="D" unicode="D" horiz-adv-x="1454" 
d="M1352 766q6 -155 -36 -294t-124 -243.5t-208 -166t-279 -62.5h-123h-564q39 0 103 20q39 14 63.5 53t24.5 93v1094q0 59 -24.5 99t-63.5 52q-65 23 -103 23h580q184 2 312.5 -27.5t228.5 -101.5q204 -143 213 -539zM709 25q219 13 330.5 207.5t105.5 535.5
q-3 375 -176 518q-78 66 -167 95.5t-208 31.5q-122 0 -184 -4v-1216q0 -97 44.5 -133.5t151.5 -36.5q93 0 103 2z" />
    <glyph glyph-name="E" unicode="E" horiz-adv-x="1333" 
d="M1044 143q69 50 123.5 105t73.5 88l19 31l-89 -367h-1130q33 0 98 25q36 14 59 52.5t23 92.5v1100q0 54 -23 91.5t-61 49.5q-60 23 -96 23h1059l71 -328q-16 31 -77 98q-66 73 -127 113q-84 57 -166 76q-76 20 -260 20h-127v-657h114q69 1 123 21t85 51.5t46.5 56
t24.5 49.5l6 20v-424q-5 25 -31 70q-29 55 -90.5 94t-163.5 39h-114v-538q0 -47 10.5 -81t25.5 -52t37.5 -28.5t39.5 -13t38 -2.5h129q182 0 350 125z" />
    <glyph glyph-name="F" unicode="F" horiz-adv-x="1241" 
d="M53 1434h1053l76 -334q-11 32 -70 100q-58 69 -121 113q-64 40 -94 51q-42 21 -130.5 35t-205.5 14h-143v-143v-115v-399h141q68 2 120.5 22.5t82.5 52t45 55.5t24 50l7 20v-432q-6 28 -31 72q-28 56 -89.5 96.5t-158.5 40.5h-141v-573q0 -52 21.5 -87.5t58.5 -49.5
q60 -23 96 -23h-541q35 0 94 20q36 14 58 50.5t22 89.5v37v106v936v35q0 53 -22 89t-58 48q-60 23 -94 23z" />
    <glyph glyph-name="G" unicode="G" horiz-adv-x="1525" 
d="M1006 594h467q-4 0 -15.5 -2.5t-33.5 -12.5t-41 -26.5t-33.5 -49t-14.5 -75.5v-448q-15 65 -67 120q-53 59 -90 62q-50 -50 -54 -53q-41 -41 -77 -64q-115 -72 -269 -72q-322 0 -504 209q-180 207 -180 527q0 156 50 285t134 214.5t193.5 142.5t228.5 78t240 11
q210 -18 385 -123l-4 -322q-15 40 -49 92q-43 65 -109 134q-75 81 -162 125q-244 120 -448 10q-135 -68 -203 -237t-51 -404q18 -303 172 -486q156 -178 365 -190q148 -6 235 63q121 83 121 312v10q0 64 -44.5 108.5t-94.5 53.5z" />
    <glyph glyph-name="H" unicode="H" horiz-adv-x="1488" 
d="M1278 1260v-1086q0 -58 22 -97.5t58 -53.5q63 -23 96 -23h-539q20 0 56 4q36 7 73 50t41 108v573h-696v-561q0 -58 22 -97.5t58 -53.5q60 -23 94 -23h-538q19 0 55 4q37 7 75 50t42 108v1098q0 58 -22 97.5t-58 53.5q-60 23 -94 23h540q-34 0 -94 -23q-36 -14 -58 -53.5
t-22 -97.5v-502h696v502q0 59 -20.5 98t-56.5 53q-60 23 -95 23h541q-33 0 -96 -23q-36 -14 -58 -53.5t-22 -97.5z" />
    <glyph glyph-name="I" unicode="I" horiz-adv-x="686" 
d="M432 1260v-1086q0 -47 17.5 -82t39.5 -52t52 -27t45.5 -11.5t29.5 -1.5h-557q36 0 99 23q38 14 61 54.5t23 96.5v1086q0 58 -23 97.5t-61 53.5q-63 23 -99 23h557q-37 0 -100 -23q-38 -14 -61 -53.5t-23 -97.5z" />
    <glyph glyph-name="J" unicode="J" horiz-adv-x="899" 
d="M506 328v946q0 53 -20 89t-56 48q-55 23 -90 23h524q-32 0 -92 -23q-34 -13 -55 -49t-21 -88v-934q0 -206 -118 -281q-97 -63 -226 -63q-35 0 -72 5.5t-81.5 21t-79 40t-58.5 66t-26 94.5q0 43 26.5 75t67.5 32q58 0 82 -44t10 -108q-13 -71 25 -118.5t106 -47.5
q88 0 121 72.5t33 243.5z" />
    <glyph glyph-name="K" unicode="K" horiz-adv-x="1302" 
d="M389 1274v-1114q0 -52 22 -87.5t56 -49.5q60 -23 96 -23h-540q37 0 92 23q37 14 58.5 49.5t21.5 87.5v1114q0 53 -21 89t-57 48q-60 23 -94 23h540q-34 0 -94 -23q-36 -12 -58 -48t-22 -89zM680 762l410 -520q66 -84 137 -147t112 -83l35 -14l-327 4q-78 78 -152 174
l-356 467q-33 30 -62 29.5t-55 -23.5l-25 -20l469 559q68 83 33 158q-34 75 -121 84h459h-4q-123 -37 -248 -146q-31 -24 -86 -92q-10 -12 -54 -65t-71 -87l-86 -106q-42 -53 -43 -89.5t35 -82.5z" />
    <glyph glyph-name="L" unicode="L" horiz-adv-x="1243" 
d="M561 18h88q187 0 344 109q160 109 207 242l-78 -369h-1097q35 0 98 23q38 18 61 59t23 100v1078q0 58 -22 97.5t-58 53.5q-60 23 -94 23h540q-33 0 -96 -23q-36 -14 -58 -53.5t-22 -97.5v-1059q0 -99 40.5 -141t123.5 -42z" />
    <glyph glyph-name="M" unicode="M" horiz-adv-x="1951" 
d="M1726 1243v-1061q0 -58 23 -97.5t61 -57.5q58 -27 101 -27h-563q43 0 98 27q82 40 82 155v901q0 120 -25 123q-16 0 -51 -78l-10 -20l-481 -1128l-605 1159q-41 73 -64.5 62t-23.5 -97l-2 -823q0 -73 24 -133t58 -89q33 -26 74 -41q57 -18 86 -18h-492q33 0 84 18
q62 26 104 90t42 177v839q0 72 -17.5 130t-42 90.5t-54 54t-50 28.5t-33.5 7l-8 2h385l520 -998q39 -72 66 -95t52 -3.5t56 90.5l434 1004h344q-8 0 -22.5 -2t-42 -13.5t-50 -30t-40 -56.5t-17.5 -89z" />
    <glyph glyph-name="N" unicode="N" horiz-adv-x="1503" 
d="M1227 520v660q0 79 -27.5 135t-73.5 80q-66 36 -122 39h464q-54 -3 -120 -39q-45 -24 -72 -80t-27 -135v-1205h-2l-16 25l-879 1169q-45 54 -65 -2q-8 -24 -8 -65v-838q0 -56 16 -101.5t38 -72t51.5 -46.5t51 -27.5t43.5 -12.5l25 -4h-473q27 0 78 23q147 63 147 243v836
q0 78 -17.5 140t-41.5 96.5t-53 57.5t-49.5 30.5t-33.5 7.5l-8 2h348l736 -981q40 -58 67 -52q23 3 23 117z" />
    <glyph glyph-name="O" unicode="O" horiz-adv-x="1656" 
d="M860 1450q174 0 309.5 -64.5t212.5 -177.5q157 -222 148 -503q-9 -317 -207 -521q-201 -207 -522 -204q-176 0 -317.5 67.5t-225.5 183.5q-165 234 -156 498q3 328 220 524q215 197 538 197zM1311 711q-9 289 -156 499q-144 205 -360 205q-227 6 -359 -176
q-132 -181 -117 -491q15 -289 166 -502q153 -215 361 -230q249 -21 364 170q119 192 101 525z" />
    <glyph glyph-name="P" unicode="P" horiz-adv-x="1185" 
d="M1047 1266q76 -129 49 -287q-25 -160 -125 -238q-190 -146 -545 -88q495 -21 498 391q1 208 -104 296t-312 83q-37 0 -119 -4v-1243q0 -58 23 -98.5t61 -54.5q63 -23 98 -23h-557q36 0 99 23q38 14 61 54.5t23 98.5v1106q0 50 -22 84.5t-58 46.5q-62 21 -94 21
q15 0 241 4q230 4 244 4q231 2 352.5 -35t186.5 -141z" />
    <glyph glyph-name="Q" unicode="Q" horiz-adv-x="1642" 
d="M885 1450q174 0 309.5 -64.5t212.5 -177.5q156 -221 147 -503q-9 -318 -206 -521q-201 -207 -523 -204q-176 0 -317 67.5t-225 183.5q-165 234 -156 498q3 329 219 524q215 197 539 197zM1335 711q-9 288 -155 497q-145 207 -359 207q-228 6 -360 -176
q-132 -181 -117 -491q15 -289 166 -502q153 -215 360 -230q249 -21 365 170q118 191 100 525zM592 -51q59 -4 120.5 -34.5t106.5 -70.5q123 -110 215 -141q91 -39 207 -14q113 24 178 116q-101 -226 -342 -223q-80 1 -157 37.5t-132 89.5q-54 54 -121.5 98t-131.5 56
q-89 16 -177 -10t-139 -74q151 185 373 170z" />
    <glyph glyph-name="R" unicode="R" horiz-adv-x="1241" 
d="M926 508l184 -313q36 -64 90.5 -116t93.5 -67l35 -12h-303q-63 69 -139 209l-187 321q-64 114 -159 148q-40 12 -66 12q-16 2 -33 2h-67l-2 -565q0 -53 35 -88q23 -19 45.5 -28t34 -10t36.5 -1h-518q35 0 94 20q36 14 58 50.5t22 89.5v1114q0 53 -23 90t-61 49
q-62 21 -90 21q26 0 260 4q191 7 260 4q210 -2 323 -36.5t173 -123.5q62 -82 59 -215q-6 -179 -139 -285q-88 -73 -192 -82q83 -25 176 -192zM561 725q159 18 244.5 109.5t87.5 236.5q1 208 -125.5 287t-394.5 65l2 -708q108 0 186 10z" />
    <glyph glyph-name="S" unicode="S" horiz-adv-x="1222" 
d="M1044 1354l3 -289q-38 96 -164 213q-109 106 -250 135q-143 30 -250 -31q-59 -36 -85.5 -104.5t-14.5 -144.5q35 -211 354 -279q291 -61 408 -178.5t94 -319.5q-15 -197 -158 -293q-142 -92 -336 -92q-329 3 -536 156l-5 389q65 -179 203 -311q141 -132 309 -172
q169 -35 289 16q125 52 131 201q6 130 -94 227t-377 162q-244 59 -332 166q-90 113 -81 272q6 174 143 275q138 105 350 102q100 0 200 -23.5t154 -52.5z" />
    <glyph glyph-name="T" unicode="T" horiz-adv-x="1382" 
d="M92 1434h1188l53 -344q-50 114 -139 200q-127 121 -332 121h-74v-1229q0 -59 24.5 -100t64.5 -59q65 -23 104 -23h-573q37 0 102 23q40 18 64 59t24 100v1229h-86q-201 0 -332 -125q-73 -65 -131 -168l-16 -33z" />
    <glyph glyph-name="U" unicode="U" horiz-adv-x="1398" 
d="M1186 612v576q0 73 -24.5 128t-63.5 79q-56 36 -109 39h404q-41 -3 -101 -41q-38 -24 -61 -80t-23 -133v-580q0 -614 -481 -614q-285 0 -412 184q-71 115 -96 264q-18 123 -18 301v492q0 56 -16.5 97.5t-38 61.5t-50 32t-44 14t-29.5 2h559q-15 0 -31 -2t-45.5 -14
t-51 -32t-38.5 -61.5t-17 -97.5v-609q0 -262 95 -413t301 -148q199 5 295 139.5t96 415.5z" />
    <glyph glyph-name="V" unicode="V" horiz-adv-x="1484" 
d="M764 -33l-588 1313q-77 154 -237 154h190h248h196l-22 -4q-17 -2 -34.5 -6.5t-37.5 -13.5t-35 -24t-25 -35t-9 -50t14 -66l340 -797q44 -96 84 -96q26 0 45 29q15 19 65 139l261 653q48 129 6.5 197.5t-164.5 73.5h446q-84 -18 -144 -75t-112 -179z" />
    <glyph glyph-name="W" unicode="W" horiz-adv-x="2267" 
d="M1827 1434h457q-175 -30 -263 -254l-479 -1233l-405 921l-367 -921q-152 345 -310.5 704.5t-216 489.5t-61.5 139q-71 154 -227 154h186h434q-26 0 -70 -17q-117 -47 -79 -165q3 -10 8 -21q95 -241 336 -793q50 -96 82 -96q26 0 44.5 23.5t53.5 107.5l172 428l-168 379
q-71 154 -227 154h186h435q-3 0 -13 -1t-29 -6.5t-38 -13.5t-37 -23.5t-28.5 -36t-10.5 -52.5t14 -70l336 -793q47 -96 82 -96q24 0 43 27.5t51 107.5l271 686q48 117 4 192t-166 79z" />
    <glyph glyph-name="X" unicode="X" horiz-adv-x="1409" 
d="M1505 0h-637q33 0 76 16q39 17 64 60q25 42 -21 106q-5 4 -51 72l-131 190q-52 78 -160 230l-278 -389q-85 -122 -57.5 -194t159.5 -91h-524q206 45 372 266l314 430q-386 554 -404 574q-63 81 -130.5 122.5t-116.5 41.5l593 -2q-85 -5 -107.5 -60.5t34.5 -146.5
l266 -387l219 305q37 51 54 97.5t13 87t-40 68.5t-103 38h465q-169 -24 -334 -250l-260 -369q246 -360 336 -477q132 -177 219 -258q86 -74 170 -80z" />
    <glyph glyph-name="Y" unicode="Y" horiz-adv-x="1185" 
d="M877 1434h397q-156 -34 -262 -224l-242 -436q-53 -100 -53 -225v-381q0 -68 39 -107q24 -26 49.5 -40t42 -17t41.5 -4h-539q31 0 62 8q41 12 77.5 54t36.5 98l2 366q0 110 -49 189l-323 553q-50 80 -117 123t-117 43l539 -2q-79 -4 -105 -60t17 -129l272 -477
q49 -82 100 10l222 398q61 100 37.5 171.5t-127.5 88.5z" />
    <glyph glyph-name="Z" unicode="Z" horiz-adv-x="1320" 
d="M442 18h80q281 6 492 162q62 47 119 113t84 113l20 38l-102 -444h-1112l856 1274q51 74 33.5 106.5t-105.5 32.5h-82q-275 0 -449 -131q-52 -38 -104.5 -96t-81.5 -103l-22 -39l102 390h1038q-16 -21 -422 -631q-386 -577 -436 -658q-83 -127 92 -127z" />
    <glyph glyph-name="bracketleft" unicode="[" horiz-adv-x="587" 
d="M182 1434l359 -2l-291 -56v-1661l291 -55l-359 -4v1778z" />
    <glyph glyph-name="backslash" unicode="\" horiz-adv-x="729" 
d="M633 -12h-29l-557 1448h27z" />
    <glyph glyph-name="bracketright" unicode="]" horiz-adv-x="532" 
d="M29 1434l358 2v-1778l-358 4l290 55v1661z" />
    <glyph glyph-name="asciicircum" unicode="^" horiz-adv-x="808" 
d="M414 1262l291 -527l-293 461l-308 -440z" />
    <glyph glyph-name="underscore" unicode="_" 
d="M104 4v23h814v-23h-814z" />
    <glyph glyph-name="grave" unicode="`" horiz-adv-x="507" 
d="M18 1294l172 -245l-249 174q-39 29 -49 63.5t12 46.5q23 25 54 14.5t60 -53.5z" />
    <glyph glyph-name="a" unicode="a" 
d="M983 115q24 3 35 39q-11 -36 -21.5 -60t-30 -52.5t-51 -43t-73.5 -14.5q-142 0 -142 168v395q-196 -60 -301 -119q-128 -68 -137 -180q-5 -72 38.5 -124t125.5 -56q129 -9 266 98q-69 -71 -106 -102q-12 -9 -27 -21q-91 -68 -217 -68q-129 0 -188 74q-58 73 -52 164
q3 70 56 135q29 32 135 92q47 25 190 66l109 29l108 30v115q0 143 -62 208t-167 46q-82 -14 -133 -59.5t-51 -116.5q0 -14 13.5 -53t14.5 -52q3 -55 -44 -80.5t-94 -0.5t-44 92q3 104 109 182q109 80 233 104q164 31 275 -32q115 -63 112 -250v-502q0 -81 43 -90
q45 -9 78 39z" />
    <glyph glyph-name="b" unicode="b" horiz-adv-x="1114" 
d="M315 1466v-1067q0 -210 109 -319q110 -107 254 -70q104 26 151 162q46 134 37 324q-7 178 -96 285t-223 102q-65 -1 -125 -38.5t-92 -86.5q31 66 102 131q75 66 182 69q176 3 291 -118q118 -121 115 -361q-3 -205 -125 -354q-124 -148 -328 -148q-132 0 -235 68l-86 72
l-92 -150v1237q0 60 -27.5 86t-67.5 15z" />
    <glyph glyph-name="c" unicode="c" horiz-adv-x="1050" 
d="M240 434q23 -153 121 -242.5t245 -95.5q267 -12 375 199q-35 -142 -145 -232q-109 -92 -271 -92q-200 3 -338 129t-141 349q-3 263 184 401q190 140 424 100q95 -15 170 -78q73 -58 76 -141q1 -50 -25.5 -79t-70.5 -27q-50 1 -74 42.5t-12 92.5q23 82 -20 129.5
t-132 52.5q-184 9 -293 -143q-108 -150 -73 -365z" />
    <glyph glyph-name="d" unicode="d" horiz-adv-x="1097" 
d="M793 174q-22 -42 -37.5 -64.5t-48.5 -56.5q-66 -75 -195 -78q-183 -3 -311 125q-126 132 -129 357q-6 234 129 366q141 135 321 138q173 3 281 -99v338q0 61 -29.5 88t-64.5 15l252 163v-1249q0 -29 7.5 -48t21 -26.5t24.5 -9.5t26 -2h19l-256 -166v524q0 204 -80 327
t-209 128q-123 3 -205 -123q-80 -122 -71 -327q9 -196 102 -314q94 -120 221 -129q146 -6 232 123z" />
    <glyph glyph-name="e" unicode="e" horiz-adv-x="1054" 
d="M608 96q-161 6 -264 127q-98 119 -98 312h710q3 188 -96 299q-103 118 -260 127q-160 9 -281 -68q-235 -137 -229 -430q3 -213 135 -348q135 -135 328 -138q152 -3 270 89q115 92 142 225q-101 -204 -357 -195zM391 889q80 57 180 59t168 -55q47 -36 65 -90.5t11 -100
t-29 -73.5q-43 -58 -174 -70q-57 -8 -366 -8q9 238 145 338z" />
    <glyph glyph-name="f" unicode="f" horiz-adv-x="659" 
d="M639 1450q73 -19 120.5 -64t47.5 -114q0 -32 -24 -58t-58 -26q-48 0 -70 39.5t-14 99.5q6 61 -25 93t-84 32q-48 0 -77.5 -24.5t-42.5 -77.5q-23 -87 -23 -242v-186h279l-19 -19h-260v-756q0 -49 21 -83.5t55 -47.5q54 -16 86 -16h-479q26 0 61 10q96 29 96 137v756h-106
l-25 19h131v186q0 76 17.5 137.5t48.5 101t71 66.5t86.5 37.5t93.5 10.5t93 -11z" />
    <glyph glyph-name="g" unicode="g" horiz-adv-x="985" 
d="M965 975q48 0 59 -36q10 -31 -14 -52q-29 -25 -78 0q-21 17 -35 23t-40.5 -0.5t-59.5 -35.5q85 101 168 101zM588 119q159 -6 240.5 -47t117.5 -129q20 -48 20.5 -98t-15 -92.5t-36 -76.5t-45.5 -61q-155 -162 -434 -141q-180 12 -281.5 90t-101.5 194q0 63 27.5 120
t62.5 85l29 23q-87 -171 27 -291q117 -120 336 -135q158 -12 270 51q113 61 104 162q6 92 -89 145t-257 51q-203 -2 -305.5 32t-120.5 122q-27 116 162 199l-10 4q-86 39 -135 122.5t-45 186.5q3 205 233 293q85 32 185 27t173 -44q104 -54 144 -172q43 -118 2 -223
q-32 -75 -83.5 -122t-141.5 -77q-153 -50 -299 -4q-112 -65 -58 -137q23 -40 105 -53l69 -6q22 0 80 1t70 1zM281 522q52 -129 140 -175.5t185 -14.5q67 24 96 99.5t23.5 157t-31.5 150.5q-27 73 -65.5 119.5t-81.5 64t-86 16.5t-88 -19q-86 -35 -113 -152q-25 -117 21 -246
z" />
    <glyph glyph-name="h" unicode="h" horiz-adv-x="1155" 
d="M356 1466v-1327q0 -46 20.5 -78.5t53.5 -44.5q54 -16 86 -16h-479q35 0 84 16q36 12 56 44t20 79v1073q0 34 -7 56t-20.5 30.5t-23 10.5t-23.5 2l-12 -2zM983 545v-406q0 -46 19 -78.5t49 -44.5q47 -16 77 -16h-448q29 0 76 16q31 12 49 44t18 79v353v28q0 81 -2 101
q0 33 -6 79q-6 64 -26.5 92.5t-69.5 51.5q-65 24 -166 -10q-100 -35 -176 -105q79 95 188 162q110 68 232 59q114 0 164 -119q13 -23 16 -75q4 -70 4 -80q2 -16 2 -90v-41z" />
    <glyph glyph-name="i" unicode="i" horiz-adv-x="606" 
d="M199 1182q0 43 29.5 72.5t70.5 29.5q42 0 72 -30t30 -72q0 -41 -30.5 -72t-71.5 -31t-70.5 30.5t-29.5 72.5zM389 963v-824q0 -96 66 -123q47 -16 77 -16h-454q33 0 80 16q71 26 71 123v568q0 58 -24.5 83t-59.5 17z" />
    <glyph glyph-name="j" unicode="j" horiz-adv-x="540" 
d="M178 1182q0 42 30.5 72t72.5 30q41 0 70.5 -29.5t29.5 -72.5q0 -42 -29.5 -72.5t-70.5 -30.5t-72 31t-31 72zM215 -133v838q0 57 -22 82t-66 20l248 156v-1067q0 -190 -99 -267q-100 -78 -241 -57q-102 6 -168 54.5t-66 125.5q0 35 24.5 60.5t57.5 25.5q48 0 72 -41.5
t16 -99.5q-6 -60 31 -89.5t90 -23.5q73 1 98 60.5t25 222.5z" />
    <glyph glyph-name="k" unicode="k" horiz-adv-x="950" 
d="M350 1466l-2 -1327q0 -39 13.5 -67t30 -41.5t39.5 -21t34 -8.5t20 -1h-448q33 0 80 16q32 12 51.5 44.5t19.5 78.5v1071q0 58 -27 84.5t-61 12.5zM352 453l246 268q66 78 33 139q-30 65 -125 68h409q-4 -1 -55 -21q-44 -21 -117.5 -77t-140.5 -128l-76 -81
q-38 -45 2 -103q29 -42 156 -209q117 -150 170 -209q34 -38 74 -64.5t63 -31.5l23 -4h-383q34 3 40.5 32t-24.5 70q-28 42 -127 168q-84 112 -119 152q-34 40 -49 31z" />
    <glyph glyph-name="l" unicode="l" horiz-adv-x="540" 
d="M344 1466v-1327q0 -46 20.5 -78.5t53.5 -44.5q54 -16 86 -16h-479q35 0 84 16q75 26 75 123v1059q0 41 -10.5 67.5t-25 34t-28.5 11t-22 -1.5z" />
    <glyph glyph-name="m" unicode="m" horiz-adv-x="1759" 
d="M365 963v-824q0 -46 18.5 -78.5t48.5 -44.5q47 -16 78 -16h-447q29 0 74 16q32 12 51 44.5t19 78.5v568q0 46 -19 71t-37 28t-30 -1zM369 729q219 238 419 223q137 -13 170 -137q13 -63 13 -100q2 -23 2 -53v-117v-406q0 -46 18.5 -78.5t48.5 -44.5q47 -16 78 -16h-448
q28 0 73 16q32 12 51 44.5t19 78.5v396q0 192 -20 239q-25 61 -93 76q-67 17 -156.5 -17.5t-174.5 -103.5zM981 729q85 94 197 162q110 68 221 59q49 -2 98 -30q30 -23 46.5 -47t25.5 -60q2 -9 5.5 -24t5 -22t2.5 -21t1 -31q2 -25 2 -53v-60v-57v-406q0 -46 19 -78.5
t49 -44.5q47 -16 78 -16h-449q29 0 74 16q32 12 50.5 44.5t18.5 78.5v389v19q0 145 -16 211q-15 61 -90 82q-65 25 -156.5 -7t-181.5 -104z" />
    <glyph glyph-name="n" unicode="n" horiz-adv-x="1161" 
d="M362 963v-824q0 -46 19 -78.5t49 -44.5q47 -16 78 -16h-449q29 0 76 16q68 27 68 123v574q0 28 -8 47.5t-19 28.5t-23.5 13t-22 3.5t-13.5 -2.5zM977 545v-406q0 -46 18.5 -78.5t48.5 -44.5q47 -16 78 -16h-450q29 0 76 16q31 12 49 44t18 79v353v28q0 81 -2 101
q0 33 -6 79q-6 64 -26.5 92.5t-69.5 51.5q-65 24 -164 -10q-99 -36 -174 -105q88 104 197 167.5t218 53.5q124 -13 154 -96q2 -5 8 -19t7.5 -18t5.5 -16t5 -20.5t3 -22t2 -29.5q4 -62 4 -70v-77v-37z" />
    <glyph glyph-name="o" unicode="o" horiz-adv-x="1107" 
d="M602 -18q-135 -3 -278 55q-81 36 -141.5 116.5t-86.5 192.5q-43 205 54 375q93 166 288 219q233 59 402 -47q173 -108 200 -356q24 -230 -106 -387q-132 -159 -332 -168zM862 571q-38 190 -157 297q-122 110 -271 52q-82 -30 -129 -119q-81 -151 -35 -416
q40 -205 150 -295q112 -89 231 -80q98 9 158 96q56 82 66.5 208t-13.5 257z" />
    <glyph glyph-name="p" unicode="p" horiz-adv-x="1132" 
d="M651 952q170 3 281 -123t108 -348q-3 -220 -127 -356q-123 -138 -288 -141q-186 0 -299 110v-401q0 -43 19.5 -74.5t51.5 -42.5q49 -16 82 -16h-452q7 0 16.5 1t33.5 8t42 19.5t32.5 40t14.5 64.5v1005q0 62 -27 88.5t-63 18.5l250 158v-191v-2v-340q0 -215 102 -326
q105 -111 238 -96q103 7 162 130.5t57 316.5q-4 185 -81.5 294t-199.5 121q-156 15 -262 -137q17 45 78 117q38 44 99.5 72.5t131.5 29.5zM340 733h2h-2z" />
    <glyph glyph-name="q" unicode="q" horiz-adv-x="1091" 
d="M958 950v-1257q0 -43 19.5 -74.5t50.5 -42.5q49 -16 82 -16h-463q33 0 80 16q33 11 52.5 42t19.5 75v735l10 78l-10 -27q0 214 -82 342q-80 132 -225 117q-111 -9 -183 -137q-69 -124 -57 -322q10 -190 95.5 -306t211.5 -128q85 -6 143.5 28t79.5 83q-3 -18 -28 -58
q-29 -41 -98.5 -77.5t-149.5 -36.5q-173 -3 -295 122q-124 127 -127 347q-6 221 127 360q134 140 324 143q200 3 319 -131z" />
    <glyph glyph-name="r" unicode="r" horiz-adv-x="833" 
d="M690 952q56 -1 83.5 -32.5t27.5 -73.5q0 -39 -22 -68t-64 -30q-22 -3 -42 6t-32 22.5t-25.5 29t-19.5 19.5q-16 13 -36.5 18t-51 0.5t-70.5 -35.5t-82 -87v-588q0 -43 20 -74.5t52 -42.5q49 -16 82 -16h-465q33 0 80 16q33 11 52.5 42t19.5 75v27v553q0 52 -24 76.5
t-58 19.5l241 154v-142v-47v-43q57 105 149 165.5t185 55.5z" />
    <glyph glyph-name="s" unicode="s" horiz-adv-x="892" 
d="M766 872v-202q-60 119 -159.5 191t-203.5 71q-146 -3 -161 -125q-5 -15 -2.5 -34.5t6.5 -40t22 -43.5t43.5 -44t71.5 -41.5t106 -36.5q185 -50 261.5 -118t76.5 -173q2 -129 -87 -214t-253 -85q-76 0 -213 31q-19 6 -53 19l-78 39l-28 16l-4 274q83 -187 206 -264
q78 -51 168.5 -69.5t160.5 8.5t79 100q18 87 -50 154.5t-237 115.5q-163 46 -233 113.5t-70 167.5q2 120 95 199.5t253 79.5q174 0 283 -89z" />
    <glyph glyph-name="t" unicode="t" horiz-adv-x="724" 
d="M475 72q82 -7 143.5 41t92.5 129q-6 -30 -16.5 -61t-34 -69.5t-55 -66.5t-81.5 -46.5t-110 -16.5q-157 3 -211 127q-43 107 -43 272v524h-88l-25 19h113v243l162 136q0 -180 -3 -379h250l-18 -19h-232v-532q2 -159 34 -226.5t122 -74.5z" />
    <glyph glyph-name="u" unicode="u" horiz-adv-x="1103" 
d="M420 88q69 -28 172 6q101 33 178 107q-75 -95 -190 -162q-116 -68 -238 -59q-111 -2 -162 120q-13 26 -16 76l-6 82v92v33v397q0 48 -19 80t-51 43q-46 19 -76 19h305v-142v-342v-94q0 -101 13 -145q28 -102 90 -111zM782 117v671q0 44 -18 75t-49 42q-47 17 -74 17h301
v-721q0 -26 7.5 -42.5t21 -22.5t21.5 -7.5t20 -1.5h8l-238 -154v144z" />
    <glyph glyph-name="v" unicode="v" horiz-adv-x="940" 
d="M664 922h325q-70 -17 -125 -78q-30 -26 -63 -103l-322 -782l-375 846q-24 47 -63.5 77.5t-69.5 35.5l-26 4h411l-12 -2q-11 -3 -27 -8.5t-30 -18.5t-18.5 -34.5t7.5 -55.5l213 -496q29 -63 62 -63q9 0 16.5 4.5t14.5 14.5t11 18t11.5 24t11.5 23l164 401l8 23
q25 69 -8.5 114t-115.5 56z" />
    <glyph glyph-name="w" unicode="w" horiz-adv-x="1445" 
d="M1155 922h348q-85 -18 -139 -78q-34 -39 -61 -105l-306 -778l-288 653l-238 -653l-381 842q-24 47 -63.5 78.5t-69.5 36.5l-27 4h400q0 4 -27.5 -5.5t-43.5 -31t1 -74.5l217 -512q20 -51 49 -51q35 0 72 104l102 279l-75 172q-24 47 -59.5 78.5t-61.5 36.5l-23 4h391
l-6 -1q-7 -1 -17 -3.5t-21 -7.5t-20.5 -13.5t-16 -20.5t-6 -31t9.5 -42l213 -498q27 -65 57 -65q28 0 68 100l149 387l8 23q25 69 -12.5 115t-122.5 57z" />
    <glyph glyph-name="x" unicode="x" horiz-adv-x="993" 
d="M1042 0h-424q53 0 73.5 34.5t-15.5 100.5l-219 287l-160 -209q-66 -87 -45 -143q21 -52 123 -70h-367q75 21 137 72q69 56 152 164l152 196l-273 359q-39 55 -85 89.5t-75 39.5l-24 4h434q-21 0 -57 -19q-20 -13 -25 -24q-19 -42 39 -117l170 -219l141 172q71 89 54 145
q-21 53 -115 62h342q-65 -12 -129 -64q-57 -44 -135 -145l-150 -183l336 -434q74 -80 145 -98z" />
    <glyph glyph-name="y" unicode="y" horiz-adv-x="919" 
d="M674 922h325q-70 -17 -125 -78q-30 -26 -63 -103l-319 -782l-117 -281q-29 -72 -65 -95t-93 -17q-38 6 -59.5 38.5t-10.5 69.5q22 63 86 60q18 -1 47 -25t31 -24q46 -9 80 67l90 219l-368 834q-25 48 -64.5 79.5t-68.5 33.5l-27 4h414l-7 -2q-7 -1 -17 -3.5t-21.5 -7.5
t-21.5 -14t-16.5 -21t-6 -30.5t9.5 -40.5l213 -496q29 -63 61 -63q9 0 16.5 4.5t14.5 14.5t11.5 17.5t12.5 24.5t11 23l164 401l8 23q25 69 -9 114t-116 56z" />
    <glyph glyph-name="z" unicode="z" horiz-adv-x="1019" 
d="M389 10l119 -2q139 3 262 78q43 25 90 82q45 54 66 94l20 41l-57 -309l-803 2l578 838q30 41 22.5 61t-59.5 20h-123q-74 1 -125.5 -17t-124.5 -64q-65 -41 -131 -117l-19 -25l68 238h754q-74 -99 -330 -469q-236 -340 -250 -367q-53 -84 43 -84z" />
    <glyph glyph-name="braceleft" unicode="{" horiz-adv-x="638" 
d="M625 1444q-197 15 -252 -174q-39 -153 -2 -375q20 -77 4.5 -165t-66.5 -148q104 -113 74 -328q-2 -20 -16 -111l-17 -123q-13 -142 17 -235q7 -22 16.5 -40.5t18.5 -31.5t22.5 -23t24 -16.5t27.5 -10.5t28 -6t31.5 -2h31t34 1.5t34.5 1.5q-218 -46 -309 56.5t-64 346.5
l10 91l11 81q1 6 1.5 16t1 24.5t1.5 25.5q4 55 0 86t-19 76q-27 83 -129 117q57 12 103 67q46 61 37 223q0 2 -6.5 58t-10.5 108.5t-4 98.5q1 61 15 111t36.5 84t53.5 59t64 38.5t69 20t68 5.5t61 -7z" />
    <glyph glyph-name="bar" unicode="|" horiz-adv-x="276" 
d="M129 -115v1768h18v-1768h-18z" />
    <glyph glyph-name="braceright" unicode="}" horiz-adv-x="647" 
d="M-4 1444q29 6 61 7t68 -5.5t69 -20t63.5 -38.5t53 -59t36.5 -84t15 -111q0 -36 -2.5 -80t-5.5 -74.5t-7 -66.5t-5 -44q-9 -162 37 -223q47 -56 102 -67q-102 -34 -129 -117q-14 -42 -17.5 -73t-2.5 -89l6 -66l8 -81l12 -91q27 -244 -63.5 -346.5t-308.5 -56.5
q11 0 34.5 -1.5t34 -1.5h31t31.5 2t28 6t27.5 10.5t24 16.5t22.5 23t18.5 31.5t16.5 40.5q31 96 14 235q-2 40 -16 123l-14 111q-30 216 73 328q-97 113 -63 313q43 204 0 375q-55 189 -252 174z" />
    <glyph glyph-name="asciitilde" unicode="~" horiz-adv-x="808" 
d="M117 586q7 79 55.5 124t116.5 40q50 -6 135 -60q83 -51 127 -51q130 0 139 100q8 -64 -33 -111.5t-106 -47.5q-69 0 -152 57q-80 57 -147 57q-94 0 -135 -108z" />
    <glyph glyph-name="exclamdown" unicode="&#xa1;" horiz-adv-x="466" 
d="M319 1133q-26 -26 -65 -26t-68 26q-26 26 -26 65.5t26 65.5q29 29 68 29t65 -29q26 -26 26 -65.5t-26 -65.5zM256 997v9v-9zM256 997q0 -109 12 -235q7 -76 16.5 -151t21.5 -163t18 -131q11 -75 17.5 -129t10.5 -111t0.5 -94.5t-13.5 -68.5t-30.5 -46t-50.5 -15
q-90 0 -90 153q0 158 43 471q45 309 45 520z" />
    <glyph glyph-name="cent" unicode="&#xa2;" horiz-adv-x="993" 
d="M633 172q124 -5 223 43.5t152 153.5q-36 -141 -147.5 -231.5t-268.5 -90.5h-19v-86h-20v88q-184 12 -311 139q-126 126 -129 336q-3 212 125 346t315 158v121h20v-119q68 9 148 -4q95 -15 170 -78q73 -58 76 -141q1 -51 -26.5 -81.5t-70.5 -25.5q-50 1 -74 42.5t-10 93.5
q23 82 -20 129.5t-131 52.5q-12 2 -62 -2v-838q27 -6 60 -6zM266 510q20 -129 95.5 -215.5t191.5 -112.5v830q-151 -27 -234 -172q-80 -140 -53 -330z" />
    <glyph glyph-name="sterling" unicode="&#xa3;" horiz-adv-x="1173" 
d="M926 1450q87 -7 141.5 -57.5t52.5 -120.5q-1 -35 -22 -55.5t-54 -20.5q-44 0 -65 35.5t-10 87.5q10 54 -22 88.5t-85 32.5q-79 0 -133 -101q-39 -77 -72 -184q-114 -361 -184 -563h221l-18 -19h-209q-42 -119 -121 -323q155 0 244 -57l37 -25l61 -39q68 -40 123 -47
q83 -14 145.5 8.5t75.5 77.5q7 40 -14.5 57.5t-73.5 22.5q-26 0 -46.5 20t-25.5 49q-3 65 54 80q75 21 112 -49q34 -58 25 -145q-41 -245 -270 -230q-57 3 -103 22t-74 45.5t-58.5 58t-56.5 58.5t-68.5 46.5t-94.5 23.5q-41 -99 -74 -155q-53 -84 -129 -84q-73 0 -99 41.5
t-5 93.5q22 50 82 83.5t129 45.5l94 321h-137l-25 19h168q37 137 71 258.5t55 196.5t24 86q50 179 165.5 260t268.5 57zM156 100q41 18 82 133q-46 -5 -90.5 -36.5t-45.5 -65.5q-2 -19 16 -30t38 -1z" />
    <glyph glyph-name="currency" unicode="&#xa4;" horiz-adv-x="989" 
d="M770 463l111 -109l-41 -43l-111 113q-101 -88 -237 -88q-133 0 -234 82l-113 -113l-41 43l111 113q-90 107 -90 237q0 135 92 238l-115 113l41 43l113 -117q103 86 236 86q136 0 237 -88l113 117l43 -43l-117 -115q88 -101 88 -234q0 -132 -86 -235zM797 698
q0 130 -90 220q-89 92 -218 92q-128 0 -217 -92q-88 -88 -88 -220t88 -223q90 -90 217 -90q128 0 218 90q90 93 90 223z" />
    <glyph glyph-name="yen" unicode="&#xa5;" horiz-adv-x="1298" 
d="M920 1434h399q-151 -21 -254 -217l-231 -441h282l-18 -20h-826l-24 20h233l-297 486q-41 68 -97.5 113t-96.5 52l-35 7h543q-36 0 -72 -22.5t-53 -67.5t26 -113l289 -455h115l211 391q52 94 28 174q-21 84 -122 93zM569 614h-297l-24 21h868l-18 -21h-307
q-11 -37 -11 -100v-348q0 -54 23 -93t61 -53q61 -20 101 -20h-559q37 0 96 20q38 14 61 53t23 93v348q0 34 -17 100z" />
    <glyph glyph-name="brokenbar" unicode="&#xa6;" horiz-adv-x="276" 
d="M129 838v559h18v-559h-18zM129 18v560h18v-560h-18z" />
    <glyph glyph-name="section" unicode="&#xa7;" horiz-adv-x="985" 
d="M510 1044q189 -30 273 -112t79 -211q-6 -113 -88 -201q77 -86 74 -215q-3 -124 -98 -207q-94 -82 -236 -82q-182 0 -283 90q-98 88 -98 195q0 46 23 78.5t63 32.5q42 0 68 -33t20 -72q-24 -124 41 -192q41 -47 113.5 -65t141.5 -5t119 61.5t48 122.5q2 104 -74 167.5
t-231 86.5q-177 29 -250 105q-66 75 -63 192t90 201q-77 74 -74 199q3 123 98 209q93 84 256 81q121 -3 205 -75q88 -70 88 -164q0 -90 -74 -90q-43 0 -60 35t-5 84q18 78 -51 135q-68 56 -168 53q-66 -5 -122.5 -42.5t-74.5 -96.5q-22 -84 31 -164q56 -80 219 -101z
M778 629q2 98 -72 167t-225 87q-137 15 -217 80q-29 -37 -37 -80q-20 -84 47 -151t218 -85q171 -21 264 -108q19 39 22 90z" />
    <glyph glyph-name="dieresis" unicode="&#xa8;" horiz-adv-x="1228" 
d="M209 1108q-37 0 -64.5 28t-27.5 66q0 37 27.5 63.5t64.5 26.5q38 0 66 -26.5t28 -63.5q0 -39 -26.5 -66.5t-67.5 -27.5zM537 1202q0 37 28 63.5t66 26.5t66 -26.5t28 -63.5q0 -38 -28 -66t-66 -28t-66 28t-28 66z" />
    <glyph glyph-name="copyright" unicode="&#xa9;" horiz-adv-x="1536" 
d="M1231 20q-194 -194 -469 -194q-274 0 -471 194q-195 198 -195 472t195 469q197 194 471 194q275 0 469 -194q196 -193 196 -469t-196 -472zM764 -154q268 0 457 189q190 190 190 459q0 267 -190 454q-188 191 -457 191q-268 0 -457 -189q-188 -188 -188 -456t188 -459
q192 -189 457 -189zM455 453q24 -146 114.5 -234t221.5 -100q132 -14 240 33t165 159q-41 -131 -152 -223q-112 -92 -268 -92q-198 0 -338 125q-140 128 -143 348q-2 89 23 168.5t69 138t104.5 104.5t129.5 69t143.5 32t146.5 -8q98 -18 172 -80q76 -61 76 -141
q0 -51 -26.5 -80t-69.5 -25q-53 6 -76.5 44.5t-9.5 90.5q23 82 -20.5 130t-131.5 53q-184 9 -297 -144q-108 -150 -73 -368z" />
    <glyph glyph-name="guillemotleft" unicode="&#xab;" horiz-adv-x="729" 
d="M37 563l342 291l-250 -293l229 -307zM250 563l342 291l-250 -293l229 -307z" />
    <glyph glyph-name="logicalnot" unicode="&#xac;" horiz-adv-x="864" 
d="M80 635v18h706v-229h-20v211h-686z" />
    <glyph glyph-name="registered" unicode="&#xae;" horiz-adv-x="1529" 
d="M291 961q197 194 471 194q275 0 469 -194q196 -193 196 -469t-196 -472q-194 -194 -469 -194q-274 0 -471 194q-195 198 -195 472t195 469zM764 -154q268 0 457 189q190 190 190 459q0 267 -190 454q-188 191 -457 191q-268 0 -457 -189q-188 -188 -188 -456t188 -459
q192 -189 457 -189zM954 395l111 -190q23 -38 55.5 -67.5t55.5 -37.5l20 -8h-176q-32 35 -82 123l-113 191q-43 78 -98 88q-41 10 -96 10l-2 -338q0 -74 90 -74h-303q16 -3 36 1.5t41.5 27.5t24.5 63v664q-3 40 -26 63.5t-43.5 28.5t-32.5 2q79 0 149 2q127 4 156 2
q129 -2 194 -21.5t99 -72.5q38 -49 35 -127q-3 -110 -82 -170q-55 -40 -117 -49q48 -12 104 -111zM741 520q96 10 147.5 65t51.5 142q1 123 -74 169t-237 40l2 -422q55 0 110 6z" />
    <glyph glyph-name="overscore" unicode="&#xaf;" horiz-adv-x="944" 
d="M276 1188v16l404 2v-18h-404z" />
    <glyph glyph-name="degree" unicode="&#xb0;" horiz-adv-x="446" 
d="M397 1044q-51 0 -88 38t-37 89q0 54 37 91.5t88 37.5q56 0 93 -36.5t36 -92.5q0 -51 -38 -89t-91 -38zM500 1176q0 39 -30 68.5t-71 29.5t-69 -29.5t-28 -67t28 -73.5q33 -26 71 -27t68.5 27.5t30.5 71.5z" />
    <glyph glyph-name="plusminus" unicode="&#xb1;" horiz-adv-x="1107" 
d="M565 1151v-414h426v-22h-426v-357h-22v357h-426v22h426v414h22zM991 252h-874v20h874v-20z" />
    <glyph glyph-name="acute" unicode="&#xb4;" horiz-adv-x="1228" 
d="M291 1034l172 244q26 42 59 54t53 -13q14 -9 16 -27t-11.5 -41.5t-40.5 -42.5z" />
    <glyph glyph-name="middot" unicode="&#xb7;" horiz-adv-x="425" 
d="M211 700q-35 0 -60.5 25.5t-25.5 62.5q0 35 25.5 60.5t60.5 25.5q37 0 62.5 -25.5t25.5 -60.5q0 -37 -25.5 -62.5t-62.5 -25.5z" />
    <glyph glyph-name="cedilla" unicode="&#xb8;" horiz-adv-x="565" 
d="M236 -123l81 119l27 4l-59 -88q91 -7 133 -51.5t31 -108.5q-8 -60 -49.5 -96.5t-93.5 -43.5t-104.5 5t-84.5 41q33 -14 73 -18t79 3t67.5 35.5t32.5 75.5q6 56 -33 87t-100 36z" />
    <glyph glyph-name="guillemotright" unicode="&#xbb;" horiz-adv-x="729" 
d="M117 854l342 -291l-322 -309l232 307zM330 854l342 -291l-322 -309l232 307z" />
    <glyph glyph-name="questiondown" unicode="&#xbf;" horiz-adv-x="942" 
d="M604 965q0 -38 -29 -66.5t-67 -28.5t-65 28t-27 67q0 37 27 64.5t65 27.5t67 -27.5t29 -64.5zM510 778q19 -127 -14 -248q-38 -140 -84 -217q-49 -83 -95 -200q-44 -109 -41 -195q4 -130 70 -207.5t172 -77.5q86 2 144 45.5t57 118.5q0 18 -29 68q-29 49 -31 69
q-6 47 21.5 81t71.5 34q41 0 66.5 -34.5t27.5 -86.5q3 -107 -86 -207q-88 -99 -242 -108q-170 -9 -282 78q-112 89 -109 248q0 90 59 202q57 105 133 201q78 97 132 209q59 121 59 227z" />
    <glyph glyph-name="Agrave" unicode="&#xc0;" horiz-adv-x="1277" 
d="M778 1546l-250 174q-39 29 -47.5 64t13.5 47q20 25 53 13t59 -54zM627 1477l506 -1299q26 -68 75 -117q30 -27 55 -40.5t38 -16.5t36 -4h-549q15 0 62 16q30 10 47 31q48 72 14 139l-145 400h-473l-133 -350q-26 -64 -21 -114.5t46.5 -83.5t113.5 -38h-405q72 5 134 67.5
t105 174.5l488 1253zM535 1149q-27 0 -86 -156l-146 -387l455 2l-152 426q-44 115 -71 115zM1346 0h-9h9z" />
    <glyph glyph-name="Aacute" unicode="&#xc1;" horiz-adv-x="1277" 
d="M807 1839q14 -8 15.5 -26t-12 -41.5t-40.5 -42.5l-250 -173l174 244q26 42 58 53t55 -14zM627 1477l506 -1299q26 -68 75 -117q30 -27 55 -40.5t38 -16.5t36 -4h-549q15 0 62 16q30 10 47 31q48 72 14 139l-145 400h-473l-133 -350q-26 -64 -21 -114.5t46.5 -83.5
t113.5 -38h-405q72 5 134 67.5t105 174.5l488 1253zM535 1149q-27 0 -86 -156l-146 -387l455 2l-152 426q-44 115 -71 115zM1346 0h-9h9z" />
    <glyph glyph-name="Acircumflex" unicode="&#xc2;" horiz-adv-x="1277" 
d="M715 1804l143 -278l-201 209l-223 -211l168 280h113zM627 1477l506 -1299q26 -68 75 -117q30 -27 55 -40.5t38 -16.5t36 -4h-549q15 0 62 16q30 10 47 31q48 72 14 139l-145 400h-473l-133 -350q-26 -64 -21 -114.5t46.5 -83.5t113.5 -38h-405q72 5 134 67.5t105 174.5
l488 1253zM535 1149q-27 0 -86 -156l-146 -387l455 2l-152 426q-44 115 -71 115zM1346 0h-9h9z" />
    <glyph glyph-name="Atilde" unicode="&#xc3;" horiz-adv-x="1277" 
d="M471 1714q-35 4 -75.5 -27t-59.5 -106q1 95 57.5 150t136.5 49q52 -6 117 -68q68 -59 111 -59q56 -2 94.5 33t42.5 96q6 -77 -40.5 -139.5t-119.5 -63.5q-66 -3 -141 66q-69 69 -123 69zM627 1477l506 -1299q26 -68 75 -117q30 -27 55 -40.5t38 -16.5t36 -4h-549
q15 0 62 16q30 10 47 31q48 72 14 139l-145 400h-473l-133 -350q-26 -64 -21 -114.5t46.5 -83.5t113.5 -38h-405q72 5 134 67.5t105 174.5l488 1253zM535 1149q-27 0 -86 -156l-146 -387l455 2l-152 426q-44 115 -71 115zM1346 0h-9h9z" />
    <glyph glyph-name="Adieresis" unicode="&#xc4;" horiz-adv-x="1277" 
d="M317 1700q0 37 27.5 62.5t65.5 25.5t66 -25.5t28 -62.5q0 -41 -27.5 -68.5t-66.5 -27.5t-66 27.5t-27 68.5zM829 1604q-37 0 -64.5 29t-27.5 67q0 36 27.5 62t64.5 26q39 0 67 -26t28 -62q0 -41 -28 -68.5t-67 -27.5zM627 1477l506 -1299q26 -68 75 -117q30 -27 55 -40.5
t38 -16.5t36 -4h-549q15 0 62 16q30 10 47 31q48 72 14 139l-145 400h-473l-133 -350q-26 -64 -21 -114.5t46.5 -83.5t113.5 -38h-405q72 5 134 67.5t105 174.5l488 1253zM535 1149q-27 0 -86 -156l-146 -387l455 2l-152 426q-44 115 -71 115zM1346 0h-9h9z" />
    <glyph glyph-name="Aring" unicode="&#xc5;" horiz-adv-x="1277" 
d="M625 1581q-51 0 -89 37t-38 88q0 56 36.5 93.5t90.5 37.5q56 0 92.5 -37t36.5 -94q0 -51 -37.5 -88t-91.5 -37zM627 1810q-41 0 -70 -29.5t-29 -70.5t29 -70.5t70 -29.5q39 0 68.5 29.5t29.5 70.5t-29.5 70.5t-68.5 29.5zM627 1477l506 -1299q26 -68 75 -117
q30 -27 55 -40.5t38 -16.5t36 -4h-549q15 0 62 16q30 10 47 31q48 72 14 139l-145 400h-473l-133 -350q-26 -64 -21 -114.5t46.5 -83.5t113.5 -38h-405q72 5 134 67.5t105 174.5l488 1253zM535 1149q-27 0 -86 -156l-146 -387l455 2l-152 426q-44 115 -71 115zM1346 0h-9h9z
" />
    <glyph glyph-name="AE" unicode="&#xc6;" horiz-adv-x="1832" 
d="M1737 352l18 35l-98 -387h-1057q8 0 19.5 1.5t35.5 11.5t42.5 26.5t33 52.5t14.5 84v459l-360 -2l-182 -348q-64 -134 -37 -204t139 -81h-420q32 0 99 33q39 21 82.5 72t78.5 120l617 1209h840l79 -342q-24 46 -77 110q-57 69 -121 109q-55 35 -92 51q-32 17 -118 35
t-183 18h-152v-659h100q59 2 108 18.5t79.5 39.5t53 52t33 52t13.5 43l4 22v-475q0 29 -24 78q-66 149 -267 149h-100v-573q0 -144 115 -144h116q187 0 375 132q62 44 116.5 103t76.5 99zM598 1061l-205 -406h352v471q0 4 0.5 23.5t0.5 32t-1.5 28.5t-7 24.5t-14.5 8.5
q-36 0 -115 -162z" />
    <glyph glyph-name="Ccedilla" unicode="&#xc7;" horiz-adv-x="1456" 
d="M911 117q94 0 179 27t135 67q106 88 131 149l12 29q-1 -2 -3.5 -11t-5.5 -17t-8.5 -21t-15.5 -32t-24 -42q-30 -53 -82 -112q-52 -55 -137.5 -100t-178.5 -58q-49 -8 -118 -8l-52 -76q91 -7 133 -51.5t31 -108.5q-8 -60 -49.5 -96.5t-93.5 -43.5t-104.5 5t-84.5 41
q33 -14 73 -18t79 3t67.5 35.5t32.5 75.5q6 56 -33 87t-100 36l76 113q-295 12 -483 221q-185 209 -191 481q-4 170 51.5 313t155.5 236q197 185 488 207q143 10 268 -16q69 -12 134 -37.5t95 -46.5l27 -17l-2 -293q-117 231 -326 330q-242 110 -452 -12q-131 -78 -195 -242
q-64 -166 -49 -373q21 -278 196 -450q177 -171 424 -174z" />
    <glyph glyph-name="Egrave" unicode="&#xc8;" horiz-adv-x="1333" 
d="M750 1546l-250 174q-39 29 -49 64t12 47q23 25 54.5 13.5t60.5 -54.5zM1044 143q69 50 123.5 105t73.5 88l19 31l-89 -367h-1130q33 0 98 25q36 14 59 52.5t23 92.5v1100q0 54 -23 91.5t-61 49.5q-60 23 -96 23h1059l71 -328q-16 31 -77 98q-66 73 -127 113
q-84 57 -166 76q-76 20 -260 20h-127v-657h114q69 1 123 21t85 51.5t46.5 56t24.5 49.5l6 20v-424q-5 25 -31 70q-29 55 -90.5 94t-163.5 39h-114v-538q0 -47 10.5 -81t25.5 -52t37.5 -28.5t39.5 -13t38 -2.5h129q182 0 350 125z" />
    <glyph glyph-name="Eacute" unicode="&#xc9;" horiz-adv-x="1333" 
d="M866 1839q14 -8 15.5 -26t-12 -41.5t-40.5 -42.5l-249 -173l174 244q26 43 57.5 53.5t54.5 -14.5zM1044 143q69 50 123.5 105t73.5 88l19 31l-89 -367h-1130q33 0 98 25q36 14 59 52.5t23 92.5v1100q0 54 -23 91.5t-61 49.5q-60 23 -96 23h1059l71 -328q-16 31 -77 98
q-66 73 -127 113q-84 57 -166 76q-76 20 -260 20h-127v-657h114q69 1 123 21t85 51.5t46.5 56t24.5 49.5l6 20v-424q-5 25 -31 70q-29 55 -90.5 94t-163.5 39h-114v-538q0 -47 10.5 -81t25.5 -52t37.5 -28.5t39.5 -13t38 -2.5h129q182 0 350 125z" />
    <glyph glyph-name="Ecircumflex" unicode="&#xca;" horiz-adv-x="1333" 
d="M717 1804l143 -278l-201 209l-225 -211l168 280h115zM1044 143q69 50 123.5 105t73.5 88l19 31l-89 -367h-1130q33 0 98 25q36 14 59 52.5t23 92.5v1100q0 54 -23 91.5t-61 49.5q-60 23 -96 23h1059l71 -328q-16 31 -77 98q-66 73 -127 113q-84 57 -166 76
q-76 20 -260 20h-127v-657h114q69 1 123 21t85 51.5t46.5 56t24.5 49.5l6 20v-424q-5 25 -31 70q-29 55 -90.5 94t-163.5 39h-114v-538q0 -47 10.5 -81t25.5 -52t37.5 -28.5t39.5 -13t38 -2.5h129q182 0 350 125z" />
    <glyph glyph-name="Edieresis" unicode="&#xcb;" horiz-adv-x="1333" 
d="M420 1604q-37 0 -64.5 29t-27.5 67q0 36 27.5 62t64.5 26q41 0 68.5 -25.5t27.5 -62.5q0 -41 -28.5 -68.5t-67.5 -27.5zM842 1604q-37 0 -64.5 29t-27.5 67q0 36 27.5 62t64.5 26q38 0 66 -25.5t28 -62.5q0 -41 -27.5 -68.5t-66.5 -27.5zM1044 143q69 50 123.5 105
t73.5 88l19 31l-89 -367h-1130q33 0 98 25q36 14 59 52.5t23 92.5v1100q0 54 -23 91.5t-61 49.5q-60 23 -96 23h1059l71 -328q-16 31 -77 98q-66 73 -127 113q-84 57 -166 76q-76 20 -260 20h-127v-657h114q69 1 123 21t85 51.5t46.5 56t24.5 49.5l6 20v-424q-5 25 -31 70
q-29 55 -90.5 94t-163.5 39h-114v-538q0 -47 10.5 -81t25.5 -52t37.5 -28.5t39.5 -13t38 -2.5h129q182 0 350 125z" />
    <glyph glyph-name="Igrave" unicode="&#xcc;" horiz-adv-x="686" 
d="M446 1546l-247 174q-41 29 -50 64t13 47q20 25 53 13t59 -54zM432 1260v-1086q0 -47 17.5 -82t39.5 -52t52 -27t45.5 -11.5t29.5 -1.5h-557q36 0 99 23q38 14 61 54.5t23 96.5v1086q0 58 -23 97.5t-61 53.5q-63 23 -99 23h557q-37 0 -100 -23q-38 -14 -61 -53.5
t-23 -97.5z" />
    <glyph glyph-name="Iacute" unicode="&#xcd;" horiz-adv-x="686" 
d="M514 1839q22 -10 13 -45.5t-48 -64.5l-250 -173l172 244q26 42 59.5 53t53.5 -14zM432 1260v-1086q0 -47 17.5 -82t39.5 -52t52 -27t45.5 -11.5t29.5 -1.5h-557q36 0 99 23q38 14 61 54.5t23 96.5v1086q0 58 -23 97.5t-61 53.5q-63 23 -99 23h557q-37 0 -100 -23
q-38 -14 -61 -53.5t-23 -97.5z" />
    <glyph glyph-name="Icircumflex" unicode="&#xce;" horiz-adv-x="686" 
d="M424 1804l143 -278l-200 209l-226 -211l170 280h113zM432 1260v-1086q0 -47 17.5 -82t39.5 -52t52 -27t45.5 -11.5t29.5 -1.5h-557q36 0 99 23q38 14 61 54.5t23 96.5v1086q0 58 -23 97.5t-61 53.5q-63 23 -99 23h557q-37 0 -100 -23q-38 -14 -61 -53.5t-23 -97.5z" />
    <glyph glyph-name="Idieresis" unicode="&#xcf;" horiz-adv-x="686" 
d="M137 1604q-37 0 -64.5 29t-27.5 67q0 36 27.5 62t64.5 26q38 0 66 -25.5t28 -62.5q0 -41 -27.5 -68.5t-66.5 -27.5zM559 1788q38 0 66 -25.5t28 -62.5q0 -41 -27.5 -68.5t-66.5 -27.5q-37 0 -64.5 29t-27.5 67q0 36 27.5 62t64.5 26zM432 1260v-1086q0 -47 17.5 -82
t39.5 -52t52 -27t45.5 -11.5t29.5 -1.5h-557q36 0 99 23q38 14 61 54.5t23 96.5v1086q0 58 -23 97.5t-61 53.5q-63 23 -99 23h557q-37 0 -100 -23q-38 -14 -61 -53.5t-23 -97.5z" />
    <glyph glyph-name="Eth" unicode="&#xd0;" horiz-adv-x="1462" 
d="M1397 766q7 -155 -34.5 -294t-123 -243.5t-208 -166t-279.5 -62.5h-125h-561q39 0 100 20q39 14 63.5 53t24.5 93v555h-152l-24 18h176v521q0 59 -24.5 99t-63.5 52q-63 23 -100 23h577q184 2 312.5 -27.5t228.5 -101.5q204 -143 213 -539zM756 25q218 13 329.5 207.5
t106.5 535.5q-9 380 -176 518q-78 66 -167 95.5t-208 31.5q-124 0 -186 -4v-670h194l-18 -18h-176v-528q0 -97 44.5 -133.5t151.5 -36.5q95 0 105 2z" />
    <glyph glyph-name="Ntilde" unicode="&#xd1;" horiz-adv-x="1503" 
d="M639 1714q-16 0 -32.5 -5t-38 -17.5t-39 -41t-25.5 -69.5q0 94 57 149.5t137 49.5q52 -6 117 -68q65 -59 109 -59q58 -2 96.5 33t42.5 96q5 -78 -41 -140t-119 -63q-66 -3 -141 66q-69 69 -123 69zM1227 520v660q0 79 -27.5 135t-73.5 80q-66 36 -122 39h464
q-54 -3 -120 -39q-45 -24 -72 -80t-27 -135v-1205h-2l-16 25l-879 1169q-45 54 -65 -2q-8 -24 -8 -65v-838q0 -56 16 -101.5t38 -72t51.5 -46.5t51 -27.5t43.5 -12.5l25 -4h-473q27 0 78 23q147 63 147 243v836q0 78 -17.5 140t-41.5 96.5t-53 57.5t-49.5 30.5t-33.5 7.5
l-8 2h348l736 -981q40 -58 67 -52q23 3 23 117z" />
    <glyph glyph-name="Ograve" unicode="&#xd2;" horiz-adv-x="1656" 
d="M803 1790l172 -244l-248 174q-41 29 -50 64t13 47q20 25 53.5 13t59.5 -54zM860 1450q174 0 309.5 -64.5t212.5 -177.5q157 -222 148 -503q-9 -317 -207 -521q-201 -207 -522 -204q-176 0 -317.5 67.5t-225.5 183.5q-165 234 -156 498q3 328 220 524q215 197 538 197z
M1311 711q-9 289 -156 499q-144 205 -360 205q-227 6 -359 -176q-132 -181 -117 -491q15 -289 166 -502q153 -215 361 -230q249 -21 364 170q119 192 101 525z" />
    <glyph glyph-name="Oacute" unicode="&#xd3;" horiz-adv-x="1656" 
d="M737 1556l172 244q26 42 59.5 53t53.5 -14q14 -8 15.5 -26t-12 -41.5t-40.5 -42.5zM860 1450q-323 0 -538 -197q-217 -196 -220 -524q-9 -264 156 -498q84 -116 225.5 -183.5t317.5 -67.5q321 -3 522 204q198 204 207 521q9 281 -148 503q-77 113 -212.5 177.5
t-309.5 64.5zM1311 711q18 -333 -101 -525q-115 -191 -364 -170q-208 15 -361 230q-151 213 -166 502q-15 310 117 491q132 182 359 176q216 0 360 -205q147 -210 156 -499z" />
    <glyph glyph-name="Ocircumflex" unicode="&#xd4;" horiz-adv-x="1656" 
d="M623 1524l168 280h114l144 -278l-201 209zM860 1450q-323 0 -538 -197q-217 -196 -220 -524q-9 -264 156 -498q84 -116 225.5 -183.5t317.5 -67.5q321 -3 522 204q198 204 207 521q9 281 -148 503q-77 113 -212.5 177.5t-309.5 64.5zM1311 711q18 -333 -101 -525
q-115 -191 -364 -170q-208 15 -361 230q-151 213 -166 502q-15 310 117 491q132 182 359 176q216 0 360 -205q147 -210 156 -499z" />
    <glyph glyph-name="Otilde" unicode="&#xd5;" horiz-adv-x="1656" 
d="M545 1581q0 94 57 149.5t137 49.5q52 -6 117 -68q65 -59 109 -59q58 -2 96.5 33t42.5 96q5 -78 -41 -140t-119 -63q-66 -3 -141 66q-69 69 -123 69q-16 0 -32.5 -5t-38 -17.5t-39 -41t-25.5 -69.5zM860 1450q-323 0 -538 -197q-217 -196 -220 -524q-9 -264 156 -498
q84 -116 225.5 -183.5t317.5 -67.5q321 -3 522 204q198 204 207 521q9 281 -148 503q-77 113 -212.5 177.5t-309.5 64.5zM1311 711q18 -333 -101 -525q-115 -191 -364 -170q-208 15 -361 230q-151 213 -166 502q-15 310 117 491q132 182 359 176q216 0 360 -205
q147 -210 156 -499z" />
    <glyph glyph-name="Odieresis" unicode="&#xd6;" horiz-adv-x="1656" 
d="M627 1604q-37 0 -64.5 29t-27.5 67q0 36 27.5 62t64.5 26q38 0 66 -25.5t28 -62.5q0 -41 -27.5 -68.5t-66.5 -27.5zM1047 1604q-37 0 -65 29t-28 67q0 36 28 62t65 26q38 0 66 -25.5t28 -62.5q0 -41 -27.5 -68.5t-66.5 -27.5zM860 1450q174 0 309.5 -64.5t212.5 -177.5
q157 -222 148 -503q-9 -317 -207 -521q-201 -207 -522 -204q-176 0 -317.5 67.5t-225.5 183.5q-165 234 -156 498q3 328 220 524q215 197 538 197zM1311 711q-9 289 -156 499q-144 205 -360 205q-227 6 -359 -176q-132 -181 -117 -491q15 -289 166 -502q153 -215 361 -230
q249 -21 364 170q119 192 101 525z" />
    <glyph glyph-name="multiply" unicode="&#xd7;" horiz-adv-x="872" 
d="M455 713l301 -303l-19 -19l-301 303l-303 -303l-16 19l301 301l-299 299l18 18l299 -299l299 299l17 -18z" />
    <glyph glyph-name="Oslash" unicode="&#xd8;" horiz-adv-x="1675" 
d="M1430 1436l-117 -138q116 -103 175 -260.5t54 -332.5q-9 -317 -207 -521q-201 -207 -522 -204q-279 0 -467 170l-125 -150h-33l140 166q-107 107 -163.5 257.5t-51.5 305.5q3 329 219 524q218 197 540 197q254 0 422 -137l105 123h31zM332 748q12 -243 121 -435l733 869
q-149 233 -379 233q-226 6 -358 -176q-132 -181 -117 -491zM856 16q251 -21 367 170q118 191 100 525q-12 264 -125 450l-731 -870q157 -257 389 -275z" />
    <glyph glyph-name="Ugrave" unicode="&#xd9;" horiz-adv-x="1398" 
d="M897 1546l-248 174q-41 29 -50 64t13 47q20 25 53.5 13t59.5 -54zM1186 612v576q0 73 -24.5 128t-63.5 79q-56 36 -109 39h404q-41 -3 -101 -41q-38 -24 -61 -80t-23 -133v-580q0 -614 -481 -614q-285 0 -412 184q-71 115 -96 264q-18 123 -18 301v492q0 56 -16.5 97.5
t-38 61.5t-50 32t-44 14t-29.5 2h559q-15 0 -31 -2t-45.5 -14t-51 -32t-38.5 -61.5t-17 -97.5v-609q0 -262 95 -413t301 -148q199 5 295 139.5t96 415.5z" />
    <glyph glyph-name="Uacute" unicode="&#xda;" horiz-adv-x="1398" 
d="M1012 1839q14 -8 15.5 -26t-12 -41.5t-40.5 -42.5l-250 -173l174 244q26 42 58 53t55 -14zM1186 612v576q0 73 -24.5 128t-63.5 79q-56 36 -109 39h404q-41 -3 -101 -41q-38 -24 -61 -80t-23 -133v-580q0 -614 -481 -614q-285 0 -412 184q-71 115 -96 264
q-18 123 -18 301v492q0 56 -16.5 97.5t-38 61.5t-50 32t-44 14t-29.5 2h559q-15 0 -31 -2t-45.5 -14t-51 -32t-38.5 -61.5t-17 -97.5v-609q0 -262 95 -413t301 -148q199 5 295 139.5t96 415.5z" />
    <glyph glyph-name="Ucircumflex" unicode="&#xdb;" horiz-adv-x="1398" 
d="M831 1804l144 -278l-201 209l-223 -211l168 280h112zM1186 612v576q0 73 -24.5 128t-63.5 79q-56 36 -109 39h404q-41 -3 -101 -41q-38 -24 -61 -80t-23 -133v-580q0 -614 -481 -614q-285 0 -412 184q-71 115 -96 264q-18 123 -18 301v492q0 56 -16.5 97.5t-38 61.5
t-50 32t-44 14t-29.5 2h559q-15 0 -31 -2t-45.5 -14t-51 -32t-38.5 -61.5t-17 -97.5v-609q0 -262 95 -413t301 -148q199 5 295 139.5t96 415.5z" />
    <glyph glyph-name="Udieresis" unicode="&#xdc;" horiz-adv-x="1398" 
d="M586 1604q-37 0 -64.5 29t-27.5 67q0 36 27.5 62t64.5 26q38 0 66 -25.5t28 -62.5q0 -41 -27.5 -68.5t-66.5 -27.5zM1008 1604q-37 0 -65 29t-28 67q0 36 28 62t65 26q38 0 66 -25.5t28 -62.5q0 -41 -27.5 -68.5t-66.5 -27.5zM1186 612v576q0 73 -24.5 128t-63.5 79
q-56 36 -109 39h404q-41 -3 -101 -41q-38 -24 -61 -80t-23 -133v-580q0 -614 -481 -614q-285 0 -412 184q-71 115 -96 264q-18 123 -18 301v492q0 56 -16.5 97.5t-38 61.5t-50 32t-44 14t-29.5 2h559q-15 0 -31 -2t-45.5 -14t-51 -32t-38.5 -61.5t-17 -97.5v-609
q0 -262 95 -413t301 -148q199 5 295 139.5t96 415.5z" />
    <glyph glyph-name="Yacute" unicode="&#xdd;" horiz-adv-x="1185" 
d="M897 1839q14 -8 15.5 -26t-12 -41.5t-40.5 -42.5l-248 -173l172 244q26 42 59.5 53t53.5 -14zM877 1434h397q-156 -34 -262 -224l-242 -436q-53 -100 -53 -225v-381q0 -68 39 -107q24 -26 49.5 -40t42 -17t41.5 -4h-539q31 0 62 8q41 12 77.5 54t36.5 98l2 366
q0 110 -49 189l-323 553q-50 80 -117 123t-117 43l539 -2q-79 -4 -105 -60t17 -129l272 -477q49 -82 100 10l222 398q61 100 37.5 171.5t-127.5 88.5z" />
    <glyph glyph-name="Thorn" unicode="&#xde;" horiz-adv-x="1128" 
d="M1006 967q53 -135 18 -271q-34 -131 -125 -198q-78 -60 -211 -78q-131 -15 -248 12q173 -15 299 68q126 85 129 286q1 187 -88.5 275t-271.5 86q-12 1 -113 -2v-993q0 -49 21 -84.5t55 -47.5q59 -20 92 -20h-524q36 0 90 20q34 12 55 47.5t21 84.5v1130q0 49 -21 83.5
t-55 47.5q-56 21 -90 21h524q-30 0 -92 -21q-34 -13 -55 -47.5t-21 -83.5v-121q6 1 16 1.5t25 1t27 1.5q14 1 25 2t16 1.5t6 0.5q203 8 322.5 -35.5t173.5 -166.5z" />
    <glyph glyph-name="germandbls" unicode="&#xdf;" horiz-adv-x="1083" 
d="M1006 332q3 -146 -82 -244t-232 -98q-105 0 -174 50.5t-69 125.5q0 37 22.5 57.5t54.5 20.5q22 0 33 -11q39 -26 39 -102q0 -60 34.5 -93t90.5 -28q67 1 106 67.5t41 168.5q6 251 -229 342q-68 29 -104 65q-23 23 -31.5 39.5t-8.5 31.5t1 36q7 58 104 135
q41 33 74.5 102.5t40.5 159.5q12 110 -29 199q-41 90 -147 90q-93 0 -132.5 -68t-39.5 -223v-1030q0 -42 18 -71t49 -40q57 -14 76 -14h-449q19 0 76 14q31 11 49.5 40t18.5 71v1005q0 334 375 328q115 -3 184 -63q128 -107 96 -279q-19 -98 -75 -168t-119 -96
q-106 -44 -129 -61q-22 -16 -23 -31q-2 -16 7 -27t30 -18.5t39.5 -11.5t50.5 -9.5t49 -9.5q156 -36 232.5 -130.5t81.5 -221.5z" />
    <glyph glyph-name="agrave" unicode="&#xe0;" 
d="M674 1049l-248 174q-41 29 -50 63.5t13 46.5q20 25 53.5 14t59.5 -53zM983 115q24 3 35 39q-11 -36 -21.5 -60t-30 -52.5t-51 -43t-73.5 -14.5q-142 0 -142 168v395q-196 -60 -301 -119q-128 -68 -137 -180q-5 -72 38.5 -124t125.5 -56q129 -9 266 98q-69 -71 -106 -102
q-12 -9 -27 -21q-91 -68 -217 -68q-129 0 -188 74q-58 73 -52 164q3 70 56 135q29 32 135 92q47 25 190 66l109 29l108 30v115q0 143 -62 208t-167 46q-82 -14 -133 -59.5t-51 -116.5q0 -14 13.5 -53t14.5 -52q3 -55 -44 -80.5t-94 -0.5t-44 92q3 104 109 182
q109 80 233 104q164 31 275 -32q115 -63 112 -250v-502q0 -81 43 -90q45 -9 78 39z" />
    <glyph glyph-name="aacute" unicode="&#xe1;" 
d="M711 1333q22 -10 13 -45.5t-48 -64.5l-250 -172l172 243q26 42 59.5 53t53.5 -14zM983 115q24 3 35 39q-11 -36 -21.5 -60t-30 -52.5t-51 -43t-73.5 -14.5q-142 0 -142 168v395q-196 -60 -301 -119q-128 -68 -137 -180q-5 -72 38.5 -124t125.5 -56q129 -9 266 98
q-69 -71 -106 -102q-12 -9 -27 -21q-91 -68 -217 -68q-129 0 -188 74q-58 73 -52 164q3 70 56 135q29 32 135 92q47 25 190 66l109 29l108 30v115q0 143 -62 208t-167 46q-82 -14 -133 -59.5t-51 -116.5q0 -14 13.5 -53t14.5 -52q3 -55 -44 -80.5t-94 -0.5t-44 92
q3 104 109 182q109 80 233 104q164 31 275 -32q115 -63 112 -250v-502q0 -81 43 -90q45 -9 78 39z" />
    <glyph glyph-name="acircumflex" unicode="&#xe2;" 
d="M614 1290l144 -278l-203 209l-223 -211l168 280h114zM983 115q24 3 35 39q-11 -36 -21.5 -60t-30 -52.5t-51 -43t-73.5 -14.5q-142 0 -142 168v395q-196 -60 -301 -119q-128 -68 -137 -180q-5 -72 38.5 -124t125.5 -56q129 -9 266 98q-69 -71 -106 -102q-12 -9 -27 -21
q-91 -68 -217 -68q-129 0 -188 74q-58 73 -52 164q3 70 56 135q29 32 135 92q47 25 190 66l109 29l108 30v115q0 143 -62 208t-167 46q-82 -14 -133 -59.5t-51 -116.5q0 -14 13.5 -53t14.5 -52q3 -55 -44 -80.5t-94 -0.5t-44 92q3 104 109 182q109 80 233 104
q164 31 275 -32q115 -63 112 -250v-502q0 -81 43 -90q45 -9 78 39z" />
    <glyph glyph-name="atilde" unicode="&#xe3;" 
d="M393 1210q-36 4 -77.5 -26.5t-59.5 -108.5q1 95 59 151t136 50q51 -6 116 -68q68 -59 111 -59q57 -2 95 32.5t42 94.5q6 -74 -39 -137q-46 -61 -121 -64q-67 -3 -139 66q-69 69 -123 69zM983 115q24 3 35 39q-11 -36 -21.5 -60t-30 -52.5t-51 -43t-73.5 -14.5
q-142 0 -142 168v395q-196 -60 -301 -119q-128 -68 -137 -180q-5 -72 38.5 -124t125.5 -56q129 -9 266 98q-69 -71 -106 -102q-12 -9 -27 -21q-91 -68 -217 -68q-129 0 -188 74q-58 73 -52 164q3 70 56 135q29 32 135 92q47 25 190 66l109 29l108 30v115q0 143 -62 208
t-167 46q-82 -14 -133 -59.5t-51 -116.5q0 -14 13.5 -53t14.5 -52q3 -55 -44 -80.5t-94 -0.5t-44 92q3 104 109 182q109 80 233 104q164 31 275 -32q115 -63 112 -250v-502q0 -81 43 -90q45 -9 78 39z" />
    <glyph glyph-name="adieresis" unicode="&#xe4;" 
d="M332 1108q-37 0 -64.5 28t-27.5 66q0 37 27.5 63.5t64.5 26.5q38 0 66 -26.5t28 -63.5q0 -39 -26.5 -66.5t-67.5 -27.5zM659 1202q0 37 28.5 63.5t66.5 26.5t66 -26.5t28 -63.5q0 -38 -28 -66t-66 -28t-66.5 28t-28.5 66zM983 115q24 3 35 39q-11 -36 -21.5 -60
t-30 -52.5t-51 -43t-73.5 -14.5q-142 0 -142 168v395q-196 -60 -301 -119q-128 -68 -137 -180q-5 -72 38.5 -124t125.5 -56q129 -9 266 98q-69 -71 -106 -102q-12 -9 -27 -21q-91 -68 -217 -68q-129 0 -188 74q-58 73 -52 164q3 70 56 135q29 32 135 92q47 25 190 66l109 29
l108 30v115q0 143 -62 208t-167 46q-82 -14 -133 -59.5t-51 -116.5q0 -14 13.5 -53t14.5 -52q3 -55 -44 -80.5t-94 -0.5t-44 92q3 104 109 182q109 80 233 104q164 31 275 -32q115 -63 112 -250v-502q0 -81 43 -90q45 -9 78 39z" />
    <glyph glyph-name="aring" unicode="&#xe5;" 
d="M532 1044q-51 0 -87.5 38t-36.5 89q0 54 36.5 91.5t87.5 37.5q56 0 93.5 -36.5t36.5 -92.5q0 -51 -38 -89t-92 -38zM602 1245q-29 29 -67.5 29t-69.5 -29q-29 -29 -29 -69.5t29 -71.5q31 -29 69.5 -29t67.5 29q31 31 31 71.5t-31 69.5zM983 115q24 3 35 39
q-11 -36 -21.5 -60t-30 -52.5t-51 -43t-73.5 -14.5q-142 0 -142 168v395q-196 -60 -301 -119q-128 -68 -137 -180q-5 -72 38.5 -124t125.5 -56q129 -9 266 98q-69 -71 -106 -102q-12 -9 -27 -21q-91 -68 -217 -68q-129 0 -188 74q-58 73 -52 164q3 70 56 135q29 32 135 92
q47 25 190 66l109 29l108 30v115q0 143 -62 208t-167 46q-82 -14 -133 -59.5t-51 -116.5q0 -14 13.5 -53t14.5 -52q3 -55 -44 -80.5t-94 -0.5t-44 92q3 104 109 182q109 80 233 104q164 31 275 -32q115 -63 112 -250v-502q0 -81 43 -90q45 -9 78 39z" />
    <glyph glyph-name="ae" unicode="&#xe6;" horiz-adv-x="1607" 
d="M743 176l-36 -37q-21 -24 -58 -53q-47 -43 -123 -77t-157 -29q-132 0 -197 71q-64 70 -61 162q-7 119 135 209q33 23 94 43q100 33 102 33q77 23 121 34l123 33v113q0 141 -58 203.5t-151 54.5q-86 -11 -142 -60.5t-52 -115.5q1 -12 12 -46t12 -48q1 -41 -23 -67t-63 -28
q-38 -2 -63.5 26t-24.5 77q3 101 127 188q104 78 236 90q105 13 191.5 -27.5t121.5 -133.5q42 60 129 110q99 57 229 51q154 -6 248 -123q95 -118 92 -303h-657q-6 -170 74 -297q79 -123 233 -135q252 -21 354 185q-36 -125 -133 -209q-98 -85 -233 -88q-108 -2 -216 55
t-169 156q-74 136 -74 358q-235 -84 -301 -133q-105 -73 -102 -178q2 -76 48 -128t130 -53q78 -4 141 22t141 95zM850 547q242 0 330 6q125 9 170 63q23 27 31 67t-5.5 92.5t-52.5 98.5q-62 62 -160 62q-95 3 -174 -57q-133 -109 -139 -332z" />
    <glyph glyph-name="ccedilla" unicode="&#xe7;" horiz-adv-x="1050" 
d="M981 295q-37 -141 -145.5 -232t-262.5 -92l-41 -59q91 -7 133 -51.5t31 -108.5q-8 -60 -49.5 -96.5t-93.5 -43.5t-104 5t-84 41q33 -14 72.5 -18t78.5 3t67.5 35.5t32.5 75.5q6 56 -33 87t-100 36l66 94q-195 9 -328 133q-132 126 -135 345q-3 263 184 401
q190 140 424 100q95 -15 170 -78q73 -58 76 -141q1 -50 -25.5 -79t-70.5 -27q-50 1 -74 42.5t-12 92.5q23 82 -20 129.5t-132 52.5q-184 9 -293 -143q-108 -150 -73 -365q23 -153 121 -242.5t245 -95.5q267 -12 375 199z" />
    <glyph glyph-name="egrave" unicode="&#xe8;" horiz-adv-x="1054" 
d="M506 1294l172 -245l-250 174q-39 29 -48 63.5t13 46.5q20 25 53.5 14t59.5 -53zM608 96q256 -9 357 195q-27 -133 -142 -225q-118 -92 -270 -89q-193 3 -328 138q-132 135 -135 348q-6 293 229 430q121 77 281 68q157 -9 260 -127q99 -111 96 -299h-710q0 -193 98 -312
q103 -121 264 -127zM391 889q-136 -100 -145 -338q309 0 366 8q131 12 174 70q22 28 29 73.5t-11 100t-65 90.5q-68 57 -168 55t-180 -59z" />
    <glyph glyph-name="eacute" unicode="&#xe9;" horiz-adv-x="1054" 
d="M477 1051l174 243q26 42 58 53t55 -14q22 -11 12 -46t-49 -64zM608 96q-161 6 -264 127q-98 119 -98 312h710q3 188 -96 299q-103 118 -260 127q-160 9 -281 -68q-235 -137 -229 -430q3 -213 135 -348q135 -135 328 -138q152 -3 270 89q115 92 142 225
q-101 -204 -357 -195zM391 889q80 57 180 59t168 -55q47 -36 65 -90.5t11 -100t-29 -73.5q-43 -58 -174 -70q-57 -8 -366 -8q9 238 145 338z" />
    <glyph glyph-name="ecircumflex" unicode="&#xea;" horiz-adv-x="1054" 
d="M344 1010l168 280h113l143 -278l-201 209zM608 96q-161 6 -264 127q-98 119 -98 312h710q3 188 -96 299q-103 118 -260 127q-160 9 -281 -68q-235 -137 -229 -430q3 -213 135 -348q135 -135 328 -138q152 -3 270 89q115 92 142 225q-101 -204 -357 -195zM391 889
q80 57 180 59t168 -55q47 -36 65 -90.5t11 -100t-29 -73.5q-43 -58 -174 -70q-57 -8 -366 -8q9 238 145 338z" />
    <glyph glyph-name="edieresis" unicode="&#xeb;" horiz-adv-x="1054" 
d="M350 1108q-37 0 -64.5 28t-27.5 66q0 37 27.5 63.5t64.5 26.5q38 0 66 -26.5t28 -63.5q0 -38 -28 -66t-66 -28zM680 1202q0 37 27 63.5t65 26.5t66 -26.5t28 -63.5q0 -38 -28 -66t-66 -28t-65 28t-27 66zM608 96q256 -9 357 195q-27 -133 -142 -225q-118 -92 -270 -89
q-193 3 -328 138q-132 135 -135 348q-6 293 229 430q121 77 281 68q157 -9 260 -127q99 -111 96 -299h-710q0 -193 98 -312q103 -121 264 -127zM391 889q-136 -100 -145 -338q309 0 366 8q131 12 174 70q22 28 29 73.5t-11 100t-65 90.5q-68 57 -168 55t-180 -59z" />
    <glyph glyph-name="igrave" unicode="&#xec;" horiz-adv-x="669" 
d="M483 1049l-250 174q-39 29 -48.5 63.5t12.5 46.5q23 25 54 14.5t60 -53.5zM420 963v-824q0 -97 67 -123q47 -16 78 -16h-456q32 0 79 16q72 27 72 123v568q0 59 -24.5 83.5t-59.5 16.5z" />
    <glyph glyph-name="iacute" unicode="&#xed;" horiz-adv-x="669" 
d="M467 1333q22 -10 13 -45.5t-48 -64.5l-250 -172l172 243q26 42 59.5 53t53.5 -14zM420 963v-824q0 -97 67 -123q47 -16 78 -16h-456q32 0 79 16q72 27 72 123v568q0 59 -24.5 83.5t-59.5 16.5z" />
    <glyph glyph-name="icircumflex" unicode="&#xee;" horiz-adv-x="669" 
d="M428 1290l143 -278l-200 209l-226 -211l170 280h113zM420 963v-824q0 -97 67 -123q47 -16 78 -16h-456q32 0 79 16q72 27 72 123v568q0 59 -24.5 83.5t-59.5 16.5z" />
    <glyph glyph-name="idieresis" unicode="&#xef;" horiz-adv-x="669" 
d="M231 1202q0 -38 -28 -66t-66 -28q-37 0 -64.5 28t-27.5 66q0 37 27.5 63.5t64.5 26.5q38 0 66 -26.5t28 -63.5zM653 1202q0 -38 -28 -66t-66 -28t-66 28t-28 66q0 37 28 63.5t66 26.5t66 -26.5t28 -63.5zM420 963v-824q0 -97 67 -123q47 -16 78 -16h-456q32 0 79 16
q72 27 72 123v568q0 59 -24.5 83.5t-59.5 16.5z" />
    <glyph glyph-name="eth" unicode="&#xf0;" horiz-adv-x="1118" 
d="M1018 569q15 -254 -111 -413q-127 -160 -334 -172q-49 -4 -102 2.5t-116.5 31t-116.5 64.5t-96.5 112t-61.5 166q-43 211 53 373q99 163 291 209q236 48 358 -35q-27 126 -98 262l-203 -114l-30 4l223 127q-108 188 -244 280q167 -78 309 -245l125 71l-6 -24l-106 -62
q245 -295 266 -637zM627 8q100 12 159 98q102 146 58 449q-37 204 -144 311t-260 60q-58 -18 -100 -62.5t-63 -100t-30 -121.5t-7.5 -124t10.5 -110q35 -209 141 -313.5t236 -86.5z" />
    <glyph glyph-name="ntilde" unicode="&#xf1;" horiz-adv-x="1161" 
d="M461 1210q-35 4 -75.5 -26.5t-59.5 -108.5q1 96 57.5 151.5t136.5 49.5q52 -6 117 -68q68 -59 111 -59q57 -2 95 32.5t42 94.5q6 -74 -39 -137q-46 -61 -121 -64q-66 -3 -141 66q-69 69 -123 69zM362 963v-824q0 -46 19 -78.5t49 -44.5q47 -16 78 -16h-449q29 0 76 16
q68 27 68 123v574q0 28 -8 47.5t-19 28.5t-23.5 13t-22 3.5t-13.5 -2.5zM977 545v-406q0 -46 18.5 -78.5t48.5 -44.5q47 -16 78 -16h-450q29 0 76 16q31 12 49 44t18 79v353v28q0 81 -2 101q0 33 -6 79q-6 64 -26.5 92.5t-69.5 51.5q-65 24 -164 -10q-99 -36 -174 -105
q88 104 197 167.5t218 53.5q124 -13 154 -96q2 -5 8 -19t7.5 -18t5.5 -16t5 -20.5t3 -22t2 -29.5q4 -62 4 -70v-77v-37z" />
    <glyph glyph-name="ograve" unicode="&#xf2;" horiz-adv-x="1107" 
d="M520 1294l172 -245l-250 174q-39 29 -48.5 63.5t12.5 46.5q23 25 54 14.5t60 -53.5zM602 -18q-135 -3 -278 55q-81 36 -141.5 116.5t-86.5 192.5q-43 205 54 375q93 166 288 219q233 59 402 -47q173 -108 200 -356q24 -230 -106 -387q-132 -159 -332 -168zM862 571
q-38 190 -157 297q-122 110 -271 52q-82 -30 -129 -119q-81 -151 -35 -416q40 -205 150 -295q112 -89 231 -80q98 9 158 96q56 82 66.5 208t-13.5 257z" />
    <glyph glyph-name="oacute" unicode="&#xf3;" horiz-adv-x="1107" 
d="M473 1051l174 243q26 42 58 53t55 -14q14 -8 15.5 -26t-12 -41.5t-40.5 -42.5zM602 -18q200 9 332 168q130 157 106 387q-27 248 -200 356q-169 106 -402 47q-195 -53 -288 -219q-97 -170 -54 -375q26 -112 86.5 -192.5t141.5 -116.5q143 -58 278 -55zM862 571
q24 -131 13.5 -257t-66.5 -208q-60 -87 -158 -96q-119 -9 -231 80q-110 90 -150 295q-46 265 35 416q47 89 129 119q149 58 271 -52q119 -107 157 -297z" />
    <glyph glyph-name="ocircumflex" unicode="&#xf4;" horiz-adv-x="1107" 
d="M362 1010l168 280h115l143 -278l-200 209zM602 -18q200 9 332 168q130 157 106 387q-27 248 -200 356q-169 106 -402 47q-195 -53 -288 -219q-97 -170 -54 -375q26 -112 86.5 -192.5t141.5 -116.5q143 -58 278 -55zM862 571q24 -131 13.5 -257t-66.5 -208
q-60 -87 -158 -96q-119 -9 -231 80q-110 90 -150 295q-46 265 35 416q47 89 129 119q149 58 271 -52q119 -107 157 -297z" />
    <glyph glyph-name="otilde" unicode="&#xf5;" horiz-adv-x="1107" 
d="M295 1075q1 95 58.5 151t135.5 50q52 -6 117 -68q68 -59 111 -59q57 -2 95 32.5t42 94.5q6 -74 -39 -137q-46 -61 -121 -64q-69 -3 -141 66q-69 69 -121 69q-36 4 -77.5 -26.5t-59.5 -108.5zM602 -18q200 9 332 168q130 157 106 387q-27 248 -200 356q-169 106 -402 47
q-195 -53 -288 -219q-97 -170 -54 -375q26 -112 86.5 -192.5t141.5 -116.5q143 -58 278 -55zM862 571q24 -131 13.5 -257t-66.5 -208q-60 -87 -158 -96q-119 -9 -231 80q-110 90 -150 295q-46 265 35 416q47 89 129 119q149 58 271 -52q119 -107 157 -297z" />
    <glyph glyph-name="odieresis" unicode="&#xf6;" horiz-adv-x="1107" 
d="M377 1108q-38 0 -65 28t-27 66q0 37 27 63.5t65 26.5t66 -26.5t28 -63.5q0 -39 -26.5 -66.5t-67.5 -27.5zM797 1108q-37 0 -64.5 28t-27.5 66q0 37 27.5 63.5t64.5 26.5q38 0 66 -26.5t28 -63.5q0 -38 -28 -66t-66 -28zM602 -18q-135 -3 -278 55q-81 36 -141.5 116.5
t-86.5 192.5q-43 205 54 375q93 166 288 219q233 59 402 -47q173 -108 200 -356q24 -230 -106 -387q-132 -159 -332 -168zM862 571q-38 190 -157 297q-122 110 -271 52q-82 -30 -129 -119q-81 -151 -35 -416q40 -205 150 -295q112 -89 231 -80q98 9 158 96q56 82 66.5 208
t-13.5 257z" />
    <glyph glyph-name="divide" unicode="&#xf7;" horiz-adv-x="1038" 
d="M524 891q32 0 57 -24t25 -56t-25 -58t-57 -26t-58 26t-26 58q0 33 24.5 56.5t59.5 23.5zM117 532v19h805v-19h-805zM440 272q0 33 24.5 56.5t59.5 23.5q54 0 75 -49t-17 -90q-27 -22 -58.5 -23.5t-57.5 22.5t-26 60z" />
    <glyph glyph-name="oslash" unicode="&#xf8;" horiz-adv-x="1140" 
d="M1053 537q24 -229 -107 -387q-132 -159 -332 -168q-226 -9 -366 116l-88 -98h-27l100 111q-89 89 -124 235q-43 206 53 375q92 166 289 219q276 70 452 -86l62 70h24l-74 -82q117 -114 138 -305zM281 385q19 -92 53 -162l477 529q-65 115 -161 161.5t-204 6.5
q-121 -47 -161 -201q-41 -158 -4 -334zM664 10q97 9 157 96q56 82 66.5 208t-13.5 257q-15 83 -55 164l-475 -530q58 -105 143 -154t177 -41z" />
    <glyph glyph-name="ugrave" unicode="&#xf9;" horiz-adv-x="1103" 
d="M680 1049l-248 174q-41 29 -50 63.5t13 46.5q20 25 53.5 14t59.5 -53zM420 88q69 -28 172 6q101 33 178 107q-75 -95 -190 -162q-116 -68 -238 -59q-111 -2 -162 120q-13 26 -16 76l-6 82v92v33v397q0 48 -19 80t-51 43q-46 19 -76 19h305v-142v-342v-94q0 -101 13 -145
q28 -102 90 -111zM782 117v671q0 44 -18 75t-49 42q-47 17 -74 17h301v-721q0 -26 7.5 -42.5t21 -22.5t21.5 -7.5t20 -1.5h8l-238 -154v144z" />
    <glyph glyph-name="uacute" unicode="&#xfa;" horiz-adv-x="1103" 
d="M752 1333q14 -8 15.5 -26t-12 -41.5t-40.5 -42.5l-248 -172l172 243q26 42 59.5 53t53.5 -14zM420 88q69 -28 172 6q101 33 178 107q-75 -95 -190 -162q-116 -68 -238 -59q-111 -2 -162 120q-13 26 -16 76l-6 82v92v33v397q0 48 -19 80t-51 43q-46 19 -76 19h305v-142
v-342v-94q0 -101 13 -145q28 -102 90 -111zM782 117v671q0 44 -18 75t-49 42q-47 17 -74 17h301v-721q0 -26 7.5 -42.5t21 -22.5t21.5 -7.5t20 -1.5h8l-238 -154v144z" />
    <glyph glyph-name="ucircumflex" unicode="&#xfb;" horiz-adv-x="1103" 
d="M639 1290l141 -278l-200 209l-224 -211l168 280h115zM420 88q69 -28 172 6q101 33 178 107q-75 -95 -190 -162q-116 -68 -238 -59q-111 -2 -162 120q-13 26 -16 76l-6 82v92v33v397q0 48 -19 80t-51 43q-46 19 -76 19h305v-142v-342v-94q0 -101 13 -145q28 -102 90 -111z
M782 117v671q0 44 -18 75t-49 42q-47 17 -74 17h301v-721q0 -26 7.5 -42.5t21 -22.5t21.5 -7.5t20 -1.5h8l-238 -154v144z" />
    <glyph glyph-name="udieresis" unicode="&#xfc;" horiz-adv-x="1103" 
d="M346 1108q-37 0 -64.5 28t-27.5 66q0 37 27.5 63.5t64.5 26.5q38 0 66 -26.5t28 -63.5q0 -38 -28 -66t-66 -28zM676 1202q0 37 27 63.5t65 26.5t66 -26.5t28 -63.5q0 -38 -28 -66t-66 -28t-65 28t-27 66zM420 88q69 -28 172 6q101 33 178 107q-75 -95 -190 -162
q-116 -68 -238 -59q-111 -2 -162 120q-13 26 -16 76l-6 82v92v33v397q0 48 -19 80t-51 43q-46 19 -76 19h305v-142v-342v-94q0 -101 13 -145q28 -102 90 -111zM782 117v671q0 44 -18 75t-49 42q-47 17 -74 17h301v-721q0 -26 7.5 -42.5t21 -22.5t21.5 -7.5t20 -1.5h8
l-238 -154v144z" />
    <glyph glyph-name="yacute" unicode="&#xfd;" horiz-adv-x="919" 
d="M760 1333q14 -8 15.5 -26t-12 -41.5t-40.5 -42.5l-248 -172l172 243q26 42 59.5 53t53.5 -14zM674 922h325q-70 -17 -125 -78q-30 -26 -63 -103l-319 -782l-117 -281q-29 -72 -65 -95t-93 -17q-38 6 -59.5 38.5t-10.5 69.5q22 63 86 60q18 -1 47 -25t31 -24q46 -9 80 67
l90 219l-368 834q-25 48 -64.5 79.5t-68.5 33.5l-27 4h414l-7 -2q-7 -1 -17 -3.5t-21.5 -7.5t-21.5 -14t-16.5 -21t-6 -30.5t9.5 -40.5l213 -496q29 -63 61 -63q9 0 16.5 4.5t14.5 14.5t11.5 17.5t12.5 24.5t11 23l164 401l8 23q25 69 -9 114t-116 56z" />
    <glyph glyph-name="thorn" unicode="&#xfe;" horiz-adv-x="1128" 
d="M1034 481q3 -204 -125 -350t-301 -149q-187 -3 -299 106v-407q0 -41 20 -69.5t52 -39.5q43 -14 82 -14h-465q39 0 80 14q33 11 52.5 39t19.5 70v1519q0 52 -23 82q-12 16 -26.5 20.5t-30 2.5t-17.5 -2l256 165v-204v-852q0 -213 97 -318q95 -102 227 -90
q122 12 187.5 134.5t60.5 312.5q-7 197 -87.5 303t-207.5 114q-59 5 -116 -19t-87 -50t-47 -49l-10 -17q31 51 47 74q102 142 260 147q178 6 289 -119.5t112 -353.5z" />
    <glyph glyph-name="ydieresis" unicode="&#xff;" horiz-adv-x="919" 
d="M313 1108q-37 0 -64.5 28t-27.5 66q0 37 27.5 63.5t64.5 26.5q38 0 66.5 -26.5t28.5 -63.5q0 -38 -28.5 -66t-66.5 -28zM733 1108q-37 0 -64.5 28t-27.5 66q0 37 27.5 63.5t64.5 26.5q38 0 66 -26.5t28 -63.5q0 -39 -26.5 -66.5t-67.5 -27.5zM674 922h325
q-70 -17 -125 -78q-30 -26 -63 -103l-319 -782l-117 -281q-29 -72 -65 -95t-93 -17q-38 6 -59.5 38.5t-10.5 69.5q22 63 86 60q18 -1 47 -25t31 -24q46 -9 80 67l90 219l-368 834q-25 48 -64.5 79.5t-68.5 33.5l-27 4h414l-7 -2q-7 -1 -17 -3.5t-21.5 -7.5t-21.5 -14
t-16.5 -21t-6 -30.5t9.5 -40.5l213 -496q29 -63 61 -63q9 0 16.5 4.5t14.5 14.5t11.5 17.5t12.5 24.5t11 23l164 401l8 23q25 69 -9 114t-116 56z" />
    <glyph glyph-name="Amacron" unicode="&#x100;" horiz-adv-x="1277" 
d="M424 1632l403 2v-18h-403v16zM627 1477l506 -1299q26 -68 75 -117q30 -27 55 -40.5t38 -16.5t36 -4h-549q15 0 62 16q30 10 47 31q48 72 14 139l-145 400h-473l-133 -350q-26 -64 -21 -114.5t46.5 -83.5t113.5 -38h-405q72 5 134 67.5t105 174.5l488 1253zM535 1149
q-27 0 -86 -156l-146 -387l455 2l-152 426q-44 115 -71 115zM1346 0h-9h9z" />
    <glyph glyph-name="amacron" unicode="&#x101;" 
d="M348 1122l404 2v-18h-404v16zM983 115q24 3 35 39q-11 -36 -21.5 -60t-30 -52.5t-51 -43t-73.5 -14.5q-142 0 -142 168v395q-196 -60 -301 -119q-128 -68 -137 -180q-5 -72 38.5 -124t125.5 -56q129 -9 266 98q-69 -71 -106 -102q-12 -9 -27 -21q-91 -68 -217 -68
q-129 0 -188 74q-58 73 -52 164q3 70 56 135q29 32 135 92q47 25 190 66l109 29l108 30v115q0 143 -62 208t-167 46q-82 -14 -133 -59.5t-51 -116.5q0 -14 13.5 -53t14.5 -52q3 -55 -44 -80.5t-94 -0.5t-44 92q3 104 109 182q109 80 233 104q164 31 275 -32
q115 -63 112 -250v-502q0 -81 43 -90q45 -9 78 39z" />
    <glyph glyph-name="Abreve" unicode="&#x102;" horiz-adv-x="1277" 
d="M627 1608q-92 0 -148.5 60t-58.5 153q20 -65 75 -101.5t128 -36.5q161 0 202 136q-2 -86 -56 -148.5t-142 -62.5zM627 1477l506 -1299q26 -68 75 -117q30 -27 55 -40.5t38 -16.5t36 -4h-549q15 0 62 16q30 10 47 31q48 72 14 139l-145 400h-473l-133 -350
q-26 -64 -21 -114.5t46.5 -83.5t113.5 -38h-405q72 5 134 67.5t105 174.5l488 1253zM535 1149q-27 0 -86 -156l-146 -387l455 2l-152 426q-44 115 -71 115zM1346 0h-9h9z" />
    <glyph glyph-name="abreve" unicode="&#x103;" 
d="M547 1098q-92 0 -149.5 60.5t-59.5 152.5q20 -65 75 -100t130 -35q161 0 202 133q-2 -86 -56.5 -148.5t-141.5 -62.5zM983 115q24 3 35 39q-11 -36 -21.5 -60t-30 -52.5t-51 -43t-73.5 -14.5q-142 0 -142 168v395q-196 -60 -301 -119q-128 -68 -137 -180
q-5 -72 38.5 -124t125.5 -56q129 -9 266 98q-69 -71 -106 -102q-12 -9 -27 -21q-91 -68 -217 -68q-129 0 -188 74q-58 73 -52 164q3 70 56 135q29 32 135 92q47 25 190 66l109 29l108 30v115q0 143 -62 208t-167 46q-82 -14 -133 -59.5t-51 -116.5q0 -14 13.5 -53t14.5 -52
q3 -55 -44 -80.5t-94 -0.5t-44 92q3 104 109 182q109 80 233 104q164 31 275 -32q115 -63 112 -250v-502q0 -81 43 -90q45 -9 78 39z" />
    <glyph glyph-name="Aogonek" unicode="&#x104;" horiz-adv-x="1277" 
d="M1337 0h-188q-59 -34 -94 -92.5t-25 -122.5q8 -48 32 -76.5t57 -36.5t65.5 -5t66.5 14q-42 -41 -115.5 -48.5t-138 30.5t-77.5 114q-24 124 90 223h-222q15 0 62 16q30 10 47 31q48 72 14 139l-145 400h-473l-133 -350q-26 -64 -21 -114.5t46.5 -83.5t113.5 -38h-405
q72 5 134 67.5t105 174.5l488 1253l6 -18l506 -1299q26 -68 75 -117q30 -27 55 -40.5t38 -16.5t36 -4zM535 1149q-27 0 -86 -156l-146 -387l455 2l-152 426q-44 115 -71 115zM1346 0h-9h9z" />
    <glyph glyph-name="aogonek" unicode="&#x105;" 
d="M983 115q24 3 35 39q-11 -36 -21.5 -60t-30 -52.5t-51 -43t-73.5 -14.5q-142 0 -142 168v395q-196 -60 -301 -119q-128 -68 -137 -180q-5 -72 38.5 -124t125.5 -56q129 -9 266 98l-65 -68q-26 -24 -77 -57.5t-97 -48.5q-51 -38 -80.5 -94.5t-18.5 -114.5q8 -48 32 -77
t57 -36.5t65.5 -5t66.5 13.5q-43 -41 -116 -48t-137.5 30.5t-77.5 114.5q-21 114 67 202q-109 9 -164 82q-51 69 -45 154q3 70 56 135q29 32 135 92q47 25 190 66l109 29l108 30v115q0 143 -62 208t-167 46q-82 -14 -133 -59.5t-51 -116.5q0 -14 13.5 -53t14.5 -52
q3 -55 -44 -80.5t-94 -0.5t-44 92q3 104 109 182q109 80 233 104q164 31 275 -32q115 -63 112 -250v-502q0 -81 43 -90q45 -9 78 39z" />
    <glyph glyph-name="Cacute" unicode="&#x106;" horiz-adv-x="1456" 
d="M729 1556l172 244q26 42 59.5 53t53.5 -14q22 -10 13 -45.5t-48 -64.5zM291 741q-15 207 49 373q64 164 195 242q210 122 452 12q209 -99 326 -330l2 293l-27 17q-30 21 -95 46.5t-134 37.5q-125 26 -268 16q-291 -22 -488 -207q-100 -93 -155.5 -236t-51.5 -313
q5 -143 63 -278.5t160 -237.5q105 -105 261.5 -154.5t332.5 -25.5q93 13 178.5 58t137.5 100q52 59 82 112q14 23 24 42t15.5 32t8.5 21t5.5 17t3.5 11l-12 -29q-25 -61 -131 -149q-50 -40 -135 -67t-179 -27q-247 3 -424 174q-175 172 -196 450z" />
    <glyph glyph-name="cacute" unicode="&#x107;" horiz-adv-x="1050" 
d="M512 1051l172 243q29 43 60.5 53.5t54.5 -14.5q22 -11 12 -46t-49 -64zM240 434q-35 215 73 365q109 152 293 143q89 -5 132 -52.5t20 -129.5q-12 -51 12 -92.5t74 -42.5q44 -2 70.5 27t25.5 79q-3 83 -76 141q-75 63 -170 78q-234 40 -424 -100q-187 -138 -184 -401
q3 -223 141 -349t338 -129q162 0 271 92q110 90 145 232q-108 -211 -375 -199q-147 6 -245 95.5t-121 242.5z" />
    <glyph glyph-name="Cdotaccent" unicode="&#x10a;" horiz-adv-x="1456" 
d="M825 1604q-37 0 -63.5 27t-26.5 65q0 35 26.5 61.5t63.5 26.5q35 0 61.5 -26.5t26.5 -61.5q0 -38 -26 -65t-62 -27zM291 741q21 -278 196 -450q177 -171 424 -174q94 0 179 27t135 67q106 88 131 149l12 29q-1 -2 -3.5 -11t-5.5 -17t-8.5 -21t-15.5 -32t-24 -42
q-30 -53 -82 -112q-52 -55 -137.5 -100t-178.5 -58q-176 -24 -332.5 25.5t-261.5 154.5q-102 102 -160 237.5t-63 278.5q-4 170 51.5 313t155.5 236q197 185 488 207q143 10 268 -16q69 -12 134 -37.5t95 -46.5l27 -17l-2 -293q-117 231 -326 330q-242 110 -452 -12
q-131 -78 -195 -242q-64 -166 -49 -373z" />
    <glyph glyph-name="cdotaccent" unicode="&#x10b;" horiz-adv-x="1050" 
d="M600 1098q-38 0 -67 28.5t-29 65.5q0 38 29 66t67 28t65 -28t27 -66q0 -37 -27.5 -65.5t-64.5 -28.5zM240 434q23 -153 121 -242.5t245 -95.5q267 -12 375 199q-35 -142 -145 -232q-109 -92 -271 -92q-200 3 -338 129t-141 349q-3 263 184 401q190 140 424 100
q95 -15 170 -78q73 -58 76 -141q1 -50 -25.5 -79t-70.5 -27q-50 1 -74 42.5t-12 92.5q23 82 -20 129.5t-132 52.5q-184 9 -293 -143q-108 -150 -73 -365z" />
    <glyph glyph-name="Ccaron" unicode="&#x10c;" horiz-adv-x="1456" 
d="M555 1839l223 -211l203 209l-143 -278h-115zM291 741q-15 207 49 373q64 164 195 242q210 122 452 12q209 -99 326 -330l2 293l-27 17q-30 21 -95 46.5t-134 37.5q-125 26 -268 16q-291 -22 -488 -207q-100 -93 -155.5 -236t-51.5 -313q5 -143 63 -278.5t160 -237.5
q105 -105 261.5 -154.5t332.5 -25.5q93 13 178.5 58t137.5 100q52 59 82 112q14 23 24 42t15.5 32t8.5 21t5.5 17t3.5 11l-12 -29q-25 -61 -131 -149q-50 -40 -135 -67t-179 -27q-247 3 -424 174q-175 172 -196 450z" />
    <glyph glyph-name="ccaron" unicode="&#x10d;" horiz-adv-x="1050" 
d="M362 1335l224 -211l202 209l-143 -278h-115zM240 434q-35 215 73 365q109 152 293 143q89 -5 132 -52.5t20 -129.5q-12 -51 12 -92.5t74 -42.5q44 -2 70.5 27t25.5 79q-3 83 -76 141q-75 63 -170 78q-234 40 -424 -100q-187 -138 -184 -401q3 -223 141 -349t338 -129
q162 0 271 92q110 90 145 232q-108 -211 -375 -199q-147 6 -245 95.5t-121 242.5z" />
    <glyph glyph-name="Dcaron" unicode="&#x10e;" horiz-adv-x="1454" 
d="M899 1837l-141 -278h-115l-168 280l223 -211zM1352 766q6 -155 -36 -294t-124 -243.5t-208 -166t-279 -62.5h-123h-564q39 0 103 20q39 14 63.5 53t24.5 93v1094q0 59 -24.5 99t-63.5 52q-65 23 -103 23h580q184 2 312.5 -27.5t228.5 -101.5q204 -143 213 -539zM709 25
q219 13 330.5 207.5t105.5 535.5q-3 375 -176 518q-78 66 -167 95.5t-208 31.5q-122 0 -184 -4v-1216q0 -97 44.5 -133.5t151.5 -36.5q93 0 103 2z" />
    <glyph glyph-name="dcaron" unicode="&#x10f;" horiz-adv-x="1097" 
d="M1040 131h19l-256 -166v524q0 204 -80 327t-209 128q-123 3 -205 -123q-80 -122 -71 -327q9 -196 102 -314q94 -120 221 -129q146 -6 232 123q-22 -42 -37.5 -64.5t-48.5 -56.5q-66 -75 -195 -78q-183 -3 -311 125q-126 132 -129 357q-6 234 129 366q141 135 321 138
q173 3 281 -99v209l-31 -24q28 28 31 32v121q0 61 -29.5 88t-64.5 15l32 22q-27 24 -30 61q-4 38 20 68t62 35q34 3 61 -12q5 -1 20 -17q15 -15 21 -33v-4l66 43v-1249q0 -29 7.5 -48t21 -26.5t24.5 -9.5t26 -2z" />
    <glyph glyph-name="Dcroat" unicode="&#x110;" horiz-adv-x="1476" 
d="M1364 766q6 -155 -36 -294t-124 -243.5t-208 -166t-279 -62.5h-125h-561q38 0 102 20q39 14 63.5 53t24.5 93v555h-127l-24 18h151v521q0 59 -24.5 99t-63.5 52q-65 23 -102 23h579q142 2 251.5 -15t204.5 -62.5t157.5 -120.5t99.5 -193t41 -277zM721 25
q219 13 330.5 207.5t105.5 535.5q-3 375 -176 518q-78 66 -167 95.5t-208 31.5q-120 0 -186 -4v-670h221l-18 -18h-203v-528q0 -97 45 -133.5t153 -36.5q93 0 103 2z" />
    <glyph glyph-name="dslash" unicode="&#x111;" horiz-adv-x="1148" 
d="M1087 1116v-18h-114v-881q0 -29 7.5 -48t21.5 -26.5t25 -9.5t26 -2h18l-258 -166v524q0 205 -79 327.5t-208 127.5q-122 3 -204 -123q-81 -124 -72 -327q9 -196 102 -314q94 -120 221 -129q146 -6 232 123q-22 -42 -37.5 -64.5t-48.5 -56.5q-66 -75 -195 -78
q-183 -3 -311 125q-128 134 -131 357q-3 235 131 366q138 135 322 138q176 3 278 -99v236h-160v16h160v86q0 59 -29 87t-63 16l252 163v-350h114z" />
    <glyph glyph-name="Emacron" unicode="&#x112;" horiz-adv-x="1333" 
d="M420 1632l403 2v-18h-403v16zM1044 143q69 50 123.5 105t73.5 88l19 31l-89 -367h-1130q33 0 98 25q36 14 59 52.5t23 92.5v1100q0 54 -23 91.5t-61 49.5q-60 23 -96 23h1059l71 -328q-16 31 -77 98q-66 73 -127 113q-84 57 -166 76q-76 20 -260 20h-127v-657h114
q69 1 123 21t85 51.5t46.5 56t24.5 49.5l6 20v-424q-5 25 -31 70q-29 55 -90.5 94t-163.5 39h-114v-538q0 -47 10.5 -81t25.5 -52t37.5 -28.5t39.5 -13t38 -2.5h129q182 0 350 125z" />
    <glyph glyph-name="emacron" unicode="&#x113;" horiz-adv-x="1054" 
d="M377 1106v16l403 2v-18h-403zM608 96q256 -9 357 195q-27 -133 -142 -225q-118 -92 -270 -89q-193 3 -328 138q-132 135 -135 348q-6 293 229 430q121 77 281 68q157 -9 260 -127q99 -111 96 -299h-710q0 -193 98 -312q103 -121 264 -127zM391 889q-136 -100 -145 -338
q309 0 366 8q131 12 174 70q22 28 29 73.5t-11 100t-65 90.5q-68 57 -168 55t-180 -59z" />
    <glyph glyph-name="Edotaccent" unicode="&#x116;" horiz-adv-x="1333" 
d="M580 1696q0 35 26.5 61.5t63.5 26.5q36 0 62 -26t26 -62q0 -38 -25.5 -65t-62.5 -27t-63.5 27t-26.5 65zM1044 143q69 50 123.5 105t73.5 88l19 31l-89 -367h-1130q33 0 98 25q36 14 59 52.5t23 92.5v1100q0 54 -23 91.5t-61 49.5q-60 23 -96 23h1059l71 -328
q-16 31 -77 98q-66 73 -127 113q-84 57 -166 76q-76 20 -260 20h-127v-657h114q69 1 123 21t85 51.5t46.5 56t24.5 49.5l6 20v-424q-5 25 -31 70q-29 55 -90.5 94t-163.5 39h-114v-538q0 -47 10.5 -81t25.5 -52t37.5 -28.5t39.5 -13t38 -2.5h129q182 0 350 125z" />
    <glyph glyph-name="edotaccent" unicode="&#x117;" horiz-adv-x="1054" 
d="M588 1098q-38 0 -67 28.5t-29 65.5q0 38 29 66t67 28t65 -28t27 -66q0 -37 -27.5 -65.5t-64.5 -28.5zM608 96q256 -9 357 195q-27 -133 -142 -225q-118 -92 -270 -89q-193 3 -328 138q-132 135 -135 348q-6 293 229 430q121 77 281 68q157 -9 260 -127q99 -111 96 -299
h-710q0 -193 98 -312q103 -121 264 -127zM391 889q-136 -100 -145 -338q309 0 366 8q131 12 174 70q22 28 29 73.5t-11 100t-65 90.5q-68 57 -168 55t-180 -59z" />
    <glyph glyph-name="Eogonek" unicode="&#x118;" horiz-adv-x="1333" 
d="M1036 -217q8 -48 32 -77t57 -36.5t65.5 -5t66.5 13.5q-43 -41 -116 -48t-137.5 30.5t-77.5 114.5q-24 127 92 225h-977q33 0 98 25q36 14 59 52.5t23 92.5v1100q0 54 -23 91.5t-61 49.5q-60 23 -96 23h1059l71 -328q-16 31 -77 98q-66 73 -127 113q-84 57 -166 76
q-76 20 -260 20h-127v-657h114q69 1 123 21t85 51.5t46.5 56t24.5 49.5l6 20v-424q-5 25 -31 70q-29 55 -90.5 94t-163.5 39h-114v-538q0 -47 10.5 -81t25.5 -52t37.5 -28.5t39.5 -13t38 -2.5h129q182 0 350 125q69 50 123.5 105t73.5 88l19 31l-89 -367h-12
q-60 -33 -97 -93t-26 -124z" />
    <glyph glyph-name="eogonek" unicode="&#x119;" horiz-adv-x="1054" 
d="M645 -14q122 25 208.5 108t111.5 197q-101 -204 -357 -195q-161 6 -264 127q-98 119 -98 312h710q3 188 -96 299q-103 118 -260 127q-160 9 -281 -68q-235 -137 -229 -430q3 -199 121 -332q116 -131 293 -149q-94 -91 -70 -207q13 -77 78 -114.5t138 -30.5t116 48
q-34 -11 -66.5 -13.5t-65.5 5t-57 36.5t-32 77q-21 116 100 203zM391 889q80 57 180 59t168 -55q47 -36 65 -90.5t11 -100t-29 -73.5q-43 -58 -174 -70q-57 -8 -366 -8q9 238 145 338z" />
    <glyph glyph-name="Ecaron" unicode="&#x11a;" horiz-adv-x="1333" 
d="M860 1837l-143 -278h-115l-168 280l225 -211zM1044 143q69 50 123.5 105t73.5 88l19 31l-89 -367h-1130q33 0 98 25q36 14 59 52.5t23 92.5v1100q0 54 -23 91.5t-61 49.5q-60 23 -96 23h1059l71 -328q-16 31 -77 98q-66 73 -127 113q-84 57 -166 76q-76 20 -260 20h-127
v-657h114q69 1 123 21t85 51.5t46.5 56t24.5 49.5l6 20v-424q-5 25 -31 70q-29 55 -90.5 94t-163.5 39h-114v-538q0 -47 10.5 -81t25.5 -52t37.5 -28.5t39.5 -13t38 -2.5h129q182 0 350 125z" />
    <glyph glyph-name="ecaron" unicode="&#x11b;" horiz-adv-x="1054" 
d="M350 1335l225 -211l201 209l-143 -278h-115zM608 96q-161 6 -264 127q-98 119 -98 312h710q3 188 -96 299q-103 118 -260 127q-160 9 -281 -68q-235 -137 -229 -430q3 -213 135 -348q135 -135 328 -138q152 -3 270 89q115 92 142 225q-101 -204 -357 -195zM391 889
q80 57 180 59t168 -55q47 -36 65 -90.5t11 -100t-29 -73.5q-43 -58 -174 -70q-57 -8 -366 -8q9 238 145 338z" />
    <glyph glyph-name="Gbreve" unicode="&#x11e;" horiz-adv-x="1525" 
d="M805 1683q162 0 203 136q-2 -86 -57 -148.5t-142 -62.5q-92 0 -149.5 60.5t-59.5 152.5q20 -65 75 -101.5t130 -36.5zM1473 594h-467l47 -8q50 -9 94.5 -53.5t44.5 -108.5v-10q0 -229 -121 -312q-87 -69 -235 -63q-209 12 -365 190q-154 183 -172 486q-17 235 51 404
t203 237q204 110 448 -10q87 -44 162 -125q66 -69 109 -134q34 -52 49 -92l4 322q-175 105 -385 123q-121 10 -240 -11t-228.5 -78t-193.5 -142.5t-134 -214.5t-50 -285q0 -320 180 -527q182 -209 504 -209q154 0 269 72q36 23 77 64q4 3 54 53q37 -3 90 -62q52 -55 67 -120
v448q0 43 14.5 75.5t33.5 49t41 26.5t33.5 12.5t15.5 2.5z" />
    <glyph glyph-name="gbreve" unicode="&#x11f;" horiz-adv-x="985" 
d="M514 1098q-92 0 -148.5 60t-58.5 153q20 -65 74 -100t129 -35q162 0 203 133q-2 -86 -56 -148.5t-143 -62.5zM965 975q48 0 59 -36q10 -31 -14 -52q-29 -25 -78 0q-21 17 -35 23t-40.5 -0.5t-59.5 -35.5q85 101 168 101zM588 119q159 -6 240.5 -47t117.5 -129
q20 -48 20.5 -98t-15 -92.5t-36 -76.5t-45.5 -61q-155 -162 -434 -141q-180 12 -281.5 90t-101.5 194q0 63 27.5 120t62.5 85l29 23q-87 -171 27 -291q117 -120 336 -135q158 -12 270 51q113 61 104 162q6 92 -89 145t-257 51q-203 -2 -305.5 32t-120.5 122q-27 116 162 199
l-10 4q-86 39 -135 122.5t-45 186.5q3 205 233 293q85 32 185 27t173 -44q104 -54 144 -172q43 -118 2 -223q-32 -75 -83.5 -122t-141.5 -77q-153 -50 -299 -4q-112 -65 -58 -137q23 -40 105 -53l69 -6q22 0 80 1t70 1zM281 522q52 -129 140 -175.5t185 -14.5q67 24 96 99.5
t23.5 157t-31.5 150.5q-27 73 -65.5 119.5t-81.5 64t-86 16.5t-88 -19q-86 -35 -113 -152q-25 -117 21 -246z" />
    <glyph glyph-name="Gdotaccent" unicode="&#x120;" horiz-adv-x="1525" 
d="M829 1604q-38 0 -65 27t-27 65q0 36 27 62t65 26q35 0 62 -26.5t27 -61.5q0 -38 -26.5 -65t-62.5 -27zM1006 594h467q-4 0 -15.5 -2.5t-33.5 -12.5t-41 -26.5t-33.5 -49t-14.5 -75.5v-448q-15 65 -67 120q-53 59 -90 62q-50 -50 -54 -53q-41 -41 -77 -64
q-115 -72 -269 -72q-322 0 -504 209q-180 207 -180 527q0 156 50 285t134 214.5t193.5 142.5t228.5 78t240 11q210 -18 385 -123l-4 -322q-15 40 -49 92q-43 65 -109 134q-75 81 -162 125q-244 120 -448 10q-135 -68 -203 -237t-51 -404q18 -303 172 -486q156 -178 365 -190
q148 -6 235 63q121 83 121 312v10q0 64 -44.5 108.5t-94.5 53.5z" />
    <glyph glyph-name="gdotaccent" unicode="&#x121;" horiz-adv-x="985" 
d="M539 1098q-38 0 -67.5 28.5t-29.5 65.5q0 38 29 66t68 28q38 0 65 -28t27 -66q0 -37 -27.5 -65.5t-64.5 -28.5zM965 975q48 0 59 -36q10 -31 -14 -52q-29 -25 -78 0q-21 17 -35 23t-40.5 -0.5t-59.5 -35.5q85 101 168 101zM588 119q159 -6 240.5 -47t117.5 -129
q20 -48 20.5 -98t-15 -92.5t-36 -76.5t-45.5 -61q-155 -162 -434 -141q-180 12 -281.5 90t-101.5 194q0 63 27.5 120t62.5 85l29 23q-87 -171 27 -291q117 -120 336 -135q158 -12 270 51q113 61 104 162q6 92 -89 145t-257 51q-203 -2 -305.5 32t-120.5 122q-27 116 162 199
l-10 4q-86 39 -135 122.5t-45 186.5q3 205 233 293q85 32 185 27t173 -44q104 -54 144 -172q43 -118 2 -223q-32 -75 -83.5 -122t-141.5 -77q-153 -50 -299 -4q-112 -65 -58 -137q23 -40 105 -53l69 -6q22 0 80 1t70 1zM281 522q52 -129 140 -175.5t185 -14.5q67 24 96 99.5
t23.5 157t-31.5 150.5q-27 73 -65.5 119.5t-81.5 64t-86 16.5t-88 -19q-86 -35 -113 -152q-25 -117 21 -246z" />
    <glyph glyph-name="Gcommaaccent" unicode="&#x122;" horiz-adv-x="1525" 
d="M1053 586l-47 8h467q-4 0 -15.5 -2.5t-33.5 -12.5t-41 -26.5t-33.5 -49t-14.5 -75.5v-448q-15 65 -67 120q-53 59 -90 62q-50 -50 -54 -53q-41 -41 -77 -64q-115 -72 -269 -72q-322 0 -504 209q-180 207 -180 527q0 156 50 285t134 214.5t193.5 142.5t228.5 78t240 11
q210 -18 385 -123l-4 -322q-15 40 -49 92q-43 65 -109 134q-75 81 -162 125q-244 120 -448 10q-135 -68 -203 -237t-51 -404q18 -303 172 -486q156 -178 365 -190q148 -6 235 63q121 83 121 312v10q0 64 -44.5 108.5t-94.5 53.5zM784 -152q36 4 65 -15t40 -52
q31 -86 -2 -199q-34 -116 -123 -178q51 42 77.5 124.5t12.5 152.5q-22 -16 -49 -19q-38 -4 -68 20.5t-35 63.5t19.5 70t62.5 32z" />
    <glyph glyph-name="gcommaaccent" unicode="&#x123;" horiz-adv-x="985" 
d="M965 975q48 0 59 -36q10 -31 -14 -52q-29 -25 -78 0q-21 17 -35 23t-40.5 -0.5t-59.5 -35.5q85 101 168 101zM588 119q159 -6 240.5 -47t117.5 -129q20 -48 20.5 -98t-15 -92.5t-36 -76.5t-45.5 -61q-155 -162 -434 -141q-180 12 -281.5 90t-101.5 194q0 63 27.5 120
t62.5 85l29 23q-87 -171 27 -291q117 -120 336 -135q158 -12 270 51q113 61 104 162q6 92 -89 145t-257 51q-203 -2 -305.5 32t-120.5 122q-27 116 162 199l-10 4q-86 39 -135 122.5t-45 186.5q3 205 233 293q85 32 185 27t173 -44q104 -54 144 -172q43 -118 2 -223
q-32 -75 -83.5 -122t-141.5 -77q-153 -50 -299 -4q-112 -65 -58 -137q23 -40 105 -53l69 -6q22 0 80 1t70 1zM281 522q52 -129 140 -175.5t185 -14.5q67 24 96 99.5t23.5 157t-31.5 150.5q-27 73 -65.5 119.5t-81.5 64t-86 16.5t-88 -19q-86 -35 -113 -152q-25 -117 21 -246
zM565 -805q47 -18 56.5 -104.5t-28.5 -184.5t-110 -141q49 43 75.5 124t12.5 150q-18 -15 -47 -18q-41 -4 -70.5 20.5t-31.5 63.5q-4 38 20 67.5t62 34.5q34 3 61 -12z" />
    <glyph glyph-name="Hbar" unicode="&#x126;" horiz-adv-x="1517" 
d="M1296 1098v-924q0 -58 22 -97.5t58 -53.5q60 -23 94 -23h-538q34 0 88 20q37 14 60 51t24 91v573h-698v-561q0 -59 21.5 -98t57.5 -53q63 -23 97 -23h-539q19 0 55 4q36 7 73.5 50t41.5 108v936h-154l-24 18h178v144q0 59 -21 98t-57 53q-60 23 -94 23h541q-34 0 -97 -23
q-36 -14 -57.5 -53t-21.5 -98v-144h698v144q0 58 -22 97.5t-58 53.5q-60 23 -94 23h540q-34 0 -94 -23q-36 -14 -58 -53.5t-22 -97.5v-144h181l-19 -18h-162zM406 1098v-340h698v340h-698z" />
    <glyph glyph-name="hbar" unicode="&#x127;" horiz-adv-x="1171" 
d="M367 1098v-959q0 -46 20.5 -78.5t54.5 -44.5q54 -16 86 -16h-479q35 0 84 16q33 12 53.5 44.5t20.5 78.5v959h-90l-25 18h115v96q0 35 -7 56.5t-20 30t-22 10.5t-23 2l-12 -2l244 157v-350h223l-19 -18h-204zM995 545v-406q0 -46 19 -78.5t49 -44.5q47 -16 78 -16h-449
q29 0 76 16q68 27 68 123v353v28q0 81 -2 101q0 25 -7 79q-6 64 -26.5 92.5t-69.5 51.5q-65 24 -166 -10q-100 -35 -176 -105q78 93 189 162q110 68 231 59q114 0 164 -119q13 -23 16 -75q4 -70 4 -80q2 -16 2 -90v-41z" />
    <glyph glyph-name="Imacron" unicode="&#x12a;" horiz-adv-x="686" 
d="M150 1632l403 2v-18h-403v16zM432 1260v-1086q0 -47 17.5 -82t39.5 -52t52 -27t45.5 -11.5t29.5 -1.5h-557q36 0 99 23q38 14 61 54.5t23 96.5v1086q0 58 -23 97.5t-61 53.5q-63 23 -99 23h557q-37 0 -100 -23q-38 -14 -61 -53.5t-23 -97.5z" />
    <glyph glyph-name="imacron" unicode="&#x12b;" horiz-adv-x="669" 
d="M147 1122l404 2v-18h-404v16zM420 963v-824q0 -97 67 -123q47 -16 78 -16h-456q32 0 79 16q72 27 72 123v568q0 59 -24.5 83.5t-59.5 16.5z" />
    <glyph glyph-name="Iogonek" unicode="&#x12e;" horiz-adv-x="686" 
d="M616 0h-139q-59 -33 -96 -93t-27 -124q8 -48 32 -77t57 -36.5t65.5 -5t66.5 13.5q-43 -41 -116 -48t-137.5 30.5t-77.5 114.5q-24 127 92 225h-277q36 0 99 23q38 14 61 54.5t23 96.5v1086q0 58 -23 97.5t-61 53.5q-63 23 -99 23h557q-37 0 -100 -23q-38 -14 -61 -53.5
t-23 -97.5v-1086q0 -47 17.5 -82t39.5 -52t52 -27t45.5 -11.5t29.5 -1.5z" />
    <glyph glyph-name="iogonek" unicode="&#x12f;" horiz-adv-x="669" 
d="M408 1118q-26 -26 -63.5 -26t-63.5 26q-26 29 -26 66t26 63t63.5 26t63.5 -26t26 -63t-26 -66zM362 -217q8 -48 32 -77t57.5 -36.5t66 -5t66.5 13.5q-43 -41 -116 -48t-138 30.5t-78 114.5q-27 127 92 225h-235q32 0 79 16q72 27 72 123v568q0 59 -24.5 83.5t-59.5 16.5
l244 156v-824q0 -97 67 -123q47 -16 78 -16h-80q-61 -33 -97.5 -93t-25.5 -124z" />
    <glyph glyph-name="Idot" unicode="&#x130;" horiz-adv-x="686" 
d="M256 1696q0 35 26.5 61.5t63.5 26.5q36 0 62 -26t26 -62q0 -38 -25.5 -65t-62.5 -27t-63.5 27t-26.5 65zM432 1260v-1086q0 -47 17.5 -82t39.5 -52t52 -27t45.5 -11.5t29.5 -1.5h-557q36 0 99 23q38 14 61 54.5t23 96.5v1086q0 58 -23 97.5t-61 53.5q-63 23 -99 23h557
q-37 0 -100 -23q-38 -14 -61 -53.5t-23 -97.5z" />
    <glyph glyph-name="dotlessi" unicode="&#x131;" horiz-adv-x="694" 
d="M432 963v-824q0 -96 68 -123q47 -16 78 -16h-457q33 0 80 16q71 26 71 123v568q0 58 -24.5 83t-59.5 17z" />
    <glyph glyph-name="IJ" unicode="&#x132;" horiz-adv-x="1585" 
d="M432 1260v-1086q0 -47 17.5 -82t39.5 -52t52 -27t45.5 -11.5t29.5 -1.5h-557q36 0 99 23q38 14 61 54.5t23 96.5v1086q0 58 -23 97.5t-61 53.5q-63 23 -99 23h557q-37 0 -100 -23q-38 -14 -61 -53.5t-23 -97.5zM1192 328v946q0 53 -20 89t-56 48q-55 23 -90 23h526
q-32 0 -92 -23q-34 -13 -55 -49t-21 -88v-934q0 -83 -22 -146t-55.5 -99.5t-81.5 -59.5t-92.5 -31t-94.5 -8q-92 0 -192 43q-56 24 -90 72t-35 112q0 43 27.5 75t68.5 32q55 0 79.5 -44t12.5 -108q-17 -70 22 -118t107 -48q88 0 121 72.5t33 243.5z" />
    <glyph glyph-name="ij" unicode="&#x133;" horiz-adv-x="1138" 
d="M199 1182q0 43 29.5 72.5t70.5 29.5q42 0 72 -30t30 -72q0 -41 -30.5 -72t-71.5 -31t-70.5 30.5t-29.5 72.5zM776 1182q0 42 30.5 72t72.5 30q41 0 70.5 -29.5t29.5 -72.5q0 -42 -29.5 -72.5t-70.5 -30.5t-72 31t-31 72zM532 0h-454q33 0 80 16q71 26 71 123v568
q0 58 -24.5 83t-59.5 17l244 156v-824q0 -96 66 -123q47 -16 77 -16zM813 -133v838q0 57 -22 82t-66 20l248 156v-1067q0 -190 -99 -267q-100 -78 -241 -57q-102 6 -168 54.5t-66 125.5q0 35 24.5 60.5t59.5 25.5q48 0 71 -41.5t15 -99.5q-4 -59 33 -89.5t88 -23.5
q73 1 98 60.5t25 222.5z" />
    <glyph glyph-name="Kcommaaccent" unicode="&#x136;" horiz-adv-x="1302" 
d="M389 1274v-1114q0 -52 22 -87.5t56 -49.5q60 -23 96 -23h-540q37 0 92 23q37 14 58.5 49.5t21.5 87.5v1114q0 53 -21 89t-57 48q-60 23 -94 23h540q-34 0 -94 -23q-36 -12 -58 -48t-22 -89zM680 762l410 -520q66 -84 137 -147t112 -83l35 -14l-327 4q-78 78 -152 174
l-356 467q-33 30 -62 29.5t-55 -23.5l-25 -20l469 559q68 83 33 158q-34 75 -121 84h459h-4q-123 -37 -248 -146q-31 -24 -86 -92q-10 -12 -54 -65t-71 -87l-86 -106q-42 -53 -43 -89.5t35 -82.5zM778 -170q41 -30 47 -111q6 -86 -30 -174q-37 -94 -109 -141
q51 42 77.5 124.5t12.5 152.5q-22 -16 -49 -19q-38 -4 -67.5 20.5t-34.5 63.5t19.5 70t62.5 32q44 3 71 -18z" />
    <glyph glyph-name="kcommaaccent" unicode="&#x137;" horiz-adv-x="950" 
d="M485 0h-448q33 0 80 16q32 12 51.5 44.5t19.5 78.5v1071q0 58 -27 84.5t-61 12.5l250 159l-2 -1327q0 -39 13.5 -67t30 -41.5t39.5 -21t34 -8.5t20 -1zM1014 0h-383q34 3 40.5 32t-24.5 70q-28 42 -127 168q-84 112 -119 152q-34 40 -49 31l246 268q66 78 33 139
q-30 65 -125 68h409q-4 -1 -55 -21q-44 -21 -117.5 -77t-140.5 -128l-76 -81q-38 -45 2 -103q29 -42 156 -209q117 -150 170 -209q34 -38 74 -64.5t63 -31.5zM508 -152q66 6 96 -49q21 -53 21 -123q0 -74 -38.5 -152t-99.5 -120q51 43 78 125.5t13 151.5q-22 -16 -50 -19
q-39 -5 -68.5 19t-33.5 65q-5 39 19.5 70t62.5 32z" />
    <glyph glyph-name="Lacute" unicode="&#x139;" horiz-adv-x="1243" 
d="M543 1839q14 -8 15.5 -26t-12 -41.5t-40.5 -42.5l-248 -173l172 244q26 42 59.5 53t53.5 -14zM561 18h88q187 0 344 109q160 109 207 242l-78 -369h-1097q35 0 98 23q38 18 61 59t23 100v1078q0 58 -22 97.5t-58 53.5q-60 23 -94 23h540q-33 0 -96 -23q-36 -14 -58 -53.5
t-22 -97.5v-1059q0 -99 40.5 -141t123.5 -42z" />
    <glyph glyph-name="lacute" unicode="&#x13a;" horiz-adv-x="540" 
d="M408 1831q22 -12 13 -47t-50 -64l-250 -174l174 244q26 43 58 54.5t55 -13.5zM344 1466v-1327q0 -46 20.5 -78.5t53.5 -44.5q54 -16 86 -16h-479q35 0 84 16q75 26 75 123v1059q0 41 -10.5 67.5t-25 34t-28.5 11t-22 -1.5z" />
    <glyph glyph-name="Lcommaaccent" unicode="&#x13b;" horiz-adv-x="1243" 
d="M561 18h88q187 0 344 109q160 109 207 242l-78 -369h-1097q35 0 98 23q38 18 61 59t23 100v1078q0 58 -22 97.5t-58 53.5q-60 23 -94 23h540q-33 0 -96 -23q-36 -14 -58 -53.5t-22 -97.5v-1059q0 -99 40.5 -141t123.5 -42zM641 -152q36 4 64.5 -15t39.5 -52
q31 -86 -2 -199q-35 -117 -122 -178q51 42 77.5 124.5t12.5 152.5q-22 -16 -49 -19q-38 -4 -68 20.5t-35 63.5t19.5 70t62.5 32z" />
    <glyph glyph-name="lcommaaccent" unicode="&#x13c;" horiz-adv-x="540" 
d="M344 1466v-1327q0 -46 20.5 -78.5t53.5 -44.5q54 -16 86 -16h-479q35 0 84 16q75 26 75 123v1059q0 41 -10.5 67.5t-25 34t-28.5 11t-22 -1.5zM293 -152q36 4 64.5 -15t39.5 -52q31 -86 -2 -199q-34 -116 -123 -178q51 42 77.5 124.5t12.5 152.5q-22 -16 -49 -19
q-38 -4 -67.5 20.5t-34.5 63.5t19.5 70t62.5 32z" />
    <glyph glyph-name="Lcaron" unicode="&#x13d;" horiz-adv-x="1243" 
d="M567 1386q-4 38 20 68t62 35q38 3 62 -12q47 -18 56.5 -104.5t-28.5 -184.5t-110 -141q50 43 76.5 124t13.5 150q-21 -15 -49 -18q-39 -5 -69 18.5t-34 64.5zM561 18h88q187 0 344 109q160 109 207 242l-78 -369h-1097q35 0 98 23q38 18 61 59t23 100v1078q0 58 -22 97.5
t-58 53.5q-60 23 -94 23h540q-33 0 -96 -23q-36 -14 -58 -53.5t-22 -97.5v-1059q0 -99 40.5 -141t123.5 -42z" />
    <glyph glyph-name="lcaron" unicode="&#x13e;" horiz-adv-x="540" 
d="M582 1477q47 -18 56.5 -104.5t-28.5 -184.5t-110 -141q50 43 76.5 124t13.5 150q-21 -15 -49 -18q-39 -5 -69 18.5t-34 64.5q-4 38 20 68t62 35q38 3 62 -12zM344 1466v-1327q0 -46 20.5 -78.5t53.5 -44.5q54 -16 86 -16h-479q35 0 84 16q75 26 75 123v1059
q0 41 -10.5 67.5t-25 34t-28.5 11t-22 -1.5z" />
    <glyph glyph-name="Ldot" unicode="&#x13f;" horiz-adv-x="1243" 
d="M561 18h88q187 0 344 109q160 109 207 242l-78 -369h-1097q35 0 98 23q38 18 61 59t23 100v1078q0 58 -22 97.5t-58 53.5q-60 23 -94 23h540q-33 0 -96 -23q-36 -14 -58 -53.5t-22 -97.5v-1059q0 -99 40.5 -141t123.5 -42zM756 700q-35 0 -59.5 25.5t-24.5 62.5
q0 35 24.5 60.5t59.5 25.5q38 0 63 -25t25 -61q0 -37 -25 -62.5t-63 -25.5z" />
    <glyph glyph-name="ldot" unicode="&#x140;" horiz-adv-x="712" 
d="M369 1466v-1327q0 -46 20 -78.5t53 -44.5q54 -16 86 -16h-479q35 0 84 16q36 12 56 44t20 79v1059q0 41 -10.5 67.5t-25 34t-29 11t-21.5 -1.5zM530 874q37 0 62.5 -25.5t25.5 -60.5q0 -37 -25.5 -62.5t-62.5 -25.5q-35 0 -59.5 25.5t-24.5 62.5q0 35 24.5 60.5
t59.5 25.5z" />
    <glyph glyph-name="Lslash" unicode="&#x141;" horiz-adv-x="1259" 
d="M573 18h89q187 0 344 109q159 108 206 242l-77 -369h-1098q36 0 96 23q38 18 61 59t23 100v633l-131 -51l-33 8l164 64v424q0 59 -21 98t-57 53q-60 23 -94 23h539q-35 0 -95 -23q-36 -14 -57.5 -53t-21.5 -98v-351l170 66l-11 -25l-159 -61v-688q0 -99 40 -141t123 -42z
" />
    <glyph glyph-name="lslash" unicode="&#x142;" horiz-adv-x="587" 
d="M356 1466v-571l183 70l-11 -25l-172 -66v-735q0 -46 20.5 -78.5t53.5 -44.5q54 -16 86 -16h-479q35 0 84 16q36 12 56 44t20 79v674l-127 -49l-33 8l160 62v364q0 41 -10.5 67.5t-25 34t-29 11t-21.5 -1.5z" />
    <glyph glyph-name="Nacute" unicode="&#x143;" horiz-adv-x="1503" 
d="M993 1839q22 -11 12 -46t-49 -64l-249 -173l172 244q29 43 60 53.5t54 -14.5zM1227 520v660q0 79 -27.5 135t-73.5 80q-66 36 -122 39h464q-54 -3 -120 -39q-45 -24 -72 -80t-27 -135v-1205h-2l-16 25l-879 1169q-45 54 -65 -2q-8 -24 -8 -65v-838q0 -56 16 -101.5
t38 -72t51.5 -46.5t51 -27.5t43.5 -12.5l25 -4h-473q27 0 78 23q147 63 147 243v836q0 78 -17.5 140t-41.5 96.5t-53 57.5t-49.5 30.5t-33.5 7.5l-8 2h348l736 -981q40 -58 67 -52q23 3 23 117z" />
    <glyph glyph-name="nacute" unicode="&#x144;" horiz-adv-x="1161" 
d="M782 1333q22 -11 12 -46t-49 -64l-249 -172l174 243q26 43 57.5 53.5t54.5 -14.5zM362 963v-824q0 -46 19 -78.5t49 -44.5q47 -16 78 -16h-449q29 0 76 16q68 27 68 123v574q0 28 -8 47.5t-19 28.5t-23.5 13t-22 3.5t-13.5 -2.5zM977 545v-406q0 -46 18.5 -78.5
t48.5 -44.5q47 -16 78 -16h-450q29 0 76 16q31 12 49 44t18 79v353v28q0 81 -2 101q0 33 -6 79q-6 64 -26.5 92.5t-69.5 51.5q-65 24 -164 -10q-99 -36 -174 -105q88 104 197 167.5t218 53.5q124 -13 154 -96q2 -5 8 -19t7.5 -18t5.5 -16t5 -20.5t3 -22t2 -29.5q4 -62 4 -70
v-77v-37z" />
    <glyph glyph-name="Ncommaaccent" unicode="&#x145;" horiz-adv-x="1503" 
d="M1227 520v660q0 79 -27.5 135t-73.5 80q-66 36 -122 39h464q-54 -3 -120 -39q-45 -24 -72 -80t-27 -135v-1205h-2l-16 25l-879 1169q-45 54 -65 -2q-8 -24 -8 -65v-838q0 -56 16 -101.5t38 -72t51.5 -46.5t51 -27.5t43.5 -12.5l25 -4h-473q27 0 78 23q147 63 147 243v836
q0 78 -17.5 140t-41.5 96.5t-53 57.5t-49.5 30.5t-33.5 7.5l-8 2h348l736 -981q40 -58 67 -52q23 3 23 117zM758 -152q36 4 64.5 -15t39.5 -52q31 -86 -2 -199q-34 -116 -123 -178q51 42 77.5 124.5t12.5 152.5q-22 -16 -49 -19q-39 -5 -68.5 19t-33.5 65q-5 39 19.5 70
t62.5 32z" />
    <glyph glyph-name="ncommaaccent" unicode="&#x146;" horiz-adv-x="1161" 
d="M362 963v-824q0 -46 19 -78.5t49 -44.5q47 -16 78 -16h-449q29 0 76 16q68 27 68 123v574q0 28 -8 47.5t-19 28.5t-23.5 13t-22 3.5t-13.5 -2.5zM977 545v-406q0 -46 18.5 -78.5t48.5 -44.5q47 -16 78 -16h-450q29 0 76 16q31 12 49 44t18 79v353v28q0 81 -2 101
q0 33 -6 79q-6 64 -26.5 92.5t-69.5 51.5q-65 24 -164 -10q-99 -36 -174 -105q88 104 197 167.5t218 53.5q124 -13 154 -96q2 -5 8 -19t7.5 -18t5.5 -16t5 -20.5t3 -22t2 -29.5q4 -62 4 -70v-77v-37zM596 -152q66 6 96 -49q21 -53 21 -123q0 -74 -38.5 -152t-99.5 -120
q49 43 76 125q27 84 13 149q-18 -13 -48 -16q-41 -4 -70.5 20.5t-31.5 63.5q-5 39 19.5 70t62.5 32z" />
    <glyph glyph-name="Ncaron" unicode="&#x147;" horiz-adv-x="1503" 
d="M987 1837l-143 -278h-113l-170 280l225 -211zM1227 520v660q0 79 -27.5 135t-73.5 80q-66 36 -122 39h464q-54 -3 -120 -39q-45 -24 -72 -80t-27 -135v-1205h-2l-16 25l-879 1169q-45 54 -65 -2q-8 -24 -8 -65v-838q0 -56 16 -101.5t38 -72t51.5 -46.5t51 -27.5
t43.5 -12.5l25 -4h-473q27 0 78 23q147 63 147 243v836q0 78 -17.5 140t-41.5 96.5t-53 57.5t-49.5 30.5t-33.5 7.5l-8 2h348l736 -981q40 -58 67 -52q23 3 23 117z" />
    <glyph glyph-name="ncaron" unicode="&#x148;" horiz-adv-x="1161" 
d="M801 1333l-144 -278h-114l-168 280l223 -211zM362 963v-824q0 -46 19 -78.5t49 -44.5q47 -16 78 -16h-449q29 0 76 16q68 27 68 123v574q0 28 -8 47.5t-19 28.5t-23.5 13t-22 3.5t-13.5 -2.5zM977 545v-406q0 -46 18.5 -78.5t48.5 -44.5q47 -16 78 -16h-450q29 0 76 16
q31 12 49 44t18 79v353v28q0 81 -2 101q0 33 -6 79q-6 64 -26.5 92.5t-69.5 51.5q-65 24 -164 -10q-99 -36 -174 -105q88 104 197 167.5t218 53.5q124 -13 154 -96q2 -5 8 -19t7.5 -18t5.5 -16t5 -20.5t3 -22t2 -29.5q4 -62 4 -70v-77v-37z" />
    <glyph glyph-name="Eng" unicode="&#x14a;" horiz-adv-x="1536" 
d="M1239 520v660q0 79 -27 135t-73 80q-66 36 -123 39h465q-55 -3 -123 -39q-44 -24 -71 -80t-27 -135v-1284q0 -190 -99 -267q-96 -78 -239 -57q-102 6 -168 54.5t-66 125.5q0 35 24.5 60.5t57.5 25.5q48 0 72 -41.5t16 -99.5q-6 -59 31 -89.5t88 -23.5q73 1 98 60.5
t25 222.5v170q0 78 -51 182q-22 51 -43 72q-4 7 -20 29.5t-17 25.5h14l-618 823q-46 55 -66 -2q-8 -24 -8 -65v-838q0 -56 16 -101.5t38 -72t52 -46.5t51.5 -27.5t43.5 -12.5l24 -4h-473q27 0 78 23q147 63 147 243v836q0 78 -17.5 140t-41.5 96.5t-53.5 57.5t-50.5 30.5
t-35 7.5l-7 2h351l735 -981q40 -58 68 -52q22 3 22 117z" />
    <glyph glyph-name="eng" unicode="&#x14b;" horiz-adv-x="1150" 
d="M512 0h-449q29 0 76 16q68 27 68 123v574q0 28 -8 47.5t-19 28.5t-23.5 13t-22 3.5t-13.5 -2.5l246 160v-824q0 -46 18.5 -78.5t48.5 -44.5q47 -16 78 -16zM793 950q123 -13 153 -96q2 -5 8 -19t7.5 -18t5.5 -16t5 -20.5t3 -22t2 -29.5q4 -62 4 -70v-77v-37v-682
q0 -195 -90 -279q-88 -82 -223 -82q-93 0 -193 43q-55 24 -89.5 73.5t-35.5 113.5q0 40 27.5 72t68.5 32q56 0 80.5 -44t10.5 -107q-14 -74 22.5 -120t108.5 -46q151 0 151 387v586v28q0 81 -2 101q0 33 -6 79q-6 64 -26.5 92.5t-69.5 51.5q-65 24 -164 -10
q-99 -36 -174 -105q88 104 197.5 167.5t218.5 53.5z" />
    <glyph glyph-name="Omacron" unicode="&#x14c;" horiz-adv-x="1656" 
d="M623 1556v17l403 2v-19h-403zM860 1450q174 0 309.5 -64.5t212.5 -177.5q157 -222 148 -503q-9 -317 -207 -521q-201 -207 -522 -204q-176 0 -317.5 67.5t-225.5 183.5q-165 234 -156 498q3 328 220 524q215 197 538 197zM1311 711q-9 289 -156 499q-144 205 -360 205
q-227 6 -359 -176q-132 -181 -117 -491q15 -289 166 -502q153 -215 361 -230q249 -21 364 170q119 192 101 525z" />
    <glyph glyph-name="omacron" unicode="&#x14d;" horiz-adv-x="1107" 
d="M367 1106v16l403 2v-18h-403zM602 -18q-135 -3 -278 55q-81 36 -141.5 116.5t-86.5 192.5q-43 205 54 375q93 166 288 219q233 59 402 -47q173 -108 200 -356q24 -230 -106 -387q-132 -159 -332 -168zM862 571q-38 190 -157 297q-122 110 -271 52q-82 -30 -129 -119
q-81 -151 -35 -416q40 -205 150 -295q112 -89 231 -80q98 9 158 96q56 82 66.5 208t-13.5 257z" />
    <glyph glyph-name="Ohungarumlaut" unicode="&#x150;" horiz-adv-x="1656" 
d="M598 1563l172 243q26 42 59.5 53t53.5 -14q22 -12 13 -46.5t-50 -63.5zM864 1563l172 243q26 42 59.5 53t53.5 -14q22 -12 13 -46.5t-50 -63.5zM860 1450q-323 0 -538 -197q-217 -196 -220 -524q-9 -264 156 -498q84 -116 225.5 -183.5t317.5 -67.5q321 -3 522 204
q198 204 207 521q9 281 -148 503q-77 113 -212.5 177.5t-309.5 64.5zM1311 711q18 -333 -101 -525q-115 -191 -364 -170q-208 15 -361 230q-151 213 -166 502q-15 310 117 491q132 182 359 176q216 0 360 -205q147 -210 156 -499z" />
    <glyph glyph-name="ohungarumlaut" unicode="&#x151;" horiz-adv-x="1107" 
d="M379 1051l172 243q26 42 59.5 53t53.5 -14q22 -10 13 -45.5t-48 -64.5zM602 1051l172 243q29 43 60.5 53.5t54.5 -14.5q22 -11 12 -46t-49 -64zM602 -18q200 9 332 168q130 157 106 387q-27 248 -200 356q-169 106 -402 47q-195 -53 -288 -219q-97 -170 -54 -375
q26 -112 86.5 -192.5t141.5 -116.5q143 -58 278 -55zM862 571q24 -131 13.5 -257t-66.5 -208q-60 -87 -158 -96q-119 -9 -231 80q-110 90 -150 295q-46 265 35 416q47 89 129 119q149 58 271 -52q119 -107 157 -297z" />
    <glyph glyph-name="OE" unicode="&#x152;" horiz-adv-x="2385" 
d="M2097 143q69 50 123.5 105t73.5 88l18 31l-88 -367h-885q-45 0 -168 -10q-116 -13 -159 -10q-140 0 -257 46.5t-195.5 122.5t-133 174t-77.5 201.5t-19 204.5q3 323 213 524t526 201q51 0 178 -10t150 -10h757l70 -328q-14 32 -74 98t-131 113q-84 57 -166 76
q-73 20 -260 20h-127v-657h115q68 2 123 22t86.5 50t49 56t24.5 50l4 20v-424q-5 25 -31 70q-28 54 -92 93.5t-164 39.5h-115v-538q0 -58 15 -96.5t41 -54.5t47.5 -21t48.5 -5h129q182 0 350 125zM1038 16q238 -9 238 191v1005q0 179 -207 203q-255 27 -393 -145
q-142 -174 -133 -506q2 -134 42.5 -268t105.5 -239t157 -172t190 -69z" />
    <glyph glyph-name="oe" unicode="&#x153;" horiz-adv-x="1798" 
d="M1356 94q257 -15 356 193q-42 -131 -141 -217q-104 -90 -260 -90q-125 2 -230.5 59t-167.5 160q-60 -99 -155.5 -156t-210.5 -61q-136 -3 -279 55q-80 36 -140.5 116.5t-86.5 192.5q-43 206 53 375q92 166 289 219q172 43 316 -6.5t221 -183.5q53 86 151 147
q121 73 279 64q157 -9 260 -127q99 -111 96 -299h-705q0 -66 17 -132q30 -138 121 -219.5t217 -89.5zM596 10q98 9 158 96q56 82 66.5 208t-13.5 257q-38 189 -158 297q-122 110 -270 52q-82 -30 -129 -119q-81 -151 -35 -416q40 -205 150 -295q112 -89 231 -80zM1143 891
q-133 -103 -142 -340q265 0 357 6q134 9 180 70q20 25 27 71.5t-11.5 102.5t-64.5 92q-67 56 -165.5 55.5t-180.5 -57.5z" />
    <glyph glyph-name="Racute" unicode="&#x154;" horiz-adv-x="1241" 
d="M750 1839q14 -8 15.5 -26t-12 -41.5t-40.5 -42.5l-248 -173l172 244q26 42 59.5 53t53.5 -14zM926 508l184 -313q36 -64 90.5 -116t93.5 -67l35 -12h-303q-63 69 -139 209l-187 321q-64 114 -159 148q-40 12 -66 12q-16 2 -33 2h-67l-2 -565q0 -53 35 -88
q23 -19 45.5 -28t34 -10t36.5 -1h-518q35 0 94 20q36 14 58 50.5t22 89.5v1114q0 53 -23 90t-61 49q-62 21 -90 21q26 0 260 4q191 7 260 4q210 -2 323 -36.5t173 -123.5q62 -82 59 -215q-6 -179 -139 -285q-88 -73 -192 -82q83 -25 176 -192zM561 725q159 18 244.5 109.5
t87.5 236.5q1 208 -125.5 287t-394.5 65l2 -708q108 0 186 10z" />
    <glyph glyph-name="racute" unicode="&#x155;" horiz-adv-x="833" 
d="M662 1333q22 -11 12 -46t-49 -64l-250 -172l172 243q29 43 60.5 53.5t54.5 -14.5zM690 952q56 -1 83.5 -32.5t27.5 -73.5q0 -39 -22 -68t-64 -30q-22 -3 -42 6t-32 22.5t-25.5 29t-19.5 19.5q-16 13 -36.5 18t-51 0.5t-70.5 -35.5t-82 -87v-588q0 -43 20 -74.5t52 -42.5
q49 -16 82 -16h-465q33 0 80 16q33 11 52.5 42t19.5 75v27v553q0 52 -24 76.5t-58 19.5l241 154v-142v-47v-43q57 105 149 165.5t185 55.5z" />
    <glyph glyph-name="Rcommaaccent" unicode="&#x156;" horiz-adv-x="1241" 
d="M926 508l184 -313q36 -64 90.5 -116t93.5 -67l35 -12h-303q-63 69 -139 209l-187 321q-64 114 -159 148q-40 12 -66 12q-16 2 -33 2h-67l-2 -565q0 -53 35 -88q23 -19 45.5 -28t34 -10t36.5 -1h-518q35 0 94 20q36 14 58 50.5t22 89.5v1114q0 53 -23 90t-61 49
q-62 21 -90 21q26 0 260 4q191 7 260 4q210 -2 323 -36.5t173 -123.5q62 -82 59 -215q-6 -179 -139 -285q-88 -73 -192 -82q83 -25 176 -192zM561 725q159 18 244.5 109.5t87.5 236.5q1 208 -125.5 287t-394.5 65l2 -708q108 0 186 10zM735 -174l13 -12q2 -7 8 -13
q20 -50 20 -120q2 -75 -36 -155.5t-99 -121.5q49 43 76 125t12 149q-18 -13 -47 -16q-41 -4 -70.5 20.5t-31.5 63.5q-5 39 19.5 70t62.5 32q38 6 73 -22z" />
    <glyph glyph-name="rcommaaccent" unicode="&#x157;" horiz-adv-x="833" 
d="M690 952q56 -1 83.5 -32.5t27.5 -73.5q0 -39 -22 -68t-64 -30q-22 -3 -42 6t-32 22.5t-25.5 29t-19.5 19.5q-16 13 -36.5 18t-51 0.5t-70.5 -35.5t-82 -87v-588q0 -43 20 -74.5t52 -42.5q49 -16 82 -16h-465q33 0 80 16q33 11 52.5 42t19.5 75v27v553q0 52 -24 76.5
t-58 19.5l241 154v-142v-47v-43q57 105 149 165.5t185 55.5zM451 -174l12 -12q3 -7 8 -13q21 -53 21 -123q2 -71 -37.5 -151.5t-100.5 -122.5q51 42 77.5 124.5t12.5 152.5q-19 -16 -49 -19q-38 -4 -67.5 20.5t-34.5 63.5q-4 38 20.5 67.5t63.5 34.5q39 6 74 -22z" />
    <glyph glyph-name="Rcaron" unicode="&#x158;" horiz-adv-x="1241" 
d="M836 1837l-144 -278h-114l-168 280l225 -211zM926 508l184 -313q36 -64 90.5 -116t93.5 -67l35 -12h-303q-63 69 -139 209l-187 321q-64 114 -159 148q-40 12 -66 12q-16 2 -33 2h-67l-2 -565q0 -53 35 -88q23 -19 45.5 -28t34 -10t36.5 -1h-518q35 0 94 20
q36 14 58 50.5t22 89.5v1114q0 53 -23 90t-61 49q-62 21 -90 21q26 0 260 4q191 7 260 4q210 -2 323 -36.5t173 -123.5q62 -82 59 -215q-6 -179 -139 -285q-88 -73 -192 -82q83 -25 176 -192zM561 725q159 18 244.5 109.5t87.5 236.5q1 208 -125.5 287t-394.5 65l2 -708
q108 0 186 10z" />
    <glyph glyph-name="rcaron" unicode="&#x159;" horiz-adv-x="833" 
d="M662 1333l-144 -278h-115l-167 280l225 -211zM690 952q56 -1 83.5 -32.5t27.5 -73.5q0 -39 -22 -68t-64 -30q-22 -3 -42 6t-32 22.5t-25.5 29t-19.5 19.5q-16 13 -36.5 18t-51 0.5t-70.5 -35.5t-82 -87v-588q0 -43 20 -74.5t52 -42.5q49 -16 82 -16h-465q33 0 80 16
q33 11 52.5 42t19.5 75v27v553q0 52 -24 76.5t-58 19.5l241 154v-142v-47v-43q57 105 149 165.5t185 55.5z" />
    <glyph glyph-name="Sacute" unicode="&#x15a;" horiz-adv-x="1222" 
d="M518 1556l172 244q26 42 59.5 53t53.5 -14q22 -10 13 -45.5t-48 -64.5zM1047 1065l-3 289l-45 24q-54 29 -154 52.5t-200 23.5q-212 3 -350 -102q-137 -101 -143 -275q-9 -159 81 -272q88 -107 332 -166q277 -65 377 -162t94 -227q-6 -149 -131 -201q-120 -51 -289 -16
q-168 40 -309 172q-138 132 -203 311l5 -389q207 -153 536 -156q194 0 336 92q143 96 158 293q23 202 -94 319.5t-408 178.5q-319 68 -354 279q-12 76 14.5 144.5t85.5 104.5q107 61 250 31q141 -29 250 -135q126 -117 164 -213z" />
    <glyph glyph-name="sacute" unicode="&#x15b;" horiz-adv-x="892" 
d="M352 1051l174 243q26 42 58 53t55 -14q14 -8 15.5 -26t-12 -41.5t-40.5 -42.5zM766 670v202q-109 89 -283 89q-160 0 -253 -79.5t-95 -199.5q0 -100 70 -167.5t233 -113.5q169 -48 237 -115.5t50 -154.5q-9 -73 -79 -100t-160.5 -8.5t-168.5 69.5q-123 77 -206 264
l4 -274l28 -16l78 -39q34 -13 53 -19q137 -31 213 -31q164 0 253 85t87 214q0 105 -76.5 173t-261.5 118q-60 16 -106 36.5t-71.5 41.5t-43.5 44t-22 43.5t-6.5 40t2.5 34.5q15 122 161 125q104 1 203.5 -71t159.5 -191z" />
    <glyph glyph-name="Scedilla" unicode="&#x15e;" horiz-adv-x="1222" 
d="M637 854q291 -61 408 -178.5t94 -319.5q-15 -193 -154 -288q-137 -94 -330 -97l-41 -59q91 -7 133 -51.5t31 -108.5q-8 -60 -49.5 -96.5t-93.5 -43.5t-104.5 5t-84.5 41q33 -14 73 -18t79 3t67.5 35.5t32.5 75.5q6 56 -33 87t-100 36l66 94q-323 6 -522 156l-5 389
q65 -179 203 -311q141 -132 309 -172q169 -35 289 16q125 52 131 201q6 130 -94 227t-377 162q-244 59 -332 166q-90 113 -81 272q6 174 143 275q138 105 350 102q100 0 200 -23.5t154 -52.5l45 -24l3 -289q-38 96 -164 213q-109 106 -250 135q-143 30 -250 -31
q-59 -36 -85.5 -104.5t-14.5 -144.5q35 -211 354 -279z" />
    <glyph glyph-name="scedilla" unicode="&#x15f;" horiz-adv-x="892" 
d="M487 -23l-45 -65q90 -6 132 -50.5t34 -109.5q-8 -60 -49.5 -96.5t-93.5 -43.5t-104.5 5t-84.5 41q33 -13 73 -17t79 3t67.5 35.5t32.5 74.5q6 56 -33.5 87t-101.5 36l70 100q-139 11 -223 43l-50 21l-43 22l-32 19l-4 274q83 -187 206 -264q78 -51 168.5 -69.5t160.5 8.5
t79 100q18 87 -50 154.5t-237 115.5q-163 46 -233 113.5t-70 167.5q2 120 95 199.5t253 79.5q174 0 283 -89v-202q-60 119 -159.5 191t-203.5 71q-146 -3 -161 -125q-5 -15 -2.5 -34.5t6.5 -40t22 -43.5t43.5 -44t71.5 -41.5t106 -36.5q185 -50 261.5 -118t76.5 -173
q2 -129 -87 -214t-253 -85z" />
    <glyph glyph-name="Scaron" unicode="&#x160;" horiz-adv-x="1222" 
d="M403 1839l224 -211l200 209l-141 -278h-115zM1047 1065l-3 289l-45 24q-54 29 -154 52.5t-200 23.5q-212 3 -350 -102q-137 -101 -143 -275q-9 -159 81 -272q88 -107 332 -166q277 -65 377 -162t94 -227q-6 -149 -131 -201q-120 -51 -289 -16q-168 40 -309 172
q-138 132 -203 311l5 -389q207 -153 536 -156q194 0 336 92q143 96 158 293q23 202 -94 319.5t-408 178.5q-319 68 -354 279q-12 76 14.5 144.5t85.5 104.5q107 61 250 31q141 -29 250 -135q126 -117 164 -213z" />
    <glyph glyph-name="scaron" unicode="&#x161;" horiz-adv-x="892" 
d="M246 1335l225 -211l201 209l-144 -278h-114zM766 670v202q-109 89 -283 89q-160 0 -253 -79.5t-95 -199.5q0 -100 70 -167.5t233 -113.5q169 -48 237 -115.5t50 -154.5q-9 -73 -79 -100t-160.5 -8.5t-168.5 69.5q-123 77 -206 264l4 -274l28 -16l78 -39q34 -13 53 -19
q137 -31 213 -31q164 0 253 85t87 214q0 105 -76.5 173t-261.5 118q-60 16 -106 36.5t-71.5 41.5t-43.5 44t-22 43.5t-6.5 40t2.5 34.5q15 122 161 125q104 1 203.5 -71t159.5 -191z" />
    <glyph glyph-name="uni0162" unicode="&#x162;" horiz-adv-x="1382" 
d="M92 1434h1188l53 -344q-50 114 -139 200q-127 121 -332 121h-74v-1229q0 -59 24.5 -100t64.5 -59q65 -23 104 -23h-573q37 0 102 23q40 18 64 59t24 100v1229h-86q-201 0 -332 -125q-73 -65 -131 -168l-16 -33zM637 -123l82 119l29 4l-62 -88q90 -6 132 -50.5t34 -109.5
q-8 -60 -49.5 -96.5t-93.5 -43.5t-104.5 5t-84.5 41q33 -13 73 -17t79 3t67.5 35.5t32.5 74.5q6 56 -33.5 87t-101.5 36z" />
    <glyph glyph-name="uni0163" unicode="&#x163;" horiz-adv-x="724" 
d="M711 242q-17 -85 -74 -164q-33 -45 -91 -71t-128 -25l-47 -70q91 -7 133 -51.5t31 -108.5q-8 -60 -49.5 -96.5t-93.5 -43.5t-104.5 5t-84.5 41q33 -14 73 -18t79 3t67.5 35.5t32.5 75.5q6 56 -33 87t-100 36l73 107q-146 12 -196 133q-39 101 -39 264v524h-88l-25 19h113
v243l162 136q0 -180 -3 -379h250l-18 -19h-232v-532q2 -159 34 -226.5t122 -74.5q82 -7 143.5 41t92.5 129z" />
    <glyph glyph-name="Tcaron" unicode="&#x164;" horiz-adv-x="1382" 
d="M922 1837l-144 -278h-114l-168 280l223 -211zM92 1434h1188l53 -344q-50 114 -139 200q-127 121 -332 121h-74v-1229q0 -59 24.5 -100t64.5 -59q65 -23 104 -23h-573q37 0 102 23q40 18 64 59t24 100v1229h-86q-201 0 -332 -125q-73 -65 -131 -168l-16 -33z" />
    <glyph glyph-name="tcaron" unicode="&#x165;" horiz-adv-x="724" 
d="M547 1303q-39 -5 -69 18.5t-34 64.5q-4 38 20 68t62 35q35 3 62 -12q4 -1 20 -17q15 -15 21 -33q34 -70 0 -196q-34 -125 -123 -184q50 43 76.5 124t13.5 150q-21 -15 -49 -18zM475 72q82 -7 143.5 41t92.5 129q-6 -30 -16.5 -61t-34 -69.5t-55 -66.5t-81.5 -46.5
t-110 -16.5q-157 3 -211 127q-43 107 -43 272v524h-88l-25 19h113v243l162 136q0 -180 -3 -379h250l-18 -19h-232v-532q2 -159 34 -226.5t122 -74.5z" />
    <glyph glyph-name="Tbar" unicode="&#x166;" horiz-adv-x="1382" 
d="M502 1624l403 2v-18h-403v16zM92 1434h1188l53 -344q-50 114 -139 200q-127 121 -332 121h-74v-1229q0 -59 24.5 -100t64.5 -59q65 -23 104 -23h-573q37 0 102 23q40 18 64 59t24 100v1229h-86q-201 0 -332 -125q-73 -65 -131 -168l-16 -33z" />
    <glyph glyph-name="tbar" unicode="&#x167;" horiz-adv-x="724" 
d="M104 1384l404 2v-18h-404v16zM475 72q82 -7 143.5 41t92.5 129q-6 -30 -16.5 -61t-34 -69.5t-55 -66.5t-81.5 -46.5t-110 -16.5q-157 3 -211 127q-43 107 -43 272v524h-88l-25 19h113v243l162 136q0 -180 -3 -379h250l-18 -19h-232v-532q2 -159 34 -226.5t122 -74.5z" />
    <glyph glyph-name="Umacron" unicode="&#x16a;" horiz-adv-x="1398" 
d="M580 1632l403 2v-18h-403v16zM1186 612v576q0 73 -24.5 128t-63.5 79q-56 36 -109 39h404q-41 -3 -101 -41q-38 -24 -61 -80t-23 -133v-580q0 -614 -481 -614q-285 0 -412 184q-71 115 -96 264q-18 123 -18 301v492q0 56 -16.5 97.5t-38 61.5t-50 32t-44 14t-29.5 2h559
q-15 0 -31 -2t-45.5 -14t-51 -32t-38.5 -61.5t-17 -97.5v-609q0 -262 95 -413t301 -148q199 5 295 139.5t96 415.5z" />
    <glyph glyph-name="umacron" unicode="&#x16b;" horiz-adv-x="1103" 
d="M340 1122l403 2v-18h-403v16zM420 88q69 -28 172 6q101 33 178 107q-75 -95 -190 -162q-116 -68 -238 -59q-111 -2 -162 120q-13 26 -16 76l-6 82v92v33v397q0 48 -19 80t-51 43q-46 19 -76 19h305v-142v-342v-94q0 -101 13 -145q28 -102 90 -111zM782 117v671
q0 44 -18 75t-49 42q-47 17 -74 17h301v-721q0 -26 7.5 -42.5t21 -22.5t21.5 -7.5t20 -1.5h8l-238 -154v144z" />
    <glyph glyph-name="Uring" unicode="&#x16e;" horiz-adv-x="1398" 
d="M797 1556q-51 0 -88 38t-37 89q0 54 37 91.5t88 37.5q56 0 93 -36.5t36 -92.5q0 -51 -38 -89t-91 -38zM799 1786q-39 0 -69 -29.5t-30 -70.5q0 -38 30.5 -68.5t68.5 -30.5q41 0 70.5 30t29.5 69q0 41 -29.5 70.5t-70.5 29.5zM1186 612v576q0 73 -24.5 128t-63.5 79
q-56 36 -109 39h404q-41 -3 -101 -41q-38 -24 -61 -80t-23 -133v-580q0 -614 -481 -614q-285 0 -412 184q-71 115 -96 264q-18 123 -18 301v492q0 56 -16.5 97.5t-38 61.5t-50 32t-44 14t-29.5 2h559q-15 0 -31 -2t-45.5 -14t-51 -32t-38.5 -61.5t-17 -97.5v-609
q0 -262 95 -413t301 -148q199 5 295 139.5t96 415.5z" />
    <glyph glyph-name="uring" unicode="&#x16f;" horiz-adv-x="1103" 
d="M545 1044q-51 0 -89 38t-38 89q0 54 36.5 91.5t90.5 37.5q56 0 92.5 -36t36.5 -93q0 -51 -38 -89t-91 -38zM547 1274q-41 0 -69.5 -28.5t-28.5 -69.5q0 -42 28.5 -71.5t69.5 -29.5q39 0 68.5 30t29.5 71t-29.5 69.5t-68.5 28.5zM420 88q69 -28 172 6q101 33 178 107
q-75 -95 -190 -162q-116 -68 -238 -59q-111 -2 -162 120q-13 26 -16 76l-6 82v92v33v397q0 48 -19 80t-51 43q-46 19 -76 19h305v-142v-342v-94q0 -101 13 -145q28 -102 90 -111zM782 117v671q0 44 -18 75t-49 42q-47 17 -74 17h301v-721q0 -26 7.5 -42.5t21 -22.5
t21.5 -7.5t20 -1.5h8l-238 -154v144z" />
    <glyph glyph-name="Uhungarumlaut" unicode="&#x170;" horiz-adv-x="1398" 
d="M850 1845q22 -12 12 -46.5t-49 -63.5l-250 -172l172 243q29 43 60.5 53.5t54.5 -14.5zM1079 1735l-250 -172l172 243q26 42 59.5 53t53.5 -14q22 -12 13 -46.5t-48 -63.5zM1186 612v576q0 73 -24.5 128t-63.5 79q-56 36 -109 39h404q-41 -3 -101 -41q-38 -24 -61 -80
t-23 -133v-580q0 -614 -481 -614q-285 0 -412 184q-71 115 -96 264q-18 123 -18 301v492q0 56 -16.5 97.5t-38 61.5t-50 32t-44 14t-29.5 2h559q-15 0 -31 -2t-45.5 -14t-51 -32t-38.5 -61.5t-17 -97.5v-609q0 -262 95 -413t301 -148q199 5 295 139.5t96 415.5z" />
    <glyph glyph-name="uhungarumlaut" unicode="&#x171;" horiz-adv-x="1103" 
d="M635 1333q14 -8 15.5 -26t-12 -41.5t-40.5 -42.5l-248 -172l172 243q26 42 59.5 53t53.5 -14zM823 1223l-250 -172l172 243q26 42 59.5 53t53.5 -14q22 -10 13 -45.5t-48 -64.5zM420 88q69 -28 172 6q101 33 178 107q-75 -95 -190 -162q-116 -68 -238 -59
q-111 -2 -162 120q-13 26 -16 76l-6 82v92v33v397q0 48 -19 80t-51 43q-46 19 -76 19h305v-142v-342v-94q0 -101 13 -145q28 -102 90 -111zM782 117v671q0 44 -18 75t-49 42q-47 17 -74 17h301v-721q0 -26 7.5 -42.5t21 -22.5t21.5 -7.5t20 -1.5h8l-238 -154v144z" />
    <glyph glyph-name="Uogonek" unicode="&#x172;" horiz-adv-x="1398" 
d="M1186 612v576q0 73 -24.5 128t-63.5 79q-56 36 -109 39h404q-41 -3 -101 -41q-38 -24 -61 -80t-23 -133v-580q0 -572 -417 -612q-54 -34 -85 -90t-20 -115q8 -48 32 -77t57 -36.5t65.5 -5t66.5 13.5q-43 -41 -116 -48t-138 30.5t-78 114.5q-27 121 80 215
q-144 7 -238.5 79t-146.5 181q-30 64 -45 153q-24 161 -24 332v492q0 56 -16.5 97.5t-38 61.5t-50 32t-44 14t-29.5 2h559q-15 0 -31 -2t-45.5 -14t-51 -32t-38.5 -61.5t-17 -97.5v-609q0 -262 95 -413t301 -148q199 5 295 139.5t96 415.5z" />
    <glyph glyph-name="uogonek" unicode="&#x173;" horiz-adv-x="1103" 
d="M420 88q69 -28 172 6q101 33 178 107q-117 -141 -274 -199q-56 -38 -89.5 -97.5t-23.5 -121.5q8 -48 32.5 -77t58 -36.5t66 -5t64.5 13.5q-43 -41 -116 -48t-138 30.5t-78 114.5q-21 114 70 205q-111 -2 -162 120q-13 26 -16 76l-6 82v92v33v397q0 48 -19 80t-51 43
q-46 19 -76 19h305v-142v-342v-94q0 -101 13 -145q28 -102 90 -111zM782 117v671q0 44 -18 75t-49 42q-47 17 -74 17h301v-721q0 -26 7.5 -42.5t21 -22.5t21.5 -7.5t20 -1.5h8l-238 -154v144z" />
    <glyph glyph-name="Wcircumflex" unicode="&#x174;" horiz-adv-x="2267" 
d="M1231 1804l143 -278l-203 209l-223 -211l168 280h115zM1827 1434h457q-175 -30 -263 -254l-479 -1233l-405 921l-367 -921q-152 345 -310.5 704.5t-216 489.5t-61.5 139q-71 154 -227 154h186h434q-26 0 -70 -17q-117 -47 -79 -165q3 -10 8 -21q95 -241 336 -793
q50 -96 82 -96q26 0 44.5 23.5t53.5 107.5l172 428l-168 379q-71 154 -227 154h186h435q-3 0 -13 -1t-29 -6.5t-38 -13.5t-37 -23.5t-28.5 -36t-10.5 -52.5t14 -70l336 -793q47 -96 82 -96q24 0 43 27.5t51 107.5l271 686q48 117 4 192t-166 79z" />
    <glyph glyph-name="wcircumflex" unicode="&#x175;" horiz-adv-x="1445" 
d="M838 1290l143 -278l-201 209l-225 -211l170 280h113zM1155 922h348q-85 -18 -139 -78q-34 -39 -61 -105l-306 -778l-288 653l-238 -653l-381 842q-24 47 -63.5 78.5t-69.5 36.5l-27 4h400q0 4 -27.5 -5.5t-43.5 -31t1 -74.5l217 -512q20 -51 49 -51q35 0 72 104l102 279
l-75 172q-24 47 -59.5 78.5t-61.5 36.5l-23 4h391l-6 -1q-7 -1 -17 -3.5t-21 -7.5t-20.5 -13.5t-16 -20.5t-6 -31t9.5 -42l213 -498q27 -65 57 -65q28 0 68 100l149 387l8 23q25 69 -12.5 115t-122.5 57z" />
    <glyph glyph-name="Ycircumflex" unicode="&#x176;" horiz-adv-x="1185" 
d="M739 1804l144 -278l-201 209l-225 -211l168 280h114zM877 1434h397q-156 -34 -262 -224l-242 -436q-53 -100 -53 -225v-381q0 -68 39 -107q24 -26 49.5 -40t42 -17t41.5 -4h-539q31 0 62 8q41 12 77.5 54t36.5 98l2 366q0 110 -49 189l-323 553q-50 80 -117 123t-117 43
l539 -2q-79 -4 -105 -60t17 -129l272 -477q49 -82 100 10l222 398q61 100 37.5 171.5t-127.5 88.5z" />
    <glyph glyph-name="ycircumflex" unicode="&#x177;" horiz-adv-x="919" 
d="M580 1290l143 -278l-201 209l-225 -211l170 280h113zM674 922h325q-70 -17 -125 -78q-30 -26 -63 -103l-319 -782l-117 -281q-29 -72 -65 -95t-93 -17q-38 6 -59.5 38.5t-10.5 69.5q22 63 86 60q18 -1 47 -25t31 -24q46 -9 80 67l90 219l-368 834q-25 48 -64.5 79.5
t-68.5 33.5l-27 4h414l-7 -2q-7 -1 -17 -3.5t-21.5 -7.5t-21.5 -14t-16.5 -21t-6 -30.5t9.5 -40.5l213 -496q29 -63 61 -63q9 0 16.5 4.5t14.5 14.5t11.5 17.5t12.5 24.5t11 23l164 401l8 23q25 69 -9 114t-116 56z" />
    <glyph glyph-name="Ydieresis" unicode="&#x178;" horiz-adv-x="1185" 
d="M463 1620q-37 0 -64.5 28t-27.5 66q0 37 27.5 63.5t64.5 26.5q38 0 66 -26.5t28 -63.5q0 -39 -26.5 -66.5t-67.5 -27.5zM885 1620q-37 0 -64.5 28t-27.5 66q0 37 27.5 63.5t64.5 26.5q38 0 66 -26.5t28 -63.5q0 -39 -26.5 -66.5t-67.5 -27.5zM877 1434h397
q-156 -34 -262 -224l-242 -436q-53 -100 -53 -225v-381q0 -68 39 -107q24 -26 49.5 -40t42 -17t41.5 -4h-539q31 0 62 8q41 12 77.5 54t36.5 98l2 366q0 110 -49 189l-323 553q-50 80 -117 123t-117 43l539 -2q-79 -4 -105 -60t17 -129l272 -477q49 -82 100 10l222 398
q61 100 37.5 171.5t-127.5 88.5z" />
    <glyph glyph-name="Zacute" unicode="&#x179;" horiz-adv-x="1320" 
d="M569 1556l172 244q26 42 59.5 53t53.5 -14q22 -10 13 -45.5t-48 -64.5zM442 18q-175 0 -92 127q50 81 436 658q406 610 422 631h-1038l-102 -390l22 39q29 45 81.5 103t104.5 96q174 131 449 131h82q88 0 105.5 -32.5t-33.5 -106.5l-856 -1274h1112l102 444l-20 -38
q-27 -47 -84 -113t-119 -113q-211 -156 -492 -162h-80z" />
    <glyph glyph-name="zacute" unicode="&#x17a;" horiz-adv-x="1019" 
d="M457 1051l172 243q29 43 60 53.5t54 -14.5q22 -11 12.5 -46t-48.5 -64zM508 8l-119 2q-96 0 -43 84q14 27 250 367q256 370 330 469h-754l-68 -238l19 25q66 76 131 117q73 46 124.5 64t125.5 17h123q52 0 59.5 -20t-22.5 -61l-578 -838l803 -2l57 309l-20 -41
q-21 -40 -66 -94q-47 -57 -90 -82q-123 -75 -262 -78z" />
    <glyph glyph-name="Zdotaccent" unicode="&#x17b;" horiz-adv-x="1320" 
d="M608 1696q0 35 26.5 61.5t63.5 26.5q36 0 62 -26t26 -62q0 -38 -25.5 -65t-62.5 -27t-63.5 27t-26.5 65zM442 18h80q281 6 492 162q62 47 119 113t84 113l20 38l-102 -444h-1112l856 1274q51 74 33.5 106.5t-105.5 32.5h-82q-275 0 -449 -131q-52 -38 -104.5 -96
t-81.5 -103l-22 -39l102 390h1038q-16 -21 -422 -631q-386 -577 -436 -658q-83 -127 92 -127z" />
    <glyph glyph-name="zdotaccent" unicode="&#x17c;" horiz-adv-x="1019" 
d="M463 1192q0 38 28 66t66 28t66 -28t28 -66q0 -37 -28 -65.5t-66 -28.5t-66 28.5t-28 65.5zM389 10l119 -2q139 3 262 78q43 25 90 82q45 54 66 94l20 41l-57 -309l-803 2l578 838q30 41 22.5 61t-59.5 20h-123q-74 1 -125.5 -17t-124.5 -64q-65 -41 -131 -117l-19 -25
l68 238h754q-74 -99 -330 -469q-236 -340 -250 -367q-53 -84 43 -84z" />
    <glyph glyph-name="Zcaron" unicode="&#x17d;" horiz-adv-x="1320" 
d="M451 1839l225 -211l201 209l-144 -278h-115zM442 18q-175 0 -92 127q50 81 436 658q406 610 422 631h-1038l-102 -390l22 39q29 45 81.5 103t104.5 96q174 131 449 131h82q88 0 105.5 -32.5t-33.5 -106.5l-856 -1274h1112l102 444l-20 -38q-27 -47 -84 -113t-119 -113
q-211 -156 -492 -162h-80z" />
    <glyph glyph-name="zcaron" unicode="&#x17e;" horiz-adv-x="1019" 
d="M342 1335l223 -211l201 209l-141 -278h-115zM508 8l-119 2q-96 0 -43 84q14 27 250 367q256 370 330 469h-754l-68 -238l19 25q66 76 131 117q73 46 124.5 64t125.5 17h123q52 0 59.5 -20t-22.5 -61l-578 -838l803 -2l57 309l-20 -41q-21 -40 -66 -94q-47 -57 -90 -82
q-123 -75 -262 -78z" />
    <glyph glyph-name="Scommaaccent" unicode="&#x218;" horiz-adv-x="1222" 
d="M637 854q291 -61 408 -178.5t94 -319.5q-15 -197 -158 -293q-142 -92 -336 -92q-329 3 -536 156l-5 389q65 -179 203 -311q141 -132 309 -172q169 -35 289 16q125 52 131 201q6 130 -94 227t-377 162q-244 59 -332 166q-90 113 -81 272q6 174 143 275q138 105 350 102
q100 0 200 -23.5t154 -52.5l45 -24l3 -289q-38 96 -164 213q-109 106 -250 135q-143 30 -250 -31q-59 -36 -85.5 -104.5t-14.5 -144.5q35 -211 354 -279zM623 -152q66 6 96 -49q20 -50 20 -123q0 -74 -38 -152t-99 -120q51 42 77.5 124.5t12.5 152.5q-22 -16 -49 -19
q-39 -5 -68.5 19t-33.5 65q-5 39 19.5 70t62.5 32z" />
    <glyph glyph-name="scommaaccent" unicode="&#x219;" horiz-adv-x="892" 
d="M827 276q2 -129 -87 -214t-253 -85q-76 0 -213 31q-19 6 -53 19l-78 39l-28 16l-4 274q83 -187 206 -264q78 -51 168.5 -69.5t160.5 8.5t79 100q18 87 -50 154.5t-237 115.5q-163 46 -233 113.5t-70 167.5q2 120 95 199.5t253 79.5q174 0 283 -89v-202
q-60 119 -159.5 191t-203.5 71q-146 -3 -161 -125q-5 -15 -2.5 -34.5t6.5 -40t22 -43.5t43.5 -44t71.5 -41.5t106 -36.5q185 -50 261.5 -118t76.5 -173zM522 -174l13 -12q3 -7 8 -13q20 -50 20 -120q2 -75 -36 -155.5t-99 -121.5q49 43 75.5 125.5t12.5 151.5
q-19 -16 -49 -19q-38 -4 -67.5 20.5t-34.5 63.5q-5 38 20.5 69.5t63.5 32.5q38 6 73 -22z" />
    <glyph glyph-name="uni021A" unicode="&#x21a;" horiz-adv-x="1382" 
d="M92 1434h1188l53 -344q-50 114 -139 200q-127 121 -332 121h-74v-1229q0 -59 24.5 -100t64.5 -59q65 -23 104 -23h-573q37 0 102 23q40 18 64 59t24 100v1229h-86q-201 0 -332 -125q-73 -65 -131 -168l-16 -33zM770 -170q41 -30 47 -111q6 -84 -31 -174
q-38 -95 -108 -141q51 42 77.5 124.5t12.5 152.5q-22 -16 -49 -19q-38 -4 -68 20.5t-35 63.5t19.5 70t62.5 32q45 3 72 -18z" />
    <glyph glyph-name="uni021B" unicode="&#x21b;" horiz-adv-x="724" 
d="M475 72q82 -7 143.5 41t92.5 129q-6 -30 -16.5 -61t-34 -69.5t-55 -66.5t-81.5 -46.5t-110 -16.5q-157 3 -211 127q-43 107 -43 272v524h-88l-25 19h113v243l162 136q0 -180 -3 -379h250l-18 -19h-232v-532q2 -159 34 -226.5t122 -74.5zM375 -152q36 4 64.5 -15t39.5 -52
q31 -86 -2 -199q-34 -116 -123 -178q51 42 77.5 124.5t12.5 152.5q-22 -16 -49 -19q-38 -4 -67.5 20.5t-34.5 63.5t19.5 70t62.5 32z" />
    <glyph glyph-name="circumflex" unicode="&#x2c6;" horiz-adv-x="608" 
d="M102 1073l170 281h113l143 -279l-200 209z" />
    <glyph glyph-name="caron" unicode="&#x2c7;" horiz-adv-x="608" 
d="M102 1399l226 -213l200 209l-143 -277h-113z" />
    <glyph glyph-name="breve" unicode="&#x2d8;" horiz-adv-x="585" 
d="M291 1176q162 0 203 133q-2 -86 -56 -148.5t-143 -62.5q-92 0 -148.5 60t-58.5 153q20 -65 74 -100t129 -35z" />
    <glyph glyph-name="dotaccent" unicode="&#x2d9;" horiz-adv-x="419" 
d="M217 1092q-56 -2 -79.5 45t0 93.5t79.5 43.5q35 0 61.5 -26.5t26.5 -63.5t-26.5 -64.5t-61.5 -27.5z" />
    <glyph glyph-name="ring" unicode="&#x2da;" horiz-adv-x="1228" 
d="M432 1044q-51 0 -88 38t-37 89q0 54 37 91.5t88 37.5q56 0 93 -36.5t36 -92.5q0 -51 -37.5 -89t-91.5 -38zM434 1075q41 0 71 30t30 71t-29.5 69.5t-71.5 28.5q-41 0 -69.5 -28.5t-28.5 -69.5t29.5 -71t68.5 -30z" />
    <glyph glyph-name="ogonek" unicode="&#x2db;" horiz-adv-x="565" 
d="M217 0h141q-61 -33 -97 -93t-25 -124q8 -48 32 -77t57 -36.5t65.5 -5t66.5 13.5q-43 -41 -116 -48t-138 30.5t-78 114.5q-24 131 92 225z" />
    <glyph glyph-name="tilde" unicode="&#x2dc;" horiz-adv-x="712" 
d="M78 1075q1 95 58.5 151t135.5 50q52 -6 117 -68q68 -59 111 -59q57 -2 95 32.5t42 94.5q6 -74 -39 -137q-46 -61 -121 -64q-69 -3 -141 66q-69 69 -121 69q-36 4 -77.5 -26.5t-59.5 -108.5z" />
    <glyph glyph-name="hungarumlaut" unicode="&#x2dd;" horiz-adv-x="694" 
d="M281 1034l172 244q26 42 59 54t53 -13q22 -12 13 -47t-48 -64zM504 1034l172 244q29 43 60.5 54.5t54.5 -13.5q22 -12 12 -47t-49 -64z" />
    <glyph glyph-name="Wgrave" unicode="&#x1e80;" horiz-adv-x="2267" 
d="M1202 1546l-250 174q-39 29 -49 64t12 47q23 25 55 13.5t58 -54.5zM1827 1434h457q-175 -30 -263 -254l-479 -1233l-405 921l-367 -921q-152 345 -310.5 704.5t-216 489.5t-61.5 139q-71 154 -227 154h186h434q-26 0 -70 -17q-117 -47 -79 -165q3 -10 8 -21
q95 -241 336 -793q50 -96 82 -96q26 0 44.5 23.5t53.5 107.5l172 428l-168 379q-71 154 -227 154h186h435q-3 0 -13 -1t-29 -6.5t-38 -13.5t-37 -23.5t-28.5 -36t-10.5 -52.5t14 -70l336 -793q47 -96 82 -96q24 0 43 27.5t51 107.5l271 686q48 117 4 192t-166 79z" />
    <glyph glyph-name="wgrave" unicode="&#x1e81;" horiz-adv-x="1445" 
d="M782 1049l-247 174q-41 29 -50 63.5t13 46.5q20 25 53 14t59 -53zM1155 922h348q-85 -18 -139 -78q-34 -39 -61 -105l-306 -778l-288 653l-238 -653l-381 842q-24 47 -63.5 78.5t-69.5 36.5l-27 4h400q0 4 -27.5 -5.5t-43.5 -31t1 -74.5l217 -512q20 -51 49 -51
q35 0 72 104l102 279l-75 172q-24 47 -59.5 78.5t-61.5 36.5l-23 4h391l-6 -1q-7 -1 -17 -3.5t-21 -7.5t-20.5 -13.5t-16 -20.5t-6 -31t9.5 -42l213 -498q27 -65 57 -65q28 0 68 100l149 387l8 23q25 69 -12.5 115t-122.5 57z" />
    <glyph glyph-name="Wacute" unicode="&#x1e82;" horiz-adv-x="2267" 
d="M1313 1839q14 -8 15.5 -26t-12 -41.5t-40.5 -42.5l-250 -173l174 244q26 42 58 53t55 -14zM1827 1434h457q-175 -30 -263 -254l-479 -1233l-405 921l-367 -921q-152 345 -310.5 704.5t-216 489.5t-61.5 139q-71 154 -227 154h186h434q-26 0 -70 -17q-117 -47 -79 -165
q3 -10 8 -21q95 -241 336 -793q50 -96 82 -96q26 0 44.5 23.5t53.5 107.5l172 428l-168 379q-71 154 -227 154h186h435q-3 0 -13 -1t-29 -6.5t-38 -13.5t-37 -23.5t-28.5 -36t-10.5 -52.5t14 -70l336 -793q47 -96 82 -96q24 0 43 27.5t51 107.5l271 686q48 117 4 192
t-166 79z" />
    <glyph glyph-name="wacute" unicode="&#x1e83;" horiz-adv-x="1445" 
d="M930 1333q22 -10 13 -45.5t-48 -64.5l-250 -172l172 243q26 42 59.5 53t53.5 -14zM1155 922h348q-85 -18 -139 -78q-34 -39 -61 -105l-306 -778l-288 653l-238 -653l-381 842q-24 47 -63.5 78.5t-69.5 36.5l-27 4h400q0 4 -27.5 -5.5t-43.5 -31t1 -74.5l217 -512
q20 -51 49 -51q35 0 72 104l102 279l-75 172q-24 47 -59.5 78.5t-61.5 36.5l-23 4h391l-6 -1q-7 -1 -17 -3.5t-21 -7.5t-20.5 -13.5t-16 -20.5t-6 -31t9.5 -42l213 -498q27 -65 57 -65q28 0 68 100l149 387l8 23q25 69 -12.5 115t-122.5 57z" />
    <glyph glyph-name="Wdieresis" unicode="&#x1e84;" horiz-adv-x="2267" 
d="M815 1604q-37 0 -64.5 29t-27.5 67q0 36 27.5 62t64.5 26q38 0 66 -25.5t28 -62.5q0 -41 -27.5 -68.5t-66.5 -27.5zM1143 1700q0 37 28 62.5t66 25.5t66 -25.5t28 -62.5q0 -41 -27.5 -68.5t-66.5 -27.5q-38 0 -66 29t-28 67zM1827 1434h457q-175 -30 -263 -254
l-479 -1233l-405 921l-367 -921q-152 345 -310.5 704.5t-216 489.5t-61.5 139q-71 154 -227 154h186h434q-26 0 -70 -17q-117 -47 -79 -165q3 -10 8 -21q95 -241 336 -793q50 -96 82 -96q26 0 44.5 23.5t53.5 107.5l172 428l-168 379q-71 154 -227 154h186h435q-3 0 -13 -1
t-29 -6.5t-38 -13.5t-37 -23.5t-28.5 -36t-10.5 -52.5t14 -70l336 -793q47 -96 82 -96q24 0 43 27.5t51 107.5l271 686q48 117 4 192t-166 79z" />
    <glyph glyph-name="wdieresis" unicode="&#x1e85;" horiz-adv-x="1445" 
d="M522 1108q-37 0 -64.5 28t-27.5 66q0 37 27.5 63.5t64.5 26.5q38 0 66 -26.5t28 -63.5q0 -38 -28 -66t-66 -28zM944 1108q-37 0 -64.5 28t-27.5 66q0 37 27.5 63.5t64.5 26.5q38 0 66 -26.5t28 -63.5q0 -38 -28 -66t-66 -28zM1155 922h348q-85 -18 -139 -78
q-34 -39 -61 -105l-306 -778l-288 653l-238 -653l-381 842q-24 47 -63.5 78.5t-69.5 36.5l-27 4h400q0 4 -27.5 -5.5t-43.5 -31t1 -74.5l217 -512q20 -51 49 -51q35 0 72 104l102 279l-75 172q-24 47 -59.5 78.5t-61.5 36.5l-23 4h391l-6 -1q-7 -1 -17 -3.5t-21 -7.5
t-20.5 -13.5t-16 -20.5t-6 -31t9.5 -42l213 -498q27 -65 57 -65q28 0 68 100l149 387l8 23q25 69 -12.5 115t-122.5 57z" />
    <glyph glyph-name="uni1EA0" unicode="&#x1ea0;" horiz-adv-x="1277" 
d="M627 1477l506 -1299q26 -68 75 -117q30 -27 55 -40.5t38 -16.5t36 -4h-549q15 0 62 16q30 10 47 31q48 72 14 139l-145 400h-473l-133 -350q-26 -64 -21 -114.5t46.5 -83.5t113.5 -38h-405q72 5 134 67.5t105 174.5l488 1253zM535 1149q-27 0 -86 -156l-146 -387l455 2
l-152 426q-44 115 -71 115zM1346 0h-9h9zM514 -180q29 26 68 26t65 -26q29 -29 29 -68t-29 -65q-26 -29 -65 -29t-68 29q-26 26 -26 65t26 68z" />
    <glyph glyph-name="uni1EA1" unicode="&#x1ea1;" 
d="M983 115q24 3 35 39q-11 -36 -21.5 -60t-30 -52.5t-51 -43t-73.5 -14.5q-142 0 -142 168v395q-196 -60 -301 -119q-128 -68 -137 -180q-5 -72 38.5 -124t125.5 -56q129 -9 266 98q-69 -71 -106 -102q-12 -9 -27 -21q-91 -68 -217 -68q-129 0 -188 74q-58 73 -52 164
q3 70 56 135q29 32 135 92q47 25 190 66l109 29l108 30v115q0 143 -62 208t-167 46q-82 -14 -133 -59.5t-51 -116.5q0 -14 13.5 -53t14.5 -52q3 -55 -44 -80.5t-94 -0.5t-44 92q3 104 109 182q109 80 233 104q164 31 275 -32q115 -63 112 -250v-502q0 -81 43 -90
q45 -9 78 39zM465 -180q29 26 68 26t65 -26q26 -29 26 -68t-26 -65q-26 -29 -65 -29t-68 29q-26 26 -26 65t26 68z" />
    <glyph glyph-name="uni1EB8" unicode="&#x1eb8;" horiz-adv-x="1333" 
d="M1044 143q69 50 123.5 105t73.5 88l19 31l-89 -367h-1130q33 0 98 25q36 14 59 52.5t23 92.5v1100q0 54 -23 91.5t-61 49.5q-60 23 -96 23h1059l71 -328q-16 31 -77 98q-66 73 -127 113q-84 57 -166 76q-76 20 -260 20h-127v-657h114q69 1 123 21t85 51.5t46.5 56
t24.5 49.5l6 20v-424q-5 25 -31 70q-29 55 -90.5 94t-163.5 39h-114v-538q0 -47 10.5 -81t25.5 -52t37.5 -28.5t39.5 -13t38 -2.5h129q182 0 350 125zM608 -180q29 26 68 26t65 -26q29 -29 29 -68t-29 -65q-26 -29 -65 -29t-68 29q-26 26 -26 65t26 68z" />
    <glyph glyph-name="uni1EB9" unicode="&#x1eb9;" horiz-adv-x="1054" 
d="M608 96q-161 6 -264 127q-98 119 -98 312h710q3 188 -96 299q-103 118 -260 127q-160 9 -281 -68q-235 -137 -229 -430q3 -213 135 -348q135 -135 328 -138q152 -3 270 89q115 92 142 225q-101 -204 -357 -195zM391 889q80 57 180 59t168 -55q47 -36 65 -90.5t11 -100
t-29 -73.5q-43 -58 -174 -70q-57 -8 -366 -8q9 238 145 338zM631 -313q29 26 29 65t-29 68q-26 26 -65 26t-68 -26q-26 -29 -26 -68t26 -65q29 -29 68 -29t65 29z" />
    <glyph glyph-name="uni1ECA" unicode="&#x1eca;" horiz-adv-x="686" 
d="M432 1260v-1086q0 -47 17.5 -82t39.5 -52t52 -27t45.5 -11.5t29.5 -1.5h-557q36 0 99 23q38 14 61 54.5t23 96.5v1086q0 58 -23 97.5t-61 53.5q-63 23 -99 23h557q-37 0 -100 -23q-38 -14 -61 -53.5t-23 -97.5zM276 -180q29 26 68.5 26t65.5 -26q26 -29 26 -68t-26 -65
q-26 -29 -65.5 -29t-68.5 29q-26 26 -26 65t26 68z" />
    <glyph glyph-name="uni1ECB" unicode="&#x1ecb;" horiz-adv-x="606" 
d="M199 1182q0 43 29.5 72.5t70.5 29.5q42 0 72 -30t30 -72q0 -41 -30.5 -72t-71.5 -31t-70.5 30.5t-29.5 72.5zM389 963v-824q0 -96 66 -123q47 -16 77 -16h-454q33 0 80 16q71 26 71 123v568q0 58 -24.5 83t-59.5 17zM248 -180q29 26 68 26t65 -26q29 -29 29 -68t-29 -65
q-26 -29 -65 -29t-68 29q-26 26 -26 65t26 68z" />
    <glyph glyph-name="Ygrave" unicode="&#x1ef2;" horiz-adv-x="1185" 
d="M768 1546l-250 174q-39 29 -48 64t13 47q20 25 53.5 13t59.5 -54zM877 1434h397q-156 -34 -262 -224l-242 -436q-53 -100 -53 -225v-381q0 -68 39 -107q24 -26 49.5 -40t42 -17t41.5 -4h-539q31 0 62 8q41 12 77.5 54t36.5 98l2 366q0 110 -49 189l-323 553
q-50 80 -117 123t-117 43l539 -2q-79 -4 -105 -60t17 -129l272 -477q49 -82 100 10l222 398q61 100 37.5 171.5t-127.5 88.5z" />
    <glyph glyph-name="ygrave" unicode="&#x1ef3;" horiz-adv-x="919" 
d="M637 1049l-250 174q-41 29 -50 63.5t13 46.5q23 25 55 14t58 -53zM674 922h325q-70 -17 -125 -78q-30 -26 -63 -103l-319 -782l-117 -281q-29 -72 -65 -95t-93 -17q-38 6 -59.5 38.5t-10.5 69.5q22 63 86 60q18 -1 47 -25t31 -24q46 -9 80 67l90 219l-368 834
q-25 48 -64.5 79.5t-68.5 33.5l-27 4h414l-7 -2q-7 -1 -17 -3.5t-21.5 -7.5t-21.5 -14t-16.5 -21t-6 -30.5t9.5 -40.5l213 -496q29 -63 61 -63q9 0 16.5 4.5t14.5 14.5t11.5 17.5t12.5 24.5t11 23l164 401l8 23q25 69 -9 114t-116 56z" />
    <glyph glyph-name="uni1EF4" unicode="&#x1ef4;" horiz-adv-x="1185" 
d="M877 1434h397q-156 -34 -262 -224l-242 -436q-53 -100 -53 -225v-381q0 -68 39 -107q24 -26 49.5 -40t42 -17t41.5 -4h-539q31 0 62 8q41 12 77.5 54t36.5 98l2 366q0 110 -49 189l-323 553q-50 80 -117 123t-117 43l539 -2q-79 -4 -105 -60t17 -129l272 -477
q49 -82 100 10l222 398q61 100 37.5 171.5t-127.5 88.5zM551 -180q29 26 68 26t65 -26q26 -29 26 -68t-26 -65q-26 -29 -65 -29t-68 29q-29 26 -29 65t29 68z" />
    <glyph glyph-name="uni1EF5" unicode="&#x1ef5;" horiz-adv-x="919" 
d="M674 922h325q-70 -17 -125 -78q-30 -26 -63 -103l-319 -782l-117 -281q-29 -72 -65 -95t-93 -17q-38 6 -59.5 38.5t-10.5 69.5q22 63 86 60q18 -1 47 -25t31 -24q46 -9 80 67l90 219l-368 834q-25 48 -64.5 79.5t-68.5 33.5l-27 4h414l-7 -2q-7 -1 -17 -3.5t-21.5 -7.5
t-21.5 -14t-16.5 -21t-6 -30.5t9.5 -40.5l213 -496q29 -63 61 -63q9 0 16.5 4.5t14.5 14.5t11.5 17.5t12.5 24.5t11 23l164 401l8 23q25 69 -9 114t-116 56zM489 -524q56 4 79.5 -44.5t0 -97t-79.5 -45.5q-38 0 -67 28.5t-29 66.5q0 39 27.5 65.5t68.5 26.5z" />
    <glyph glyph-name="uni1EF9" unicode="&#x1ef9;" horiz-adv-x="919" 
d="M406 1210q-36 4 -78 -26.5t-60 -108.5q1 95 59 151t136 50q52 -6 117 -68q68 -59 110 -59q57 -2 95 32.5t42 94.5q6 -74 -39 -137q-46 -61 -120 -64q-70 -3 -142 66q-69 69 -120 69zM674 922h325q-70 -17 -125 -78q-30 -26 -63 -103l-319 -782l-117 -281q-29 -72 -65 -95
t-93 -17q-38 6 -59.5 38.5t-10.5 69.5q22 63 86 60q18 -1 47 -25t31 -24q46 -9 80 67l90 219l-368 834q-25 48 -64.5 79.5t-68.5 33.5l-27 4h414l-7 -2q-7 -1 -17 -3.5t-21.5 -7.5t-21.5 -14t-16.5 -21t-6 -30.5t9.5 -40.5l213 -496q29 -63 61 -63q9 0 16.5 4.5t14.5 14.5
t11.5 17.5t12.5 24.5t11 23l164 401l8 23q25 69 -9 114t-116 56z" />
    <glyph glyph-name="endash" unicode="&#x2013;" horiz-adv-x="1210" 
d="M117 541v22h977v-22h-977z" />
    <glyph glyph-name="emdash" unicode="&#x2014;" horiz-adv-x="1472" 
d="M117 541v22h1239v-22h-1239z" />
    <glyph glyph-name="quoteleft" unicode="&#x2018;" horiz-adv-x="432" 
d="M215 1147q-36 -4 -64.5 15t-39.5 52q-31 86 2 199q34 116 123 178q-51 -43 -78 -125t-13 -151q21 15 50 18q38 4 67.5 -20.5t34.5 -63.5t-19.5 -70t-62.5 -32z" />
    <glyph glyph-name="quoteright" unicode="&#x2019;" horiz-adv-x="432" 
d="M281 1475v2q46 -18 54.5 -104.5t-29.5 -184.5t-109 -141q50 43 76.5 124t13.5 150q-21 -15 -49 -18q-38 -4 -68 20.5t-35 62.5q-4 38 20 68t62 35q38 3 64 -14z" />
    <glyph glyph-name="quotesinglbase" unicode="&#x201a;" horiz-adv-x="432" 
d="M281 174q46 -18 54.5 -104.5t-29.5 -184.5t-109 -141q48 42 75 125q29 87 15 151q-24 -17 -49 -20q-38 -4 -68 20.5t-35 63.5q-4 38 20 67.5t62 34.5q37 3 64 -12z" />
    <glyph glyph-name="quotedblleft" unicode="&#x201c;" horiz-adv-x="686" 
d="M195 1255q38 4 67.5 -20.5t34.5 -63.5q4 -38 -20 -67.5t-62 -34.5q-36 -4 -63.5 13.5t-38.5 50.5q-36 73 -2 192q34 122 125 186q-52 -46 -78 -125q-27 -84 -13 -151q24 17 50 20zM469 1069q-36 -3 -63 12q-34 14 -47 70.5t-4 124t44.5 135t89.5 100.5
q-50 -43 -76.5 -124t-13.5 -150q21 15 50 18q38 4 67.5 -20.5t34.5 -63.5q4 -38 -20 -67.5t-62 -34.5z" />
    <glyph glyph-name="quotedblright" unicode="&#x201d;" horiz-adv-x="661" 
d="M301 1477q47 -18 56.5 -104.5t-28.5 -184.5t-110 -141q49 43 75.5 124t12.5 150q-18 -15 -47 -18q-41 -4 -70.5 20.5t-31.5 62.5q-4 38 20 68t62 35q34 3 61 -12zM530 1477q47 -18 56.5 -104.5t-28 -184.5t-109.5 -141q50 43 76.5 124t13.5 150q-21 -15 -50 -18
q-39 -5 -68.5 18.5t-33.5 64.5q-4 38 20 68t62 35q34 3 61 -12z" />
    <glyph glyph-name="quotedblbase" unicode="&#x201e;" horiz-adv-x="679" 
d="M281 174q46 -18 54.5 -104.5t-29.5 -184.5t-109 -141q48 42 75 125q29 87 15 151q-24 -17 -49 -20q-38 -4 -68 20.5t-35 63.5q-4 38 20 67.5t62 34.5q37 3 64 -12zM528 174q46 -18 54.5 -104.5t-29.5 -184.5t-109 -141q49 43 76 125q29 87 15 151q-24 -17 -50 -20
q-38 -4 -67.5 20.5t-34.5 63.5q-4 38 20 67.5t62 34.5q36 3 63 -12z" />
    <glyph glyph-name="dagger" unicode="&#x2020;" horiz-adv-x="958" 
d="M492 1186h337v-19h-337v-1282h-19v1282h-344v19h344v467h19v-467z" />
    <glyph glyph-name="daggerdbl" unicode="&#x2021;" horiz-adv-x="958" 
d="M829 1186v-19h-344v-739h344v-18h-344v-525h-18v525h-338v18h338v739h-338v19h338v467h18v-467h344z" />
    <glyph glyph-name="bullet" unicode="&#x2022;" horiz-adv-x="530" 
d="M264 489q-55 0 -95 40t-40 96q0 55 40.5 96t94.5 41q57 0 97 -40.5t40 -96.5q0 -57 -40 -96.5t-97 -39.5z" />
    <glyph glyph-name="ellipsis" unicode="&#x2026;" horiz-adv-x="970" 
d="M109 86q0 38 28 66t66 28t66 -28t28 -66q0 -37 -28 -64.5t-66 -27.5t-66 27.5t-28 64.5zM410 86q0 38 28 66t66 28t65 -28t27 -66q0 -37 -27 -64.5t-65 -27.5t-66 27.5t-28 64.5zM713 86q0 38 28 66t66 28t65 -28t27 -66q0 -37 -27 -64.5t-65 -27.5t-66 27.5t-28 64.5z
" />
    <glyph glyph-name="perthousand" unicode="&#x2030;" horiz-adv-x="2004" 
d="M401 870q-31 -1 -62 2.5t-70 17.5t-70.5 37.5t-58 67t-38.5 101.5q-25 123 34.5 220t178.5 128q144 33 243 -33t112 -215q13 -135 -63.5 -226.5t-205.5 -99.5zM578 1208q-24 128 -92 190.5t-164 33.5q-87 -27 -115 -121q-26 -87 -10 -187q22 -129 87 -189.5t148 -47.5
q95 10 132.5 99.5t13.5 221.5zM211 0h-39l940 1436h35zM977 -6q-31 -1 -62 2.5t-70 17t-70.5 37t-58 67t-38.5 101.5q-25 123 34.5 220t178.5 128q144 33 242.5 -33t111.5 -215q13 -135 -63 -226t-205 -99zM1632 -6q-31 -1 -62 2.5t-70 17t-70.5 37t-58 67t-38.5 101.5
q-25 123 34.5 220t178.5 128q144 33 243 -33t112 -215q13 -135 -63.5 -226t-205.5 -99zM1153 332q-24 128 -92 190t-164 33q-90 -27 -117 -123q-26 -92 -8 -186q22 -129 87 -189t149 -49q95 12 132 102t13 222zM1808 332q-24 128 -92 190t-164 33q-89 -27 -116 -123
q-27 -94 -9 -186q22 -129 87 -189t149 -49q95 12 132 102t13 222z" />
    <glyph glyph-name="guilsinglleft" unicode="&#x2039;" horiz-adv-x="516" 
d="M57 563l342 291l-252 -293l232 -307z" />
    <glyph glyph-name="guilsinglright" unicode="&#x203a;" horiz-adv-x="516" 
d="M98 854l342 -291l-321 -309l229 307z" />
    <glyph glyph-name="Euro" unicode="&#x20ac;" horiz-adv-x="1275" 
d="M866 768h-803l-24 18h129q21 420 342 607q89 50 205.5 57.5t212.5 -25.5q103 -32 170 -110.5t67 -181.5q0 -53 -28 -83t-72 -28q-50 1 -74 49t-10 107q30 131 -37 198q-69 69 -174 60q-107 -9 -188 -72q-200 -147 -215 -578h518zM1059 399q43 2 71.5 -29.5t28.5 -86.5
q0 -112 -106 -199q-109 -89 -203 -104q-227 -30 -369 45q-290 156 -311 602h-107l-24 18h846l-19 -18h-499q9 -234 94 -426q45 -96 125.5 -152.5t181.5 -56.5q123 -1 183.5 70t35.5 178q-18 63 1 110.5t71 48.5z" />
    <glyph glyph-name="trademark" unicode="&#x2122;" horiz-adv-x="1779" 
d="M1688 725h-279q24 -5 56 15t36 77v451q0 63 -12 63q-15 0 -33 -47l-246 -582l-311 603q-22 31 -31 -7l-4 -34v-410q0 -53 26.5 -86.5t59.5 -38.5l31 -4h-236q9 0 33 4q26 6 52 40t26 85v432q0 42 -12 73t-30 45t-32 20t-24 6l-6 2h188l260 -494q18 -34 33 -47.5t30 -4.5
t29 44l213 500h178q-10 2 -27.5 -2.5t-38.5 -27.5t-24 -63v-520q4 -57 37.5 -77t57.5 -15zM508 1419h-33v-598q4 -42 25 -66t40 -28.5t33 -1.5h-290q14 -3 33 1.5t40 28.5t25 66v598h-37q-104 0 -172 -59q-41 -38 -72 -98l-10 -21l41 189h586l41 -187q-34 70 -76 115
q-70 61 -174 61z" />
    <glyph glyph-name="partialdiff" unicode="&#x2202;" horiz-adv-x="1083" 
d="M582 -20q-139 -9 -279 59q-78 40 -135.5 121.5t-81.5 195.5q-43 207 53 373q93 162 291 209q123 24 218 14.5t147 -47.5q-37 180 -158 322q-119 142 -328 192q157 -17 289 -91t222 -188t143.5 -262.5t60.5 -314.5q15 -250 -113 -411q-127 -160 -329 -172zM850 551
q-34 204 -141 311t-260 58q-93 -27 -148 -125q-34 -60 -47 -134.5t-11 -128t11 -129.5q37 -215 145 -317q106 -97 234 -82q148 18 201 178q53 165 16 369z" />
    <glyph glyph-name="emptyset" unicode="&#x2205;" horiz-adv-x="1179" 
d="M1073 537q24 -230 -106 -387q-135 -159 -332 -168q-217 -9 -356 106l-78 -86h-41l96 107q-98 92 -127 237q-46 202 51 375q97 166 291 219q284 71 459 -92l63 72h43l-84 -95q100 -106 121 -288zM301 385q15 -91 55 -166l478 524q-62 119 -159.5 169t-207.5 8
q-124 -47 -164 -201q-40 -151 -2 -334zM684 10q98 9 158 96q56 82 65.5 208.5t-14.5 256.5q-9 66 -43 144l-477 -525q55 -96 138 -141t173 -39z" />
    <glyph glyph-name="product" unicode="&#x220f;" horiz-adv-x="1478" 
d="M205 -442v1976h1069v-1972h-29v1945h-1012v-1947z" />
    <glyph glyph-name="summation" unicode="&#x2211;" horiz-adv-x="1212" 
d="M1057 -174h-928v33l594 901l-592 809v35h965v-33h-924l598 -807l-600 -907h887v-31z" />
    <glyph glyph-name="minus" unicode="&#x2212;" horiz-adv-x="940" 
d="M117 707v22h706v-22h-706z" />
    <glyph glyph-name="radical" unicode="&#x221a;" horiz-adv-x="1099" 
d="M1008 1432l-467 -1850l-301 697h-123v28h149l269 -629l438 1756z" />
    <glyph glyph-name="infinity" unicode="&#x221e;" horiz-adv-x="1351" 
d="M645 709l64 102q111 169 319 154q150 -9 209 -134q62 -125 23 -253q-27 -91 -101.5 -144.5t-187.5 -52.5q-170 3 -273 205q-40 -78 -131 -146q-92 -71 -219 -65q-139 3 -207 102q-71 102 -59 225q7 117 86.5 185.5t191.5 62.5q178 -9 285 -241zM741 668l-30 -60
q29 -66 99 -103.5t161 -37.5q97 0 170.5 42.5t99.5 119.5q30 119 -55 186q-27 67 -117 82t-168 -35q-67 -43 -121 -125zM332 475q183 0 301 213q-92 160 -268 166q-107 6 -187 -45q-79 -49 -82 -141q-5 -80 57.5 -136.5t178.5 -56.5z" />
    <glyph glyph-name="integral" unicode="&#x222b;" horiz-adv-x="907" 
d="M719 1636q93 -7 149 -59.5t56 -130.5q0 -37 -23.5 -63.5t-58.5 -26.5q-49 0 -72.5 42.5t-3.5 92.5q20 56 -7 94.5t-83 40.5q-92 1 -130 -65.5t-38 -221.5v-1470q0 -167 -121 -256t-281 -47q-74 19 -121.5 68t-47.5 106q0 41 23.5 66.5t59.5 25.5q52 0 72.5 -37t7.5 -94
q-12 -57 19.5 -94t91.5 -39q80 -1 111.5 67t31.5 226v1446q0 181 105 264q108 86 260 65z" />
    <glyph glyph-name="approxequal" unicode="&#x2248;" horiz-adv-x="811" 
d="M119 668q7 80 55 124t117 39q54 -6 137 -59q83 -51 127 -51q130 0 139 100q8 -64 -33 -111.5t-106 -47.5q-72 0 -152 57t-147 57q-96 0 -137 -108zM117 512q7 79 55.5 124t116.5 40q50 -6 135 -60q86 -53 127 -53q130 0 139 101q8 -63 -33 -110.5t-106 -47.5
q-67 0 -152 55q-80 57 -147 57q-95 0 -135 -106z" />
    <glyph glyph-name="notequal" unicode="&#x2260;" horiz-adv-x="1134" 
d="M999 879v-23h-364l-182 -297h546v-22h-561l-141 -230h-29l142 230h-275v22h289l184 297h-473v23h488l129 208h26l-129 -208h350z" />
    <glyph glyph-name="lessequal" unicode="&#x2264;" horiz-adv-x="962" 
d="M98 680l711 291v-23l-651 -268l651 -285v-24zM139 266v23h707v-23h-707z" />
    <glyph glyph-name="greaterequal" unicode="&#x2265;" horiz-adv-x="997" 
d="M164 971l710 -291l-710 -309v24l651 285l-651 268v23zM831 289v-23h-706v23h706z" />
    <glyph glyph-name="NULL" horiz-adv-x="0" 
 />
    <glyph glyph-name="CR" horiz-adv-x="681" 
 />
    <glyph glyph-name="zero.osf" horiz-adv-x="1161" 
d="M614 -2q-141 -10 -278 55q-78 38 -136.5 119.5t-82.5 194.5q-43 202 55 364q100 165 295 211q232 56 397 -51q167 -108 191 -359q21 -222 -107 -374q-127 -148 -334 -160zM879 561q-35 198 -142 305q-109 112 -260 60q-67 -20 -113 -78.5t-63.5 -131.5t-21.5 -156
t12 -152q39 -223 143 -312q108 -91 230 -76q98 15 157 101q99 143 58 440z" />
    <glyph glyph-name="one.osf" horiz-adv-x="677" 
d="M414 549v-416q0 -44 20 -75t53 -42q54 -16 86 -16h-469q33 0 80 16q31 11 50.5 42.5t19.5 74.5v377q-3 9 0 127q1 131 -33 164t-106 -15l301 207q0 -85 -1 -194t-1 -135v-115z" />
    <glyph glyph-name="two.osf" horiz-adv-x="944" 
d="M502 115h348l-193 -336q66 128 48 174q-18 47 -166 47h-430q195 103 364 272q111 110 157 200.5t36 201.5q-10 99 -81.5 150t-170.5 34q-63 -11 -123.5 -49.5t-89.5 -77.5l-27 -35q16 38 45 80q96 154 244 176q157 24 239 -61q84 -84 84 -195q0 -45 -14 -92
q-19 -56 -74 -129q-62 -70 -80 -88l-49 -49l-55 -55l-57 -58q-79 -82 -74 -96q5 -11 98 -14h21z" />
    <glyph glyph-name="three.osf" horiz-adv-x="1132" 
d="M811 305q136 -37 211 -139t74 -258q-3 -225 -181 -350q-175 -125 -417 -76q-251 52 -340 354q46 -87 123 -164q99 -93 266 -102q156 -11 258 75t108 242q9 174 -102 273q-108 100 -268 78q-1 0 -6.5 -1t-6.5 -1l19 6q65 22 158 92q53 43 88 111t41 147q9 106 -56 186
q-65 83 -188 86q-199 9 -340 -151q123 212 356 227q184 12 279 -80q97 -90 100 -215q9 -230 -176 -340z" />
    <glyph glyph-name="four.osf" horiz-adv-x="1249" 
d="M1303 139l-136 -137h-225v-256l-149 -168v424h-666l815 1143v-1006h361zM330 137l461 2v635q0 128 -74 25l-414 -586q-49 -73 27 -76z" />
    <glyph glyph-name="five.osf" horiz-adv-x="1105" 
d="M299 668l-49 -230q-12 -54 -2 -61q8 -4 31 8q84 61 158 84t169 25q179 3 299 -105q121 -109 121 -303q0 -184 -160 -344q-96 -96 -274 -178q-187 -86 -309 -121l-129 -35q184 60 333 150q151 86 252 217q104 128 107 274q2 127 -63 210t-193 95q-75 10 -145 -1
t-119.5 -36.5t-80.5 -48.5t-50 -45l-17 -18l156 739h641l-111 -147h-446q-37 0 -57 -7.5t-33 -29.5q-11 -19 -16 -35t-13 -57z" />
    <glyph glyph-name="six.osf" horiz-adv-x="1202" 
d="M455 1239q236 254 536 254q-120 -14 -237.5 -84t-204.5 -207q-114 -181 -148 -350q55 49 144 70q223 58 395 -50q173 -105 197 -352q21 -227 -109 -381q-129 -156 -336 -159q-411 -3 -502 380q-34 142 3 377q21 124 89.5 258t172.5 244zM737 4q142 15 199 174
q57 156 27 365q-30 197 -148 303q-112 106 -262 53q-134 -50 -174 -203q-40 -149 -12 -319q38 -216 145 -301q113 -87 225 -72z" />
    <glyph glyph-name="seven.osf" horiz-adv-x="1101" 
d="M225 938h901q-169 -230 -319 -547q-19 -39 -47.5 -106.5t-34.5 -81.5q-12 -30 -29 -86q-14 -58 -20 -74q-7 -20 -17 -76l-12 -67l-8 -72q-3 -60 -6 -66q0 -8 -6 -73q-1 -19 -2 -37l-1.5 -27t-0.5 -10q-6 -105 -76 -123q-54 -15 -88 37q-18 30 -15 74q8 93 36.5 187
t90.5 222q55 113 109 215l149 275q44 80 69.5 132t32 88t5.5 54t-28.5 27.5t-51 10.5t-79.5 1h-7h-45h-186q-178 0 -265 -37q-88 -34 -131 -153z" />
    <glyph glyph-name="eight.osf" horiz-adv-x="1159" 
d="M721 817l135 -69q111 -54 188 -166q77 -109 62 -254q-15 -180 -191 -279q-174 -94 -391 -67q-177 20 -280 133q-101 110 -80 272q14 139 129 227q92 69 229 129q-86 42 -178 134q-51 52 -77 126t-19 154q12 155 145 238t301 71q159 -7 253 -99.5t89 -229.5
q-6 -207 -315 -320zM383 1171q6 -115 82.5 -194.5t234.5 -151.5q195 145 207 308q6 121 -61 215q-68 99 -199 102q-127 4 -198 -74.5t-66 -204.5zM543 733q-206 -132 -224 -348q-12 -147 74 -262q87 -112 250 -121q88 -4 154.5 20.5t103 68t53.5 101t12.5 119.5t-26.5 123
q-40 105 -139 168q-41 29 -88 53q-48 25 -97 45q-57 23 -73 33z" />
    <glyph glyph-name="nine.osf" horiz-adv-x="1161" 
d="M823 -332q113 120 182 254.5t87 259.5q30 211 -5 367q-24 115 -77.5 195.5t-128.5 117.5q-140 73 -287 64q-203 -9 -332 -162t-108 -373q24 -242 194 -350q171 -106 389 -47q86 21 146 69q-46 -192 -154 -358q-90 -136 -210 -209t-236 -86q297 0 540 258zM547 903
q131 25 230 -66t134 -302q9 -83 12 -131.5t-7.5 -123.5t-41.5 -135q-45 -92 -139 -127q-141 -52 -260 52q-116 104 -143 299q-17 123 -3.5 241.5t66.5 194.5q59 83 152 98z" />
    <glyph glyph-name="ampersand.001" horiz-adv-x="1662" 
d="M1616 993q53 0 86 -22.5t33 -63.5q0 -27 -16 -45t-42 -18q-37 0 -71 37t-84 37q-61 0 -131 -41q-36 -23 -115 -113q-15 -17 -55 -78l-52 -82l-57 -92l-55 -94q98 -137 143 -244q74 -171 74 -324q0 -243 -154 -432q-86 -105 -183.5 -152.5t-234.5 -47.5q-48 0 -88 4
q-60 6 -112 33t-86 64t-54.5 69.5t-29.5 58.5l-10 23q1 -1 4.5 -8t7 -12.5t12.5 -17.5t23 -26q113 -121 286 -121q246 0 396 193q151 195 151 450q0 210 -162 463q-158 -261 -215 -330q-150 -187 -344 -196h-24q-144 0 -254 90q-107 88 -107 254q0 69 27 137q30 68 66.5 118
t103.5 111q77 67 119 99l135 98q78 54 129 92q-152 190 -152 340q0 130 80 219q79 88 199 88q100 0 161 -58.5t62 -162.5q1 -92 -52.5 -174t-162.5 -178q-7 -6 -21.5 -17t-40 -30.5t-47.5 -36.5l285 -344q10 -11 60 -78l61 100l68 109l55 90q82 125 147 174q104 88 238 88z
M555 1204q0 -85 27.5 -158t103.5 -174l72 58q109 93 155 174t45 180q-1 69 -46 116t-113 52q-92 6 -168 -70q-76 -73 -76 -178zM500 -59q162 0 297 147q66 68 118 143q62 89 115 177q-12 22 -49 73q-58 86 -133 174q-32 42 -74 88l-84 103q-142 -103 -188 -139
q-158 -124 -232.5 -232t-74.5 -237t81.5 -213t223.5 -84z" />
    </font>
</defs>
</svg>
