<?xml version="1.0" standalone="no"?>
<!DOCTYPE svg PUBLIC "-//W3C//DTD SVG 1.1//EN" "http://www.w3.org/Graphics/SVG/1.1/DTD/svg11.dtd" >
<svg xmlns="http://www.w3.org/2000/svg" xmlns:xlink="http://www.w3.org/1999/xlink" version="1.1">
<metadata>
Created by FontForge 20170731 at Wed Jun 22 17:24:04 2022
 By Aleksey,,,
Copyright (c) 2017 by Rakel Tomas. All rights reserved.
</metadata>
<defs>
<font id="SilkSerif-Black" horiz-adv-x="1120" >
  <font-face 
    font-family="Silk Serif"
    font-weight="900"
    font-stretch="normal"
    units-per-em="2048"
    panose-1="0 0 10 0 0 0 0 0 0 0"
    ascent="1526"
    descent="-522"
    x-height="920"
    cap-height="1434"
    bbox="-299 -1262 2427 1947.75"
    underline-thickness="102"
    underline-position="-307"
    unicode-range="U+0020-2265"
  />
<missing-glyph horiz-adv-x="937" 
d="M174 1434h594v-1874h-594v1874zM625 1247v62h-310v-62h121v-69h-123v-64h312v64h-125v69h125zM500 936v131h-187v-195h312v64h-125zM375 1004h61v-68h-61v68zM625 760v61h-312v-61h123v-70h-123v-61h187v131h125zM625 520v189h-62v-123h-250v-66h312zM625 268v211h-189
v-104h64v43h63v-88h-188v149h-62v-211h312zM625 -55v211h-312v-211h312zM375 94h188v-88h-188v88zM625 -162v64h-312v-64h131l-131 -88v-61h312v61h-193l131 88h62z" />
    <glyph glyph-name=".notdef" horiz-adv-x="937" 
d="M174 1434h594v-1874h-594v1874zM625 1247v62h-310v-62h121v-69h-123v-64h312v64h-125v69h125zM500 936v131h-187v-195h312v64h-125zM375 1004h61v-68h-61v68zM625 760v61h-312v-61h123v-70h-123v-61h187v131h125zM625 520v189h-62v-123h-250v-66h312zM625 268v211h-189
v-104h64v43h63v-88h-188v149h-62v-211h312zM625 -55v211h-312v-211h312zM375 94h188v-88h-188v88zM625 -162v64h-312v-64h131l-131 -88v-61h312v61h-193l131 88h62z" />
    <glyph glyph-name=".null" horiz-adv-x="0" 
 />
    <glyph glyph-name="nonmarkingreturn" horiz-adv-x="682" 
 />
    <glyph glyph-name="space" unicode=" " horiz-adv-x="548" 
 />
    <glyph glyph-name="exclam" unicode="!" horiz-adv-x="593" 
d="M291 336q0 115 -39 272q-42 186 -74 299q-34 119 -57 258q-40 269 172 269q221 0 178 -269q-24 -144 -59 -258t-80 -299q-41 -166 -41 -272zM291 336v-4v4zM178 242q44 43 106 43t103 -43q43 -43 43 -103t-43 -104q-41 -43 -103 -43t-106 43q-43 44 -43 104t43 103z" />
    <glyph glyph-name="quotedbl" unicode="&#x22;" horiz-adv-x="585" 
d="M258 1376l-84 -436l-88 436q-11 54 12 89.5t70 35.5q53 1 77 -33.5t13 -91.5zM549 1376l-84 -436l-88 436q-11 54 12 89.5t70 35.5q53 1 77 -33.5t13 -91.5z" />
    <glyph glyph-name="numbersign" unicode="#" horiz-adv-x="1318" 
d="M764 526h276l2 -30h-290l-197 -492h-41l197 492h-318l-196 -492h-43l196 492h-352v30h364l119 295h-372v33h385l184 461h41l-184 -461l319 -2l184 463h39l-184 -463h283l2 -29h-297zM522 821l-116 -295h317l119 297z" />
    <glyph glyph-name="dollar" unicode="$" horiz-adv-x="1150" 
d="M633 1417v-526q232 -56 321 -197q90 -140 66 -301q-21 -146 -135 -248q-111 -102 -252 -129v-168h-21v717l-82 19q-40 8 -41 8v-744h-20v164h-4q-139 9 -236 66q-184 108 -178 297q3 93 43 168q44 78 129 78q82 0 113 -72q33 -67 4 -129q-15 -34 -61 -68q-43 -34 -52 -82
q-13 -77 21.5 -139.5t113.5 -87.5q37 -13 107 -16v571q-192 55 -281 188q-87 133 -75 289q12 132 112 225q105 97 244 127v115h20v-616q75 -22 99 -25q20 -4 24 -4v645h21v-104q318 -24 377 -291q21 -101 -16 -172.5t-120 -71.5q-70 0 -114 45t-39 101q3 52 49 98t43 104
q0 108 -106 148q-30 12 -74 18zM365 1372q-36 -23 -62.5 -63t-34.5 -91.5t5 -102.5t63 -100t133 -81v479q-57 -15 -104 -41zM887 305q5 93 -54 153t-200 101v-526q112 21 181 92.5t73 179.5z" />
    <glyph glyph-name="percent" unicode="%" horiz-adv-x="1413" 
d="M436 870q-31 -1 -62 2.5t-70 17.5t-70.5 37.5t-58 67t-38.5 101.5q-25 123 34.5 220t178.5 128q144 33 243 -33t112 -215q13 -135 -63.5 -226.5t-205.5 -99.5zM541 1225q-30 125 -79 179.5t-108 20.5q-52 -34 -61 -141q-9 -100 14 -176q28 -125 76 -180t98 -35
q64 15 76 117q15 99 -16 215zM246 0h-39l940 1436h35zM1014 2q-31 -1 -62 2.5t-70 17t-70.5 37t-58 67t-38.5 101.5q-25 123 34.5 220t178.5 128q144 33 242.5 -32.5t111.5 -214.5q13 -135 -63 -226.5t-205 -99.5zM1118 354q-30 126 -78.5 181.5t-107.5 21.5
q-53 -35 -62 -141q-9 -101 17 -176q25 -124 74.5 -179.5t99.5 -35.5q64 15 76 116q11 97 -19 213z" />
    <glyph glyph-name="ampersand" unicode="&#x26;" horiz-adv-x="1499" 
d="M1317 123q110 9 137 113q-6 -100 -78 -187t-190 -90q-97 -3 -176 37q-80 39 -168 170l-17 24q-91 -117 -174 -172t-194 -61q-183 -9 -295 88q-114 99 -105 274q3 93 33 146q6 10 16 29t15.5 28t16.5 23t26 26q7 7 21 19.5t18.5 16.5t15 12.5t21.5 15t28 16.5l56 35l65 35
l64 33l-31 45q-108 156 -129 217q-28 76 -25 155q6 109 70 179q109 125 317 125q125 0 228 -68q103 -65 112 -207q18 -208 -161 -301q-9 -4 -53.5 -21.5t-61.5 -25.5l272 -399l76 102q46 64 63 119t8.5 94t-36 70t-64 50t-82.5 32h523q-45 0 -136 -60q-49 -34 -94 -88
q-40 -48 -110 -154q-48 -70 -115 -159l-20 -25l124 -182q51 -73 93 -102t96 -27zM643 1460q-174 3 -123 -248q13 -74 66 -161q33 -51 43 -70l67 -96l13 -19l18 21q83 106 74 344q-5 94 -48.5 161t-109.5 68zM522 193q163 -15 269 51l-320 481q-143 -119 -143 -303
q0 -92 51.5 -157t142.5 -72z" />
    <glyph glyph-name="quotesingle" unicode="'" horiz-adv-x="393" 
d="M283 1376l-82 -436l-88 436q-10 54 13 89.5t67 35.5q54 1 78 -33.5t12 -91.5z" />
    <glyph glyph-name="parenleft" unicode="(" horiz-adv-x="516" 
d="M420 -203l39 -98q-52 29 -144 162q-44 64 -98 174q-48 105 -79.5 246.5t-31.5 285.5q0 154 32.5 302.5t82.5 252.5q45 92 100.5 170.5t91 114t42.5 31.5l-43 -99q-25 -67 -68 -290q-41 -228 -41 -482q0 -245 39 -454q43 -230 78 -316z" />
    <glyph glyph-name="parenright" unicode=")" horiz-adv-x="540" 
d="M39 -301l39 98q35 86 78 316q39 209 39 454q0 260 -43 482q-40 224 -68 290q-12 33 -41 99q6 4 42 -31.5t91 -114t98 -170.5q52 -103 84.5 -251t32.5 -304q0 -147 -31 -289t-81 -243q-52 -105 -99 -174q-86 -131 -141 -162z" />
    <glyph glyph-name="asterisk" unicode="*" horiz-adv-x="751" 
d="M557 1194l-178 -16h-2l147 -117q59 -53 25 -96q-56 -41 -103 43l-69 168l-80 -170q-19 -30 -46 -40t-48 7q-19 21 -9.5 49t42.5 55l141 101l-184 22q-38 4 -58.5 27.5t-9.5 48.5q14 29 46 28t62 -28l144 -98l-51 174q-6 37 6.5 61.5t38.5 24.5q28 1 41 -25.5t8 -69.5
l-43 -165l2 2l149 100q72 44 99 -8q10 -30 -10.5 -51.5t-59.5 -26.5z" />
    <glyph glyph-name="plus" unicode="+" horiz-adv-x="1124" 
d="M584 717h415v-29h-415v-436h-31v436h-428v29h428v409h31v-409z" />
    <glyph glyph-name="comma" unicode="," horiz-adv-x="491" 
d="M377 207q26 -55 29 -138t-17 -169q-19 -90 -71.5 -174t-124.5 -132q77 68 118 195q43 124 21 236q-38 -24 -76 -27q-61 -7 -107.5 31t-52.5 100t31.5 109t97.5 51q53 6 97 -21q28 -16 51 -51q1 -2 2 -4.5t1.5 -3.5t0.5 -2z" />
    <glyph glyph-name="hyphen" unicode="-" horiz-adv-x="1005" 
d="M125 557v31h756v-31h-756z" />
    <glyph glyph-name="period" unicode="." horiz-adv-x="542" 
d="M289 -8q-61 0 -105.5 43.5t-44.5 103.5t44 103t106 43q60 0 102.5 -43t42.5 -103t-42.5 -103.5t-102.5 -43.5z" />
    <glyph glyph-name="slash" unicode="/" horiz-adv-x="831" 
d="M70 4h-35l549 1432h32z" />
    <glyph glyph-name="zero" unicode="0" horiz-adv-x="1275" 
d="M664 1415q93 1 169 -27.5t128.5 -81.5t91 -121.5t60.5 -152.5t32 -168t10 -174q1 -106 -22 -210t-69 -194t-108.5 -159.5t-145.5 -108.5t-175 -38q-113 0 -204.5 45.5t-148.5 119t-95 171t-53 196.5t-13 201q3 305 149 501q145 198 394 201zM844 707q-31 208 -73 360
t-94.5 235.5t-107.5 77.5q-99 -3 -123 -198q-25 -202 21 -482q41 -308 111 -495q71 -188 159 -185q64 0 99 109q51 171 8 578z" />
    <glyph glyph-name="one" unicode="1" horiz-adv-x="915" 
d="M633 989v-743q0 -65 21 -116.5t53 -78.5q29 -23 65 -37q45 -14 86 -14h-729q38 0 76 14q123 50 123 232v596q-3 155 0 272q2 87 -31 123t-100 10l438 234q0 -85 -1 -218t-1 -159v-115z" />
    <glyph glyph-name="two" unicode="2" horiz-adv-x="1136" 
d="M590 199h31q332 0 421 200l-153 -399h-879l88 57q60 42 195 156q137 119 235 238q103 128 139.5 272.5t14.5 265.5q-15 107 -100 168q-82 64 -197 49q-80 -10 -155.5 -42.5t-110.5 -65.5l-33 -29q35 70 64 115q46 67 81 104q48 51 122 91.5t149 50.5q86 10 160.5 -8
t127 -55.5t90.5 -89t56 -108.5t18 -114q0 -81 -36 -164.5t-87 -147.5q-49 -58 -153 -174q-123 -133 -176 -198q-36 -45 -52.5 -75t-16 -46.5t8.5 -30.5q7 -11 33 -14q39 -6 94 -6h21zM1042 399l13 33z" />
    <glyph glyph-name="three" unicode="3" horiz-adv-x="1234" 
d="M817 854q296 -98 287 -424q-4 -84 -32.5 -156t-75 -123.5t-108 -88t-132 -53.5t-146.5 -16t-151 21q-118 31 -206 136t-126 245q46 -94 141.5 -162.5t218.5 -78.5q121 -10 204.5 63t94.5 193q9 131 -75 231q-85 102 -217 96q-76 -14 -99 -22q51 25 103 63q52 40 92 80
q45 47 80.5 113t42.5 131q11 80 -23.5 139.5t-111.5 85.5q-88 26 -183 -4t-166 -100l13 14q12 20 39 47q16 17 61 59q110 93 270 101q159 6 260 -84q99 -88 99 -205q-3 -195 -154 -301z" />
    <glyph glyph-name="four" unicode="4" horiz-adv-x="1288" 
d="M1368 567l-244 -237h-182v-191l-278 -325v516h-580l858 1143v-906h426zM352 565h307v320q0 70 -27.5 79.5t-74.5 -49.5l-221 -292q-30 -52 16 -58z" />
    <glyph glyph-name="five" unicode="5" horiz-adv-x="1138" 
d="M248 1038l-23 -106q-4 -25 0.5 -30.5t18.5 1.5q59 47 118 68q69 23 103 26l115 7q183 3 309 -111q129 -114 129 -309q0 -168 -176 -344q-100 -100 -275 -181t-309 -116l-129 -37q250 83 406 258q156 179 159 346q1 98 -28 153t-101 93q-51 22 -104.5 24.5t-95.5 -8
t-84 -32.5t-68 -41t-49 -40l-23 -20l166 797h705l-199 -256h-446q-37 0 -57.5 -9t-33.5 -34q-17 -34 -28 -99z" />
    <glyph glyph-name="six" unicode="6" horiz-adv-x="1218" 
d="M1092 512q21 -219 -111 -375q-133 -154 -332 -157q-141 0 -282 65q-80 38 -139.5 118.5t-82.5 190.5q-99 488 252 867q237 252 549 252q-107 -12 -180 -68t-143 -172q-89 -144 -115 -315l-2 -7q218 53 389 -53q170 -105 197 -346zM721 10q73 30 82 207q9 181 -33 354
q-50 229 -149 303q-65 50 -111 3q-61 -58 -61 -242q0 -191 32 -297q14 -62 31.5 -114t36 -87.5t38 -62.5t38 -42t36.5 -22.5t33 -7t27 7.5z" />
    <glyph glyph-name="seven" unicode="7" horiz-adv-x="1110" 
d="M254 1438h917q-182 -224 -335 -547q-54 -116 -82.5 -220t-30.5 -169q-2 -34 2 -160q4 -127 2 -164q-6 -136 -106 -170q-86 -28 -152 29q-56 50 -47 129q9 111 72 231q75 137 176 289q120 181 188 315q26 50 36.5 85.5t1.5 57.5t-21 34.5t-49 18t-63 6.5t-82 1h-5h-43h-43
q-190 0 -298.5 -45t-160.5 -162z" />
    <glyph glyph-name="eight" unicode="8" horiz-adv-x="1208" 
d="M842 784q111 -58 184 -178q74 -120 47 -284q-27 -177 -203 -263q-172 -85 -385 -61q-181 19 -273.5 114t-82.5 259q6 121 75 195.5t214 140.5q-86 41 -168 163q-80 126 -53 281t161 242q132 85 291 73q155 -7 247.5 -98.5t94.5 -237.5q0 -135 -92 -204q-77 -58 -166 -82
q1 0 15.5 -8.5t41 -23t52.5 -28.5zM446 1171q18 -101 80.5 -174.5t196.5 -144.5q41 87 49 160q6 44 6 57v66q0 122 -45 213q-45 97 -145 100q-59 1 -96.5 -31.5t-45.5 -85.5q-14 -93 0 -160zM500 666l-66 32q-60 -111 -33 -329q5 -75 29 -154q26 -77 83 -134t136 -61
q81 -4 124.5 40.5t43.5 117.5q3 139 -37 240q-39 102 -123 160q-50 37 -73 47q-61 32 -84 41z" />
    <glyph glyph-name="nine" unicode="9" horiz-adv-x="1230" 
d="M827 236q-238 -250 -546 -250q108 12 181.5 67t141.5 168q87 147 111 316q7 3 4 6l6 2q-87 -19 -168 -18.5t-154 30.5t-130 79.5t-94.5 128.5t-47.5 177q-21 221 111 377q131 155 333 158q138 0 281 -66q82 -38 141.5 -118t83.5 -193q99 -487 -254 -864zM504 1446
q-77 -30 -86 -207q-9 -173 35 -356q27 -122 74 -208.5t95 -109t91 12.5q58 58 61 239q3 183 -31 301q-14 62 -31.5 113.5t-35.5 87t-38 62.5t-38.5 42t-36.5 22.5t-32.5 7t-26.5 -6.5z" />
    <glyph glyph-name="colon" unicode=":" horiz-adv-x="536" 
d="M135 791q0 61 44 104t106 43q61 0 103 -42.5t42 -104.5q0 -60 -42 -103t-103 -43q-62 0 -106 43t-44 103zM387 35q-41 -43 -103 -43t-106 43q-43 44 -43 104t43 103q44 43 106 43t103 -43q43 -43 43 -103t-43 -104z" />
    <glyph glyph-name="semicolon" unicode=";" horiz-adv-x="544" 
d="M416 690q-41 -43 -103 -43t-106 43q-43 44 -43 104t43 103q44 43 106 43t103 -43q43 -43 43 -103t-43 -104zM393 268q69 -34 84 -166q15 -133 -41 -278q-61 -156 -174 -230q77 68 121 195q42 122 20 236q-38 -24 -75 -27q-61 -7 -107.5 31t-52.5 100q-7 61 31 108t98 52
q53 6 96 -21z" />
    <glyph glyph-name="less" unicode="&#x3c;" horiz-adv-x="980" 
d="M152 559l710 291v-31l-643 -264l643 -276v-29z" />
    <glyph glyph-name="equal" unicode="=" horiz-adv-x="1259" 
d="M125 823v31h1010v-31h-1010zM125 520v31h1010v-31h-1010z" />
    <glyph glyph-name="greater" unicode="&#x3e;" horiz-adv-x="960" 
d="M125 850l711 -291l-711 -309v29l643 276l-643 264v31z" />
    <glyph glyph-name="question" unicode="?" horiz-adv-x="1069" 
d="M524 307q-18 84 -12.5 172t23 158.5t43.5 126.5q108 233 110 369q6 284 -176 290q-89 2 -147.5 -48t-57.5 -140q3 -38 49 -90q49 -53 52 -82q11 -64 -26.5 -114t-98.5 -50t-104.5 49t-47.5 127q-9 139 100 248q112 109 285 115q196 6 309.5 -78t114.5 -248q1 -31 -6 -64
t-16.5 -60.5t-29.5 -62t-35 -57.5t-43.5 -59t-44 -54.5t-48 -56.5t-45.5 -53q-148 -177 -148 -338zM625 35q43 44 43 104t-43 103q-41 43 -103 43t-106 -43q-43 -43 -43 -103t43 -104q44 -43 106 -43t103 43z" />
    <glyph glyph-name="at" unicode="@" horiz-adv-x="1433" 
d="M772 309l143 381q38 117 23 154q-7 26 -28 45.5t-50 19.5q-50 0 -112 -54t-111 -140q-70 -125 -70 -244q0 -105 60 -127q46 -17 90 1.5t65 53.5l21 31l-4 -16q-10 -24 -22.5 -48.5t-39.5 -65.5t-56 -71t-70.5 -52.5t-84.5 -22.5q-71 0 -109 48.5t-38 131.5q0 129 72 270
q177 337 434 322q76 -3 137 -64l98 23l-176 -514q-2 -6 -8.5 -22t-11 -29t-9.5 -31t-5.5 -31.5t2 -26t13 -18.5t27.5 -6q121 9 209 135q88 125 88 317q0 164 -129 287q-126 126 -315 123q-133 -1 -243.5 -55.5t-178.5 -145.5q-133 -177 -133 -401q0 -209 121.5 -333
t320.5 -124q207 0 350.5 53t243.5 183q-106 -172 -270 -274t-379 -103q-268 -3 -424 166t-156 403q0 330 213 549q213 222 541 225q240 3 401 -139q165 -145 156 -383q-4 -126 -55 -236t-129 -175q-75 -63 -156.5 -98.5t-153.5 -37.5q-75 -5 -103.5 36.5t1.5 129.5z" />
    <glyph glyph-name="A" unicode="A" horiz-adv-x="1372" 
d="M664 1552l616 -1372q34 -75 98 -121q41 -27 77.5 -40.5t56 -16t47.5 -2.5h-900q5 1 14 3t33.5 10.5t45 19.5t43 31.5t34 45t11 62t-18.5 80.5l-116 289l-457 2l-115 -269q-41 -101 4 -182q47 -83 160 -92h-502q78 5 157.5 70.5t125.5 171.5l579 1329zM489 1024
q-40 0 -131 -223l-98 -230h432l-112 279l-45 111q-22 63 -46 63zM1567 0h-8h8z" />
    <glyph glyph-name="B" unicode="B" horiz-adv-x="1576" 
d="M1468 373q3 -375 -487 -375l-963 2q46 0 103 18q164 61 164 254v895q-1 69 -29 125.5t-66 83.5q-36 25 -79 39q-62 19 -93 19l910 4q446 0 446 -353q0 -149 -84 -238.5t-221 -101.5q133 0 250 -65q69 -36 109 -116.5t40 -190.5zM655 1417v-663q179 0 234 22
q120 64 117 311q-3 182 -80 259q-74 77 -271 71zM858 18q85 3 152 97q68 95 65 233q0 192 -49 268q-50 80 -135 101q-64 15 -236 6v-457q0 -141 62 -194q66 -54 141 -54z" />
    <glyph glyph-name="C" unicode="C" horiz-adv-x="1591" 
d="M477 760q47 -260 205 -412q166 -152 383 -158q85 -2 157 19.5t117.5 56.5t72 65.5t38.5 57.5l10 25q-5 -43 -43 -125q-28 -66 -67 -117q-42 -56 -121.5 -109.5t-171.5 -76.5q-198 -49 -367.5 -7.5t-294.5 143t-197.5 247t-76.5 303.5q-6 174 50 321t161 242
q206 194 506 219q200 12 383 -39q109 -33 161 -69l17 -13l-4 -442q-112 229 -334 430q-182 155 -406 61q-121 -59 -168 -241q-45 -177 -10 -381z" />
    <glyph glyph-name="D" unicode="D" horiz-adv-x="1689" 
d="M-29 1434h807q247 9 434 -70q349 -148 349 -627q0 -179 -57 -322t-158 -231q-196 -172 -469 -184h-82h-824q46 0 105 16q166 52 166 232v940q0 64 -25 114.5t-63 75.5q-39 27 -78 37q-62 19 -105 19zM881 27q126 24 202 214t72 517q-1 313 -103 474t-286 173
q-14 2 -127 2v-1133q0 -249 154 -249q82 0 88 2z" />
    <glyph glyph-name="E" unicode="E" horiz-adv-x="1564" 
d="M1171 178q98 76 178.5 156.5t108.5 124.5l23 39l-92 -498h-1379q50 0 129 39q52 24 84.5 81t32.5 134v942q0 79 -32 133.5t-85 73.5q-78 31 -129 31h1325l68 -476q-71 133 -328 316q-189 137 -432 137h-12v-655h6q66 2 124.5 24t97.5 52.5t71 70t48.5 70.5t25.5 59l10 33
v-672q-4 35 -45 115q-25 53 -68 100q-42 48 -113 82.5t-151 34.5h-6v-467q0 -234 190 -240q67 3 170 50q109 53 180 110z" />
    <glyph glyph-name="F" unicode="F" horiz-adv-x="1536" 
d="M61 1434h1303l84 -496q-20 66 -117 168q-87 97 -170 154q-213 151 -442 151h-62v-141v-115v-401h56q86 2 157.5 32.5t114.5 75t67 84t33 72.5l11 29v-625q-4 33 -45 104q-25 49 -68 92q-40 44 -113.5 75.5t-156.5 31.5h-56v-502q0 -69 29 -119t74 -71q78 -33 121 -33
h-820q46 0 117 31q47 21 76 71t29 121v37v107v807v34q0 58 -20.5 105t-49.5 69q-32 25 -63 35q-52 17 -89 17z" />
    <glyph glyph-name="G" unicode="G" horiz-adv-x="1617" 
d="M893 600h678q-6 0 -16.5 -2t-37 -14t-47 -33t-37 -65t-16.5 -103v-428q-20 57 -96 143q-74 83 -96 86q-201 -219 -459 -219q-313 0 -500 217q-188 218 -188 547q-3 207 79.5 353.5t217.5 230.5q218 135 536 135q290 -6 453 -100l2 -471q-49 115 -141 239
q-87 119 -195 207q-168 130 -340 78q-147 -51 -205 -236q-58 -182 -14 -444q46 -290 186 -481q138 -187 281 -193q53 -3 88 12q93 52 107 164q6 38 6 58q0 18 -1 55.5t-1 38.5v10q0 48 -17 86t-41.5 60.5t-56.5 38t-57 21.5t-47 7z" />
    <glyph glyph-name="H" unicode="H" horiz-adv-x="1724" 
d="M1462 1161v-889q0 -70 20.5 -127t49.5 -86q45 -35 89.5 -49t64.5 -10h-818q37 0 86 18q133 61 133 256v451h-479v-453q0 -70 20.5 -127t49.5 -86q45 -35 89 -49t64 -10h-817q37 0 84 18q135 59 135 256v887q0 71 -20 127.5t-49 83.5q-26 26 -64 41q-45 21 -88 21h819
q-43 0 -88 -21q-135 -51 -135 -252v-405h479v405q0 71 -20 127.5t-49 83.5q-26 26 -64 41q-45 21 -88 21h820q-44 0 -89 -21q-135 -51 -135 -252z" />
    <glyph glyph-name="I" unicode="I" horiz-adv-x="962" 
d="M649 1161v-889q0 -73 24 -127.5t55.5 -81t71.5 -42t61 -18.5t36 -3h-864q15 0 36 3t60.5 18.5t70.5 42t55 81t24 127.5v889q0 71 -23.5 127.5t-56.5 83.5q-24 24 -70 41q-50 21 -96 21h864q-46 0 -96 -21q-152 -53 -152 -252z" />
    <glyph glyph-name="J" unicode="J" horiz-adv-x="1220" 
d="M612 391v819q0 73 -25 124.5t-67 70.5q-64 29 -106 29h772q-43 0 -107 -29q-42 -19 -67 -70.5t-25 -124.5v-837q0 -377 -516 -377q-121 0 -272 63q-85 38 -138.5 121.5t-54.5 196.5q-2 78 46.5 138t129.5 60q110 0 150 -81q44 -81 10 -185q-36 -125 8 -205.5t139 -80.5
q94 0 115 120q8 44 8 248z" />
    <glyph glyph-name="K" unicode="K" horiz-adv-x="1486" 
d="M-4 1434h823q-51 0 -119 -29q-46 -20 -75 -71.5t-29 -123.5v-987q0 -69 28.5 -119t73.5 -71q78 -33 121 -33h-823q44 0 119 33q45 21 73.5 71t28.5 119v987q0 74 -28 125t-76 70q-68 29 -117 29zM868 1427h25h-25zM965 756l295 -387q97 -130 191 -227t138 -124l37 -22
l-508 4l-176 229l-242 324q-64 88 -104 61l432 512q62 81 48.5 146.5t-66.5 107t-117 47.5h580l-7 -2q-19 -5 -45 -15t-70.5 -33t-100 -66.5t-109.5 -100.5l-35 -34l-27 -29l-135 -164q-38 -44 -41 -88q-1 -27 6.5 -50t15.5 -36t31 -43zM596 614v-2v2z" />
    <glyph glyph-name="L" unicode="L" horiz-adv-x="1533" 
d="M805 18q152 3 375 201t286 342l-112 -561h-1358q48 0 96 20q62 21 104 88t46 187v866q0 70 -20.5 127t-49.5 84q-26 26 -63 41q-45 21 -89 21h818q-43 0 -88 -21q-136 -52 -136 -252v-878q0 -262 191 -265z" />
    <glyph glyph-name="M" unicode="M" horiz-adv-x="2242" 
d="M1931 1145v-850q0 -75 24 -132.5t56 -87t70.5 -48t61.5 -23t36 -4.5h-893q13 0 36 4.5t61.5 23t70.5 48t56 87t24 132.5v627q0 171 -18 174q-17 4 -29.5 -17t-38.5 -92l-424 -1055l-588 1059q-88 172 -101 81q0 -6 -1 -13v-31l-4 -666q0 -96 35.5 -170.5t87.5 -113.5
q49 -34 110 -55q77 -23 129 -23h-749q47 0 127 25q63 21 108 55q52 39 87.5 114.5t35.5 172.5v725q0 73 -25.5 133t-60.5 95.5t-79 61.5t-73 36t-51 14l-10 2h635l440 -791q49 -90 56 -106q29 -52 36 -54q15 -10 33 15.5t49 99.5l342 836h607q-4 1 -18.5 -0.5t-39.5 -8.5
t-52.5 -18t-55.5 -33.5t-50.5 -51.5t-37.5 -75t-15 -102z" />
    <glyph glyph-name="N" unicode="N" horiz-adv-x="1679" 
d="M1343 657v441q0 83 -28 151t-68 103q-34 31 -88 53q-63 25 -123 29h650q-57 -3 -125 -29q-183 -62 -191 -307v-1170h-2l-950 1082q-43 43 -64.5 29.5t-21.5 -76.5v-598q0 -89 31.5 -163.5t78.5 -113.5q99 -74 172 -84l33 -4h-661q51 6 110 31q54 20 97 57
q45 40 77.5 114.5t32.5 162.5v624q0 99 -22.5 179t-52.5 125.5t-68.5 78.5t-63 44.5t-43.5 15.5l-10 2h530l703 -805q33 -36 47 -33q20 6 20 61z" />
    <glyph glyph-name="O" unicode="O" horiz-adv-x="1736" 
d="M899 1452q173 0 311.5 -61t219.5 -168q158 -207 155 -506q-3 -282 -182 -504q-90 -108 -238 -170t-329 -61q-172 4 -312.5 72.5t-228.5 181.5q-170 230 -158 495q3 322 215 522q214 202 547 199zM1141 784q-26 169 -88 326q-59 152 -152 242q-95 92 -199 65
q-102 -30 -139 -223q-37 -188 10 -471q47 -284 160 -485q114 -203 256 -215q88 -8 135 83t50 263t-33 415z" />
    <glyph glyph-name="P" unicode="P" horiz-adv-x="1443" 
d="M1257 1303q94 -107 82 -306q-12 -195 -120 -290q-90 -78 -207 -107q-126 -28 -355 -8q87 10 154 42t102 73q38 44 54 100q19 57 23.5 100.5t4.5 120.5q0 200 -81.5 299.5t-223.5 97.5h-72v-1151q0 -71 23.5 -127.5t56.5 -85.5q31 -28 72 -43q55 -18 96 -18h-868
q41 0 96 18q150 62 150 256v961q0 46 -14 82t-38 56.5t-48.5 34t-53 18.5t-42 6.5t-25.5 1.5q260 7 350 10q205 8 317 8q229 5 358 -25.5t209 -123.5z" />
    <glyph glyph-name="Q" unicode="Q" horiz-adv-x="1732" 
d="M918 1452q173 0 310 -61t218 -168q159 -209 156 -506q-3 -281 -183 -504q-90 -108 -238 -170t-329 -61q-172 4 -312.5 72.5t-228.5 181.5q-169 228 -157 495q3 320 217 522t547 199zM1159 784q-29 173 -90 326q-60 154 -151 242q-95 92 -199 65q-102 -30 -139 -223
q-37 -188 10 -471q47 -284 160 -485q114 -203 256 -215q88 -8 134.5 83t49.5 263t-31 415zM590 -57q63 -4 124 -35t107 -74q117 -117 219 -153q298 -108 418 98q-42 -120 -131 -201q-90 -87 -237 -84q-97 1 -186 38.5t-144 90.5q-151 140 -242 172q-182 76 -371 -110
q65 115 195 192q130 75 248 66z" />
    <glyph glyph-name="R" unicode="R" horiz-adv-x="1476" 
d="M1202 453l84 -168q51 -98 123.5 -172t122.5 -95l45 -18h-520q-94 151 -142 242l-145 282q-26 51 -54.5 86.5t-52 50t-37.5 20t-24 5.5l-4 -559q0 -53 35 -88q23 -19 46 -28t34.5 -10t36.5 -1h-750q51 0 119 29q46 20 75 71t29 123v987q0 167 -166 213q-42 11 -57 11
q110 0 315 8q266 10 357 8q206 -5 325 -31t191 -88q97 -91 100 -270q0 -157 -106 -260q-87 -81 -166 -103q10 -3 26 -16q21 -14 67.5 -78t92.5 -151zM770 743q95 45 131.5 125t36.5 211q-1 190 -85 276.5t-255 74.5l4 -717q88 0 168 30z" />
    <glyph glyph-name="S" unicode="S" horiz-adv-x="1413" 
d="M1171 1372l3 -420q-64 140 -224 281q-304 279 -501 166q-118 -65 -72 -228q26 -86 106.5 -138t241.5 -89q344 -86 472.5 -238.5t72.5 -404.5q-18 -80 -59 -141.5t-94.5 -99.5t-122 -62t-138 -32.5t-147.5 -6.5q-365 6 -603 143v521q102 -186 252 -347q157 -165 332 -223
q69 -22 133 -31t123 -4.5t98.5 35.5t47.5 86q15 117 -82 207q-99 92 -383 174q-285 79 -399 213t-89 350q21 198 183 291q163 91 405 88q115 -1 227 -22t168 -47z" />
    <glyph glyph-name="T" unicode="T" horiz-adv-x="1544" 
d="M125 1434h1264l71 -435q-123 177 -219 254q-175 144 -293 150v-1108q0 -76 25 -138t61 -94q37 -29 80 -43q55 -20 107 -20h-916q54 0 105 20q165 61 165 275v1108q-103 -3 -303 -162q-50 -40 -104 -100q-58 -61 -96 -105l-37 -45z" />
    <glyph glyph-name="U" unicode="U" horiz-adv-x="1593" 
d="M1294 676v414q0 87 -23.5 154t-55 101.5t-71 56t-64.5 27t-42 5.5h523q-46 -4 -97 -35q-139 -82 -139 -332v-422q0 -86 -2 -115q0 -30 -10 -122q-9 -82 -27 -134q-53 -156 -139 -221q-124 -92 -307 -92q-336 0 -478 154q-141 156 -141 508v522q0 77 -21 137t-53 88
q-29 29 -67 43q-47 21 -92 21h874q-45 0 -76 -11q-12 -4 -26 -10q-142 -51 -142 -268v-588q0 -275 98 -397.5t285 -104.5q159 13 226 158.5t67 462.5z" />
    <glyph glyph-name="V" unicode="V" horiz-adv-x="1521" 
d="M825 -55l-694 1292q-89 197 -340 197h1045l-33 -4q-21 -4 -41 -9.5t-46.5 -15.5t-47.5 -23t-39.5 -32t-27.5 -42t-7.5 -54.5t16.5 -67.5q17 -39 242 -455q86 -170 139 -170q38 0 57.5 18.5t49.5 84.5l196 462q52 126 -22 215q-75 90 -236 93h576q-56 -21 -90 -39
q-32 -14 -88 -76q-51 -57 -93 -152z" />
    <glyph glyph-name="W" unicode="W" horiz-adv-x="2273" 
d="M1862 1434h565q-123 -43 -168 -80q-80 -64 -125 -187l-475 -1284l-504 1032l-383 -1032l-659 1354q-83 197 -312 197h887h113h885q-4 0 -10.5 -1t-25.5 -5t-37 -9.5t-41.5 -16t-42 -23t-35 -32t-24 -42t-5.5 -53.5t16 -66q50 -116 215 -455q24 -55 61 -113q37 -57 66 -57
q33 0 51.5 19.5t46.5 91.5l172 454q47 129 -20 217q-69 91 -211 91zM1034 674l105 274l-68 139l-72 150q-67 163 -233 190q-52 -11 -113 -43q-110 -65 -57 -198q73 -172 213 -455q77 -170 127 -170q33 0 51 20.5t47 92.5z" />
    <glyph glyph-name="X" unicode="X" horiz-adv-x="1728" 
d="M1855 0h-1011q23 0 54.5 7.5t66.5 29t55.5 53.5t12 88t-55.5 125l-260 350l-219 -286q-60 -79 -70 -147.5t23 -113t89 -72t128 -34.5h-762q66 13 109 27t112 47q160 78 307 274l262 334l-381 512q-96 123 -189 181.5t-157 58.5l955 -2q-42 0 -80.5 -19t-64 -53.5
t-17.5 -92.5t57 -126l160 -217l125 157q32 42 53.5 85t28 87.5t-7 80.5t-58.5 63t-119 35h687q-135 -6 -283 -103q-145 -95 -256 -239l-148 -195l306 -422q198 -272 303 -364q107 -94 245 -109z" />
    <glyph glyph-name="Y" unicode="Y" horiz-adv-x="1349" 
d="M1016 1434h477q-192 -44 -317 -267l-220 -393q-36 -65 -36 -225v-299q0 -75 27 -130t71 -81q67 -35 123 -39h-803q45 0 115 37q40 24 66 78.5t26 126.5l2 237q0 168 -62 271l-272 434q-75 120 -161 185t-140 65l801 -2q-95 0 -138 -76q-41 -75 11 -166l217 -371
q19 -33 36 -49.5t37 -19.5t42 17t47 64l188 343q58 103 20.5 175.5t-157.5 84.5z" />
    <glyph glyph-name="Z" unicode="Z" horiz-adv-x="1441" 
d="M877 127l155 109q98 70 175.5 144.5t99.5 113.5l22 34l-110 -530l-1252 2l793 1227q102 156 51 176q-16 4 -31 4h-10q-205 0 -440 -168q-96 -68 -162 -129q-74 -68 -111 -115l-37 -43l138 484l1155 -2l-365 -572l-407 -635q-36 -54 -44.5 -101t13 -76t68.5 -30
q78 3 163 39q89 41 136 68z" />
    <glyph glyph-name="bracketleft" unicode="[" horiz-adv-x="686" 
d="M344 1432l408 -2l-260 -121v-1475l260 -119l-408 -4v1721z" />
    <glyph glyph-name="backslash" unicode="\" horiz-adv-x="841" 
d="M686 4h-35l-547 1432h33z" />
    <glyph glyph-name="bracketright" unicode="]" horiz-adv-x="516" 
d="M-61 1436l409 2v-1719l-409 5l260 118v1473z" />
    <glyph glyph-name="asciicircum" unicode="^" horiz-adv-x="856" 
d="M438 1262l291 -527l-293 461l-307 -440z" />
    <glyph glyph-name="underscore" unicode="_" horiz-adv-x="1069" 
d="M129 4v31h813v-31h-813z" />
    <glyph glyph-name="grave" unicode="`" horiz-adv-x="614" 
d="M119 1329l168 -278l-277 172q-41 27 -62 54t-22.5 49t5.5 38t20 27q18 24 45.5 26t61 -21t61.5 -67z" />
    <glyph glyph-name="a" unicode="a" horiz-adv-x="1157" 
d="M682 131v416q-168 -52 -227 -105q-59 -50 -62 -147q0 -120 80 -158q106 -46 199 47l-15 -18q-53 -67 -75 -92q-37 -39 -103 -73t-131 -34q-130 0 -188 76t-58 170q3 151 193 233q81 38 387 119v115q0 157 -42 224.5t-142 49.5q-24 -4 -36.5 -7.5t-27.5 -14t-22.5 -28
t-14 -49t-8.5 -77.5q0 -25 19.5 -82.5t21.5 -68.5q1 -59 -42 -97t-103 -38q-62 0 -104 37.5t-38 113.5q3 99 72 174q122 127 295 152q45 9 96.5 9.5t108 -6.5t107 -28.5t90 -53.5t61.5 -84t18 -118v-448q0 -131 74 -146q30 1 57 29t39 61l10 27q-43 -248 -262 -248
q-98 0 -162.5 47t-64.5 121z" />
    <glyph glyph-name="b" unicode="b" horiz-adv-x="1179" 
d="M698 977q164 3 277 -131q113 -131 110 -367q-3 -223 -120 -360q-121 -139 -308 -139q-154 0 -272 81q-39 26 -74 66l-12 14l-158 -174v1155q0 78 -38 107t-107 8l455 246v-1020q0 -209 71 -342q72 -130 191 -121q40 4 63.5 56t28.5 139q8 150 -14 317q-18 149 -82 250
q-64 104 -172 98q-50 -3 -68 -43v2q25 64 87 110.5t142 47.5z" />
    <glyph glyph-name="c" unicode="c" 
d="M358 479q25 -137 114.5 -219.5t227.5 -83.5q249 -6 326 182q-15 -168 -133 -286q-122 -122 -318 -119q-211 3 -348 137q-138 135 -141 365q-1 90 24.5 171.5t71.5 141.5t109.5 107t136.5 69.5t153 28t160 -16.5q118 -26 196 -103.5t85 -176.5q4 -79 -38 -125t-112 -41
q-73 6 -107 63.5t-13 133.5q35 129 11 189t-112 62q-159 3 -243 -143q-84 -147 -50 -336z" />
    <glyph glyph-name="d" unicode="d" horiz-adv-x="1189" 
d="M1042 1483v-1182q0 -50 22.5 -78.5t53.5 -32.5t53 -2.5t33 5.5l-463 -254v479q0 132 -16 254q-14 113 -66 205q-48 91 -120 94q-70 3 -111 -80q-23 -53 -30 -129t-3.5 -137t13.5 -148q59 -348 192 -391q33 -10 57 -7.5t41.5 15.5t26 23.5t10.5 17.5q13 3 -8.5 -40.5
t-80.5 -86.5t-140 -43q-179 -6 -301 125q-121 133 -127 348q-9 253 119 396q127 142 313 145q65 1 134 -13t97 -32v178q0 81 -45.5 112.5t-99.5 6.5zM1206 193h-2h2z" />
    <glyph glyph-name="e" unicode="e" 
d="M727 168q115 1 194.5 50t106.5 130q-12 -165 -135 -276q-121 -112 -313 -103q-231 9 -357 150q-128 143 -131 346q-3 299 225 438q81 49 181 64q105 18 176 6q150 -27 250 -139q97 -109 94 -293h-645q0 -170 97 -272.5t257 -100.5zM520 922q-83 -56 -117 -174
q-33 -113 -30 -195q129 0 194 12q97 15 162 80q60 57 57 166t-73 143q-88 34 -193 -32z" />
    <glyph glyph-name="f" unicode="f" horiz-adv-x="849" 
d="M829 1450q215 -65 215 -262q0 -52 -40.5 -95.5t-94.5 -43.5q-79 0 -117 67.5t-24 163.5q7 103 -19.5 145t-89.5 37q-41 -3 -61 -32t-35 -89q-8 -39 -8 -159v-88q2 -37 2 -84v-88h328l-19 -19h-309v-657q0 -65 21 -116.5t53 -78.5q29 -23 65 -37q45 -14 86 -14h-753
q41 0 84 14q139 51 139 232v657h-107l-24 19h131v104q0 103 24 183.5t62.5 129.5t90.5 80.5t105.5 43.5t110.5 13t101.5 -6.5t82.5 -19.5z" />
    <glyph glyph-name="g" unicode="g" horiz-adv-x="987" 
d="M1004 1018q43 0 65.5 -27t11.5 -59q-8 -32 -41 -43t-84 8q-25 23 -43.5 32t-53 1.5t-77.5 -43.5q110 131 222 131zM782 887l-2 -2l2 2q78 -68 101 -168q27 -102 -13 -184q-38 -76 -94.5 -122.5t-152.5 -76.5q-175 -49 -330 -2q-43 -18 -49.5 -53.5t26.5 -59.5
q25 -21 75 -27.5t104.5 -3.5t119.5 -2q362 -27 371 -247q15 -196 -115 -314q-72 -66 -185.5 -105.5t-219.5 -29.5q-189 19 -299.5 95.5t-110.5 187.5q0 63 28.5 116t63.5 74l31 19q-7 -72 14.5 -124.5t73.5 -88.5t122 -59t173 -42q125 -23 224 -12.5t130 49.5q48 98 -57 162
q-104 64 -266 61q-202 0 -326 35q-148 39 -160 158q-15 116 211 217q-2 2 -4 2q-2 2 -6 2q-205 85 -199 309q3 220 254 297q88 30 201 27q116 -3 191 -43q29 -11 73 -47zM588 352q96 62 4 410q-18 59 -40.5 101t-43.5 62.5t-42.5 29t-38.5 6.5t-30 -11q-58 -30 -61 -164
t39 -262q27 -68 58 -111.5t59 -59t52 -15.5t44 14z" />
    <glyph glyph-name="h" unicode="h" horiz-adv-x="1273" 
d="M1126 545v-324q0 -57 16.5 -104t39.5 -70q53 -47 121 -47h-1340q41 0 84 14q139 41 139 207v883q0 51 -10.5 85t-24.5 48t-33 18t-31.5 2t-23.5 -6l429 232v-1262q0 -102 54 -155t132 -62q62 8 102.5 61t40.5 156v141v39q0 273 -18 328q-9 23 -12 27q-38 53 -132 47
q-93 -6 -151 -76q62 93 176 168q119 78 256 66q67 -5 102.5 -38.5t61.5 -93.5q13 -29 16 -81q4 -70 4 -86q2 -20 2 -95v-22z" />
    <glyph glyph-name="i" unicode="i" horiz-adv-x="800" 
d="M401 1018q-69 0 -119.5 51t-50.5 123t50.5 122t119.5 50q72 0 122 -50t50 -122t-50 -123t-122 -51zM565 975v-754q0 -57 16.5 -104t39.5 -70q53 -47 122 -47h-682q38 0 76 14q125 42 125 207v438q0 38 -15 61t-36.5 28.5t-42 4t-35.5 -9.5z" />
    <glyph glyph-name="j" unicode="j" horiz-adv-x="653" 
d="M180 1192q0 69 51.5 120.5t120.5 51.5t120.5 -51.5t51.5 -120.5q0 -72 -51 -123t-121 -51t-121 51t-51 123zM213 -131v782q-1 45 -17.5 71t-39 31.5t-44.5 1.5t-38 -14l444 238v-1081q0 -303 -364 -324q-174 -3 -295 70q-119 70 -119 206q0 56 41.5 100t95.5 44
q79 0 123 -74q42 -76 27 -166q-6 -104 45 -143q49 -38 96 -17q31 19 37 66q8 41 8 209z" />
    <glyph glyph-name="k" unicode="k" horiz-adv-x="1136" 
d="M1247 6l31 -6h-657h-7h-624q11 0 26.5 2t48.5 14.5t58 33.5t45 66t20 105v926q0 64 -39 93t-94 3l441 240l-2 -1262q0 -64 16 -110t40.5 -67.5t44.5 -30.5t38 -11q44 6 55.5 41t-18.5 86l-66 111q-53 98 -82 127q-11 11 -16 21.5t-6 15t-4 4.5l204 249q35 40 40 90
t-16 93t-70.5 73t-116.5 31h622q-61 -9 -205 -98q-143 -88 -196 -150l-19 -20q-23 -26 -16 -55q3 -9 20 -38t23 -42l43 -70l82 -129l96 -139q60 -80 86 -103q38 -35 88.5 -61t85.5 -33z" />
    <glyph glyph-name="l" unicode="l" horiz-adv-x="657" 
d="M469 1483v-1262q0 -59 21.5 -105.5t52.5 -68.5q27 -21 65 -33q45 -14 86 -14h-753q41 0 84 14q139 41 139 207v887q0 51 -11 84.5t-24.5 46.5t-34 16.5t-31 1.5t-22.5 -6z" />
    <glyph glyph-name="m" unicode="m" horiz-adv-x="1873" 
d="M1739 545v-324q0 -60 17.5 -105t40 -66t51.5 -33.5t43 -14.5t24 -2h-1878q10 0 24 2t43 14.5t51.5 33.5t40 66t17.5 105v412q0 44 -11.5 72.5t-26.5 38.5t-33.5 11.5t-30.5 -1t-19 -6.5l426 231v-758q0 -189 152 -219q151 30 151 219v275q0 144 -10 202q-10 57 -47 76
q-106 53 -242 -45q228 249 424 234q59 -2 115 -43q29 -20 53 -99q12 -37 12 -129q3 -21 0 -76v-71v-324q0 -77 31 -131q28 -46 56 -63.5t67 -24.5q34 6 61 21q36 20 64.5 73t28.5 125v254q0 130 -7 184q-6 49 -26 82q-118 107 -266 -12q226 247 419 232q74 -7 114 -43.5
t56 -100.5q13 -63 13 -100q2 -25 2 -55v-117z" />
    <glyph glyph-name="n" unicode="n" horiz-adv-x="1345" 
d="M1147 545v-324q0 -58 16.5 -105t38.5 -69q53 -47 121 -47h-1274q10 -1 25.5 0.5t42.5 13t49.5 33t39 67t17.5 107.5v436q0 127 -114 93l419 229v-758q0 -62 17.5 -108t45 -68t50.5 -31.5t45 -11.5q23 2 46 11.5t49.5 32t43.5 68t17 107.5v141v39q0 269 -19 328
q-9 23 -12 27q-38 53 -125 47q-86 -6 -141 -76q59 92 166 168q113 78 250 66q67 -5 102 -38.5t61 -93.5q14 -32 17 -81q4 -70 4 -86q2 -20 2 -95v-22z" />
    <glyph glyph-name="o" unicode="o" horiz-adv-x="1183" 
d="M629 -25q-146 -9 -295 60q-81 40 -142 124.5t-86 202.5q-43 210 60 381q105 172 309 224q242 52 416 -64q175 -114 199 -377q18 -234 -113 -383q-135 -153 -348 -168zM750 588q-37 187 -111 301q-71 115 -158 49q-53 -41 -59 -219q-6 -180 33 -350q14 -63 32 -118t37 -94
t40.5 -71t41.5 -49.5t39.5 -29.5t35 -10.5t28.5 7.5q52 27 67 133q30 185 -26 451z" />
    <glyph glyph-name="p" unicode="p" horiz-adv-x="1187" 
d="M1104 483q3 -199 -121 -356q-121 -157 -285 -154q-112 0 -247 60v-275q0 -52 19 -92t46 -61q59 -43 135 -43h-669l10 2q16 2 33 7.5t39.5 19.5t39.5 34.5t29 55t12 77.5v850q0 85 -34.5 116.5t-98.5 18.5l439 236v-191v-352q0 -216 88 -344q89 -127 202 -100
q130 35 60 461q-26 175 -59.5 259t-98.5 115q-22 11 -45 13.5t-40.5 -2t-35.5 -13.5t-29 -17t-21 -16.5t-11 -9.5q1 5 11.5 23t33.5 46.5t52.5 54t74.5 44.5t94 19q167 0 270 -133q104 -135 107 -353zM461 786v2v-2zM461 784v2v-2zM461 782v2v-2z" />
    <glyph glyph-name="q" unicode="q" horiz-adv-x="1193" 
d="M1042 967v-1211q0 -66 27 -112t70 -60q59 -24 106 -24h-708q45 0 102 24q43 14 69.5 60t26.5 112l2 752q0 38 -4 100q-4 140 -33 211q-29 80 -71 120t-111 24q-67 -15 -94 -156q-24 -142 -6 -330q40 -374 225 -409q62 -12 78 4l-2 -2q-7 -12 -16 -23.5t-30 -30.5
t-55.5 -31t-76.5 -12q-197 -3 -326 123q-126 126 -129 373q0 226 145 365q146 140 336 143q95 1 167 -28.5t155 -98.5l153 129l-14 -23z" />
    <glyph glyph-name="r" unicode="r" horiz-adv-x="989" 
d="M838 977q79 -4 120 -54t41 -116q0 -62 -33.5 -106.5t-97.5 -45.5q-44 -5 -79 17t-67 62.5t-36 43.5q-94 66 -164 -35v-546q0 -52 19 -92.5t47 -63.5q38 -25 78.5 -34.5t56.5 -6.5h-705q33 0 103 23q44 18 70 63t26 111v26v434q0 120 -108 99l413 223v-131v-47v-19
q49 86 139 141.5t177 53.5zM481 668q1 0 4 8q-1 0 -2 -4t-2 -4z" />
    <glyph glyph-name="s" unicode="s" horiz-adv-x="983" 
d="M920 293q0 -46 -8 -87.5t-32 -85.5t-61 -76t-101 -52.5t-147 -20.5q-223 0 -436 109l-6 356q103 -179 279 -307q122 -85 210 -109q102 -27 125 9q34 58 -36 134.5t-236 147.5q-343 142 -334 365q6 119 107 207t293 88q170 0 303 -80l2 -2v-309q-70 136 -180 235
q-114 105 -224 117q-55 6 -86 -22t-26 -68q15 -121 256 -226q192 -83 262 -159q73 -76 76 -164z" />
    <glyph glyph-name="t" unicode="t" horiz-adv-x="804" 
d="M604 117q66 -1 118 47t77 131q-20 -146 -98 -233.5t-212 -88.5q-195 -1 -285.5 102t-90.5 326v502h-76l-25 19h101v254l309 159q0 -270 -2 -413h213l-19 -19h-194v-506q2 -144 44 -211.5t140 -68.5z" />
    <glyph glyph-name="u" unicode="u" horiz-adv-x="1224" 
d="M502 186q38 -53 131 -47t153 78q-63 -95 -176 -170q-121 -77 -258 -65q-50 4 -88 29t-59 59q-20 34 -29 90q-5 33 -10 98v113v28v299q0 59 -16.5 106t-40.5 68q-54 48 -121 48h483v-222v-116v-138v-106q2 -14 5 -48t4.5 -45.5t7 -29t14.5 -29.5zM793 98v625q-1 55 -18 95
t-39 59.5t-49.5 30t-43.5 12t-25 0.5h480v-670q0 -58 39 -72q39 -15 59 -6l-403 -217v143z" />
    <glyph glyph-name="v" unicode="v" horiz-adv-x="964" 
d="M647 922h445q-120 -24 -193 -103q-48 -45 -74 -110l-329 -793l-381 827q-34 72 -87.5 118.5t-93.5 53.5l-36 7h651q-33 0 -71 -19q-92 -48 -46 -168l162 -346q15 -35 41 -35q19 0 29 13l10 22l133 309l8 21q27 88 -31 143q-57 57 -137 60z" />
    <glyph glyph-name="w" unicode="w" horiz-adv-x="1482" 
d="M1186 922h438q-116 -21 -190 -101q-50 -50 -74 -108l-305 -789l-318 678l-221 -678l-416 817q-34 70 -89 117.5t-97 54.5l-37 7h615q-43 0 -75 -25q-49 -40 -18 -123l162 -348q30 -70 55 -70q31 0 58 88l57 172l-61 131q-36 71 -80.5 117t-73.5 51l-24 7h602
q-16 0 -60 -15q-30 -10 -43 -28q-44 -69 -10 -144l162 -344q20 -39 41 -39q25 0 39 39q0 1 0.5 2t1.5 3.5t2 4.5l4 11l115 290l8 23q28 85 -29 139q-57 57 -139 60z" />
    <glyph glyph-name="x" unicode="x" horiz-adv-x="1093" 
d="M1212 0h-630q29 0 56.5 18.5t36.5 53.5t-32 86l-166 217l-127 -144q-62 -71 -31 -143q13 -29 62.5 -54.5t97.5 -33.5h-495q115 39 192 94q105 78 174 160l119 133l-309 406q-43 58 -107 88q-80 41 -131 41h688l2 -2q-90 -21 -106 -66q-6 -17 -6.5 -31t6 -28.5t12 -24
t19.5 -28.5t22 -31l109 -142l120 140q70 75 35 143q-10 19 -31 33.5t-42 19.5q-11 3 -33 7t-40 7.5t-20 4.5h488l-10 -2q-5 -2 -33.5 -10.5t-49.5 -15.5t-51 -21.5t-53 -30.5q-64 -43 -143 -137l-127 -150l321 -414q108 -117 213 -143z" />
    <glyph glyph-name="y" unicode="y" horiz-adv-x="954" 
d="M649 922h445q-120 -24 -193 -103q-48 -45 -74 -110l-329 -793l-68 -162q-53 -127 -111 -157q-52 -32 -135 -23q-51 7 -78.5 55.5t-13.5 102.5q8 39 39.5 63t77.5 23q30 -3 65 -41q34 -40 43 -43q78 -27 121 86l43 110l-375 813q-33 73 -86 120.5t-94 54.5l-37 4h662
q-4 0 -11 -1t-26 -6t-35 -12.5t-33 -22t-25 -33t-6 -48t19 -64.5l164 -346q15 -35 39 -35q19 0 29 13l10 22l133 309l8 21q27 88 -31 143q-57 57 -137 60z" />
    <glyph glyph-name="z" unicode="z" 
d="M504 0l-8 -2q132 3 323 137q65 50 133 127q66 75 103 131l35 56l-103 -467l-944 4l594 827q37 47 32.5 80.5t-48.5 34.5q-132 -9 -312 -140q-111 -80 -192 -161l-31 -29l86 348l897 -4l-594 -821q-37 -54 -29 -87.5t58 -33.5z" />
    <glyph glyph-name="braceleft" unicode="{" horiz-adv-x="722" 
d="M688 1427q-80 6 -129.5 -29t-77.5 -136q-37 -146 0 -361q16 -71 1.5 -157t-62.5 -144q99 -108 72 -313l-15 -107l-16 -119q-17 -134 14 -223q20 -69 52.5 -99.5t74 -29.5t96.5 4q-216 -44 -325.5 60.5t-83.5 326.5l8 74q12 82 14 129q5 43 2 98q0 37 -18 82
q-28 78 -123 113q51 9 96 66q46 61 37 215q-1 5 -5 40.5t-7 63.5t-5.5 70t-2.5 75q1 59 17.5 107.5t43 81.5t61.5 57.5t72 37.5t75.5 19t72 5t61.5 -7z" />
    <glyph glyph-name="bar" unicode="|" horiz-adv-x="274" 
d="M121 -115v1768h33v-1768h-33z" />
    <glyph glyph-name="braceright" unicode="}" horiz-adv-x="747" 
d="M41 1427q28 6 61.5 7t72 -5t75.5 -19t72 -37.5t61.5 -57.5t43 -81.5t17.5 -107.5q0 -33 -2.5 -75t-5.5 -70t-7 -63.5t-5 -40.5q-9 -154 37 -215q45 -57 96 -66q-94 -35 -123 -113q-18 -45 -20 -82q0 -49 2 -98l14 -129q2 -13 10 -74q26 -222 -83.5 -326.5t-325.5 -60.5
q6 0 18 -1q85 -7 117 5q56 21 88 121q31 89 14 223l-16 119l-14 107q-27 206 71 313q-50 57 -64 143.5t3 157.5q37 215 0 361q-29 101 -78 136t-129 29z" />
    <glyph glyph-name="asciitilde" unicode="~" horiz-adv-x="878" 
d="M125 580q1 94 55.5 147t132.5 47q62 -6 150 -57q89 -51 137 -51q67 0 102 21t52 71q6 -78 -38 -128t-116 -50q-73 0 -164 55q-89 57 -164 57q-113 0 -147 -112z" />
    <glyph glyph-name="exclamdown" unicode="&#xa1;" horiz-adv-x="593" 
d="M154 848q0 60 43.5 102.5t105.5 42.5q61 0 103.5 -42.5t42.5 -102.5q0 -62 -42.5 -105t-103.5 -43q-62 0 -105.5 43.5t-43.5 104.5zM309 651v4v-4zM309 651q0 -105 41 -274q46 -185 80 -299q35 -114 59 -258q24 -128 -20 -198.5t-158 -70.5q-107 0 -149 70.5t-23 198.5
q22 130 58 258q25 91 73 299q39 160 39 274z" />
    <glyph glyph-name="cent" unicode="&#xa2;" horiz-adv-x="1140" 
d="M1044 336q-15 -163 -129 -283t-303 -123v-32h-20v32q-208 3 -346 138q-139 136 -142 364q-3 225 140 365q140 137 348 149v119h20v-117q82 0 148 -14q118 -25 195.5 -102t84.5 -179q4 -79 -37.5 -124t-111.5 -40q-73 4 -106.5 61t-14.5 136q35 129 11.5 189t-111.5 61
q-8 0 -58 -4v-762q56 -16 109 -16q246 -6 323 182zM377 457q38 -212 215 -279v748q-124 -35 -184 -170q-58 -134 -31 -299z" />
    <glyph glyph-name="sterling" unicode="&#xa3;" horiz-adv-x="1284" 
d="M932 1450q144 -7 221.5 -81.5t69.5 -186.5q-1 -53 -33.5 -83t-81.5 -30q-70 0 -104.5 53t-10.5 131q24 83 -7 136.5t-95 48.5q-84 -9 -170 -283q-118 -382 -168 -563h139l-18 -19h-127q-45 -145 -90 -260q92 -10 139 -37l29 -14l65 -47q85 -62 205 -78q75 -9 145 10
q70 18 76 66q9 39 -39 51q-36 11 -104 19q-40 1 -68.5 29.5t-34.5 68.5q-3 92 76 119q51 13 98 -7t70 -65q60 -93 33 -209q-14 -65 -32 -107t-52 -83q-73 -89 -232 -74q-75 7 -137.5 51t-97.5 103q-92 154 -147 174q-97 -192 -109 -209q-80 -115 -193 -115t-155 52t-27 128
q12 76 77 129t171 66q20 89 59 239h-166l-24 19h194q25 106 142 512q64 231 221 295q72 31 137.5 42t155.5 9zM131 164q27 16 39 45q28 59 37 98q-42 -1 -83 -38t-46 -74q-2 -19 15.5 -30t37.5 -1z" />
    <glyph glyph-name="currency" unicode="&#xa4;" horiz-adv-x="1101" 
d="M948 743q0 -142 -88 -249l119 -115l-59 -60l-117 117q-110 -90 -250 -90q-128 0 -240 80l-123 -123l-59 57l121 123q-96 116 -96 260t96 254l-123 121l59 58l119 -123q113 84 246 84q142 0 252 -90l125 127l59 -60l-127 -125q86 -109 86 -246zM231 743q0 -132 95 -227
q95 -92 227 -92q133 0 225 92q94 94 94 227q0 132 -94 226q-91 94 -225 94q-133 0 -227 -94q-95 -95 -95 -226z" />
    <glyph glyph-name="yen" unicode="&#xa5;" horiz-adv-x="1122" 
d="M788 1434h9h-9zM1327 1434h-530q124 -1 169.5 -84t-14.5 -195q-196 -365 -204 -379h-58l-268 400q-71 114 -4 184q71 74 141 74h-844l43 -7q50 -7 116 -52t110 -113l305 -486h-178l24 -26h873l18 26h-246l221 410q127 239 326 248zM135 614h238q6 -27 6 -100v-266
q0 -178 -150 -232q-55 -16 -96 -16h866q-41 0 -96 16q-41 15 -72 37q-33 27 -56 79t-23 116v266q0 82 2 100h254l18 27h-915z" />
    <glyph glyph-name="brokenbar" unicode="&#xa6;" horiz-adv-x="274" 
d="M121 838v559h33v-559h-33zM121 18v560h33v-560h-33z" />
    <glyph glyph-name="section" unicode="&#xa7;" horiz-adv-x="968" 
d="M504 1092q266 -72 323 -164q62 -88 37 -174q-15 -103 -88 -201q91 -97 82 -248q-9 -129 -108 -209q-100 -80 -242 -80q-186 0 -280.5 83t-94.5 214q0 56 29 93.5t78 37.5q53 0 85 -38.5t21 -86.5q-20 -81 -22 -112q-5 -54 26 -92q35 -50 106 -66.5t139 -1t118 64.5
t47 117q3 76 -66 117q-68 40 -237 90q-210 57 -273 137q-63 81 -57 207q3 108 88 193q-73 82 -70 207q3 123 103 209q97 87 264 84q126 -3 217 -76q94 -73 94 -166q0 -107 -88 -107q-65 0 -85 38t-5 98q21 78 -37 139q-54 60 -145 57l-14 -2q-110 -13 -142 -82
q-34 -69 15 -158q49 -81 182 -122zM233 901q-13 -63 54.5 -119t195.5 -88q171 -41 262 -114q7 28 7 49q3 144 -279 207q-141 27 -225 102q-12 -20 -15 -37z" />
    <glyph glyph-name="dieresis" unicode="&#xa8;" horiz-adv-x="1228" 
d="M266 1110q-56 0 -98.5 43t-42.5 104q0 55 42.5 94.5t98.5 39.5q61 0 103.5 -39t42.5 -95q0 -62 -42.5 -104.5t-103.5 -42.5zM752 1110q-56 0 -99 43t-43 104q0 55 43 94.5t99 39.5q61 0 103 -39t42 -95q0 -62 -42 -104.5t-103 -42.5z" />
    <glyph glyph-name="copyright" unicode="&#xa9;" horiz-adv-x="1536" 
d="M1231 20q-194 -194 -469 -194q-274 0 -471 194q-195 198 -195 472t195 469q197 194 471 194q275 0 469 -194q196 -193 196 -469t-196 -472zM764 -154q268 0 457 189q190 190 190 459q0 267 -190 454q-188 191 -457 191q-268 0 -457 -189q-188 -188 -188 -456t188 -459
q192 -189 457 -189zM557 487q24 -113 90.5 -186t161.5 -98q134 -30 250 6q121 41 166 158q-27 -138 -150 -261q-120 -120 -309 -120q-206 0 -350 129q-145 130 -148 356q-3 191 101 326q102 127 256 172.5t325 9.5q116 -27 199 -107q82 -79 82 -174q0 -80 -41.5 -124
t-108.5 -37q-75 12 -107.5 64.5t-12.5 127.5q35 129 11 190t-112 62q-165 3 -254 -145q-90 -146 -49 -349z" />
    <glyph glyph-name="guillemotleft" unicode="&#xab;" horiz-adv-x="821" 
d="M147 563l342 291l-170 -293l150 -307zM360 563l342 291l-170 -293l150 -307z" />
    <glyph glyph-name="logicalnot" unicode="&#xac;" horiz-adv-x="976" 
d="M135 635v29h707v-240h-29v211h-678z" />
    <glyph glyph-name="registered" unicode="&#xae;" horiz-adv-x="1529" 
d="M291 961q197 194 471 194q275 0 469 -194q196 -193 196 -469t-196 -472q-194 -194 -469 -194q-274 0 -471 194q-195 198 -195 472t195 469zM764 -154q268 0 457 189q190 190 190 459q0 267 -190 454q-188 191 -457 191q-268 0 -457 -189q-188 -188 -188 -456t188 -459
q192 -189 457 -189zM1022 383l45 -88q28 -55 67.5 -95.5t67.5 -52.5l25 -8h-283q-52 78 -78 129l-80 154q-44 86 -86 86l-4 -303q0 -66 84 -66h-409l7 1q8 0 14 1t16 3.5t18.5 6.5t18.5 10t18 15t14.5 20.5t10.5 28t4 35.5v533q0 100 -101 118q-8 2 -20 2q16 0 72.5 2
t97.5 3q137 7 192 4q216 -3 281 -62q55 -52 55 -145q3 -84 -55 -142q-32 -32 -90 -57q41 -21 98 -133zM788 541q89 47 89 180q0 104 -44 150.5t-137 41.5l4 -389q42 0 88 17z" />
    <glyph glyph-name="overscore" unicode="&#xaf;" horiz-adv-x="960" 
d="M276 1188v22l404 2v-24h-404z" />
    <glyph glyph-name="degree" unicode="&#xb0;" horiz-adv-x="501" 
d="M199 1294q55 0 88 -33.5t32 -89.5q-1 -38 -23 -67.5t-52.5 -42.5t-66 -8t-62.5 32q-27 25 -32.5 62.5t7.5 70t42.5 55t66.5 21.5zM201 1083q36 0 62 27t26 64q0 36 -26 63t-62 27q-35 0 -60.5 -27t-25.5 -63q0 -37 25.5 -64t60.5 -27z" />
    <glyph glyph-name="plusminus" unicode="&#xb1;" horiz-adv-x="1124" 
d="M578 1118v-370h421v-27h-421v-395h-29v395h-424v27h424v370h29zM999 213h-874v27h874v-27z" />
    <glyph glyph-name="acute" unicode="&#xb4;" horiz-adv-x="1228" 
d="M309 1006l170 278q28 44 61.5 67t61 21t45.5 -26q13 -11 19.5 -27.5t5 -38.5t-23 -49t-62.5 -53z" />
    <glyph glyph-name="middot" unicode="&#xb7;" horiz-adv-x="473" 
d="M229 664q-50 0 -85 35.5t-35 86.5t35 87t85 36q51 0 88 -36t37 -87t-37 -86.5t-88 -35.5z" />
    <glyph glyph-name="cedilla" unicode="&#xb8;" horiz-adv-x="593" 
d="M225 -145l99 135l45 10l-66 -88q90 -6 132.5 -54.5t31.5 -115.5q-12 -65 -55 -101t-95 -40t-104.5 11t-87.5 46q63 -30 143 -10q81 21 90 90q6 56 -31.5 84t-101.5 33z" />
    <glyph glyph-name="guillemotright" unicode="&#xbb;" horiz-adv-x="821" 
d="M125 854l342 -291l-322 -309l150 307zM338 854l342 -291l-322 -309l150 307z" />
    <glyph glyph-name="questiondown" unicode="&#xbf;" horiz-adv-x="1032" 
d="M510 1059q61 0 105 -44t44 -104t-43 -102.5t-106 -42.5q-60 0 -101.5 42.5t-41.5 102.5t41.5 104t101.5 44zM510 743q26 -123 4 -254q-20 -122 -59 -204q-30 -65 -72 -181q-36 -97 -39 -186q-6 -285 176 -291q89 -2 148.5 48.5t58.5 140.5q-3 38 -49 90q-48 51 -53 82
q-8 67 28.5 115.5t98.5 48.5q59 0 103.5 -50.5t45.5 -126.5q9 -141 -100 -247q-109 -109 -283 -115q-199 -6 -312 76.5t-114 249.5q0 35 7.5 70.5t26 73t34 65.5t47 69t48.5 62.5t55.5 66t51.5 60.5q148 177 148 337z" />
    <glyph glyph-name="Agrave" unicode="&#xc0;" horiz-adv-x="1372" 
d="M850 1581l-277 172q-41 26 -62.5 53t-23 49t5 38.5t19.5 27.5q18 24 45.5 26.5t61 -20.5t61.5 -69zM664 1552l616 -1372q34 -75 98 -121q41 -27 77.5 -40.5t56 -16t47.5 -2.5h-900q5 1 14 3t33.5 10.5t45 19.5t43 31.5t34 45t11 62t-18.5 80.5l-116 289l-457 2l-115 -269
q-41 -101 4 -182q47 -83 160 -92h-502q78 5 157.5 70.5t125.5 171.5l579 1329zM489 1024q-40 0 -131 -223l-98 -230h432l-112 279l-45 111q-22 63 -46 63zM1567 0h-8h8z" />
    <glyph glyph-name="Aacute" unicode="&#xc1;" horiz-adv-x="1372" 
d="M889 1901q12 -12 18.5 -28.5t5.5 -38.5t-23 -49.5t-63 -53.5l-276 -172l170 278q28 46 61.5 68.5t61 20t45.5 -24.5zM664 1552l616 -1372q34 -75 98 -121q41 -27 77.5 -40.5t56 -16t47.5 -2.5h-900q5 1 14 3t33.5 10.5t45 19.5t43 31.5t34 45t11 62t-18.5 80.5l-116 289
l-457 2l-115 -269q-41 -101 4 -182q47 -83 160 -92h-502q78 5 157.5 70.5t125.5 171.5l579 1329zM489 1024q-40 0 -131 -223l-98 -230h432l-112 279l-45 111q-22 63 -46 63zM1567 0h-8h8z" />
    <glyph glyph-name="Acircumflex" unicode="&#xc2;" horiz-adv-x="1372" 
d="M760 1806l137 -282l-213 178l-244 -178l170 282h150zM664 1552l616 -1372q34 -75 98 -121q41 -27 77.5 -40.5t56 -16t47.5 -2.5h-900q5 1 14 3t33.5 10.5t45 19.5t43 31.5t34 45t11 62t-18.5 80.5l-116 289l-457 2l-115 -269q-41 -101 4 -182q47 -83 160 -92h-502
q78 5 157.5 70.5t125.5 171.5l579 1329zM489 1024q-40 0 -131 -223l-98 -230h432l-112 279l-45 111q-22 63 -46 63zM1567 0h-8h8z" />
    <glyph glyph-name="Atilde" unicode="&#xc3;" horiz-adv-x="1372" 
d="M516 1761q-124 0 -154 -162q1 133 58.5 204.5t154.5 60.5q60 -6 134 -68q76 -58 125 -61q54 -5 102 35t59 110q-2 -101 -52.5 -175.5t-133.5 -80.5q-46 -3 -91.5 17.5t-76 46.5t-65 49t-60.5 24zM664 1552l616 -1372q34 -75 98 -121q41 -27 77.5 -40.5t56 -16t47.5 -2.5
h-900q5 1 14 3t33.5 10.5t45 19.5t43 31.5t34 45t11 62t-18.5 80.5l-116 289l-457 2l-115 -269q-41 -101 4 -182q47 -83 160 -92h-502q78 5 157.5 70.5t125.5 171.5l579 1329zM489 1024q-40 0 -131 -223l-98 -230h432l-112 279l-45 111q-22 63 -46 63zM1567 0h-8h8z" />
    <glyph glyph-name="Adieresis" unicode="&#xc4;" horiz-adv-x="1372" 
d="M428 1626q-57 0 -99 43.5t-42 104.5q0 55 42 94t99 39q61 0 103 -38.5t42 -94.5q0 -62 -42 -105t-103 -43zM913 1626q-57 0 -99 43.5t-42 104.5q0 55 42 94t99 39q61 0 103.5 -38.5t42.5 -94.5q0 -62 -42.5 -105t-103.5 -43zM664 1552l616 -1372q34 -75 98 -121
q41 -27 77.5 -40.5t56 -16t47.5 -2.5h-900q5 1 14 3t33.5 10.5t45 19.5t43 31.5t34 45t11 62t-18.5 80.5l-116 289l-457 2l-115 -269q-41 -101 4 -182q47 -83 160 -92h-502q78 5 157.5 70.5t125.5 171.5l579 1329zM489 1024q-40 0 -131 -223l-98 -230h432l-112 279l-45 111
q-22 63 -46 63zM1567 0h-8h8z" />
    <glyph glyph-name="Aring" unicode="&#xc5;" horiz-adv-x="1372" 
d="M571 1729q0 51 35 87.5t84 36.5q55 0 88.5 -32.5t32.5 -91.5q-2 -50 -37 -85.5t-84 -35.5t-84 35.5t-35 85.5zM692 1821q-35 0 -61.5 -27.5t-26.5 -62.5q0 -36 26.5 -63.5t61.5 -27.5q36 0 62 27t26 64q0 36 -26 63t-62 27zM664 1552l616 -1372q34 -75 98 -121
q41 -27 77.5 -40.5t56 -16t47.5 -2.5h-900q5 1 14 3t33.5 10.5t45 19.5t43 31.5t34 45t11 62t-18.5 80.5l-116 289l-457 2l-115 -269q-41 -101 4 -182q47 -83 160 -92h-502q78 5 157.5 70.5t125.5 171.5l579 1329zM489 1024q-40 0 -131 -223l-98 -230h432l-112 279l-45 111
q-22 63 -46 63zM1567 0h-8h8z" />
    <glyph glyph-name="AE" unicode="&#xc6;" horiz-adv-x="2039" 
d="M1896 502l33 59l-125 -561h-1288q29 0 72 14q123 48 123 199v422h-349l-153 -275q-83 -159 -31 -260q51 -97 195 -100h-572q24 0 68 20q40 18 127 95q81 72 139 176q468 838 625 1143h1036l96 -519q-40 81 -133 185q-91 102 -178 155q-263 160 -410 160h-86v-661h7
q78 1 147.5 41.5t108.5 99.5q86 128 102 211l10 39v-799q-4 45 -43 133q-29 70 -63 117q-40 55 -112 94t-155 39h-2v-567q0 -66 36.5 -104t88.5 -40q61 3 191 56q132 54 231 125q86 64 158 151q62 77 106 152zM578 1032l-203 -370l336 2v364q0 152 -31 152q-10 1 -18 -4
t-17.5 -19t-16.5 -27.5t-22 -43.5t-28 -54zM381 0h-8h8z" />
    <glyph glyph-name="Ccedilla" unicode="&#xc7;" horiz-adv-x="1591" 
d="M1065 190q85 -2 157 19.5t117.5 56.5t72 65.5t38.5 57.5l10 25q-5 -43 -43 -125q-28 -66 -67 -117q-42 -56 -121.5 -109.5t-171.5 -76.5q-98 -25 -185 -25l-36 -49q90 -6 132 -54.5t31 -115.5q-9 -62 -52 -98.5t-97 -42.5t-108 9t-85 48q63 -31 144 -10t90 90
q6 56 -31.5 84t-101.5 33l78 106q-305 9 -506 219q-203 212 -209 492q-6 174 50 321t161 242q206 194 506 219q200 12 383 -39q109 -33 161 -69l17 -13l-4 -442q-112 229 -334 430q-182 155 -406 61q-121 -59 -168 -241q-45 -177 -10 -381q47 -260 205 -412
q166 -152 383 -158z" />
    <glyph glyph-name="Egrave" unicode="&#xc8;" horiz-adv-x="1564" 
d="M844 1581l-277 172q-41 27 -62 54t-22.5 49t5.5 38t20 27q18 24 45.5 26.5t61 -20.5t61.5 -69zM1171 178q98 76 178.5 156.5t108.5 124.5l23 39l-92 -498h-1379q50 0 129 39q52 24 84.5 81t32.5 134v942q0 79 -32 133.5t-85 73.5q-78 31 -129 31h1325l68 -476
q-71 133 -328 316q-189 137 -432 137h-12v-655h6q66 2 124.5 24t97.5 52.5t71 70t48.5 70.5t25.5 59l10 33v-672q-4 35 -45 115q-25 53 -68 100q-42 48 -113 82.5t-151 34.5h-6v-467q0 -234 190 -240q67 3 170 50q109 53 180 110z" />
    <glyph glyph-name="Eacute" unicode="&#xc9;" horiz-adv-x="1564" 
d="M1028 1901q12 -12 18 -28t5.5 -38t-22 -49.5t-62.5 -54.5l-277 -172l170 278q27 46 60.5 68.5t61.5 20t46 -24.5zM1171 178q98 76 178.5 156.5t108.5 124.5l23 39l-92 -498h-1379q50 0 129 39q52 24 84.5 81t32.5 134v942q0 79 -32 133.5t-85 73.5q-78 31 -129 31h1325
l68 -476q-71 133 -328 316q-189 137 -432 137h-12v-655h6q66 2 124.5 24t97.5 52.5t71 70t48.5 70.5t25.5 59l10 33v-672q-4 35 -45 115q-25 53 -68 100q-42 48 -113 82.5t-151 34.5h-6v-467q0 -234 190 -240q67 3 170 50q109 53 180 110z" />
    <glyph glyph-name="Ecircumflex" unicode="&#xca;" horiz-adv-x="1564" 
d="M774 1806l139 -282l-215 178l-243 -178l170 282h149zM1171 178q98 76 178.5 156.5t108.5 124.5l23 39l-92 -498h-1379q50 0 129 39q52 24 84.5 81t32.5 134v942q0 79 -32 133.5t-85 73.5q-78 31 -129 31h1325l68 -476q-71 133 -328 316q-189 137 -432 137h-12v-655h6
q66 2 124.5 24t97.5 52.5t71 70t48.5 70.5t25.5 59l10 33v-672q-4 35 -45 115q-25 53 -68 100q-42 48 -113 82.5t-151 34.5h-6v-467q0 -234 190 -240q67 3 170 50q109 53 180 110z" />
    <glyph glyph-name="Edieresis" unicode="&#xcb;" horiz-adv-x="1564" 
d="M465 1626q-58 0 -100.5 43.5t-42.5 104.5q0 55 42.5 94t100.5 39q61 0 102 -38.5t41 -94.5q0 -62 -41 -105t-102 -43zM950 1626q-58 0 -100.5 43.5t-42.5 104.5q0 55 42.5 94t100.5 39q61 0 102.5 -38.5t41.5 -94.5q0 -62 -41.5 -105t-102.5 -43zM1171 178
q98 76 178.5 156.5t108.5 124.5l23 39l-92 -498h-1379q50 0 129 39q52 24 84.5 81t32.5 134v942q0 79 -32 133.5t-85 73.5q-78 31 -129 31h1325l68 -476q-71 133 -328 316q-189 137 -432 137h-12v-655h6q66 2 124.5 24t97.5 52.5t71 70t48.5 70.5t25.5 59l10 33v-672
q-4 35 -45 115q-25 53 -68 100q-42 48 -113 82.5t-151 34.5h-6v-467q0 -234 190 -240q67 3 170 50q109 53 180 110z" />
    <glyph glyph-name="Igrave" unicode="&#xcc;" horiz-adv-x="962" 
d="M590 1581l-277 172q-41 26 -62.5 53.5t-23 49.5t5 38.5t19.5 26.5q18 24 45.5 26.5t61 -20.5t61.5 -69zM649 1161v-889q0 -73 24 -127.5t55.5 -81t71.5 -42t61 -18.5t36 -3h-864q15 0 36 3t60.5 18.5t70.5 42t55 81t24 127.5v889q0 71 -23.5 127.5t-56.5 83.5
q-24 24 -70 41q-50 21 -96 21h864q-46 0 -96 -21q-152 -53 -152 -252z" />
    <glyph glyph-name="Iacute" unicode="&#xcd;" horiz-adv-x="962" 
d="M713 1901q12 -12 18 -28t5 -38t-22.5 -49.5t-62.5 -54.5l-276 -172l170 278q27 46 60.5 68.5t61.5 20t46 -24.5zM649 1161v-889q0 -73 24 -127.5t55.5 -81t71.5 -42t61 -18.5t36 -3h-864q15 0 36 3t60.5 18.5t70.5 42t55 81t24 127.5v889q0 71 -23.5 127.5t-56.5 83.5
q-24 24 -70 41q-50 21 -96 21h864q-46 0 -96 -21q-152 -53 -152 -252z" />
    <glyph glyph-name="Icircumflex" unicode="&#xce;" horiz-adv-x="962" 
d="M567 1806l138 -282l-213 178l-246 -178l172 282h149zM649 1161v-889q0 -73 24 -127.5t55.5 -81t71.5 -42t61 -18.5t36 -3h-864q15 0 36 3t60.5 18.5t70.5 42t55 81t24 127.5v889q0 71 -23.5 127.5t-56.5 83.5q-24 24 -70 41q-50 21 -96 21h864q-46 0 -96 -21
q-152 -53 -152 -252z" />
    <glyph glyph-name="Idieresis" unicode="&#xcf;" horiz-adv-x="962" 
d="M256 1626q-58 0 -100.5 43.5t-42.5 104.5q0 55 42.5 94t100.5 39q61 0 102 -38.5t41 -94.5q0 -62 -41 -105t-102 -43zM741 1626q-58 0 -100.5 43.5t-42.5 104.5q0 55 42.5 94t100.5 39q61 0 102.5 -38.5t41.5 -94.5q0 -62 -41.5 -105t-102.5 -43zM649 1161v-889
q0 -73 24 -127.5t55.5 -81t71.5 -42t61 -18.5t36 -3h-864q15 0 36 3t60.5 18.5t70.5 42t55 81t24 127.5v889q0 71 -23.5 127.5t-56.5 83.5q-24 24 -70 41q-50 21 -96 21h864q-46 0 -96 -21q-152 -53 -152 -252z" />
    <glyph glyph-name="Eth" unicode="&#xd0;" horiz-adv-x="1718" 
d="M47 1434h807q247 9 436 -70q343 -141 346 -627q0 -179 -57 -322t-158 -231q-196 -172 -469 -184h-80h-825q46 0 105 16q165 52 165 232v473h-184l-24 18h208v449q0 64 -25 114.5t-63 75.5q-39 27 -77 37q-62 19 -105 19zM956 27q127 24 203 214t72 517q-1 313 -103 474
t-286 173q-12 2 -125 2v-668h157l-18 -18h-139v-447q0 -249 153 -249q80 0 86 2z" />
    <glyph glyph-name="Ntilde" unicode="&#xd1;" horiz-adv-x="1679" 
d="M731 1761q-123 0 -153 -162q1 133 58.5 204.5t154.5 60.5q59 -6 133 -68q76 -58 127 -61q54 -5 100.5 35t58.5 110q-2 -101 -52.5 -175.5t-133.5 -80.5q-46 -3 -91.5 17.5t-76 46.5t-65 49t-60.5 24zM1343 657v441q0 83 -28 151t-68 103q-34 31 -88 53q-63 25 -123 29
h650q-57 -3 -125 -29q-183 -62 -191 -307v-1170h-2l-950 1082q-43 43 -64.5 29.5t-21.5 -76.5v-598q0 -89 31.5 -163.5t78.5 -113.5q99 -74 172 -84l33 -4h-661q51 6 110 31q54 20 97 57q45 40 77.5 114.5t32.5 162.5v624q0 99 -22.5 179t-52.5 125.5t-68.5 78.5t-63 44.5
t-43.5 15.5l-10 2h530l703 -805q33 -36 47 -33q20 6 20 61z" />
    <glyph glyph-name="Ograve" unicode="&#xd2;" horiz-adv-x="1736" 
d="M874 1858l168 -277l-276 172q-41 27 -62 54t-22.5 49t5.5 38t20 27q18 24 45.5 26.5t60.5 -20.5t61 -69zM899 1452q173 0 311.5 -61t219.5 -168q158 -207 155 -506q-3 -282 -182 -504q-90 -108 -238 -170t-329 -61q-172 4 -312.5 72.5t-228.5 181.5q-170 230 -158 495
q3 322 215 522q214 202 547 199zM1141 784q-26 169 -88 326q-59 152 -152 242q-95 92 -199 65q-102 -30 -139 -223q-37 -188 10 -471q47 -284 160 -485q114 -203 256 -215q88 -8 135 83t50 263t-33 415z" />
    <glyph glyph-name="Oacute" unicode="&#xd3;" horiz-adv-x="1736" 
d="M791 1559l167 278q28 46 61.5 68.5t61 20t45.5 -24.5q13 -13 19.5 -28.5t6.5 -37.5t-21.5 -49t-63.5 -55zM899 1452q-333 3 -547 -199q-212 -200 -215 -522q-12 -265 158 -495q88 -113 228.5 -181.5t312.5 -72.5q181 -1 329 61t238 170q179 222 182 504q3 299 -155 506
q-81 107 -219.5 168t-311.5 61zM1141 784q36 -243 33 -415t-50 -263t-135 -83q-142 12 -256 215q-113 201 -160 485q-47 283 -10 471q37 193 139 223q104 27 199 -65q93 -90 152 -242q62 -157 88 -326z" />
    <glyph glyph-name="Ocircumflex" unicode="&#xd4;" horiz-adv-x="1736" 
d="M623 1524l170 282h149l139 -282l-215 178zM899 1452q-333 3 -547 -199q-212 -200 -215 -522q-12 -265 158 -495q88 -113 228.5 -181.5t312.5 -72.5q181 -1 329 61t238 170q179 222 182 504q3 299 -155 506q-81 107 -219.5 168t-311.5 61zM1141 784q36 -243 33 -415
t-50 -263t-135 -83q-142 12 -256 215q-113 201 -160 485q-47 283 -10 471q37 193 139 223q104 27 199 -65q93 -90 152 -242q62 -157 88 -326z" />
    <glyph glyph-name="Otilde" unicode="&#xd5;" horiz-adv-x="1736" 
d="M553 1599q1 133 58.5 204.5t154.5 60.5q59 -6 133 -68q76 -58 127 -61q54 -5 101.5 35t58.5 110q-2 -101 -53 -175.5t-134 -80.5q-46 -3 -91.5 17.5t-75.5 46.5t-64.5 49t-60.5 24q-124 0 -154 -162zM899 1452q-333 3 -547 -199q-212 -200 -215 -522q-12 -265 158 -495
q88 -113 228.5 -181.5t312.5 -72.5q181 -1 329 61t238 170q179 222 182 504q3 299 -155 506q-81 107 -219.5 168t-311.5 61zM1141 784q36 -243 33 -415t-50 -263t-135 -83q-142 12 -256 215q-113 201 -160 485q-47 283 -10 471q37 193 139 223q104 27 199 -65
q93 -90 152 -242q62 -157 88 -326z" />
    <glyph glyph-name="Odieresis" unicode="&#xd6;" horiz-adv-x="1736" 
d="M629 1626q-56 0 -99 43.5t-43 104.5q0 55 43 94t99 39q61 0 103 -38.5t42 -94.5q0 -62 -42 -105t-103 -43zM1114 1626q-56 0 -98.5 43.5t-42.5 104.5q0 55 42.5 94t98.5 39q61 0 103.5 -38.5t42.5 -94.5q0 -62 -42.5 -105t-103.5 -43zM899 1452q173 0 311.5 -61
t219.5 -168q158 -207 155 -506q-3 -282 -182 -504q-90 -108 -238 -170t-329 -61q-172 4 -312.5 72.5t-228.5 181.5q-170 230 -158 495q3 322 215 522q214 202 547 199zM1141 784q-26 169 -88 326q-59 152 -152 242q-95 92 -199 65q-102 -30 -139 -223q-37 -188 10 -471
q47 -284 160 -485q114 -203 256 -215q88 -8 135 83t50 263t-33 415z" />
    <glyph glyph-name="multiply" unicode="&#xd7;" horiz-adv-x="901" 
d="M473 721l303 -303l-26 -25l-301 303l-304 -303l-20 23l301 301l-295 295l27 24l295 -293l290 291l21 -22z" />
    <glyph glyph-name="Oslash" unicode="&#xd8;" horiz-adv-x="1789" 
d="M1468 1436l-96 -121q125 -98 188.5 -254t61.5 -344q-3 -280 -184 -504q-90 -108 -238.5 -170t-329.5 -61q-257 6 -438 153l-106 -135h-33l121 152q-121 108 -183.5 263t-56.5 316q3 322 215 522q214 202 547 199q246 0 418 -123l84 107h30zM608 723q20 -132 62 -250
l446 559q-66 198 -162 303q-97 109 -217 82q-99 -29 -137 -223t8 -471zM1024 23q89 -8 136.5 83t50.5 263t-33 415q-20 123 -52 222l-448 -562q65 -189 154.5 -301.5t191.5 -119.5z" />
    <glyph glyph-name="Ugrave" unicode="&#xd9;" horiz-adv-x="1593" 
d="M1047 1581l-277 172q-41 27 -62 54t-22.5 49t5.5 38t20 27q18 24 45.5 26.5t61 -20.5t61.5 -69zM1294 676v414q0 87 -23.5 154t-55 101.5t-71 56t-64.5 27t-42 5.5h523q-46 -4 -97 -35q-139 -82 -139 -332v-422q0 -86 -2 -115q0 -30 -10 -122q-9 -82 -27 -134
q-53 -156 -139 -221q-124 -92 -307 -92q-336 0 -478 154q-141 156 -141 508v522q0 77 -21 137t-53 88q-29 29 -67 43q-47 21 -92 21h874q-45 0 -76 -11q-12 -4 -26 -10q-142 -51 -142 -268v-588q0 -275 98 -397.5t285 -104.5q159 13 226 158.5t67 462.5z" />
    <glyph glyph-name="Uacute" unicode="&#xda;" horiz-adv-x="1593" 
d="M1260 1901q13 -13 19.5 -28.5t6 -37.5t-22 -49t-63.5 -55l-276 -172l168 278q28 46 61.5 68.5t61 20t45.5 -24.5zM1294 676v414q0 87 -23.5 154t-55 101.5t-71 56t-64.5 27t-42 5.5h523q-46 -4 -97 -35q-139 -82 -139 -332v-422q0 -86 -2 -115q0 -30 -10 -122
q-9 -82 -27 -134q-53 -156 -139 -221q-124 -92 -307 -92q-336 0 -478 154q-141 156 -141 508v522q0 77 -21 137t-53 88q-29 29 -67 43q-47 21 -92 21h874q-45 0 -76 -11q-12 -4 -26 -10q-142 -51 -142 -268v-588q0 -275 98 -397.5t285 -104.5q159 13 226 158.5t67 462.5z
" />
    <glyph glyph-name="Ucircumflex" unicode="&#xdb;" horiz-adv-x="1593" 
d="M1042 1806l138 -282l-213 178l-244 -178l170 282h149zM1294 676v414q0 87 -23.5 154t-55 101.5t-71 56t-64.5 27t-42 5.5h523q-46 -4 -97 -35q-139 -82 -139 -332v-422q0 -86 -2 -115q0 -30 -10 -122q-9 -82 -27 -134q-53 -156 -139 -221q-124 -92 -307 -92
q-336 0 -478 154q-141 156 -141 508v522q0 77 -21 137t-53 88q-29 29 -67 43q-47 21 -92 21h874q-45 0 -76 -11q-12 -4 -26 -10q-142 -51 -142 -268v-588q0 -275 98 -397.5t285 -104.5q159 13 226 158.5t67 462.5z" />
    <glyph glyph-name="Udieresis" unicode="&#xdc;" horiz-adv-x="1593" 
d="M721 1626q-58 0 -100.5 43.5t-42.5 104.5q0 55 42.5 94t100.5 39q61 0 102 -38.5t41 -94.5q0 -62 -41 -105t-102 -43zM1206 1626q-58 0 -100.5 43.5t-42.5 104.5q0 55 42.5 94t100.5 39q61 0 102.5 -38.5t41.5 -94.5q0 -62 -41.5 -105t-102.5 -43zM1294 676v414
q0 87 -23.5 154t-55 101.5t-71 56t-64.5 27t-42 5.5h523q-46 -4 -97 -35q-139 -82 -139 -332v-422q0 -86 -2 -115q0 -30 -10 -122q-9 -82 -27 -134q-53 -156 -139 -221q-124 -92 -307 -92q-336 0 -478 154q-141 156 -141 508v522q0 77 -21 137t-53 88q-29 29 -67 43
q-47 21 -92 21h874q-45 0 -76 -11q-12 -4 -26 -10q-142 -51 -142 -268v-588q0 -275 98 -397.5t285 -104.5q159 13 226 158.5t67 462.5z" />
    <glyph glyph-name="Yacute" unicode="&#xdd;" horiz-adv-x="1349" 
d="M825 1559l170 278q28 46 61.5 68.5t61 20t45.5 -24.5q12 -12 18.5 -28.5t5.5 -38.5t-22.5 -49.5t-62.5 -53.5zM1016 1434q120 -12 157.5 -84.5t-20.5 -175.5l-188 -343q-25 -44 -47 -64t-42 -17t-37 19.5t-36 49.5l-217 371q-52 91 -11 166q43 76 138 76l-801 2
q54 0 140 -65t161 -185l272 -434q62 -103 62 -271l-2 -237q0 -72 -26 -126.5t-66 -78.5q-70 -37 -115 -37h803q-56 4 -123 39q-44 26 -71 81t-27 130v299q0 160 36 225l220 393q125 223 317 267h-477z" />
    <glyph glyph-name="Thorn" unicode="&#xde;" horiz-adv-x="1290" 
d="M1190 961q53 -125 16 -263q-34 -137 -123 -202q-74 -56 -225 -74t-262 0q122 6 211 98q90 93 96 277q4 141 -40.5 233t-127.5 115q-36 4 -84 4q-37 2 -57 2v-952q0 -46 12.5 -82t34 -56.5t43 -34t47 -18.5t38.5 -6.5t24 -1.5h-775q34 0 105 25q42 18 67 63t25 111v1036
q0 67 -25 112.5t-67 59.5q-60 27 -105 27h775q-11 0 -24 -1.5t-38.5 -6.5t-47 -18.5t-43 -34t-34 -56.5t-12.5 -82v-61q117 6 145 6q135 0 256 -37q132 -40 195 -182z" />
    <glyph glyph-name="germandbls" unicode="&#xdf;" horiz-adv-x="1167" 
d="M1118 338q9 -159 -88 -250q-94 -88 -246 -88q-103 0 -182 70q-78 72 -78 172q0 52 34.5 81t82.5 29q33 0 49 -16q58 -37 58 -141q0 -172 63 -175q51 0 51 123q3 26 0 60q-2 43 -2 61q0 81 -8 119q-25 107 -113 166q-25 15 -44.5 28.5t-35 24t-26.5 22t-19 18.5t-13 18
t-7.5 15.5t-4 16t-1.5 15v17v17.5q-2 27 65 117q28 38 49.5 115t22.5 168q6 299 -111 299q-85 0 -106 -62q-21 -58 -21 -223v-983q0 -58 23 -98t61 -54q57 -20 95 -20h-658q38 0 90 20q38 14 61 54t23 98v926q0 103 40.5 178.5t113.5 114.5q132 70 330 67q167 -3 254 -119
q86 -114 71 -239q-8 -74 -33 -131t-59 -89.5t-72.5 -55.5t-76 -34.5t-68 -19.5t-48.5 -16.5t-18 -20.5q0 -8 6 -14t18.5 -10t25.5 -7.5t32.5 -5.5t34.5 -3.5t36.5 -3.5t33.5 -3q153 -21 231 -125t84 -223z" />
    <glyph glyph-name="agrave" unicode="&#xe0;" horiz-adv-x="1157" 
d="M618 1329l168 -278l-276 172q-41 27 -62 54t-22.5 49t5.5 38t20 27q25 37 74.5 21t92.5 -83zM682 131v416q-168 -52 -227 -105q-59 -50 -62 -147q0 -120 80 -158q106 -46 199 47l-15 -18q-53 -67 -75 -92q-37 -39 -103 -73t-131 -34q-130 0 -188 76t-58 170
q3 151 193 233q81 38 387 119v115q0 157 -42 224.5t-142 49.5q-24 -4 -36.5 -7.5t-27.5 -14t-22.5 -28t-14 -49t-8.5 -77.5q0 -25 19.5 -82.5t21.5 -68.5q1 -59 -42 -97t-103 -38q-62 0 -104 37.5t-38 113.5q3 99 72 174q122 127 295 152q45 9 96.5 9.5t108 -6.5t107 -28.5
t90 -53.5t61.5 -84t18 -118v-448q0 -131 74 -146q30 1 57 29t39 61l10 27q-43 -248 -262 -248q-98 0 -162.5 47t-64.5 121z" />
    <glyph glyph-name="aacute" unicode="&#xe1;" horiz-adv-x="1157" 
d="M520 1053l170 278q28 46 61.5 68.5t61 20t45.5 -24.5q12 -12 18.5 -28.5t5.5 -38.5t-22.5 -49.5t-62.5 -53.5zM682 131q0 -74 64.5 -121t162.5 -47q219 0 262 248l-10 -27q-12 -33 -39 -61t-57 -29q-74 15 -74 146v448q4 66 -18 118t-61.5 84t-90 53.5t-107 28.5
t-108 6.5t-96.5 -9.5q-173 -25 -295 -152q-69 -75 -72 -174q-4 -76 38 -113.5t104 -37.5q60 0 103 38t42 97q-2 11 -21.5 68.5t-19.5 82.5q2 46 8.5 77.5t14 49t22.5 28t27.5 14t36.5 7.5q100 18 142 -49.5t42 -224.5v-115q-306 -81 -387 -119q-190 -82 -193 -233
q0 -94 58 -170t188 -76q65 0 131 34t103 73q22 25 75 92l15 18q-93 -93 -199 -47q-80 38 -80 158q3 97 62 147q59 53 227 105v-416z" />
    <glyph glyph-name="acircumflex" unicode="&#xe2;" horiz-adv-x="1157" 
d="M414 1008l170 282h149l139 -284l-215 180zM682 131q0 -74 64.5 -121t162.5 -47q219 0 262 248l-10 -27q-12 -33 -39 -61t-57 -29q-74 15 -74 146v448q4 66 -18 118t-61.5 84t-90 53.5t-107 28.5t-108 6.5t-96.5 -9.5q-173 -25 -295 -152q-69 -75 -72 -174
q-4 -76 38 -113.5t104 -37.5q60 0 103 38t42 97q-2 11 -21.5 68.5t-19.5 82.5q2 46 8.5 77.5t14 49t22.5 28t27.5 14t36.5 7.5q100 18 142 -49.5t42 -224.5v-115q-306 -81 -387 -119q-190 -82 -193 -233q0 -94 58 -170t188 -76q65 0 131 34t103 73q22 25 75 92l15 18
q-93 -93 -199 -47q-80 38 -80 158q3 97 62 147q59 53 227 105v-416z" />
    <glyph glyph-name="atilde" unicode="&#xe3;" horiz-adv-x="1157" 
d="M330 1040q1 133 58.5 204.5t154.5 60.5q59 -6 133 -68q76 -58 127 -61q54 -5 101.5 35t58.5 110q-2 -101 -53 -175.5t-134 -80.5q-46 -3 -91.5 17.5t-76 46.5t-65 49t-60.5 24q-123 0 -153 -162zM682 131q0 -74 64.5 -121t162.5 -47q219 0 262 248l-10 -27
q-12 -33 -39 -61t-57 -29q-74 15 -74 146v448q4 66 -18 118t-61.5 84t-90 53.5t-107 28.5t-108 6.5t-96.5 -9.5q-173 -25 -295 -152q-69 -75 -72 -174q-4 -76 38 -113.5t104 -37.5q60 0 103 38t42 97q-2 11 -21.5 68.5t-19.5 82.5q2 46 8.5 77.5t14 49t22.5 28t27.5 14
t36.5 7.5q100 18 142 -49.5t42 -224.5v-115q-306 -81 -387 -119q-190 -82 -193 -233q0 -94 58 -170t188 -76q65 0 131 34t103 73q22 25 75 92l15 18q-93 -93 -199 -47q-80 38 -80 158q3 97 62 147q59 53 227 105v-416z" />
    <glyph glyph-name="adieresis" unicode="&#xe4;" horiz-adv-x="1157" 
d="M389 1110q-56 0 -98.5 43t-42.5 104q0 55 42.5 94.5t98.5 39.5q61 0 103.5 -39t42.5 -95q0 -62 -42.5 -104.5t-103.5 -42.5zM874 1110q-56 0 -98.5 43t-42.5 104q0 55 42.5 94.5t98.5 39.5q61 0 103.5 -39t42.5 -95q0 -62 -42.5 -104.5t-103.5 -42.5zM682 131v416
q-168 -52 -227 -105q-59 -50 -62 -147q0 -120 80 -158q106 -46 199 47l-15 -18q-53 -67 -75 -92q-37 -39 -103 -73t-131 -34q-130 0 -188 76t-58 170q3 151 193 233q81 38 387 119v115q0 157 -42 224.5t-142 49.5q-24 -4 -36.5 -7.5t-27.5 -14t-22.5 -28t-14 -49t-8.5 -77.5
q0 -25 19.5 -82.5t21.5 -68.5q1 -59 -42 -97t-103 -38q-62 0 -104 37.5t-38 113.5q3 99 72 174q122 127 295 152q45 9 96.5 9.5t108 -6.5t107 -28.5t90 -53.5t61.5 -84t18 -118v-448q0 -131 74 -146q30 1 57 29t39 61l10 27q-43 -248 -262 -248q-98 0 -162.5 47t-64.5 121z
" />
    <glyph glyph-name="aring" unicode="&#xe5;" horiz-adv-x="1157" 
d="M616 1294q55 0 88.5 -33.5t32.5 -89.5q-1 -38 -23 -67.5t-53 -42.5t-66.5 -8t-62.5 32q-27 25 -32.5 62.5t7.5 70t42.5 55t66.5 21.5zM618 1083q37 0 63 27t26 64q0 36 -26.5 63t-62.5 27q-35 0 -61.5 -27.5t-26.5 -62.5q0 -37 26.5 -64t61.5 -27zM682 131v416
q-168 -52 -227 -105q-59 -50 -62 -147q0 -120 80 -158q106 -46 199 47l-15 -18q-53 -67 -75 -92q-37 -39 -103 -73t-131 -34q-130 0 -188 76t-58 170q3 151 193 233q81 38 387 119v115q0 157 -42 224.5t-142 49.5q-24 -4 -36.5 -7.5t-27.5 -14t-22.5 -28t-14 -49t-8.5 -77.5
q0 -25 19.5 -82.5t21.5 -68.5q1 -59 -42 -97t-103 -38q-62 0 -104 37.5t-38 113.5q3 99 72 174q122 127 295 152q45 9 96.5 9.5t108 -6.5t107 -28.5t90 -53.5t61.5 -84t18 -118v-448q0 -131 74 -146q30 1 57 29t39 61l10 27q-43 -248 -262 -248q-98 0 -162.5 47t-64.5 121z
" />
    <glyph glyph-name="ae" unicode="&#xe6;" horiz-adv-x="1634" 
d="M1204 975q162 -17 256 -135t90 -305h-608q2 -157 67.5 -257t192.5 -118q109 -12 205.5 32t138.5 132q-38 -136 -129 -238q-90 -100 -237 -106q-99 -6 -224 36q-130 44 -221 154q-111 159 -96 391q-148 -56 -200 -115t-42 -161q5 -68 51 -118t113 -54q92 -17 172 43
l-67 -60q-53 -47 -80 -65q-30 -21 -88.5 -39.5t-118.5 -18.5q-153 0 -219 72q-63 75 -60 170q-5 139 129 227q45 27 99 45l116 37q62 18 146 37l49 12v115q0 153 -41 220t-119 59q-160 -18 -125 -191q1 -5 16.5 -52.5t16.5 -68.5q2 -58 -32 -95.5t-99 -41.5q-62 -5 -103 39
t-40 111q3 142 149 233q66 45 120 60.5t132 17.5q226 0 315 -115q2 2 21.5 16.5t51.5 35t56 30.5q98 44 246 29zM1278 627q51 45 72 139t-27 154q-35 39 -99.5 37t-125.5 -46q-72 -53 -113 -151t-43 -207q95 0 166 8q97 6 170 66z" />
    <glyph glyph-name="ccedilla" unicode="&#xe7;" 
d="M1026 358q-15 -157 -125 -276q-108 -117 -291 -129l-30 -41q90 -6 132 -54.5t31 -115.5q-9 -62 -52 -98.5t-97 -42.5t-108 9t-85 48q63 -31 144 -10t90 90q6 56 -31.5 84t-101.5 33l71 98q-209 3 -348 139q-136 133 -139 363q-1 90 24.5 171.5t71.5 141.5t109.5 107
t136.5 69.5t153 28t160 -16.5q118 -26 196 -103.5t85 -176.5q4 -79 -38 -125t-112 -41q-73 6 -107 63.5t-13 133.5q35 129 11 189t-112 62q-159 3 -243 -143q-84 -147 -50 -336q25 -137 114.5 -219.5t227.5 -83.5q249 -6 326 182z" />
    <glyph glyph-name="egrave" unicode="&#xe8;" 
d="M625 1329l170 -278l-277 172q-41 26 -62.5 53t-23 49t5 38.5t19.5 27.5q18 24 45.5 26t61 -21t61.5 -67zM727 168q115 1 194.5 50t106.5 130q-12 -165 -135 -276q-121 -112 -313 -103q-231 9 -357 150q-128 143 -131 346q-3 299 225 438q81 49 181 64q105 18 176 6
q150 -27 250 -139q97 -109 94 -293h-645q0 -170 97 -272.5t257 -100.5zM520 922q-83 -56 -117 -174q-33 -113 -30 -195q129 0 194 12q97 15 162 80q60 57 57 166t-73 143q-88 34 -193 -32z" />
    <glyph glyph-name="eacute" unicode="&#xe9;" 
d="M545 1053l170 278q28 46 61.5 68.5t61 20t45.5 -24.5q12 -12 18.5 -28.5t5.5 -38.5t-23 -49.5t-63 -53.5zM727 168q-160 -2 -257 100.5t-97 272.5h645q3 184 -94 293q-100 112 -250 139q-71 12 -176 -6q-100 -15 -181 -64q-228 -139 -225 -438q3 -203 131 -346
q126 -141 357 -150q192 -9 313 103q123 111 135 276q-27 -81 -106.5 -130t-194.5 -50zM520 922q105 66 193 32q70 -34 73 -143t-57 -166q-65 -65 -162 -80q-65 -12 -194 -12q-3 82 30 195q34 118 117 174z" />
    <glyph glyph-name="ecircumflex" unicode="&#xea;" 
d="M379 1008l170 282h149l138 -284l-213 180zM727 168q-160 -2 -257 100.5t-97 272.5h645q3 184 -94 293q-100 112 -250 139q-71 12 -176 -6q-100 -15 -181 -64q-228 -139 -225 -438q3 -203 131 -346q126 -141 357 -150q192 -9 313 103q123 111 135 276q-27 -81 -106.5 -130
t-194.5 -50zM520 922q105 66 193 32q70 -34 73 -143t-57 -166q-65 -65 -162 -80q-65 -12 -194 -12q-3 82 30 195q34 118 117 174z" />
    <glyph glyph-name="edieresis" unicode="&#xeb;" 
d="M362 1110q-56 0 -98.5 43t-42.5 104q0 55 42.5 94.5t98.5 39.5q61 0 103.5 -39t42.5 -95q0 -62 -42.5 -104.5t-103.5 -42.5zM848 1110q-56 0 -98.5 43t-42.5 104q0 55 42.5 94.5t98.5 39.5q61 0 103 -39t42 -95q0 -62 -42 -104.5t-103 -42.5zM727 168q115 1 194.5 50
t106.5 130q-12 -165 -135 -276q-121 -112 -313 -103q-231 9 -357 150q-128 143 -131 346q-3 299 225 438q81 49 181 64q105 18 176 6q150 -27 250 -139q97 -109 94 -293h-645q0 -170 97 -272.5t257 -100.5zM520 922q-83 -56 -117 -174q-33 -113 -30 -195q129 0 194 12
q97 15 162 80q60 57 57 166t-73 143q-88 34 -193 -32z" />
    <glyph glyph-name="igrave" unicode="&#xec;" horiz-adv-x="962" 
d="M645 1051l-276 172q-41 26 -62.5 53.5t-23.5 49.5t4.5 38.5t19.5 26.5q18 24 45.5 26t61 -21t61.5 -67zM645 975v-754q0 -58 16.5 -105t38.5 -69q53 -47 121 -47h-682q38 0 76 14q125 42 125 207v438q0 38 -15 61t-36.5 28.5t-42 4t-35.5 -9.5z" />
    <glyph glyph-name="iacute" unicode="&#xed;" horiz-adv-x="962" 
d="M666 1395q12 -12 18 -28t5 -38t-22.5 -49.5t-62.5 -54.5l-276 -172l170 278q27 46 60.5 68.5t61.5 20t46 -24.5zM645 975v-754q0 -58 16.5 -105t38.5 -69q53 -47 121 -47h-682q38 0 76 14q125 42 125 207v438q0 38 -15 61t-36.5 28.5t-42 4t-35.5 -9.5z" />
    <glyph glyph-name="icircumflex" unicode="&#xee;" horiz-adv-x="962" 
d="M604 1290l139 -284l-215 180l-243 -178l170 282h149zM645 975v-754q0 -58 16.5 -105t38.5 -69q53 -47 121 -47h-682q38 0 76 14q125 42 125 207v438q0 38 -15 61t-36.5 28.5t-42 4t-35.5 -9.5z" />
    <glyph glyph-name="idieresis" unicode="&#xef;" horiz-adv-x="962" 
d="M274 1110q-57 0 -99 43t-42 104q0 55 42 94.5t99 39.5q61 0 102.5 -39t41.5 -95q0 -62 -41.5 -104.5t-102.5 -42.5zM760 1391q61 0 103 -39t42 -95q0 -62 -42 -104.5t-103 -42.5q-58 0 -100 43t-42 104q0 55 42.5 94.5t99.5 39.5zM645 975v-754q0 -58 16.5 -105t38.5 -69
q53 -47 121 -47h-682q38 0 76 14q125 42 125 207v438q0 38 -15 61t-36.5 28.5t-42 4t-35.5 -9.5z" />
    <glyph glyph-name="eth" unicode="&#xf0;" horiz-adv-x="1191" 
d="M1087 578q12 -252 -124 -422q-136 -171 -336 -183q-131 -9 -279 66q-78 40 -137.5 124t-83.5 197q-49 228 47 394q98 164 295 211q105 25 254 4l6 2q-38 141 -49 176l-145 -82l-31 4l170 96q-66 169 -225 301q183 -83 333 -239l136 76l-7 -25l-116 -66q271 -290 292 -634
zM717 6q71 24 74 219q3 199 -39 369q-47 200 -117 299q-71 102 -148 43q-47 -30 -59 -139q-21 -183 31 -408q44 -204 112 -305t146 -78z" />
    <glyph glyph-name="ntilde" unicode="&#xf1;" horiz-adv-x="1345" 
d="M535 1202q-124 0 -154 -162q1 133 58.5 204.5t154.5 60.5q59 -6 133 -68q76 -58 127 -61q54 -5 101.5 35t58.5 110q-2 -101 -53 -175.5t-134 -80.5q-46 -3 -91.5 17.5t-75.5 46.5t-64.5 49t-60.5 24zM1147 545v-324q0 -58 16.5 -105t38.5 -69q53 -47 121 -47h-1274
q10 -1 25.5 0.5t42.5 13t49.5 33t39 67t17.5 107.5v436q0 127 -114 93l419 229v-758q0 -62 17.5 -108t45 -68t50.5 -31.5t45 -11.5q23 2 46 11.5t49.5 32t43.5 68t17 107.5v141v39q0 269 -19 328q-9 23 -12 27q-38 53 -125 47q-86 -6 -141 -76q59 92 166 168q113 78 250 66
q67 -5 102 -38.5t61 -93.5q14 -32 17 -81q4 -70 4 -86q2 -20 2 -95v-22z" />
    <glyph glyph-name="ograve" unicode="&#xf2;" horiz-adv-x="1183" 
d="M641 1329l170 -278l-276 172q-41 26 -62.5 53t-23.5 49t4.5 38.5t19.5 27.5q18 24 46 26t61.5 -21t60.5 -67zM629 -25q-146 -9 -295 60q-81 40 -142 124.5t-86 202.5q-43 210 60 381q105 172 309 224q242 52 416 -64q175 -114 199 -377q18 -234 -113 -383
q-135 -153 -348 -168zM750 588q-37 187 -111 301q-71 115 -158 49q-53 -41 -59 -219q-6 -180 33 -350q14 -63 32 -118t37 -94t40.5 -71t41.5 -49.5t39.5 -29.5t35 -10.5t28.5 7.5q52 27 67 133q30 185 -26 451z" />
    <glyph glyph-name="oacute" unicode="&#xf3;" horiz-adv-x="1183" 
d="M535 1053l167 278q28 46 61.5 68.5t61 20t45.5 -24.5q13 -13 19.5 -28.5t6.5 -37.5t-21.5 -49t-63.5 -55zM629 -25q213 15 348 168q131 149 113 383q-24 263 -199 377q-174 116 -416 64q-204 -52 -309 -224q-103 -171 -60 -381q25 -118 86 -202.5t142 -124.5
q149 -69 295 -60zM750 588q56 -266 26 -451q-15 -106 -67 -133q-13 -6 -28.5 -7.5t-35 10.5t-39.5 29.5t-41.5 49.5t-40.5 71t-37 94t-32 118q-39 170 -33 350q6 178 59 219q87 66 158 -49q74 -114 111 -301z" />
    <glyph glyph-name="ocircumflex" unicode="&#xf4;" horiz-adv-x="1183" 
d="M391 1008l170 282h150l139 -284l-215 180zM629 -25q213 15 348 168q131 149 113 383q-24 263 -199 377q-174 116 -416 64q-204 -52 -309 -224q-103 -171 -60 -381q25 -118 86 -202.5t142 -124.5q149 -69 295 -60zM750 588q56 -266 26 -451q-15 -106 -67 -133
q-13 -6 -28.5 -7.5t-35 10.5t-39.5 29.5t-41.5 49.5t-40.5 71t-37 94t-32 118q-39 170 -33 350q6 178 59 219q87 66 158 -49q74 -114 111 -301z" />
    <glyph glyph-name="otilde" unicode="&#xf5;" horiz-adv-x="1183" 
d="M305 1040q1 133 58.5 204.5t154.5 60.5q59 -6 133 -68q76 -58 127 -61q54 -5 101.5 35t58.5 110q-2 -101 -52.5 -175.5t-133.5 -80.5q-46 -3 -91.5 17.5t-76 46.5t-65 49t-60.5 24q-124 0 -154 -162zM629 -25q213 15 348 168q131 149 113 383q-24 263 -199 377
q-174 116 -416 64q-204 -52 -309 -224q-103 -171 -60 -381q25 -118 86 -202.5t142 -124.5q149 -69 295 -60zM750 588q56 -266 26 -451q-15 -106 -67 -133q-13 -6 -28.5 -7.5t-35 10.5t-39.5 29.5t-41.5 49.5t-40.5 71t-37 94t-32 118q-39 170 -33 350q6 178 59 219
q87 66 158 -49q74 -114 111 -301z" />
    <glyph glyph-name="odieresis" unicode="&#xf6;" horiz-adv-x="1183" 
d="M395 1110q-57 0 -99 43t-42 104q0 55 42 94.5t99 39.5q61 0 103.5 -39t42.5 -95q0 -62 -42.5 -104.5t-103.5 -42.5zM881 1110q-58 0 -100 43t-42 104q0 55 42.5 94.5t99.5 39.5q61 0 103 -39t42 -95q0 -62 -42 -104.5t-103 -42.5zM629 -25q-146 -9 -295 60
q-81 40 -142 124.5t-86 202.5q-43 210 60 381q105 172 309 224q242 52 416 -64q175 -114 199 -377q18 -234 -113 -383q-135 -153 -348 -168zM750 588q-37 187 -111 301q-71 115 -158 49q-53 -41 -59 -219q-6 -180 33 -350q14 -63 32 -118t37 -94t40.5 -71t41.5 -49.5
t39.5 -29.5t35 -10.5t28.5 7.5q52 27 67 133q30 185 -26 451z" />
    <glyph glyph-name="divide" unicode="&#xf7;" horiz-adv-x="1085" 
d="M559 657q-47 0 -82 35t-35 82q0 44 35 77.5t82 33.5q43 0 77 -33.5t34 -77.5q0 -47 -34 -82t-77 -35zM125 532v19h836v-19h-836zM559 190q-47 0 -82 34t-35 81q0 43 35 77t82 34q43 0 77 -34t34 -77q0 -44 -34 -79.5t-77 -35.5z" />
    <glyph glyph-name="oslash" unicode="&#xf8;" horiz-adv-x="1288" 
d="M1126 526q18 -233 -114 -383q-135 -153 -348 -168q-226 -12 -369 113l-80 -88h-27l93 102q-103 96 -138 260q-43 210 60 381q105 172 309 224q281 61 459 -97l49 54h24l-59 -66q123 -123 141 -332zM492 369l6 -27l274 305q-40 169 -108 258q-70 91 -146 33
q-52 -40 -61 -219q-6 -173 35 -350zM745 4q53 27 68 133q27 168 -29 451q-1 10 -8 37l-274 -306q16 -66 37.5 -120.5t43 -89t45.5 -60.5t45 -35.5t40 -14t32 4.5z" />
    <glyph glyph-name="ugrave" unicode="&#xf9;" horiz-adv-x="1224" 
d="M829 1051l-276 172q-41 27 -62 54t-22.5 49t5.5 38t20 27q18 24 45.5 26t61 -21t61.5 -67zM502 186q38 -53 131 -47t153 78q-63 -95 -176 -170q-121 -77 -258 -65q-50 4 -88 29t-59 59q-20 34 -29 90q-5 33 -10 98v113v28v299q0 59 -16.5 106t-40.5 68q-54 48 -121 48
h483v-222v-116v-138v-106q2 -14 5 -48t4.5 -45.5t7 -29t14.5 -29.5zM793 98v625q-1 55 -18 95t-39 59.5t-49.5 30t-43.5 12t-25 0.5h480v-670q0 -58 39 -72q39 -15 59 -6l-403 -217v143z" />
    <glyph glyph-name="uacute" unicode="&#xfa;" horiz-adv-x="1224" 
d="M872 1395q13 -13 19.5 -28.5t6.5 -37.5t-21.5 -49t-63.5 -55l-276 -172l168 278q28 46 61 68.5t60.5 20t45.5 -24.5zM502 186q38 -53 131 -47t153 78q-63 -95 -176 -170q-121 -77 -258 -65q-50 4 -88 29t-59 59q-20 34 -29 90q-5 33 -10 98v113v28v299q0 59 -16.5 106
t-40.5 68q-54 48 -121 48h483v-222v-116v-138v-106q2 -14 5 -48t4.5 -45.5t7 -29t14.5 -29.5zM793 98v625q-1 55 -18 95t-39 59.5t-49.5 30t-43.5 12t-25 0.5h480v-670q0 -58 39 -72q39 -15 59 -6l-403 -217v143z" />
    <glyph glyph-name="ucircumflex" unicode="&#xfb;" horiz-adv-x="1224" 
d="M715 1290l139 -284l-213 180l-246 -178l172 282h148zM502 186q38 -53 131 -47t153 78q-63 -95 -176 -170q-121 -77 -258 -65q-50 4 -88 29t-59 59q-20 34 -29 90q-5 33 -10 98v113v28v299q0 59 -16.5 106t-40.5 68q-54 48 -121 48h483v-222v-116v-138v-106q2 -14 5 -48
t4.5 -45.5t7 -29t14.5 -29.5zM793 98v625q-1 55 -18 95t-39 59.5t-49.5 30t-43.5 12t-25 0.5h480v-670q0 -58 39 -72q39 -15 59 -6l-403 -217v143z" />
    <glyph glyph-name="udieresis" unicode="&#xfc;" horiz-adv-x="1224" 
d="M426 1110q-58 0 -100.5 43t-42.5 104q0 55 42.5 94.5t100.5 39.5q61 0 102 -39t41 -95q0 -62 -41 -104.5t-102 -42.5zM911 1110q-58 0 -100.5 43t-42.5 104q0 55 42.5 94.5t100.5 39.5q61 0 102.5 -39t41.5 -95q0 -62 -41.5 -104.5t-102.5 -42.5zM502 186q38 -53 131 -47
t153 78q-63 -95 -176 -170q-121 -77 -258 -65q-50 4 -88 29t-59 59q-20 34 -29 90q-5 33 -10 98v113v28v299q0 59 -16.5 106t-40.5 68q-54 48 -121 48h483v-222v-116v-138v-106q2 -14 5 -48t4.5 -45.5t7 -29t14.5 -29.5zM793 98v625q-1 55 -18 95t-39 59.5t-49.5 30
t-43.5 12t-25 0.5h480v-670q0 -58 39 -72q39 -15 59 -6l-403 -217v143z" />
    <glyph glyph-name="yacute" unicode="&#xfd;" horiz-adv-x="954" 
d="M897 1395q12 -12 18.5 -28.5t5.5 -38.5t-22.5 -49.5t-62.5 -53.5l-277 -172l170 278q28 46 61.5 68.5t61 20t45.5 -24.5zM649 922h445q-120 -24 -193 -103q-48 -45 -74 -110l-329 -793l-68 -162q-53 -127 -111 -157q-52 -32 -135 -23q-51 7 -78.5 55.5t-13.5 102.5
q8 39 39.5 63t77.5 23q30 -3 65 -41q34 -40 43 -43q78 -27 121 86l43 110l-375 813q-33 73 -86 120.5t-94 54.5l-37 4h662q-4 0 -11 -1t-26 -6t-35 -12.5t-33 -22t-25 -33t-6 -48t19 -64.5l164 -346q15 -35 39 -35q19 0 29 13l10 22l133 309l8 21q27 88 -31 143
q-57 57 -137 60z" />
    <glyph glyph-name="thorn" unicode="&#xfe;" horiz-adv-x="1193" 
d="M1116 483q3 -201 -125 -356q-127 -154 -291 -154q-118 0 -247 60v-307q0 -59 26 -99.5t70 -52.5q73 -23 104 -23h-704q32 0 102 23q44 12 70 52.5t26 99.5v1400q-1 38 -15 64t-34 36.5t-41.5 14.5t-38 1t-22.5 -9l457 252v-228v-843q0 -216 79 -332q83 -115 195 -88
q89 22 104 174q6 38 3 90q-2 73 -13 154l-6 45q-30 317 -168 372q-48 22 -90 13q-63 -16 -88 -45q88 180 262 180q167 3 275 -135q107 -134 110 -359zM469 795v2v-2z" />
    <glyph glyph-name="ydieresis" unicode="&#xff;" horiz-adv-x="954" 
d="M330 1110q-58 0 -101 43t-43 104q0 55 43 94.5t101 39.5q61 0 102 -39t41 -95q0 -62 -41 -104.5t-102 -42.5zM815 1110q-58 0 -100.5 43t-42.5 104q0 55 42.5 94.5t100.5 39.5q61 0 102 -39t41 -95q0 -62 -41 -104.5t-102 -42.5zM649 922h445q-120 -24 -193 -103
q-48 -45 -74 -110l-329 -793l-68 -162q-53 -127 -111 -157q-52 -32 -135 -23q-51 7 -78.5 55.5t-13.5 102.5q8 39 39.5 63t77.5 23q30 -3 65 -41q34 -40 43 -43q78 -27 121 86l43 110l-375 813q-33 73 -86 120.5t-94 54.5l-37 4h662q-4 0 -11 -1t-26 -6t-35 -12.5t-33 -22
t-25 -33t-6 -48t19 -64.5l164 -346q15 -35 39 -35q19 0 29 13l10 22l133 309l8 21q27 88 -31 143q-57 57 -137 60z" />
    <glyph glyph-name="Amacron" unicode="&#x100;" horiz-adv-x="1372" 
d="M477 1638l404 2v-24h-404v22zM664 1552l616 -1372q34 -75 98 -121q41 -27 77.5 -40.5t56 -16t47.5 -2.5h-900q5 1 14 3t33.5 10.5t45 19.5t43 31.5t34 45t11 62t-18.5 80.5l-116 289l-457 2l-115 -269q-41 -101 4 -182q47 -83 160 -92h-502q78 5 157.5 70.5t125.5 171.5
l579 1329zM489 1024q-40 0 -131 -223l-98 -230h432l-112 279l-45 111q-22 63 -46 63zM1567 0h-8h8z" />
    <glyph glyph-name="amacron" unicode="&#x101;" horiz-adv-x="1157" 
d="M453 1106v22l403 2v-24h-403zM682 131v416q-168 -52 -227 -105q-59 -50 -62 -147q0 -120 80 -158q106 -46 199 47l-15 -18q-53 -67 -75 -92q-37 -39 -103 -73t-131 -34q-130 0 -188 76t-58 170q3 151 193 233q81 38 387 119v115q0 157 -42 224.5t-142 49.5
q-24 -4 -36.5 -7.5t-27.5 -14t-22.5 -28t-14 -49t-8.5 -77.5q0 -25 19.5 -82.5t21.5 -68.5q1 -59 -42 -97t-103 -38q-62 0 -104 37.5t-38 113.5q3 99 72 174q122 127 295 152q45 9 96.5 9.5t108 -6.5t107 -28.5t90 -53.5t61.5 -84t18 -118v-448q0 -131 74 -146q30 1 57 29
t39 61l10 27q-43 -248 -262 -248q-98 0 -162.5 47t-64.5 121z" />
    <glyph glyph-name="Abreve" unicode="&#x102;" horiz-adv-x="1372" 
d="M682 1618q-94 0 -150.5 66t-58.5 163q12 -59 69.5 -92t135.5 -33q177 0 201 123q-3 -86 -56 -157q-52 -70 -141 -70zM664 1552l616 -1372q34 -75 98 -121q41 -27 77.5 -40.5t56 -16t47.5 -2.5h-900q5 1 14 3t33.5 10.5t45 19.5t43 31.5t34 45t11 62t-18.5 80.5l-116 289
l-457 2l-115 -269q-41 -101 4 -182q47 -83 160 -92h-502q78 5 157.5 70.5t125.5 171.5l579 1329zM489 1024q-40 0 -131 -223l-98 -230h432l-112 279l-45 111q-22 63 -46 63zM1567 0h-8h8z" />
    <glyph glyph-name="abreve" unicode="&#x103;" horiz-adv-x="1157" 
d="M627 1182q176 0 200 121q-2 -92 -55 -159t-141 -67q-94 0 -150.5 66t-58.5 162q12 -59 69 -91t136 -32zM682 131q0 -74 64.5 -121t162.5 -47q219 0 262 248l-10 -27q-12 -33 -39 -61t-57 -29q-74 15 -74 146v448q4 66 -18 118t-61.5 84t-90 53.5t-107 28.5t-108 6.5
t-96.5 -9.5q-173 -25 -295 -152q-69 -75 -72 -174q-4 -76 38 -113.5t104 -37.5q60 0 103 38t42 97q-2 11 -21.5 68.5t-19.5 82.5q2 46 8.5 77.5t14 49t22.5 28t27.5 14t36.5 7.5q100 18 142 -49.5t42 -224.5v-115q-306 -81 -387 -119q-190 -82 -193 -233q0 -94 58 -170
t188 -76q65 0 131 34t103 73q22 25 75 92l15 18q-93 -93 -199 -47q-80 38 -80 158q3 97 62 147q59 53 227 105v-416z" />
    <glyph glyph-name="Aogonek" unicode="&#x104;" horiz-adv-x="1372" 
d="M1559 0h-349q-110 -91 -80 -209q21 -80 97 -108q73 -30 125 4q-31 -36 -92.5 -51.5t-125 -8.5t-117.5 46.5t-69 105.5q-19 46 -1.5 113.5t63.5 107.5h-351q5 1 14 3t33.5 10.5t45 19.5t43 31.5t34 45t11 62t-18.5 80.5l-116 289l-457 2l-115 -269q-41 -101 4 -182
q47 -83 160 -92h-502q78 5 157.5 70.5t125.5 171.5l579 1329l7 -19l616 -1372q34 -75 98 -121q41 -27 77.5 -40.5t56 -16t47.5 -2.5zM489 1024q-40 0 -131 -223l-98 -230h432l-112 279l-45 111q-22 63 -46 63zM1567 0h-8h8z" />
    <glyph glyph-name="aogonek" unicode="&#x105;" horiz-adv-x="1157" 
d="M1065 94q30 1 57 29t39 61l10 27q-43 -248 -262 -248q-98 0 -162.5 47t-64.5 121v416q-168 -52 -227 -105q-59 -50 -62 -147q0 -120 80 -158q106 -46 199 47l-25 -32q-14 -16 -28 -34t-31 -36q-51 -57 -117 -88q-86 -95 -59 -211q22 -82 96 -109q76 -28 125 4
q-31 -36 -92 -52t-123.5 -8t-116.5 48.5t-70 106.5q-34 113 43 202q-87 19 -129.5 85.5t-42.5 152.5q3 151 193 233q81 38 387 119v115q0 157 -42 224.5t-142 49.5q-24 -4 -36.5 -7.5t-27.5 -14t-22.5 -28t-14 -49t-8.5 -77.5q0 -25 19.5 -82.5t21.5 -68.5q1 -59 -42 -97
t-103 -38q-62 0 -104 37.5t-38 113.5q3 99 72 174q122 127 295 152q45 9 96.5 9.5t108 -6.5t107 -28.5t90 -53.5t61.5 -84t18 -118v-448q0 -131 74 -146z" />
    <glyph glyph-name="Cacute" unicode="&#x106;" horiz-adv-x="1591" 
d="M766 1559l170 278q28 46 61.5 68.5t61 20t45.5 -24.5q12 -12 18 -28t5 -38t-22.5 -49.5t-62.5 -54.5zM477 760q-35 204 10 381q47 182 168 241q224 94 406 -61q222 -201 334 -430l4 442l-17 13q-52 36 -161 69q-183 51 -383 39q-300 -25 -506 -219q-105 -95 -161 -242
t-50 -321q4 -158 76.5 -303.5t197.5 -247t294.5 -143t367.5 7.5q92 23 171.5 76.5t121.5 109.5q39 51 67 117q38 82 43 125l-10 -25q-12 -27 -38.5 -57.5t-72 -65.5t-117.5 -56.5t-157 -19.5q-217 6 -383 158q-158 152 -205 412z" />
    <glyph glyph-name="cacute" unicode="&#x107;" 
d="M575 1053l170 278q27 46 60.5 68.5t61.5 20t46 -24.5q12 -12 18 -28t5.5 -38t-22 -49.5t-62.5 -54.5zM358 479q-34 189 50 336q84 146 243 143q88 -2 112 -62t-11 -189q-21 -76 13 -133.5t107 -63.5q70 -5 112 41t38 125q-7 99 -85 176.5t-196 103.5q-80 22 -160 16.5
t-153 -28t-136.5 -69.5t-109.5 -107t-71.5 -141.5t-24.5 -171.5q3 -230 141 -365q137 -134 348 -137q196 -3 318 119q118 118 133 286q-77 -188 -326 -182q-138 1 -227.5 83.5t-114.5 219.5z" />
    <glyph glyph-name="Cdotaccent" unicode="&#x10a;" horiz-adv-x="1591" 
d="M965 1681q-38 -41 -94 -41t-97 41q-41 42 -41 98t39 95q41 41 99 41t96 -41q39 -39 39 -95t-41 -98zM477 760q47 -260 205 -412q166 -152 383 -158q85 -2 157 19.5t117.5 56.5t72 65.5t38.5 57.5l10 25q-5 -43 -43 -125q-28 -66 -67 -117q-42 -56 -121.5 -109.5
t-171.5 -76.5q-198 -49 -367.5 -7.5t-294.5 143t-197.5 247t-76.5 303.5q-6 174 50 321t161 242q206 194 506 219q200 12 383 -39q109 -33 161 -69l17 -13l-4 -442q-112 229 -334 430q-182 155 -406 61q-121 -59 -168 -241q-45 -177 -10 -381z" />
    <glyph glyph-name="cdotaccent" unicode="&#x10b;" 
d="M647 1092q-61 0 -105 43.5t-44 103.5t44 103.5t105 43.5q60 0 103 -43.5t43 -103.5t-43 -103.5t-103 -43.5zM358 479q25 -137 114.5 -219.5t227.5 -83.5q249 -6 326 182q-15 -168 -133 -286q-122 -122 -318 -119q-211 3 -348 137q-138 135 -141 365q-1 90 24.5 171.5
t71.5 141.5t109.5 107t136.5 69.5t153 28t160 -16.5q118 -26 196 -103.5t85 -176.5q4 -79 -38 -125t-112 -41q-73 6 -107 63.5t-13 133.5q35 129 11 189t-112 62q-159 3 -243 -143q-84 -147 -50 -336z" />
    <glyph glyph-name="Ccaron" unicode="&#x10c;" horiz-adv-x="1591" 
d="M645 1823l244 -178l213 180l-137 -285h-150zM477 760q-35 204 10 381q47 182 168 241q224 94 406 -61q222 -201 334 -430l4 442l-17 13q-52 36 -161 69q-183 51 -383 39q-300 -25 -506 -219q-105 -95 -161 -242t-50 -321q4 -158 76.5 -303.5t197.5 -247t294.5 -143
t367.5 7.5q92 23 171.5 76.5t121.5 109.5q39 51 67 117q38 82 43 125l-10 -25q-12 -27 -38.5 -57.5t-72 -65.5t-117.5 -56.5t-157 -19.5q-217 6 -383 158q-158 152 -205 412z" />
    <glyph glyph-name="ccaron" unicode="&#x10d;" 
d="M444 1335l244 -178l215 178l-139 -282h-150zM358 479q-34 189 50 336q84 146 243 143q88 -2 112 -62t-11 -189q-21 -76 13 -133.5t107 -63.5q70 -5 112 41t38 125q-7 99 -85 176.5t-196 103.5q-80 22 -160 16.5t-153 -28t-136.5 -69.5t-109.5 -107t-71.5 -141.5
t-24.5 -171.5q3 -230 141 -365q137 -134 348 -137q196 -3 318 119q118 118 133 286q-77 -188 -326 -182q-138 1 -227.5 83.5t-114.5 219.5z" />
    <glyph glyph-name="Dcaron" unicode="&#x10e;" horiz-adv-x="1689" 
d="M915 1825l-139 -285h-149l-170 283l243 -178zM-29 1434h807q247 9 434 -70q349 -148 349 -627q0 -179 -57 -322t-158 -231q-196 -172 -469 -184h-82h-824q46 0 105 16q166 52 166 232v940q0 64 -25 114.5t-63 75.5q-39 27 -78 37q-62 19 -105 19zM881 27q126 24 202 214
t72 517q-1 313 -103 474t-286 173q-14 2 -127 2v-1133q0 -249 154 -249q82 0 88 2z" />
    <glyph glyph-name="dcaron" unicode="&#x10f;" horiz-adv-x="1189" 
d="M272 1331q-61 -6 -107 31.5t-52 99.5q-7 63 30 109.5t99 52.5q54 4 96 -21.5t59 -72.5q28 -89 25 -195q-3 -104 -62 -225q-59 -118 -153 -182q78 69 121 194q42 122 20 236q-35 -24 -76 -27zM1042 1483v-1182q0 -50 22.5 -78.5t53.5 -32.5t53 -2.5t33 5.5l-463 -254v479
q0 132 -16 254q-14 113 -66 205q-48 91 -120 94q-70 3 -111 -80q-23 -53 -30 -129t-3.5 -137t13.5 -148q59 -348 192 -391q33 -10 57 -7.5t41.5 15.5t26 23.5t10.5 17.5q13 3 -8.5 -40.5t-80.5 -86.5t-140 -43q-179 -6 -301 125q-121 133 -127 348q-9 253 119 396
q127 142 313 145q65 1 134 -13t97 -32v178q0 81 -45.5 112.5t-99.5 6.5zM1206 193h-2h2z" />
    <glyph glyph-name="Dcroat" unicode="&#x110;" horiz-adv-x="1761" 
d="M6 1434h807q247 9 436 -70q343 -141 346 -627q0 -179 -57 -322t-158 -231q-196 -172 -469 -184h-80h-825q46 0 105 16q165 52 165 232v473h-165l-25 18h190v449q0 64 -25 114.5t-63 75.5q-39 27 -77 37q-62 19 -105 19zM915 27q127 24 204 214.5t73 516.5
q-1 312 -104 473.5t-287 173.5q-12 2 -125 2v-668h174l-19 -18h-155v-447q0 -249 153 -249q80 0 86 2z" />
    <glyph glyph-name="dslash" unicode="&#x111;" horiz-adv-x="1341" 
d="M1079 1081v-780q0 -50 22.5 -78.5t53.5 -32.5t53 -2.5t33 5.5l-463 -254v479q0 213 -43 364q-49 180 -162 189q-67 3 -108 -80q-55 -128 -23 -414q59 -348 195 -391q33 -9 55.5 -7.5t41 16.5t26 24.5t10.5 15.5q15 3 -6 -40.5t-80.5 -86.5t-140.5 -43q-179 -6 -301 125
q-120 132 -129 348q-9 251 118 393q130 145 314 148q66 1 135.5 -13t97.5 -32v147h-69v23h69v8q0 82 -46 113t-101 6l448 252v-377h129v-25h-129zM1243 193h-2h2z" />
    <glyph glyph-name="Emacron" unicode="&#x112;" horiz-adv-x="1564" 
d="M563 1638l404 2v-24h-404v22zM1171 178q98 76 178.5 156.5t108.5 124.5l23 39l-92 -498h-1379q50 0 129 39q52 24 84.5 81t32.5 134v942q0 79 -32 133.5t-85 73.5q-78 31 -129 31h1325l68 -476q-71 133 -328 316q-189 137 -432 137h-12v-655h6q66 2 124.5 24t97.5 52.5
t71 70t48.5 70.5t25.5 59l10 33v-672q-4 35 -45 115q-25 53 -68 100q-42 48 -113 82.5t-151 34.5h-6v-467q0 -234 190 -240q67 3 170 50q109 53 180 110z" />
    <glyph glyph-name="emacron" unicode="&#x113;" 
d="M459 1106v22l403 2v-24h-403zM727 168q115 1 194.5 50t106.5 130q-12 -165 -135 -276q-121 -112 -313 -103q-231 9 -357 150q-128 143 -131 346q-3 299 225 438q81 49 181 64q105 18 176 6q150 -27 250 -139q97 -109 94 -293h-645q0 -170 97 -272.5t257 -100.5zM520 922
q-83 -56 -117 -174q-33 -113 -30 -195q129 0 194 12q97 15 162 80q60 57 57 166t-73 143q-88 34 -193 -32z" />
    <glyph glyph-name="Edotaccent" unicode="&#x116;" horiz-adv-x="1564" 
d="M774 1915q57 0 97 -39.5t40 -95.5t-41 -98t-96 -42t-96 42t-41 98q0 55 40.5 95t96.5 40zM1171 178q98 76 178.5 156.5t108.5 124.5l23 39l-92 -498h-1379q50 0 129 39q52 24 84.5 81t32.5 134v942q0 79 -32 133.5t-85 73.5q-78 31 -129 31h1325l68 -476
q-71 133 -328 316q-189 137 -432 137h-12v-655h6q66 2 124.5 24t97.5 52.5t71 70t48.5 70.5t25.5 59l10 33v-672q-4 35 -45 115q-25 53 -68 100q-42 48 -113 82.5t-151 34.5h-6v-467q0 -234 190 -240q67 3 170 50q109 53 180 110z" />
    <glyph glyph-name="edotaccent" unicode="&#x117;" 
d="M651 1092q-61 0 -105 43.5t-44 103.5t44 103.5t105 43.5q60 0 103 -43.5t43 -103.5t-43 -103.5t-103 -43.5zM727 168q115 1 194.5 50t106.5 130q-12 -165 -135 -276q-121 -112 -313 -103q-231 9 -357 150q-128 143 -131 346q-3 299 225 438q81 49 181 64q105 18 176 6
q150 -27 250 -139q97 -109 94 -293h-645q0 -170 97 -272.5t257 -100.5zM520 922q-83 -56 -117 -174q-33 -113 -30 -195q129 0 194 12q97 15 162 80q60 57 57 166t-73 143q-88 34 -193 -32z" />
    <glyph glyph-name="Eogonek" unicode="&#x118;" horiz-adv-x="1564" 
d="M1262 -217q21 -81 94 -109q78 -28 127 4q-31 -36 -92.5 -52t-125 -8t-117.5 48.5t-69 106.5q-21 48 -1.5 117t71.5 110h-1139q50 0 129 39q52 24 84.5 81t32.5 134v942q0 79 -32 133.5t-85 73.5q-78 31 -129 31h1325l68 -476q-71 133 -328 316q-189 137 -432 137h-12
v-655h6q66 2 124.5 24t97.5 52.5t71 70t48.5 70.5t25.5 59l10 33v-672q-4 35 -45 115q-25 53 -68 100q-42 48 -113 82.5t-151 34.5h-6v-467q0 -234 190 -240q67 3 170 50q109 53 180 110q98 76 178.5 156.5t108.5 124.5l23 39l-92 -498h-37q-124 -92 -90 -217z" />
    <glyph glyph-name="eogonek" unicode="&#x119;" 
d="M649 -29q-84 -81 -57 -188q22 -82 96 -109q76 -28 125 4q-31 -36 -92.5 -52t-124 -8t-116 48.5t-68.5 106.5q-19 43 -4.5 106.5t55.5 104.5q-173 40 -269.5 170t-101.5 311q-3 299 225 438q81 49 181 64q105 18 176 6q150 -27 250 -139q97 -109 94 -293h-645
q0 -170 97 -272.5t257 -100.5q115 1 194.5 50t106.5 130q-9 -146 -113 -256q-100 -106 -266 -121zM520 922q-83 -56 -117 -174q-33 -113 -30 -195q129 0 194 12q97 15 162 80q60 57 57 166t-73 143q-88 34 -193 -32z" />
    <glyph glyph-name="Ecaron" unicode="&#x11a;" horiz-adv-x="1564" 
d="M913 1825l-139 -285h-149l-170 283l243 -178zM1171 178q98 76 178.5 156.5t108.5 124.5l23 39l-92 -498h-1379q50 0 129 39q52 24 84.5 81t32.5 134v942q0 79 -32 133.5t-85 73.5q-78 31 -129 31h1325l68 -476q-71 133 -328 316q-189 137 -432 137h-12v-655h6
q66 2 124.5 24t97.5 52.5t71 70t48.5 70.5t25.5 59l10 33v-672q-4 35 -45 115q-25 53 -68 100q-42 48 -113 82.5t-151 34.5h-6v-467q0 -234 190 -240q67 3 170 50q109 53 180 110z" />
    <glyph glyph-name="ecaron" unicode="&#x11b;" 
d="M399 1335l246 -178l213 178l-137 -282h-150zM727 168q-160 -2 -257 100.5t-97 272.5h645q3 184 -94 293q-100 112 -250 139q-71 12 -176 -6q-100 -15 -181 -64q-228 -139 -225 -438q3 -203 131 -346q126 -141 357 -150q192 -9 313 103q123 111 135 276
q-27 -81 -106.5 -130t-194.5 -50zM520 922q105 66 193 32q70 -34 73 -143t-57 -166q-65 -65 -162 -80q-65 -12 -194 -12q-3 82 30 195q34 118 117 174z" />
    <glyph glyph-name="Gbreve" unicode="&#x11e;" horiz-adv-x="1617" 
d="M811 1722q178 0 199 123q-3 -89 -54 -157q-52 -70 -141 -70q-94 0 -150.5 66t-58.5 163q12 -60 68 -92.5t137 -32.5zM1571 600h-678l25 -2q22 -1 47 -7t57 -21.5t56.5 -38t41.5 -60.5t17 -86v-10q0 -1 1 -38.5t1 -55.5q0 -21 -6 -58q-14 -112 -107 -164q-35 -15 -88 -12
q-143 6 -281 193q-140 191 -186 481q-44 262 14 444q58 185 205 236q172 52 340 -78q108 -88 195 -207q92 -124 141 -239l-2 471q-163 94 -453 100q-318 0 -536 -135q-135 -84 -217.5 -230.5t-79.5 -353.5q0 -329 188 -547q187 -217 500 -217q258 0 459 219q22 -3 96 -86
q76 -86 96 -143v428q0 59 16 103t38.5 65t45 33t38.5 14z" />
    <glyph glyph-name="gbreve" unicode="&#x11f;" horiz-adv-x="987" 
d="M569 1077q-94 0 -150.5 66t-58.5 162q12 -59 69 -91t136 -32q177 0 201 121q-3 -86 -55 -156t-142 -70zM1004 1018q43 0 65.5 -27t11.5 -59q-8 -32 -41 -43t-84 8q-25 23 -43.5 32t-53 1.5t-77.5 -43.5q110 131 222 131zM782 887l-2 -2l2 2q78 -68 101 -168
q27 -102 -13 -184q-38 -76 -94.5 -122.5t-152.5 -76.5q-175 -49 -330 -2q-43 -18 -49.5 -53.5t26.5 -59.5q25 -21 75 -27.5t104.5 -3.5t119.5 -2q362 -27 371 -247q15 -196 -115 -314q-72 -66 -185.5 -105.5t-219.5 -29.5q-189 19 -299.5 95.5t-110.5 187.5q0 63 28.5 116
t63.5 74l31 19q-7 -72 14.5 -124.5t73.5 -88.5t122 -59t173 -42q125 -23 224 -12.5t130 49.5q48 98 -57 162q-104 64 -266 61q-202 0 -326 35q-148 39 -160 158q-15 116 211 217q-2 2 -4 2q-2 2 -6 2q-205 85 -199 309q3 220 254 297q88 30 201 27q116 -3 191 -43
q29 -11 73 -47zM588 352q96 62 4 410q-18 59 -40.5 101t-43.5 62.5t-42.5 29t-38.5 6.5t-30 -11q-58 -30 -61 -164t39 -262q27 -68 58 -111.5t59 -59t52 -15.5t44 14z" />
    <glyph glyph-name="Gdotaccent" unicode="&#x120;" horiz-adv-x="1617" 
d="M1016 1681q-38 -41 -94 -41t-97 41q-41 42 -41 98t39 95q41 41 99 41t96 -41q39 -39 39 -95t-41 -98zM893 600h678q-6 0 -16.5 -2t-37 -14t-47 -33t-37 -65t-16.5 -103v-428q-20 57 -96 143q-74 83 -96 86q-201 -219 -459 -219q-313 0 -500 217q-188 218 -188 547
q-3 207 79.5 353.5t217.5 230.5q218 135 536 135q290 -6 453 -100l2 -471q-49 115 -141 239q-87 119 -195 207q-168 130 -340 78q-147 -51 -205 -236q-58 -182 -14 -444q46 -290 186 -481q138 -187 281 -193q53 -3 88 12q93 52 107 164q6 38 6 58q0 18 -1 55.5t-1 38.5v10
q0 48 -17 86t-41.5 60.5t-56.5 38t-57 21.5t-47 7z" />
    <glyph glyph-name="gdotaccent" unicode="&#x121;" horiz-adv-x="987" 
d="M586 1092q-61 0 -105.5 43.5t-44.5 103.5t44.5 103.5t105.5 43.5q60 0 102.5 -43.5t42.5 -103.5t-42.5 -103.5t-102.5 -43.5zM1004 1018q43 0 65.5 -27t11.5 -59q-8 -32 -41 -43t-84 8q-25 23 -43.5 32t-53 1.5t-77.5 -43.5q110 131 222 131zM782 887l-2 -2l2 2
q78 -68 101 -168q27 -102 -13 -184q-38 -76 -94.5 -122.5t-152.5 -76.5q-175 -49 -330 -2q-43 -18 -49.5 -53.5t26.5 -59.5q25 -21 75 -27.5t104.5 -3.5t119.5 -2q362 -27 371 -247q15 -196 -115 -314q-72 -66 -185.5 -105.5t-219.5 -29.5q-189 19 -299.5 95.5t-110.5 187.5
q0 63 28.5 116t63.5 74l31 19q-7 -72 14.5 -124.5t73.5 -88.5t122 -59t173 -42q125 -23 224 -12.5t130 49.5q48 98 -57 162q-104 64 -266 61q-202 0 -326 35q-148 39 -160 158q-15 116 211 217q-2 2 -4 2q-2 2 -6 2q-205 85 -199 309q3 220 254 297q88 30 201 27
q116 -3 191 -43q29 -11 73 -47zM588 352q96 62 4 410q-18 59 -40.5 101t-43.5 62.5t-42.5 29t-38.5 6.5t-30 -11q-58 -30 -61 -164t39 -262q27 -68 58 -111.5t59 -59t52 -15.5t44 14z" />
    <glyph glyph-name="Gcommaaccent" unicode="&#x122;" horiz-adv-x="1617" 
d="M918 598l-25 2h678q-6 0 -16.5 -2t-37 -14t-47 -33t-37 -65t-16.5 -103v-428q-20 57 -96 143q-74 83 -96 86q-201 -219 -459 -219q-313 0 -500 217q-188 218 -188 547q-3 207 79.5 353.5t217.5 230.5q218 135 536 135q290 -6 453 -100l2 -471q-49 115 -141 239
q-87 119 -195 207q-168 130 -340 78q-147 -51 -205 -236q-58 -182 -14 -444q46 -290 186 -481q138 -187 281 -193q53 -3 88 12q93 52 107 164q6 38 6 58q0 18 -1 55.5t-1 38.5v10q0 48 -17 86t-41.5 60.5t-56.5 38t-57 21.5t-47 7zM983 -219l12 -23q28 -85 25 -192
q-3 -113 -59 -228q-59 -121 -154 -186q75 66 119 197q42 122 20 235q-36 -23 -76 -26q-61 -7 -107 30.5t-52 100.5q-6 62 31.5 108.5t97.5 50.5q54 6 96 -20q28 -16 47 -47z" />
    <glyph glyph-name="gcommaaccent" unicode="&#x123;" horiz-adv-x="987" 
d="M1004 1018q43 0 65.5 -27t11.5 -59q-8 -32 -41 -43t-84 8q-25 23 -43.5 32t-53 1.5t-77.5 -43.5q110 131 222 131zM782 887l-2 -2l2 2q78 -68 101 -168q27 -102 -13 -184q-38 -76 -94.5 -122.5t-152.5 -76.5q-175 -49 -330 -2q-43 -18 -49.5 -53.5t26.5 -59.5
q25 -21 75 -27.5t104.5 -3.5t119.5 -2q362 -27 371 -247q15 -196 -115 -314q-72 -66 -185.5 -105.5t-219.5 -29.5q-189 19 -299.5 95.5t-110.5 187.5q0 63 28.5 116t63.5 74l31 19q-7 -72 14.5 -124.5t73.5 -88.5t122 -59t173 -42q125 -23 224 -12.5t130 49.5q48 98 -57 162
q-104 64 -266 61q-202 0 -326 35q-148 39 -160 158q-15 116 211 217q-2 2 -4 2q-2 2 -6 2q-205 85 -199 309q3 220 254 297q88 30 201 27q116 -3 191 -43q29 -11 73 -47zM588 352q96 62 4 410q-18 59 -40.5 101t-43.5 62.5t-42.5 29t-38.5 6.5t-30 -11q-58 -30 -61 -164
t39 -262q27 -68 58 -111.5t59 -59t52 -15.5t44 14zM608 -586q69 -37 84 -166q15 -135 -41 -280q-59 -152 -174 -230q77 68 121 195q42 122 20 236q-38 -24 -75 -27q-62 -6 -108 32t-52 99q-7 63 31 110t98 52q52 6 96 -21z" />
    <glyph glyph-name="Hbar" unicode="&#x126;" horiz-adv-x="1785" 
d="M1497 1098v-826q0 -70 20.5 -127t49.5 -86q45 -35 89 -49t64 -10h-817q37 0 86 18q133 61 133 256v451h-479v-453q0 -70 20.5 -127t49.5 -86q45 -35 89 -49t64 -10h-817q37 0 84 18q135 59 135 256v824h-190l-25 18h215v45q0 71 -20 127.5t-49 83.5q-26 26 -64 41
q-45 21 -88 21h819q-43 0 -88 -21q-135 -51 -135 -252v-45h479v45q0 71 -20 127.5t-49 83.5q-26 26 -64 41q-45 21 -88 21h819q-43 0 -88 -21q-135 -51 -135 -252v-45h223l-18 -18h-205zM643 1098v-342h479v342h-479z" />
    <glyph glyph-name="hbar" unicode="&#x127;" horiz-adv-x="1325" 
d="M1161 545v-324q0 -59 16.5 -106t41.5 -68q53 -47 120 -47h-1339q41 0 84 14q139 41 139 207v877h-82l-24 18h106q-2 47 -13 78.5t-25 44.5t-32 17t-30 2t-23 -7l426 232v-367h138l-19 -18h-119v-877q0 -102 54 -155.5t135 -61.5q61 8 101 61.5t40 155.5v141v66
q0 141 -4 227q-3 61 -27 101q-38 53 -131 47q-91 -6 -149 -76q63 96 174 168q122 78 256 66q67 -5 102.5 -38.5t61.5 -93.5q13 -29 16 -81q4 -70 4 -86q2 -20 2 -95v-22z" />
    <glyph glyph-name="Imacron" unicode="&#x12a;" horiz-adv-x="962" 
d="M305 1638l404 2v-24h-404v22zM649 1161v-889q0 -73 24 -127.5t55.5 -81t71.5 -42t61 -18.5t36 -3h-864q15 0 36 3t60.5 18.5t70.5 42t55 81t24 127.5v889q0 71 -23.5 127.5t-56.5 83.5q-24 24 -70 41q-50 21 -96 21h864q-46 0 -96 -21q-152 -53 -152 -252z" />
    <glyph glyph-name="imacron" unicode="&#x12b;" horiz-adv-x="962" 
d="M301 1128l404 2v-24h-404v22zM645 975v-754q0 -58 16.5 -105t38.5 -69q53 -47 121 -47h-682q38 0 76 14q125 42 125 207v438q0 38 -15 61t-36.5 28.5t-42 4t-35.5 -9.5z" />
    <glyph glyph-name="Iogonek" unicode="&#x12e;" horiz-adv-x="962" 
d="M897 0h-192q-123 -91 -93 -217q21 -81 97 -109t125 4q-31 -36 -92.5 -52t-125 -8t-117.5 48.5t-69 106.5q-15 61 3 124.5t69 102.5h-469q15 0 36 3t60.5 18.5t70.5 42t55 81t24 127.5v889q0 71 -23.5 127.5t-56.5 83.5q-24 24 -70 41q-50 21 -96 21h864q-46 0 -96 -21
q-152 -53 -152 -252v-889q0 -73 24 -127.5t55.5 -81t71.5 -42t61 -18.5t36 -3z" />
    <glyph glyph-name="iogonek" unicode="&#x12f;" horiz-adv-x="962" 
d="M389 1194q0 56 40 95.5t97 39.5t96.5 -39.5t39.5 -95.5q0 -57 -39.5 -98t-96.5 -41t-97 41t-40 98zM618 -217q21 -81 97 -109t125 4q-31 -36 -92.5 -52t-125 -8t-117.5 48.5t-69 106.5q-15 61 3 124.5t69 102.5h-369q38 0 76 14q125 42 125 207v438q0 38 -15 61
t-36.5 28.5t-42 4t-35.5 -9.5l434 232v-754q0 -58 16.5 -105t38.5 -69q53 -47 121 -47h-110q-127 -92 -93 -217z" />
    <glyph glyph-name="Idot" unicode="&#x130;" horiz-adv-x="962" 
d="M586 1681q-38 -41 -94 -41t-97 41q-41 42 -41 98t39 95q41 41 99 41t96 -41q39 -39 39 -95t-41 -98zM649 1161v-889q0 -73 24 -127.5t55.5 -81t71.5 -42t61 -18.5t36 -3h-864q15 0 36 3t60.5 18.5t70.5 42t55 81t24 127.5v889q0 71 -23.5 127.5t-56.5 83.5q-24 24 -70 41
q-50 21 -96 21h864q-46 0 -96 -21q-152 -53 -152 -252z" />
    <glyph glyph-name="dotlessi" unicode="&#x131;" horiz-adv-x="1034" 
d="M680 975v-754q0 -58 16.5 -105t38.5 -69q53 -47 123 -47h-682q38 0 76 14q123 42 123 207v438q0 38 -14.5 61t-36 28.5t-41.5 4t-37 -9.5z" />
    <glyph glyph-name="IJ" unicode="&#x132;" horiz-adv-x="2183" 
d="M649 1161v-889q0 -73 24 -127.5t55.5 -81t71.5 -42t61 -18.5t36 -3h-864q15 0 36 3t60.5 18.5t70.5 42t55 81t24 127.5v889q0 71 -23.5 127.5t-56.5 83.5q-24 24 -70 41q-50 21 -96 21h864q-46 0 -96 -21q-152 -53 -152 -252zM1575 391v819q0 73 -25 124.5t-67 70.5
q-64 29 -107 29h772q-42 0 -106 -29q-42 -19 -67 -70.5t-25 -124.5v-837q0 -377 -516 -377q-122 0 -273 63q-85 38 -138 121.5t-54 196.5q-2 78 46.5 138t129.5 60q109 0 149 -81q45 -82 11 -185q-36 -122 8.5 -204t138.5 -82t115 120q8 44 8 248z" />
    <glyph glyph-name="ij" unicode="&#x133;" horiz-adv-x="1431" 
d="M401 1018q-69 0 -119.5 51t-50.5 123t50.5 122t119.5 50q72 0 122 -50t50 -122t-50 -123t-122 -51zM1128 1018q-69 0 -119.5 51t-50.5 123t50 122t120 50q72 0 122 -50t50 -122t-50 -123t-122 -51zM989 -131v782q0 46 -15.5 71.5t-39.5 29.5t-44.5 0.5t-37.5 -11.5
l442 238v-1081q0 -303 -364 -324q-174 -3 -295 70q-117 70 -117 206q0 56 41.5 100t95.5 44q78 0 119 -74q43 -73 31 -166q-9 -103 43 -143q50 -39 98 -17q31 19 37 64q6 47 6 211zM743 0h-682q38 0 76 14q125 42 125 207v438q0 38 -15 61t-36.5 28.5t-42 4t-35.5 -9.5
l432 232v-754q0 -57 16.5 -104t39.5 -70q53 -47 122 -47z" />
    <glyph glyph-name="Kcommaaccent" unicode="&#x136;" horiz-adv-x="1486" 
d="M-4 1434h823q-51 0 -119 -29q-46 -20 -75 -71.5t-29 -123.5v-987q0 -69 28.5 -119t73.5 -71q78 -33 121 -33h-823q44 0 119 33q45 21 73.5 71t28.5 119v987q0 74 -28 125t-76 70q-68 29 -117 29zM868 1427h25h-25zM965 756l295 -387q97 -130 191 -227t138 -124l37 -22
l-508 4l-176 229l-242 324q-64 88 -104 61l432 512q62 81 48.5 146.5t-66.5 107t-117 47.5h580l-7 -2q-19 -5 -45 -15t-70.5 -33t-100 -66.5t-109.5 -100.5l-35 -34l-27 -29l-135 -164q-38 -44 -41 -88q-1 -27 6.5 -50t15.5 -36t31 -43zM596 614v-2v2zM1004 -199
q17 -17 26 -41q24 -57 26 -139.5t-18 -169t-71 -168.5t-125 -131q79 69 119 195q42 121 20 237q-33 -23 -74 -26q-63 -7 -108.5 30.5t-53.5 100.5q-6 62 31.5 108.5t97.5 50.5q56 6 103 -24q18 -11 27 -23z" />
    <glyph glyph-name="kcommaaccent" unicode="&#x137;" horiz-adv-x="1136" 
d="M614 0h-624q11 0 26.5 2t48.5 14.5t58 33.5t45 66t20 105v926q0 64 -39 93t-94 3l441 240l-2 -1262q0 -64 16 -110t40.5 -67.5t44.5 -30.5t38 -11q44 6 55.5 41t-18.5 86l-66 111q-53 98 -82 127q-11 11 -16 21.5t-6 15t-4 4.5l204 249q35 40 40 90t-16 93t-70.5 73
t-116.5 31h622q-61 -9 -205 -98q-143 -88 -196 -150l-19 -20q-23 -26 -16 -55q3 -9 20 -38t23 -42l43 -70l82 -129l96 -139q60 -80 86 -103q38 -35 88.5 -61t85.5 -33l31 -6h-657h-7zM725 -172q71 -38 86 -166q15 -135 -41 -280q-59 -152 -174 -230q75 66 119 197
q42 122 20 235q-36 -23 -76 -26q-61 -7 -107 30.5t-52 100.5q-6 62 31.5 108.5t97.5 50.5q54 6 96 -20z" />
    <glyph glyph-name="Lacute" unicode="&#x139;" horiz-adv-x="1533" 
d="M715 1901q12 -12 18 -28t5 -38t-22.5 -49.5t-62.5 -54.5l-276 -172l170 278q28 46 61.5 68.5t61 20t45.5 -24.5zM805 18q152 3 375 201t286 342l-112 -561h-1358q48 0 96 20q62 21 104 88t46 187v866q0 70 -20.5 127t-49.5 84q-26 26 -63 41q-45 21 -89 21h818
q-43 0 -88 -21q-136 -52 -136 -252v-878q0 -262 191 -265z" />
    <glyph glyph-name="lacute" unicode="&#x13a;" horiz-adv-x="657" 
d="M518 1858q13 -11 20 -27t5.5 -38t-22.5 -49t-62 -54l-277 -172l168 278q28 44 61.5 67t61 21t45.5 -26zM469 1483v-1262q0 -59 21.5 -105.5t52.5 -68.5q27 -21 65 -33q45 -14 86 -14h-753q41 0 84 14q139 41 139 207v887q0 51 -11 84.5t-24.5 46.5t-34 16.5t-31 1.5
t-22.5 -6z" />
    <glyph glyph-name="Lcommaaccent" unicode="&#x13b;" horiz-adv-x="1533" 
d="M805 18q152 3 375 201t286 342l-112 -561h-1358q48 0 96 20q62 21 104 88t46 187v866q0 70 -20.5 127t-49.5 84q-26 26 -63 41q-45 21 -89 21h818q-43 0 -88 -21q-136 -52 -136 -252v-878q0 -262 191 -265zM936 -223q1 -2 2 -4.5t1.5 -3.5t0.5 -2q27 -56 30 -138.5
t-17 -170t-71.5 -171.5t-125.5 -135q73 65 118 197q43 124 21 235q-36 -23 -76 -26q-62 -8 -108 30t-52 101q-6 62 31.5 108.5t97.5 50.5q55 6 97 -20q28 -16 51 -51z" />
    <glyph glyph-name="lcommaaccent" unicode="&#x13c;" horiz-adv-x="657" 
d="M469 1483v-1262q0 -59 21.5 -105.5t52.5 -68.5q27 -21 65 -33q45 -14 86 -14h-753q41 0 84 14q139 41 139 207v887q0 51 -11 84.5t-24.5 46.5t-34 16.5t-31 1.5t-22.5 -6zM489 -199q19 -19 27 -41q24 -57 26 -139.5t-18 -169t-71 -168.5t-125 -131q77 68 118 195
q43 123 21 237q-33 -23 -74 -26q-63 -7 -108.5 30.5t-53.5 100.5q-6 62 31.5 108.5t97.5 50.5q56 6 103 -24q16 -10 26 -23z" />
    <glyph glyph-name="Lcaron" unicode="&#x13d;" horiz-adv-x="1533" 
d="M1047 1331q-62 -6 -108 32t-52 99q-6 63 31.5 109.5t97.5 52.5q54 6 96 -20q27 -13 41 -39q7 -7 21 -35q24 -57 24.5 -138.5t-20.5 -166.5t-72 -166.5t-123 -130.5q79 70 119 194q42 122 20 236q-35 -24 -75 -27zM805 18q152 3 375 201t286 342l-112 -561h-1358
q48 0 96 20q62 21 104 88t46 187v866q0 70 -20.5 127t-49.5 84q-26 26 -63 41q-45 21 -89 21h818q-43 0 -88 -21q-136 -52 -136 -252v-878q0 -262 191 -265z" />
    <glyph glyph-name="lcaron" unicode="&#x13e;" horiz-adv-x="657" 
d="M907 1530q24 -57 24.5 -138.5t-20 -166.5t-71.5 -166.5t-123 -130.5q79 70 119 194q42 122 20 236q-35 -24 -76 -27q-61 -6 -107 31.5t-52 99.5q-6 63 31.5 109.5t97.5 52.5q54 6 96 -20q27 -13 41 -39q5 -5 20 -35zM469 1483v-1262q0 -59 21.5 -105.5t52.5 -68.5
q27 -21 65 -33q45 -14 86 -14h-753q41 0 84 14q139 41 139 207v887q0 51 -11 84.5t-24.5 46.5t-34 16.5t-31 1.5t-22.5 -6z" />
    <glyph glyph-name="Ldot" unicode="&#x13f;" horiz-adv-x="1533" 
d="M805 18q152 3 375 201t286 342l-112 -561h-1358q48 0 96 20q62 21 104 88t46 187v866q0 70 -20.5 127t-49.5 84q-26 26 -63 41q-45 21 -89 21h818q-43 0 -88 -21q-136 -52 -136 -252v-878q0 -262 191 -265zM995 664q-50 0 -85.5 35.5t-35.5 86.5t35.5 87t85.5 36
q51 0 88 -36t37 -87t-37 -86.5t-88 -35.5z" />
    <glyph glyph-name="ldot" unicode="&#x140;" horiz-adv-x="1024" 
d="M541 1483v-1262q0 -59 21 -106t52 -68q26 -20 66 -33q45 -14 86 -14h-754q41 0 84 14q140 41 140 207v887q0 128 -54 141q-40 12 -69 2zM768 909q51 0 88 -36t37 -87t-37 -86.5t-88 -35.5q-50 0 -85.5 35.5t-35.5 86.5t35.5 87t85.5 36z" />
    <glyph glyph-name="Lslash" unicode="&#x141;" horiz-adv-x="1581" 
d="M842 18q149 3 372 201q225 200 289 342l-112 -561h-1360q48 0 96 20q152 61 152 275v520l-140 -53l-33 8l173 66v325q0 72 -20.5 128.5t-51.5 82.5q-26 26 -64 41q-45 21 -88 21h819q-43 0 -90 -21q-135 -51 -135 -252v-184l187 72l-11 -25l-176 -68v-673
q0 -262 193 -265z" />
    <glyph glyph-name="lslash" unicode="&#x142;" horiz-adv-x="800" 
d="M504 920v-699q0 -59 21.5 -105.5t52.5 -68.5q27 -21 65 -33q45 -14 86 -14h-754q41 0 84 14q140 41 140 207v582l-109 -41l-33 8l142 53v285q0 128 -54 141q-40 12 -69 2l428 232v-543l205 78l-11 -25z" />
    <glyph glyph-name="Nacute" unicode="&#x143;" horiz-adv-x="1679" 
d="M1245 1901q12 -12 18 -28t5.5 -38t-22 -49.5t-62.5 -54.5l-277 -172l170 278q27 46 60.5 68.5t61.5 20t46 -24.5zM1343 657v441q0 83 -28 151t-68 103q-34 31 -88 53q-63 25 -123 29h650q-57 -3 -125 -29q-183 -62 -191 -307v-1170h-2l-950 1082q-43 43 -64.5 29.5
t-21.5 -76.5v-598q0 -89 31.5 -163.5t78.5 -113.5q99 -74 172 -84l33 -4h-661q51 6 110 31q54 20 97 57q45 40 77.5 114.5t32.5 162.5v624q0 99 -22.5 179t-52.5 125.5t-68.5 78.5t-63 44.5t-43.5 15.5l-10 2h530l703 -805q33 -36 47 -33q20 6 20 61z" />
    <glyph glyph-name="nacute" unicode="&#x144;" horiz-adv-x="1345" 
d="M930 1395q13 -13 19.5 -28.5t6 -37.5t-22 -49t-63.5 -55l-276 -172l168 278q28 46 61.5 68.5t61 20t45.5 -24.5zM1147 545v-324q0 -58 16.5 -105t38.5 -69q53 -47 121 -47h-1274q10 -1 25.5 0.5t42.5 13t49.5 33t39 67t17.5 107.5v436q0 127 -114 93l419 229v-758
q0 -62 17.5 -108t45 -68t50.5 -31.5t45 -11.5q23 2 46 11.5t49.5 32t43.5 68t17 107.5v141v39q0 269 -19 328q-9 23 -12 27q-38 53 -125 47q-86 -6 -141 -76q59 92 166 168q113 78 250 66q67 -5 102 -38.5t61 -93.5q14 -32 17 -81q4 -70 4 -86q2 -20 2 -95v-22z" />
    <glyph glyph-name="Ncommaaccent" unicode="&#x145;" horiz-adv-x="1679" 
d="M1343 657v441q0 83 -28 151t-68 103q-34 31 -88 53q-63 25 -123 29h650q-57 -3 -125 -29q-183 -62 -191 -307v-1170h-2l-950 1082q-43 43 -64.5 29.5t-21.5 -76.5v-598q0 -89 31.5 -163.5t78.5 -113.5q99 -74 172 -84l33 -4h-661q51 6 110 31q54 20 97 57
q45 40 77.5 114.5t32.5 162.5v624q0 99 -22.5 179t-52.5 125.5t-68.5 78.5t-63 44.5t-43.5 15.5l-10 2h530l703 -805q33 -36 47 -33q20 6 20 61zM918 -172q68 -33 83 -164q16 -137 -40 -280q-60 -154 -175 -232q78 72 121 197q43 124 21 235q-36 -23 -76 -26q-62 -8 -108 30
t-52 101q-7 61 31 107.5t98 51.5q55 6 97 -20z" />
    <glyph glyph-name="ncommaaccent" unicode="&#x146;" horiz-adv-x="1345" 
d="M1147 545v-324q0 -58 16.5 -105t38.5 -69q53 -47 121 -47h-1274q10 -1 25.5 0.5t42.5 13t49.5 33t39 67t17.5 107.5v436q0 127 -114 93l419 229v-758q0 -62 17.5 -108t45 -68t50.5 -31.5t45 -11.5q23 2 46 11.5t49.5 32t43.5 68t17 107.5v141v39q0 269 -19 328
q-9 23 -12 27q-38 53 -125 47q-86 -6 -141 -76q59 92 166 168q113 78 250 66q67 -5 102 -38.5t61 -93.5q14 -32 17 -81q4 -70 4 -86q2 -20 2 -95v-22zM809 -195q20 -20 29 -47q25 -55 27 -137t-18.5 -168.5t-72 -169t-125.5 -131.5q78 72 121 197q43 124 21 235
q-36 -23 -76 -26q-63 -7 -108.5 30.5t-53.5 100.5q-6 62 32 108.5t99 50.5q63 6 107 -26q2 -1 18 -17z" />
    <glyph glyph-name="Ncaron" unicode="&#x147;" horiz-adv-x="1679" 
d="M1100 1825l-137 -285h-150l-170 283l244 -178zM1343 657v441q0 83 -28 151t-68 103q-34 31 -88 53q-63 25 -123 29h650q-57 -3 -125 -29q-183 -62 -191 -307v-1170h-2l-950 1082q-43 43 -64.5 29.5t-21.5 -76.5v-598q0 -89 31.5 -163.5t78.5 -113.5q99 -74 172 -84l33 -4
h-661q51 6 110 31q54 20 97 57q45 40 77.5 114.5t32.5 162.5v624q0 99 -22.5 179t-52.5 125.5t-68.5 78.5t-63 44.5t-43.5 15.5l-10 2h530l703 -805q33 -36 47 -33q20 6 20 61z" />
    <glyph glyph-name="ncaron" unicode="&#x148;" horiz-adv-x="1345" 
d="M885 1335l-137 -282h-150l-170 282l244 -178zM1147 545v-324q0 -58 16.5 -105t38.5 -69q53 -47 121 -47h-1274q10 -1 25.5 0.5t42.5 13t49.5 33t39 67t17.5 107.5v436q0 127 -114 93l419 229v-758q0 -62 17.5 -108t45 -68t50.5 -31.5t45 -11.5q23 2 46 11.5t49.5 32
t43.5 68t17 107.5v141v39q0 269 -19 328q-9 23 -12 27q-38 53 -125 47q-86 -6 -141 -76q59 92 166 168q113 78 250 66q67 -5 102 -38.5t61 -93.5q14 -32 17 -81q4 -70 4 -86q2 -20 2 -95v-22z" />
    <glyph glyph-name="Eng" unicode="&#x14a;" horiz-adv-x="1775" 
d="M1378 657v441q0 83 -28 151t-68 103q-34 31 -88 53q-61 25 -123 29h649q-57 -3 -125 -29q-180 -63 -188 -307v-1200q0 -303 -365 -324q-173 -3 -294 70q-117 70 -117 206q0 56 41.5 100t95.5 44q78 0 119 -74q43 -73 28 -166q-6 -103 46 -143q50 -39 98 -17q29 19 35 66
q8 41 8 209v221q0 139 -115 313l-532 607q-43 43 -65.5 29.5t-22.5 -76.5v-598q0 -89 31.5 -163.5t78.5 -113.5q99 -74 172 -84l33 -4h-659q51 6 110 31q52 20 96 57q46 41 78.5 115t32.5 162v624q0 99 -22.5 179t-52.5 125.5t-68.5 78.5t-63 44.5t-43.5 15.5l-10 2h528
l705 -805q33 -36 47 -33q18 6 18 61zM872 549h-2h2z" />
    <glyph glyph-name="eng" unicode="&#x14b;" horiz-adv-x="1318" 
d="M719 0h-658q10 -1 25.5 0.5t43 13t49.5 33t39 67t18 107.5v436q0 128 -115 93l420 229v-758q0 -59 16.5 -106t40.5 -68q53 -47 121 -47zM973 961q96 -8 145 -89q18 -27 27 -90q10 -65 10 -96q2 -25 2 -113v-28v-735q0 -100 -30.5 -178t-77 -123t-108.5 -74t-117 -39
t-111 -10q-123 0 -273 65q-85 37 -138 120t-54 196q-2 78 46.5 138t129.5 60q106 0 149.5 -78t10.5 -186q-38 -133 1.5 -211t145.5 -78q120 0 123 420v166v364v39q0 273 -18 328q-8 19 -13 27q-38 53 -125 47q-86 -6 -141 -76q59 92 166 168q113 78 250 66z" />
    <glyph glyph-name="Omacron" unicode="&#x14c;" horiz-adv-x="1736" 
d="M672 1604v22l403 2v-24h-403zM899 1452q173 0 311.5 -61t219.5 -168q158 -207 155 -506q-3 -282 -182 -504q-90 -108 -238 -170t-329 -61q-172 4 -312.5 72.5t-228.5 181.5q-170 230 -158 495q3 322 215 522q214 202 547 199zM1141 784q-26 169 -88 326q-59 152 -152 242
q-95 92 -199 65q-102 -30 -139 -223q-37 -188 10 -471q47 -284 160 -485q114 -203 256 -215q88 -8 135 83t50 263t-33 415z" />
    <glyph glyph-name="omacron" unicode="&#x14d;" horiz-adv-x="1183" 
d="M424 1106v22l403 2v-24h-403zM629 -25q-146 -9 -295 60q-81 40 -142 124.5t-86 202.5q-43 210 60 381q105 172 309 224q242 52 416 -64q175 -114 199 -377q18 -234 -113 -383q-135 -153 -348 -168zM750 588q-37 187 -111 301q-71 115 -158 49q-53 -41 -59 -219
q-6 -180 33 -350q14 -63 32 -118t37 -94t40.5 -71t41.5 -49.5t39.5 -29.5t35 -10.5t28.5 7.5q52 27 67 133q30 185 -26 451z" />
    <glyph glyph-name="Ohungarumlaut" unicode="&#x150;" horiz-adv-x="1736" 
d="M586 1546l168 279q28 46 61.5 68t61 19.5t45.5 -24.5q13 -13 19.5 -28.5t6 -37.5t-22 -49t-63.5 -55zM883 1546l170 279q28 46 61.5 68t61 19.5t45.5 -24.5q12 -12 18 -28t5 -38t-22.5 -49.5t-62.5 -54.5zM899 1452q-333 3 -547 -199q-212 -200 -215 -522
q-12 -265 158 -495q88 -113 228.5 -181.5t312.5 -72.5q181 -1 329 61t238 170q179 222 182 504q3 299 -155 506q-81 107 -219.5 168t-311.5 61zM1141 784q36 -243 33 -415t-50 -263t-135 -83q-142 12 -256 215q-113 201 -160 485q-47 283 -10 471q37 193 139 223
q104 27 199 -65q93 -90 152 -242q62 -157 88 -326z" />
    <glyph glyph-name="ohungarumlaut" unicode="&#x151;" horiz-adv-x="1183" 
d="M428 1053l170 278q28 46 61.5 68.5t61 20t45.5 -24.5q12 -12 18.5 -28.5t5.5 -38.5t-22.5 -49.5t-62.5 -53.5zM686 1053l170 278q28 46 61.5 68.5t61 20t45.5 -24.5q12 -12 18 -28t5.5 -38t-22 -49.5t-62.5 -54.5zM629 -25q213 15 348 168q131 149 113 383
q-24 263 -199 377q-174 116 -416 64q-204 -52 -309 -224q-103 -171 -60 -381q25 -118 86 -202.5t142 -124.5q149 -69 295 -60zM750 588q56 -266 26 -451q-15 -106 -67 -133q-13 -6 -28.5 -7.5t-35 10.5t-39.5 29.5t-41.5 49.5t-40.5 71t-37 94t-32 118q-39 170 -33 350
q6 178 59 219q87 66 158 -49q74 -114 111 -301z" />
    <glyph glyph-name="OE" unicode="&#x152;" horiz-adv-x="2316" 
d="M1923 178q97 75 176.5 156t108.5 125l24 39l-92 -498h-983q-83 0 -190 -8q-130 -10 -160 -10q-172 4 -315 73t-230 181q-169 228 -160 495q3 320 217 522q217 202 551 199q17 0 150 -10q107 -8 147 -8h920l67 -476q-72 134 -327 316q-189 137 -432 137h-13v-655h7
q66 2 124.5 24t97.5 52.5t70.5 70t48 70.5t25.5 59l10 33v-672q-4 35 -45 115q-26 56 -67 100q-42 48 -113 82.5t-151 34.5h-7v-467q0 -234 191 -240q67 3 170 50q109 53 180 110zM532 766q19 -151 76 -334q52 -167 135 -291q82 -123 164 -114q38 3 62 30q39 62 39 187v903
q0 74 -17.5 128t-46 80.5t-51 38t-45.5 15.5q-174 33 -259.5 -135.5t-56.5 -507.5z" />
    <glyph glyph-name="oe" unicode="&#x153;" horiz-adv-x="1820" 
d="M1438 160q115 -6 196.5 42t108.5 132q-21 -74 -46 -125t-71 -111q-91 -124 -303 -121q-236 3 -377 144q-128 -131 -328 -146q-145 -9 -294 60q-81 40 -142 124.5t-86 202.5q-43 210 60 381q105 172 309 224q147 32 274.5 -0.5t212.5 -124.5q38 33 92 71q66 43 173 58
q101 14 178 2q158 -30 252 -142.5t90 -289.5h-631q0 -112 33 -191q79 -178 299 -190zM698 4q53 27 68 133q30 183 -27 451q-38 189 -110 301q-71 115 -158 49q-53 -41 -59 -219q-6 -184 32 -350q14 -63 32 -118t37 -94t40.5 -71t41.5 -49.5t39.5 -29.5t35 -10.5t28.5 7.5z
M1245 926q-58 -40 -92 -125q-47 -124 -47 -248q85 0 170 10q107 9 172 74q36 33 50 100.5t-3.5 130t-62.5 80.5q-94 40 -187 -22z" />
    <glyph glyph-name="Racute" unicode="&#x154;" horiz-adv-x="1476" 
d="M967 1901q12 -12 18 -28t5 -38t-22.5 -49.5t-62.5 -54.5l-276 -172l170 278q27 46 60.5 68.5t61.5 20t46 -24.5zM1202 453l84 -168q51 -98 123.5 -172t122.5 -95l45 -18h-520q-94 151 -142 242l-145 282q-26 51 -54.5 86.5t-52 50t-37.5 20t-24 5.5l-4 -559q0 -53 35 -88
q23 -19 46 -28t34.5 -10t36.5 -1h-750q51 0 119 29q46 20 75 71t29 123v987q0 167 -166 213q-42 11 -57 11q110 0 315 8q266 10 357 8q206 -5 325 -31t191 -88q97 -91 100 -270q0 -157 -106 -260q-87 -81 -166 -103q10 -3 26 -16q21 -14 67.5 -78t92.5 -151zM770 743
q95 45 131.5 125t36.5 211q-1 190 -85 276.5t-255 74.5l4 -717q88 0 168 30z" />
    <glyph glyph-name="racute" unicode="&#x155;" horiz-adv-x="989" 
d="M768 1395q12 -12 18 -28t5.5 -38t-22 -49.5t-62.5 -54.5l-277 -172l170 278q27 46 60.5 68.5t61.5 20t46 -24.5zM838 977q79 -4 120 -54t41 -116q0 -62 -33.5 -106.5t-97.5 -45.5q-44 -5 -79 17t-67 62.5t-36 43.5q-94 66 -164 -35v-546q0 -52 19 -92.5t47 -63.5
q38 -25 78.5 -34.5t56.5 -6.5h-705q33 0 103 23q44 18 70 63t26 111v26v434q0 120 -108 99l413 223v-131v-47v-19q49 86 139 141.5t177 53.5zM481 668q1 0 4 8q-1 0 -2 -4t-2 -4z" />
    <glyph glyph-name="Rcommaaccent" unicode="&#x156;" horiz-adv-x="1476" 
d="M1202 453l84 -168q51 -98 123.5 -172t122.5 -95l45 -18h-520q-94 151 -142 242l-145 282q-26 51 -54.5 86.5t-52 50t-37.5 20t-24 5.5l-4 -559q0 -53 35 -88q23 -19 46 -28t34.5 -10t36.5 -1h-750q51 0 119 29q46 20 75 71t29 123v987q0 167 -166 213q-42 11 -57 11
q110 0 315 8q266 10 357 8q206 -5 325 -31t191 -88q97 -91 100 -270q0 -157 -106 -260q-87 -81 -166 -103q10 -3 26 -16q21 -14 67.5 -78t92.5 -151zM770 743q95 45 131.5 125t36.5 211q-1 190 -85 276.5t-255 74.5l4 -717q88 0 168 30zM948 -195q20 -20 29 -47
q25 -55 27 -137t-18.5 -168.5t-72 -169t-125.5 -131.5q78 72 121 197q43 124 21 235q-36 -23 -76 -26q-62 -8 -108 30t-52 101q-8 62 30 108.5t99 50.5q63 6 107 -26q2 -1 18 -17z" />
    <glyph glyph-name="rcommaaccent" unicode="&#x157;" horiz-adv-x="989" 
d="M838 977q79 -4 120 -54t41 -116q0 -62 -33.5 -106.5t-97.5 -45.5q-44 -5 -79 17t-67 62.5t-36 43.5q-94 66 -164 -35v-546q0 -52 19 -92.5t47 -63.5q38 -25 78.5 -34.5t56.5 -6.5h-705q33 0 103 23q44 18 70 63t26 111v26v434q0 120 -108 99l413 223v-131v-47v-19
q49 86 139 141.5t177 53.5zM481 668q1 0 4 8q-1 0 -2 -4t-2 -4zM428 -172q71 -38 86 -166q15 -135 -41 -280q-59 -152 -174 -230q75 66 119 197q42 122 20 235q-36 -23 -76 -26q-61 -7 -107 30.5t-52 100.5q-6 62 31.5 108.5t97.5 50.5q54 6 96 -20z" />
    <glyph glyph-name="Rcaron" unicode="&#x158;" horiz-adv-x="1476" 
d="M934 1825l-139 -285h-150l-170 283l244 -178zM1202 453l84 -168q51 -98 123.5 -172t122.5 -95l45 -18h-520q-94 151 -142 242l-145 282q-26 51 -54.5 86.5t-52 50t-37.5 20t-24 5.5l-4 -559q0 -53 35 -88q23 -19 46 -28t34.5 -10t36.5 -1h-750q51 0 119 29q46 20 75 71
t29 123v987q0 167 -166 213q-42 11 -57 11q110 0 315 8q266 10 357 8q206 -5 325 -31t191 -88q97 -91 100 -270q0 -157 -106 -260q-87 -81 -166 -103q10 -3 26 -16q21 -14 67.5 -78t92.5 -151zM770 743q95 45 131.5 125t36.5 211q-1 190 -85 276.5t-255 74.5l4 -717
q88 0 168 30z" />
    <glyph glyph-name="rcaron" unicode="&#x159;" horiz-adv-x="989" 
d="M780 1335l-137 -282h-149l-170 282l243 -178zM838 977q79 -4 120 -54t41 -116q0 -62 -33.5 -106.5t-97.5 -45.5q-44 -5 -79 17t-67 62.5t-36 43.5q-94 66 -164 -35v-546q0 -52 19 -92.5t47 -63.5q38 -25 78.5 -34.5t56.5 -6.5h-705q33 0 103 23q44 18 70 63t26 111v26
v434q0 120 -108 99l413 223v-131v-47v-19q49 86 139 141.5t177 53.5zM481 668q1 0 4 8q-1 0 -2 -4t-2 -4z" />
    <glyph glyph-name="Sacute" unicode="&#x15a;" horiz-adv-x="1413" 
d="M584 1559l170 278q28 46 61.5 68.5t61 20t45.5 -24.5q12 -12 18 -28t5 -38t-22.5 -49.5t-62.5 -54.5zM1174 952l-3 420l-49 21q-56 26 -168 47t-227 22q-242 3 -405 -88q-162 -93 -183 -291q-25 -216 89 -350t399 -213q284 -82 383 -174q97 -90 82 -207q-8 -55 -47.5 -86
t-98.5 -35.5t-123 4.5t-133 31q-175 58 -332 223q-150 161 -252 347v-521q238 -137 603 -143q78 -2 147.5 6.5t138 32.5t122 62t94.5 99.5t59 141.5q56 252 -72.5 404.5t-472.5 238.5q-161 37 -241.5 89t-106.5 138q-46 163 72 228q197 113 501 -166q160 -141 224 -281z" />
    <glyph glyph-name="sacute" unicode="&#x15b;" horiz-adv-x="983" 
d="M721 1395q12 -12 18.5 -28.5t5.5 -38.5t-23 -49.5t-63 -53.5l-276 -172l170 278q28 46 61.5 68.5t61 20t45.5 -24.5zM920 293q0 -46 -8 -87.5t-32 -85.5t-61 -76t-101 -52.5t-147 -20.5q-223 0 -436 109l-6 356q103 -179 279 -307q122 -85 210 -109q102 -27 125 9
q34 58 -36 134.5t-236 147.5q-343 142 -334 365q6 119 107 207t293 88q170 0 303 -80l2 -2v-309q-70 136 -180 235q-114 105 -224 117q-55 6 -86 -22t-26 -68q15 -121 256 -226q192 -83 262 -159q73 -76 76 -164z" />
    <glyph glyph-name="Scedilla" unicode="&#x15e;" horiz-adv-x="1413" 
d="M725 944q344 -86 472.5 -238.5t72.5 -404.5q-27 -122 -111 -203q-81 -76 -179.5 -106.5t-234.5 -32.5l-32 -47q90 -6 132.5 -54.5t31.5 -115.5q-12 -65 -55 -101t-95 -40t-104.5 11t-87.5 46q63 -30 143 -10q82 21 88 90q7 56 -30 84t-101 33l74 104q-365 6 -603 143v521
q102 -186 252 -347q157 -165 332 -223q69 -22 133 -31t123 -4.5t98.5 35.5t47.5 86q15 117 -82 207q-99 92 -383 174q-285 79 -399 213t-89 350q21 198 183 291q163 91 405 88q115 -1 227 -22t168 -47l49 -21l3 -420q-64 140 -224 281q-304 279 -501 166q-118 -65 -72 -228
q26 -86 106.5 -138t241.5 -89z" />
    <glyph glyph-name="scedilla" unicode="&#x15f;" horiz-adv-x="983" 
d="M571 -29h-45l-45 -59q90 -6 132.5 -54.5t31.5 -115.5q-9 -62 -52 -98.5t-97 -42.5t-108 9t-85 48q63 -30 143 -10q82 21 91 90q6 56 -32 84t-102 33l89 118q-177 15 -357 107l-6 356q103 -179 279 -307q122 -85 210 -109q102 -27 125 9q34 58 -36 134.5t-236 147.5
q-343 142 -334 365q6 119 107 207t293 88q170 0 303 -80l2 -2v-309q-70 136 -180 235q-114 105 -224 117q-55 6 -86 -22t-26 -68q15 -121 256 -226q192 -83 262 -159q73 -76 76 -164q0 -46 -8 -87.5t-32 -85.5t-61 -76t-101 -52.5t-147 -20.5z" />
    <glyph glyph-name="Scaron" unicode="&#x160;" horiz-adv-x="1413" 
d="M451 1823l243 -178l215 180l-139 -285h-149zM1174 952l-3 420l-49 21q-56 26 -168 47t-227 22q-242 3 -405 -88q-162 -93 -183 -291q-25 -216 89 -350t399 -213q284 -82 383 -174q97 -90 82 -207q-8 -55 -47.5 -86t-98.5 -35.5t-123 4.5t-133 31q-175 58 -332 223
q-150 161 -252 347v-521q238 -137 603 -143q78 -2 147.5 6.5t138 32.5t122 62t94.5 99.5t59 141.5q56 252 -72.5 404.5t-472.5 238.5q-161 37 -241.5 89t-106.5 138q-46 163 72 228q197 113 501 -166q160 -141 224 -281z" />
    <glyph glyph-name="scaron" unicode="&#x161;" horiz-adv-x="983" 
d="M719 1335l-137 -282h-150l-170 282l244 -178zM920 293q0 -46 -8 -87.5t-32 -85.5t-61 -76t-101 -52.5t-147 -20.5q-223 0 -436 109l-6 356q103 -179 279 -307q122 -85 210 -109q102 -27 125 9q34 58 -36 134.5t-236 147.5q-343 142 -334 365q6 119 107 207t293 88
q170 0 303 -80l2 -2v-309q-70 136 -180 235q-114 105 -224 117q-55 6 -86 -22t-26 -68q15 -121 256 -226q192 -83 262 -159q73 -76 76 -164z" />
    <glyph glyph-name="uni0162" unicode="&#x162;" horiz-adv-x="1544" 
d="M125 1434h1264l71 -435q-123 177 -219 254q-175 144 -293 150v-1108q0 -76 25 -138t61 -94q37 -29 80 -43q55 -20 107 -20h-916q54 0 105 20q165 61 165 275v1108q-103 -3 -303 -162q-50 -40 -104 -100q-58 -61 -96 -105l-37 -45zM682 -145l98 135l43 10l-63 -88
q90 -6 132.5 -54.5t31.5 -115.5q-12 -65 -55 -101t-95 -40t-104.5 11t-87.5 46q63 -30 143 -10q81 21 90 90q6 56 -31.5 84t-101.5 33z" />
    <glyph glyph-name="uni0163" unicode="&#x163;" horiz-adv-x="804" 
d="M489 -27h-20l-45 -61q90 -6 132.5 -54.5t31.5 -115.5q-12 -65 -55 -101t-95 -40t-104.5 11t-87.5 46q63 -30 143 -10q82 21 88 90q7 56 -30 84t-101 33l86 120q-164 12 -241.5 115.5t-77.5 310.5v502h-76l-25 19h101v254l309 159q0 -270 -2 -413h213l-19 -19h-194v-506
q2 -144 44 -211.5t140 -68.5q66 -1 118 47t77 131q-20 -146 -98 -233.5t-212 -88.5z" />
    <glyph glyph-name="Tcaron" unicode="&#x164;" horiz-adv-x="1544" 
d="M1014 1825l-137 -285h-150l-170 283l244 -178zM125 1434h1264l71 -435q-123 177 -219 254q-175 144 -293 150v-1108q0 -76 25 -138t61 -94q37 -29 80 -43q55 -20 107 -20h-916q54 0 105 20q165 61 165 275v1108q-103 -3 -303 -162q-50 -40 -104 -100q-58 -61 -96 -105
l-37 -45z" />
    <glyph glyph-name="tcaron" unicode="&#x165;" horiz-adv-x="804" 
d="M758 1331q-62 -6 -108 32t-52 99q-8 62 30 109t99 53q54 6 96 -20q69 -37 84 -168q16 -134 -41 -279q-59 -151 -174 -229q78 69 121 194q43 124 21 236q-38 -24 -76 -27zM604 117q66 -1 118 47t77 131q-20 -146 -98 -233.5t-212 -88.5q-195 -1 -285.5 102t-90.5 326v502
h-76l-25 19h101v254l309 159q0 -270 -2 -413h213l-19 -19h-194v-506q2 -144 44 -211.5t140 -68.5z" />
    <glyph glyph-name="Tbar" unicode="&#x166;" horiz-adv-x="1544" 
d="M602 1612l404 2v-25h-404v23zM125 1434h1264l71 -435q-123 177 -219 254q-175 144 -293 150v-1108q0 -76 25 -138t61 -94q37 -29 80 -43q55 -20 107 -20h-916q54 0 105 20q165 61 165 275v1108q-103 -3 -303 -162q-50 -40 -104 -100q-58 -61 -96 -105l-37 -45z" />
    <glyph glyph-name="tbar" unicode="&#x167;" horiz-adv-x="804" 
d="M129 1421l403 2v-22h-403v20zM604 117q66 -1 118 47t77 131q-20 -146 -98 -233.5t-212 -88.5q-195 -1 -285.5 102t-90.5 326v502h-76l-25 19h101v254l309 159q0 -270 -2 -413h213l-19 -19h-194v-506q2 -144 44 -211.5t140 -68.5z" />
    <glyph glyph-name="Umacron" unicode="&#x16a;" horiz-adv-x="1593" 
d="M719 1638l403 2v-24h-403v22zM1294 676v414q0 87 -23.5 154t-55 101.5t-71 56t-64.5 27t-42 5.5h523q-46 -4 -97 -35q-139 -82 -139 -332v-422q0 -86 -2 -115q0 -30 -10 -122q-9 -82 -27 -134q-53 -156 -139 -221q-124 -92 -307 -92q-336 0 -478 154q-141 156 -141 508
v522q0 77 -21 137t-53 88q-29 29 -67 43q-47 21 -92 21h874q-45 0 -76 -11q-12 -4 -26 -10q-142 -51 -142 -268v-588q0 -275 98 -397.5t285 -104.5q159 13 226 158.5t67 462.5z" />
    <glyph glyph-name="umacron" unicode="&#x16b;" horiz-adv-x="1224" 
d="M430 1128l404 2v-24h-404v22zM502 186q38 -53 131 -47t153 78q-63 -95 -176 -170q-121 -77 -258 -65q-50 4 -88 29t-59 59q-20 34 -29 90q-5 33 -10 98v113v28v299q0 59 -16.5 106t-40.5 68q-54 48 -121 48h483v-222v-116v-138v-106q2 -14 5 -48t4.5 -45.5t7 -29
t14.5 -29.5zM793 98v625q-1 55 -18 95t-39 59.5t-49.5 30t-43.5 12t-25 0.5h480v-670q0 -58 39 -72q39 -15 59 -6l-403 -217v143z" />
    <glyph glyph-name="Uring" unicode="&#x16e;" horiz-adv-x="1593" 
d="M973 1780q56 0 89 -32.5t32 -90.5q-1 -38 -23 -67.5t-53 -42.5t-66.5 -8t-62.5 32q-27 25 -32.5 62.5t7.5 70t42.5 55t66.5 21.5zM975 1749q-35 0 -61.5 -27.5t-26.5 -62.5t26.5 -62.5t61.5 -27.5q37 0 62.5 26.5t25.5 63.5q0 36 -26 63t-62 27zM1294 676v414
q0 87 -23.5 154t-55 101.5t-71 56t-64.5 27t-42 5.5h523q-46 -4 -97 -35q-139 -82 -139 -332v-422q0 -86 -2 -115q0 -30 -10 -122q-9 -82 -27 -134q-53 -156 -139 -221q-124 -92 -307 -92q-336 0 -478 154q-141 156 -141 508v522q0 77 -21 137t-53 88q-29 29 -67 43
q-47 21 -92 21h874q-45 0 -76 -11q-12 -4 -26 -10q-142 -51 -142 -268v-588q0 -275 98 -397.5t285 -104.5q159 13 226 158.5t67 462.5z" />
    <glyph glyph-name="uring" unicode="&#x16f;" horiz-adv-x="1224" 
d="M647 1294q55 0 88.5 -33.5t32.5 -89.5q-1 -38 -23 -67.5t-53 -42.5t-66.5 -8t-62.5 32q-27 25 -32.5 62.5t7.5 70t42.5 55t66.5 21.5zM649 1264q-35 0 -60.5 -27t-25.5 -63q0 -37 25.5 -64t60.5 -27q36 0 62 27t26 64q0 36 -26 63t-62 27zM502 186q38 -53 131 -47t153 78
q-63 -95 -176 -170q-121 -77 -258 -65q-50 4 -88 29t-59 59q-20 34 -29 90q-5 33 -10 98v113v28v299q0 59 -16.5 106t-40.5 68q-54 48 -121 48h483v-222v-116v-138v-106q2 -14 5 -48t4.5 -45.5t7 -29t14.5 -29.5zM793 98v625q-1 55 -18 95t-39 59.5t-49.5 30t-43.5 12
t-25 0.5h480v-670q0 -58 39 -72q39 -15 59 -6l-403 -217v143z" />
    <glyph glyph-name="Uhungarumlaut" unicode="&#x170;" horiz-adv-x="1593" 
d="M985 1888q12 -12 18 -28t5.5 -38t-22 -49.5t-62.5 -54.5l-277 -172l170 279q28 46 61.5 68t61 19.5t45.5 -24.5zM1223 1718l-277 -172l168 279q28 46 61.5 68t61 19.5t45.5 -24.5q13 -13 19.5 -28.5t6.5 -37.5t-21.5 -49t-63.5 -55zM1294 676v414q0 87 -23.5 154
t-55 101.5t-71 56t-64.5 27t-42 5.5h523q-46 -4 -97 -35q-139 -82 -139 -332v-422q0 -86 -2 -115q0 -30 -10 -122q-9 -82 -27 -134q-53 -156 -139 -221q-124 -92 -307 -92q-336 0 -478 154q-141 156 -141 508v522q0 77 -21 137t-53 88q-29 29 -67 43q-47 21 -92 21h874
q-45 0 -76 -11q-12 -4 -26 -10q-142 -51 -142 -268v-588q0 -275 98 -397.5t285 -104.5q159 13 226 158.5t67 462.5z" />
    <glyph glyph-name="uhungarumlaut" unicode="&#x171;" horiz-adv-x="1224" 
d="M762 1395q12 -12 18 -28t5 -38t-22.5 -49.5t-62.5 -54.5l-276 -172l170 278q28 46 61.5 68.5t61 20t45.5 -24.5zM958 1225l-276 -172l168 278q28 46 61.5 68.5t61 20t45.5 -24.5q13 -13 19.5 -28.5t6 -37.5t-22 -49t-63.5 -55zM502 186q38 -53 131 -47t153 78
q-63 -95 -176 -170q-121 -77 -258 -65q-50 4 -88 29t-59 59q-20 34 -29 90q-5 33 -10 98v113v28v299q0 59 -16.5 106t-40.5 68q-54 48 -121 48h483v-222v-116v-138v-106q2 -14 5 -48t4.5 -45.5t7 -29t14.5 -29.5zM793 98v625q-1 55 -18 95t-39 59.5t-49.5 30t-43.5 12
t-25 0.5h480v-670q0 -58 39 -72q39 -15 59 -6l-403 -217v143z" />
    <glyph glyph-name="Uogonek" unicode="&#x172;" horiz-adv-x="1593" 
d="M1294 676v414q0 87 -23.5 154t-55 101.5t-71 56t-64.5 27t-42 5.5h523q-46 -4 -97 -35q-139 -82 -139 -332v-422q0 -79 -2 -106q0 -47 -8 -115q-6 -75 -21 -125q-40 -145 -116 -219q-104 -96 -256 -115q-76 -76 -52 -182q21 -81 97 -109t125 4q-31 -36 -92.5 -52
t-124.5 -8t-116.5 48.5t-68.5 106.5q-30 109 35 192q-269 25 -386.5 180t-117.5 478v522q0 77 -21 137t-53 88q-29 29 -67 43q-47 21 -92 21h874q-45 0 -76 -11q-12 -4 -26 -10q-142 -51 -142 -268v-588q0 -275 98 -397.5t285 -104.5q159 13 226 158.5t67 462.5z" />
    <glyph glyph-name="uogonek" unicode="&#x173;" horiz-adv-x="1224" 
d="M502 186q38 -53 131 -47t153 78q-34 -58 -98.5 -114t-138.5 -87q-47 -41 -73 -102.5t-9 -130.5q22 -82 96 -109q76 -28 125 4q-31 -36 -92.5 -52t-124.5 -8t-117 48.5t-69 106.5q-15 42 -0.5 107t53.5 104q-111 18 -141 106q-23 68 -29 129q-2 63 -2 152v28v299
q0 59 -16.5 106t-40.5 68q-54 48 -121 48h483v-222v-116v-138v-106q2 -14 5 -48t4.5 -45.5t7 -29t14.5 -29.5zM793 98v625q-1 55 -18 95t-39 59.5t-49.5 30t-43.5 12t-25 0.5h480v-670q0 -58 39 -72q39 -15 59 -6l-403 -217v143z" />
    <glyph glyph-name="Wcircumflex" unicode="&#x174;" horiz-adv-x="2273" 
d="M1270 1806l139 -282l-215 178l-244 -178l172 282h148zM1862 1434h565q-123 -43 -168 -80q-80 -64 -125 -187l-475 -1284l-504 1032l-383 -1032l-659 1354q-83 197 -312 197h887h113h885q-4 0 -10.5 -1t-25.5 -5t-37 -9.5t-41.5 -16t-42 -23t-35 -32t-24 -42t-5.5 -53.5
t16 -66q50 -116 215 -455q24 -55 61 -113q37 -57 66 -57q33 0 51.5 19.5t46.5 91.5l172 454q47 129 -20 217q-69 91 -211 91zM1034 674l105 274l-68 139l-72 150q-67 163 -233 190q-52 -11 -113 -43q-110 -65 -57 -198q73 -172 213 -455q77 -170 127 -170q33 0 51 20.5
t47 92.5z" />
    <glyph glyph-name="wcircumflex" unicode="&#x175;" horiz-adv-x="1482" 
d="M930 1290l139 -284l-215 180l-244 -178l170 282h150zM1186 922h438q-116 -21 -190 -101q-50 -50 -74 -108l-305 -789l-318 678l-221 -678l-416 817q-34 70 -89 117.5t-97 54.5l-37 7h615q-43 0 -75 -25q-49 -40 -18 -123l162 -348q30 -70 55 -70q31 0 58 88l57 172
l-61 131q-36 71 -80.5 117t-73.5 51l-24 7h602q-16 0 -60 -15q-30 -10 -43 -28q-44 -69 -10 -144l162 -344q20 -39 41 -39q25 0 39 39q0 1 0.5 2t1.5 3.5t2 4.5l4 11l115 290l8 23q28 85 -29 139q-57 57 -139 60z" />
    <glyph glyph-name="Ycircumflex" unicode="&#x176;" horiz-adv-x="1349" 
d="M639 1524l170 282h149l138 -282l-213 178zM1016 1434q120 -12 157.5 -84.5t-20.5 -175.5l-188 -343q-25 -44 -47 -64t-42 -17t-37 19.5t-36 49.5l-217 371q-52 91 -11 166q43 76 138 76l-801 2q54 0 140 -65t161 -185l272 -434q62 -103 62 -271l-2 -237q0 -72 -26 -126.5
t-66 -78.5q-70 -37 -115 -37h803q-56 4 -123 39q-44 26 -71 81t-27 130v299q0 160 36 225l220 393q125 223 317 267h-477z" />
    <glyph glyph-name="ycircumflex" unicode="&#x177;" horiz-adv-x="954" 
d="M684 1290l139 -284l-213 180l-245 -178l172 282h147zM649 922h445q-120 -24 -193 -103q-48 -45 -74 -110l-329 -793l-68 -162q-53 -127 -111 -157q-52 -32 -135 -23q-51 7 -78.5 55.5t-13.5 102.5q8 39 39.5 63t77.5 23q30 -3 65 -41q34 -40 43 -43q78 -27 121 86l43 110
l-375 813q-33 73 -86 120.5t-94 54.5l-37 4h662q-4 0 -11 -1t-26 -6t-35 -12.5t-33 -22t-25 -33t-6 -48t19 -64.5l164 -346q15 -35 39 -35q19 0 29 13l10 22l133 309l8 21q27 88 -31 143q-57 57 -137 60z" />
    <glyph glyph-name="Ydieresis" unicode="&#x178;" horiz-adv-x="1349" 
d="M610 1622q-57 0 -99 43t-42 104q0 55 42 94.5t99 39.5q61 0 103.5 -39t42.5 -95q0 -62 -42.5 -104.5t-103.5 -42.5zM1096 1622q-58 0 -100 43t-42 104q0 55 42.5 94.5t99.5 39.5q61 0 103 -39t42 -95q0 -62 -42 -104.5t-103 -42.5zM1016 1434h477q-192 -44 -317 -267
l-220 -393q-36 -65 -36 -225v-299q0 -75 27 -130t71 -81q67 -35 123 -39h-803q45 0 115 37q40 24 66 78.5t26 126.5l2 237q0 168 -62 271l-272 434q-75 120 -161 185t-140 65l801 -2q-95 0 -138 -76q-41 -75 11 -166l217 -371q19 -33 36 -49.5t37 -19.5t42 17t47 64l188 343
q58 103 20.5 175.5t-157.5 84.5z" />
    <glyph glyph-name="Zacute" unicode="&#x179;" horiz-adv-x="1441" 
d="M993 1901q13 -13 19.5 -28.5t6.5 -37.5t-21.5 -49t-63.5 -55l-277 -172l168 278q28 46 61.5 68.5t61 20t45.5 -24.5zM877 127l155 109q98 70 175.5 144.5t99.5 113.5l22 34l-110 -530l-1252 2l793 1227q102 156 51 176q-16 4 -31 4h-10q-205 0 -440 -168
q-96 -68 -162 -129q-74 -68 -111 -115l-37 -43l138 484l1155 -2l-365 -572l-407 -635q-36 -54 -44.5 -101t13 -76t68.5 -30q78 3 163 39q89 41 136 68z" />
    <glyph glyph-name="zacute" unicode="&#x17a;" 
d="M512 1053l170 278q27 46 60.5 68.5t61.5 20t46 -24.5q12 -12 18 -28t5 -38t-22.5 -49.5t-62.5 -54.5zM496 -2l8 2q-50 0 -58 33.5t29 87.5l594 821l-897 4l-86 -348l31 29q81 81 192 161q180 131 312 140q44 -1 48.5 -34.5t-32.5 -80.5l-594 -827l944 -4l103 467l-35 -56
q-37 -56 -103 -131q-68 -77 -133 -127q-191 -134 -323 -137z" />
    <glyph glyph-name="Zdotaccent" unicode="&#x17b;" horiz-adv-x="1441" 
d="M829 1681q-38 -41 -93.5 -41t-96.5 41q-41 42 -41 98t39 95q41 41 98.5 41t95.5 -41q39 -39 39 -95t-41 -98zM877 127l155 109q98 70 175.5 144.5t99.5 113.5l22 34l-110 -530l-1252 2l793 1227q102 156 51 176q-16 4 -31 4h-10q-205 0 -440 -168q-96 -68 -162 -129
q-74 -68 -111 -115l-37 -43l138 484l1155 -2l-365 -572l-407 -635q-36 -54 -44.5 -101t13 -76t68.5 -30q78 3 163 39q89 41 136 68z" />
    <glyph glyph-name="zdotaccent" unicode="&#x17c;" 
d="M647 1092q-61 0 -105 43.5t-44 103.5t44 103.5t105 43.5q60 0 102 -43.5t42 -103.5t-42 -103.5t-102 -43.5zM504 0l-8 -2q132 3 323 137q65 50 133 127q66 75 103 131l35 56l-103 -467l-944 4l594 827q37 47 32.5 80.5t-48.5 34.5q-132 -9 -312 -140q-111 -80 -192 -161
l-31 -29l86 348l897 -4l-594 -821q-37 -54 -29 -87.5t58 -33.5z" />
    <glyph glyph-name="Zcaron" unicode="&#x17d;" horiz-adv-x="1441" 
d="M922 1825l-140 -285h-147l-172 283l246 -178zM877 127l155 109q98 70 175.5 144.5t99.5 113.5l22 34l-110 -530l-1252 2l793 1227q102 156 51 176q-16 4 -31 4h-10q-205 0 -440 -168q-96 -68 -162 -129q-74 -68 -111 -115l-37 -43l138 484l1155 -2l-365 -572l-407 -635
q-36 -54 -44.5 -101t13 -76t68.5 -30q78 3 163 39q89 41 136 68z" />
    <glyph glyph-name="zcaron" unicode="&#x17e;" 
d="M426 1335l244 -178l215 178l-140 -282h-147zM496 -2l8 2q-50 0 -58 33.5t29 87.5l594 821l-897 4l-86 -348l31 29q81 81 192 161q180 131 312 140q44 -1 48.5 -34.5t-32.5 -80.5l-594 -827l944 -4l103 467l-35 -56q-37 -56 -103 -131q-68 -77 -133 -127
q-191 -134 -323 -137z" />
    <glyph glyph-name="Scommaaccent" unicode="&#x218;" horiz-adv-x="1413" 
d="M725 944q344 -86 472.5 -238.5t72.5 -404.5q-18 -80 -59 -141.5t-94.5 -99.5t-122 -62t-138 -32.5t-147.5 -6.5q-365 6 -603 143v521q102 -186 252 -347q157 -165 332 -223q69 -22 133 -31t123 -4.5t98.5 35.5t47.5 86q15 117 -82 207q-99 92 -383 174q-285 79 -399 213
t-89 350q21 198 183 291q163 91 405 88q115 -1 227 -22t168 -47l49 -21l3 -420q-64 140 -224 281q-304 279 -501 166q-118 -65 -72 -228q26 -86 106.5 -138t241.5 -89zM827 -195q19 -16 29 -47q25 -55 27 -137t-18 -168.5t-71.5 -169t-125.5 -131.5q76 70 120 197
q43 124 21 235q-36 -23 -76 -26q-62 -8 -108 30t-52 101q-8 62 30 108.5t99 50.5q63 6 107 -26q2 -1 18 -17z" />
    <glyph glyph-name="scommaaccent" unicode="&#x219;" horiz-adv-x="983" 
d="M920 293q0 -46 -8 -87.5t-32 -85.5t-61 -76t-101 -52.5t-147 -20.5q-223 0 -436 109l-6 356q103 -179 279 -307q122 -85 210 -109q102 -27 125 9q34 58 -36 134.5t-236 147.5q-343 142 -334 365q6 119 107 207t293 88q170 0 303 -80l2 -2v-309q-70 136 -180 235
q-114 105 -224 117q-55 6 -86 -22t-26 -68q15 -121 256 -226q192 -83 262 -159q73 -76 76 -164zM555 -172q71 -38 86 -166q15 -135 -41 -280q-59 -152 -174 -230q75 66 119 197q42 122 20 235q-36 -23 -76 -26q-61 -7 -107 30.5t-52 100.5q-6 62 31.5 108.5t97.5 50.5
q54 6 96 -20z" />
    <glyph glyph-name="uni021A" unicode="&#x21a;" horiz-adv-x="1544" 
d="M125 1434h1264l71 -435q-123 177 -219 254q-175 144 -293 150v-1108q0 -76 25 -138t61 -94q37 -29 80 -43q55 -20 107 -20h-916q54 0 105 20q165 61 165 275v1108q-103 -3 -303 -162q-50 -40 -104 -100q-58 -61 -96 -105l-37 -45zM885 -195q17 -15 28 -47q25 -55 27 -137
t-18 -168.5t-71.5 -169t-125.5 -131.5q78 72 121 197q42 122 20 235q-36 -23 -75 -26q-63 -7 -108.5 30.5t-53.5 100.5q-6 62 32 108.5t99 50.5q62 6 106 -26q4 -2 19 -17z" />
    <glyph glyph-name="uni021B" unicode="&#x21b;" horiz-adv-x="804" 
d="M604 117q66 -1 118 47t77 131q-20 -146 -98 -233.5t-212 -88.5q-195 -1 -285.5 102t-90.5 326v502h-76l-25 19h101v254l309 159q0 -270 -2 -413h213l-19 -19h-194v-506q2 -144 44 -211.5t140 -68.5zM498 -172q69 -34 84 -164q15 -135 -41 -280q-60 -155 -174 -232
q76 70 120 197q43 124 21 235q-36 -23 -76 -26q-62 -8 -108 30t-52 101q-7 61 31 107.5t98 51.5q55 6 97 -20z" />
    <glyph glyph-name="circumflex" unicode="&#x2c6;" horiz-adv-x="722" 
d="M129 989l170 283h150l137 -285l-213 180z" />
    <glyph glyph-name="caron" unicode="&#x2c7;" horiz-adv-x="722" 
d="M129 1317l244 -178l213 180l-137 -285h-150z" />
    <glyph glyph-name="breve" unicode="&#x2d8;" horiz-adv-x="669" 
d="M338 1182q177 0 201 121q-3 -85 -56 -156q-52 -70 -141 -70q-94 0 -150.5 66t-58.5 162q12 -59 69 -91t136 -32z" />
    <glyph glyph-name="dotaccent" unicode="&#x2d9;" horiz-adv-x="536" 
d="M135 1194q0 56 40 95.5t97 39.5t96.5 -39.5t39.5 -95.5q0 -57 -39.5 -98t-96.5 -41t-97 41t-40 98z" />
    <glyph glyph-name="ring" unicode="&#x2da;" horiz-adv-x="1228" 
d="M494 1051q-51 0 -86 35t-35 85t36 86.5t85 36.5q52 0 86.5 -33.5t33.5 -89.5q-5 -51 -38.5 -85.5t-81.5 -34.5zM582 1174q0 36 -25 63t-61 27t-62 -27t-26 -63q0 -37 26 -64t62 -27t61 27t25 64z" />
    <glyph glyph-name="ogonek" unicode="&#x2db;" horiz-adv-x="593" 
d="M141 0h201q-121 -95 -90 -217q22 -82 96 -109q76 -28 125 4q-31 -36 -92.5 -52t-124.5 -8t-117 48.5t-69 106.5q-21 48 -1 117t72 110z" />
    <glyph glyph-name="tilde" unicode="&#x2dc;" horiz-adv-x="786" 
d="M80 1040q1 133 58.5 204.5t154.5 60.5q59 -6 133 -68q76 -58 127 -61q54 -5 101.5 35t58.5 110q-2 -101 -53 -175.5t-134 -80.5q-46 -3 -91.5 17.5t-76 46.5t-65 49t-60.5 24q-123 0 -153 -162z" />
    <glyph glyph-name="hungarumlaut" unicode="&#x2dd;" horiz-adv-x="880" 
d="M338 1006l170 278q28 44 61.5 67t61 21t45.5 -26q13 -10 19.5 -26.5t4.5 -38.5t-23.5 -49.5t-62.5 -53.5zM596 1006l170 278q28 44 61.5 67t61 21t45.5 -26q13 -11 19.5 -27.5t4.5 -38.5t-23.5 -49t-62.5 -53z" />
    <glyph glyph-name="Wgrave" unicode="&#x1e80;" horiz-adv-x="2273" 
d="M1272 1581l-277 172q-41 26 -62.5 53.5t-23 49.5t5 38.5t19.5 26.5q18 24 45.5 26.5t61 -20.5t61.5 -69zM1862 1434h565q-123 -43 -168 -80q-80 -64 -125 -187l-475 -1284l-504 1032l-383 -1032l-659 1354q-83 197 -312 197h887h113h885q-4 0 -10.5 -1t-25.5 -5t-37 -9.5
t-41.5 -16t-42 -23t-35 -32t-24 -42t-5.5 -53.5t16 -66q50 -116 215 -455q24 -55 61 -113q37 -57 66 -57q33 0 51.5 19.5t46.5 91.5l172 454q47 129 -20 217q-69 91 -211 91zM1034 674l105 274l-68 139l-72 150q-67 163 -233 190q-52 -11 -113 -43q-110 -65 -57 -198
q73 -172 213 -455q77 -170 127 -170q33 0 51 20.5t47 92.5z" />
    <glyph glyph-name="wgrave" unicode="&#x1e81;" horiz-adv-x="1482" 
d="M995 1051l-276 172q-41 27 -62.5 54t-22.5 49t5.5 38t19.5 27q18 24 45.5 26t61 -21t61.5 -67zM1186 922h438q-116 -21 -190 -101q-50 -50 -74 -108l-305 -789l-318 678l-221 -678l-416 817q-34 70 -89 117.5t-97 54.5l-37 7h615q-43 0 -75 -25q-49 -40 -18 -123
l162 -348q30 -70 55 -70q31 0 58 88l57 172l-61 131q-36 71 -80.5 117t-73.5 51l-24 7h602q-16 0 -60 -15q-30 -10 -43 -28q-44 -69 -10 -144l162 -344q20 -39 41 -39q25 0 39 39q0 1 0.5 2t1.5 3.5t2 4.5l4 11l115 290l8 23q28 85 -29 139q-57 57 -139 60z" />
    <glyph glyph-name="Wacute" unicode="&#x1e82;" horiz-adv-x="2273" 
d="M1423 1901q13 -13 19.5 -28.5t6.5 -37.5t-21.5 -49t-63.5 -55l-277 -172l168 278q28 46 61.5 68.5t61 20t45.5 -24.5zM1862 1434h565q-123 -43 -168 -80q-80 -64 -125 -187l-475 -1284l-504 1032l-383 -1032l-659 1354q-83 197 -312 197h887h113h885q-4 0 -10.5 -1
t-25.5 -5t-37 -9.5t-41.5 -16t-42 -23t-35 -32t-24 -42t-5.5 -53.5t16 -66q50 -116 215 -455q24 -55 61 -113q37 -57 66 -57q33 0 51.5 19.5t46.5 91.5l172 454q47 129 -20 217q-69 91 -211 91zM1034 674l105 274l-68 139l-72 150q-67 163 -233 190q-52 -11 -113 -43
q-110 -65 -57 -198q73 -172 213 -455q77 -170 127 -170q33 0 51 20.5t47 92.5z" />
    <glyph glyph-name="wacute" unicode="&#x1e83;" horiz-adv-x="1482" 
d="M1112 1395q12 -12 18 -28t5.5 -38t-22 -49.5t-62.5 -54.5l-277 -172l170 278q28 46 61.5 68.5t61 20t45.5 -24.5zM1186 922h438q-116 -21 -190 -101q-50 -50 -74 -108l-305 -789l-318 678l-221 -678l-416 817q-34 70 -89 117.5t-97 54.5l-37 7h615q-43 0 -75 -25
q-49 -40 -18 -123l162 -348q30 -70 55 -70q31 0 58 88l57 172l-61 131q-36 71 -80.5 117t-73.5 51l-24 7h602q-16 0 -60 -15q-30 -10 -43 -28q-44 -69 -10 -144l162 -344q20 -39 41 -39q25 0 39 39q0 1 0.5 2t1.5 3.5t2 4.5l4 11l115 290l8 23q28 85 -29 139q-57 57 -139 60
z" />
    <glyph glyph-name="Wdieresis" unicode="&#x1e84;" horiz-adv-x="2273" 
d="M952 1626q-57 0 -99 43.5t-42 104.5q0 55 42 94t99 39q61 0 102.5 -38.5t41.5 -94.5q0 -62 -41.5 -105t-102.5 -43zM1438 1626q-57 0 -99.5 43.5t-42.5 104.5q0 55 42 94t100 39q61 0 103 -38.5t42 -94.5q0 -62 -42 -105t-103 -43zM1862 1434h565q-123 -43 -168 -80
q-80 -64 -125 -187l-475 -1284l-504 1032l-383 -1032l-659 1354q-83 197 -312 197h887h113h885q-4 0 -10.5 -1t-25.5 -5t-37 -9.5t-41.5 -16t-42 -23t-35 -32t-24 -42t-5.5 -53.5t16 -66q50 -116 215 -455q24 -55 61 -113q37 -57 66 -57q33 0 51.5 19.5t46.5 91.5l172 454
q47 129 -20 217q-69 91 -211 91zM1034 674l105 274l-68 139l-72 150q-67 163 -233 190q-52 -11 -113 -43q-110 -65 -57 -198q73 -172 213 -455q77 -170 127 -170q33 0 51 20.5t47 92.5z" />
    <glyph glyph-name="wdieresis" unicode="&#x1e85;" horiz-adv-x="1482" 
d="M606 1110q-57 0 -99 43t-42 104q0 55 42 94.5t99 39.5q61 0 103.5 -39t42.5 -95q0 -62 -42.5 -104.5t-103.5 -42.5zM1092 1110q-58 0 -100 43t-42 104q0 55 42.5 94.5t99.5 39.5q61 0 103 -39t42 -95q0 -62 -42 -104.5t-103 -42.5zM1186 922h438q-116 -21 -190 -101
q-50 -50 -74 -108l-305 -789l-318 678l-221 -678l-416 817q-34 70 -89 117.5t-97 54.5l-37 7h615q-43 0 -75 -25q-49 -40 -18 -123l162 -348q30 -70 55 -70q31 0 58 88l57 172l-61 131q-36 71 -80.5 117t-73.5 51l-24 7h602q-16 0 -60 -15q-30 -10 -43 -28q-44 -69 -10 -144
l162 -344q20 -39 41 -39q25 0 39 39q0 1 0.5 2t1.5 3.5t2 4.5l4 11l115 290l8 23q28 85 -29 139q-57 57 -139 60z" />
    <glyph glyph-name="uni1EA0" unicode="&#x1ea0;" horiz-adv-x="1372" 
d="M664 1552l616 -1372q34 -75 98 -121q41 -27 77.5 -40.5t56 -16t47.5 -2.5h-900q5 1 14 3t33.5 10.5t45 19.5t43 31.5t34 45t11 62t-18.5 80.5l-116 289l-457 2l-115 -269q-41 -101 4 -182q47 -83 160 -92h-502q78 5 157.5 70.5t125.5 171.5l579 1329zM489 1024
q-40 0 -131 -223l-98 -230h432l-112 279l-45 111q-22 63 -46 63zM1567 0h-8h8zM621 -137q60 0 102.5 -44t42.5 -104t-42.5 -103.5t-102.5 -43.5q-61 0 -105.5 43.5t-44.5 103.5t44.5 104t105.5 44z" />
    <glyph glyph-name="uni1EA1" unicode="&#x1ea1;" horiz-adv-x="1157" 
d="M682 131v416q-168 -52 -227 -105q-59 -50 -62 -147q0 -120 80 -158q106 -46 199 47l-15 -18q-53 -67 -75 -92q-37 -39 -103 -73t-131 -34q-130 0 -188 76t-58 170q3 151 193 233q81 38 387 119v115q0 157 -42 224.5t-142 49.5q-24 -4 -36.5 -7.5t-27.5 -14t-22.5 -28
t-14 -49t-8.5 -77.5q0 -25 19.5 -82.5t21.5 -68.5q1 -59 -42 -97t-103 -38q-62 0 -104 37.5t-38 113.5q3 99 72 174q122 127 295 152q45 9 96.5 9.5t108 -6.5t107 -28.5t90 -53.5t61.5 -84t18 -118v-448q0 -131 74 -146q30 1 57 29t39 61l10 27q-43 -248 -262 -248
q-98 0 -162.5 47t-64.5 121zM635 -432q-61 0 -105.5 43.5t-44.5 103.5t44.5 104t105.5 44q60 0 102.5 -44t42.5 -104t-42.5 -103.5t-102.5 -43.5z" />
    <glyph glyph-name="uni1EB8" unicode="&#x1eb8;" horiz-adv-x="1564" 
d="M1171 178q98 76 178.5 156.5t108.5 124.5l23 39l-92 -498h-1379q50 0 129 39q52 24 84.5 81t32.5 134v942q0 79 -32 133.5t-85 73.5q-78 31 -129 31h1325l68 -476q-71 133 -328 316q-189 137 -432 137h-12v-655h6q66 2 124.5 24t97.5 52.5t71 70t48.5 70.5t25.5 59l10 33
v-672q-4 35 -45 115q-25 53 -68 100q-42 48 -113 82.5t-151 34.5h-6v-467q0 -234 190 -240q67 3 170 50q109 53 180 110zM739 -137q60 0 103 -44t43 -104t-43 -103.5t-103 -43.5q-61 0 -105 43.5t-44 103.5t44 104t105 44z" />
    <glyph glyph-name="uni1EB9" unicode="&#x1eb9;" 
d="M727 168q115 1 194.5 50t106.5 130q-12 -165 -135 -276q-121 -112 -313 -103q-231 9 -357 150q-128 143 -131 346q-3 299 225 438q81 49 181 64q105 18 176 6q150 -27 250 -139q97 -109 94 -293h-645q0 -170 97 -272.5t257 -100.5zM520 922q-83 -56 -117 -174
q-33 -113 -30 -195q129 0 194 12q97 15 162 80q60 57 57 166t-73 143q-88 34 -193 -32zM612 -432q-61 0 -105 43.5t-44 103.5t44 104t105 44q60 0 103 -44t43 -104t-43 -103.5t-103 -43.5z" />
    <glyph glyph-name="uni1ECA" unicode="&#x1eca;" horiz-adv-x="962" 
d="M649 1161v-889q0 -73 24 -127.5t55.5 -81t71.5 -42t61 -18.5t36 -3h-864q15 0 36 3t60.5 18.5t70.5 42t55 81t24 127.5v889q0 71 -23.5 127.5t-56.5 83.5q-24 24 -70 41q-50 21 -96 21h864q-46 0 -96 -21q-152 -53 -152 -252zM481 -137q60 0 103 -44t43 -104t-43 -103.5
t-103 -43.5q-61 0 -105 43.5t-44 103.5t44 104t105 44z" />
    <glyph glyph-name="uni1ECB" unicode="&#x1ecb;" horiz-adv-x="800" 
d="M401 1018q-69 0 -119.5 51t-50.5 123t50.5 122t119.5 50q72 0 122 -50t50 -122t-50 -123t-122 -51zM565 975v-754q0 -57 16.5 -104t39.5 -70q53 -47 122 -47h-682q38 0 76 14q125 42 125 207v438q0 38 -15 61t-36.5 28.5t-42 4t-35.5 -9.5zM434 -137q60 0 103 -44
t43 -104t-43 -103.5t-103 -43.5q-61 0 -105 43.5t-44 103.5t44 104t105 44z" />
    <glyph glyph-name="Ygrave" unicode="&#x1ef2;" horiz-adv-x="1349" 
d="M778 1858l170 -277l-276 172q-41 26 -62.5 53.5t-23.5 49.5t4.5 38.5t19.5 26.5q18 24 45.5 26.5t61 -20.5t61.5 -69zM1016 1434h477q-192 -44 -317 -267l-220 -393q-36 -65 -36 -225v-299q0 -75 27 -130t71 -81q67 -35 123 -39h-803q45 0 115 37q40 24 66 78.5t26 126.5
l2 237q0 168 -62 271l-272 434q-75 120 -161 185t-140 65l801 -2q-95 0 -138 -76q-41 -75 11 -166l217 -371q19 -33 36 -49.5t37 -19.5t42 17t47 64l188 343q58 103 20.5 175.5t-157.5 84.5z" />
    <glyph glyph-name="ygrave" unicode="&#x1ef3;" horiz-adv-x="954" 
d="M713 1051l-277 172q-41 27 -62 54t-22.5 49t5.5 38t20 27q18 24 45.5 26t61 -21t61.5 -67zM649 922h445q-120 -24 -193 -103q-48 -45 -74 -110l-329 -793l-68 -162q-53 -127 -111 -157q-52 -32 -135 -23q-51 7 -78.5 55.5t-13.5 102.5q8 39 39.5 63t77.5 23q30 -3 65 -41
q34 -40 43 -43q78 -27 121 86l43 110l-375 813q-33 73 -86 120.5t-94 54.5l-37 4h662q-4 0 -11 -1t-26 -6t-35 -12.5t-33 -22t-25 -33t-6 -48t19 -64.5l164 -346q15 -35 39 -35q19 0 29 13l10 22l133 309l8 21q27 88 -31 143q-57 57 -137 60z" />
    <glyph glyph-name="uni1EF4" unicode="&#x1ef4;" horiz-adv-x="1349" 
d="M1016 1434h477q-192 -44 -317 -267l-220 -393q-36 -65 -36 -225v-299q0 -75 27 -130t71 -81q67 -35 123 -39h-803q45 0 115 37q40 24 66 78.5t26 126.5l2 237q0 168 -62 271l-272 434q-75 120 -161 185t-140 65l801 -2q-95 0 -138 -76q-41 -75 11 -166l217 -371
q19 -33 36 -49.5t37 -19.5t42 17t47 64l188 343q58 103 20.5 175.5t-157.5 84.5zM717 -432q-61 0 -105.5 43.5t-44.5 103.5t44.5 104t105.5 44q60 0 101.5 -44t41.5 -104t-41.5 -103.5t-101.5 -43.5z" />
    <glyph glyph-name="uni1EF5" unicode="&#x1ef5;" horiz-adv-x="954" 
d="M649 922h445q-120 -24 -193 -103q-48 -45 -74 -110l-329 -793l-68 -162q-53 -127 -111 -157q-52 -32 -135 -23q-51 7 -78.5 55.5t-13.5 102.5q8 39 39.5 63t77.5 23q30 -3 65 -41q34 -40 43 -43q78 -27 121 86l43 110l-375 813q-33 73 -86 120.5t-94 54.5l-37 4h662
q-4 0 -11 -1t-26 -6t-35 -12.5t-33 -22t-25 -33t-6 -48t19 -64.5l164 -346q15 -35 39 -35q19 0 29 13l10 22l133 309l8 21q27 88 -31 143q-57 57 -137 60zM516 -479q60 0 103 -44t43 -104t-43 -103.5t-103 -43.5q-61 0 -105 43.5t-44 103.5t44 104t105 44z" />
    <glyph glyph-name="uni1EF9" unicode="&#x1ef9;" horiz-adv-x="954" 
d="M461 1202q-124 0 -154 -162q1 133 58.5 204.5t154.5 60.5q59 -6 133 -68q76 -58 127 -61q54 -5 101.5 35t58.5 110q-2 -101 -52 -175.5t-132 -80.5q-44 -2 -81 11t-63 33t-49 40.5t-49 35.5t-53 17zM649 922h445q-120 -24 -193 -103q-48 -45 -74 -110l-329 -793l-68 -162
q-53 -127 -111 -157q-52 -32 -135 -23q-51 7 -78.5 55.5t-13.5 102.5q8 39 39.5 63t77.5 23q30 -3 65 -41q34 -40 43 -43q78 -27 121 86l43 110l-375 813q-33 73 -86 120.5t-94 54.5l-37 4h662q-4 0 -11 -1t-26 -6t-35 -12.5t-33 -22t-25 -33t-6 -48t19 -64.5l164 -346
q15 -35 39 -35q19 0 29 13l10 22l133 309l8 21q27 88 -31 143q-57 57 -137 60z" />
    <glyph glyph-name="endash" unicode="&#x2013;" horiz-adv-x="1226" 
d="M125 557v31h977v-31h-977z" />
    <glyph glyph-name="emdash" unicode="&#x2014;" horiz-adv-x="1488" 
d="M125 557v31h1239v-31h-1239z" />
    <glyph glyph-name="quoteleft" unicode="&#x2018;" horiz-adv-x="561" 
d="M442 1366q6 -63 -31.5 -109.5t-97.5 -52.5q-52 -6 -98 21q-32 21 -45 45l-6 10q-29 53 -33 137t15.5 172.5t72 174.5t127.5 137q-77 -68 -121 -195q-40 -124 -18 -236q35 24 76 27q61 6 107 -31.5t52 -99.5z" />
    <glyph glyph-name="quoteright" unicode="&#x2019;" horiz-adv-x="561" 
d="M406 1530q27 -86 24 -195q-3 -106 -61 -225q-58 -117 -154 -182q79 70 119 194q42 122 20 236q-35 -24 -73 -27q-63 -6 -108.5 31.5t-53.5 99.5q-6 63 31.5 109.5t97.5 52.5q62 6 106 -27l15 -10q26 -26 37 -57z" />
    <glyph glyph-name="quotesinglbase" unicode="&#x201a;" horiz-adv-x="561" 
d="M403 201q25 -58 27 -140.5t-18 -168.5t-71.5 -167.5t-125.5 -130.5q79 69 119 195q42 122 20 236q-35 -24 -73 -27q-61 -7 -107.5 31t-54.5 100q-6 62 31.5 109t97.5 51q54 6 102 -25q19 -11 27 -22q17 -17 26 -41z" />
    <glyph glyph-name="quotedblleft" unicode="&#x201c;" horiz-adv-x="948" 
d="M283 1257q61 7 107 -31t52 -100t-31.5 -108.5t-97.5 -50.5q-54 -6 -96 20q-73 39 -88 166q-15 132 43 281q59 152 174 227q-77 -68 -121 -195q-40 -123 -18 -235q36 23 76 26zM827 1126q7 -61 -31 -107.5t-98 -51.5q-62 -6 -106 26q-4 2 -19 17q-17 15 -28 47
q-25 56 -26.5 138t18.5 167.5t71.5 167.5t124.5 131q-77 -68 -121 -195q-42 -122 -20 -235q36 23 76 26q61 7 107 -31t52 -100z" />
    <glyph glyph-name="quotedblright" unicode="&#x201d;" horiz-adv-x="919" 
d="M344 1604q69 -37 84 -168q16 -134 -41 -279q-59 -151 -174 -229q78 69 121 194q42 122 20 236q-38 -24 -75 -27q-62 -6 -108 32t-52 99q-8 62 30 109t99 53q54 6 96 -20zM764 1528q25 -57 25.5 -139t-21.5 -167t-73 -165.5t-122 -128.5q79 70 119 194q43 124 21 236
q-35 -24 -76 -27q-62 -6 -108 32t-52 99q-6 63 31.5 109.5t97.5 52.5q54 6 96 -20q18 -8 41 -37q19 -31 21 -39z" />
    <glyph glyph-name="quotedblbase" unicode="&#x201e;" horiz-adv-x="917" 
d="M377 242q17 -17 26 -41q25 -58 27 -140.5t-18 -168.5t-71.5 -167.5t-125.5 -130.5q79 69 119 195q42 122 20 236q-35 -24 -73 -27q-61 -7 -107.5 31t-54.5 100q-6 62 31.5 109t97.5 51q54 6 102 -25q19 -11 27 -22zM700 268q71 -38 86 -168q15 -133 -41 -278
q-60 -153 -174 -228q79 69 119 195q43 124 21 236q-38 -24 -76 -27q-61 -7 -107.5 31t-52.5 100t31.5 109t97.5 51q52 6 96 -21z" />
    <glyph glyph-name="dagger" unicode="&#x2020;" horiz-adv-x="942" 
d="M498 1186h323v-29h-323v-1272h-33v1272h-344v29h344v467h33v-467z" />
    <glyph glyph-name="daggerdbl" unicode="&#x2021;" horiz-adv-x="942" 
d="M821 1186v-29h-344v-729h344v-29h-344v-514h-31v514h-325v29h325v729h-325v29h325v467h31v-467h344z" />
    <glyph glyph-name="bullet" unicode="&#x2022;" horiz-adv-x="577" 
d="M287 459q-67 0 -116.5 49.5t-49.5 116.5q0 69 50 119.5t116 50.5q69 0 119.5 -50.5t50.5 -119.5t-49 -117.5t-121 -48.5z" />
    <glyph glyph-name="ellipsis" unicode="&#x2026;" horiz-adv-x="1284" 
d="M197 -8q-61 0 -105.5 43.5t-44.5 103.5t44 103t106 43q60 0 102.5 -43t42.5 -103t-42.5 -103.5t-102.5 -43.5zM649 -8q-61 0 -105 43.5t-44 103.5t44 103t105 43q60 0 103 -43t43 -103t-43 -103.5t-103 -43.5zM1106 -8q-61 0 -105.5 43.5t-44.5 103.5t43.5 103t106.5 43
q60 0 101.5 -43t41.5 -103t-41.5 -103.5t-101.5 -43.5z" />
    <glyph glyph-name="perthousand" unicode="&#x2030;" horiz-adv-x="2068" 
d="M436 870q-31 -1 -62 2.5t-70 17.5t-70.5 37.5t-58 67t-38.5 101.5q-25 123 34.5 220t178.5 128q144 33 243 -33t112 -215q13 -135 -63.5 -226.5t-205.5 -99.5zM541 1225q-30 125 -79 179.5t-108 20.5q-52 -34 -61 -141q-9 -100 14 -176q28 -125 76 -180t98 -35
q64 15 76 117q15 99 -16 215zM246 0h-39l940 1436h35zM1014 2q-31 -1 -62 2.5t-70 17t-70.5 37t-58 67t-38.5 101.5q-25 123 34.5 220t178.5 128q144 33 242.5 -32.5t111.5 -214.5q13 -135 -63 -226.5t-205 -99.5zM1669 2q-31 -1 -62 2.5t-70 17t-70.5 37t-58 67
t-38.5 101.5q-25 123 34.5 220t178.5 128q144 33 242.5 -32.5t111.5 -214.5q13 -135 -63 -226.5t-205 -99.5zM1118 354q-30 126 -78.5 181.5t-107.5 21.5q-53 -35 -62 -141q-9 -101 17 -176q25 -124 74.5 -179.5t99.5 -35.5q64 15 76 116q11 97 -19 213zM1774 354
q-30 126 -79 181.5t-108 21.5q-52 -34 -61 -141q-9 -103 16 -176q25 -124 74.5 -179.5t99.5 -35.5q64 15 76 116q12 100 -18 213z" />
    <glyph glyph-name="guilsinglleft" unicode="&#x2039;" horiz-adv-x="608" 
d="M141 563l342 291l-170 -293l150 -307z" />
    <glyph glyph-name="guilsinglright" unicode="&#x203a;" horiz-adv-x="608" 
d="M131 854l342 -291l-321 -309l149 307z" />
    <glyph glyph-name="Euro" unicode="&#x20ac;" horiz-adv-x="1386" 
d="M973 762h-932l-27 18h136q8 198 98.5 354t253.5 248q97 53 229 63.5t252 -22.5q126 -34 207.5 -131.5t81.5 -234.5q0 -69 -43 -111.5t-103 -40.5q-71 1 -106 67t-14 144q27 112 12.5 178t-54 97t-93 33t-104 -13t-87.5 -41q-128 -92 -154 -268q-15 -87 -18 -156
q-2 -43 -2 -166h485zM1122 494q66 2 110 -41.5t44 -122.5q0 -78 -39 -146t-97 -111t-114.5 -68.5t-101.5 -31.5q-55 -11 -207 -2t-228 45q-141 64 -233.5 219.5t-103.5 389.5h-111l-27 18h977l-18 -18h-467q0 -188 76 -394q38 -103 107 -170t153 -71q126 -6 170.5 63
t7.5 215q-12 60 -7.5 110t33.5 82.5t76 33.5z" />
    <glyph glyph-name="trademark" unicode="&#x2122;" horiz-adv-x="2279" 
d="M86 1432h778l86 -308q-86 134 -147 189l-53 49q-22 18 -70 34.5t-102 16.5v-700q0 -93 53 -142q49 -39 112 -39h-526q31 0 64 13q102 37 102 168v700h-2q-107 0 -217 -90q-56 -53 -135 -168l-29 -41zM2275 1432h4h-4zM2116 1270v-572q0 -55 19.5 -93t51.5 -52
q56 -21 82 -21h-495q10 0 21.5 1t36.5 10.5t43.5 25t33 49.5t14.5 80v478q0 102 -12 102q-10 0 -15 -2t-14 -15t-20 -40l-303 -758l-414 780q-22 22 -31 -29q-4 -24 -4 -34v-465q1 -51 22 -88.5t47 -55t59.5 -27.5t47.5 -11t23 -1h-400q9 0 23 1.5t45.5 11.5t56.5 27.5
t44.5 55t19.5 87.5v532q0 44 -14.5 78.5t-34.5 53.5t-45.5 31t-44.5 16t-33 4l-11 2h353l299 -547q60 -96 69 -101q26 -14 60 58q0 4 2 6l229 584h348q-20 0 -55 -7t-69.5 -49.5t-34.5 -105.5z" />
    <glyph glyph-name="partialdiff" unicode="&#x2202;" horiz-adv-x="1196" 
d="M647 -27q-128 -9 -276 66q-78 43 -137.5 126.5t-83.5 196.5q-49 228 47 394q100 165 295 211q100 23 253 2l5 2q0 131 -88 268q-86 137 -234 242q264 -76 465 -342q200 -262 215 -559q15 -252 -123 -424q-136 -171 -338 -183zM774 596q-47 200 -117 299q-70 102 -147 43
q-47 -35 -59 -139q-21 -186 30 -408q44 -203 112.5 -305.5t143.5 -79.5q73 25 76 219q3 201 -39 371z" />
    <glyph glyph-name="emptyset" unicode="&#x2205;" horiz-adv-x="1263" 
d="M1120 526q18 -235 -112 -383q-135 -153 -349 -168q-211 -12 -356 103l-70 -76h-40l86 96q-104 94 -142 264q-43 210 60 381q105 172 309 224q292 61 467 -105l53 58h43l-74 -80q107 -119 125 -314zM485 369q1 -2 3.5 -10.5t4 -15t1.5 -9.5l274 301q-38 175 -106 266
q-71 95 -150 37q-52 -40 -61 -219q-6 -177 34 -350zM739 4q53 27 68 131q29 180 -29 453q0 1 -1 5t-1 5l-274 -301q16 -61 37.5 -111.5t42.5 -83t44 -57t43 -34t38.5 -13t31.5 5.5z" />
    <glyph glyph-name="product" unicode="&#x220f;" horiz-adv-x="1267" 
d="M100 -442v1976h1069v-1972h-28v1945h-1012v-1947z" />
    <glyph glyph-name="summation" unicode="&#x2211;" horiz-adv-x="1212" 
d="M1049 -174h-928v33l594 901l-592 809v35h964v-33h-923l598 -807l-600 -907h887v-31z" />
    <glyph glyph-name="minus" unicode="&#x2212;" horiz-adv-x="956" 
d="M125 682v31h706v-31h-706z" />
    <glyph glyph-name="radical" unicode="&#x221a;" horiz-adv-x="1146" 
d="M1016 1432l-467 -1850l-301 697h-123v28h149l269 -629l438 1756z" />
    <glyph glyph-name="infinity" unicode="&#x221e;" horiz-adv-x="1464" 
d="M764 893q111 169 319 154q150 -9 209 -134q63 -125 23 -254q-27 -91 -97.5 -144t-173.5 -52q-163 3 -251 172q-29 -63 -138 -131q-107 -66 -235 -66q-149 3 -221 109q-74 109 -62 237q7 116 86.5 184.5t192.5 63.5q131 -3 200 -96q40 -54 48 -68q19 -33 34 -71
q1 1 10.5 15t26 37.5t29.5 43.5zM803 653q87 154 198 217q51 23 102.5 31.5t104 -2.5t88.5 -45q57 -51 33 -141q-30 -24 -45 -21q-74 -71 -223 -80q-234 -18 -258 41zM387 637q107 10 188 48.5t111 90.5q-41 70 -131 86q-35 6 -49 6q-10 2 -49 2h-37q-121 2 -192 -31.5
t-70 -107.5q0 -118 229 -94z" />
    <glyph glyph-name="integral" unicode="&#x222b;" horiz-adv-x="804" 
d="M631 1642q164 0 245.5 -81.5t81.5 -221.5q0 -67 -39.5 -111t-97.5 -44q-83 0 -123 67q-40 70 7 148q37 56 43.5 108.5t-19 85t-76.5 33.5q-93 1 -136.5 -68.5t-43.5 -218.5v-1470q0 -109 -82 -197q-82 -90 -204.5 -118.5t-264.5 10.5q-100 31 -160.5 105.5t-60.5 150.5
q0 75 41.5 118.5t103.5 43.5q88 0 121 -60t6 -145q-34 -88 -3.5 -153.5t114.5 -65.5q61 0 85 71t24 232v1399q0 367 438 382z" />
    <glyph glyph-name="approxequal" unicode="&#x2248;" horiz-adv-x="886" 
d="M135 662q1 94 55.5 147t131.5 47q59 -6 147 -57q92 -51 141 -51q67 0 102 21t52 71q5 -78 -38.5 -128t-115.5 -50t-166 55q-89 57 -161 57q-114 0 -148 -112zM125 479q1 94 55.5 147t132.5 48q60 -6 150 -58q89 -51 137 -51q67 0 102 21t52 71q6 -78 -38 -128t-116 -50
t-164 56q-89 57 -164 57q-113 0 -147 -113z" />
    <glyph glyph-name="notequal" unicode="&#x2260;" horiz-adv-x="1247" 
d="M1128 854v-31h-430l-168 -272h598v-31h-616l-141 -229h-35l141 229h-358v31h379l168 272h-547v31h565l135 217h33l-133 -217h409z" />
    <glyph glyph-name="lessequal" unicode="&#x2264;" horiz-adv-x="1017" 
d="M131 582l711 290v-28l-645 -264l645 -277v-31zM186 172v27h707v-27h-707z" />
    <glyph glyph-name="greaterequal" unicode="&#x2265;" horiz-adv-x="1007" 
d="M147 872l711 -290l-711 -310v31l646 277l-646 264v28zM803 199v-27h-707v27h707z" />
    <glyph glyph-name="NULL" horiz-adv-x="0" 
 />
    <glyph glyph-name="CR" horiz-adv-x="681" 
 />
    <glyph glyph-name="zero.osf" horiz-adv-x="1255" 
d="M664 -29q218 15 350 168q133 157 112 387q-24 263 -202 377q-176 114 -418 62q-203 -53 -307 -226q-104 -175 -58 -383q25 -118 86.5 -201.5t143.5 -123.5q150 -69 293 -60zM784 590q58 -276 29 -457q-15 -107 -68 -131q-15 -9 -35.5 -3.5t-43 16.5t-47 41t-47.5 69
t-45 100.5t-38 136.5q-42 176 -36 357q6 175 57 217q37 28 72 20t64.5 -38t56 -83t46.5 -114t35 -131z" />
    <glyph glyph-name="one.osf" horiz-adv-x="987" 
d="M633 588v-391q0 -65 29.5 -110.5t78.5 -63.5q81 -23 117 -23h-729q32 0 102 23q44 18 70.5 63t26.5 111v268q-3 34 0 151q1 103 -45.5 149t-120.5 19l473 248q0 -85 -1 -194.5t-1 -135.5v-114z" />
    <glyph glyph-name="two.osf" horiz-adv-x="1007" 
d="M575 178h302l-213 -401q61 127 25 175t-195 48h-367q167 83 340 256q162 162 135 379q-10 87 -74 138t-145 40q-50 -7 -108.5 -37.5t-94.5 -62.5l-33 -27q14 32 56 94q38 54 67 86q39 42 96 74.5t113 38.5q148 15 236 -76q88 -88 88 -198q0 -54 -23.5 -109.5t-52.5 -93.5
q-21 -27 -106 -115l-121 -127q-19 -23 -29 -39t-10.5 -25t2.5 -14t16.5 -6t25 -0.5t33.5 1.5t37 1z" />
    <glyph glyph-name="three.osf" horiz-adv-x="1234" 
d="M829 340q297 -94 285 -422q-3 -84 -31.5 -156t-74.5 -123.5t-108 -88t-132 -53.5t-146 -16t-151 21q-118 31 -206 136t-126 245q44 -93 140 -161.5t221 -79.5q121 -10 203.5 63t93.5 193q9 130 -76 231q-85 102 -217 96q-74 -14 -98 -22q48 24 102 63q52 41 92 80
q46 48 82 114t43 130q11 76 -25 137.5t-110 87.5q-90 26 -184 -4t-164 -100q156 212 383 221q159 6 260 -84q99 -89 96 -205q-3 -202 -152 -303z" />
    <glyph glyph-name="four.osf" horiz-adv-x="1288" 
d="M1378 240l-243 -238h-183v-190l-278 -326v516h-578l856 1143v-905h426zM365 238h307v319q0 70 -29.5 80t-73.5 -49l-221 -293q-34 -51 17 -57z" />
    <glyph glyph-name="five.osf" horiz-adv-x="1138" 
d="M260 547l-22 -107q-6 -27 0 -30q3 -7 18 2q83 65 154 80q66 17 180 20q183 3 309 -111q129 -114 129 -309q0 -170 -174 -344q-96 -96 -274 -178q-189 -87 -310 -119l-129 -37q252 83 406 260q157 177 160 344q1 97 -28 152.5t-101 93.5q-51 22 -104.5 24.5t-97 -8.5
t-85 -31.5t-68.5 -40.5t-47 -40l-24 -21l165 797h705l-197 -256h-446q-37 0 -57 -9t-33 -34q-19 -38 -29 -98z" />
    <glyph glyph-name="six.osf" horiz-adv-x="1218" 
d="M1102 512q21 -219 -111 -375q-133 -154 -329 -157q-144 0 -285 65q-80 38 -139 118.5t-82 190.5q-92 496 254 867q237 252 546 252q-106 -12 -180 -68t-143 -172q-87 -146 -113 -315q-11 -7 -2 -7q218 53 389 -53t195 -346zM731 10q73 30 82 207q9 181 -33 354
q-29 127 -75 207q-46 85 -94.5 109.5t-88.5 -10.5q-61 -58 -61 -242q0 -188 33 -297q14 -60 31 -111t35.5 -87.5t38 -64t38 -43.5t36 -24t32 -7t26.5 9z" />
    <glyph glyph-name="seven.osf" horiz-adv-x="1110" 
d="M264 938h918q-184 -227 -336 -547q-76 -161 -96 -262q-23 -110 -17 -252q9 -150 6 -199q-6 -136 -108 -170q-87 -28 -150 29q-56 50 -47 129q9 112 72 232q72 131 176 288q121 183 186 316q26 50 37 85.5t1.5 57.5t-21 34.5t-49 18t-63 6.5t-82.5 1h-5h-43h-41
q-190 0 -298.5 -45t-160.5 -162z" />
    <glyph glyph-name="eight.osf" horiz-adv-x="1208" 
d="M854 784q114 -60 182 -176q73 -119 49 -286q-27 -178 -202 -263q-172 -85 -385 -61q-180 19 -273 114t-86 259q7 121 76.5 195.5t214.5 140.5q-89 41 -168 163q-80 126 -53 281q27 156 160 242q132 85 290 73q155 -7 247.5 -98.5t94.5 -237.5q3 -215 -256 -286
q1 0 15.5 -8.5t41 -23t52.5 -28.5zM457 1171q20 -102 81.5 -175.5t196.5 -143.5q41 87 49 160q1 11 2 24.5t1.5 21t0.5 11.5v66q0 51 -8.5 100t-28 98.5t-58.5 81t-93 33.5q-59 1 -95.5 -31t-47.5 -86q-14 -93 0 -160zM444 698q-56 -101 -32 -329q10 -95 28 -154
q26 -77 84.5 -134t137.5 -61q81 -4 124 40.5t43 117.5q3 142 -36 240q-37 98 -123 160q-55 38 -76 47q-41 25 -82 41q-62 28 -68 32z" />
    <glyph glyph-name="nine.osf" horiz-adv-x="1230" 
d="M840 -313q-238 -250 -547 -250q106 12 179.5 67t141.5 168q93 158 113 316q7 3 4 6l6 2q-87 -19 -168 -18.5t-154 30.5t-130 79.5t-94.5 128.5t-47.5 177q-21 221 111 377q131 155 332 158q137 0 280 -66q84 -38 144 -118t84 -193q99 -487 -254 -864zM516 897
q-77 -30 -86 -207q-9 -180 33 -356q27 -122 74.5 -208.5t96 -109t91.5 12.5q58 58 61 239q3 186 -30 301q-14 61 -31.5 113t-36 87.5t-39 62.5t-39.5 42t-36.5 22.5t-32 7t-25.5 -6.5z" />
    <glyph glyph-name="ampersand.001" horiz-adv-x="1947" 
d="M1616 993q53 0 86 -22.5t33 -63.5q0 -27 -16 -45t-42 -18q-37 0 -71 37t-84 37q-61 0 -131 -41q-36 -23 -115 -113q-15 -17 -55 -78l-52 -82l-57 -92l-55 -94q98 -137 143 -244q74 -171 74 -324q0 -243 -154 -432q-86 -105 -183.5 -152.5t-234.5 -47.5q-48 0 -88 4
q-60 6 -112 33t-86 64t-54.5 69.5t-29.5 58.5l-10 23q1 -1 4.5 -8t7 -12.5t12.5 -17.5t23 -26q113 -121 286 -121q246 0 396 193q151 195 151 450q0 210 -162 463q-158 -261 -215 -330q-150 -187 -344 -196h-24q-144 0 -254 90q-107 88 -107 254q0 69 27 137q30 68 66.5 118
t103.5 111q77 67 119 99l135 98q78 54 129 92q-152 190 -152 340q0 130 80 219q79 88 199 88q100 0 161 -58.5t62 -162.5q1 -92 -52.5 -174t-162.5 -178q-7 -6 -21.5 -17t-40 -30.5t-47.5 -36.5l285 -344q10 -11 60 -78l61 100l68 109l55 90q82 125 147 174q104 88 238 88z
M555 1204q0 -85 27.5 -158t103.5 -174l72 58q109 93 155 174t45 180q-1 69 -46 116t-113 52q-92 6 -168 -70q-76 -73 -76 -178zM500 -59q162 0 297 147q66 68 118 143q62 89 115 177q-12 22 -49 73q-58 86 -133 174q-32 42 -74 88l-84 103q-142 -103 -188 -139
q-158 -124 -232.5 -232t-74.5 -237t81.5 -213t223.5 -84z" />
    </font>
</defs>
</svg>
