<?xml version="1.0" standalone="no"?>
<!DOCTYPE svg PUBLIC "-//W3C//DTD SVG 1.1//EN" "http://www.w3.org/Graphics/SVG/1.1/DTD/svg11.dtd" >
<svg xmlns="http://www.w3.org/2000/svg" xmlns:xlink="http://www.w3.org/1999/xlink" version="1.1">
<metadata>
Created by FontForge 20170731 at Wed Jun 22 17:24:05 2022
 By Aleksey,,,
Copyright (c) 2017 by Rakel Tomas. All rights reserved.
</metadata>
<defs>
<font id="SilkSerif-MediumItalic" horiz-adv-x="1228" >
  <font-face 
    font-family="Silk Serif"
    font-weight="500"
    font-style="italic"
    font-stretch="normal"
    units-per-em="2048"
    panose-1="0 0 6 0 0 0 0 0 0 0"
    ascent="1520"
    descent="-528"
    x-height="934"
    cap-height="1434"
    bbox="-539.714 -782 2466 1908.69"
    underline-thickness="102"
    underline-position="-307"
    unicode-range="U+0020-2265"
  />
<missing-glyph horiz-adv-x="937" 
d="M174 1434h594v-1874h-594v1874zM625 1247v62h-310v-62h121v-69h-123v-64h312v64h-125v69h125zM500 936v131h-187v-195h312v64h-125zM375 1004h61v-68h-61v68zM625 760v61h-312v-61h123v-70h-123v-61h187v131h125zM625 520v189h-62v-123h-250v-66h312zM625 268v211h-189
v-104h64v43h63v-88h-188v149h-62v-211h312zM625 -55v211h-312v-211h312zM375 94h188v-88h-188v88zM625 -162v64h-312v-64h131l-131 -88v-61h312v61h-193l131 88h62z" />
    <glyph glyph-name=".notdef" horiz-adv-x="937" 
d="M174 1434h594v-1874h-594v1874zM625 1247v62h-310v-62h121v-69h-123v-64h312v64h-125v69h125zM500 936v131h-187v-195h312v64h-125zM375 1004h61v-68h-61v68zM625 760v61h-312v-61h123v-70h-123v-61h187v131h125zM625 520v189h-62v-123h-250v-66h312zM625 268v211h-189
v-104h64v43h63v-88h-188v149h-62v-211h312zM625 -55v211h-312v-211h312zM375 94h188v-88h-188v88zM625 -162v64h-312v-64h131l-131 -88v-61h312v61h-193l131 88h62z" />
    <glyph glyph-name=".null" horiz-adv-x="0" 
 />
    <glyph glyph-name="nonmarkingreturn" horiz-adv-x="682" 
 />
    <glyph glyph-name="space" unicode=" " horiz-adv-x="561" 
 />
    <glyph glyph-name="exclam" unicode="!" horiz-adv-x="552" 
d="M188 299q60 176 109 352q66 237 82 303q36 138 63 217q35 104 71.5 151.5t80.5 47.5q68 0 68 -63q3 -92 -173 -424q-238 -446 -301 -584zM119 -8q43 0 73.5 31.5t30.5 74.5q0 44 -30.5 75.5t-73.5 31.5q-44 0 -76.5 -31.5t-32.5 -75.5q0 -42 32.5 -74t76.5 -32z" />
    <glyph glyph-name="quotedbl" unicode="&#x22;" horiz-adv-x="284" 
d="M430 1473q35 -13 39.5 -48t-20.5 -67l-191 -285l43 176l-111 -170l82 336q11 41 35 58.5t55 5.5q2 0 8.5 -4.5t8.5 -4.5q24 15 51 3z" />
    <glyph glyph-name="numbersign" unicode="#" horiz-adv-x="1300" 
d="M1358 1436h26l-292 -512h243l-6 -19h-248l-233 -405h364l-6 -21h-370l-287 -499h-29l287 499h-422l-287 -499h-28l286 499h-233l6 21h240l233 407h-354l6 19h360l293 510h27l-293 -510l422 -2zM397 500h422l234 405l-422 2z" />
    <glyph glyph-name="dollar" unicode="$" horiz-adv-x="1179" 
d="M1075 1518l-33 -80q139 -12 203 -82.5t41 -186.5q-12 -77 -67 -135q-52 -58 -121 -55q-55 1 -77 42t3 79q13 30 68 69q54 42 71 88q37 99 -61 142q-30 12 -68 18l-233 -577q94 -33 151 -87t73.5 -119.5t5 -136t-49.5 -143.5q-79 -150 -215 -237.5t-301 -106.5l-47 -119
h-21l297 736q-1 0 -80 28l-32 11l-314 -775h-18l49 123q-2 2 -6 2q-125 24 -199 101q-124 124 -47 297q34 81 93.5 138.5t127.5 57.5q44 0 60.5 -30.5t6.5 -68.5t-36 -62q-21 -19 -55 -37t-58.5 -36.5t-38.5 -47.5q-43 -82 -19.5 -161t101.5 -114q44 -17 78 -20l258 641
q-85 33 -134 87t-59 117t0.5 124.5t39.5 121.5q60 123 186 201q129 81 270 102l37 91h21l-256 -633q64 -25 90 -33l22 -6l273 672h20zM737 1372q-53 -25 -99 -68.5t-73 -97.5t-33 -110t24.5 -110.5t96.5 -92.5l209 518q-83 -20 -125 -39zM858 305q80 209 -147 313l-238 -591
q127 12 234 88q111 76 151 190z" />
    <glyph glyph-name="percent" unicode="%" horiz-adv-x="1341" 
d="M-61 0h38l1516 1436h-35zM582 1409q101 34 160 -12.5t59 -139.5q-3 -157 -115 -284q-108 -126 -237 -111q-49 4 -79.5 32.5t-39.5 70t-5 88t19 92.5q35 106 100 171.5t138 92.5zM598 1399q-81 -40 -149 -258q-30 -84 -27 -176q1 -49 20 -73t54 -22q66 6 125 136
q61 134 75 249q6 54 -1 90t-22 48.5t-35 15.5t-40 -10zM881 551q102 34 160.5 -11.5t58.5 -140.5q-3 -157 -115 -284q-108 -126 -237 -111q-50 3 -80.5 31.5t-39 72t-5 89t17.5 90.5q35 104 101.5 170.5t138.5 93.5zM895 541q-83 -41 -150 -258q-21 -83 -24 -174
q0 -46 19 -72t55 -25q65 6 123 135q61 134 75 252q8 52 1.5 87.5t-22 48t-36.5 16t-41 -9.5z" />
    <glyph glyph-name="ampersand" unicode="&#x26;" horiz-adv-x="1572" 
d="M1581 864q-69 -39 -129 -88q-89 -76 -172 -155l-180 -162q-21 -15 -45 -39l49 -168q26 -87 55 -121t92 -35q144 -3 238 140q-49 -97 -143 -175q-93 -81 -205 -84q-94 -2 -147.5 32t-78.5 126l-36 131q-176 -155 -297 -224t-248 -73q-159 -3 -228 84q-71 89 0 254
q42 120 205 250q40 32 101 64q71 41 98 53l113 57q28 14 64 31t44 22l-10 37q-45 148 -45 215q3 82 35 152q63 143 190 213q130 71 268 74q114 3 181 -64q66 -66 20 -190q-70 -190 -295 -301l-149 -68l123 -416l137 119q331 295 117 365h438q-57 0 -160 -56zM885 1210
q-17 -63 -17 -110q3 -59 11 -94q10 -41 36 -121l7 -19q34 18 71 45q183 133 256 332q34 75 13 146q-21 70 -103 73q-201 0 -274 -252zM451 129q179 -9 419 164l-135 475l-45 -27q-154 -93 -242.5 -176.5t-130.5 -189.5q-27 -65 -24 -119t45 -90t113 -37z" />
    <glyph glyph-name="quotesingle" unicode="'" horiz-adv-x="159" 
d="M373 1358l-201 -275l96 332q12 38 38.5 54.5t55.5 3.5q34 -13 36 -48t-25 -67z" />
    <glyph glyph-name="parenleft" unicode="(" horiz-adv-x="569" 
d="M279 -324l14 -59q-40 57 -90 256q-29 121 -43 244q-14 121 2 299q15 167 71 319q58 155 148 291.5t182 220.5q81 75 169 133.5t138.5 80.5t55.5 16l-43 -25q-17 -9 -103 -82q-65 -55 -145 -145q-71 -80 -154 -219q-88 -147 -143 -301q-53 -143 -79 -311t-21 -306
q9 -267 41 -412z" />
    <glyph glyph-name="parenright" unicode=")" horiz-adv-x="559" 
d="M-289 -401l49 43q42 38 117 118q89 92 158 189q72 97 153 250q80 148 125 307q43 159 58 320.5t2 277.5q-24 225 -70 330l-18 43q6 -1 20 -20.5t36.5 -63t45.5 -99.5q36 -84 64 -204q28 -107 22 -275t-49 -328q-43 -149 -126.5 -296t-178.5 -252q-84 -94 -179.5 -176.5
t-154 -122t-74.5 -41.5z" />
    <glyph glyph-name="asterisk" unicode="*" horiz-adv-x="425" 
d="M414 1403q53 -12 18 -90l-82 -156l6 184q5 32 21.5 50t36.5 12zM145 1317q19 20 45.5 12.5t45.5 -37.5l114 -135l-168 82q-30 13 -40.5 37t3.5 41zM604 1186q1 -26 -20 -39t-54 -8l-178 18l-2 -2l111 -149q40 -58 -4 -86q-24 -10 -44 6.5t-28 52.5l-35 176l-129 -135
q-23 -20 -48.5 -22.5t-37.5 14.5q-12 23 3 45.5t48 34.5l164 65l174 60q74 21 80 -31z" />
    <glyph glyph-name="plus" unicode="+" horiz-adv-x="1136" 
d="M651 725h422l-8 -25h-424l-174 -432h-25l174 432h-426l9 25h428l168 418h24z" />
    <glyph glyph-name="comma" unicode="," horiz-adv-x="270" 
d="M100 199q41 -6 66.5 -42t17.5 -77q-15 -106 -108 -193q-90 -87 -197 -125q77 36 146 105q73 70 88 133q-15 -8 -50 -4q-43 6 -67 42t-14 79q7 42 41.5 66t76.5 16z" />
    <glyph glyph-name="hyphen" unicode="-" horiz-adv-x="894" 
d="M178 545v24h658v-24h-658z" />
    <glyph glyph-name="period" unicode="." horiz-adv-x="309" 
d="M0 98q0 44 32.5 75.5t76.5 31.5q43 0 73.5 -31.5t30.5 -75.5q0 -43 -30.5 -74.5t-73.5 -31.5t-76 32.5t-33 73.5z" />
    <glyph glyph-name="slash" unicode="/" horiz-adv-x="614" 
d="M-111 0l-24 4l1044 1432l25 2z" />
    <glyph glyph-name="zero" unicode="0" horiz-adv-x="1288" 
d="M1108 1409q173 -71 207 -299q34 -227 -105 -551q-167 -355 -456 -512q-292 -156 -535 0q-157 100 -166 379q-9 283 160 567q179 290 428 398q248 110 467 18zM936 1436q-112 12 -248 -90q-76 -57 -154.5 -178.5t-144.5 -288.5q-120 -299 -117 -566q3 -268 136 -315
q34 -12 71.5 -12.5t82 13.5t89 42.5t92.5 78.5t92.5 116.5t89 161.5t81.5 210q111 327 96 570q-15 237 -166 258z" />
    <glyph glyph-name="one" unicode="1" horiz-adv-x="811" 
d="M432 1251l442 222l-143 -355l-47 -114l-276 -693l-50 -127q-17 -41 -17.5 -73.5t13 -51.5t30.5 -32t40.5 -18t37 -7t25.5 -2h-604q38 0 117 25q47 18 88.5 60t65.5 101l303 756l78 193q37 92 8.5 121t-111.5 -5zM-117 0h-4h4zM492 0h-5h5z" />
    <glyph glyph-name="two" unicode="2" horiz-adv-x="1036" 
d="M829 1442q91 10 158.5 -8t104 -56t53 -90.5t10.5 -109.5t-29 -115q-31 -77 -74.5 -138.5t-117.5 -127.5q-75 -69 -137 -119q-33 -28 -191 -150l-211 -166q-216 -174 -196 -206q21 -15 127 -15h108q179 0 283 39q110 40 194 156l-245 -336h-856q327 185 641 440
q380 310 475 590q43 129 -29 207t-209 57q-94 -14 -201 -69q-94 -48 -151 -99l-49 -45q3 3 14 18t32 39t54 58q54 54 117 104q67 51 155.5 91.5t169.5 50.5zM911 336l4 4z" />
    <glyph glyph-name="three" unicode="3" horiz-adv-x="1128" 
d="M864 1454q179 9 242 -88q65 -95 24 -215q-35 -108 -115.5 -192t-185.5 -134q117 -45 150 -158t-29 -278q-102 -233 -315 -342q-212 -108 -432 -47q-113 31 -165 131.5t-44 245.5q12 -95 76 -176q66 -84 186 -99q135 -21 268 50q133 69 205 217q74 158 4 278
q-67 120 -231 96l-23 -4l23 9q89 29 205 100q71 43 133 108t96 138q47 95 12 178q-35 87 -141 96q-173 21 -385 -143q220 217 442 229z" />
    <glyph glyph-name="four" unicode="4" horiz-adv-x="1304" 
d="M1255 492l-227 -162h-205l-96 -240l-276 -207l180 447h-654l1309 1143l-397 -981h366zM270 489h426l238 562q28 68 3 67h-5q-25 -4 -70 -43l-586 -514q-72 -72 -6 -72z" />
    <glyph glyph-name="five" unicode="5" horiz-adv-x="1114" 
d="M475 1130l-125 -200q-28 -47 -22 -53q3 -3 30 6q108 61 195 84q74 19 176 22q185 3 272 -112q89 -115 9 -312q-75 -189 -322 -348q-137 -88 -350 -168q-218 -82 -356 -115l-144 -34q328 102 590 266q265 169 346 362q52 105 17.5 192t-144.5 105q-55 12 -113.5 5
t-105.5 -19t-93 -33.5t-76.5 -40t-55.5 -37.5l-27 -18l463 754h672l-199 -174h-465q-43 0 -78 -21q-8 -5 -15 -9.5t-11.5 -8t-11 -11t-9.5 -10.5t-10 -14t-10 -15t-13 -20t-14 -23z" />
    <glyph glyph-name="six" unicode="6" horiz-adv-x="1136" 
d="M651 1221q348 260 660 260q-263 -30 -531 -283q-163 -157 -270 -324q5 7 46 18t71 11q95 18 180 -3t142 -76.5t77.5 -143.5t-12.5 -205q-61 -214 -238 -360q-178 -143 -375 -146q-146 0 -258 84q-59 45 -83.5 129.5t-6.5 190.5q86 465 598 848zM465 -6q123 21 215 172
q93 147 131 344q35 195 -20 295q-56 103 -175 69q-68 -18 -128.5 -73.5t-102.5 -134.5q-81 -148 -109 -295q-40 -207 19 -303q62 -92 170 -74z" />
    <glyph glyph-name="seven" unicode="7" horiz-adv-x="1105" 
d="M518 1438h903q-262 -229 -542 -547q-177 -201 -263 -350q-42 -71 -69 -131q-34 -70 -68 -144l-61 -137q-53 -115 -148 -133q-72 -15 -92 35q-15 34 12 86q26 54 78 129q47 71 92 125q39 50 123 143l131 143l162 168q41 43 98.5 102t71.5 74q199 211 184 259
q-9 28 -129 28h-28h-45h-152q-183 0 -287 -39q-110 -38 -202 -155z" />
    <glyph glyph-name="eight" unicode="8" horiz-adv-x="1134" 
d="M780 823l97 -67q39 -27 69 -68.5t48.5 -97.5t10.5 -130t-47 -151q-89 -185 -299 -274t-426 -43q-156 30 -209 136.5t17 266.5q48 95 127 162q80 68 158 105q78 35 190 75q-24 13 -49 37.5t-49 65t-36.5 87t-5.5 109t38 125.5q76 163 241 240q163 76 328 61
q147 -9 205 -110q59 -99 0 -232q-59 -137 -197 -209q-100 -53 -211 -88zM582 1178q-56 -206 184 -347q107 73 166 136.5t100 150.5q24 53 32.5 108.5t-0.5 104t-44 80.5t-92 35q-122 9 -217 -74q-94 -79 -129 -194zM535 725q-227 -133 -306 -332q-24 -63 -30 -126t7.5 -118
t57 -93t111.5 -46q193 -24 311 109t115 291q7 88 -76 180q-12 18 -45 42.5t-53 35.5q-22 16 -52 32q-11 7 -21 13.5t-14 9t-5 2.5z" />
    <glyph glyph-name="nine" unicode="9" horiz-adv-x="1128" 
d="M582 221q-91 -68 -193 -122t-180 -81q-71 -21 -141 -36q-87 -17 -138 -17q246 27 531 281q159 144 268 319q-5 -6 -43.5 -14t-69.5 -8q-212 -30 -329 90t-58 346q59 216 234 354q179 141 377 144q56 0 108 -12t102.5 -40t82.5 -73.5t48 -113t-1 -157.5
q-82 -474 -598 -860zM778 1452q-122 -21 -217 -172q-91 -146 -129 -342q-37 -188 19 -297q58 -104 178 -70q88 21 164 115q125 156 172 389q40 208 -19 301q-58 91 -168 76z" />
    <glyph glyph-name="colon" unicode=":" horiz-adv-x="514" 
d="M406 729q-44 0 -76.5 32.5t-32.5 74.5q0 44 32 75t77 31q43 0 73.5 -31t30.5 -75q0 -43 -31 -75t-73 -32zM106 -8q-44 0 -76 32t-32 74q0 44 32 75.5t76 31.5q43 0 74 -31.5t31 -75.5q0 -43 -31 -74.5t-74 -31.5z" />
    <glyph glyph-name="semicolon" unicode=";" horiz-adv-x="499" 
d="M379 942q44 0 75 -31t31 -75q0 -43 -31.5 -75t-74.5 -32q-42 0 -74.5 32.5t-32.5 74.5q0 44 32 75t75 31zM129 199q41 -6 65.5 -41.5t18.5 -77.5q-15 -105 -109 -193q-90 -87 -196 -125q75 35 145 105q73 70 88 133q-15 -7 -49 -4q-43 6 -67.5 42t-14.5 79q7 42 42 66
t77 16z" />
    <glyph glyph-name="less" unicode="&#x3c;" horiz-adv-x="983" 
d="M772 434l-594 291l836 309v-22l-778 -289l536 -264v-25z" />
    <glyph glyph-name="equal" unicode="=" horiz-adv-x="1206" 
d="M266 848l10 24h900l-11 -24h-899zM139 532l8 25h900l-9 -25h-899z" />
    <glyph glyph-name="greater" unicode="&#x3e;" horiz-adv-x="991" 
d="M348 1018l594 -291l-836 -309v22l779 289l-537 264v25z" />
    <glyph glyph-name="question" unicode="?" horiz-adv-x="790" 
d="M246 289q-1 83 22.5 162t70 149t88 119.5t99.5 107.5q166 169 183 281q19 125 -30.5 205.5t-150.5 81.5q-82 0 -125 -31.5t-55 -108.5q-5 -27 19 -81q24 -50 24 -74q-2 -52 -36 -83t-83 -24q-44 7 -67 48.5t-17 101.5q14 120 106 194.5t241 73.5q178 -2 271 -96.5
t73 -255.5q-5 -38 -26.5 -78t-47 -71.5t-71.5 -72.5t-79 -66.5t-90.5 -69t-85.5 -66.5q-94 -73 -158 -163t-75 -183zM201 -8q43 0 73.5 31.5t30.5 74.5q0 44 -30.5 75.5t-73.5 31.5q-44 0 -76.5 -31.5t-32.5 -75.5q0 -42 32.5 -74t76.5 -32z" />
    <glyph glyph-name="at" unicode="@" horiz-adv-x="1464" 
d="M1104 1190q232 3 334 -135t0 -365q-74 -171 -209 -297q-244 -230 -481 -241q-69 -5 -82.5 31.5t36.5 105.5l293 377l-2 -2q85 115 97 161q12 33 -1 58.5t-47 25.5q-57 0 -157 -63q-98 -62 -193 -160q-143 -149 -194 -278q-40 -106 18 -121q53 -15 123 22q75 40 115 80
l45 45q-15 -21 -88 -94q-67 -72 -147 -123t-154 -55q-70 0 -89 50t15 128q49 125 176 264q313 331 555 316q76 -3 94 -62l115 43l-428 -573q-94 -113 -45 -125q4 -2 16 -2q144 9 297 135q154 124 238 328q36 108 24 206q-12 100 -96.5 165t-212.5 65q-144 -1 -287 -58.5
t-256 -154.5q-225 -194 -317 -428q-86 -229 -8 -356.5t295 -127.5q378 3 696 277q-377 -368 -789 -371q-134 0 -223.5 46.5t-125.5 125t-31.5 178t49.5 209.5q126 310 420 529q296 218 612 221z" />
    <glyph glyph-name="A" unicode="A" horiz-adv-x="1230" 
d="M1194 2h-600q73 0 139 51q71 53 68 154l-8 328h-459l-207 -308q-48 -75 -37 -125t48 -75t83 -25h-442q84 13 180 87t166 175l858 1258l59 -1329q6 -185 152 -191zM682 1053l-334 -496h443l-11 416v39q-3 103 -16 110q-27 12 -82 -69z" />
    <glyph glyph-name="B" unicode="B" horiz-adv-x="1445" 
d="M442 1434h611q217 0 320.5 -100.5t70.5 -262.5q-31 -142 -143.5 -231t-270.5 -97q172 -21 248 -141q77 -121 43 -266q-18 -72 -55.5 -128.5t-87 -92t-111 -61t-128 -36.5t-138 -18t-141 -5.5t-136.5 1.5h-57l-604 4q197 9 264 174l436 1081q35 82 -0.5 126.5t-120.5 52.5
zM874 1417l-260 -651q92 0 209 8q313 27 402 297q47 138 -23 242q-67 104 -244 104h-84zM469 14h49q77 -2 125.5 1.5t110.5 19.5q100 26 171 94.5t119 196.5q52 162 -30 288q-83 126 -266 129l-140 5l-235 -574q-65 -151 96 -160z" />
    <glyph glyph-name="C" unicode="C" horiz-adv-x="1341" 
d="M1507 1260l-147 -308q9 139 -35 279q-24 82 -81.5 134.5t-139.5 59.5q-160 18 -309 -98q-147 -114 -246 -305q-76 -147 -98 -307.5t22 -313.5q50 -148 174 -200q163 -64 344 6q182 71 283 235q-115 -227 -289 -352q-176 -126 -407 -86q-196 34 -295 193q-96 166 -84 368
q15 212 116 400q280 515 820 477q236 -15 372 -182z" />
    <glyph glyph-name="D" unicode="D" horiz-adv-x="1587" 
d="M1354 1366q91 -46 155 -147t82 -269q18 -165 -65 -377q-224 -573 -946 -573h-725q95 5 173 48t109 120l447 1104q28 66 -15 111.5t-125 50.5h404q189 3 297 -9q109 -9 209 -59zM1063 258q143 156 223 373q83 226 74 407q-21 351 -336 369q-131 9 -145 6l-494 -1233
q-65 -153 92 -153h53q316 0 533 231z" />
    <glyph glyph-name="E" unicode="E" horiz-adv-x="1490" 
d="M1083 154q209 101 330 258l-190 -412h-1389q88 0 176 55q90 54 125 133l440 1090q24 62 -18.5 106.5t-122.5 49.5h1069l33 -387q-3 6 -7 14.5t-11 20t-11 20.5q-17 33 -77 108t-117 109q-96 59 -183 74q-86 18 -223 18h-39l-258 -643h109q199 0 301 76q47 36 73 66.5
t54 78.5l-211 -551q7 26 8 57t-4 66t-22 67.5t-43.5 58.5t-71.5 42t-103 16h-98l-244 -602q-20 -54 -2 -85t68 -31h127q272 0 532 127z" />
    <glyph glyph-name="F" unicode="F" horiz-adv-x="1333" 
d="M461 1434h1057l32 -394l-28 58q-15 30 -78 110q-58 76 -117 111q-96 59 -182 74q-86 18 -223 18h-37l-262 -649h108q199 0 301 76q47 36 73 66.5t54 78.5l-211 -551q8 32 8.5 69.5t-11.5 80.5t-37 77.5t-75.5 57t-119.5 22.5h-99l-229 -565q-30 -82 8 -125.5t127 -48.5
h-670q92 0 175.5 47t117.5 129l447 1100q24 65 -14 109t-115 49z" />
    <glyph glyph-name="G" unicode="G" horiz-adv-x="1501" 
d="M1548 1257l-137 -305q9 138 -49 281q-55 144 -174 178q-121 29 -216.5 8t-180.5 -96q-154 -133 -250 -369q-42 -105 -62 -222.5t-13.5 -230t38 -205t99.5 -152t163 -66.5q290 -21 401 291q17 41 12.5 71t-16.5 50t-35 32.5t-42.5 18.5t-38.5 8h505l-36 -6q-43 -7 -93 -47
t-77 -101l-170 -409l-9 34q-7 37 -34.5 73t-65.5 46l-57 -45q-48 -36 -74 -45q-7 -3 -27 -11t-40 -15t-35 -11q-70 -12 -136 -12q-167 1 -285.5 88.5t-162.5 228.5q-42 135 -28.5 301t81.5 318q66 149 168.5 259.5t210.5 162.5q97 50 213 72q170 35 334 0q224 -52 319 -173z
" />
    <glyph glyph-name="H" unicode="H" horiz-adv-x="1630" 
d="M1403 1434h627q-193 0 -263 -162l-438 -1098q-33 -80 13 -124.5t139 -49.5h-670q82 3 164 55q89 54 117 127l221 551h-682l-225 -559q-33 -80 12.5 -124.5t138.5 -49.5h-668q82 3 164 55q90 55 115 127l438 1090q26 67 -11 112t-114 50h625q-193 0 -260 -162l-207 -516
h684l207 516q26 68 -11 112.5t-116 49.5z" />
    <glyph glyph-name="I" unicode="I" horiz-adv-x="780" 
d="M461 1434h651q-88 0 -164 -40t-110 -122l-441 -1098q-33 -77 17 -123t145 -51h-694q83 3 172 53q89 53 127 142l416 1032q36 85 4 142.5t-123 64.5z" />
    <glyph glyph-name="J" unicode="J" horiz-adv-x="679" 
d="M453 1434h632q-75 0 -159 -41q-79 -40 -113 -121l-416 -1041q-112 -275 -344 -419.5t-559 -149.5q86 0 227 76q79 42 154 102q80 65 156.5 168t124.5 223l422 1051q26 66 -9.5 106.5t-115.5 45.5z" />
    <glyph glyph-name="K" unicode="K" horiz-adv-x="1409" 
d="M469 1434h616q-181 0 -251 -162l-441 -1098q-33 -80 12 -124.5t138 -49.5h-670q86 5 168 56.5t117 138.5l436 1073q29 72 -7 116.5t-118 49.5zM956 756l181 -414q151 -342 245 -342h-307q-38 53 -90 170l-219 487q-11 25 -30.5 37.5t-41.5 13t-41 -3t-35 -10.5l619 488
q106 84 94 168t-123 84h535q-69 -3 -227 -91q-145 -83 -326 -225l-182 -147q-116 -91 -52 -215z" />
    <glyph glyph-name="L" unicode="L" horiz-adv-x="1308" 
d="M823 1274l-444 -1110q-25 -63 2 -98t100 -35h60q195 3 413 129q220 124 318 270l-205 -430h-1198q88 5 166 55.5t112 132.5l441 1084q26 68 -11 112.5t-116 49.5h614q-187 0 -252 -160z" />
    <glyph glyph-name="M" unicode="M" horiz-adv-x="2144" 
d="M1190 379l895 1053l379 2q-73 0 -138.5 -61.5t-103.5 -164.5l-377 -970q-40 -102 5 -169t137 -69h-691q87 0 165 57.5t120 167.5l350 879q37 97 19 106q-16 6 -84 -71l-996 -1178l-196 1147q-12 71 -20.5 94t-22.5 23q-22 0 -62 -88l-348 -858q-48 -119 -1.5 -193
t161.5 -86h-551q91 6 201 78q109 72 166 207l360 878q41 102 -6 185t-160 86h477l174 -1039q15 -86 45 -96q32 -6 103 80zM2464 1434h2h-2z" />
    <glyph glyph-name="N" unicode="N" horiz-adv-x="1533" 
d="M1405 1436h516q-99 -2 -189.5 -72t-148.5 -215l-487 -1184l-410 1133q-40 113 -63 116q-14 2 -32 -24t-38 -78l-330 -811q-45 -98 -26 -166q18 -64 60 -95.5t112 -39.5h-535q253 30 367 309l346 850q37 94 -10 184q-46 88 -154 91h438l344 -961q27 -76 49 -82
q14 -5 31.5 17.5t42.5 83.5l273 665q45 123 0.5 198.5t-156.5 80.5z" />
    <glyph glyph-name="O" unicode="O" horiz-adv-x="1589" 
d="M1348 1421q183 -59 243 -286q30 -107 6 -263t-98 -321q-163 -354 -487 -512q-328 -157 -611 -14q-120 58 -170 217q-47 161 -10 364q42 211 158 387q188 290 455 398q265 110 514 30zM1176 1432q-118 21 -275 -86q-83 -58 -170 -179.5t-158 -287.5q-127 -294 -118 -568
q9 -267 157 -317q42 -9 72.5 -11t75.5 7t88 35q68 39 135 106q68 68 137 189.5t123 275.5q120 334 105 573q-15 242 -172 263z" />
    <glyph glyph-name="P" unicode="P" horiz-adv-x="1294" 
d="M1409 1255q45 -80 27 -215q-18 -129 -93 -217q-118 -136 -299 -176t-413 6q478 -6 592 353q37 116 4 245q-18 72 -81.5 118.5t-162.5 47.5q-84 0 -98 -2l-498 -1231q-35 -83 19 -133q54 -48 139 -51h-692q92 5 177.5 58.5t121.5 142.5l430 1054q30 76 -8 125t-119 54h438
h133q288 0 383 -179z" />
    <glyph glyph-name="Q" unicode="Q" horiz-adv-x="1523" 
d="M1311 1421q91 -29 153 -102.5t88 -183.5q31 -105 7.5 -263t-99.5 -321q-158 -352 -485 -512q-327 -157 -610 -14q-120 58 -170 217q-48 163 -11 364q42 211 158 387q188 290 455 398q265 110 514 30zM1139 1432q-118 21 -275 -86q-83 -58 -169.5 -179.5t-157.5 -287.5
q-128 -296 -119 -568q9 -267 157 -317q42 -9 72 -11t74.5 7t87.5 35q68 39 135 106q69 68 138.5 189t123.5 276q121 337 103 573q-15 242 -170 263zM436 -88q77 -24 135 -82q22 -20 109 -115t133 -123q63 -39 133 -54.5t143.5 2.5t122.5 75q-52 -103 -154.5 -154t-230.5 -22
q-74 19 -131 57t-94.5 83t-72 90.5t-82 88t-105.5 66.5q-89 34 -179.5 25t-142.5 -54q188 194 416 117z" />
    <glyph glyph-name="R" unicode="R" horiz-adv-x="1374" 
d="M1409 997q-94 -265 -485 -303l6 -4q69 -48 112 -153l101 -246q0 -1 6 -17t11.5 -31.5t6.5 -19.5q12 -24 15 -33q9 -18 19.5 -35.5t17.5 -31.5q61 -94 145 -123h-322q-40 34 -96 182l-127 342q-47 117 -92 154q-45 39 -137 55l-221 -543q-35 -89 8 -141q46 -49 117 -49
h-623q79 0 159.5 53.5t119.5 151.5l423 1061q29 68 -6.5 115.5t-111.5 52.5h583q241 0 336 -136q96 -137 35 -301zM1196 1022q19 48 26.5 98.5t-2 103.5t-38.5 94.5t-90 69t-148 29.5l-74 2l-274 -669q121 -14 240 2q272 44 360 270z" />
    <glyph glyph-name="S" unicode="S" horiz-adv-x="1193" 
d="M1323 1303l-123 -242q-3 82 -47 180q-24 58 -70 104.5t-106 69.5q-160 57 -264 -33q-99 -86 -84 -260q9 -79 55 -145q32 -43 166 -168q72 -64 137 -139q42 -45 64 -90q89 -172 26 -322q-55 -131 -176 -199q-129 -72 -258 -75q-317 -9 -518 159q-45 35 -88 95l160 317v-43
q0 -48 15.5 -118.5t43.5 -127.5q53 -109 162 -186q107 -76 244 -76q146 3 200 102q58 101 33 224q-16 92 -82 166l-55 63q-8 11 -76 72l-61 55q-147 139 -188.5 256t9.5 244q37 92 111.5 153.5t167.5 87.5t203 25q180 -3 315 -84q65 -40 84 -65z" />
    <glyph glyph-name="T" unicode="T" horiz-adv-x="1488" 
d="M381 1434h1241l-18 -324q0 2 -15 41q-10 27 -49 86q-41 63 -98 102q-109 74 -252 74h-64l-18 -51l-469 -1161q-34 -84 14.5 -140t145.5 -61h-699q77 0 166 53q93 53 133 154l467 1155q7 20 -2 35.5t-28 15.5h-62q-129 0 -299 -92q-56 -29 -118.5 -83.5t-100.5 -100.5
l-33 -39z" />
    <glyph glyph-name="U" unicode="U" horiz-adv-x="1421" 
d="M1366 1434h512q-230 0 -362 -334l-242 -604q-101 -255 -247 -381.5t-363 -126.5q-142 0 -243 61t-147 164q-85 201 60 557l184 451q39 73 17 143q-21 67 -119 70h622q-199 0 -270 -179l-242 -606q-45 -111 -58.5 -206t1 -162t49.5 -116t83 -74.5t106 -31.5
q179 -19 313.5 92.5t241.5 378.5l243 607q62 130 25 213t-164 84z" />
    <glyph glyph-name="V" unicode="V" horiz-adv-x="1253" 
d="M487 -76l-69 1305q-6 96 -49.5 149t-114.5 58h614q-71 0 -141 -52q-68 -51 -65 -153l30 -748q6 -130 27 -139q17 -6 34.5 10.5t55.5 75.5l526 776q51 74 41.5 125t-45.5 78t-80 27h432q-182 -27 -340 -260z" />
    <glyph glyph-name="W" unicode="W" horiz-adv-x="1935" 
d="M1925 1434h434q-84 -13 -176 -83t-166 -175l-854 -1252l-55 1024l-696 -1026l-70 1323q-9 183 -154 189h609q-72 0 -142 -52q-66 -48 -63 -151l26 -696q9 -188 27 -191q22 -3 78 74l383 565l-14 262q-12 183 -154 189h604q-71 0 -141 -52q-69 -48 -66 -151l33 -748
q6 -128 14 -139l11 -6q8 1 12 0t11.5 5t11.5 9.5t11.5 13t11.5 15.5t11.5 17.5t12.5 17.5l534 790q51 74 41.5 124.5t-45.5 77t-80 26.5z" />
    <glyph glyph-name="X" unicode="X" horiz-adv-x="1329" 
d="M895 774l170 -588q28 -87 106 -136.5t168 -49.5h-680q94 12 136.5 64t21.5 120l-143 484l-365 -394q-63 -72 -76 -134.5t20.5 -98.5t102.5 -41h-503q82 9 200 90q116 80 193 160l420 446l-170 578q-50 160 -234 160h621q-75 -5 -114 -48t-19 -108l139 -479l336 368
q41 45 59 87.5t13.5 73.5t-22 55.5t-43.5 37t-54 13.5h475q-78 -9 -191 -88q-116 -81 -223 -197z" />
    <glyph glyph-name="Y" unicode="Y" horiz-adv-x="1275" 
d="M1159 1434h410q-56 -6 -142.5 -72t-183.5 -180l-348 -404q-44 -53 -90 -166l-166 -415q-37 -89 16 -142q55 -52 136 -55h-648q58 0 138 57q82 58 116 140l172 430q40 94 19 178l-107 438q-23 92 -84.5 141.5t-124.5 49.5h539q-68 -7 -99 -57t-14 -120l107 -426
q12 -46 33 -49q31 -3 67 41l309 359q85 113 58 182q-27 70 -113 70z" />
    <glyph glyph-name="Z" unicode="Z" horiz-adv-x="1320" 
d="M444 20h105q195 0 420 138q206 132 295 262l-152 -420h-1157l1235 1323q27 27 35.5 47t-7 32.5t-57.5 12.5h-106q-201 0 -414 -125q-206 -119 -297 -254l170 398h1047l-1190 -1282q-54 -69 -35 -99.5t108 -32.5z" />
    <glyph glyph-name="bracketleft" unicode="[" horiz-adv-x="565" 
d="M254 -375l-373 -2l737 1807l373 -5l-325 -49l-693 -1706z" />
    <glyph glyph-name="backslash" unicode="\" horiz-adv-x="755" 
d="M645 -8h-29l-555 1444h27z" />
    <glyph glyph-name="bracketright" unicode="]" horiz-adv-x="516" 
d="M313 1434l373 2l-737 -1807l-373 4l326 50l692 1706z" />
    <glyph glyph-name="asciicircum" unicode="^" horiz-adv-x="819" 
d="M420 1262l291 -527l-293 461l-307 -440z" />
    <glyph glyph-name="underscore" unicode="_" horiz-adv-x="899" 
d="M-25 4v25h813v-25h-813z" />
    <glyph glyph-name="grave" unicode="`" horiz-adv-x="839" 
d="M127 1323l51 -299l-160 264q-52 107 15 131q36 12 62 -13t32 -83z" />
    <glyph glyph-name="a" unicode="a" horiz-adv-x="1085" 
d="M793 70q28 -8 94 39q57 41 112 96l48 51l-52 -63q-53 -64 -67 -78l-64 -64q-77 -69 -166 -69q-64 0 -93 33.5t-26.5 81t25.5 106.5l182 442q102 272 -6 299q-73 18 -180 -76q-102 -87 -194 -239q-108 -169 -132 -320q-24 -150 58 -184q77 -27 153 22q77 53 123 117
l-10 -20q-5 -8 -15.5 -28t-23.5 -40q-13 -24 -59 -80q-114 -126 -252 -119q-78 -1 -124 54.5t-52.5 140.5t25 192.5t98.5 206.5q71 114 155.5 197.5t163.5 120.5q147 72 248 69q119 -3 166 -84q49 16 61 23l121 49l-307 -762q-44 -108 -10 -114z" />
    <glyph glyph-name="b" unicode="b" horiz-adv-x="1019" 
d="M449 721q30 45 63 86q34 43 115 98q80 53 157 56q164 3 201 -162q39 -162 -100 -420q-115 -208 -252 -309t-281 -99q-100 1 -162.5 50t-82 128t-9 175t51.5 196l286 705q52 131 37 159q-10 17 -54 31t-91 19l-43 2h440l-408 -1002q-37 -88 -56.5 -181t-8.5 -169.5
t61 -91.5q87 -21 176 71q93 96 175 242q61 111 96 220.5t29.5 195.5t-62.5 108q-62 33 -145 -8q-82 -40 -133 -100z" />
    <glyph glyph-name="c" unicode="c" horiz-adv-x="880" 
d="M723 952q73 -7 121.5 -52.5t56.5 -104.5q15 -82 -33 -136q-30 -30 -73.5 -33.5t-69.5 21.5q-32 29 -28 72.5t40 66.5q48 31 54 72q9 79 -78 88q-108 9 -226 -100q-100 -92 -163 -250q-61 -152 -58 -268q5 -93 46 -153.5t114 -72.5q63 -8 121 7t98.5 44.5t66 56.5t40.5 52
l12 23q-19 -51 -57 -109q-37 -56 -74 -96q-41 -44 -111 -77t-141 -34q-120 -2 -205 75t-98 206q-13 144 41 283.5t160 250.5q189 195 444 168z" />
    <glyph glyph-name="d" unicode="d" horiz-adv-x="1099" 
d="M784 86q16 -19 76 23q58 41 111 90l49 49q-39 -50 -70 -84q-17 -22 -73 -78q-99 -96 -199 -96q-60 0 -80.5 57.5t10.5 142.5l166 408q120 317 2 344q-79 18 -182 -68q-102 -86 -188 -233q-66 -111 -104 -226.5t-32.5 -200.5t62.5 -99q78 -27 160 28q78 53 126 125
q-26 -61 -65 -121q-34 -52 -74 -86q-41 -39 -101 -66t-122 -26q-78 -4 -125 52.5t-55 145t22.5 200t96.5 211.5q72 117 156 199.5t163 121.5q144 68 252 59q83 -6 131 -63l145 358q41 110 29 131q-18 32 -170 46l-51 2h453l-508 -1268q-22 -70 -11 -78z" />
    <glyph glyph-name="e" unicode="e" horiz-adv-x="927" 
d="M748 958q125 -15 170 -114q50 -99 -52 -219q-137 -152 -532 -152q271 27 409 221q32 44 52 100t14 101t-45 51q-86 19 -199 -82q-111 -99 -192 -246q-51 -86 -76 -198q-24 -107 -2 -205q21 -96 104 -117q54 -15 106 -7t93 24.5t77.5 43.5t60 51t40.5 48l19 25
q-23 -52 -72 -117q-37 -53 -90 -100q-52 -45 -134 -73.5t-167 -21.5q-80 2 -139 58t-83.5 141.5t-10 197t72.5 216.5q59 116 138.5 199.5t160.5 119.5q150 68 277 55z" />
    <glyph glyph-name="f" unicode="f" horiz-adv-x="653" 
d="M1165 1290q7 -67 -26 -108.5t-82 -36.5q-50 6 -69 51.5t11 77.5q42 49 34 99t-64 63q-88 23 -163 -63t-149 -281l-67 -170h258l-35 -23h-231l-349 -887q-186 -473 -526 -452q-158 9 -221 108q-30 44 -25 96t41 72q41 30 88.5 13t51.5 -66q1 -21 -6.5 -45.5t-15.5 -44
t-9 -23.5q-5 -37 18.5 -63.5t75.5 -30.5q100 -9 193 148q67 116 135 290l354 885h-90l-27 23h127l58 143q178 438 526 385q83 -12 130.5 -56t53.5 -104z" />
    <glyph glyph-name="g" unicode="g" horiz-adv-x="964" 
d="M649 958q126 -4 200.5 -74t74.5 -175q3 -194 -138 -308q-139 -112 -327 -94q-89 6 -148 41q-76 -46 -61 -106q9 -36 82 -76l174 -96q105 -57 158 -113q92 -92 77 -207q-18 -130 -141 -194q-125 -69 -297 -60q-119 3 -217 31q-102 28 -164.5 94.5t-56.5 159.5q3 50 26 91
t54.5 67t70.5 45.5t70 28.5t59 12l31 4q-77 -37 -117.5 -110t-35.5 -150q7 -115 95.5 -182t225.5 -72q127 -3 186 59q57 60 60 133q9 138 -176 240l-111 55q-62 30 -106 55q-40 23 -68 60t-27 78q3 106 199 159q-112 65 -115 205q-6 171 127 289q131 119 336 110zM754 676
q27 237 -97 264q-112 27 -194 -80t-103 -264q-27 -243 111 -270q103 -24 184 82q85 111 99 268zM1047 950q53 -3 53 -45q0 -21 -14.5 -36.5t-38.5 -14.5q-12 1 -36 14.5t-32 14.5q-38 9 -84 -37q64 107 152 104z" />
    <glyph glyph-name="h" unicode="h" horiz-adv-x="1155" 
d="M762 1434l-586 -1434h-180l471 1192l33 80q47 114 30 131q-7 10 -56 17.5t-101 9.5l-45 4h434zM852 72q15 -9 78 39q72 58 114 100l54 51l-37 -45l-47 -53l-43 -49q-20 -22 -34 -35t-38.5 -30t-32.5 -23q-52 -39 -116 -39q-73 0 -93.5 57t19.5 160l135 327
q38 94 52.5 145.5t7.5 91.5t-42 65q-12 10 -32.5 14t-55 -4.5t-75.5 -30.5t-97 -70t-116 -118q119 176 246 260t247 61q210 -38 72 -381l-150 -375q-33 -91 -26 -110q3 -6 10 -8z" />
    <glyph glyph-name="i" unicode="i" horiz-adv-x="667" 
d="M606 1065q-49 0 -84 35.5t-35 83.5q0 50 34.5 84.5t84.5 34.5q48 0 82.5 -35t34.5 -84q0 -47 -35 -83t-82 -36zM115 178l243 586q27 63 15 72l-6 4q-15 9 -80 -35q-61 -40 -115 -88l-55 -45q84 97 182 176q106 86 174 92q77 8 107.5 -43t-2.5 -143l-252 -607
q-29 -63 -7 -69q18 -9 80 35q68 46 117 92l55 47q-237 -270 -381 -270q-66 0 -87.5 49t12.5 147z" />
    <glyph glyph-name="j" unicode="j" horiz-adv-x="673" 
d="M528 1184q0 50 35 84.5t84 34.5t84 -34.5t35 -84.5q0 -48 -35 -83.5t-84 -35.5t-84 35.5t-35 83.5zM621 764l-357 -885q-27 -69 -66 -122.5t-79 -86.5t-88 -55t-87.5 -31.5t-84.5 -12.5t-71.5 -1.5t-55.5 4.5q-59 6 -117 37t-82 74q-30 48 -27.5 93t33.5 70q38 38 92 23
q55 -15 64 -76q4 -16 -0.5 -37t-12.5 -44.5t-10 -30.5q-6 -28 7.5 -53.5t44.5 -32.5q174 -46 309 276l352 858q46 110 21 119q-16 9 -80 -37q-76 -57 -115 -92l-53 -49q208 239 321 266q97 26 138.5 -25.5t3.5 -148.5z" />
    <glyph glyph-name="k" unicode="k" horiz-adv-x="972" 
d="M739 117q46 -11 90.5 6.5t67.5 46.5l18 27q-87 -234 -253 -213q-152 18 -173 260q0 4 -3.5 43.5t-4.5 64.5q-2 108 -28 152q-25 31 -56 37l-219 -541h-186l491 1237q55 134 43 156q-13 23 -153 37l-47 2h434l-357 -879q134 31 177 -74q11 -28 38 -207q8 -53 40.5 -97.5
t80.5 -57.5zM973 952q35 -6 51.5 -29t13 -48t-26 -46t-57.5 -22q-164 -12 -280 -62q-59 -25 -121 -66t-94 -73l-29 -28q94 126 209 219q203 173 334 155z" />
    <glyph glyph-name="l" unicode="l" horiz-adv-x="593" 
d="M772 1434l-508 -1252q-40 -103 -24 -116q3 -3 6 -3q27 -3 84 39q67 51 110 91l49 47l-36 -43l-43 -50l-45 -47q-38 -40 -105 -84q-53 -34 -117 -34q-84 0 -103.5 62t28.5 179l428 1045q41 102 26 123q-11 16 -56 26.5t-91 12.5l-41 4h438z" />
    <glyph glyph-name="m" unicode="m" horiz-adv-x="1759" 
d="M500 629q110 175 239 262q133 92 252 55q90 -24 108 -110t-42 -267l-223 -571h-193l205 541q91 242 22 282q-50 26 -129 6q-46 -13 -110 -64.5t-129 -133.5zM1493 74q25 -6 82 39q68 54 106 92l48 49q-13 -13 -27 -31l-29 -35l-28 -34l-66 -68q-35 -30 -74 -53
q-53 -39 -116 -39q-70 0 -91 53.5t13 151.5l131 340q35 88 49.5 138.5t11 87.5t-29.5 60q-61 35 -159 -16t-224 -205q134 196 249.5 284.5t229.5 63.5q212 -41 82 -383l-138 -364q-46 -125 -20 -131zM532 752l-305 -752h-186l297 754q27 70 4 82q-19 10 -78 -31t-110 -86
l-52 -45q219 254 324 266q85 18 114.5 -29t-8.5 -159z" />
    <glyph glyph-name="n" unicode="n" horiz-adv-x="1204" 
d="M911 82q27 -7 84 39q70 53 109 92l47 49q-125 -149 -184 -194q-83 -68 -160 -68q-73 0 -94.5 55t14.5 152l135 336q95 237 29 288q-60 36 -158.5 -12t-222.5 -201q259 383 477 336q215 -39 88 -379l-147 -362q-46 -125 -17 -131zM543 748l-295 -748h-195l279 719
q40 94 18 100q-23 10 -78 -28q-47 -31 -100 -78l-45 -43q220 257 338 266q77 7 96.5 -49.5t-18.5 -138.5z" />
    <glyph glyph-name="o" unicode="o" horiz-adv-x="1005" 
d="M590 950q168 37 276 -51q112 -86 103 -262q-1 -80 -22.5 -159.5t-57.5 -149t-85.5 -132t-107.5 -108t-122 -77.5t-129 -40t-130 4q-109 17 -170 109q-57 87 -51 199q6 103 37 219q41 116 99.5 204t125.5 136q114 85 234 108zM604 928q-77 -35 -151 -162
q-71 -123 -119 -285q-44 -183 -41 -319q2 -77 32.5 -123.5t86.5 -46.5q111 -3 219 196q103 193 145 459q26 180 -27.5 252.5t-144.5 28.5z" />
    <glyph glyph-name="p" unicode="p" horiz-adv-x="1089" 
d="M889 958q85 1 133 -56t53 -145t-28 -198t-99 -211q-72 -118 -151.5 -199.5t-155.5 -117.5q-128 -63 -244 -47q-88 15 -127 82l-129 -318q-56 -141 -41 -156q9 -9 74 -18q66 -9 121 -12l59 -2h-692q76 0 156 18q30 8 45 19q21 15 80 151l405 1000q38 90 17 96
q-21 9 -84 -35q-53 -35 -113 -88l-49 -45q249 279 381 270q119 -9 59 -168l-166 -409q-31 -96 -39 -131q-14 -65 -8 -146q9 -77 60 -92q75 -23 167.5 56.5t184.5 246.5q67 123 101.5 235.5t24.5 194t-73 98.5q-67 16 -139 -30t-115 -101l-41 -55q0 3 17 34t51.5 79
t77.5 93.5t104 77t123 29.5z" />
    <glyph glyph-name="q" unicode="q" horiz-adv-x="1050" 
d="M588 -401l4 -7q12 -16 162 -30l47 -2h-664q165 3 199 37q24 18 65 114l381 936q95 272 -14 299q-72 18 -180 -74q-103 -87 -191 -235q-67 -117 -107 -229.5t-36.5 -199.5t63.5 -106q43 -12 89.5 2t85.5 46t65 59.5t47 56.5l17 25q-3 -7 -9 -18.5t-26 -45.5t-41.5 -64.5
t-55.5 -67.5t-68.5 -63t-79 -43.5t-89.5 -15.5q-62 -2 -106 33.5t-62.5 98t-16.5 140t30.5 165.5t78.5 168q248 407 584 380q110 -9 162 -79q190 69 194 73l-493 -1224q-44 -112 -35 -129z" />
    <glyph glyph-name="r" unicode="r" horiz-adv-x="903" 
d="M41 0l313 778q27 68 -4 68q-24 0 -82 -43q-59 -44 -104 -86l-49 -43q75 84 166 164q95 83 145 98q46 24 98 6q51 -17 54 -72q3 -46 -23 -102l-311 -768h-203zM539 694l14 21q31 52 104 125q117 111 234 108q82 2 108 -60q20 -49 -7 -95q-29 -51 -88 -40q-2 1 -3 1
q-36 6 -59 39q-21 35 -56 38q-99 20 -247 -137z" />
    <glyph glyph-name="s" unicode="s" horiz-adv-x="878" 
d="M596 963q117 5 196 -48t80 -143q2 -46 -23 -82t-67 -37q-38 -2 -67.5 21.5t-28.5 54.5q0 17 24.5 59t24.5 58q2 48 -36.5 80t-98.5 28q-69 -6 -106 -69q-38 -62 -29 -121q1 -10 2 -18.5t3.5 -18t4 -14t6 -16t5 -13.5t7 -16.5t7.5 -16.5l18 -33q3 -5 24 -38t29 -43
q24 -36 29 -45q24 -35 55 -91q39 -74 39 -149q0 -150 -121 -221q-119 -70 -288 -58q-110 5 -180 65t-76 159q-7 79 33 132.5t106 55.5q47 0 74.5 -32.5t15.5 -71.5q-9 -42 -49 -60q-35 -13 -53 -45q-34 -61 6 -125q39 -63 127 -69q96 -6 153.5 58.5t51.5 160.5q0 37 -21 84
q-15 36 -37 75l-55 93q-107 168 -98 274q12 109 97.5 169.5t215.5 66.5z" />
    <glyph glyph-name="t" unicode="t" horiz-adv-x="655" 
d="M723 901h-141l-295 -741q-30 -77 -8 -86t86 37q69 53 118 102l56 51q-13 -13 -66 -78q-26 -34 -80 -96q-33 -37 -83 -69.5t-91 -36.5q-83 -6 -129 49q-42 54 4 168l285 700h-86l-17 21h111l78 192l260 146l-135 -338h151z" />
    <glyph glyph-name="u" unicode="u" horiz-adv-x="1144" 
d="M338 856q-16 9 -74 -37q-49 -39 -104 -90l-47 -47q86 101 98 115q37 44 102 92q71 53 123 53q71 0 94.5 -53.5t-10.5 -153.5q-65 -158 -133 -348q-20 -51 -47 -135q-30 -111 18 -143q115 -77 340 202q-224 -364 -434 -321q-206 39 -90 368l148 387q37 102 16 111z
M1141 922l-289 -764q-27 -78 -8 -84q21 -6 76 37q62 49 104 94l45 47l-29 -39q-28 -35 -34 -45q-70 -81 -80 -88q-7 -6 -26 -22.5t-35.5 -30t-28.5 -19.5q-50 -26 -99 -26q-61 2 -85.5 56t3.5 134l287 750h199z" />
    <glyph glyph-name="v" unicode="v" horiz-adv-x="974" 
d="M911 942q51 -9 71.5 -46t11.5 -94t-39.5 -127.5t-80.5 -150.5q-94 -155 -245 -323q-151 -164 -271 -244l7 72q6 93 8 188q3 135 -13 268q-13 177 -47.5 260t-97.5 101q-39 8 -79.5 -18.5t-65.5 -88.5q14 80 66.5 138t125.5 65q119 12 189.5 -90.5t99.5 -345.5
q24 -261 12 -350q68 64 148 163q88 111 127 179q32 58 44.5 115t5 96.5t-29.5 56.5q-48 60 -45 106q5 33 31 55t67 15z" />
    <glyph glyph-name="w" unicode="w" horiz-adv-x="1406" 
d="M1364 934q57 -6 70 -71t-28 -188t-134 -278q-87 -141 -238 -274q-143 -128 -243 -166q6 19 12 63q8 36 8 170q0 125 -25 259q2 0 -18.5 -32t-64.5 -87t-93 -101q-65 -63 -157 -141q-56 -46 -129 -100l-48 -33q1 5 3 19.5t3.5 29.5t2.5 31q4 32 14 184q9 132 6 240
q-1 198 -26.5 283.5t-81.5 97.5q-84 15 -127 -113q9 58 30 115q35 77 115 92q106 15 186 -80q80 -92 86 -344q3 -212 -12 -381q93 70 177 163.5t130 172.5l-28 92q-41 128 -41 172q-1 96 47.5 148t138.5 57q49 1 69.5 -36.5t12.5 -100.5q-9 -56 -59 -181q76 -216 61 -518
q106 81 209 211q103 131 137 223q44 117 -6 209q-5 8 -27 34t-33 48.5t-6 44.5q1 35 33 54.5t74 11.5zM961 819q0 54 -21.5 77.5t-48.5 4.5q-36 -33 -12 -153l34 -117l5 4l7 19q7 19 11.5 33.5t11 37.5t10 47t3.5 47z" />
    <glyph glyph-name="x" unicode="x" horiz-adv-x="1003" 
d="M938 942q59 0 91 -28.5t36 -71.5t-0.5 -79t-15.5 -65q7 59 -24.5 96t-88.5 42q-108 6 -227 -140q-50 -56 -111 -153l25 -215q14 -129 40 -192t74 -70q93 -16 150 96q-4 -18 -23 -60q-54 -110 -162 -120q-210 -21 -247 245l-19 146l-114 -170q-87 -126 -146 -176t-127 -50
q-114 3 -129 93q-7 49 19 102t61 84q-31 -51 -12 -101.5t73 -60.5q115 -21 242 121l131 172l-37 299q-21 160 -96 166q-99 9 -164 -117q4 19 31 70q75 134 188 139q97 5 151.5 -53.5t72.5 -200.5l16 -135l49 80q21 32 45 74l33 51q41 63 72 100q33 41 64 58.5t79 23.5z" />
    <glyph glyph-name="y" unicode="y" horiz-adv-x="944" 
d="M877 948q118 -12 81 -180q-35 -160 -188 -381q-113 -171 -281 -348q-164 -176 -337 -309q-50 -41 -74 -56q-29 -21 -80 -45.5t-94 -31.5q-123 -15 -160 22q-28 28 -16 76q12 47 61 59q10 0 30.5 3t28.5 -3l27 -10q18 -5 59 -29q50 -20 121.5 1.5t143.5 78.5l57 47
q64 58 141 138q-12 308 -49 532q-34 179 -70.5 252t-87.5 78q-86 9 -133 -94q20 72 59.5 125t100.5 65q129 26 203.5 -69.5t109.5 -329.5q36 -229 33 -379q114 130 162 194q91 132 115 189q59 144 -6 221q-1 2 -20 24.5t-23 28.5q-17 29 -15 60t30.5 54t70.5 17z" />
    <glyph glyph-name="z" unicode="z" horiz-adv-x="837" 
d="M164 750l29 49q25 49 92 100q63 51 139 51q58 0 123 -35q59 -30 108 -34q62 -3 148 18q84 24 94 43q-40 -101 -154 -221q-101 -106 -260 -219q-323 -214 -381 -291l17 10q66 27 131 19q71 -6 147 -58q78 -52 142 -61q157 -24 239 80l-28 -58q-24 -53 -95 -114
q-66 -57 -141 -54q-89 3 -190 58q-98 58 -174 61q-135 9 -224 -65l21 32q22 36 67 90t90 93q80 74 271 207l227 159q107 87 150 146l-27 -6q-69 -16 -154 -5q-54 9 -114 43q-54 31 -84 39q-136 27 -209 -77z" />
    <glyph glyph-name="braceleft" unicode="{" horiz-adv-x="675" 
d="M1057 1423q-150 15 -228 -14q-71 -29 -124 -100q-55 -72 -91 -191q-29 -97 -47 -205q-15 -99 -67.5 -189t-139.5 -138q34 -40 25 -140q-9 -101 -49 -180l-53 -102q-28 -49 -60 -115q-62 -132 -65 -233q0 -60 27.5 -106t73.5 -72.5t93.5 -41t100.5 -20.5q-108 1 -188 30
t-124.5 79.5t-59.5 118.5t1.5 149.5t62.5 169.5l41 78l37 69l25 54q16 32 23 58.5t8 38.5t2 56q0 104 -93 131q69 9 142 66q79 64 135 256q1 2 26 108.5t48 165.5q40 101 112.5 163.5t153.5 74.5q148 22 252 -19z" />
    <glyph glyph-name="bar" unicode="|" horiz-adv-x="266" 
d="M-238 -115l412 1768h21l-410 -1768h-23z" />
    <glyph glyph-name="braceright" unicode="}" horiz-adv-x="638" 
d="M-373 -406q148 -15 228 15q73 30 125 100q75 100 122 324q15 75 29.5 126t41.5 113.5t70.5 110.5t102.5 82q-31 36 -31 129q3 101 39 168q7 17 66 125q55 103 78 171.5t28 143.5q0 60 -27.5 106t-73.5 72.5t-93.5 41t-100.5 20.5q135 -1 225 -45.5t126.5 -119t26 -173
t-69.5 -209.5l-58 -104l-37 -78q-1 -3 -10.5 -30.5t-9.5 -33.5q0 -2 -3.5 -33t1.5 -38q0 -105 92 -132q-70 -9 -141 -65q-37 -31 -84 -121q-45 -85 -70 -172q-1 -2 -26 -108.5t-48 -165.5q-40 -101 -112.5 -163.5t-153.5 -74.5q-150 -23 -252 18z" />
    <glyph glyph-name="asciitilde" unicode="~" horiz-adv-x="794" 
d="M125 586q37 83 105.5 129t138.5 41q47 -5 114 -60q63 -51 109 -51q130 0 182 98q-19 -68 -79.5 -115.5t-127.5 -47.5t-131 55q-63 57 -129 57q-104 0 -182 -106z" />
    <glyph glyph-name="exclamdown" unicode="&#xa1;" horiz-adv-x="497" 
d="M428 846q0 -44 -32.5 -75.5t-76.5 -31.5q-43 0 -73.5 31.5t-30.5 75.5q0 43 30.5 74.5t73.5 31.5t76 -32t33 -74zM250 645q-60 -176 -109 -352l-84 -303q-29 -122 -61 -217q-35 -104 -71.5 -151.5t-80.5 -47.5q-67 0 -67 64q-3 92 172 423q238 446 301 584z" />
    <glyph glyph-name="cent" unicode="&#xa2;" horiz-adv-x="972" 
d="M883 899q9 -71 -31 -117q-24 -28 -62 -31.5t-61 17.5q-29 25 -25 62t35 61q17 9 25 14.5t15 18t7 30.5q0 67 -86 70h-36l-302 -750q27 -24 74 -30q48 -7 94.5 2.5t79.5 27.5t62.5 43t46.5 45t29 39l12 23q-16 -43 -58 -107q-40 -61 -71 -92q-41 -44 -105.5 -75.5
t-130.5 -32.5q-49 0 -92 12l-55 -135h-21l58 141q-73 26 -118.5 89.5t-55.5 154.5q-27 279 188 504q153 163 354 166l58 141h20l-57 -141q35 0 45 -2q69 -6 112.5 -48t51.5 -100zM346 289l295 731q-65 -15 -143 -80q-97 -78 -158 -229q-56 -138 -53 -256q6 -110 59 -166z
" />
    <glyph glyph-name="sterling" unicode="&#xa3;" 
d="M1378 1450q99 -7 137 -65.5t1 -137.5q-17 -38 -50.5 -61t-68.5 -21q-52 2 -63.5 41.5t24.5 96.5q40 66 27.5 102.5t-68.5 34.5q-47 0 -113 -54q-57 -47 -96 -94t-102 -137l-408 -563h201l-27 -19h-188l-238 -309q137 -6 217 -71q105 -87 180 -101q79 -14 151.5 5.5
t100.5 72.5q40 69 -82 84q-30 1 -45.5 26.5t-7.5 57.5q21 71 92 86q92 15 107 -59q15 -70 -25 -158q-53 -125 -148.5 -190t-228.5 -46q-55 8 -92 36t-57 63.5t-40 70.5t-54.5 63t-85.5 36q-123 -144 -150 -168q-96 -90 -180 -90q-47 0 -71.5 15t-26 38t7 46.5t24.5 45.5
q43 55 123.5 95.5t157.5 51.5l205 299h-144l-16 19h172l356 534q129 183 283 263t309 61zM63 115q27 12 60 45q15 15 39 45l37 47q-45 -3 -103 -37q-59 -35 -73 -70q-11 -19 2.5 -29.5t37.5 -0.5z" />
    <glyph glyph-name="currency" unicode="&#xa4;" horiz-adv-x="1015" 
d="M1020 1049l31 -48l-160 -112q40 -93 -10 -213q-53 -122 -170 -221l67 -107l-55 -41l-64 111q-131 -88 -268 -88q-122 0 -188 78l-152 -109l-28 47l149 109q-41 104 10 221q52 125 178 227l-69 109l55 39l66 -111q131 82 260 82t194 -86zM653 967q-117 0 -239 -88
q-124 -86 -170 -205q-50 -120 -2 -205q47 -84 164 -84q116 0 241 84q121 81 172 205q50 122 4 207q-44 86 -170 86z" />
    <glyph glyph-name="yen" unicode="&#xa5;" horiz-adv-x="1429" 
d="M1372 1434h432q-169 -21 -362 -226l-402 -432h273l-29 -22h-835l-17 22h223l-104 486q-16 69 -56 113.5t-79 51.5l-35 7h614q-62 0 -139 -62q-75 -57 -53 -155l104 -441h103l364 387q63 67 87.5 127t2 100t-91.5 44zM676 614h-285l-14 23h878l-26 -23h-295
q-22 -39 -47 -100l-135 -328q-14 -38 -16 -68.5t5.5 -49t23 -32.5t30.5 -20.5t34.5 -10.5t28.5 -4.5t19 -0.5h-633q39 0 114 23q50 18 92 60t66 103l135 328q19 50 25 100z" />
    <glyph glyph-name="brokenbar" unicode="&#xa6;" horiz-adv-x="335" 
d="M63 838l228 559h20l-227 -559h-21zM-266 18l225 560h21l-226 -560h-20z" />
    <glyph glyph-name="section" unicode="&#xa7;" horiz-adv-x="956" 
d="M666 1473q120 -3 178 -76q59 -75 22 -166q-37 -94 -114 -94q-34 0 -46 19t-4.5 46.5t27.5 57.5q49 76 6 135q-40 58 -139 55q-61 -5 -130 -39.5t-108 -87.5q-26 -34 -36.5 -72.5t-4 -78t49.5 -71.5t120 -44q133 -27 195 -80q40 -32 52 -74t4.5 -80.5t-29.5 -93.5
q-53 -114 -170 -203q45 -83 -15 -221q-52 -124 -184 -207q-128 -82 -268 -82q-188 0 -246 88q-63 90 -19 201q20 49 57.5 82t80.5 33t58 -35.5t-9 -73.5q-5 -10 -14 -25.5t-12.5 -21.5t-8.5 -17t-8 -20t-6 -20q-20 -51 4 -92q30 -62 125 -74t194 39q103 53 142 149
q80 192 -205 244q-90 18 -143 48t-69.5 71.5t-11 86t30.5 101.5q51 117 170 199q-47 78 8 201q56 124 187 209q130 87 289 84zM383 872q-133 21 -184 84q-41 -38 -60 -69q-17 -27 -23.5 -54.5t0.5 -55.5t28 -51t62.5 -41.5t100.5 -27.5q163 -27 219 -110q41 51 52 82
q39 91 -9.5 155.5t-185.5 87.5z" />
    <glyph glyph-name="dieresis" unicode="&#xa8;" horiz-adv-x="1085" 
d="M223 1079q-43 0 -73.5 32.5t-30.5 76.5q0 38 31.5 68t72.5 30q44 0 75.5 -28.5t31.5 -69.5q0 -44 -31.5 -76.5t-75.5 -32.5zM659 1079q-43 0 -73.5 32.5t-30.5 76.5q0 38 31.5 68t72.5 30q44 0 75.5 -28.5t31.5 -69.5q0 -44 -31.5 -76.5t-75.5 -32.5z" />
    <glyph glyph-name="copyright" unicode="&#xa9;" horiz-adv-x="1480" 
d="M1016 20q-274 -194 -549 -194q-274 0 -391 194q-118 198 -6 472q112 276 385 469q274 194 549 194q274 0 391 -194q118 -195 6 -469q-112 -276 -385 -472zM1386 494q108 267 -6 454q-114 191 -381 191q-266 0 -534 -191q-263 -187 -371 -454q-109 -270 4 -459
q115 -189 379 -189t533 189q268 191 376 459zM440 461q-32 -137 18.5 -220.5t168.5 -101.5q123 -20 252.5 26.5t228.5 158.5q-88 -131 -244 -232q-148 -98 -317 -98q-200 0 -291 125q-89 127 -4 350q70 183 219 311q145 124 308 172t311 21q97 -19 145 -85.5t14 -148.5
q-23 -57 -66.5 -89.5t-90.5 -28.5q-36 5 -52.5 26.5t-11.5 53.5t29 69q120 190 -58 199q-177 6 -346 -146q-163 -150 -213 -362z" />
    <glyph glyph-name="guillemotleft" unicode="&#xab;" horiz-adv-x="679" 
d="M317 279l-178 290l359 310l-260 -318zM522 279l-178 290l358 310l-260 -318z" />
    <glyph glyph-name="logicalnot" unicode="&#xac;" horiz-adv-x="944" 
d="M162 655h706l-8 -20l-86 -211h-20l86 211h-686z" />
    <glyph glyph-name="registered" unicode="&#xae;" horiz-adv-x="1495" 
d="M483 961q274 194 549 194q274 0 391 -194q118 -195 7 -469q-112 -274 -386 -472q-274 -194 -548 -194q-275 0 -392 194q-118 198 -6 472q112 276 385 469zM1415 494q108 267 -6 454q-114 191 -381 191q-266 0 -534 -191q-263 -187 -371 -454q-109 -270 4 -459
q115 -189 379 -189q263 0 532 189q269 192 377 459zM907 940q127 -2 184 -19.5t70 -66.5q22 -56 -10 -131q-47 -103 -141 -164q-58 -36 -131 -51q40 -9 55 -117l29 -164q7 -42 28 -75t41 -41l19 -9h-201q-24 47 -33 125l-31 183q-2 17 -6 30.5t-11 23t-12.5 17t-16 11.5
t-15.5 7t-18.5 4t-17.5 1h-18h-16l-135 -328q-4 -11 -5.5 -20.5t0.5 -16.5t5 -12.5t9 -9.5t11 -6.5t12.5 -4t11 -2.5t10.5 -2h6h-328q105 0 145 101l256 633q9 23 9.5 41t-7 28.5t-16.5 17t-21.5 9.5t-18.5 3.5t-11 0.5q79 0 153 2q138 4 166 2zM1024 725q48 119 -2 165
t-197 40l-166 -414q46 0 109 8q185 30 256 201z" />
    <glyph glyph-name="overscore" unicode="&#xaf;" 
d="M317 1098l9 14l403 2l-8 -16h-404z" />
    <glyph glyph-name="degree" unicode="&#xb0;" horiz-adv-x="417" 
d="M127 1171q0 54 37 91.5t88 37.5q55 0 91.5 -36.5t35.5 -92.5q-2 -51 -39 -87.5t-88 -36.5t-88 36.5t-37 87.5zM350 1174q0 41 -28.5 69.5t-67.5 28.5t-67.5 -28.5t-28.5 -69.5q0 -38 29 -67.5t67 -29.5t67 29.5t29 67.5z" />
    <glyph glyph-name="plusminus" unicode="&#xb1;" horiz-adv-x="1136" 
d="M817 1143l-162 -404h424l-10 -22h-424l-147 -367h-25l148 367h-426l10 22h426l162 404h24zM879 242h-875l8 22h875z" />
    <glyph glyph-name="acute" unicode="&#xb4;" horiz-adv-x="532" 
d="M295 1028l172 252q30 48 66 60t59 -15q16 -9 18.5 -29.5t-12.5 -47t-47 -48.5z" />
    <glyph glyph-name="middot" unicode="&#xb7;" horiz-adv-x="438" 
d="M217 496q-43 0 -74.5 31.5t-31.5 74.5t31.5 75t74.5 32q44 0 75.5 -32t31.5 -75t-31.5 -74.5t-75.5 -31.5z" />
    <glyph glyph-name="cedilla" unicode="&#xb8;" 
d="M-41 -127l141 121l25 8l-92 -88q58 -4 87.5 -29.5t28 -61t-29.5 -73.5q-50 -79 -132.5 -115t-151.5 -26t-93 51q36 -20 88 -22.5t111.5 26t95.5 88.5q17 33 17.5 55.5t-16 36.5t-36.5 20.5t-43 8.5z" />
    <glyph glyph-name="guillemotright" unicode="&#xbb;" horiz-adv-x="692" 
d="M236 854l178 -291l-359 -309l260 317zM428 848l178 -291l-358 -309l260 317z" />
    <glyph glyph-name="questiondown" unicode="&#xbf;" horiz-adv-x="735" 
d="M569 977q44 0 76.5 -32t32.5 -75q0 -44 -32 -75t-77 -31q-43 0 -73.5 31t-30.5 75q0 43 31 75t73 32zM532 680q1 -83 -23 -162.5t-70 -149.5t-87.5 -119.5t-99.5 -107.5q-165 -168 -182 -280q-19 -125 29.5 -205.5t150.5 -81.5q83 0 125.5 31t54.5 108q3 31 -20 82
q-25 52 -25 74q5 52 38.5 82.5t82.5 23.5q44 -7 67 -48t17 -101q-14 -120 -105.5 -194.5t-240.5 -73.5q-178 2 -271 96.5t-73 255.5q5 38 26.5 78t47 71.5t72 73t78 66t89.5 68.5t84 65q95 75 159.5 165t75.5 183z" />
    <glyph glyph-name="Agrave" unicode="&#xc0;" horiz-adv-x="1230" 
d="M1028 1802l51 -299l-159 264q-52 107 14 131q36 12 62 -13t32 -83zM1194 2h-600q73 0 139 51q71 53 68 154l-8 328h-459l-207 -308q-48 -75 -37 -125t48 -75t83 -25h-442q84 13 180 87t166 175l858 1258l59 -1329q6 -185 152 -191zM682 1053l-334 -496h443l-11 416v39
q-3 103 -16 110q-27 12 -82 -69z" />
    <glyph glyph-name="Aacute" unicode="&#xc1;" horiz-adv-x="1230" 
d="M1143 1862q17 -9 19 -29.5t-14 -47t-48 -48.5l-254 -172l170 252q32 48 68 60t59 -15zM1194 2h-600q73 0 139 51q71 53 68 154l-8 328h-459l-207 -308q-48 -75 -37 -125t48 -75t83 -25h-442q84 13 180 87t166 175l858 1258l59 -1329q6 -185 152 -191zM682 1053l-334 -496
h443l-11 416v39q-3 103 -16 110q-27 12 -82 -69z" />
    <glyph glyph-name="Acircumflex" unicode="&#xc2;" horiz-adv-x="1230" 
d="M1133 1817l10 -289l-101 203l-344 -203l308 289h127zM1194 2h-600q73 0 139 51q71 53 68 154l-8 328h-459l-207 -308q-48 -75 -37 -125t48 -75t83 -25h-442q84 13 180 87t166 175l858 1258l59 -1329q6 -185 152 -191zM682 1053l-334 -496h443l-11 416v39q-3 103 -16 110
q-27 12 -82 -69z" />
    <glyph glyph-name="Atilde" unicode="&#xc3;" horiz-adv-x="1230" 
d="M1118 1626q45 -5 95.5 26t82.5 85q-34 -76 -98 -131q-68 -55 -131 -52q-37 2 -61.5 20t-35 38.5t-30 38.5t-47.5 20q-93 6 -176 -121q44 93 113.5 143.5t138.5 39.5q43 -6 78 -56q33 -48 71 -51zM983 1522l59 -1329q6 -185 152 -191h-600q73 0 139 51q71 53 68 154
l-8 328h-459l-207 -308q-48 -75 -37 -125t48 -75t83 -25h-442q84 13 180 87t166 175zM682 1053l-334 -496h443l-11 416v39q-3 103 -16 110q-27 12 -82 -69z" />
    <glyph glyph-name="Adieresis" unicode="&#xc4;" horiz-adv-x="1230" 
d="M756 1616q-43 0 -74 32t-31 76q0 38 32 68.5t73 30.5q44 0 75 -29t31 -70q0 -47 -30.5 -77.5t-75.5 -30.5zM1192 1823q44 0 75 -29t31 -70q0 -47 -30.5 -77.5t-75.5 -30.5q-41 0 -71.5 32t-30.5 76q0 39 30.5 69t71.5 30zM983 1522l59 -1329q6 -185 152 -191h-600
q73 0 139 51q71 53 68 154l-8 328h-459l-207 -308q-48 -75 -37 -125t48 -75t83 -25h-442q84 13 180 87t166 175zM682 1053l-334 -496h443l-11 416v39q-3 103 -16 110q-27 12 -82 -69z" />
    <glyph glyph-name="Aring" unicode="&#xc5;" horiz-adv-x="1230" 
d="M870 1692q0 54 37 91.5t88 37.5q55 0 91 -36.5t36 -92.5q-2 -51 -39 -88t-88 -37t-88 37t-37 88zM901 1694q0 -38 29 -67.5t67 -29.5t67.5 29.5t29.5 67.5t-29.5 68t-67.5 30q-39 0 -67.5 -28.5t-28.5 -69.5zM1194 2h-600q73 0 139 51q71 53 68 154l-8 328h-459
l-207 -308q-48 -75 -37 -125t48 -75t83 -25h-442q84 13 180 87t166 175l858 1258l59 -1329q6 -185 152 -191zM682 1053l-334 -496h443l-11 416v39q-3 103 -16 110q-27 12 -82 -69z" />
    <glyph glyph-name="AE" unicode="&#xc6;" horiz-adv-x="2074" 
d="M1524 1407h-60q-16 -43 -37 -90l-217 -549h125q125 0 207 39q89 41 121 78q41 48 70 100l-195 -549q5 26 6 56.5t-3.5 66t-20 68t-40 59t-66.5 42t-97 15.5h-117l-237 -602q-46 -116 96 -116h92q278 3 537 131q125 64 196 120q71 59 133 136l-182 -412h-1372q71 0 151 45
q83 47 117 131l189 465h-398l-372 -395q-92 -104 -66.5 -172.5t149.5 -73.5h-532q77 0 180 57.5t205 165.5l971 1041q54 62 29.5 115t-99.5 55h1155l37 -375q-7 23 -20 45q-19 33 -70 96q-52 67 -119 109q-69 46 -153 67q-94 25 -129 27q-66 4 -129 4h-35zM549 670h383
l250 614q15 39 6 45q-5 0 -7.5 1t-10.5 -5.5t-13 -10.5t-14.5 -14t-15.5 -16t-16 -16.5t-15 -16.5z" />
    <glyph glyph-name="Ccedilla" unicode="&#xc7;" horiz-adv-x="1548" 
d="M1563 1260l-148 -308q9 139 -35 279q-24 82 -81.5 134.5t-139.5 59.5q-160 18 -309 -98q-147 -114 -246 -305q-74 -143 -98 -307q-24 -168 22 -314q50 -148 174 -200q164 -65 345 6q181 70 282 235q-111 -217 -268 -338q-161 -124 -377 -106l-82 -78q58 -4 87.5 -29
t28 -60t-29.5 -73q-38 -62 -97 -98.5t-114 -43t-101.5 6.5t-64.5 43q36 -20 87.5 -22.5t111.5 26t96 90.5q17 33 18 55t-16.5 36t-37 20t-42.5 8l142 121q-5 0 -37 4q-196 34 -295 193q-96 166 -84 368q15 210 117 400q280 514 819 477q237 -15 373 -182z" />
    <glyph glyph-name="Egrave" unicode="&#xc8;" horiz-adv-x="1490" 
d="M1061 1802l51 -299l-160 264q-52 107 15 131q36 12 62 -13t32 -83zM1083 154q209 101 330 258l-190 -412h-1389q88 0 176 55q90 54 125 133l440 1090q24 62 -18.5 106.5t-122.5 49.5h1069l33 -387q-3 6 -7 14.5t-11 20t-11 20.5q-17 33 -77 108t-117 109q-96 59 -183 74
q-86 18 -223 18h-39l-258 -643h109q199 0 301 76q47 36 73 66.5t54 78.5l-211 -551q7 26 8 57t-4 66t-22 67.5t-43.5 58.5t-71.5 42t-103 16h-98l-244 -602q-20 -54 -2 -85t68 -31h127q272 0 532 127z" />
    <glyph glyph-name="Eacute" unicode="&#xc9;" horiz-adv-x="1490" 
d="M1395 1862q16 -9 18.5 -29.5t-12.5 -47t-47 -48.5l-256 -172l172 252q30 48 66 60t59 -15zM1083 154q209 101 330 258l-190 -412h-1389q88 0 176 55q90 54 125 133l440 1090q24 62 -18.5 106.5t-122.5 49.5h1069l33 -387q-3 6 -7 14.5t-11 20t-11 20.5q-17 33 -77 108
t-117 109q-96 59 -183 74q-86 18 -223 18h-39l-258 -643h109q199 0 301 76q47 36 73 66.5t54 78.5l-211 -551q7 26 8 57t-4 66t-22 67.5t-43.5 58.5t-71.5 42t-103 16h-98l-244 -602q-20 -54 -2 -85t68 -31h127q272 0 532 127z" />
    <glyph glyph-name="Ecircumflex" unicode="&#xca;" horiz-adv-x="1490" 
d="M1346 1837l12 -287l-103 201l-342 -203l306 289h127zM1083 154q209 101 330 258l-190 -412h-1389q88 0 176 55q90 54 125 133l440 1090q24 62 -18.5 106.5t-122.5 49.5h1069l33 -387q-3 6 -7 14.5t-11 20t-11 20.5q-17 33 -77 108t-117 109q-96 59 -183 74
q-86 18 -223 18h-39l-258 -643h109q199 0 301 76q47 36 73 66.5t54 78.5l-211 -551q7 26 8 57t-4 66t-22 67.5t-43.5 58.5t-71.5 42t-103 16h-98l-244 -602q-20 -54 -2 -85t68 -31h127q272 0 532 127z" />
    <glyph glyph-name="Edieresis" unicode="&#xcb;" horiz-adv-x="1490" 
d="M895 1616q-41 0 -71.5 32t-30.5 76q0 39 30.5 69t71.5 30q44 0 75 -29t31 -70q0 -47 -30.5 -77.5t-75.5 -30.5zM1333 1616q-43 0 -73.5 32t-30.5 76q0 41 30.5 70t73.5 29q44 0 74.5 -29t30.5 -70q0 -47 -30 -77.5t-75 -30.5zM1083 154q209 101 330 258l-190 -412h-1389
q88 0 176 55q90 54 125 133l440 1090q24 62 -18.5 106.5t-122.5 49.5h1069l33 -387q-3 6 -7 14.5t-11 20t-11 20.5q-17 33 -77 108t-117 109q-96 59 -183 74q-86 18 -223 18h-39l-258 -643h109q199 0 301 76q47 36 73 66.5t54 78.5l-211 -551q7 26 8 57t-4 66t-22 67.5
t-43.5 58.5t-71.5 42t-103 16h-98l-244 -602q-20 -54 -2 -85t68 -31h127q272 0 532 127z" />
    <glyph glyph-name="Igrave" unicode="&#xcc;" horiz-adv-x="780" 
d="M780 1802l49 -299l-157 264q-28 62 -24 90t36 41q36 12 62.5 -12.5t33.5 -83.5zM461 1434h651q-88 0 -164 -40t-110 -122l-441 -1098q-33 -77 17 -123t145 -51h-694q83 3 172 53q89 53 127 142l416 1032q36 85 4 142.5t-123 64.5z" />
    <glyph glyph-name="Iacute" unicode="&#xcd;" horiz-adv-x="780" 
d="M758 1565l172 252q30 48 66 60t59 -15q16 -9 18.5 -29.5t-12.5 -47t-47 -48.5zM1112 1434h-651q91 -7 123 -64.5t-4 -142.5l-416 -1032q-38 -89 -127 -142q-89 -50 -172 -53h694q-95 5 -145 51t-17 123l441 1098q34 82 110 122t164 40z" />
    <glyph glyph-name="Icircumflex" unicode="&#xce;" horiz-adv-x="780" 
d="M561 1528l307 289h127l11 -289l-101 203zM1112 1434h-651q91 -7 123 -64.5t-4 -142.5l-416 -1032q-38 -89 -127 -142q-89 -50 -172 -53h694q-95 5 -145 51t-17 123l441 1098q34 82 110 122t164 40z" />
    <glyph glyph-name="Idieresis" unicode="&#xcf;" horiz-adv-x="780" 
d="M608 1616q-41 0 -71.5 32t-30.5 76q0 39 30.5 69t71.5 30q44 0 75.5 -29t31.5 -70q0 -47 -31 -77.5t-76 -30.5zM1047 1616q-43 0 -74 32t-31 76q0 41 31 70t74 29q44 0 74 -29t30 -70q0 -47 -29.5 -77.5t-74.5 -30.5zM461 1434h651q-88 0 -164 -40t-110 -122l-441 -1098
q-33 -77 17 -123t145 -51h-694q83 3 172 53q89 53 127 142l416 1032q36 85 4 142.5t-123 64.5z" />
    <glyph glyph-name="Eth" unicode="&#xd0;" horiz-adv-x="1544" 
d="M1352 1366q91 -46 155 -147q66 -105 84 -269q18 -165 -65 -377q-224 -573 -948 -573h-725q97 5 175 47.5t109 120.5l223 555h-198l-12 18h219l213 531q28 65 -14.5 111t-123.5 51h402q189 3 297 -9q109 -9 209 -59zM1061 258q141 150 223 373q83 226 74 407
q-21 351 -336 369q-128 9 -143 6l-271 -672h230l-17 -18h-219l-219 -543q-65 -153 92 -153h55q316 0 531 231z" />
    <glyph glyph-name="Ntilde" unicode="&#xd1;" horiz-adv-x="1533" 
d="M924 1550q44 93 113.5 143.5t138.5 39.5q42 -6 77 -56q33 -48 72 -51q45 -5 95.5 26t82.5 85q-34 -76 -98 -131q-68 -55 -131 -52q-37 2 -61.5 20t-35 38.5t-30 38.5t-47.5 20q-93 6 -176 -121zM1921 1436h-516q112 -5 156.5 -80.5t-0.5 -198.5l-273 -665
q-25 -61 -42.5 -83.5t-31.5 -17.5q-22 6 -49 82l-344 961h-438q108 -3 154 -91q47 -90 10 -184l-346 -850q-114 -279 -367 -309h535q-70 8 -112 39.5t-60 95.5q-19 68 26 166l330 811q20 52 38 78t32 24q23 -3 63 -116l410 -1133l487 1184q58 145 148.5 215t189.5 72z" />
    <glyph glyph-name="Ograve" unicode="&#xd2;" horiz-adv-x="1589" 
d="M1151 1802l51 -299l-160 264q-52 107 15 131q36 12 62 -13t32 -83zM1348 1421q183 -59 243 -286q30 -107 6 -263t-98 -321q-163 -354 -487 -512q-328 -157 -611 -14q-120 58 -170 217q-47 161 -10 364q42 211 158 387q188 290 455 398q265 110 514 30zM1176 1432
q-118 21 -275 -86q-83 -58 -170 -179.5t-158 -287.5q-127 -294 -118 -568q9 -267 157 -317q42 -9 72.5 -11t75.5 7t88 35q68 39 135 106q68 68 137 189.5t123 275.5q120 334 105 573q-15 242 -172 263z" />
    <glyph glyph-name="Oacute" unicode="&#xd3;" horiz-adv-x="1589" 
d="M1178 1565l172 252q30 48 66 60t59 -15q16 -9 18.5 -29.5t-12.5 -47t-47 -48.5zM1348 1421q-249 80 -514 -30q-267 -108 -455 -398q-116 -176 -158 -387q-37 -203 10 -364q50 -159 170 -217q283 -143 611 14q324 158 487 512q74 165 98 321t-6 263q-60 227 -243 286z
M1176 1432q157 -21 172 -263q15 -239 -105 -573q-54 -154 -123 -275.5t-137 -189.5q-67 -67 -135 -106q-43 -26 -88 -35t-75.5 -7t-72.5 11q-148 50 -157 317q-9 274 118 568q71 166 158 287.5t170 179.5q157 107 275 86z" />
    <glyph glyph-name="Ocircumflex" unicode="&#xd4;" horiz-adv-x="1589" 
d="M987 1548l307 289h125l13 -287l-101 201zM1348 1421q-249 80 -514 -30q-267 -108 -455 -398q-116 -176 -158 -387q-37 -203 10 -364q50 -159 170 -217q283 -143 611 14q324 158 487 512q74 165 98 321t-6 263q-60 227 -243 286zM1176 1432q157 -21 172 -263
q15 -239 -105 -573q-54 -154 -123 -275.5t-137 -189.5q-67 -67 -135 -106q-43 -26 -88 -35t-75.5 -7t-72.5 11q-148 50 -157 317q-9 274 118 568q71 166 158 287.5t170 179.5q157 107 275 86z" />
    <glyph glyph-name="Otilde" unicode="&#xd5;" horiz-adv-x="1589" 
d="M895 1561q44 94 112.5 144t137.5 40q45 -9 78 -57q37 -49 73 -52q45 -5 96 27t81 86q-31 -78 -98 -132t-130 -52q-37 2 -61.5 20t-35 38t-30 38t-47.5 20q-93 6 -176 -120zM1348 1421q-249 80 -514 -30q-267 -108 -455 -398q-116 -176 -158 -387q-37 -203 10 -364
q50 -159 170 -217q283 -143 611 14q324 158 487 512q74 165 98 321t-6 263q-60 227 -243 286zM1176 1432q157 -21 172 -263q15 -239 -105 -573q-54 -154 -123 -275.5t-137 -189.5q-67 -67 -135 -106q-43 -26 -88 -35t-75.5 -7t-72.5 11q-148 50 -157 317q-9 274 118 568
q71 166 158 287.5t170 179.5q157 107 275 86z" />
    <glyph glyph-name="Odieresis" unicode="&#xd6;" horiz-adv-x="1589" 
d="M977 1616q-41 0 -72 32t-31 76q0 39 31 69t72 30q44 0 75 -29t31 -70q0 -47 -30.5 -77.5t-75.5 -30.5zM1415 1616q-43 0 -73.5 32t-30.5 76q0 41 30.5 70t73.5 29q44 0 74.5 -29t30.5 -70q0 -47 -30 -77.5t-75 -30.5zM1348 1421q183 -59 243 -286q30 -107 6 -263
t-98 -321q-163 -354 -487 -512q-328 -157 -611 -14q-120 58 -170 217q-47 161 -10 364q42 211 158 387q188 290 455 398q265 110 514 30zM1176 1432q-118 21 -275 -86q-83 -58 -170 -179.5t-158 -287.5q-127 -294 -118 -568q9 -267 157 -317q42 -9 72.5 -11t75.5 7t88 35
q68 39 135 106q68 68 137 189.5t123 275.5q120 334 105 573q-15 242 -172 263z" />
    <glyph glyph-name="multiply" unicode="&#xd7;" horiz-adv-x="894" 
d="M932 1028l10 -18l-418 -297l181 -301l-27 -19l-178 301l-426 -303l-11 19l424 303l-178 299l27 18l178 -299z" />
    <glyph glyph-name="Oslash" unicode="&#xd8;" horiz-adv-x="1701" 
d="M1520 1438l-52 -58q92 -65 138 -178q30 -76 34 -176.5t-22.5 -224.5t-83.5 -250q-159 -353 -487 -512q-328 -157 -611 -14q-51 23 -94 75l-90 -100l-37 4l109 121q-99 134 -78 391q21 247 168 477q188 290 454 398q265 110 514 30q35 -9 66 -28l37 43zM608 879
q-128 -302 -119 -566l871 981q-47 123 -150 138q-117 20 -274 -86q-83 -58 -170 -179.5t-158 -287.5zM1278 596q151 427 90 670l-876 -994q21 -232 155 -278q42 -9 72.5 -11t75.5 7t88 35q68 39 135 106q147 144 260 465z" />
    <glyph glyph-name="Ugrave" unicode="&#xd9;" horiz-adv-x="1421" 
d="M1174 1802l49 -299l-158 264q-28 62 -24 90t36 41q36 12 63 -13t34 -83zM1370 1434h512q-230 0 -362 -334l-242 -604q-101 -255 -247 -381.5t-363 -126.5q-142 0 -242.5 61t-144.5 164q-88 198 57 557l184 451q39 73 17 143q-21 67 -119 70h622q-199 0 -270 -179
l-242 -606q-45 -111 -58 -206t2 -161.5t50 -116t82.5 -75t104.5 -31.5q179 -19 313.5 92.5t241.5 378.5l243 607q62 130 25 213t-164 84z" />
    <glyph glyph-name="Uacute" unicode="&#xda;" horiz-adv-x="1421" 
d="M1214 1565l172 252q30 48 67 60t60 -15q13 -13 16 -31t-11 -44t-48 -50zM1882 1434h-512q127 -1 164 -84t-25 -213l-243 -607q-107 -267 -241.5 -378.5t-313.5 -92.5q-57 6 -104.5 31.5t-82.5 75t-50 116t-2 161.5t58 206l242 606q71 179 270 179h-622q98 -3 119 -70
q22 -70 -17 -143l-184 -451q-145 -359 -57 -557q44 -103 144.5 -164t242.5 -61q217 0 363 126.5t247 381.5l242 604q132 334 362 334z" />
    <glyph glyph-name="Ucircumflex" unicode="&#xdb;" horiz-adv-x="1421" 
d="M1018 1528l305 289h127l12 -289l-102 203zM1882 1434h-512q127 -1 164 -84t-25 -213l-243 -607q-107 -267 -241.5 -378.5t-313.5 -92.5q-57 6 -104.5 31.5t-82.5 75t-50 116t-2 161.5t58 206l242 606q71 179 270 179h-622q98 -3 119 -70q22 -70 -17 -143l-184 -451
q-145 -359 -57 -557q44 -103 144.5 -164t242.5 -61q217 0 363 126.5t247 381.5l242 604q132 334 362 334z" />
    <glyph glyph-name="Udieresis" unicode="&#xdc;" horiz-adv-x="1421" 
d="M1038 1616q-43 0 -73.5 32t-30.5 76q0 38 31.5 68.5t72.5 30.5q44 0 75.5 -29t31.5 -70q0 -44 -31.5 -76t-75.5 -32zM1475 1616q-43 0 -74 32t-31 76q0 38 32 68.5t73 30.5q44 0 75 -29t31 -70q0 -44 -31 -76t-75 -32zM1370 1434h512q-230 0 -362 -334l-242 -604
q-101 -255 -247 -381.5t-363 -126.5q-142 0 -242.5 61t-144.5 164q-88 198 57 557l184 451q39 73 17 143q-21 67 -119 70h622q-199 0 -270 -179l-242 -606q-45 -111 -58 -206t2 -161.5t50 -116t82.5 -75t104.5 -31.5q179 -19 313.5 92.5t241.5 378.5l243 607q62 130 25 213
t-164 84z" />
    <glyph glyph-name="Yacute" unicode="&#xdd;" horiz-adv-x="1275" 
d="M997 1565l172 252q30 48 67 60t60 -15q16 -9 18 -29.5t-13.5 -47t-47.5 -48.5zM1573 1434h-408q84 0 111 -70t-57 -182l-310 -359q-36 -44 -67 -41q-21 3 -33 49l-104 426q-18 70 12 120t98 57h-539q63 0 125 -49.5t86 -141.5l107 -438q19 -85 -21 -178l-172 -430
q-34 -82 -116 -140q-80 -57 -138 -57h648q-81 3 -136 55q-53 53 -16 142l166 415q46 113 90 166l350 404q206 237 324 252z" />
    <glyph glyph-name="Thorn" unicode="&#xde;" horiz-adv-x="1204" 
d="M1200 936q40 -58 25 -168q-15 -108 -92 -197q-191 -212 -596 -145q393 9 487 313q37 127 -23 234q-57 106 -225 106h-39l-364 -905q-33 -80 20 -127q56 -44 144 -47h-695q80 3 170 53q89 53 127 142l418 1032q36 85 4 142.5t-123 64.5h652q-88 0 -164.5 -40t-110.5 -122
l-70 -174h95q272 0 360 -162z" />
    <glyph glyph-name="germandbls" unicode="&#xdf;" horiz-adv-x="978" 
d="M-66 -12l431 1065q93 233 221 311q127 77 301 53q66 -11 113 -54t64.5 -92t12.5 -91q0 -78 -57 -181q-30 -57 -94.5 -102.5t-149.5 -65.5q-37 -8 -145 -14q-29 -2 -52 -16t-24 -37q-3 -29 27 -59q12 -10 53 -40t79.5 -62t63.5 -62q128 -140 101 -310q-18 -119 -121 -196
q-104 -75 -232 -72q-112 2 -182 60t-74 161q-6 71 32.5 124.5t90.5 53.5q47 1 68 -28t10 -68q-8 -33 -45 -53q-39 -22 -47 -41q-27 -44 0 -109q26 -63 96 -75q84 -13 144.5 36t74.5 138q17 59 19 84q5 36 -10.5 98.5t-51.5 126.5q-58 100 -82 131q-4 10 -17.5 36t-21.5 44
q-11 29 -12.5 52.5t7.5 42t21.5 32t36.5 27t44.5 23.5t53 25t54.5 27q117 66 170 211q31 60 25 158q-6 104 -74 119q-93 22 -160.5 -56.5t-146.5 -279.5l-424 -1075h-191z" />
    <glyph glyph-name="agrave" unicode="&#xe0;" horiz-adv-x="1085" 
d="M844 1323l49 -299l-158 264q-28 63 -23.5 90.5t36.5 40.5q36 12 62.5 -12.5t33.5 -83.5zM793 70q28 -8 94 39q57 41 112 96l48 51l-52 -63q-53 -64 -67 -78l-64 -64q-77 -69 -166 -69q-64 0 -93 33.5t-26.5 81t25.5 106.5l182 442q102 272 -6 299q-73 18 -180 -76
q-102 -87 -194 -239q-108 -169 -132 -320q-24 -150 58 -184q77 -27 153 22q77 53 123 117l-10 -20q-5 -8 -15.5 -28t-23.5 -40q-13 -24 -59 -80q-114 -126 -252 -119q-78 -1 -124 54.5t-52.5 140.5t25 192.5t98.5 206.5q71 114 155.5 197.5t163.5 120.5q147 72 248 69
q119 -3 166 -84q49 16 61 23l121 49l-307 -762q-44 -108 -10 -114z" />
    <glyph glyph-name="aacute" unicode="&#xe1;" horiz-adv-x="1085" 
d="M1106 1348q17 -9 19 -29t-14 -46t-48 -48l-254 -174l170 252q32 50 68 62.5t59 -17.5zM993 897l121 49l-305 -762q-47 -108 -12 -114q28 -8 94 39q61 44 113 96l47 51l-52 -63q-53 -64 -67 -78q-6 -7 -15.5 -16.5t-24 -23.5t-24.5 -24q-77 -69 -166 -69q-93 0 -114 69
q-19 72 22 152l176 430q105 284 -2 311q-73 18 -180 -76q-102 -87 -194 -239q-105 -172 -129 -320q-24 -147 55 -184q77 -27 153 22q77 53 123 117l-10 -20q-5 -8 -15.5 -28t-23.5 -40q-13 -24 -59 -80q-114 -126 -252 -119q-78 -1 -124 54.5t-52.5 140.5t25 192.5
t98.5 206.5q71 114 155.5 197.5t163.5 120.5q147 72 248 69q119 -3 166 -84q49 16 61 23z" />
    <glyph glyph-name="acircumflex" unicode="&#xe2;" horiz-adv-x="1085" 
d="M1018 1313l10 -289l-100 203l-344 -203l307 289h127zM793 70q28 -8 94 39q57 41 112 96l48 51l-52 -63q-53 -64 -67 -78l-64 -64q-77 -69 -166 -69q-64 0 -93 33.5t-26.5 81t25.5 106.5l182 442q102 272 -6 299q-73 18 -180 -76q-102 -87 -194 -239q-108 -169 -132 -320
q-24 -150 58 -184q77 -27 153 22q77 53 123 117l-10 -20q-5 -8 -15.5 -28t-23.5 -40q-13 -24 -59 -80q-114 -126 -252 -119q-78 -1 -124 54.5t-52.5 140.5t25 192.5t98.5 206.5q71 114 155.5 197.5t163.5 120.5q147 72 248 69q119 -3 166 -84q49 16 61 23l121 49l-307 -762
q-44 -108 -10 -114z" />
    <glyph glyph-name="atilde" unicode="&#xe3;" horiz-adv-x="1085" 
d="M692 1184q-93 6 -176 -121q44 93 113.5 143t138.5 39q44 -6 78 -55q33 -48 72 -51q45 -5 96 25.5t82 84.5q-31 -75 -99 -129t-131 -53q-37 2 -61.5 20t-35 38.5t-30 38.5t-47.5 20zM793 70q28 -8 94 39q57 41 112 96l48 51l-52 -63q-53 -64 -67 -78l-64 -64
q-77 -69 -166 -69q-64 0 -93 33.5t-26.5 81t25.5 106.5l182 442q102 272 -6 299q-73 18 -180 -76q-102 -87 -194 -239q-108 -169 -132 -320q-24 -150 58 -184q77 -27 153 22q77 53 123 117l-10 -20q-5 -8 -15.5 -28t-23.5 -40q-13 -24 -59 -80q-114 -126 -252 -119
q-78 -1 -124 54.5t-52.5 140.5t25 192.5t98.5 206.5q71 114 155.5 197.5t163.5 120.5q147 72 248 69q119 -3 166 -84q49 16 61 23l121 49l-307 -762q-44 -108 -10 -114z" />
    <glyph glyph-name="adieresis" unicode="&#xe4;" horiz-adv-x="1085" 
d="M590 1079q-43 0 -74 32.5t-31 76.5q0 41 31 69.5t74 28.5q44 0 74 -28.5t30 -69.5q0 -47 -30 -78t-74 -31zM1026 1079q-43 0 -73.5 32.5t-30.5 76.5q0 41 30.5 69.5t73.5 28.5q44 0 74 -28.5t30 -69.5q0 -47 -30 -78t-74 -31zM989 897l121 49l-307 -762
q-44 -108 -10 -114q28 -8 94 39q57 41 112 96l48 51l-52 -63q-53 -64 -67 -78l-64 -64q-77 -69 -166 -69q-64 0 -93 33.5t-26.5 81t25.5 106.5l182 442q102 272 -6 299q-73 18 -180 -76q-102 -87 -194 -239q-108 -169 -132 -320q-24 -150 58 -184q77 -27 153 22
q77 53 123 117l-10 -20q-5 -8 -15.5 -28t-23.5 -40q-13 -24 -59 -80q-114 -126 -252 -119q-78 -1 -124 54.5t-52.5 140.5t25 192.5t98.5 206.5q71 114 155.5 197.5t163.5 120.5q147 72 248 69q119 -3 166 -84q49 16 61 23z" />
    <glyph glyph-name="aring" unicode="&#xe5;" horiz-adv-x="1085" 
d="M758 1171q0 54 36 91.5t87 37.5q55 0 91.5 -36.5t35.5 -92.5q0 -51 -38 -87.5t-89 -36.5t-87 36.5t-36 87.5zM979 1174q0 41 -28.5 69.5t-67.5 28.5q-38 0 -67.5 -30t-29.5 -68t29.5 -67.5t67.5 -29.5t67 29.5t29 67.5zM793 70q28 -8 94 39q57 41 112 96l48 51l-52 -63
q-53 -64 -67 -78l-64 -64q-77 -69 -166 -69q-64 0 -93 33.5t-26.5 81t25.5 106.5l182 442q102 272 -6 299q-73 18 -180 -76q-102 -87 -194 -239q-108 -169 -132 -320q-24 -150 58 -184q77 -27 153 22q77 53 123 117l-10 -20q-5 -8 -15.5 -28t-23.5 -40q-13 -24 -59 -80
q-114 -126 -252 -119q-78 -1 -124 54.5t-52.5 140.5t25 192.5t98.5 206.5q71 114 155.5 197.5t163.5 120.5q147 72 248 69q119 -3 166 -84q49 16 61 23l121 49l-307 -762q-44 -108 -10 -114z" />
    <glyph glyph-name="ae" unicode="&#xe6;" horiz-adv-x="1472" 
d="M1292 965q125 -15 176 -115q53 -100 -47 -221q-133 -154 -512 -154q133 13 219 68.5t158 156.5q32 45 51.5 99t15.5 97.5t-38 51.5q-78 15 -178 -82q-108 -104 -183 -241q-54 -93 -80 -199q-27 -105 -12 -199q15 -95 96 -116q47 -15 94 -7t84 23t71 41t55 47.5t36 42.5
l19 25q-29 -57 -70 -113q-39 -53 -88 -96q-49 -45 -125 -76t-151 -27q-65 -1 -117 32t-82 93t-39 137t11.5 170t68.5 185l39 69q29 55 43 109q17 55 14 115q-3 58 -49 67q-74 19 -173.5 -67.5t-186.5 -243.5q-97 -173 -119 -330q-18 -152 59 -176q34 -11 68 -4.5t62 19.5
t54 35t42.5 40.5t29.5 36.5l15 18q0 -3 -15.5 -33.5t-48 -77t-74 -91t-103 -75t-126.5 -28.5q-78 -2 -125.5 53.5t-57.5 142t19.5 196.5t95.5 210q72 119 157 203.5t165 122.5q138 65 246 62q137 -12 172 -111q167 136 364 115z" />
    <glyph glyph-name="ccedilla" unicode="&#xe7;" horiz-adv-x="880" 
d="M901 795q15 -82 -33 -136q-30 -30 -73.5 -33.5t-69.5 21.5q-32 29 -28 72.5t40 66.5q48 31 54 72q9 79 -78 88q-108 9 -226 -100q-100 -92 -163 -250q-61 -152 -58 -268q5 -93 46 -153.5t114 -72.5q63 -8 121 7t98.5 44.5t66 56.5t40.5 52l12 23q-19 -51 -57 -109
q-37 -56 -74 -96q-41 -44 -111 -77t-141 -34q-29 0 -37 2l-59 -57q58 -4 88 -29.5t29 -61t-29 -73.5q-51 -80 -134 -116t-151.5 -25.5t-93.5 51.5q37 -20 89 -22.5t112 26t96 88.5q22 40 14 66t-32 39t-62 16l119 100q-104 14 -172 87.5t-80 189.5q-13 144 41 283.5
t160 250.5q189 195 444 168q73 -7 121.5 -52.5t56.5 -104.5z" />
    <glyph glyph-name="egrave" unicode="&#xe8;" horiz-adv-x="927" 
d="M723 1325l51 -299l-160 262q-52 107 15 131q36 12 62 -12t32 -82zM748 958q125 -15 170 -114q50 -99 -52 -219q-137 -152 -532 -152q271 27 409 221q32 44 52 100t14 101t-45 51q-86 19 -199 -82q-111 -99 -192 -246q-51 -86 -76 -198q-24 -107 -2 -205q21 -96 104 -117
q54 -15 106 -7t93 24.5t77.5 43.5t60 51t40.5 48l19 25q-23 -52 -72 -117q-37 -53 -90 -100q-52 -45 -134 -73.5t-167 -21.5q-80 2 -139 58t-83.5 141.5t-10 197t72.5 216.5q59 116 138.5 199.5t160.5 119.5q150 68 277 55z" />
    <glyph glyph-name="eacute" unicode="&#xe9;" horiz-adv-x="927" 
d="M758 1051l170 252q32 50 68 62.5t59 -17.5q16 -9 18 -29t-13.5 -46t-47.5 -48zM748 958q-127 13 -277 -55q-81 -36 -160.5 -119.5t-138.5 -199.5q-58 -105 -72.5 -216.5t10 -197t83.5 -141.5t139 -58q85 -7 167 21.5t134 73.5q53 47 90 100q49 65 72 117l-19 -25
q-17 -24 -40.5 -48t-60 -51t-77.5 -43.5t-93 -24.5t-106 7q-83 21 -104 117q-22 98 2 205q25 112 76 198q81 147 192 246q113 101 199 82q39 -6 45 -51t-14 -101t-52 -100q-138 -194 -409 -221q395 0 532 152q102 120 52 219q-45 99 -170 114z" />
    <glyph glyph-name="ecircumflex" unicode="&#xea;" horiz-adv-x="927" 
d="M489 1024l308 289h127l10 -289l-100 203zM748 958q-127 13 -277 -55q-81 -36 -160.5 -119.5t-138.5 -199.5q-58 -105 -72.5 -216.5t10 -197t83.5 -141.5t139 -58q85 -7 167 21.5t134 73.5q53 47 90 100q49 65 72 117l-19 -25q-17 -24 -40.5 -48t-60 -51t-77.5 -43.5
t-93 -24.5t-106 7q-83 21 -104 117q-22 98 2 205q25 112 76 198q81 147 192 246q113 101 199 82q39 -6 45 -51t-14 -101t-52 -100q-138 -194 -409 -221q395 0 532 152q102 120 52 219q-45 99 -170 114z" />
    <glyph glyph-name="edieresis" unicode="&#xeb;" horiz-adv-x="927" 
d="M590 1079q-43 0 -74 32.5t-31 76.5q0 41 31 69.5t74 28.5q44 0 74 -28.5t30 -69.5q0 -47 -30 -78t-74 -31zM1026 1079q-43 0 -73.5 32.5t-30.5 76.5q0 41 30.5 69.5t73.5 28.5q44 0 74 -28.5t30 -69.5q0 -47 -30 -78t-74 -31zM748 958q125 -15 170 -114q50 -99 -52 -219
q-137 -152 -532 -152q271 27 409 221q32 44 52 100t14 101t-45 51q-86 19 -199 -82q-111 -99 -192 -246q-51 -86 -76 -198q-24 -107 -2 -205q21 -96 104 -117q54 -15 106 -7t93 24.5t77.5 43.5t60 51t40.5 48l19 25q-23 -52 -72 -117q-37 -53 -90 -100q-52 -45 -134 -73.5
t-167 -21.5q-80 2 -139 58t-83.5 141.5t-10 197t72.5 216.5q59 116 138.5 199.5t160.5 119.5q150 68 277 55z" />
    <glyph glyph-name="igrave" unicode="&#xec;" horiz-adv-x="612" 
d="M496 1323l51 -299l-160 264q-52 107 14 131q34 13 61 -12.5t34 -83.5zM94 178l246 586q27 62 14 72l-6 4q-15 9 -80 -35q-51 -34 -116 -88l-54 -45q82 94 183 176q106 86 174 92q77 8 106.5 -43t-4.5 -143l-250 -607q-29 -63 -6 -69q15 -9 80 35t119 92l53 47
q-237 -270 -381 -270q-66 0 -88 49t10 147z" />
    <glyph glyph-name="iacute" unicode="&#xed;" horiz-adv-x="636" 
d="M530 1028l172 252q30 48 67 60t60 -15q13 -13 16 -31t-11 -44t-48 -50zM340 764l-246 -586q-32 -98 -10 -147t88 -49q144 0 381 270l-53 -47q-54 -48 -119 -92t-80 -35q-23 6 6 69l250 607q34 92 4.5 143t-106.5 43q-68 -6 -174 -92q-101 -82 -183 -176l54 45
q65 54 116 88q65 44 80 35l6 -4q13 -10 -14 -72z" />
    <glyph glyph-name="icircumflex" unicode="&#xee;" horiz-adv-x="636" 
d="M279 1024l307 289h127l10 -289l-100 203zM362 764l-243 -586q-33 -98 -11 -147.5t87.5 -48.5t146.5 53q82 52 125 98q54 54 111 119l-54 -47q-57 -51 -118 -92q-65 -44 -82 -35q-22 3 6 69l252 607q33 92 2.5 143t-107.5 43q-66 -6 -172 -92q-98 -79 -182 -176l53 45
q54 48 115 88q65 44 80 35l6 -4q12 -9 -15 -72z" />
    <glyph glyph-name="idieresis" unicode="&#xef;" horiz-adv-x="706" 
d="M332 1079q-43 0 -74 32.5t-31 76.5q0 38 32 68t73 30q44 0 75 -28.5t31 -69.5q0 -45 -31 -77t-75 -32zM768 1079q-43 0 -73.5 32.5t-30.5 76.5q0 38 31.5 68t72.5 30q44 0 75 -28.5t31 -69.5q0 -45 -31 -77t-75 -32zM119 178l243 586q27 63 15 72l-6 4q-15 9 -80 -35
q-61 -40 -115 -88l-53 -45q84 97 182 176q106 86 172 92q77 8 107.5 -43t-2.5 -143l-252 -607q-28 -66 -6 -69q17 -9 82 35q61 41 118 92l54 47q-57 -65 -111 -119q-43 -46 -125 -98q-81 -52 -146.5 -53t-87.5 48.5t11 147.5z" />
    <glyph glyph-name="eth" unicode="&#xf0;" horiz-adv-x="972" 
d="M866 1112h105l-19 -18h-80q66 -218 52 -435q0 -3 -1 -14.5t-1 -15.5q-21 -280 -220 -482q-191 -197 -419 -167q-115 15 -168 98q-96 150 -6 395q52 142 139 246q80 95 149 137.5t154 61.5q132 30 231 -15q6 111 -2 191h-108l-15 18h121q-18 170 -80 313
q106 -126 168 -313zM735 633q12 75 9.5 129t-16 88.5t-36.5 50.5t-51.5 16t-60.5 -16q-84 -37 -158 -158q-80 -129 -125 -276q-49 -157 -49 -307q2 -76 32 -121.5t85 -46.5q110 -3 221 196q107 192 149 445z" />
    <glyph glyph-name="ntilde" unicode="&#xf1;" horiz-adv-x="1204" 
d="M575 1063q44 93 113.5 143t138.5 39q44 -6 78 -55q33 -48 72 -51q45 -5 96 25.5t82 84.5q-34 -76 -98 -131q-66 -54 -131 -51q-37 2 -61.5 20t-35 38.5t-30 38.5t-47.5 20q-94 6 -177 -121zM911 82q-29 6 17 131l147 362q127 340 -88 379q-218 47 -477 -336
q124 153 222.5 201t158.5 12q66 -51 -29 -288l-135 -336q-36 -97 -14.5 -152t94.5 -55q77 0 160 68q59 45 184 194l-47 -49q-39 -39 -109 -92q-57 -46 -84 -39zM543 748q38 82 18.5 138.5t-96.5 49.5q-118 -9 -338 -266l45 43q53 47 100 78q55 38 78 28q22 -6 -18 -100
l-279 -719h195z" />
    <glyph glyph-name="ograve" unicode="&#xf2;" horiz-adv-x="1005" 
d="M725 1323l51 -299l-160 264q-52 107 15 131q34 12 60.5 -13t33.5 -83zM590 950q168 37 276 -51q112 -86 103 -262q-1 -80 -22.5 -159.5t-57.5 -149t-85.5 -132t-107.5 -108t-122 -77.5t-129 -40t-130 4q-109 17 -170 109q-57 87 -51 199q6 103 37 219q41 116 99.5 204
t125.5 136q114 85 234 108zM604 928q-77 -35 -151 -162q-71 -123 -119 -285q-44 -183 -41 -319q2 -77 32.5 -123.5t86.5 -46.5q111 -3 219 196q103 193 145 459q26 180 -27.5 252.5t-144.5 28.5z" />
    <glyph glyph-name="oacute" unicode="&#xf3;" horiz-adv-x="1005" 
d="M705 1051l169 252q32 50 68 62.5t59 -17.5q17 -9 19 -29t-14 -46t-48 -48zM590 950q168 37 276 -51q112 -86 103 -262q-1 -80 -22.5 -159.5t-57.5 -149t-85.5 -132t-107.5 -108t-122 -77.5t-129 -40t-130 4q-109 17 -170 109q-57 87 -51 199q6 103 37 219
q41 116 99.5 204t125.5 136q114 85 234 108zM604 928q-77 -35 -151 -162q-71 -123 -119 -285q-44 -183 -41 -319q2 -77 32.5 -123.5t86.5 -46.5q111 -3 219 196q103 193 145 459q26 180 -27.5 252.5t-144.5 28.5z" />
    <glyph glyph-name="ocircumflex" unicode="&#xf4;" horiz-adv-x="1005" 
d="M479 1024l307 289h127l11 -289l-101 203zM590 950q168 37 276 -51q112 -86 103 -262q-1 -80 -22.5 -159.5t-57.5 -149t-85.5 -132t-107.5 -108t-122 -77.5t-129 -40t-130 4q-109 17 -170 109q-57 87 -51 199q6 103 37 219q41 116 99.5 204t125.5 136q114 85 234 108z
M604 928q-77 -35 -151 -162q-71 -123 -119 -285q-44 -183 -41 -319q2 -77 32.5 -123.5t86.5 -46.5q111 -3 219 196q103 193 145 459q26 180 -27.5 252.5t-144.5 28.5z" />
    <glyph glyph-name="otilde" unicode="&#xf5;" horiz-adv-x="1005" 
d="M438 1063q44 93 113.5 143t138.5 39q44 -6 78 -55q36 -48 74 -51q46 -5 96 25.5t80 84.5q-33 -76 -99 -129.5t-128 -52.5q-38 2 -63 20t-35.5 38.5t-30.5 38.5t-48 20q-90 6 -176 -121zM590 950q168 37 276 -51q112 -86 103 -262q-1 -80 -22.5 -159.5t-57.5 -149
t-85.5 -132t-107.5 -108t-122 -77.5t-129 -40t-130 4q-109 17 -170 109q-57 87 -51 199q6 103 37 219q41 116 99.5 204t125.5 136q114 85 234 108zM604 928q-77 -35 -151 -162q-71 -123 -119 -285q-44 -183 -41 -319q2 -77 32.5 -123.5t86.5 -46.5q111 -3 219 196
q103 193 145 459q26 180 -27.5 252.5t-144.5 28.5z" />
    <glyph glyph-name="odieresis" unicode="&#xf6;" horiz-adv-x="1005" 
d="M508 1079q-43 0 -74 32.5t-31 76.5q0 41 31 69.5t74 28.5q44 0 74 -28.5t30 -69.5q0 -47 -30 -78t-74 -31zM944 1079q-43 0 -73.5 32.5t-30.5 76.5q0 41 30.5 69.5t73.5 28.5q44 0 74.5 -28.5t30.5 -69.5q0 -47 -30 -78t-75 -31zM590 950q168 37 276 -51
q112 -86 103 -262q-1 -80 -22.5 -159.5t-57.5 -149t-85.5 -132t-107.5 -108t-122 -77.5t-129 -40t-130 4q-109 17 -170 109q-57 87 -51 199q6 103 37 219q41 116 99.5 204t125.5 136q114 85 234 108zM604 928q-77 -35 -151 -162q-71 -123 -119 -285q-44 -183 -41 -319
q2 -77 32.5 -123.5t86.5 -46.5q111 -3 219 196q103 193 145 459q26 180 -27.5 252.5t-144.5 28.5z" />
    <glyph glyph-name="divide" unicode="&#xf7;" horiz-adv-x="1067" 
d="M631 551h309l-8 -19h-309q0 -1 -1 -5t-1 -5q-11 -35 -44.5 -61.5t-68.5 -26.5q-37 0 -56 26.5t-8 61.5q0 1 2 4t3 6h-328l8 19h326l2 8q11 36 43.5 61t68.5 25t55 -25.5t9 -60.5z" />
    <glyph glyph-name="oslash" unicode="&#xf8;" horiz-adv-x="917" 
d="M983 924l35 2l-107 -97q47 -83 41 -192q-4 -138 -65 -271.5t-153.5 -227t-210 -140.5t-226.5 -23q-128 21 -182 131l-119 -106l-37 4l143 129q-64 154 11 369q41 116 99.5 204t125.5 136q114 85 233 108q104 23 190.5 -3.5t137.5 -98.5zM317 481q-24 -85 -36 -188
l485 436q7 131 -46.5 185t-131.5 14q-80 -35 -154 -162q-74 -126 -117 -285zM758 647l6 49l-488 -442q-21 -259 117 -262q111 -3 219 196q104 195 146 459z" />
    <glyph glyph-name="ugrave" unicode="&#xf9;" horiz-adv-x="1144" 
d="M705 1323l49 -299l-158 264q-28 62 -24 90t36 41q36 12 63 -13t34 -83zM338 856q-16 9 -74 -37q-49 -39 -104 -90l-47 -47q86 101 98 115q37 44 102 92q71 53 123 53q71 0 94.5 -53.5t-10.5 -153.5q-65 -158 -133 -348q-20 -51 -47 -135q-30 -111 18 -143
q115 -77 340 202q-224 -364 -434 -321q-206 39 -90 368l148 387q37 102 16 111zM1141 922l-289 -764q-27 -78 -8 -84q21 -6 76 37q62 49 104 94l45 47l-29 -39q-28 -35 -34 -45q-70 -81 -80 -88q-7 -6 -26 -22.5t-35.5 -30t-28.5 -19.5q-50 -26 -99 -26q-61 2 -85.5 56
t3.5 134l287 750h199z" />
    <glyph glyph-name="uacute" unicode="&#xfa;" horiz-adv-x="1144" 
d="M692 1051l172 252q30 50 67 62.5t60 -17.5q13 -13 16 -30.5t-10.5 -43t-48.5 -49.5zM338 856q21 -9 -16 -111l-148 -387q-116 -329 90 -368q210 -43 434 321q-225 -279 -340 -202q-48 32 -18 143q27 84 47 135q68 190 133 348q34 100 10.5 153.5t-94.5 53.5
q-52 0 -123 -53q-65 -48 -102 -92q-12 -14 -98 -115l47 47q55 51 104 90q58 46 74 37zM852 158l289 764h-199l-287 -750q-28 -80 -3.5 -134t85.5 -56q49 0 99 26q12 6 28.5 19.5t35.5 30t26 22.5q10 7 80 88q6 10 34 45l29 39l-45 -47q-42 -45 -104 -94q-55 -43 -76 -37
q-19 6 8 84z" />
    <glyph glyph-name="ucircumflex" unicode="&#xfb;" horiz-adv-x="1144" 
d="M528 1024l308 289h127l10 -289l-101 203zM338 856q21 -9 -16 -111l-148 -387q-116 -329 90 -368q210 -43 434 321q-225 -279 -340 -202q-48 32 -18 143q27 84 47 135q68 190 133 348q34 100 10.5 153.5t-94.5 53.5q-52 0 -123 -53q-65 -48 -102 -92q-12 -14 -98 -115
l47 47q55 51 104 90q58 46 74 37zM852 158l289 764h-199l-287 -750q-28 -80 -3.5 -134t85.5 -56q49 0 99 26q12 6 28.5 19.5t35.5 30t26 22.5q10 7 80 88q6 10 34 45l29 39l-45 -47q-42 -45 -104 -94q-55 -43 -76 -37q-19 6 8 84z" />
    <glyph glyph-name="udieresis" unicode="&#xfc;" horiz-adv-x="1144" 
d="M563 1079q-41 0 -71.5 32.5t-30.5 76.5q0 39 30.5 68.5t71.5 29.5q44 0 75.5 -28.5t31.5 -69.5q0 -47 -31 -78t-76 -31zM999 1079q-41 0 -71.5 32.5t-30.5 76.5q0 39 30.5 68.5t71.5 29.5q44 0 75.5 -28.5t31.5 -69.5q0 -47 -31 -78t-76 -31zM338 856q-16 9 -74 -37
q-49 -39 -104 -90l-47 -47q86 101 98 115q37 44 102 92q71 53 123 53q71 0 94.5 -53.5t-10.5 -153.5q-65 -158 -133 -348q-20 -51 -47 -135q-30 -111 18 -143q115 -77 340 202q-224 -364 -434 -321q-206 39 -90 368l148 387q37 102 16 111zM1141 922l-289 -764
q-27 -78 -8 -84q21 -6 76 37q62 49 104 94l45 47l-29 -39q-28 -35 -34 -45q-70 -81 -80 -88q-7 -6 -26 -22.5t-35.5 -30t-28.5 -19.5q-50 -26 -99 -26q-61 2 -85.5 56t3.5 134l287 750h199z" />
    <glyph glyph-name="yacute" unicode="&#xfd;" horiz-adv-x="944" 
d="M862 1348q17 -9 19 -29t-14 -46t-48 -48l-254 -174l170 252q32 50 68 62.5t59 -17.5zM877 948q118 -12 81 -180q-35 -160 -188 -381q-113 -171 -281 -348q-164 -176 -337 -309q-50 -41 -74 -56q-29 -21 -80 -45.5t-94 -31.5q-123 -15 -160 22q-28 28 -16 76q12 47 61 59
q10 0 30.5 3t28.5 -3l27 -10q18 -5 59 -29q50 -20 121.5 1.5t143.5 78.5l57 47q64 58 141 138q-12 308 -49 532q-34 179 -70.5 252t-87.5 78q-86 9 -133 -94q20 72 59.5 125t100.5 65q129 26 203.5 -69.5t109.5 -329.5q36 -229 33 -379q114 130 162 194q91 132 115 189
q59 144 -6 221q-1 2 -20 24.5t-23 28.5q-17 29 -15 60t30.5 54t70.5 17z" />
    <glyph glyph-name="thorn" unicode="&#xfe;" horiz-adv-x="1073" 
d="M844 961q116 1 165 -90.5t23.5 -231.5t-112.5 -281q-237 -402 -570 -378q-78 3 -137 59l-127 -315q-47 -116 -31 -132q10 -10 58 -17t100 -9l45 -4h-631q154 3 191 35q22 19 71 143l623 1520q40 98 31 120q-4 11 -8 13q-23 23 -150 37l-43 4h436l-485 -1198
q-53 -208 59 -238q79 -21 176 70q102 98 177 235q67 121 101 234.5t23.5 195.5t-69.5 101q-52 15 -111.5 -13t-97 -65.5t-59.5 -71.5l-17 -22q0 3 16 33.5t49.5 76t76 89t103.5 73t124 27.5z" />
    <glyph glyph-name="ydieresis" unicode="&#xff;" horiz-adv-x="944" 
d="M371 1079q-43 0 -74 32.5t-31 76.5q0 38 32 68t73 30q44 0 75 -28.5t31 -69.5q0 -47 -30.5 -78t-75.5 -31zM807 1079q-43 0 -74 32.5t-31 76.5q0 38 32 68t73 30q44 0 75 -28.5t31 -69.5q0 -47 -30.5 -78t-75.5 -31zM877 948q118 -12 81 -180q-35 -160 -188 -381
q-113 -171 -281 -348q-164 -176 -337 -309q-50 -41 -74 -56q-29 -21 -80 -45.5t-94 -31.5q-123 -15 -160 22q-28 28 -16 76q12 47 61 59q10 0 30.5 3t28.5 -3l27 -10q18 -5 59 -29q50 -20 121.5 1.5t143.5 78.5l57 47q64 58 141 138q-12 308 -49 532q-34 179 -70.5 252
t-87.5 78q-86 9 -133 -94q20 72 59.5 125t100.5 65q129 26 203.5 -69.5t109.5 -329.5q36 -229 33 -379q114 130 162 194q91 132 115 189q59 144 -6 221q-1 2 -20 24.5t-23 28.5q-17 29 -15 60t30.5 54t70.5 17z" />
    <glyph glyph-name="Amacron" unicode="&#x100;" horiz-adv-x="1230" 
d="M766 1614l403 2l-8 -17h-403zM1194 2h-600q73 0 139 51q71 53 68 154l-8 328h-459l-207 -308q-48 -75 -37 -125t48 -75t83 -25h-442q84 13 180 87t166 175l858 1258l59 -1329q6 -185 152 -191zM682 1053l-334 -496h443l-11 416v39q-3 103 -16 110q-27 12 -82 -69z" />
    <glyph glyph-name="amacron" unicode="&#x101;" horiz-adv-x="1085" 
d="M598 1112l403 2l-8 -16h-403zM793 70q28 -8 94 39q57 41 112 96l48 51l-52 -63q-53 -64 -67 -78l-64 -64q-77 -69 -166 -69q-64 0 -93 33.5t-26.5 81t25.5 106.5l182 442q102 272 -6 299q-73 18 -180 -76q-102 -87 -194 -239q-108 -169 -132 -320q-24 -150 58 -184
q77 -27 153 22q77 53 123 117l-10 -20q-5 -8 -15.5 -28t-23.5 -40q-13 -24 -59 -80q-114 -126 -252 -119q-78 -1 -124 54.5t-52.5 140.5t25 192.5t98.5 206.5q71 114 155.5 197.5t163.5 120.5q147 72 248 69q119 -3 166 -84q49 16 61 23l121 49l-307 -762q-44 -108 -10 -114
z" />
    <glyph glyph-name="Abreve" unicode="&#x102;" horiz-adv-x="1230" 
d="M1024 1683q162 0 256 125q-40 -78 -121 -141q-79 -61 -166 -61q-90 0 -119 59t13 145q-12 -61 25 -94t112 -33zM983 1522l59 -1329q6 -185 152 -191h-600q73 0 139 51q71 53 68 154l-8 328h-459l-207 -308q-48 -75 -37 -125t48 -75t83 -25h-442q84 13 180 87t166 175z
M682 1053l-334 -496h443l-11 416v39q-3 103 -16 110q-27 12 -82 -69z" />
    <glyph glyph-name="abreve" unicode="&#x103;" horiz-adv-x="1085" 
d="M840 1071q-90 0 -119.5 59.5t12.5 145.5q-12 -62 25.5 -94.5t113.5 -32.5q160 0 254 125q-40 -80 -120 -141q-80 -62 -166 -62zM989 897l121 49l-307 -762q-44 -108 -10 -114q28 -8 94 39q57 41 112 96l48 51l-52 -63q-53 -64 -67 -78l-64 -64q-77 -69 -166 -69
q-64 0 -93 33.5t-26.5 81t25.5 106.5l182 442q102 272 -6 299q-73 18 -180 -76q-102 -87 -194 -239q-108 -169 -132 -320q-24 -150 58 -184q77 -27 153 22q77 53 123 117l-10 -20q-5 -8 -15.5 -28t-23.5 -40q-13 -24 -59 -80q-114 -126 -252 -119q-78 -1 -124 54.5
t-52.5 140.5t25 192.5t98.5 206.5q71 114 155.5 197.5t163.5 120.5q147 72 248 69q119 -3 166 -84q49 16 61 23z" />
    <glyph glyph-name="Aogonek" unicode="&#x104;" horiz-adv-x="1230" 
d="M1194 2h-600q73 0 139 51q71 53 68 154l-8 328h-459l-207 -308q-48 -75 -37 -125t48 -75t83 -25h-442q84 13 180 87t166 175l858 1258l59 -1329q6 -185 152 -191zM682 1053l-334 -496h443l-11 416v39q-3 103 -16 110q-27 12 -82 -69zM868 0h152q-176 -89 -197 -197
q-15 -74 43 -114q59 -44 133 -11q-57 -39 -124 -40.5t-114.5 36t-49.5 103.5q-3 142 157 223z" />
    <glyph glyph-name="aogonek" unicode="&#x105;" horiz-adv-x="1114" 
d="M823 70q29 -9 95 39q61 44 110 96l49 51l-51 -63q-48 -58 -68 -78q-7 -8 -63 -64q-77 -69 -166 -69q-32 0 -59 10q-154 -91 -170 -189q-9 -75 45 -114q57 -44 131 -11q-81 -60 -184 -30q-100 26 -103 129q-3 173 223 291q-8 52 23 135l182 442q102 272 -6 299
q-73 18 -180 -76q-104 -88 -195 -239q-107 -167 -131 -320q-24 -150 57 -184q78 -27 154 22q76 53 123 117l-12 -20q-29 -55 -37 -68q-6 -12 -13.5 -22.5t-12.5 -17t-16.5 -19.5t-17.5 -21q-114 -126 -251 -119q-78 -1 -124 54.5t-52.5 140.5t24.5 192.5t98 206.5
q71 114 155.5 197.5t164.5 120.5q147 72 248 69q118 -3 165 -84q51 17 62 23l121 49l-307 -762q-44 -108 -11 -114z" />
    <glyph glyph-name="Cacute" unicode="&#x106;" horiz-adv-x="1368" 
d="M1174 1565l172 252q30 48 67 60t60 -15q13 -13 16 -31t-11 -44t-48 -50zM1532 1260l-148 -308q10 141 -34 279q-24 82 -81.5 134.5t-140.5 59.5q-160 18 -309 -98q-147 -114 -246 -305q-76 -146 -97.5 -307t22.5 -314q50 -148 174 -200q163 -64 344 6t282 235
q-116 -228 -288 -352q-176 -126 -408 -86q-196 34 -295 193q-96 166 -84 368q15 210 117 400q280 514 819 477q237 -15 373 -182z" />
    <glyph glyph-name="cacute" unicode="&#x107;" horiz-adv-x="880" 
d="M727 1051l170 252q32 50 68 62.5t59 -17.5q17 -9 19 -29t-14 -46t-48 -48zM723 952q-255 27 -444 -168q-106 -111 -160 -250.5t-41 -283.5q13 -129 98 -206t205 -75q71 1 141 34t111 77q37 40 74 96q38 58 57 109l-12 -23q-15 -25 -40.5 -52t-66 -56.5t-98.5 -44.5
t-121 -7q-73 12 -114 72.5t-46 153.5q-3 116 58 268q63 158 163 250q118 109 226 100q87 -9 78 -88q-6 -41 -54 -72q-36 -23 -40 -66.5t28 -72.5q26 -25 69.5 -21.5t73.5 33.5q48 54 33 136q-8 59 -56.5 104.5t-121.5 52.5z" />
    <glyph glyph-name="Cdotaccent" unicode="&#x10a;" horiz-adv-x="1368" 
d="M1233 1675q-21 -21 -48 -11.5t-34 33.5t12 48q21 21 49.5 11.5t35 -33.5t-14.5 -48zM1532 1260l-148 -308q10 141 -34 279q-24 82 -81.5 134.5t-140.5 59.5q-160 18 -309 -98q-147 -114 -246 -305q-76 -146 -97.5 -307t22.5 -314q50 -148 174 -200q163 -64 344 6t282 235
q-116 -228 -288 -352q-176 -126 -408 -86q-196 34 -295 193q-96 166 -84 368q15 210 117 400q280 514 819 477q237 -15 373 -182z" />
    <glyph glyph-name="cdotaccent" unicode="&#x10b;" horiz-adv-x="880" 
d="M739 1200q0 44 31.5 75.5t75.5 31.5t75 -31.5t31 -75.5q0 -43 -31.5 -74.5t-74.5 -31.5t-75 31.5t-32 74.5zM723 952q73 -7 121.5 -52.5t56.5 -104.5q15 -82 -33 -136q-30 -30 -73.5 -33.5t-69.5 21.5q-32 29 -28 72.5t40 66.5q48 31 54 72q9 79 -78 88q-108 9 -226 -100
q-100 -92 -163 -250q-61 -152 -58 -268q5 -93 46 -153.5t114 -72.5q63 -8 121 7t98.5 44.5t66 56.5t40.5 52l12 23q-19 -51 -57 -109q-37 -56 -74 -96q-41 -44 -111 -77t-141 -34q-120 -2 -205 75t-98 206q-13 144 41 283.5t160 250.5q189 195 444 168z" />
    <glyph glyph-name="Ccaron" unicode="&#x10c;" horiz-adv-x="1368" 
d="M1073 1825l123 -197l297 195l-268 -273h-119zM1532 1260l-148 -308q10 141 -34 279q-24 82 -81.5 134.5t-140.5 59.5q-160 18 -309 -98q-147 -114 -246 -305q-76 -146 -97.5 -307t22.5 -314q50 -148 174 -200q163 -64 344 6t282 235q-116 -228 -288 -352
q-176 -126 -408 -86q-196 34 -295 193q-96 166 -84 368q15 210 117 400q280 514 819 477q237 -15 373 -182z" />
    <glyph glyph-name="ccaron" unicode="&#x10d;" horiz-adv-x="880" 
d="M637 1329l123 -196l297 196l-269 -274h-118zM723 952q-255 27 -444 -168q-106 -111 -160 -250.5t-41 -283.5q13 -129 98 -206t205 -75q71 1 141 34t111 77q37 40 74 96q38 58 57 109l-12 -23q-15 -25 -40.5 -52t-66 -56.5t-98.5 -44.5t-121 -7q-73 12 -114 72.5
t-46 153.5q-3 116 58 268q63 158 163 250q118 109 226 100q87 -9 78 -88q-6 -41 -54 -72q-36 -23 -40 -66.5t28 -72.5q26 -25 69.5 -21.5t73.5 33.5q48 54 33 136q-8 59 -56.5 104.5t-121.5 52.5z" />
    <glyph glyph-name="Dcaron" unicode="&#x10e;" horiz-adv-x="1587" 
d="M1372 1825l-268 -273h-119l-33 275l123 -197zM1354 1366q91 -46 155 -147t82 -269q18 -165 -65 -377q-224 -573 -946 -573h-725q95 5 173 48t109 120l447 1104q28 66 -15 111.5t-125 50.5h404q189 3 297 -9q109 -9 209 -59zM1063 258q143 156 223 373q83 226 74 407
q-21 351 -336 369q-131 9 -145 6l-494 -1233q-65 -153 92 -153h53q316 0 533 231z" />
    <glyph glyph-name="dcaron" unicode="&#x10f;" horiz-adv-x="1099" 
d="M1421 1432q42 -6 67 -41t19 -78q-15 -107 -110 -193q-91 -85 -197 -123q73 30 146 103q75 72 90 133q-27 -7 -50 -4q-43 7 -67 43t-16 80q8 43 42.5 66.5t75.5 13.5zM784 86q16 -19 76 23q58 41 111 90l49 49q-39 -50 -70 -84q-17 -22 -73 -78q-99 -96 -199 -96
q-60 0 -80.5 57.5t10.5 142.5l166 408q120 317 2 344q-79 18 -182 -68q-102 -86 -188 -233q-66 -111 -104 -226.5t-32.5 -200.5t62.5 -99q78 -27 160 28q78 53 126 125q-26 -61 -65 -121q-34 -52 -74 -86q-41 -39 -101 -66t-122 -26q-78 -4 -125 52.5t-55 145t22.5 200
t96.5 211.5q72 117 156 199.5t163 121.5q144 68 252 59q83 -6 131 -63l145 358q41 110 29 131q-18 32 -170 46l-51 2h453l-508 -1268q-22 -70 -11 -78z" />
    <glyph glyph-name="Dcroat" unicode="&#x110;" horiz-adv-x="1587" 
d="M1354 1366q91 -46 155 -147t82 -269q18 -165 -65 -377q-224 -573 -946 -573h-725q95 5 173 48t109 120l225 555h-200l-12 18h219l215 531q28 66 -15 111.5t-125 50.5h404q189 3 297 -9q109 -9 209 -59zM1063 258q143 156 223 373q83 226 74 407q-21 351 -336 369
q-131 9 -145 6l-269 -672h228l-17 -18h-219l-217 -543q-65 -153 92 -153h53q316 0 533 231z" />
    <glyph glyph-name="dslash" unicode="&#x111;" horiz-adv-x="1099" 
d="M850 1432h453l-127 -318h51l-8 -16h-50l-374 -934q-22 -70 -11 -78q16 -19 76 23q58 41 111 90l49 49q-39 -50 -70 -84q-17 -22 -73 -78q-99 -96 -199 -96q-60 0 -80.5 57.5t10.5 142.5l166 408q120 317 2 344q-79 18 -182 -68q-102 -86 -188 -233q-66 -111 -104 -226.5
t-32.5 -200.5t62.5 -99q78 -27 160 28q78 53 126 125q-26 -61 -65 -121q-34 -52 -74 -86q-41 -39 -101 -66t-122 -26q-78 -4 -125 52.5t-55 145t22.5 200t96.5 211.5q72 117 156 199.5t163 121.5q144 68 252 59q83 -6 131 -63l82 203h-164l8 14h162l57 141q41 110 29 131
q-18 32 -170 46z" />
    <glyph glyph-name="Emacron" unicode="&#x112;" horiz-adv-x="1490" 
d="M918 1606l403 2l-8 -17h-404zM1083 154q209 101 330 258l-190 -412h-1389q88 0 176 55q90 54 125 133l440 1090q24 62 -18.5 106.5t-122.5 49.5h1069l33 -387q-3 6 -7 14.5t-11 20t-11 20.5q-17 33 -77 108t-117 109q-96 59 -183 74q-86 18 -223 18h-39l-258 -643h109
q199 0 301 76q47 36 73 66.5t54 78.5l-211 -551q7 26 8 57t-4 66t-22 67.5t-43.5 58.5t-71.5 42t-103 16h-98l-244 -602q-20 -54 -2 -85t68 -31h127q272 0 532 127z" />
    <glyph glyph-name="emacron" unicode="&#x113;" horiz-adv-x="927" 
d="M535 1098l8 14l403 2l-8 -16h-403zM748 958q125 -15 170 -114q50 -99 -52 -219q-137 -152 -532 -152q271 27 409 221q32 44 52 100t14 101t-45 51q-86 19 -199 -82q-111 -99 -192 -246q-51 -86 -76 -198q-24 -107 -2 -205q21 -96 104 -117q54 -15 106 -7t93 24.5
t77.5 43.5t60 51t40.5 48l19 25q-23 -52 -72 -117q-37 -53 -90 -100q-52 -45 -134 -73.5t-167 -21.5q-80 2 -139 58t-83.5 141.5t-10 197t72.5 216.5q59 116 138.5 199.5t160.5 119.5q150 68 277 55z" />
    <glyph glyph-name="Edotaccent" unicode="&#x116;" horiz-adv-x="1435" 
d="M1198 1702q0 -30 -25 -42t-50 0t-25 42q0 31 25 44.5t50 0.5t25 -45zM1118 154q209 101 330 258l-191 -412h-1388q88 0 176 55q90 54 125 133l440 1090q24 62 -18.5 106.5t-122.5 49.5h1069l33 -387q-1 2 -5 10.5t-12.5 23.5t-23.5 37q-82 142 -180 201q-95 59 -185 74
q-85 18 -223 18h-39l-258 -643h109q199 0 301 76q47 36 73 66.5t54 78.5l-209 -551q5 26 6 56.5t-4 66t-22 68t-43 59t-71.5 42t-103.5 15.5h-98l-244 -602q-20 -54 -2 -85t68 -31h127q272 0 532 127z" />
    <glyph glyph-name="edotaccent" unicode="&#x117;" horiz-adv-x="927" 
d="M770 1200q0 44 32.5 75.5t76.5 31.5q43 0 73.5 -31.5t30.5 -75.5q0 -43 -30.5 -74.5t-73.5 -31.5t-76 32.5t-33 73.5zM748 958q125 -15 170 -114q50 -99 -52 -219q-137 -152 -532 -152q271 27 409 221q32 44 52 100t14 101t-45 51q-86 19 -199 -82q-111 -99 -192 -246
q-51 -86 -76 -198q-24 -107 -2 -205q21 -96 104 -117q54 -15 106 -7t93 24.5t77.5 43.5t60 51t40.5 48l19 25q-23 -52 -72 -117q-37 -53 -90 -100q-52 -45 -134 -73.5t-167 -21.5q-80 2 -139 58t-83.5 141.5t-10 197t72.5 216.5q59 116 138.5 199.5t160.5 119.5
q150 68 277 55z" />
    <glyph glyph-name="Eogonek" unicode="&#x118;" horiz-adv-x="1490" 
d="M1083 154q209 101 330 258l-190 -412h-43q-176 -89 -197 -197q-15 -74 43 -114q59 -44 133 -11q-57 -39 -124 -40.5t-115 36t-50 103.5q-3 141 160 223h-1196q88 0 176 55q90 54 125 133l440 1090q24 62 -18.5 106.5t-122.5 49.5h1069l33 -387q-3 6 -7 14.5t-11 20
t-11 20.5q-17 33 -77 108t-117 109q-96 59 -183 74q-86 18 -223 18h-39l-258 -643h109q199 0 301 76q47 36 73 66.5t54 78.5l-211 -551q7 26 8 57t-4 66t-22 67.5t-43.5 58.5t-71.5 42t-103 16h-98l-244 -602q-20 -54 -2 -85t68 -31h127q272 0 532 127z" />
    <glyph glyph-name="eogonek" unicode="&#x119;" horiz-adv-x="927" 
d="M748 958q125 -15 170 -114q50 -99 -52 -219q-137 -152 -532 -152q271 27 409 221q32 44 52 100t14 101t-45 51q-86 19 -199 -82q-111 -99 -192 -246q-51 -86 -76 -198q-24 -107 -2 -205q21 -96 104 -117q54 -15 106 -7t93 24.5t77.5 43.5t60 51t40.5 48l19 25
q-24 -49 -64 -107q-42 -58 -82 -96q-46 -45 -120.5 -77.5t-149.5 -33.5q-126 -82 -141 -166q-15 -74 43 -114q59 -44 133 -11q-57 -39 -124 -40.5t-115 36t-50 103.5q-3 132 137 211q-132 53 -162 223q-28 178 72 373q59 116 138.5 199.5t160.5 119.5q150 68 277 55z" />
    <glyph glyph-name="Ecaron" unicode="&#x11a;" horiz-adv-x="1490" 
d="M1479 1823l-269 -273h-118l-33 275l123 -197zM1083 154q209 101 330 258l-190 -412h-1389q88 0 176 55q90 54 125 133l440 1090q24 62 -18.5 106.5t-122.5 49.5h1069l33 -387q-3 6 -7 14.5t-11 20t-11 20.5q-17 33 -77 108t-117 109q-96 59 -183 74q-86 18 -223 18h-39
l-258 -643h109q199 0 301 76q47 36 73 66.5t54 78.5l-211 -551q7 26 8 57t-4 66t-22 67.5t-43.5 58.5t-71.5 42t-103 16h-98l-244 -602q-20 -54 -2 -85t68 -31h127q272 0 532 127z" />
    <glyph glyph-name="ecaron" unicode="&#x11b;" horiz-adv-x="927" 
d="M629 1329l123 -196l297 196l-269 -274h-118zM748 958q-127 13 -277 -55q-81 -36 -160.5 -119.5t-138.5 -199.5q-58 -105 -72.5 -216.5t10 -197t83.5 -141.5t139 -58q85 -7 167 21.5t134 73.5q53 47 90 100q49 65 72 117l-19 -25q-17 -24 -40.5 -48t-60 -51t-77.5 -43.5
t-93 -24.5t-106 7q-83 21 -104 117q-22 98 2 205q25 112 76 198q81 147 192 246q113 101 199 82q39 -6 45 -51t-14 -101t-52 -100q-138 -194 -409 -221q395 0 532 152q102 120 52 219q-45 99 -170 114z" />
    <glyph glyph-name="Gbreve" unicode="&#x11e;" horiz-adv-x="1501" 
d="M1198 1673q163 0 254 125q-39 -76 -121 -143q-77 -62 -164 -62q-90 0 -119 60.5t13 146.5q-12 -62 25 -94.5t112 -32.5zM1548 1257l-137 -305q9 138 -49 281q-55 144 -174 178q-121 29 -216.5 8t-180.5 -96q-154 -133 -250 -369q-42 -105 -62 -222.5t-13.5 -230t38 -205
t99.5 -152t163 -66.5q290 -21 401 291q17 41 12.5 71t-16.5 50t-35 32.5t-42.5 18.5t-38.5 8h505l-36 -6q-43 -7 -93 -47t-77 -101l-170 -409l-9 34q-7 37 -34.5 73t-65.5 46l-57 -45q-48 -36 -74 -45q-7 -3 -27 -11t-40 -15t-35 -11q-70 -12 -136 -12q-167 1 -285.5 88.5
t-162.5 228.5q-42 135 -28.5 301t81.5 318q66 149 168.5 259.5t210.5 162.5q97 50 213 72q170 35 334 0q224 -52 319 -173z" />
    <glyph glyph-name="gbreve" unicode="&#x11f;" horiz-adv-x="964" 
d="M676 1071q-90 0 -119.5 59.5t12.5 145.5q-12 -61 25.5 -94t112.5 -33q163 0 254 125q-44 -84 -123 -143.5t-162 -59.5zM649 958q126 -4 200.5 -74t74.5 -175q3 -194 -138 -308q-139 -112 -327 -94q-89 6 -148 41q-76 -46 -61 -106q9 -36 82 -76l174 -96q105 -57 158 -113
q92 -92 77 -207q-18 -130 -141 -194q-125 -69 -297 -60q-119 3 -217 31q-102 28 -164.5 94.5t-56.5 159.5q3 50 26 91t54.5 67t70.5 45.5t70 28.5t59 12l31 4q-77 -37 -117.5 -110t-35.5 -150q7 -115 95.5 -182t225.5 -72q127 -3 186 59q57 60 60 133q9 138 -176 240
l-111 55q-62 30 -106 55q-40 23 -68 60t-27 78q3 106 199 159q-112 65 -115 205q-6 171 127 289q131 119 336 110zM754 676q27 237 -97 264q-112 27 -194 -80t-103 -264q-27 -243 111 -270q103 -24 184 82q85 111 99 268zM1047 950q53 -3 53 -45q0 -21 -14.5 -36.5
t-38.5 -14.5q-12 1 -36 14.5t-32 14.5q-38 9 -84 -37q64 107 152 104z" />
    <glyph glyph-name="Gdotaccent" unicode="&#x120;" horiz-adv-x="1501" 
d="M1198 1675q-21 -21 -48 -11.5t-34 33.5t12 48q21 21 49.5 11.5t35 -33.5t-14.5 -48zM1548 1257l-137 -305q9 138 -49 281q-55 144 -174 178q-121 29 -216.5 8t-180.5 -96q-154 -133 -250 -369q-42 -105 -62 -222.5t-13.5 -230t38 -205t99.5 -152t163 -66.5
q290 -21 401 291q17 41 12.5 71t-16.5 50t-35 32.5t-42.5 18.5t-38.5 8h505l-36 -6q-43 -7 -93 -47t-77 -101l-170 -409l-9 34q-7 37 -34.5 73t-65.5 46l-57 -45q-48 -36 -74 -45q-7 -3 -27 -11t-40 -15t-35 -11q-70 -12 -136 -12q-167 1 -285.5 88.5t-162.5 228.5
q-42 135 -28.5 301t81.5 318q66 149 168.5 259.5t210.5 162.5q97 50 213 72q170 35 334 0q224 -52 319 -173z" />
    <glyph glyph-name="gdotaccent" unicode="&#x121;" horiz-adv-x="964" 
d="M629 1200q0 44 31 75.5t75 31.5t75.5 -31.5t31.5 -75.5q0 -43 -32 -74.5t-75 -31.5t-74.5 31.5t-31.5 74.5zM649 958q126 -4 200.5 -74t74.5 -175q3 -194 -138 -308q-139 -112 -327 -94q-89 6 -148 41q-76 -46 -61 -106q9 -36 82 -76l174 -96q105 -57 158 -113
q92 -92 77 -207q-18 -130 -141 -194q-125 -69 -297 -60q-119 3 -217 31q-102 28 -164.5 94.5t-56.5 159.5q3 50 26 91t54.5 67t70.5 45.5t70 28.5t59 12l31 4q-77 -37 -117.5 -110t-35.5 -150q7 -115 95.5 -182t225.5 -72q127 -3 186 59q57 60 60 133q9 138 -176 240
l-111 55q-62 30 -106 55q-40 23 -68 60t-27 78q3 106 199 159q-112 65 -115 205q-6 171 127 289q131 119 336 110zM754 676q27 237 -97 264q-112 27 -194 -80t-103 -264q-27 -243 111 -270q103 -24 184 82q85 111 99 268zM1047 950q53 -3 53 -45q0 -21 -14.5 -36.5
t-38.5 -14.5q-12 1 -36 14.5t-32 14.5q-38 9 -84 -37q64 107 152 104z" />
    <glyph glyph-name="Gcommaaccent" unicode="&#x122;" horiz-adv-x="1501" 
d="M1047 549h505q-5 0 -16.5 -1.5t-38 -10.5t-51.5 -24t-53.5 -46t-46.5 -72l-170 -409l-9 37q-6 30 -34.5 68.5t-65.5 47.5l-57 -45q-48 -36 -74 -45q-7 -3 -27 -11t-40 -15t-35 -11q-70 -12 -136 -12q-167 1 -285.5 88.5t-162.5 228.5q-42 135 -28.5 301t81.5 318
q66 149 168.5 259.5t210.5 162.5q97 50 213 72q170 35 334 0q224 -52 319 -173l-137 -305q9 138 -49 281q-55 144 -174 178q-121 29 -216.5 8t-180.5 -96q-154 -133 -250 -369q-42 -105 -62 -222.5t-13.5 -230t38 -205t99.5 -152t163 -66.5q290 -21 401 291q17 41 12.5 71
t-16.5 50t-35 32.5t-42.5 18.5t-38.5 8zM754 -221q-15 -105 -109 -193q-92 -86 -196 -123q75 35 145 105q75 72 90 131q-27 -9 -51 -2q-43 6 -67.5 42t-14.5 79q7 42 42 66t77 16t66.5 -43.5t17.5 -77.5z" />
    <glyph glyph-name="gcommaaccent" unicode="&#x123;" horiz-adv-x="964" 
d="M649 958q126 -4 200.5 -74t74.5 -175q3 -194 -138 -308q-139 -112 -327 -94q-89 6 -148 41q-76 -46 -61 -106q9 -36 82 -76l174 -96q105 -57 158 -113q92 -92 77 -207q-18 -130 -141 -194q-125 -69 -297 -60q-119 3 -217 31q-102 28 -164.5 94.5t-56.5 159.5q3 50 26 91
t54.5 67t70.5 45.5t70 28.5t59 12l31 4q-77 -37 -117.5 -110t-35.5 -150q7 -115 95.5 -182t225.5 -72q127 -3 186 59q57 60 60 133q9 138 -176 240l-111 55q-62 30 -106 55q-40 23 -68 60t-27 78q3 106 199 159q-112 65 -115 205q-6 171 127 289q131 119 336 110zM754 676
q27 237 -97 264q-112 27 -194 -80t-103 -264q-27 -243 111 -270q103 -24 184 82q85 111 99 268zM1047 950q53 -3 53 -45q0 -21 -14.5 -36.5t-38.5 -14.5q-12 1 -36 14.5t-32 14.5q-38 9 -84 -37q64 107 152 104z" />
    <glyph glyph-name="Hbar" unicode="&#x126;" horiz-adv-x="1628" 
d="M1440 1434h624q-192 0 -262 -162l-73 -185h94l-21 -24h-84l-354 -889q-33 -80 13 -124.5t139 -49.5h-670q82 3 164 55q87 54 116 127l222 551h-682l-226 -559q-33 -80 13 -124.5t139 -49.5h-668q84 3 166 55q88 56 113 127l354 881h-211l21 24h200l74 185q26 67 -11 112
t-114 50h625q-193 0 -260 -162l-74 -185h684l74 185q26 67 -11 112t-114 50zM674 756h684l123 307h-684z" />
    <glyph glyph-name="hbar" unicode="&#x127;" horiz-adv-x="1155" 
d="M762 1114l-8 -16h-129l-449 -1098h-180l434 1098h-80l8 14h78l31 80l33 80q47 114 30 131q-7 10 -56 17.5t-101 9.5l-45 4h434l-131 -320h131zM852 72q15 -9 78 39q72 58 114 100l54 51l-37 -45l-47 -53l-43 -49q-20 -22 -34 -35t-38.5 -30t-32.5 -23q-52 -39 -116 -39
q-73 0 -93.5 57t19.5 160l135 327q38 94 52.5 145.5t7.5 91.5t-42 65q-12 10 -32.5 14t-55 -4.5t-75.5 -30.5t-97 -70t-116 -118q119 176 246 260t247 61q210 -38 72 -381l-150 -375q-33 -91 -26 -110q3 -6 10 -8z" />
    <glyph glyph-name="Imacron" unicode="&#x12a;" horiz-adv-x="780" 
d="M631 1599l8 15l403 2l-8 -17h-403zM461 1434h651q-88 0 -164 -40t-110 -122l-441 -1098q-33 -77 17 -123t145 -51h-694q83 3 172 53q89 53 127 142l416 1032q36 85 4 142.5t-123 64.5z" />
    <glyph glyph-name="imacron" unicode="&#x12b;" horiz-adv-x="636" 
d="M346 1098l8 14l404 2l-8 -16h-404zM94 178l246 586q27 62 14 72l-6 4q-15 9 -80 -35q-51 -34 -116 -88l-54 -45q82 94 183 176q106 86 174 92q77 8 106.5 -43t-4.5 -143l-250 -607q-29 -63 -6 -69q15 -9 80 35t119 92l53 47q-237 -270 -381 -270q-66 0 -88 49t10 147z
" />
    <glyph glyph-name="Iogonek" unicode="&#x12e;" horiz-adv-x="780" 
d="M461 1434h651q-88 0 -164 -40t-110 -122l-441 -1098q-33 -77 17 -123t145 -51h-156q-175 -88 -196 -197q-15 -74 43 -114q59 -44 133 -11q-81 -60 -184 -30q-100 26 -103 129q-3 142 158 223h-389q83 3 172 53q89 53 127 142l416 1032q36 85 4 142.5t-123 64.5z" />
    <glyph glyph-name="iogonek" unicode="&#x12f;" horiz-adv-x="667" 
d="M551 1167q14 12 30.5 13.5t29 -6.5t20.5 -20t6.5 -27.5t-14.5 -28.5t-29 -14.5t-28.5 6.5t-21.5 20t-7.5 28t14.5 29zM467 940q77 8 107.5 -43t-3.5 -143l-252 -607q-28 -66 -6 -69q18 -9 80 35q65 44 119 92l53 47q-221 -250 -354 -268q-131 -76 -152 -181
q-15 -71 43 -114q60 -44 134 -11q-57 -39 -124 -40.5t-115 36t-50 103.5q-1 61 42.5 126t116.5 113q-44 53 3 162l243 586q27 63 15 72l-7 4q-14 9 -79 -35q-61 -40 -115 -88l-53 -45q79 91 180 176q106 86 174 92z" />
    <glyph glyph-name="Idot" unicode="&#x130;" horiz-adv-x="780" 
d="M893 1675q-13 -13 -29 -14.5t-28 7t-20.5 20.5t-7 28t14.5 29t29 14.5t28 -7t20.5 -20.5t7 -28t-14.5 -29zM461 1434h651q-88 0 -164 -40t-110 -122l-441 -1098q-33 -77 17 -123t145 -51h-694q83 3 172 53q89 53 127 142l416 1032q36 85 4 142.5t-123 64.5z" />
    <glyph glyph-name="dotlessi" unicode="&#x131;" horiz-adv-x="647" 
d="M94 178l246 586q27 62 14 72l-6 4q-15 9 -80 -35q-51 -34 -116 -88l-54 -45q82 94 183 176q106 86 174 92q77 8 106.5 -43t-4.5 -143l-250 -607q-29 -63 -6 -69q15 -9 80 35t119 92l53 47q-237 -270 -381 -270q-66 0 -88 49t10 147z" />
    <glyph glyph-name="IJ" unicode="&#x132;" horiz-adv-x="1437" 
d="M838 1272l-441 -1098q-33 -77 17 -123t145 -51h-694q83 3 172 53q89 53 127 142l416 1032q36 85 4 142.5t-123 64.5h651q-88 0 -164 -40t-110 -122zM1210 1434h635q-84 0 -162.5 -42.5t-111.5 -119.5l-416 -1041q-109 -274 -341.5 -419t-559.5 -150q107 0 299 117
q103 63 201 183t159 269l424 1051q26 66 -10 106.5t-117 45.5z" />
    <glyph glyph-name="ij" unicode="&#x133;" horiz-adv-x="1345" 
d="M606 1065q-49 0 -84 35.5t-35 83.5q0 50 34.5 84.5t84.5 34.5q48 0 82.5 -35t34.5 -84q0 -47 -35 -83t-82 -36zM1198 1184q0 50 35 84.5t84 34.5t84 -34.5t35 -84.5q0 -48 -35 -83.5t-84 -35.5t-84 35.5t-35 83.5zM1290 764l-356 -885q-27 -69 -66 -122.5t-79 -86.5
t-88 -55t-88 -31.5t-85 -12.5t-71.5 -1.5t-55.5 4.5q-59 6 -117 37t-83 74q-29 48 -26 93t34 70q38 38 92 23q55 -15 64 -76q4 -16 -0.5 -37t-12.5 -44.5t-10 -30.5q-6 -28 7 -53.5t44 -32.5q174 -46 309 276l353 858q46 109 20 119q-16 9 -80 -37q-69 -52 -114 -92l-54 -49
q208 239 322 266q96 26 137.5 -25.5t3.5 -148.5zM119 178l243 586q27 63 15 72l-6 4q-15 9 -80 -35q-61 -40 -115 -88l-53 -45q84 97 182 176q106 86 172 92q77 8 107.5 -43t-2.5 -143l-252 -607q-28 -66 -6 -69q17 -9 82 35q61 41 118 92l54 47q-57 -65 -111 -119
q-43 -46 -125 -98q-81 -52 -146.5 -53t-87.5 48.5t11 147.5z" />
    <glyph glyph-name="Kcommaaccent" unicode="&#x136;" horiz-adv-x="1409" 
d="M834 1272l-441 -1098q-33 -80 12 -124.5t138 -49.5h-670q86 5 168 56.5t117 138.5l436 1073q29 72 -7 116.5t-118 49.5h616q-181 0 -251 -162zM956 756l181 -414q151 -342 245 -342h-307q-38 53 -90 170l-219 487q-11 25 -30.5 37.5t-41.5 13t-41 -3t-35 -10.5l619 488
q106 84 94 168t-123 84h535q-69 -3 -227 -91q-145 -83 -326 -225l-182 -147q-116 -91 -52 -215zM766 -221q-15 -106 -111 -193q-92 -86 -196 -123q75 35 145 105q75 72 90 131q-25 -6 -51 -2q-42 6 -65 41.5t-16.5 78.5t42.5 68q38 20 76.5 13.5t65 -41.5t20.5 -78z" />
    <glyph glyph-name="kcommaaccent" unicode="&#x137;" horiz-adv-x="972" 
d="M739 117q46 -11 90.5 6.5t67.5 46.5l18 27q-87 -234 -253 -213q-152 18 -173 260q0 4 -3.5 43.5t-4.5 64.5q-2 108 -28 152q-25 31 -56 37l-219 -541h-186l491 1237q55 134 43 156q-13 23 -153 37l-47 2h434l-357 -879q134 31 177 -74q11 -28 38 -207q8 -53 40.5 -97.5
t80.5 -57.5zM973 952q35 -6 51.5 -29t13 -48t-26 -46t-57.5 -22q-164 -12 -280 -62q-59 -25 -121 -66t-94 -73l-29 -28q94 126 209 219q203 173 334 155zM461 -100q41 -7 65.5 -42.5t18.5 -78.5q-15 -103 -109 -191q-90 -87 -196 -125q75 35 145 105q73 73 88 131
q-26 -9 -49 -2q-42 6 -67 42t-17 79q11 43 44.5 66t76.5 16z" />
    <glyph glyph-name="Lacute" unicode="&#x139;" horiz-adv-x="1308" 
d="M709 1565l172 252q30 48 66 60t59 -15q16 -9 18.5 -29.5t-12.5 -47t-47 -48.5zM379 164l444 1110q65 160 252 160h-614q79 -5 116 -49.5t11 -112.5l-441 -1084q-34 -82 -112 -132.5t-166 -55.5h1198l205 430q-98 -146 -318 -270q-218 -126 -413 -129h-60q-73 0 -100 35
t-2 98z" />
    <glyph glyph-name="lacute" unicode="&#x13a;" horiz-adv-x="593" 
d="M600 1567l172 252q30 48 67 60t60 -15q16 -9 18 -29.5t-13.5 -47t-47.5 -48.5zM264 182l508 1252h-438l41 -4q46 -2 91 -12.5t56 -26.5q15 -21 -26 -123l-428 -1045q-48 -117 -28.5 -179t103.5 -62q64 0 117 34q67 44 105 84l45 47l43 50l36 43l-49 -47q-43 -40 -110 -91
q-57 -42 -84 -39q-3 0 -6 3q-16 13 24 116z" />
    <glyph glyph-name="Lcommaaccent" unicode="&#x13b;" horiz-adv-x="1308" 
d="M954 160q220 124 318 270l-205 -430h-1198q88 5 166 55.5t112 132.5l441 1084q26 68 -11 112.5t-116 49.5h614q-187 0 -252 -160l-444 -1110q-25 -63 2 -98t100 -35h60q195 3 413 129zM545 -100q42 -7 67 -42.5t19 -78.5q-15 -103 -109 -191q-90 -87 -196 -125
q75 35 145 105q73 73 88 131q-26 -9 -49 -2q-42 6 -67 42t-17 79q11 43 44.5 66t74.5 16z" />
    <glyph glyph-name="lcommaaccent" unicode="&#x13c;" horiz-adv-x="593" 
d="M246 63q27 -3 84 39q67 51 110 91l49 47l-36 -43l-43 -50l-45 -47q-38 -40 -105 -84q-53 -34 -117 -34q-84 0 -103.5 62t28.5 179l428 1045q41 102 26 123q-11 16 -56 26.5t-91 12.5l-41 4h438l-508 -1252q-40 -103 -24 -116q3 -3 6 -3zM70 -100q41 -7 65.5 -42.5
t18.5 -78.5q-15 -103 -109 -191q-90 -87 -197 -125q77 36 146 105q73 73 88 131q-26 -9 -49 -2q-42 6 -67 42t-17 79q11 43 44.5 66t76.5 16z" />
    <glyph glyph-name="Lcaron" unicode="&#x13d;" horiz-adv-x="1308" 
d="M1018 1352q11 44 45 67t76 13q41 -6 65.5 -41t18.5 -78q-15 -102 -109 -193q-92 -86 -196 -123q71 29 145 103q73 73 88 133q-30 -7 -49 -4q-43 8 -67 43.5t-17 79.5zM954 160q220 124 318 270l-205 -430h-1198q88 5 166 55.5t112 132.5l441 1084q26 68 -11 112.5
t-116 49.5h614q-187 0 -252 -160l-444 -1110q-25 -63 2 -98t100 -35h60q195 3 413 129z" />
    <glyph glyph-name="lcaron" unicode="&#x13e;" horiz-adv-x="690" 
d="M950 1432q41 -6 65.5 -41t18.5 -78q-15 -106 -108 -193q-91 -85 -197 -123q71 29 145 103q75 75 89 133q-27 -7 -50 -4q-43 7 -66.5 43t-15.5 80q8 43 43 66.5t76 13.5zM246 63q27 -3 84 39q67 51 110 91l49 47l-36 -43l-43 -50l-45 -47q-38 -40 -105 -84
q-53 -34 -117 -34q-84 0 -103.5 62t28.5 179l428 1045q41 102 26 123q-11 16 -56 26.5t-91 12.5l-41 4h438l-508 -1252q-40 -103 -24 -116q3 -3 6 -3z" />
    <glyph glyph-name="Ldot" unicode="&#x13f;" horiz-adv-x="1308" 
d="M823 1274l-444 -1110q-25 -63 2 -98t100 -35h60q195 3 413 129q220 124 318 270l-205 -430h-1198q88 5 166 55.5t112 132.5l441 1084q26 68 -11 112.5t-116 49.5h614q-187 0 -252 -160zM995 786q0 -38 -29 -66t-67 -28t-66 28t-28 66q0 39 28 68t66 29q39 0 67.5 -28
t28.5 -69z" />
    <glyph glyph-name="ldot" unicode="&#x140;" horiz-adv-x="700" 
d="M772 1434l-508 -1252q-40 -103 -24 -116q3 -3 6 -3q27 -3 84 39q67 51 110 91l49 47l-36 -43l-43 -50l-45 -47q-38 -40 -105 -84q-53 -34 -117 -34q-84 0 -103.5 62t28.5 179l428 1045q41 102 26 123q-11 16 -56 26.5t-91 12.5l-41 4h438zM745 692q-38 0 -66 28t-28 66
q0 39 28 68t66 29q41 0 69 -28t28 -69q0 -39 -28 -66.5t-69 -27.5z" />
    <glyph glyph-name="Lslash" unicode="&#x141;" horiz-adv-x="1382" 
d="M995 160q220 124 318 270l-205 -430h-1198q88 5 166 55.5t112 132.5l263 646l-39 -3l-199 -51l14 23l201 51l31 2l170 416q26 68 -11 112.5t-116 49.5h614q-187 0 -252 -160l-153 -385l116 31l-10 -23l-115 -29l-282 -704q-25 -63 2 -98t100 -35h60q195 3 413 129z" />
    <glyph glyph-name="lslash" unicode="&#x142;" horiz-adv-x="661" 
d="M393 1434h438l-235 -582l168 37l-19 -39l-165 -35l-256 -633q-40 -104 -25 -116q3 -3 6 -3q27 -3 84 39q72 55 111 91l49 47l-37 -43l-43 -50l-45 -47q-38 -40 -105 -84q-53 -34 -116 -34q-85 0 -104 62t28 179l221 543l-90 -21l-25 29l132 29l190 465q41 103 27 123
q-11 16 -56.5 26.5t-91.5 12.5z" />
    <glyph glyph-name="Nacute" unicode="&#x143;" horiz-adv-x="1533" 
d="M1151 1565l170 252q32 48 68 60t59 -15q17 -9 19 -29.5t-14 -47t-48 -48.5zM1921 1436h-516q112 -5 156.5 -80.5t-0.5 -198.5l-273 -665q-25 -61 -42.5 -83.5t-31.5 -17.5q-22 6 -49 82l-344 961h-438q108 -3 154 -91q47 -90 10 -184l-346 -850q-114 -279 -367 -309h535
q-70 8 -112 39.5t-60 95.5q-19 68 26 166l330 811q20 52 38 78t32 24q23 -3 63 -116l410 -1133l487 1184q58 145 148.5 215t189.5 72z" />
    <glyph glyph-name="nacute" unicode="&#x144;" horiz-adv-x="1204" 
d="M768 1051l172 252q32 50 68 62.5t59 -17.5q16 -9 18 -29t-13.5 -46t-47.5 -48zM911 82q-29 6 17 131l147 362q127 340 -88 379q-218 47 -477 -336q124 153 222.5 201t158.5 12q66 -51 -29 -288l-135 -336q-36 -97 -14.5 -152t94.5 -55q77 0 160 68q59 45 184 194l-47 -49
q-39 -39 -109 -92q-57 -46 -84 -39zM543 748q38 82 18.5 138.5t-96.5 49.5q-118 -9 -338 -266l45 43q53 47 100 78q55 38 78 28q22 -6 -18 -100l-279 -719h195z" />
    <glyph glyph-name="Ncommaaccent" unicode="&#x145;" horiz-adv-x="1533" 
d="M1405 1436h516q-99 -2 -189.5 -72t-148.5 -215l-487 -1184l-410 1133q-40 113 -63 116q-14 2 -32 -24t-38 -78l-330 -811q-45 -98 -26 -166q18 -64 60 -95.5t112 -39.5h-535q253 30 367 309l346 850q37 94 -10 184q-46 88 -154 91h438l344 -961q27 -76 49 -82
q14 -5 31.5 17.5t42.5 83.5l273 665q45 123 0.5 198.5t-156.5 80.5zM612 -100q41 -7 65.5 -42.5t18.5 -78.5q-15 -106 -108 -193q-91 -85 -197 -123q77 36 146 105q73 73 88 131q-26 -9 -50 -2q-42 6 -66.5 42t-16.5 79q11 43 44.5 66t75.5 16z" />
    <glyph glyph-name="ncommaaccent" unicode="&#x146;" horiz-adv-x="1204" 
d="M911 82q27 -7 84 39q70 53 109 92l47 49q-125 -149 -184 -194q-83 -68 -160 -68q-73 0 -94.5 55t14.5 152l135 336q95 237 29 288q-60 36 -158.5 -12t-222.5 -201q259 383 477 336q215 -39 88 -379l-147 -362q-46 -125 -17 -131zM465 936q77 7 96.5 -49.5t-18.5 -138.5
l-295 -748h-195l279 719q40 94 18 100q-23 10 -78 -28q-47 -31 -100 -78l-45 -43q220 257 338 266zM494 -100q41 -7 65.5 -42.5t18.5 -78.5q-15 -103 -109 -191q-90 -87 -197 -125q77 36 146 105q73 73 88 131q-26 -9 -49 -2q-42 6 -67 42t-17 79q11 43 44.5 66t76.5 16z
" />
    <glyph glyph-name="Ncaron" unicode="&#x147;" horiz-adv-x="1533" 
d="M1096 1821l123 -197l297 197l-269 -275h-119zM1921 1436h-516q112 -5 156.5 -80.5t-0.5 -198.5l-273 -665q-25 -61 -42.5 -83.5t-31.5 -17.5q-22 6 -49 82l-344 961h-438q108 -3 154 -91q47 -90 10 -184l-346 -850q-114 -279 -367 -309h535q-70 8 -112 39.5t-60 95.5
q-19 68 26 166l330 811q20 52 38 78t32 24q23 -3 63 -116l410 -1133l487 1184q58 145 148.5 215t189.5 72z" />
    <glyph glyph-name="ncaron" unicode="&#x148;" horiz-adv-x="1204" 
d="M754 1329l123 -196l297 196l-269 -274h-119zM911 82q-29 6 17 131l147 362q127 340 -88 379q-218 47 -477 -336q124 153 222.5 201t158.5 12q66 -51 -29 -288l-135 -336q-36 -97 -14.5 -152t94.5 -55q77 0 160 68q59 45 184 194l-47 -49q-39 -39 -109 -92
q-57 -46 -84 -39zM543 748q38 82 18.5 138.5t-96.5 49.5q-118 -9 -338 -266l45 43q53 47 100 78q55 38 78 28q22 -6 -18 -100l-279 -719h195z" />
    <glyph glyph-name="Eng" unicode="&#x14a;" horiz-adv-x="1558" 
d="M1393 1436h516q-99 -2 -189.5 -72t-148.5 -215l-488 -1184l-6 17l-22 -58q-36 -90 -89.5 -156t-111.5 -96q-129 -75 -297 -53q-53 6 -107 35.5t-77 66.5q-29 43 -26.5 87t32.5 65q33 33 84 21q50 -11 59 -68q2 -15 -2 -35t-10.5 -41t-7.5 -29q-12 -64 47 -79
q171 -47 303 270l133 324l-313 862q-37 113 -62 116q-14 2 -31.5 -23.5t-37.5 -78.5l-330 -811q-45 -100 -27 -166q18 -64 60 -95.5t112 -39.5h-534q252 30 366 309l347 850q37 93 -11 184q-46 88 -153 91h438l344 -961q27 -76 49 -82q14 -5 31.5 17.5t42.5 83.5l272 665
q45 123 1 198.5t-156 80.5z" />
    <glyph glyph-name="eng" unicode="&#x14b;" horiz-adv-x="1181" 
d="M971 909q97 -19 120 -103.5t-34 -244.5h2l-254 -637q-30 -77 -71.5 -135t-86.5 -90t-88.5 -52.5t-88.5 -26t-74.5 -5.5t-57.5 4q-57 8 -110 36.5t-76 65.5q-26 43 -23.5 87t29.5 65q33 33 86 21q50 -11 59 -68q2 -16 -2 -35t-11.5 -43t-8.5 -27q-12 -64 49 -79
q80 -23 144 42t132 228l119 285h-2l133 319q88 230 25 275q-56 35 -150 -11t-215 -192q245 362 455 321zM268 0h-188l272 702q38 90 19 99q-20 9 -76 -29q-52 -35 -98 -78l-45 -41q211 251 329 260q73 7 92.5 -48.5t-18.5 -135.5z" />
    <glyph glyph-name="Omacron" unicode="&#x14c;" horiz-adv-x="1589" 
d="M985 1620l8 14l404 2l-8 -16h-404zM1348 1421q183 -59 243 -286q30 -107 6 -263t-98 -321q-163 -354 -487 -512q-328 -157 -611 -14q-120 58 -170 217q-47 161 -10 364q42 211 158 387q188 290 455 398q265 110 514 30zM1176 1432q-118 21 -275 -86q-83 -58 -170 -179.5
t-158 -287.5q-127 -294 -118 -568q9 -267 157 -317q42 -9 72.5 -11t75.5 7t88 35q68 39 135 106q68 68 137 189.5t123 275.5q120 334 105 573q-15 242 -172 263z" />
    <glyph glyph-name="omacron" unicode="&#x14d;" horiz-adv-x="1005" 
d="M492 1098l8 14l403 2l-8 -16h-403zM590 950q168 37 276 -51q112 -86 103 -262q-1 -80 -22.5 -159.5t-57.5 -149t-85.5 -132t-107.5 -108t-122 -77.5t-129 -40t-130 4q-109 17 -170 109q-57 87 -51 199q6 103 37 219q41 116 99.5 204t125.5 136q114 85 234 108zM604 928
q-77 -35 -151 -162q-71 -123 -119 -285q-44 -183 -41 -319q2 -77 32.5 -123.5t86.5 -46.5q111 -3 219 196q103 193 145 459q26 180 -27.5 252.5t-144.5 28.5z" />
    <glyph glyph-name="Ohungarumlaut" unicode="&#x150;" horiz-adv-x="1589" 
d="M1016 1593l172 252q32 48 68 60t59 -15q16 -9 18 -29.5t-13.5 -47t-47.5 -48.5zM1223 1593l172 252q30 48 67 60t60 -15q13 -13 16 -31t-11 -44t-48 -50zM1348 1421q-249 80 -514 -30q-267 -108 -455 -398q-116 -176 -158 -387q-37 -203 10 -364q50 -159 170 -217
q283 -143 611 14q324 158 487 512q74 165 98 321t-6 263q-60 227 -243 286zM1176 1432q157 -21 172 -263q15 -239 -105 -573q-54 -154 -123 -275.5t-137 -189.5q-67 -67 -135 -106q-43 -26 -88 -35t-75.5 -7t-72.5 11q-148 50 -157 317q-9 274 118 568q71 166 158 287.5
t170 179.5q157 107 275 86z" />
    <glyph glyph-name="ohungarumlaut" unicode="&#x151;" horiz-adv-x="1005" 
d="M553 1069l172 252q30 48 67 60t60 -15q13 -13 16 -31t-11 -44t-48 -50zM784 1069l172 252q30 48 67 60t60 -15q16 -9 18 -29.5t-13.5 -47t-47.5 -48.5zM590 950q168 37 276 -51q112 -86 103 -262q-1 -80 -22.5 -159.5t-57.5 -149t-85.5 -132t-107.5 -108t-122 -77.5
t-129 -40t-130 4q-109 17 -170 109q-57 87 -51 199q6 103 37 219q41 116 99.5 204t125.5 136q114 85 234 108zM604 928q-77 -35 -151 -162q-71 -123 -119 -285q-44 -183 -41 -319q2 -77 32.5 -123.5t86.5 -46.5q111 -3 219 196q103 193 145 459q26 180 -27.5 252.5
t-144.5 28.5z" />
    <glyph glyph-name="OE" unicode="&#x152;" horiz-adv-x="2334" 
d="M1753 1411l-65 -2l-261 -647h119q199 0 301 76q47 36 73 66.5t54 78.5l-209 -551q6 26 6.5 56t-4.5 66t-21.5 68.5t-42.5 59t-71.5 42t-103.5 15.5h-109l-241 -602q-20 -54 -2.5 -85.5t67.5 -31.5h127q273 0 533 127q220 112 327 261l-188 -414h-1141q-47 0 -164 -10
q-101 -12 -180.5 -5.5t-163.5 37.5q-146 46 -223 203q-75 157 -57 367q21 208 129 393q154 258 357.5 370t465.5 101l113 -10q89 -6 163 -6h1008l33 -394q-2 3 -6 11.5t-12.5 25.5t-22.5 39q-84 143 -182 203q-95 59 -185 74q-86 18 -221 18zM553 14q184 -57 317 97
q62 73 99 157l41 88q1 2 53 129l53 136l60 143l55 137q1 2 16 39.5t23 63.5q38 102 41 180q24 125 -47 187t-215 54q-96 0 -207 -59q-76 -40 -135 -94q-67 -59 -135 -162.5t-115 -230.5q-111 -295 -84 -555q27 -259 180 -310z" />
    <glyph glyph-name="oe" unicode="&#x153;" horiz-adv-x="1433" 
d="M1190 600l-23 -35q-1 0 -5 1t-5 1q-5 1 -178 58q80 120 149 194q131 143 183 139q10 -2 15 -16.5t1.5 -44t-16.5 -70t-44 -100t-77 -127.5zM516 950zM516 950q36 -2 59.5 -38.5t32 -124t-19.5 -232.5q-17 -159 -86 -305q-66 -141 -146 -221q-13 -32 -18 -37q-3 -3 -6 2
q0 8 2 16q-53 -47 -92 -35q-10 10 8 97l57 250q32 124 60 262q64 228 149 366zM532 928l-10 -121q18 121 10 121zM979 625l-8 -15l-21 -32q-19 25 -16 40q6 19 45 7zM1249 461q34 0 119 16q9 1 10 -2q0 -2 -4 -10q-85 -130 -170 -189q-144 -102 -327 -90q-60 18 -39 129
q20 108 112 263q46 -58 158 -93q-70 -86 -109 -127q-24 -26 -57 -61q-35 -38 -31 -39q182 9 338 203zM1130 479l-22 6l59 80q13 -3 88 -16q42 -6 45 -14q4 -7 -12 -23l-39 -51q-67 3 -119 18z" />
    <glyph glyph-name="Racute" unicode="&#x154;" horiz-adv-x="1374" 
d="M1305 1862q17 -9 19 -29.5t-14 -47t-48 -48.5l-254 -172l170 252q32 48 68 60t59 -15zM1409 997q-94 -265 -485 -303l6 -4q69 -48 112 -153l101 -246q0 -1 6 -17t11.5 -31.5t6.5 -19.5q12 -24 15 -33q9 -18 19.5 -35.5t17.5 -31.5q61 -94 145 -123h-322q-40 34 -96 182
l-127 342q-47 117 -92 154q-45 39 -137 55l-221 -543q-35 -89 8 -141q46 -49 117 -49h-623q79 0 159.5 53.5t119.5 151.5l423 1061q29 68 -6.5 115.5t-111.5 52.5h583q241 0 336 -136q96 -137 35 -301zM1196 1022q19 48 26.5 98.5t-2 103.5t-38.5 94.5t-90 69t-148 29.5
l-74 2l-274 -669q121 -14 240 2q272 44 360 270z" />
    <glyph glyph-name="racute" unicode="&#x155;" horiz-adv-x="903" 
d="M674 1051l170 252q32 50 68 62.5t59 -17.5q16 -9 18 -29t-13.5 -46t-47.5 -48zM354 778l-313 -778h203l311 768q26 56 23 102q-3 55 -54 72q-52 18 -98 -6q-50 -15 -145 -98q-91 -80 -166 -164l49 43q45 42 104 86q58 43 82 43q31 0 4 -68zM539 694l14 21q31 52 104 125
q117 111 234 108q82 2 108 -60q20 -49 -7 -95q-29 -51 -88 -40q-2 1 -3 1q-36 6 -59 39q-21 35 -56 38q-99 20 -247 -137z" />
    <glyph glyph-name="Rcommaaccent" unicode="&#x156;" horiz-adv-x="1374" 
d="M1409 997q-94 -265 -485 -303l6 -4q69 -48 112 -153l101 -246q0 -1 6 -17t11.5 -31.5t6.5 -19.5q12 -24 15 -33q9 -18 19.5 -35.5t17.5 -31.5q61 -94 145 -123h-322q-40 34 -96 182l-127 342q-47 117 -92 154q-45 39 -137 55l-221 -543q-35 -89 8 -141q46 -49 117 -49
h-623q79 0 159.5 53.5t119.5 151.5l423 1061q29 68 -6.5 115.5t-111.5 52.5h583q241 0 336 -136q96 -137 35 -301zM1196 1022q19 48 26.5 98.5t-2 103.5t-38.5 94.5t-90 69t-148 29.5l-74 2l-274 -669q121 -14 240 2q272 44 360 270zM899 -221q-15 -106 -108 -193
q-91 -85 -197 -123q75 35 145 105q73 73 88 131q-26 -9 -49 -2q-43 6 -67.5 42t-14.5 79q7 42 42 66t77 16q41 -7 65.5 -42.5t18.5 -78.5z" />
    <glyph glyph-name="rcommaaccent" unicode="&#x157;" horiz-adv-x="903" 
d="M578 870q3 -46 -23 -102l-311 -768h-203l313 778q27 68 -4 68q-24 0 -82 -43q-59 -44 -104 -86l-49 -43q75 84 166 164q95 83 145 98q46 24 98 6q51 -17 54 -72zM891 948q82 2 108 -60q20 -49 -7 -95q-29 -51 -88 -40q-2 1 -3 1q-36 6 -59 39q-21 35 -56 38
q-99 20 -247 -137q49 74 118 146q117 111 234 108zM147 -221q-15 -106 -108 -193q-91 -85 -197 -123q77 36 146 105q73 73 88 131q-26 -9 -49 -2q-43 6 -67.5 42t-14.5 79q7 42 41.5 66t76.5 16q41 -7 65.5 -42.5t18.5 -78.5z" />
    <glyph glyph-name="Rcaron" unicode="&#x158;" horiz-adv-x="1374" 
d="M1346 1821l-269 -275h-119l-32 275l123 -197zM1409 997q-94 -265 -485 -303l6 -4q69 -48 112 -153l101 -246q0 -1 6 -17t11.5 -31.5t6.5 -19.5q12 -24 15 -33q9 -18 19.5 -35.5t17.5 -31.5q61 -94 145 -123h-322q-40 34 -96 182l-127 342q-47 117 -92 154q-45 39 -137 55
l-221 -543q-35 -89 8 -141q46 -49 117 -49h-623q79 0 159.5 53.5t119.5 151.5l423 1061q29 68 -6.5 115.5t-111.5 52.5h583q241 0 336 -136q96 -137 35 -301zM1196 1022q19 48 26.5 98.5t-2 103.5t-38.5 94.5t-90 69t-148 29.5l-74 2l-274 -669q121 -14 240 2
q272 44 360 270z" />
    <glyph glyph-name="rcaron" unicode="&#x159;" horiz-adv-x="903" 
d="M614 1329l123 -196l299 196l-270 -274h-119zM354 778l-313 -778h203l311 768q26 56 23 102q-3 55 -54 72q-52 18 -98 -6q-50 -15 -145 -98q-91 -80 -166 -164l49 43q45 42 104 86q58 43 82 43q31 0 4 -68zM539 694l14 21q31 52 104 125q117 111 234 108q82 2 108 -60
q20 -49 -7 -95q-29 -51 -88 -40q-2 1 -3 1q-36 6 -59 39q-21 35 -56 38q-99 20 -247 -137z" />
    <glyph glyph-name="Sacute" unicode="&#x15a;" horiz-adv-x="1193" 
d="M987 1565l170 252q32 48 68 60t59 -15q17 -9 19 -29.5t-14 -47t-48 -48.5zM1323 1303l-123 -242q-3 82 -47 180q-24 58 -70 104.5t-106 69.5q-160 57 -264 -33q-99 -86 -84 -260q9 -79 55 -145q32 -43 166 -168q72 -64 137 -139q42 -45 64 -90q89 -172 26 -322
q-55 -131 -176 -199q-129 -72 -258 -75q-317 -9 -518 159q-45 35 -88 95l160 317v-43q0 -48 15.5 -118.5t43.5 -127.5q53 -109 162 -186q107 -76 244 -76q146 3 200 102q58 101 33 224q-16 92 -82 166l-55 63q-8 11 -76 72l-61 55q-147 139 -188.5 256t9.5 244
q37 92 111.5 153.5t167.5 87.5t203 25q180 -3 315 -84q65 -40 84 -65z" />
    <glyph glyph-name="sacute" unicode="&#x15b;" horiz-adv-x="878" 
d="M649 1051l172 252q30 50 66 62.5t59 -17.5q16 -9 18.5 -29t-12.5 -46t-47 -48zM596 963q-130 -6 -215.5 -66.5t-97.5 -169.5q-9 -106 98 -274l55 -93q22 -39 37 -75q21 -47 21 -84q6 -96 -51.5 -160.5t-153.5 -58.5q-88 6 -127 69q-40 64 -6 125q18 32 53 45q40 18 49 60
q12 39 -15.5 71.5t-74.5 32.5q-66 -2 -106 -55.5t-33 -132.5q6 -99 76 -159t180 -65q169 -12 288 58q121 71 121 221q0 75 -39 149q-31 56 -55 91q-5 9 -29 45q-8 10 -29 43t-24 38l-18 33q-2 3 -6.5 14t-6 14.5t-5.5 12.5t-5 13.5t-3.5 12.5t-4 14.5t-2.5 14.5t-2 17
q-9 59 29 121q37 63 106 69q60 4 98.5 -28t36.5 -80q0 -16 -24.5 -58t-24.5 -59q-1 -31 28.5 -54.5t67.5 -21.5q42 1 67 37t23 82q-1 90 -80 143t-196 48z" />
    <glyph glyph-name="Scedilla" unicode="&#x15e;" horiz-adv-x="1337" 
d="M1354 1303l-123 -242q-3 82 -47 180q-24 58 -70 104.5t-106 69.5q-161 57 -265 -33q-99 -86 -84 -260q9 -77 56 -145q32 -43 166 -168q72 -64 137 -139q40 -43 63 -90q90 -173 27 -322q-55 -131 -176 -199q-129 -72 -258 -75q-317 -9 -518 159q-45 35 -88 95l159 317v-43
q0 -47 16 -118t44 -128q53 -109 162 -186q107 -76 243 -76q147 3 201 102q58 101 33 224q-16 92 -82 166l-56 63q-9 13 -75 72l-62 55q-147 139 -188.5 256t10.5 244q37 92 111.5 153.5t167 87.5t202.5 25q181 -3 316 -84q65 -40 84 -65zM535 -6l-144 -121q23 -2 43 -8.5
t36.5 -20.5t16 -36.5t-17.5 -55.5q-36 -60 -95.5 -88.5t-111.5 -26t-88 22.5q24 -41 93.5 -51t152.5 26t133 115q28 38 29 73.5t-29 61t-88 29.5l92 88z" />
    <glyph glyph-name="scedilla" unicode="&#x15f;" horiz-adv-x="878" 
d="M872 772q2 -46 -23 -82t-67 -37q-38 -2 -67.5 21.5t-28.5 54.5q0 17 24.5 59t24.5 58q2 48 -36.5 80t-98.5 28q-69 -6 -106 -69q-38 -62 -29 -121q1 -10 2 -18.5t3.5 -18t4 -14t6 -16t5 -13.5t7 -16.5t7.5 -16.5l18 -33q3 -5 24 -38t29 -43q24 -36 29 -45q24 -35 55 -91
q39 -74 39 -149q0 -129 -93.5 -202t-246.5 -79l-63 -57q58 -4 87.5 -29.5t28 -61t-29.5 -73.5q-49 -80 -132 -116t-152 -25.5t-93 51.5q36 -20 88 -22.5t111.5 26t95.5 88.5q18 32 18 54.5t-17 37t-37 21t-42 8.5l125 98q-45 0 -57 2q-110 5 -180 65t-76 159q-7 79 33 132.5
t106 55.5q47 0 74.5 -32.5t15.5 -71.5q-9 -42 -49 -60q-35 -13 -53 -45q-34 -61 6 -125q39 -63 127 -69q96 -6 153.5 58.5t51.5 160.5q0 37 -21 84q-15 36 -37 75l-55 93q-107 168 -98 274q12 109 97.5 169.5t215.5 66.5q117 5 196 -48t80 -143z" />
    <glyph glyph-name="Scaron" unicode="&#x160;" horiz-adv-x="1193" 
d="M903 1821l123 -197l297 197l-268 -275h-119zM1327 1303l-123 -242q-3 82 -47 180q-24 58 -70 104.5t-106 69.5q-160 57 -264 -33q-99 -86 -84 -260q9 -79 55 -145q32 -43 166 -168q72 -64 137 -139q42 -45 64 -90q27 -53 41.5 -98.5t13 -105.5t-26.5 -118
q-54 -130 -178 -199q-129 -72 -258 -75q-317 -9 -518 159q-45 35 -88 95l160 317v-43q0 -48 15.5 -118.5t43.5 -127.5q53 -109 162 -186q107 -76 244 -76q146 3 200 102q58 101 33 224q-16 92 -82 166l-55 63q-8 11 -76 72l-61 55q-147 139 -188.5 256t9.5 244
q37 92 111.5 153.5t167.5 87.5t203 25q180 -3 315 -84q65 -40 84 -65z" />
    <glyph glyph-name="scaron" unicode="&#x161;" horiz-adv-x="878" 
d="M551 1329l123 -196l297 196l-269 -274h-118zM596 963q-130 -6 -215.5 -66.5t-97.5 -169.5q-9 -106 98 -274l55 -93q22 -39 37 -75q21 -47 21 -84q6 -96 -51.5 -160.5t-153.5 -58.5q-88 6 -127 69q-40 64 -6 125q18 32 53 45q40 18 49 60q12 39 -15.5 71.5t-74.5 32.5
q-66 -2 -106 -55.5t-33 -132.5q6 -99 76 -159t180 -65q169 -12 288 58q121 71 121 221q0 75 -39 149q-31 56 -55 91q-5 9 -29 45q-8 10 -29 43t-24 38l-18 33q-2 3 -6.5 14t-6 14.5t-5.5 12.5t-5 13.5t-3.5 12.5t-4 14.5t-2.5 14.5t-2 17q-9 59 29 121q37 63 106 69
q60 4 98.5 -28t36.5 -80q0 -16 -24.5 -58t-24.5 -59q-1 -31 28.5 -54.5t67.5 -21.5q42 1 67 37t23 82q-1 90 -80 143t-196 48z" />
    <glyph glyph-name="uni0162" unicode="&#x162;" horiz-adv-x="1488" 
d="M227 1098l158 336h1241l-18 -324q0 2 -15 41q-10 27 -49 86q-41 63 -98 102q-109 74 -252 74h-64l-18 -51l-469 -1161q-34 -84 14.5 -140t145.5 -61h-324l-88 -86q58 -4 87.5 -29.5t28 -61t-29.5 -73.5q-49 -80 -132 -116t-152 -25.5t-93 51.5q36 -20 88 -22.5t111.5 26
t95.5 88.5q22 40 14 66t-32 39t-62 16l144 121l16 6h-369q75 0 164 53q93 53 133 154l467 1155q7 20 -2 35.5t-28 15.5h-62q-129 0 -299 -92q-56 -29 -118.5 -83.5t-100.5 -100.5z" />
    <glyph glyph-name="uni0163" unicode="&#x163;" horiz-adv-x="655" 
d="M723 901h-141l-295 -741q-30 -77 -8 -86t86 37q69 53 118 102l56 51q-13 -13 -66 -78q-26 -34 -80 -96q-33 -37 -83 -69.5t-91 -36.5h-6l-72 -70q58 -4 88 -29.5t29 -61t-29 -73.5q-51 -80 -134 -116t-151.5 -25.5t-93.5 51.5q37 -20 89 -22.5t112 26t96 88.5
q22 40 14.5 66t-31.5 39t-62 16l131 111q-52 1 -83 23t-39.5 70t17.5 124l285 700h-86l-17 21h111l78 192l260 146l-135 -338h151z" />
    <glyph glyph-name="Tcaron" unicode="&#x164;" horiz-adv-x="1488" 
d="M952 1821l125 -197l297 197l-270 -275h-119zM1626 1434h-1241l-158 -336l33 39q38 46 100.5 100.5t118.5 83.5q170 92 299 92h62q19 0 28 -15.5t2 -35.5l-467 -1155q-40 -101 -133 -154q-89 -53 -164 -53h697q-97 5 -145.5 61t-14.5 140l469 1161l18 51h64q143 0 252 -74
q57 -39 98 -102q39 -59 49 -86q15 -39 15 -41z" />
    <glyph glyph-name="tcaron" unicode="&#x165;" horiz-adv-x="655" 
d="M961 1432q41 -6 65 -41t18 -78q-15 -106 -108 -193q-91 -85 -197 -123q73 30 146 103t88 133q-30 -7 -49 -4q-43 7 -66.5 43t-15.5 80q8 43 42.5 66.5t76.5 13.5zM465 1114l260 146l-135 -338h151l-18 -21h-141l-295 -741q-30 -77 -8 -86t86 37q69 53 118 102l56 51
q-13 -13 -66 -78q-26 -34 -80 -96q-33 -37 -83 -69.5t-91 -36.5q-83 -6 -129 49q-42 54 4 168l285 700h-86l-17 21h111z" />
    <glyph glyph-name="Tbar" unicode="&#x166;" horiz-adv-x="1488" 
d="M854 1599l8 15l404 2l-9 -17h-403zM385 1434h1241l-18 -324q0 2 -15 41q-10 27 -49 86q-41 63 -98 102q-109 74 -252 74h-64l-18 -51l-469 -1161q-34 -84 14.5 -140t145.5 -61h-697q75 0 164 53q93 53 133 154l467 1155q7 20 -2 35.5t-28 15.5h-62q-129 0 -299 -92
q-56 -29 -118.5 -83.5t-100.5 -100.5l-33 -39z" />
    <glyph glyph-name="tbar" unicode="&#x167;" horiz-adv-x="655" 
d="M756 1114l-8 -16h-86l-72 -176h151l-18 -21h-141l-295 -741q-30 -77 -8 -86t86 37q69 53 118 102l56 51q-13 -13 -66 -78q-26 -34 -80 -96q-33 -37 -83 -69.5t-91 -36.5q-83 -6 -129 49q-42 54 4 168l285 700h-86l-17 21h111l72 176h-115l8 14h113v2l260 146l-57 -146h88
z" />
    <glyph glyph-name="Umacron" unicode="&#x16a;" horiz-adv-x="1421" 
d="M989 1599l8 15l404 2l-8 -17h-404zM1370 1434h512q-230 0 -362 -334l-242 -604q-101 -255 -247 -381.5t-363 -126.5q-142 0 -242.5 61t-144.5 164q-88 198 57 557l184 451q39 73 17 143q-21 67 -119 70h622q-199 0 -270 -179l-242 -606q-45 -111 -58 -206t2 -161.5
t50 -116t82.5 -75t104.5 -31.5q179 -19 313.5 92.5t241.5 378.5l243 607q62 130 25 213t-164 84z" />
    <glyph glyph-name="umacron" unicode="&#x16b;" horiz-adv-x="1144" 
d="M573 1098l9 14l403 2l-8 -16h-404zM338 856q-16 9 -74 -37q-49 -39 -104 -90l-47 -47q86 101 98 115q37 44 102 92q71 53 123 53q71 0 94.5 -53.5t-10.5 -153.5q-65 -158 -133 -348q-20 -51 -47 -135q-30 -111 18 -143q115 -77 340 202q-224 -364 -434 -321
q-206 39 -90 368l148 387q37 102 16 111zM1141 922l-289 -764q-27 -78 -8 -84q21 -6 76 37q62 49 104 94l45 47l-29 -39q-28 -35 -34 -45q-70 -81 -80 -88q-7 -6 -26 -22.5t-35.5 -30t-28.5 -19.5q-50 -26 -99 -26q-61 2 -85.5 56t3.5 134l287 750h199z" />
    <glyph glyph-name="Uring" unicode="&#x16e;" horiz-adv-x="1421" 
d="M1143 1692q0 54 37 91.5t88 37.5q54 0 90.5 -36.5t36.5 -92.5q-2 -51 -39 -88t-88 -37t-88 37t-37 88zM1174 1694q0 -38 29 -67.5t67 -29.5t67 29.5t29 67.5t-29 68t-67 30q-39 0 -67.5 -28.5t-28.5 -69.5zM1370 1434h512q-230 0 -362 -334l-242 -604
q-101 -255 -247 -381.5t-363 -126.5q-142 0 -242.5 61t-144.5 164q-88 198 57 557l184 451q39 73 17 143q-21 67 -119 70h622q-199 0 -270 -179l-242 -606q-45 -111 -58 -206t2 -161.5t50 -116t82.5 -75t104.5 -31.5q179 -19 313.5 92.5t241.5 378.5l243 607q62 130 25 213
t-164 84z" />
    <glyph glyph-name="uring" unicode="&#x16f;" horiz-adv-x="1144" 
d="M797 1047q-51 0 -87 36.5t-36 87.5q0 54 36 91.5t87 37.5q56 0 92 -36t35 -93q0 -51 -36.5 -87.5t-90.5 -36.5zM895 1174q0 41 -28.5 69.5t-67.5 28.5q-38 0 -67.5 -30t-29.5 -68t29.5 -67.5t67.5 -29.5t67 29.5t29 67.5zM338 856q-16 9 -74 -37q-49 -39 -104 -90
l-47 -47q86 101 98 115q37 44 102 92q71 53 123 53q71 0 94.5 -53.5t-10.5 -153.5q-65 -158 -133 -348q-20 -51 -47 -135q-30 -111 18 -143q115 -77 340 202q-224 -364 -434 -321q-206 39 -90 368l148 387q37 102 16 111zM1141 922l-289 -764q-27 -78 -8 -84q21 -6 76 37
q62 49 104 94l45 47l-29 -39q-28 -35 -34 -45q-70 -81 -80 -88q-7 -6 -26 -22.5t-35.5 -30t-28.5 -19.5q-50 -26 -99 -26q-61 2 -85.5 56t3.5 134l287 750h199z" />
    <glyph glyph-name="Uhungarumlaut" unicode="&#x170;" horiz-adv-x="1421" 
d="M1008 1559l172 251q32 48 68 60t59 -15q16 -9 18 -29t-13.5 -46.5t-47.5 -48.5zM1214 1559l172 251q30 48 67 60t60 -15q13 -13 16 -31t-11 -43.5t-48 -49.5zM1882 1434h-512q127 -1 164 -84t-25 -213l-243 -607q-107 -267 -241.5 -378.5t-313.5 -92.5q-57 6 -104.5 31.5
t-82.5 75t-50 116t-2 161.5t58 206l242 606q71 179 270 179h-622q98 -3 119 -70q22 -70 -17 -143l-184 -451q-145 -359 -57 -557q44 -103 144.5 -164t242.5 -61q217 0 363 126.5t247 381.5l242 604q132 334 362 334z" />
    <glyph glyph-name="uhungarumlaut" unicode="&#x171;" horiz-adv-x="1144" 
d="M598 1069l172 252q30 48 67 60t60 -15q16 -9 18 -29.5t-13.5 -47t-47.5 -48.5zM831 1069l170 252q32 48 68 60t59 -15q16 -9 18 -29.5t-13.5 -47t-47.5 -48.5zM338 856q21 -9 -16 -111l-148 -387q-116 -329 90 -368q210 -43 434 321q-225 -279 -340 -202q-48 32 -18 143
q27 84 47 135q68 190 133 348q34 100 10.5 153.5t-94.5 53.5q-52 0 -123 -53q-65 -48 -102 -92q-12 -14 -98 -115l47 47q55 51 104 90q58 46 74 37zM852 158l289 764h-199l-287 -750q-28 -80 -3.5 -134t85.5 -56q49 0 99 26q12 6 28.5 19.5t35.5 30t26 22.5q10 7 80 88
q6 10 34 45l29 39l-45 -47q-42 -45 -104 -94q-55 -43 -76 -37q-19 6 8 84z" />
    <glyph glyph-name="Uogonek" unicode="&#x172;" horiz-adv-x="1421" 
d="M1370 1434h512q-230 0 -362 -334l-242 -604q-95 -242 -231.5 -368t-333.5 -138q-158 -90 -176 -187q-15 -74 43 -114q59 -44 133 -11q-57 -39 -124 -40.5t-115 36t-50 103.5q-3 138 151 219q-106 18 -182 75.5t-112 141.5q-88 198 57 557l184 451q39 73 17 143
q-21 67 -119 70h622q-199 0 -270 -179l-242 -606q-45 -111 -58 -206t2 -161.5t50 -116t82.5 -75t104.5 -31.5q179 -19 313.5 92.5t241.5 378.5l243 607q62 130 25 213t-164 84z" />
    <glyph glyph-name="uogonek" unicode="&#x173;" horiz-adv-x="1144" 
d="M344 -12q-157 -89 -172 -185q-15 -74 43 -114q59 -44 133 -11q-84 -60 -184 -30q-96 27 -105 129q-5 67 33.5 130t112.5 105q-133 80 -31 346l148 387q37 102 16 111q-16 9 -74 -37q-49 -39 -104 -90l-47 -47q86 101 98 115q37 44 102 92q71 53 123 53q71 0 94.5 -53.5
t-10.5 -153.5q-65 -158 -133 -348q-20 -51 -47 -135q-30 -111 18 -143q115 -77 340 202q-185 -299 -354 -323zM844 74q21 -6 76 37q62 49 104 94l45 47l-29 -39q-28 -35 -34 -45q-70 -81 -80 -88q-7 -6 -26 -22.5t-35.5 -30t-28.5 -19.5q-50 -26 -99 -26q-61 2 -85.5 56
t3.5 134l287 750h199l-289 -764q-27 -78 -8 -84z" />
    <glyph glyph-name="Wcircumflex" unicode="&#x174;" horiz-adv-x="1886" 
d="M1493 1817l10 -289l-100 203l-344 -203l307 289h127zM1929 1434h434q-84 -13 -176 -83t-166 -175l-854 -1252l-55 1024l-694 -1026l-72 1323q-9 183 -151 189h606q-72 0 -142 -52q-66 -48 -63 -151l27 -696q9 -188 26 -191q22 -3 78 74l383 565l-14 262q-12 183 -154 189
h604q-71 0 -141 -52q-69 -48 -66 -151l33 -748q6 -128 14 -139l11 -6q8 1 12 0t11.5 5t11.5 9.5t11.5 13t11.5 15.5t11.5 17.5t12.5 17.5l536 790q49 74 39.5 124.5t-45 77t-80.5 26.5z" />
    <glyph glyph-name="wcircumflex" unicode="&#x175;" horiz-adv-x="1406" 
d="M621 1024l307 289h127l10 -289l-100 203zM1364 934q-42 8 -74 -11.5t-33 -54.5q-5 -22 6 -44.5t33 -48.5t27 -34q50 -92 6 -209q-34 -92 -137 -223q-103 -130 -209 -211q15 302 -61 518q50 125 59 181q8 63 -12.5 100.5t-69.5 36.5q-90 -5 -138.5 -57t-47.5 -148
q0 -44 41 -172l28 -92q-46 -79 -130 -172.5t-177 -163.5q15 169 12 381q-6 252 -86 344q-80 95 -186 80q-80 -15 -115 -92q-21 -57 -30 -115q43 128 127 113q56 -12 81.5 -97.5t26.5 -283.5q3 -108 -6 -240q-10 -152 -14 -184q-1 -16 -2.5 -31t-3.5 -29.5t-3 -19.5l48 33
q73 54 129 100q92 78 157 141q49 46 93 101t64.5 87t18.5 32q25 -134 25 -259q0 -134 -8 -170q-6 -44 -12 -63q100 38 243 166q151 133 238 274q93 155 134 278t28 188t-70 71zM961 819q0 -23 -3.5 -47t-10 -47t-11 -37.5t-11.5 -33.5l-7 -19l-5 -4l-34 117q-24 120 12 153
q27 19 48.5 -4.5t21.5 -77.5z" />
    <glyph glyph-name="Ycircumflex" unicode="&#x176;" horiz-adv-x="1275" 
d="M807 1528l307 289h127l10 -289l-100 203zM1573 1434h-408q84 0 111 -70t-57 -182l-310 -359q-36 -44 -67 -41q-21 3 -33 49l-104 426q-18 70 12 120t98 57h-539q63 0 125 -49.5t86 -141.5l107 -438q19 -85 -21 -178l-172 -430q-34 -82 -116 -140q-80 -57 -138 -57h648
q-81 3 -136 55q-53 53 -16 142l166 415q46 113 90 166l350 404q206 237 324 252z" />
    <glyph glyph-name="ycircumflex" unicode="&#x177;" horiz-adv-x="944" 
d="M834 1313l12 -289l-101 203l-344 -203l308 289h125zM877 948q118 -12 81 -180q-35 -160 -188 -381q-113 -171 -281 -348q-164 -176 -337 -309q-50 -41 -74 -56q-29 -21 -80 -45.5t-94 -31.5q-123 -15 -160 22q-28 28 -16 76q12 47 61 59q10 0 30.5 3t28.5 -3l27 -10
q18 -5 59 -29q50 -20 121.5 1.5t143.5 78.5l57 47q64 58 141 138q-12 308 -49 532q-34 179 -70.5 252t-87.5 78q-86 9 -133 -94q20 72 59.5 125t100.5 65q129 26 203.5 -69.5t109.5 -329.5q36 -229 33 -379q114 130 162 194q91 132 115 189q59 144 -6 221q-1 2 -20 24.5
t-23 28.5q-17 29 -15 60t30.5 54t70.5 17z" />
    <glyph glyph-name="Ydieresis" unicode="&#x178;" horiz-adv-x="1275" 
d="M838 1616q-43 0 -74 32t-31 76q0 41 31 70t74 29q44 0 75 -29t31 -70q0 -44 -31 -76t-75 -32zM1274 1616q-43 0 -74 32t-31 76q0 38 32 68.5t73 30.5q44 0 75 -29t31 -70q0 -44 -31 -76t-75 -32zM1165 1434h408q-118 -15 -324 -252l-350 -404q-44 -53 -90 -166l-166 -415
q-37 -89 16 -142q55 -52 136 -55h-648q58 0 138 57q82 58 116 140l172 430q40 93 21 178l-107 438q-24 92 -86 141.5t-125 49.5h539q-68 -7 -98 -57t-12 -120l104 -426q12 -46 33 -49q31 -3 67 41l310 359q84 112 57 182t-111 70z" />
    <glyph glyph-name="Zacute" unicode="&#x179;" horiz-adv-x="1320" 
d="M983 1565l172 252q30 48 66 60t59 -15q16 -9 18.5 -29.5t-12.5 -47t-47 -48.5zM449 20q-89 2 -108.5 32.5t34.5 99.5l1190 1282h-1045l-172 -398q91 135 297 254q213 125 414 125h106q42 0 57.5 -12.5t7 -32.5t-35.5 -47l-1235 -1323h1157l152 420q-89 -130 -295 -262
q-225 -138 -420 -138h-104z" />
    <glyph glyph-name="zacute" unicode="&#x17a;" horiz-adv-x="837" 
d="M543 1051l172 252q32 50 68 62.5t59 -17.5q16 -9 18 -29t-13.5 -46t-47.5 -48zM164 750l29 49q25 49 92 100q63 51 139 51q58 0 123 -35q59 -30 108 -34q62 -3 148 18q84 24 94 43q-40 -101 -154 -221q-101 -106 -260 -219q-323 -214 -381 -291l17 10q66 27 131 19
q71 -6 147 -58q78 -52 142 -61q157 -24 239 80l-28 -58q-24 -53 -95 -114q-66 -57 -141 -54q-89 3 -190 58q-98 58 -174 61q-135 9 -224 -65l21 32q22 36 67 90t90 93q80 74 271 207l227 159q107 87 150 146l-27 -6q-69 -16 -154 -5q-54 9 -114 43q-54 31 -84 39
q-136 27 -209 -77z" />
    <glyph glyph-name="Zdotaccent" unicode="&#x17b;" horiz-adv-x="1320" 
d="M1081 1675q-21 -21 -48 -11.5t-33.5 33.5t12.5 48q21 21 49 11.5t34.5 -33.5t-14.5 -48zM449 20h104q195 0 420 138q206 132 295 262l-152 -420h-1157l1235 1323q27 27 35.5 47t-7 32.5t-57.5 12.5h-106q-201 0 -414 -125q-206 -119 -297 -254l172 398h1045l-1190 -1282
q-54 -69 -34.5 -99.5t108.5 -32.5z" />
    <glyph glyph-name="zdotaccent" unicode="&#x17c;" horiz-adv-x="837" 
d="M528 1200q0 44 32.5 75.5t76.5 31.5q43 0 74.5 -31.5t31.5 -75.5q0 -42 -32 -74t-74 -32q-43 0 -76 32.5t-33 73.5zM164 750l29 49q25 49 92 100q63 51 139 51q58 0 123 -35q59 -30 108 -34q62 -3 148 18q84 24 94 43q-40 -101 -154 -221q-101 -106 -260 -219
q-323 -214 -381 -291l17 10q66 27 131 19q71 -6 147 -58q78 -52 142 -61q157 -24 239 80l-28 -58q-24 -53 -95 -114q-66 -57 -141 -54q-89 3 -190 58q-98 58 -174 61q-135 9 -224 -65l21 32q22 36 67 90t90 93q80 74 271 207l227 159q107 87 150 146l-27 -6q-69 -16 -154 -5
q-54 9 -114 43q-54 31 -84 39q-136 27 -209 -77z" />
    <glyph glyph-name="Zcaron" unicode="&#x17d;" horiz-adv-x="1320" 
d="M981 1821l125 -197l297 197l-270 -275h-119zM449 20q-89 2 -108.5 32.5t34.5 99.5l1190 1282h-1045l-172 -398q91 135 297 254q213 125 414 125h106q42 0 57.5 -12.5t7 -32.5t-35.5 -47l-1235 -1323h1157l152 420q-89 -130 -295 -262q-225 -138 -420 -138h-104z" />
    <glyph glyph-name="zcaron" unicode="&#x17e;" horiz-adv-x="837" 
d="M535 1329l122 -196l299 196l-270 -274h-119zM164 750l29 49q25 49 92 100q63 51 139 51q58 0 123 -35q59 -30 108 -34q62 -3 148 18q84 24 94 43q-40 -101 -154 -221q-101 -106 -260 -219q-323 -214 -381 -291l17 10q66 27 131 19q71 -6 147 -58q78 -52 142 -61
q157 -24 239 80l-28 -58q-24 -53 -95 -114q-66 -57 -141 -54q-89 3 -190 58q-98 58 -174 61q-135 9 -224 -65l21 32q22 36 67 90t90 93q80 74 271 207l227 159q107 87 150 146l-27 -6q-69 -16 -154 -5q-54 9 -114 43q-54 31 -84 39q-136 27 -209 -77z" />
    <glyph glyph-name="Scommaaccent" unicode="&#x218;" horiz-adv-x="1193" 
d="M981 1415q-160 57 -264 -33q-99 -86 -84 -260q5 -52 35 -110q22 -44 57 -82l102 -96l27 -25l70 -66q102 -102 131 -163q27 -53 41.5 -98.5t13 -105.5t-26.5 -118q-54 -130 -178 -199q-129 -72 -258 -75q-317 -9 -518 159q-42 34 -78 80l-10 15l160 317q-9 -150 59 -289
q53 -109 162 -186q107 -76 244 -76q146 3 200 102q58 101 33 224q-16 92 -82 166l-55 63q-8 11 -76 72l-61 55q-147 139 -188.5 256t9.5 244q37 92 111.5 153.5t167.5 87.5t203 25q180 -3 315 -84q42 -23 76 -57l8 -8l-123 -242q-3 82 -47 180q-24 58 -70 104.5t-106 69.5z
M520 -100q42 -7 67 -42.5t19 -78.5q-15 -107 -110 -193q-91 -85 -197 -123q75 35 145 105q76 73 91 131q-26 -9 -50 -2q-42 6 -67 42t-17 79q11 43 44.5 66t74.5 16z" />
    <glyph glyph-name="scommaaccent" unicode="&#x219;" horiz-adv-x="878" 
d="M872 772q2 -46 -23 -82t-67 -37q-38 -2 -67.5 21.5t-28.5 54.5q0 17 24.5 59t24.5 58q2 48 -36.5 80t-98.5 28q-69 -6 -106 -69q-38 -62 -29 -121q1 -10 2 -18.5t3.5 -18t4 -14t6 -16t5 -13.5t7 -16.5t7.5 -16.5l18 -33q3 -5 24 -38t29 -43q24 -36 29 -45q24 -35 55 -91
q39 -74 39 -149q0 -150 -121 -221q-119 -70 -288 -58q-110 5 -180 65t-76 159q-7 79 33 132.5t106 55.5q47 0 74.5 -32.5t15.5 -71.5q-9 -42 -49 -60q-35 -13 -53 -45q-34 -61 6 -125q39 -63 127 -69q96 -6 153.5 58.5t51.5 160.5q0 37 -21 84q-15 36 -37 75l-55 93
q-107 168 -98 274q12 109 97.5 169.5t215.5 66.5q117 5 196 -48t80 -143zM250 -100q42 -7 67 -42.5t19 -78.5q-15 -106 -111 -193q-92 -86 -196 -123q75 35 145 105q75 72 90 131q-26 -9 -49 -2q-42 6 -67 42t-17 79q11 43 44.5 66t74.5 16z" />
    <glyph glyph-name="uni021A" unicode="&#x21a;" horiz-adv-x="1488" 
d="M227 1098l158 336h1241l-18 -324q0 2 -15 41q-10 27 -49 86q-41 63 -98 102q-109 74 -252 74h-64l-18 -51l-469 -1161q-34 -84 14.5 -140t145.5 -61h-697q75 0 164 53q93 53 133 154l467 1155q7 20 -2 35.5t-28 15.5h-62q-129 0 -299 -92q-56 -29 -118.5 -83.5
t-100.5 -100.5zM399 -100q42 -7 67 -42.5t19 -78.5q-15 -107 -110 -193q-91 -85 -197 -123q77 36 146 105q75 72 90 131q-26 -9 -49 -2q-42 6 -67 42t-17 79q11 43 44 66t74 16z" />
    <glyph glyph-name="uni021B" unicode="&#x21b;" horiz-adv-x="655" 
d="M723 901h-141l-295 -741q-30 -77 -8 -86t86 37q69 53 118 102l56 51q-13 -13 -66 -78q-26 -34 -80 -96q-33 -37 -83 -69.5t-91 -36.5q-83 -6 -129 49q-42 54 4 168l285 700h-86l-17 21h111l78 192l260 146l-135 -338h151zM78 -100q41 -7 65.5 -42.5t18.5 -78.5
q-15 -105 -109 -193q-92 -86 -196 -123q75 35 145 105q73 73 88 131q-26 -9 -49 -2q-43 6 -67.5 42t-14.5 79q7 43 41.5 66.5t77.5 15.5z" />
    <glyph glyph-name="circumflex" unicode="&#x2c6;" 
d="M287 1024l307 289h127l10 -289l-100 203z" />
    <glyph glyph-name="caron" unicode="&#x2c7;" 
d="M403 1329l125 -196l297 196l-270 -274h-119z" />
    <glyph glyph-name="breve" unicode="&#x2d8;" 
d="M549 1149q163 0 254 125q-44 -84 -123 -143.5t-162 -59.5q-90 0 -119 59.5t13 145.5q-12 -61 25 -94t112 -33z" />
    <glyph glyph-name="dotaccent" unicode="&#x2d9;" 
d="M481 1098q-8 -8 -17.5 -11.5t-18.5 -3t-17.5 4.5t-15 10.5t-10.5 15t-4.5 17.5t3 18.5t11.5 17.5q21 21 49 12t34.5 -33t-14.5 -48z" />
    <glyph glyph-name="ring" unicode="&#x2da;" 
d="M330 1171q0 54 37 91.5t88 37.5q55 0 91 -36t36 -93q-2 -51 -39 -87.5t-88 -36.5t-88 36.5t-37 87.5zM553 1174q0 41 -28.5 69.5t-67.5 28.5t-68 -28.5t-29 -69.5q0 -38 29.5 -67.5t67.5 -29.5t67 29.5t29 67.5z" />
    <glyph glyph-name="ogonek" unicode="&#x2db;" 
d="M-27 0h150q-176 -89 -197 -197q-15 -74 43 -114q59 -44 133 -11q-57 -39 -124 -40.5t-114.5 36t-49.5 103.5q-3 141 159 223z" />
    <glyph glyph-name="tilde" unicode="&#x2dc;" 
d="M305 1063q44 93 113.5 143t138.5 39q44 -6 78 -55q36 -48 74 -51q46 -5 96 25.5t80 84.5q-33 -76 -99.5 -129.5t-128.5 -52.5q-31 2 -53 14t-33.5 28.5t-22.5 32.5t-27 28t-40 14q-90 6 -176 -121z" />
    <glyph glyph-name="hungarumlaut" unicode="&#x2dd;" 
d="M319 1028l173 252q30 48 65.5 60t58.5 -15q16 -9 18.5 -29.5t-12.5 -47t-47 -48.5zM526 1028l172 252q30 48 66 60t59 -15q16 -9 18.5 -29.5t-12.5 -47t-47 -48.5z" />
    <glyph glyph-name="Wgrave" unicode="&#x1e80;" horiz-adv-x="1886" 
d="M1241 1802l49 -299l-157 264q-28 62 -24 90t36 41q36 12 62.5 -12.5t33.5 -83.5zM1929 1434h434q-84 -13 -176 -83t-166 -175l-854 -1252l-55 1024l-694 -1026l-72 1323q-9 183 -151 189h606q-72 0 -142 -52q-66 -48 -63 -151l27 -696q9 -188 26 -191q22 -3 78 74
l383 565l-14 262q-12 183 -154 189h604q-71 0 -141 -52q-69 -48 -66 -151l33 -748q6 -128 14 -139l11 -6q8 1 12 0t11.5 5t11.5 9.5t11.5 13t11.5 15.5t11.5 17.5t12.5 17.5l536 790q49 74 39.5 124.5t-45 77t-80.5 26.5z" />
    <glyph glyph-name="wgrave" unicode="&#x1e81;" horiz-adv-x="1406" 
d="M813 1323l51 -299l-159 264q-52 107 14 131q34 12 60.5 -13t33.5 -83zM1364 934q57 -6 70 -71t-28 -188t-134 -278q-87 -141 -238 -274q-143 -128 -243 -166q6 19 12 63q8 36 8 170q0 125 -25 259q2 0 -18.5 -32t-64.5 -87t-93 -101q-65 -63 -157 -141q-56 -46 -129 -100
l-48 -33q1 5 3 19.5t3.5 29.5t2.5 31q4 32 14 184q9 132 6 240q-1 198 -26.5 283.5t-81.5 97.5q-84 15 -127 -113q9 58 30 115q35 77 115 92q106 15 186 -80q80 -92 86 -344q3 -212 -12 -381q93 70 177 163.5t130 172.5l-28 92q-41 128 -41 172q-1 96 47.5 148t138.5 57
q49 1 69.5 -36.5t12.5 -100.5q-9 -56 -59 -181q76 -216 61 -518q106 81 209 211q103 131 137 223q44 117 -6 209q-5 8 -27 34t-33 48.5t-6 44.5q1 35 33 54.5t74 11.5zM961 819q0 54 -21.5 77.5t-48.5 4.5q-36 -33 -12 -153l34 -117l5 4l7 19q7 19 11.5 33.5t11 37.5t10 47
t3.5 47z" />
    <glyph glyph-name="Wacute" unicode="&#x1e82;" horiz-adv-x="1886" 
d="M1542 1862q16 -9 18.5 -29.5t-12.5 -47t-47 -48.5l-256 -172l172 252q30 48 66 60t59 -15zM1929 1434h434q-84 -13 -176 -83t-166 -175l-854 -1252l-55 1024l-694 -1026l-72 1323q-9 183 -151 189h606q-72 0 -142 -52q-66 -48 -63 -151l27 -696q9 -188 26 -191
q22 -3 78 74l383 565l-14 262q-12 183 -154 189h604q-71 0 -141 -52q-69 -48 -66 -151l33 -748q6 -128 14 -139l11 -6q8 1 12 0t11.5 5t11.5 9.5t11.5 13t11.5 15.5t11.5 17.5t12.5 17.5l536 790q49 74 39.5 124.5t-45 77t-80.5 26.5z" />
    <glyph glyph-name="wacute" unicode="&#x1e83;" horiz-adv-x="1406" 
d="M817 1051l172 252q30 50 67 62.5t60 -17.5q13 -13 16 -30.5t-10.5 -43t-48.5 -49.5zM1364 934q-42 8 -74 -11.5t-33 -54.5q-5 -22 6 -44.5t33 -48.5t27 -34q50 -92 6 -209q-34 -92 -137 -223q-103 -130 -209 -211q15 302 -61 518q50 125 59 181q8 63 -12.5 100.5
t-69.5 36.5q-90 -5 -138.5 -57t-47.5 -148q0 -44 41 -172l28 -92q-46 -79 -130 -172.5t-177 -163.5q15 169 12 381q-6 252 -86 344q-80 95 -186 80q-80 -15 -115 -92q-21 -57 -30 -115q43 128 127 113q56 -12 81.5 -97.5t26.5 -283.5q3 -108 -6 -240q-10 -152 -14 -184
q-1 -16 -2.5 -31t-3.5 -29.5t-3 -19.5l48 33q73 54 129 100q92 78 157 141q49 46 93 101t64.5 87t18.5 32q25 -134 25 -259q0 -134 -8 -170q-6 -44 -12 -63q100 38 243 166q151 133 238 274q93 155 134 278t28 188t-70 71zM961 819q0 -23 -3.5 -47t-10 -47t-11 -37.5
t-11.5 -33.5l-7 -19l-5 -4l-34 117q-24 120 12 153q27 19 48.5 -4.5t21.5 -77.5z" />
    <glyph glyph-name="Wdieresis" unicode="&#x1e84;" horiz-adv-x="1886" 
d="M1085 1616q-41 0 -71.5 32t-30.5 76q0 39 30.5 69t71.5 30q44 0 75.5 -29t31.5 -70q0 -47 -31 -77.5t-76 -30.5zM1524 1616q-43 0 -74 32t-31 76q0 41 31 70t74 29q44 0 74 -29t30 -70q0 -47 -29.5 -77.5t-74.5 -30.5zM1929 1434h434q-84 -13 -176 -83t-166 -175
l-854 -1252l-55 1024l-694 -1026l-72 1323q-9 183 -151 189h606q-72 0 -142 -52q-66 -48 -63 -151l27 -696q9 -188 26 -191q22 -3 78 74l383 565l-14 262q-12 183 -154 189h604q-71 0 -141 -52q-69 -48 -66 -151l33 -748q6 -128 14 -139l11 -6q8 1 12 0t11.5 5t11.5 9.5
t11.5 13t11.5 15.5t11.5 17.5t12.5 17.5l536 790q49 74 39.5 124.5t-45 77t-80.5 26.5z" />
    <glyph glyph-name="wdieresis" unicode="&#x1e85;" horiz-adv-x="1406" 
d="M635 1079q-43 0 -74 32.5t-31 76.5q0 38 32 68t73 30q44 0 75 -28.5t31 -69.5q0 -45 -31 -77t-75 -32zM1071 1079q-43 0 -73.5 32.5t-30.5 76.5q0 38 31.5 68t72.5 30q44 0 75.5 -28.5t31.5 -69.5q0 -44 -31.5 -76.5t-75.5 -32.5zM1364 934q57 -6 70 -71t-28 -188
t-134 -278q-87 -141 -238 -274q-143 -128 -243 -166q6 19 12 63q8 36 8 170q0 125 -25 259q2 0 -18.5 -32t-64.5 -87t-93 -101q-65 -63 -157 -141q-56 -46 -129 -100l-48 -33q1 5 3 19.5t3.5 29.5t2.5 31q4 32 14 184q9 132 6 240q-1 198 -26.5 283.5t-81.5 97.5
q-84 15 -127 -113q9 58 30 115q35 77 115 92q106 15 186 -80q80 -92 86 -344q3 -212 -12 -381q93 70 177 163.5t130 172.5l-28 92q-41 128 -41 172q-1 96 47.5 148t138.5 57q49 1 69.5 -36.5t12.5 -100.5q-9 -56 -59 -181q76 -216 61 -518q106 81 209 211q103 131 137 223
q44 117 -6 209q-5 8 -27 34t-33 48.5t-6 44.5q1 35 33 54.5t74 11.5zM961 819q0 54 -21.5 77.5t-48.5 4.5q-36 -33 -12 -153l34 -117l5 4l7 19q7 19 11.5 33.5t11 37.5t10 47t3.5 47z" />
    <glyph glyph-name="uni1EA0" unicode="&#x1ea0;" horiz-adv-x="1230" 
d="M1194 2h-600q73 0 139 51q71 53 68 154l-8 328h-459l-207 -308q-48 -75 -37 -125t48 -75t83 -25h-442q84 13 180 87t166 175l858 1258l59 -1329q6 -185 152 -191zM682 1053l-334 -496h443l-11 416v39q-3 103 -16 110q-27 12 -82 -69zM328 -150q43 0 73.5 -31.5
t30.5 -74.5t-30.5 -74.5t-73.5 -31.5q-44 0 -76.5 31.5t-32.5 74.5t32.5 74.5t76.5 31.5z" />
    <glyph glyph-name="uni1EA1" unicode="&#x1ea1;" horiz-adv-x="1085" 
d="M793 70q28 -8 94 39q57 41 112 96l48 51l-52 -63q-53 -64 -67 -78l-64 -64q-77 -69 -166 -69q-64 0 -93 33.5t-26.5 81t25.5 106.5l182 442q102 272 -6 299q-73 18 -180 -76q-102 -87 -194 -239q-108 -169 -132 -320q-24 -150 58 -184q77 -27 153 22q77 53 123 117
l-10 -20q-5 -8 -15.5 -28t-23.5 -40q-13 -24 -59 -80q-114 -126 -252 -119q-78 -1 -124 54.5t-52.5 140.5t25 192.5t98.5 206.5q71 114 155.5 197.5t163.5 120.5q147 72 248 69q119 -3 166 -84q49 16 61 23l121 49l-307 -762q-44 -108 -10 -114zM260 -150q44 0 75.5 -31.5
t31.5 -74.5t-31.5 -74.5t-75.5 -31.5q-43 0 -74.5 31.5t-31.5 74.5t31.5 74.5t74.5 31.5z" />
    <glyph glyph-name="uni1EB8" unicode="&#x1eb8;" horiz-adv-x="1490" 
d="M1083 154q209 101 330 258l-190 -412h-1389q88 0 176 55q90 54 125 133l440 1090q24 62 -18.5 106.5t-122.5 49.5h1069l33 -387q-3 6 -7 14.5t-11 20t-11 20.5q-17 33 -77 108t-117 109q-96 59 -183 74q-86 18 -223 18h-39l-258 -643h109q199 0 301 76q47 36 73 66.5
t54 78.5l-211 -551q7 26 8 57t-4 66t-22 67.5t-43.5 58.5t-71.5 42t-103 16h-98l-244 -602q-20 -54 -2 -85t68 -31h127q272 0 532 127zM528 -150q43 0 74 -31.5t31 -74.5t-31 -74.5t-74 -31.5q-44 0 -76 31.5t-32 74.5t32 74.5t76 31.5z" />
    <glyph glyph-name="uni1EB9" unicode="&#x1eb9;" horiz-adv-x="927" 
d="M748 958q125 -15 170 -114q50 -99 -52 -219q-137 -152 -532 -152q271 27 409 221q32 44 52 100t14 101t-45 51q-86 19 -199 -82q-111 -99 -192 -246q-51 -86 -76 -198q-24 -107 -2 -205q21 -96 104 -117q54 -15 106 -7t93 24.5t77.5 43.5t60 51t40.5 48l19 25
q-23 -52 -72 -117q-37 -53 -90 -100q-52 -45 -134 -73.5t-167 -21.5q-80 2 -139 58t-83.5 141.5t-10 197t72.5 216.5q59 116 138.5 199.5t160.5 119.5q150 68 277 55zM213 -362q-44 0 -76.5 31.5t-32.5 74.5t32.5 74.5t76.5 31.5q43 0 73.5 -31.5t30.5 -74.5t-30.5 -74.5
t-73.5 -31.5z" />
    <glyph glyph-name="uni1ECA" unicode="&#x1eca;" horiz-adv-x="780" 
d="M461 1434h651q-88 0 -164 -40t-110 -122l-441 -1098q-33 -77 17 -123t145 -51h-694q83 3 172 53q89 53 127 142l416 1032q36 85 4 142.5t-123 64.5zM164 -330q-31 -32 -76 -32t-76 32q-31 31 -31 74.5t31 75.5q31 31 76 31t76 -31q31 -32 31 -75.5t-31 -74.5z" />
    <glyph glyph-name="uni1ECB" unicode="&#x1ecb;" horiz-adv-x="667" 
d="M606 1065q-49 0 -84 35.5t-35 83.5q0 50 34.5 84.5t84.5 34.5q48 0 82.5 -35t34.5 -84q0 -47 -35 -83t-82 -36zM94 178l246 586q27 62 14 72l-6 4q-15 9 -80 -35q-51 -34 -116 -88l-54 -45q82 94 183 176q106 86 174 92q77 8 106.5 -43t-4.5 -143l-250 -607
q-29 -63 -6 -69q15 -9 80 35t119 92l53 47q-237 -270 -381 -270q-66 0 -88 49t10 147zM82 -362q-44 0 -76.5 31.5t-32.5 74.5t32.5 74.5t76.5 31.5q43 0 73.5 -31.5t30.5 -74.5t-30.5 -74.5t-73.5 -31.5z" />
    <glyph glyph-name="Ygrave" unicode="&#x1ef2;" horiz-adv-x="1275" 
d="M987 1802l51 -299l-159 264q-52 107 14 131q34 12 60.5 -13t33.5 -83zM1165 1434h408q-118 -15 -324 -252l-350 -404q-44 -53 -90 -166l-166 -415q-37 -89 16 -142q55 -52 136 -55h-648q58 0 138 57q82 58 116 140l172 430q40 93 21 178l-107 438q-24 92 -86 141.5
t-125 49.5h539q-68 -7 -98 -57t-12 -120l104 -426q12 -46 33 -49q31 -3 67 41l310 359q84 112 57 182t-111 70z" />
    <glyph glyph-name="ygrave" unicode="&#x1ef3;" horiz-adv-x="944" 
d="M510 1323l49 -299l-158 264q-28 63 -23.5 90.5t36.5 40.5q36 12 62.5 -12.5t33.5 -83.5zM877 948q118 -12 81 -180q-35 -160 -188 -381q-113 -171 -281 -348q-164 -176 -337 -309q-50 -41 -74 -56q-29 -21 -80 -45.5t-94 -31.5q-123 -15 -160 22q-28 28 -16 76
q12 47 61 59q10 0 30.5 3t28.5 -3l27 -10q18 -5 59 -29q50 -20 121.5 1.5t143.5 78.5l57 47q64 58 141 138q-12 308 -49 532q-34 179 -70.5 252t-87.5 78q-86 9 -133 -94q20 72 59.5 125t100.5 65q129 26 203.5 -69.5t109.5 -329.5q36 -229 33 -379q114 130 162 194
q91 132 115 189q59 144 -6 221q-1 2 -20 24.5t-23 28.5q-17 29 -15 60t30.5 54t70.5 17z" />
    <glyph glyph-name="uni1EF4" unicode="&#x1ef4;" horiz-adv-x="1275" 
d="M1165 1434h408q-118 -15 -324 -252l-350 -404q-44 -53 -90 -166l-166 -415q-37 -89 16 -142q55 -52 136 -55h-648q58 0 138 57q82 58 116 140l172 430q40 93 21 178l-107 438q-24 92 -86 141.5t-125 49.5h539q-68 -7 -98 -57t-12 -120l104 -426q12 -46 33 -49
q31 -3 67 41l310 359q84 112 57 182t-111 70zM328 -362q-44 0 -76.5 31.5t-32.5 74.5t32.5 74.5t76.5 31.5q43 0 73.5 -31.5t30.5 -74.5t-30.5 -74.5t-73.5 -31.5z" />
    <glyph glyph-name="uni1EF5" unicode="&#x1ef5;" horiz-adv-x="944" 
d="M877 948q118 -12 81 -180q-35 -160 -188 -381q-113 -171 -281 -348q-164 -176 -337 -309q-50 -41 -74 -56q-29 -21 -80 -45.5t-94 -31.5q-123 -15 -160 22q-28 28 -16 76q12 47 61 59q10 0 30.5 3t28.5 -3l27 -10q18 -5 59 -29q50 -20 121.5 1.5t143.5 78.5l57 47
q64 58 141 138q-12 308 -49 532q-34 179 -70.5 252t-87.5 78q-86 9 -133 -94q20 72 59.5 125t100.5 65q129 26 203.5 -69.5t109.5 -329.5q36 -229 33 -379q114 130 162 194q91 132 115 189q59 144 -6 221q-1 2 -20 24.5t-23 28.5q-17 29 -15 60t30.5 54t70.5 17zM262 -362
q43 0 74 -31.5t31 -75.5q0 -43 -31 -74.5t-74 -31.5q-44 0 -76 31.5t-32 74.5q0 44 32 75.5t76 31.5z" />
    <glyph glyph-name="uni1EF9" unicode="&#x1ef9;" horiz-adv-x="927" 
d="M418 1208q-39 4 -79.5 -27t-59.5 -114q0 104 57 163.5t141 51.5q53 -6 121 -68q71 -59 113 -59q57 -2 97 33.5t46 99.5q5 -83 -42 -148.5t-124 -66.5q-72 -3 -147 66q-72 69 -123 69zM668 922h354q-84 -18 -141 -84q-37 -37 -66 -105l-323 -784l-103 -252
q-35 -84 -75.5 -110.5t-104.5 -18.5q-41 7 -63 43.5t-11 77.5q15 68 92 65q19 -3 50 -29.5t36 -27.5q54 -15 88 72l80 194l-370 828q-27 53 -69 87.5t-75 39.5l-28 4h473q-4 0 -47 -13q-83 -31 -43 -123l202 -458q24 -58 56 -58q14 0 22 8.5t18.5 30t18.5 33.5l156 379l8 22
q25 73 -12 120.5t-123 58.5z" />
    <glyph glyph-name="endash" unicode="&#x2013;" horiz-adv-x="1226" 
d="M178 545v24h977v-24h-977z" />
    <glyph glyph-name="emdash" unicode="&#x2014;" horiz-adv-x="1511" 
d="M201 545v24h1239v-24h-1239z" />
    <glyph glyph-name="quoteleft" unicode="&#x2018;" horiz-adv-x="229" 
d="M279 1260q42 -6 66.5 -42t16.5 -79q-11 -43 -44 -66t-74 -16q-42 6 -67 41t-19 78q15 105 108 192q90 87 197 125q-77 -36 -148 -104q-71 -71 -86 -134q17 8 50 5z" />
    <glyph glyph-name="quoteright" unicode="&#x2019;" horiz-adv-x="233" 
d="M356 1432q41 -6 65.5 -41t18.5 -78q-15 -106 -108 -193q-91 -85 -197 -123q73 30 146 103t88 133q-31 -7 -50 -4q-42 7 -65.5 42.5t-15.5 80.5q8 43 42 66.5t76 13.5z" />
    <glyph glyph-name="quotesinglbase" unicode="&#x201a;" horiz-adv-x="284" 
d="M100 199q41 -6 65.5 -41.5t18.5 -77.5q-15 -106 -108 -193q-90 -87 -197 -125q77 36 146 105q73 70 88 133q-15 -8 -50 -4q-43 6 -67 42t-14 79q7 43 41 66.5t77 15.5z" />
    <glyph glyph-name="quotedblleft" unicode="&#x201c;" horiz-adv-x="454" 
d="M430 1260q41 -6 65.5 -42t16.5 -79q-7 -42 -42 -66t-77 -16q-17 2 -28 10q-35 -18 -68 -10q-41 6 -65.5 41.5t-18.5 77.5q14 104 109 192q90 87 196 125q-76 -35 -147 -104q-71 -71 -86 -134q17 8 49 5q40 77 117.5 140t162.5 93q-77 -35 -149 -104q-71 -71 -86 -134
q19 8 51 5z" />
    <glyph glyph-name="quotedblright" unicode="&#x201d;" horiz-adv-x="407" 
d="M309 1432q42 -6 67 -41t19 -78q-15 -103 -108 -193q-91 -85 -197 -123q73 30 146 103t88 133q-31 -7 -50 -4q-43 8 -67 43.5t-17 79.5q11 43 44.5 66.5t74.5 13.5zM571 1432q41 -6 65.5 -41t18.5 -78q-15 -103 -108 -193q-91 -85 -197 -123q73 30 146 103t88 133
q-30 -7 -49 -4q-43 8 -67 43.5t-17 79.5q11 44 44.5 67t75.5 13z" />
    <glyph glyph-name="quotedblbase" unicode="&#x201e;" horiz-adv-x="550" 
d="M102 199q41 -6 66.5 -41.5t19.5 -77.5q-15 -107 -110 -193q-90 -87 -197 -125q78 35 148 105q73 70 88 133q-17 -7 -51 -4q-41 6 -65.5 42t-16.5 79q7 42 41.5 66t76.5 16zM352 199q41 -6 65.5 -41.5t18.5 -77.5q-15 -106 -108 -193q-90 -87 -197 -125q75 35 145 105
q74 71 89 133q-15 -8 -50 -4q-43 6 -67.5 42t-14.5 79q7 43 41.5 66.5t77.5 15.5z" />
    <glyph glyph-name="dagger" unicode="&#x2020;" horiz-adv-x="868" 
d="M463 1186h334l-9 -21h-333l-516 -1280h-23l516 1280h-344l8 21h344l189 467h22z" />
    <glyph glyph-name="daggerdbl" unicode="&#x2021;" horiz-adv-x="946" 
d="M858 1186l-8 -21h-344l-297 -737h344l-10 -20h-342l-211 -523h-23l211 523h-336l11 20h333l297 737h-333l8 21h334l188 467h22l-188 -467h344z" />
    <glyph glyph-name="bullet" unicode="&#x2022;" horiz-adv-x="483" 
d="M176 639q0 44 32 75t77 31q43 0 73.5 -31t30.5 -75q0 -43 -31 -75t-73 -32q-43 0 -76 33t-33 74z" />
    <glyph glyph-name="ellipsis" unicode="&#x2026;" horiz-adv-x="1116" 
d="M53 98q0 44 32.5 75.5t76.5 31.5q43 0 73.5 -31.5t30.5 -75.5q0 -43 -30.5 -74.5t-73.5 -31.5t-76 32.5t-33 73.5zM406 98q0 44 32 75.5t76 31.5q43 0 73.5 -31.5t30.5 -75.5q0 -43 -30.5 -74.5t-73.5 -31.5t-75.5 32.5t-32.5 73.5zM754 98q0 44 32 75.5t76 31.5
q43 0 74 -31.5t31 -75.5q0 -43 -31 -74.5t-74 -31.5t-75.5 32.5t-32.5 73.5z" />
    <glyph glyph-name="perthousand" unicode="&#x2030;" horiz-adv-x="1898" 
d="M-61 0h38l1516 1436h-35zM582 1409q101 34 160 -12.5t59 -139.5q-3 -157 -115 -284q-108 -126 -237 -111q-49 4 -79.5 32.5t-39.5 70t-5 88t19 92.5q35 106 100 171.5t138 92.5zM598 1399q-81 -40 -149 -258q-30 -84 -27 -176q1 -49 20 -73t54 -22q66 6 125 136
q61 134 75 249q6 54 -1 90t-22 48.5t-35 15.5t-40 -10zM881 551q102 34 160.5 -11.5t58.5 -140.5q-3 -157 -115 -284q-108 -126 -237 -111q-50 3 -80.5 31.5t-39 72t-5 89t17.5 90.5q35 104 101.5 170.5t138.5 93.5zM1464 551q102 34 162 -11.5t60 -140.5q-3 -157 -115 -284
q-108 -126 -238 -111q-50 3 -80.5 31.5t-38.5 72t-4.5 89t17.5 90.5q35 104 100.5 171t136.5 93zM895 541q-83 -41 -150 -258q-21 -83 -24 -174q0 -46 19 -72t55 -25q65 6 123 135q61 134 75 252q8 52 1.5 87.5t-22 48t-36.5 16t-41 -9.5zM1481 541q-83 -41 -150 -258
q-23 -92 -26 -174q0 -100 73 -97q66 6 125 133q62 137 76 254q8 52 1.5 87.5t-22 48t-36.5 16t-41 -9.5z" />
    <glyph glyph-name="guilsinglleft" unicode="&#x2039;" horiz-adv-x="442" 
d="M293 279l-178 290l358 310l-260 -318z" />
    <glyph glyph-name="guilsinglright" unicode="&#x203a;" horiz-adv-x="520" 
d="M256 854l178 -291l-358 -309l256 317z" />
    <glyph glyph-name="Euro" unicode="&#x20ac;" horiz-adv-x="1337" 
d="M915 1391q75 34 157 50t155 12t136 -26.5t100 -65.5t47 -104.5t-23 -142.5q-24 -56 -69.5 -89.5t-90.5 -31.5q-36 1 -51.5 27.5t-7.5 65.5t35 77q92 151 53.5 212.5t-144.5 55.5t-208 -65q-256 -145 -441 -582h510l-26 -18h-834l-14 18h129q86 192 236 352.5t351 254.5z
M1092 422q49 2 65.5 -29t-6.5 -98q-46 -118 -195 -211q-148 -92 -249 -104q-61 -14 -187 -5q-123 9 -182 48q-230 150 -74 602h-108l-17 18h877l-27 -18h-489q-81 -217 -78 -418q5 -99 58 -157.5t149 -59.5q123 -1 207.5 69t103.5 187q11 71 53 123t99 53z" />
    <glyph glyph-name="trademark" unicode="&#x2122;" horiz-adv-x="1912" 
d="M596 1417l-252 -622q-14 -34 -11 -56t12.5 -34.5t24.5 -18.5t26 -7.5t16 -0.5h-346q8 0 36 4q29 6 68 36.5t57 76.5l250 622h-28q-103 0 -209 -65q-61 -41 -136 -115l-24 -27l141 222h633l-37 -218q-11 84 -41 132q-44 71 -155 71h-25zM1280 909l428 523h219l-35 -5
q-24 -2 -61.5 -32t-54.5 -74l-217 -533q-13 -31 -10 -51.5t12 -32.5t23 -18t24.5 -7.5t15.5 -0.5h-330q11 0 35 4q26 6 62 35t53 71l184 459q31 72 19 72q-18 0 -58 -49l-512 -625l-76 645q-6 27 -30 -8q-9 -12 -21 -39l-174 -422q-12 -30 -13.5 -53.5t4 -38t17 -25.5
t22 -15.5t24.5 -7.5t19 -3h9h-274q7 0 17 1.5t34.5 9.5t46 21.5t46 42.5t40.5 68l186 455q15 50 16 80t-15 46.5t-29.5 22t-26.5 5.5l-6 2h227l64 -506q11 -63 28 -67.5t68 50.5z" />
    <glyph glyph-name="partialdiff" unicode="&#x2202;" horiz-adv-x="1214" 
d="M406 -20q-139 -10 -254 59q-62 40 -87 121.5t-2 195.5q41 214 203 377q164 164 377 211q136 21 217 13.5t113 -35.5q21 76 17 154t-28 145t-82.5 123.5t-146.5 89.5q189 -30 299 -158q206 -236 60 -709q-87 -247 -283 -413q-192 -162 -403 -174zM877 563q43 201 -13 307
t-211 54q-96 -27 -178 -129q-138 -168 -188 -396q-46 -207 9 -310t181 -85q137 21 244 186q110 170 156 373z" />
    <glyph glyph-name="emptyset" unicode="&#x2205;" horiz-adv-x="1124" 
d="M1010 920h43l-109 -107q54 -82 51 -199q-12 -278 -207 -473q-194 -191 -415 -151q-101 15 -160 98l-86 -86h-41l113 113q-78 152 -2 370q69 202 192 303q123 102 244 123q192 44 293 -75zM393 467q-29 -114 -37 -197l457 455q0 112 -49 155t-121 9q-73 -34 -139.5 -149
t-110.5 -273zM805 625q6 30 6 55l-459 -455q-9 -219 111 -219q105 -3 205 187q95 180 137 432z" />
    <glyph glyph-name="product" unicode="&#x220f;" horiz-adv-x="1384" 
d="M-256 -442l799 1976h1069l-797 -1972h-29l787 1945h-1012l-788 -1947z" />
    <glyph glyph-name="summation" unicode="&#x2211;" horiz-adv-x="1169" 
d="M721 -174h-928l12 33l959 901l-264 809l14 35h965l-15 -33h-923l272 -807l-967 -907h887z" />
    <glyph glyph-name="minus" unicode="&#x2212;" horiz-adv-x="978" 
d="M188 700l13 25h706l-12 -25h-707z" />
    <glyph glyph-name="radical" unicode="&#x221a;" horiz-adv-x="1153" 
d="M1393 1432l-1215 -1850l-20 697h-123l12 28h150l14 -629l1147 1756z" />
    <glyph glyph-name="infinity" unicode="&#x221e;" horiz-adv-x="1474" 
d="M774 729l105 102q181 169 383 154q74 -4 114 -43t43 -96t-18.5 -122.5t-65.5 -125.5q-64 -91 -158.5 -144.5t-203.5 -52.5q-174 3 -189 197q-65 -71 -190 -141q-127 -71 -246 -68q-71 1 -115 32t-57 79t-4.5 106t37.5 117q56 121 162 184q107 67 217 64q118 -3 155 -99
q18 -41 23.5 -69t7.5 -74zM848 666l-43 -45q1 -55 61.5 -87t151.5 -32q204 3 315 141q64 88 29 148q24 83 -70 104q-92 21 -196 -31q-97 -52 -144 -96q-18 -14 -51 -47zM377 514q194 6 377 195q-24 140 -209 149q-107 3 -201 -41q-97 -46 -135 -135q-32 -76 10 -124t158 -44
z" />
    <glyph glyph-name="integral" unicode="&#x222b;" horiz-adv-x="1236" 
d="M1343 1638q107 -6 146.5 -68.5t-0.5 -148.5q-19 -45 -58.5 -75.5t-80.5 -30.5q-37 0 -54.5 22t-9.5 58t41 73q55 66 49.5 111t-67.5 47q-91 1 -158.5 -67.5t-128.5 -219.5l-172 -424h2l-424 -1046q-64 -166 -235 -258q-169 -94 -324 -47q-71 23 -100.5 78t-4.5 116
q20 50 61 80.5t83 30.5q39 0 56 -22t10 -56.5t-33 -71.5q-45 -66 -32 -109.5t79 -43.5q74 -1 134 69t122 226l172 424h-2l409 1011q75 190 219 273q149 84 301 69z" />
    <glyph glyph-name="approxequal" unicode="&#x2248;" horiz-adv-x="802" 
d="M147 668q40 83 108.5 129t137.5 41q51 -6 115 -58q61 -50 108 -53q125 -9 183 98q-21 -70 -79.5 -117t-129.5 -46q-66 3 -129 57q-64 55 -131 55q-105 0 -183 -106zM82 502q40 83 108.5 129t137.5 41q52 -6 116 -58q61 -50 107 -53q121 -12 182 98q-21 -73 -78 -118.5
t-131 -44.5q-66 3 -129 57q-63 57 -131 57q-100 0 -182 -108z" />
    <glyph glyph-name="notequal" unicode="&#x2260;" horiz-adv-x="1187" 
d="M1167 872l-10 -24h-369l-307 -291h559l-10 -25h-575l-172 -163l-35 4l170 159h-285l8 25h303l310 291h-496l10 24h512l164 154l35 2l-164 -156h352z" />
    <glyph glyph-name="lessequal" unicode="&#x2264;" horiz-adv-x="991" 
d="M791 428l-594 291l835 309v-22l-778 -289l537 -264v-25zM72 332l-9 -19h707l8 19h-706z" />
    <glyph glyph-name="greaterequal" unicode="&#x2265;" horiz-adv-x="1024" 
d="M373 1010l594 -291l-836 -309v22l778 289l-536 264v25zM811 332l-10 -19h-707l10 19h707z" />
    <glyph glyph-name="NULL" horiz-adv-x="0" 
 />
    <glyph glyph-name="CR" horiz-adv-x="681" 
 />
    <glyph glyph-name="zero.osf" horiz-adv-x="1183" 
d="M391 -8q-37 -2 -73 0t-77.5 11t-75 27t-65.5 46t-48 68.5t-22.5 95t9.5 125.5q40 204 207 368q165 165 383 215q256 56 379 -55q124 -106 47 -363q-71 -225 -262 -376q-187 -150 -402 -162zM854 567q47 194 -12 305q-56 112 -213 56q-89 -27 -166 -119
q-142 -165 -195 -414q-50 -218 15 -307t176 -72q138 27 246 191q104 158 149 360z" />
    <glyph glyph-name="one.osf" horiz-adv-x="751" 
d="M215 786l428 218l-135 -330l-45 -115l-101 -248l-67 -166q-9 -23 -11.5 -43t1.5 -33.5t11 -25t19 -18t22.5 -11.5t24.5 -7.5t22.5 -4t17.5 -2t10 -0.5h-533q34 0 92 16q40 13 75.5 47.5t55.5 83.5l142 351l55 135q53 124 29 161t-113 -8z" />
    <glyph glyph-name="two.osf" horiz-adv-x="958" 
d="M621 958q69 10 119.5 -2t76.5 -39.5t37 -65t6.5 -76.5t-20.5 -77q-27 -85 -140 -186q-22 -22 -75 -63l-82 -62l-103 -74l-112 -80q-110 -75 -101 -90q3 -2 3.5 -5t4 -4.5t13.5 -2.5q20 0 22 -2h70h336l-340 -352q87 101 108 151q17 39 -19.5 55.5t-129.5 16.5h-416
q225 98 469 268q144 102 223.5 194t114.5 202q30 97 -19 147.5t-151 36.5q-67 -9 -143 -49q-86 -45 -117 -72l-41 -33q16 23 82 84q153 149 324 180z" />
    <glyph glyph-name="three.osf" horiz-adv-x="1144" 
d="M662 942q178 9 241 -88q65 -96 25 -215q-35 -108 -115.5 -192t-185.5 -134q118 -45 151.5 -158t-30.5 -278q-101 -232 -316 -342q-212 -108 -432 -47q-113 31 -165 132.5t-44 244.5q15 -96 78 -176q66 -84 184 -99q133 -21 269 52q133 69 204 215q74 158 4 278
q-68 120 -231 96l-23 -4l23 9q89 29 205 100q71 43 133 108t96 138q47 95 12 178q-35 87 -139 96q-175 21 -387 -143q220 217 443 229z" />
    <glyph glyph-name="four.osf" horiz-adv-x="1304" 
d="M1126 164l-227 -162h-205l-96 -240l-276 -206l180 446h-654l1311 1143l-397 -981h364zM141 162h426l238 561q28 68 3 68h-5q-25 -4 -70 -43l-586 -515q-61 -68 -6 -71z" />
    <glyph glyph-name="five.osf" horiz-adv-x="1114" 
d="M465 639l-125 -201q-28 -48 -23 -53q3 -3 31 6q109 62 193 84q78 20 178 23q184 3 272 -113q88 -113 8 -311q-75 -190 -321 -348q-137 -88 -350 -168q-216 -81 -357 -115l-143 -35q331 103 590 268q264 165 346 361q52 105 17.5 192t-144.5 105q-55 12 -113.5 5
t-105.5 -19t-93 -33.5t-76.5 -40t-55.5 -37.5l-27 -19l461 754h673l-198 -174h-465q-45 0 -78 -20q-8 -5 -15 -9.5t-11.5 -8t-11 -11t-9.5 -10.5t-10 -14t-10 -15t-13 -20t-14 -23z" />
    <glyph glyph-name="six.osf" horiz-adv-x="1136" 
d="M655 1221q348 260 660 260q-263 -30 -531 -283q-163 -157 -270 -324q5 7 46 18t71 11q95 18 180 -3t142 -76.5t77.5 -143.5t-12.5 -205q-57 -213 -236 -360q-178 -143 -376 -146q-147 0 -259 84q-59 45 -83.5 129.5t-6.5 190.5q86 465 598 848zM469 -6q123 21 215 172
q93 147 131 344q35 195 -20 295q-56 103 -174 69q-89 -21 -166 -116q-126 -155 -174 -387q-41 -206 18 -301q61 -94 170 -76z" />
    <glyph glyph-name="seven.osf" horiz-adv-x="1052" 
d="M322 938h903q-266 -233 -543 -547q-174 -198 -262 -350q-44 -75 -70 -129l-67 -143q-23 -53 -62 -140q-53 -115 -147 -133q-70 -15 -90 35q-14 33 10 86q73 145 223 317q142 157 143 158q23 25 191 201q179 187 199 209q199 207 186 256q-9 30 -127 30h-33h-45h-151
q-186 0 -287 -38q-110 -38 -203 -156z" />
    <glyph glyph-name="eight.osf" horiz-adv-x="1150" 
d="M883 756q38 -27 67.5 -68.5t48.5 -97.5t11 -130t-47 -151q-89 -185 -299 -274t-426 -43q-156 30 -209.5 136.5t16.5 266.5q62 126 172.5 200.5t302.5 141.5q-24 13 -49 37.5t-49 65t-36.5 87t-5.5 109t38 125.5q76 163 241 240q163 76 328 61q146 -9 205 -108
q60 -101 2 -234q-59 -136 -199 -209q-100 -53 -211 -88q1 -1 15.5 -10.5t39 -26t44.5 -30.5zM586 1178q-56 -206 184 -347q107 73 166 136.5t100 150.5q24 53 32.5 108.5t-0.5 104t-44 80.5t-92 35q-122 9 -217 -74q-94 -79 -129 -194zM539 725q-226 -137 -303 -332
q-24 -64 -30.5 -126.5t6.5 -117.5t56 -93t111 -46q193 -24 311 109t115 291q7 88 -76 180q-12 18 -45 42.5t-53 35.5q-24 18 -51 32q-11 7 -21.5 13.5t-14.5 9t-5 2.5z" />
    <glyph glyph-name="nine.osf" horiz-adv-x="1101" 
d="M365 -328q-92 -67 -194.5 -120.5t-178.5 -79.5q-74 -25 -139 -39q-91 -17 -140 -17q245 27 529 281q159 144 268 319q-5 -6 -42.5 -14t-70.5 -8q-212 -30 -329 90q-118 121 -56 346q56 215 232 354q182 141 379 144q155 0 266 -97q109 -95 72 -299q-83 -476 -596 -860z
M559 903q-120 -21 -215 -172q-93 -148 -131 -342q-35 -191 20 -297q58 -103 177 -69q88 21 163 114q125 156 172 389q41 209 -18 301q-58 91 -168 76z" />
    <glyph glyph-name="ampersand.001" horiz-adv-x="1730" 
d="M1616 993q53 0 86 -22.5t33 -63.5q0 -27 -16 -45t-42 -18q-37 0 -71 37t-84 37q-61 0 -131 -41q-36 -23 -115 -113q-15 -17 -55 -78l-52 -82l-57 -92l-55 -94q98 -137 143 -244q74 -171 74 -324q0 -243 -154 -432q-86 -105 -183.5 -152.5t-234.5 -47.5q-48 0 -88 4
q-60 6 -112 33t-86 64t-54.5 69.5t-29.5 58.5l-10 23q1 -1 4.5 -8t7 -12.5t12.5 -17.5t23 -26q113 -121 286 -121q246 0 396 193q151 195 151 450q0 210 -162 463q-158 -261 -215 -330q-150 -187 -344 -196h-24q-144 0 -254 90q-107 88 -107 254q0 69 27 137q30 68 66.5 118
t103.5 111q77 67 119 99l135 98q78 54 129 92q-152 190 -152 340q0 130 80 219q79 88 199 88q100 0 161 -58.5t62 -162.5q1 -92 -52.5 -174t-162.5 -178q-7 -6 -21.5 -17t-40 -30.5t-47.5 -36.5l285 -344q10 -11 60 -78l61 100l68 109l55 90q82 125 147 174q104 88 238 88z
M555 1204q0 -85 27.5 -158t103.5 -174l72 58q109 93 155 174t45 180q-1 69 -46 116t-113 52q-92 6 -168 -70q-76 -73 -76 -178zM500 -59q162 0 297 147q66 68 118 143q62 89 115 177q-12 22 -49 73q-58 86 -133 174q-32 42 -74 88l-84 103q-142 -103 -188 -139
q-158 -124 -232.5 -232t-74.5 -237t81.5 -213t223.5 -84z" />
    </font>
</defs>
</svg>
