<?xml version="1.0" standalone="no"?>
<!DOCTYPE svg PUBLIC "-//W3C//DTD SVG 1.1//EN" "http://www.w3.org/Graphics/SVG/1.1/DTD/svg11.dtd" >
<svg xmlns="http://www.w3.org/2000/svg" xmlns:xlink="http://www.w3.org/1999/xlink" version="1.1">
<metadata>
Created by FontForge 20170731 at Wed Jun 22 17:24:05 2022
 By Aleksey,,,
Copyright (c) 2017 by Rakel Tomas. All rights reserved.
</metadata>
<defs>
<font id="SilkSerif-Bold" horiz-adv-x="1120" >
  <font-face 
    font-family="Silk Serif"
    font-weight="700"
    font-stretch="normal"
    units-per-em="2048"
    panose-1="0 0 8 0 0 0 0 0 0 0"
    ascent="1522"
    descent="-526"
    x-height="920"
    cap-height="1434"
    bbox="-244 -1253 2388 1920.18"
    underline-thickness="102"
    underline-position="-307"
    unicode-range="U+0020-2265"
  />
<missing-glyph horiz-adv-x="937" 
d="M174 1434h594v-1874h-594v1874zM625 1247v62h-310v-62h121v-69h-123v-64h312v64h-125v69h125zM500 936v131h-187v-195h312v64h-125zM375 1004h61v-68h-61v68zM625 760v61h-312v-61h123v-70h-123v-61h187v131h125zM625 520v189h-62v-123h-250v-66h312zM625 268v211h-189
v-104h64v43h63v-88h-188v149h-62v-211h312zM625 -55v211h-312v-211h312zM375 94h188v-88h-188v88zM625 -162v64h-312v-64h131l-131 -88v-61h312v61h-193l131 88h62z" />
    <glyph glyph-name=".notdef" horiz-adv-x="937" 
d="M174 1434h594v-1874h-594v1874zM625 1247v62h-310v-62h121v-69h-123v-64h312v64h-125v69h125zM500 936v131h-187v-195h312v64h-125zM375 1004h61v-68h-61v68zM625 760v61h-312v-61h123v-70h-123v-61h187v131h125zM625 520v189h-62v-123h-250v-66h312zM625 268v211h-189
v-104h64v43h63v-88h-188v149h-62v-211h312zM625 -55v211h-312v-211h312zM375 94h188v-88h-188v88zM625 -162v64h-312v-64h131l-131 -88v-61h312v61h-193l131 88h62z" />
    <glyph glyph-name=".null" horiz-adv-x="0" 
 />
    <glyph glyph-name="nonmarkingreturn" horiz-adv-x="682" 
 />
    <glyph glyph-name="space" unicode=" " horiz-adv-x="552" 
 />
    <glyph glyph-name="exclam" unicode="!" horiz-adv-x="559" 
d="M274 322q0 131 -32 288q-46 228 -66 303q-33 144 -49 258q-36 263 149 263q74 0 113 -37.5t43.5 -103t-6.5 -152.5q-5 -40 -16 -94.5t-20 -92.5t-27.5 -112t-24.5 -101q-64 -258 -64 -419zM274 322v-5v5zM270 258q54 0 92.5 -39.5t38.5 -93.5t-38.5 -93.5t-92.5 -39.5
q-57 0 -96 38.5t-39 94.5t39 94.5t96 38.5z" />
    <glyph glyph-name="quotedbl" unicode="&#x22;" horiz-adv-x="559" 
d="M270 1380l-73 -401l-78 401q-11 51 9 84t62 33q47 1 69 -32t11 -85zM483 1380l-75 -401l-78 401q-11 50 9.5 83.5t61.5 33.5q49 1 71 -32t11 -85z" />
    <glyph glyph-name="numbersign" unicode="#" horiz-adv-x="1306" 
d="M1188 864v-26h-295l-119 -316h281v-28h-291l-186 -494h-39l188 494h-334l-186 -494h-41l188 494h-346v28h357l118 314h-362v30h375l178 471h37l-179 -471l334 -2l181 473h34l-178 -473h285zM403 522h334l119 316l-334 -2z" />
    <glyph glyph-name="dollar" unicode="$" horiz-adv-x="1150" 
d="M643 1417v-540q223 -52 313 -189q89 -135 68 -297q-18 -146 -129 -248t-252 -129v-151h-20v725l-84 18q-40 8 -41 8v-751h-21v147h-4q-135 12 -242 76q-179 105 -170 299q3 90 41 156q41 71 121 71q78 0 105 -65q28 -67 2 -117q-14 -29 -60 -65q-41 -35 -47 -78
q-17 -83 24.5 -150t131.5 -96q37 -13 98 -16v596q-182 49 -271.5 174.5t-76.5 281.5q12 131 111 226q98 94 237 124v105h21v-623q45 -15 100 -24q3 0 12.5 -2t12.5 -2v651h20v-94q310 -27 365 -281q21 -92 -14 -159.5t-109 -67.5q-65 0 -106 40.5t-36 92.5q3 46 43 92
q44 47 41 98q-3 103 -110 146q-30 12 -74 18zM373 1372q-40 -24 -68.5 -67.5t-36 -97t6.5 -107t66 -104t136 -81.5v498q-54 -15 -104 -41zM903 305q5 102 -55.5 169.5t-204.5 107.5v-551q115 21 185.5 93.5t74.5 180.5z" />
    <glyph glyph-name="percent" unicode="%" horiz-adv-x="1396" 
d="M426 870q-31 -1 -62 2.5t-70 17.5t-70.5 37.5t-58 67t-38.5 101.5q-25 123 34.5 220t178.5 128q144 33 242.5 -33t111.5 -215q13 -135 -63 -226.5t-205 -99.5zM551 1221q-27 123 -83 180.5t-124 25.5q-42 -24 -62 -81.5t-19 -118t16 -115.5q24 -127 76.5 -183t113.5 -38
q71 15 92 115q20 99 -10 215zM236 0h-39l940 1436h34zM1004 0q-31 -1 -62 2.5t-70 17t-70.5 37t-58 67t-38.5 101.5q-25 123 34.5 220t178.5 128q144 33 242.5 -32.5t111.5 -214.5q13 -135 -63 -226.5t-205 -99.5zM1128 350q-27 124 -82.5 181.5t-123.5 25.5
q-61 -34 -76 -139q-14 -101 8 -176q25 -127 78.5 -183.5t114.5 -38.5q71 15 92 115q20 94 -11 215z" />
    <glyph glyph-name="ampersand" unicode="&#x26;" horiz-adv-x="1513" 
d="M1319 113q121 3 151 123q-6 -101 -73 -183q-68 -83 -185 -86q-102 -2 -174 36.5t-149 152.5l-43 63q-98 -130 -185.5 -191t-203.5 -67q-171 -9 -283 86q-110 94 -104 268q2 60 36 160q4 10 11.5 21.5t15 21t19 22t18 19l18 18l13.5 13.5q16 19 65 49q27 19 64 41l76 43
l71 41l-28 43q-4 7 -29 42t-29 42q-3 5 -22.5 36t-24.5 40q-1 4 -15 34t-18 43q-16 74 -16 132q6 152 117 225q112 74 254 74q118 0 219 -66q99 -62 108 -201q12 -207 -168 -301q-22 -14 -116 -55l280 -406l80 109q204 282 -84 365h494q-54 0 -136 -58q-49 -34 -94 -88
q-43 -55 -110 -156q-48 -70 -115 -159l-23 -29l123 -178q55 -79 97 -109.5t98 -29.5zM655 1460q-92 1 -127 -62.5t-12 -185.5q10 -58 35 -112q18 -39 49 -90l86 -125l12 -19l31 31q101 110 92 338q-5 94 -50 159t-116 66zM518 170q175 -12 301 90l-325 481
q-183 -151 -183 -335q0 -97 55 -163t152 -73z" />
    <glyph glyph-name="quotesingle" unicode="'" horiz-adv-x="376" 
d="M266 1380l-76 -401l-77 401q-11 50 9.5 83.5t61.5 33.5q48 1 69 -31.5t13 -85.5z" />
    <glyph glyph-name="parenleft" unicode="(" horiz-adv-x="518" 
d="M412 -221l45 -101q-53 29 -144 164q-51 74 -100 174q-48 106 -79.5 250.5t-31.5 290.5q0 156 33 306t84 255q45 93 100.5 172.5t91 115.5t42.5 32q-36 -71 -62 -144q-36 -98 -53 -176q-26 -101 -44 -254t-18 -307q0 -246 46 -461q49 -230 90 -317z" />
    <glyph glyph-name="parenright" unicode=")" horiz-adv-x="538" 
d="M41 -322l45 101q41 87 90 317q45 210 45 461q0 155 -18 308t-43 253q-16 71 -54 176q-29 80 -61 144q6 4 42 -32t91 -115.5t98 -172.5q52 -104 85.5 -253.5t33.5 -307.5q0 -148 -31.5 -293t-80.5 -248q-52 -105 -99 -174q-92 -135 -143 -164z" />
    <glyph glyph-name="asterisk" unicode="*" horiz-adv-x="747" 
d="M555 1196l-178 -20h-2l147 -117q59 -53 23 -92q-25 -18 -51 -6.5t-45 47.5l-74 166l-82 -168q-19 -30 -45 -40t-45 7q-19 21 -10.5 47.5t40.5 52.5l142 103l-185 26q-36 4 -55 26t-8 46q12 26 43 25.5t61 -25.5l144 -98l-49 176q-6 35 6 58.5t37 23.5q28 1 40 -23.5
t7 -67.5l-41 -167l2 2l149 100q32 20 56.5 17.5t35.5 -25.5q10 -29 -8 -49t-55 -25z" />
    <glyph glyph-name="plus" unicode="+" 
d="M580 719h417v-27h-417v-436h-29v436h-428v27h428v411h29v-411z" />
    <glyph glyph-name="comma" unicode="," horiz-adv-x="468" 
d="M360 168q43 -113 -4 -281q-46 -169 -172 -254q67 58 109 177q40 111 18 213q-28 -22 -67 -25q-55 -6 -97.5 28.5t-48.5 90.5q-6 55 28.5 97.5t88.5 47.5q51 6 91 -20.5t54 -73.5z" />
    <glyph glyph-name="hyphen" unicode="-" horiz-adv-x="966" 
d="M123 553v27h721v-27h-721z" />
    <glyph glyph-name="period" unicode="." horiz-adv-x="509" 
d="M360 31q-37 -38 -92.5 -38t-93.5 38q-38 41 -38 94.5t38 91.5q38 41 93.5 41t92.5 -39q38 -38 38 -94t-38 -94z" />
    <glyph glyph-name="slash" unicode="/" horiz-adv-x="815" 
d="M74 0h-31l551 1436h31z" />
    <glyph glyph-name="zero" unicode="0" horiz-adv-x="1290" 
d="M672 1423q133 1 233.5 -61t157.5 -174q104 -204 104 -496q1 -133 -36.5 -262t-104.5 -229.5t-167 -161.5t-214 -59q-138 0 -245.5 67t-166.5 180q-113 223 -110 488q3 308 151 506q150 199 398 202zM895 702q-37 313 -118.5 501.5t-182.5 185.5q-117 0 -164 -191
q-43 -184 -8 -485q35 -311 115 -498q82 -192 190 -195q83 -3 129 103q30 69 41.5 169t9.5 192.5t-12 217.5z" />
    <glyph glyph-name="one" unicode="1" horiz-adv-x="843" 
d="M573 993v-774q0 -57 20 -103t48 -69q41 -29 81 -39t60 -8h-661q36 0 72 14q114 41 114 205v658q-3 128 0 245q2 89 -32.5 122.5t-102.5 4.5l403 230q0 -85 -1 -215t-1 -156v-115z" />
    <glyph glyph-name="two" unicode="2" horiz-adv-x="1122" 
d="M561 178h57q329 0 412 195l-137 -373h-870l81 57q58 41 185 154q138 122 231 235q219 269 185 558q-15 116 -107 184q-87 66 -209 51q-80 -11 -157 -51t-113 -80l-33 -35q18 49 61 115q38 59 80 104q46 51 119 91.5t148 50.5q208 24 329 -97t121 -278q0 -81 -36 -168.5
t-83 -145.5q-35 -45 -155 -178q-137 -152 -176 -198q-82 -96 -86 -152q-3 -20 22 -29q35 -10 109 -10h22zM1030 373l10 26q-7 -21 -10 -26z" />
    <glyph glyph-name="three" unicode="3" horiz-adv-x="1208" 
d="M801 844q295 -90 286 -416q-6 -158 -102 -274q-61 -73 -145.5 -113.5t-179.5 -45.5t-203 15q-121 30 -208.5 131t-125.5 242q48 -100 142.5 -170t223.5 -80q131 -9 220 68t98 207q9 138 -82 239q-89 103 -225 94l-82 -16q288 143 315 377q11 88 -33 153.5t-133 83.5
q-93 22 -184 -10.5t-162 -105.5q149 214 377 223q168 9 264 -84q99 -88 99 -207q0 -205 -160 -311z" />
    <glyph glyph-name="four" unicode="4" horiz-adv-x="1277" 
d="M1335 541l-213 -211h-194v-207l-244 -285v492h-602l846 1143v-932h407zM332 539h350v405q0 68 -26.5 76t-69.5 -47l-273 -373q-37 -55 19 -61z" />
    <glyph glyph-name="five" unicode="5" horiz-adv-x="1128" 
d="M248 1071l-31 -139q-6 -35 0 -41q5 -5 23 4q83 60 154 81t177 23q185 3 308 -108q127 -115 127 -309q0 -172 -172 -344q-100 -100 -275 -181q-170 -78 -309 -118l-129 -35q257 85 426 260q171 177 174 354q3 204 -164 262q-53 17 -107.5 17t-97.5 -12t-83 -32.5t-65 -39
t-44 -37.5l-23 -23l162 783h688l-174 -228h-446q-37 0 -57.5 -8.5t-33.5 -32.5q-17 -35 -28 -96z" />
    <glyph glyph-name="six" unicode="6" horiz-adv-x="1214" 
d="M399 1225q237 252 545 252q-215 -21 -356 -252q-92 -149 -121 -324l14 4q15 6 17 6q146 30 270 4q130 -27 217.5 -133.5t104.5 -267.5q21 -221 -111 -377q-133 -154 -332 -157q-143 0 -282 63q-80 38 -139 119t-83 194q-31 141 -6 363q18 124 85 255.5t177 250.5zM711 8
q93 28 114 201q21 178 -18 354q-41 192 -129 283q-88 93 -170 35q-58 -39 -78 -138q-40 -170 6 -395q13 -63 31 -116t37.5 -89.5t42 -65t44 -43t43.5 -24t41 -8t36 5.5z" />
    <glyph glyph-name="seven" unicode="7" horiz-adv-x="1107" 
d="M231 1438h914q-183 -233 -332 -547q-111 -240 -121 -402q-3 -43 -4 -95.5t-1 -123t-1 -108.5q-6 -128 -100 -158q-75 -27 -135 33q-43 43 -37 113q9 113 65 231q57 117 172 303q127 203 185 317q31 57 46.5 97.5t10 66t-15 39.5t-44.5 20.5t-60 7.5t-81 1h-2h-47h-80
q-188 0 -290.5 -43.5t-151.5 -157.5z" />
    <glyph glyph-name="eight" unicode="8" horiz-adv-x="1196" 
d="M717 836l114 -62q113 -60 185 -174q74 -114 53 -276q-27 -179 -201 -267q-170 -87 -385 -63q-181 21 -276 120t-82 261q10 123 83 199t224 143q-48 22 -108 76q-54 51 -101 151q-42 97 -26 209q24 157 157 240q132 85 293 73q157 -7 249.5 -99t92.5 -234
q0 -212 -272 -297zM414 1171q14 -103 80.5 -179t207.5 -148q91 139 97 291q3 50 -7.5 102t-34 99t-67.5 78t-100 34q-49 2 -86 -18t-54 -52.5t-28.5 -71.5t-10 -74t2.5 -61zM449 709q-87 -118 -84 -336q6 -135 71 -244q67 -107 199 -113q88 -4 140.5 38t60.5 112
q15 140 -27 256q-21 56 -70 109t-90 77q-45 28 -114 60q-23 12 -43.5 21.5t-31.5 14.5z" />
    <glyph glyph-name="nine" unicode="9" horiz-adv-x="1210" 
d="M813 231q-236 -254 -545 -254q214 24 357 254q88 141 123 326q-24 -12 -33 -12q-148 -31 -273 -4q-127 27 -214.5 133.5t-104.5 267.5q-21 223 110 375q133 157 332 160q143 0 283 -66q80 -36 138.5 -117t82.5 -194q99 -490 -256 -869zM502 1448q-62 -21 -92 -108.5
t-29.5 -203t25.5 -243.5q42 -193 126 -283q89 -95 173 -35q56 38 77 138q39 169 -6 395q-13 63 -31 116t-37.5 89.5t-42 65t-44 43t-43 24t-40.5 8t-36 -5.5z" />
    <glyph glyph-name="colon" unicode=":" horiz-adv-x="512" 
d="M270 672q-55 0 -95 39.5t-40 93.5q0 56 39 94.5t96 38.5q54 0 92.5 -39.5t38.5 -93.5t-38.5 -93.5t-92.5 -39.5zM270 -8q-57 0 -96 38.5t-39 94.5t39 94.5t96 38.5q54 0 92.5 -39.5t38.5 -93.5t-38.5 -93.5t-92.5 -39.5z" />
    <glyph glyph-name="semicolon" unicode=";" horiz-adv-x="512" 
d="M424 807q0 -55 -38 -94t-93 -39t-94 39.5t-39 93.5t39 93.5t94 39.5t93 -38.5t38 -94.5zM367 244q62 -33 77 -152q15 -116 -38 -252q-54 -138 -156 -207q67 58 106 177q40 113 19 213q-28 -22 -68 -25q-55 -6 -96 28.5t-47 90.5t28 98.5t89 46.5q46 6 86 -18z" />
    <glyph glyph-name="less" unicode="&#x3c;" horiz-adv-x="952" 
d="M117 588l710 291v-27l-645 -264l645 -281v-28z" />
    <glyph glyph-name="equal" unicode="=" horiz-adv-x="1214" 
d="M123 834v28h971v-28h-971zM123 524v29h971v-29h-971z" />
    <glyph glyph-name="greater" unicode="&#x3e;" horiz-adv-x="956" 
d="M123 879l711 -291l-711 -309v28l645 281l-645 264v27z" />
    <glyph glyph-name="question" unicode="?" horiz-adv-x="1028" 
d="M498 297q-22 121 -1 246t66 215q42 87 78 186q39 101 39 189q2 134 -49 210.5t-144 77.5q-87 2 -146 -46.5t-58 -135.5q3 -35 43 -84q44 -47 47 -78q8 -61 -26.5 -106t-90.5 -45q-55 0 -94.5 45t-40.5 116q-9 132 94 238q104 104 274 113q189 8 302 -77.5t114 -248.5
q0 -24 -5 -50.5t-10.5 -48t-19.5 -50.5t-23 -47t-30.5 -49.5t-30.5 -45.5t-36 -48t-35 -44.5t-38 -46.5t-36 -43q-64 -78 -103.5 -168t-39.5 -174zM498 -8q54 0 92.5 39.5t38.5 93.5t-38.5 93.5t-92.5 39.5q-55 0 -95.5 -39.5t-40.5 -93.5t40.5 -93.5t95.5 -39.5z" />
    <glyph glyph-name="at" unicode="@" horiz-adv-x="1435" 
d="M874 145q-72 -5 -102 37t0 119l135 363q45 117 33 172q-6 31 -27.5 52t-52.5 21q-52 0 -119 -57.5t-116 -146.5q-74 -136 -74 -256q0 -104 61 -125q62 -19 113.5 15.5t71.5 78.5l8 14q3 0 -4 -16.5t-25 -53.5q-37 -72 -102 -137q-66 -69 -146 -69q-71 0 -109 48.5
t-38 131.5q0 127 72 268q176 335 432 320q74 -3 129 -64l98 29l-182 -533q-10 -19 -18 -42t-12.5 -49t6 -43t36.5 -17q127 9 221 135q94 128 94 322q0 164 -129 290q-130 130 -321 127q-190 -3 -322 -100q-128 -93 -188.5 -225.5t-60.5 -288.5q0 -218 124 -342
q125 -125 332 -125q404 0 592 250q-106 -171 -270 -272.5t-377 -102.5q-267 -3 -420 164q-151 171 -151 401q0 327 210 543q214 220 535 223q238 3 395 -139q163 -141 154 -375q-4 -127 -54 -235.5t-128 -173.5q-155 -133 -304 -136z" />
    <glyph glyph-name="A" unicode="A" horiz-adv-x="1347" 
d="M653 1532l588 -1352q34 -75 92 -121q38 -27 71 -40.5t51 -16t44 -2.5h-805l7 2q7 1 20.5 4.5t29 9.5t32.5 16t32 22t26.5 30.5t17.5 40t3 50t-16 61.5l-125 317l-461 2l-119 -291q-42 -100 2 -178.5t154 -85.5h-475q76 5 151.5 70.5t118.5 171.5l555 1308zM502 1059
q-36 0 -119 -207l-111 -270h437l-121 317l-19 47q-49 107 -67 113zM1507 0h-8h8z" />
    <glyph glyph-name="B" unicode="B" horiz-adv-x="1505" 
d="M1004 745q50 0 97.5 -7.5t104.5 -31.5t99 -62.5t70 -108.5t28 -162q-3 -375 -498 -375l-882 2q41 0 96 16q153 52 153 230v948q-1 63 -26.5 112.5t-61.5 75.5q-43 26 -75 35q-52 17 -86 17l831 4q451 0 451 -351q0 -150 -81.5 -240t-219.5 -102zM594 1417v-665
q175 0 231 20q163 52 160 318q-1 185 -90 259t-301 68zM801 18q103 0 182 91q78 93 78 241q-2 129 -33.5 210t-80.5 115t-122 44t-231 4v-479q0 -226 207 -226z" />
    <glyph glyph-name="C" unicode="C" horiz-adv-x="1554" 
d="M428 756q38 -266 203 -424q170 -159 393 -162q273 -6 401 211l11 25q-4 -37 -47 -125q-26 -60 -72 -115q-45 -55 -125.5 -105.5t-173.5 -72.5q-184 -40 -355.5 1.5t-291.5 147.5q-117 104 -185.5 245.5t-72.5 293.5q-6 235 94 407t258.5 263.5t359.5 105.5
q180 12 351 -33q123 -34 180 -71l20 -15l-4 -403q-126 253 -332 403q-207 154 -417 41q-122 -64 -174 -239q-52 -172 -21 -379z" />
    <glyph glyph-name="D" unicode="D" horiz-adv-x="1626" 
d="M1503 745q0 -232 -94 -401q-178 -328 -580 -344h-92h-753q52 0 131 29q52 19 84 71t32 125v983q0 73 -32 125.5t-84 71.5q-79 29 -131 29h745q774 21 774 -689zM834 27q152 19 237.5 209.5t81.5 523.5q-6 620 -434 647q-14 2 -72 2q-55 0 -69 -2v-1155q0 -227 165 -227
q85 0 91 2z" />
    <glyph glyph-name="E" unicode="E" horiz-adv-x="1503" 
d="M1137 168q89 68 161.5 142t100.5 116l22 37l-92 -463h-1311q45 0 121 35q47 21 77 73t30 123v986q0 72 -29 121t-78 67q-73 29 -121 29h1254l69 -437q-72 132 -294 289q-101 72 -197 98.5t-234 26.5h-45v-655h37q65 1 120.5 21t91 47.5t65 64.5t43.5 64.5t24 54.5l9 28
v-606q-4 30 -41 102q-25 49 -64 91t-106.5 73t-141.5 31h-37v-485q0 -224 187 -224h24q75 0 173.5 43t181.5 107z" />
    <glyph glyph-name="F" unicode="F" horiz-adv-x="1458" 
d="M59 1434h1235l82 -451q-18 58 -104 147q-81 87 -158 144q-189 137 -436 137h-84v-141v-115v-401h78q65 2 121.5 21t93.5 46.5t66 61.5t43.5 61t21.5 51l8 27v-573q-4 30 -41 96q-35 74 -114 126t-199 56h-78v-520q0 -65 26.5 -110.5t69.5 -65.5q71 -31 115 -31h-746
q47 0 111 29q44 19 71 66t27 112v37v106v840v35q0 70 -27 117t-71 65q-65 27 -111 27z" />
    <glyph glyph-name="G" unicode="G" horiz-adv-x="1593" 
d="M922 598h622q-6 0 -16 -1.5t-36 -13.5t-45.5 -31t-35.5 -60.5t-16 -96.5v-432q-21 64 -88 137q-64 73 -95 80q-195 -213 -444 -213q-312 0 -500 215q-186 216 -186 543q0 160 53.5 292.5t143.5 215.5q89 80 200 131q208 92 441 82q270 -12 434 -107v-430
q-49 107 -135 224q-89 120 -197 194q-185 132 -369 62q-142 -52 -204 -234q-59 -184 -25 -436q41 -300 182 -481q143 -184 305 -193q69 -3 127 27q43 25 72 67q17 26 33 88q8 33 8 86v72v10q0 44 -16 80t-39 57t-53.5 35.5t-53 20.5t-43.5 8z" />
    <glyph glyph-name="H" unicode="H" horiz-adv-x="1660" 
d="M1413 1188v-942q0 -63 19.5 -114.5t46.5 -78.5q40 -32 82 -43.5t63 -9.5h-743q37 0 80 16q126 53 126 230v481h-538v-481q0 -63 19 -114.5t46 -78.5q40 -32 82 -43.5t64 -9.5h-744q15 0 31 2t49.5 15.5t58 37t45.5 73.5t23 118v942q0 82 -27 138t-71 77q-63 31 -111 31
h746q-34 0 -84 -19q-52 -18 -89.5 -73.5t-37.5 -153.5v-432h538v432q0 82 -27 138t-71 77q-63 31 -110 31h745q-34 0 -84 -19q-52 -18 -89.5 -73.5t-37.5 -153.5z" />
    <glyph glyph-name="I" unicode="I" horiz-adv-x="888" 
d="M590 1188v-942q0 -63 21.5 -113.5t52.5 -77.5q71 -55 157 -55h-780q15 0 34 2.5t56 16t65 37.5t50 73.5t22 116.5v942q0 64 -21 114.5t-52 75.5q-29 26 -66 37q-52 19 -88 19h780q-51 0 -123 -31q-49 -21 -78.5 -77t-29.5 -138z" />
    <glyph glyph-name="J" unicode="J" horiz-adv-x="1134" 
d="M584 375v852q0 67 -24.5 114.5t-63.5 65.5q-60 27 -103 27h707q-43 0 -103 -27q-39 -18 -63.5 -65.5t-24.5 -114.5v-865q0 -90 -33 -162t-85 -112q-51 -39 -119 -59q-61 -21 -111.5 -27t-122.5 -6q-111 0 -250 57q-76 33 -124.5 108t-49.5 175q-2 67 41.5 120.5
t112.5 53.5q92 0 131.5 -70t9.5 -166q-30 -108 13 -181t131 -73q46 -7 73.5 22.5t40.5 74.5q8 18 11 76q4 70 4 81q2 18 2 101z" />
    <glyph glyph-name="K" unicode="K" horiz-adv-x="1437" 
d="M539 1227v-1020q0 -64 26.5 -110t69.5 -66q71 -31 115 -31h-746q45 0 113 31q43 20 69.5 66t26.5 110v1020q0 67 -27 114.5t-71 65.5q-65 27 -111 27h746q-46 0 -113 -27q-44 -18 -71 -65.5t-27 -114.5zM844 1427h14h-14zM889 758l323 -424q91 -119 179 -207t129 -111
l36 -20l-458 4l-168 215l-275 363q-19 25 -37.5 38.5t-30.5 15.5t-22.5 -1.5t-15 -7.5t-6.5 -7l440 527q58 77 46.5 138.5t-61 101.5t-110.5 44h551l-12 -2q-143 -40 -297 -194l-60 -62l-28 -34l-138 -164q-35 -38 -38 -86q0 -40 10 -62t43 -65z" />
    <glyph glyph-name="L" unicode="L" horiz-adv-x="1456" 
d="M743 18h19q161 0 366 175q210 179 267 317l-103 -510h-1288q39 0 88 18q60 22 99.5 81.5t39.5 166.5v922q0 82 -27 138t-71 77q-63 31 -110 31h743q-34 0 -84 -19q-52 -18 -89.5 -73.5t-37.5 -153.5v-928q0 -242 188 -242z" />
    <glyph glyph-name="M" unicode="M" horiz-adv-x="2164" 
d="M1878 1171v-905q0 -81 30 -140t77 -85q78 -41 122 -41h-804q44 0 122 41q47 26 77 85t30 140v701q0 154 -19 157q-14 2 -28.5 -20t-38.5 -84l-438 -1075l-594 1085q-75 148 -93 78q-3 -13 -4 -35v-24l-4 -709q0 -91 33 -161.5t80 -106.5q48 -33 100 -49q70 -23 117 -23
h-680q49 0 115 23q201 65 209 321v758q0 73 -23.5 132.5t-55 93.5t-73 58.5t-67 33t-48.5 12.5l-8 2h568l462 -844q73 -130 84 -139q29 -29 64 43q11 20 27 59l366 881h535q-6 0 -17.5 -1.5t-35 -7.5t-46.5 -16t-49 -30.5t-45.5 -47t-33 -68t-13.5 -92.5z" />
    <glyph glyph-name="N" unicode="N" horiz-adv-x="1632" 
d="M1311 621v499q0 78 -25.5 141.5t-62.5 94.5q-36 31 -82 49q-55 25 -115 29h600q-55 -4 -117 -27q-34 -14 -62 -35t-54 -54t-41 -84t-15 -114v-1177l-936 1108q-41 43 -62.5 28t-21.5 -80v-661q-1 -72 19.5 -130t49.5 -92t68.5 -59.5t67.5 -36t56 -16.5l30 -4h-610
q29 0 100 29q80 28 134.5 104t58.5 205v680q0 69 -11 128t-28.5 99.5t-41 73.5t-45.5 52t-46.5 33t-39 19.5t-26.5 8.5l-8 2h481l713 -852q34 -40 51 -37q21 3 21 76zM1337 -57v-2h-2z" />
    <glyph glyph-name="O" unicode="O" horiz-adv-x="1714" 
d="M889 1452q173 0 309.5 -62.5t216.5 -170.5q159 -212 156 -504q-2 -114 -32 -220.5t-91 -200.5t-147.5 -164t-209 -110t-266.5 -38q-172 1 -312.5 70.5t-225.5 183.5q-169 228 -160 495q3 320 217 522q217 202 545 199zM1188 764q-37 282 -164 483q-125 197 -297 170
q-136 -21 -201 -211q-62 -189 -22 -475q40 -282 162 -491q125 -208 284 -220q165 -15 224 187q61 200 14 557z" />
    <glyph glyph-name="P" unicode="P" horiz-adv-x="1374" 
d="M1200 1292q89 -115 74 -301q-15 -187 -121 -274q-92 -76 -211 -103q-120 -27 -346 -6q235 15 313 148q37 61 51.5 124.5t14.5 151.5q0 396 -334 393q-72 0 -84 -2v-1175q0 -82 30 -138t79 -77q77 -33 122 -33h-786q49 0 121 33q49 21 78.5 77t29.5 138v999q0 62 -27 105
t-71 57q-60 25 -110 25l323 8l295 8q225 5 354 -28.5t205 -129.5z" />
    <glyph glyph-name="Q" unicode="Q" horiz-adv-x="1708" 
d="M907 1452q173 0 310 -62.5t217 -170.5q158 -210 155 -504q-2 -114 -31.5 -220t-91 -200.5t-147.5 -164.5t-208.5 -110t-266.5 -38q-172 1 -313 70.5t-226 183.5q-169 228 -160 495q3 320 217 522q217 202 545 199zM1206 764q-37 282 -164 483q-125 197 -297 170
q-133 -21 -198 -211q-63 -193 -23 -475q41 -284 160 -491q125 -208 285 -220q164 -15 223 187q61 200 14 557zM590 -55q82 -3 155 -54q85 -61 148 -116q81 -68 145 -90q290 -95 410 102q-41 -119 -133.5 -194t-227.5 -74q-92 1 -177.5 38t-141.5 89q-146 136 -246 166
q-193 58 -354 -103q69 110 186 176q122 69 236 60z" />
    <glyph glyph-name="R" unicode="R" horiz-adv-x="1413" 
d="M1128 467l111 -207q32 -61 71 -110t75 -77.5t62.5 -44t47.5 -22.5l16 -6h-462q-81 118 -142 231l-157 295q-82 162 -193 162h-16l-4 -561q0 -54 34 -88q23 -19 46 -28t34.5 -10t36.5 -1h-686q46 0 111 27q44 18 71 65.5t27 114.5v1020q0 54 -21.5 96.5t-52.5 62.5
q-27 19 -60 31.5t-52.5 15.5t-22.5 1q106 0 299 8q218 9 332 6q212 -5 328.5 -32.5t181.5 -96.5q91 -91 88 -256q0 -165 -113 -266q-13 -12 -28 -23t-28 -19.5t-26.5 -16.5t-25 -14t-22.5 -11t-18.5 -7.5t-14 -5t-9.5 -2.5h-2q6 0 23 -10q23 -13 69.5 -73.5t91.5 -147.5z
M713 739q213 74 213 338q0 194 -96 278t-293 72l4 -714q98 0 172 26z" />
    <glyph glyph-name="S" unicode="S" horiz-adv-x="1361" 
d="M1137 1368l2 -387q-51 122 -205 264q-118 105 -238 154q-73 30 -134 28.5t-130 -32.5q-59 -35 -79 -97t-1 -137q25 -92 106.5 -148t241.5 -93q329 -77 454.5 -220.5t80.5 -384.5q-18 -99 -71.5 -171t-130 -111t-161.5 -56.5t-180 -15.5q-361 6 -586 150v483
q81 -173 236 -334q157 -160 328 -211q71 -21 137 -27t125 3.5t98 46t47 96.5q15 119 -86 213q-100 96 -381 172q-271 72 -379.5 199t-89.5 329q18 192 174 287q157 95 390 92q117 -3 225 -24q94 -18 157 -45z" />
    <glyph glyph-name="T" unicode="T" horiz-adv-x="1499" 
d="M115 1434h1245l65 -410q-109 165 -196 240q-169 141 -309 141h-13v-1139q0 -69 23 -124.5t57 -84.5q29 -23 72 -39q57 -18 98 -18h-825q41 0 96 18q64 22 108 81.5t44 166.5v1139h-19q-126 0 -313 -152q-43 -35 -98 -96q-57 -63 -84 -100l-31 -41z" />
    <glyph glyph-name="U" unicode="U" horiz-adv-x="1542" 
d="M1266 659v457q0 95 -30 165.5t-79 100.5q-73 49 -131 52h490q-12 -2 -22 -4t-34.5 -11t-44 -22t-44 -39.5t-40.5 -60t-27.5 -86t-11.5 -115.5v-463q0 -78 -2 -105q0 -31 -10 -116q-9 -76 -27 -129q-53 -157 -137 -220q-122 -94 -305 -94q-332 0 -463 168t-131 514v516
q0 69 -20.5 124.5t-49.5 82.5q-41 37 -83 49.5t-66 10.5h788q-42 0 -96 -19q-55 -23 -93 -82.5t-38 -165.5v-594q0 -269 98.5 -399.5t286.5 -118.5q171 12 246.5 156t75.5 448z" />
    <glyph glyph-name="V" unicode="V" horiz-adv-x="1511" 
d="M809 -51l-666 1300q-89 185 -313 185h934l-31 -4q-27 -3 -54 -12t-59 -26.5t-49.5 -43t-24.5 -63.5t15 -87q51 -119 266 -545q77 -151 125 -151q36 0 57 22t52 99l213 514q52 125 -14 209q-64 85 -216 88h541q-44 -13 -72 -26.5t-63 -41.5q-75 -59 -133 -197z" />
    <glyph glyph-name="W" unicode="W" horiz-adv-x="2271" 
d="M1851 1434h537q-44 -15 -59.5 -20.5t-40.5 -18t-52 -31.5q-78 -55 -131 -195l-479 -1269l-477 1005l-377 -1005q-632 1329 -639 1349q-83 185 -291 185h856h41h856q-3 0 -9 -1t-24 -5t-34.5 -9t-38 -14.5t-38.5 -22t-32 -30.5t-22 -39.5t-5 -51t15 -63.5
q72 -173 248 -545q71 -151 114 -151q30 0 48.5 22.5t50.5 96.5l198 516q47 125 -14.5 210.5t-200.5 86.5zM1012 621l123 317l-72 152q-21 46 -40 85t-27 55.5t-9 18.5q-76 174 -256 183q-13 -2 -28.5 -5t-40 -11.5t-46 -19.5t-41.5 -30t-30.5 -41.5t-10 -55.5t16.5 -71
q85 -200 248 -545q71 -151 114 -151q32 0 50.5 21.5t48.5 97.5z" />
    <glyph glyph-name="X" unicode="X" horiz-adv-x="1642" 
d="M1761 0h-909q71 0 139 55q81 65 -12 215l-41 56q-94 131 -107 149l-133 182l-235 -313q-78 -100 -70 -174t67.5 -117t153.5 -53h-698q282 59 485 326l277 360l-387 528q-87 112 -172.5 166t-147.5 54l858 -2q-59 -2 -101 -33t-49 -90.5t54 -145.5l189 -262l149 197
q41 52 61.5 104t18 100.5t-46.5 84t-127 45.5h627q-123 -7 -252.5 -94.5t-231.5 -223.5l-178 -240l313 -438q185 -251 281 -334q100 -87 225 -102z" />
    <glyph glyph-name="Y" unicode="Y" horiz-adv-x="1304" 
d="M979 1434h455q-180 -40 -304 -254l-223 -406q-41 -77 -41 -225v-322q0 -67 25 -118t65 -72q69 -34 115 -37h-731q47 0 111 35q40 21 65 70t25 114l2 273q0 150 -60 247l-284 467q-68 109 -149.5 168.5t-135.5 59.5l729 -2q-89 -2 -125 -71t10 -157l234 -399
q70 -125 143 12l199 357q58 103 24.5 175t-149.5 85z" />
    <glyph glyph-name="Z" unicode="Z" horiz-adv-x="1409" 
d="M543 20h18q114 1 217 48t250 153q88 65 160 137.5t94 112.5l23 35l-109 -508l-1214 2l811 1239q43 67 54 104.5t-3.5 51.5t-55.5 14h-30q-215 0 -443 -158q-71 -51 -142.5 -118.5t-106.5 -112.5l-33 -43l127 459l1126 -2l-797 -1229q-55 -75 -40 -130t94 -55z" />
    <glyph glyph-name="bracketleft" unicode="[" horiz-adv-x="659" 
d="M299 1432l395 -2l-266 -105v-1524l266 -100l-395 -4v1735z" />
    <glyph glyph-name="backslash" unicode="\" horiz-adv-x="813" 
d="M672 0h-33l-549 1436h31z" />
    <glyph glyph-name="bracketright" unicode="]" horiz-adv-x="520" 
d="M-37 1436l395 2v-1735l-395 4l268 100v1524z" />
    <glyph glyph-name="asciicircum" unicode="^" horiz-adv-x="843" 
d="M430 1262l291 -527l-293 461l-307 -440z" />
    <glyph glyph-name="underscore" unicode="_" horiz-adv-x="1056" 
d="M121 4v29h813v-29h-813z" />
    <glyph glyph-name="grave" unicode="`" horiz-adv-x="585" 
d="M92 1319l170 -268l-268 172q-35 23 -54.5 47.5t-21.5 44.5t3.5 35.5t17.5 25.5q17 21 42 22.5t54.5 -18.5t56.5 -61z" />
    <glyph glyph-name="a" unicode="a" 
d="M686 135v412q-178 -55 -252 -111q-73 -55 -76 -153q-2 -57 25.5 -103t77.5 -63q114 -30 215 63q-8 -10 -60 -71q-14 -16 -65 -64q-82 -76 -205 -76q-130 0 -188 76q-59 77 -56 168q3 107 101 180q48 35 112 60q79 34 134 47l159 45q10 3 35.5 8.5t42.5 11.5v115
q0 152 -48 220t-149 50q-31 -5 -50.5 -13.5t-37 -27t-27 -51.5t-12.5 -84q0 -21 17 -72t18 -67q3 -73 -63.5 -108t-132 -2.5t-60.5 122.5q3 129 119 213q120 84 240 105q46 9 96 10t103.5 -6.5t100 -29t83.5 -53.5t56.5 -84.5t16.5 -117.5v-465q0 -134 86 -121q25 1 48.5 25
t31.5 49l8 25q-14 -71 -55 -142q-53 -88 -182 -88q-92 0 -149.5 45.5t-57.5 122.5z" />
    <glyph glyph-name="b" unicode="b" horiz-adv-x="1163" 
d="M414 1479v-1033q0 -210 82 -335q81 -124 206 -109q156 21 109 506q-10 98 -40.5 177t-91 131t-140.5 48q-10 0 -20.5 -2t-19 -5.5t-17 -8.5t-14.5 -9.5t-12.5 -10t-10 -9l-7.5 -7.5l-4 -5l-2 -4q27 68 93 118.5t151 51.5q168 3 280 -127q116 -134 113 -367
q-3 -214 -123 -358q-120 -141 -313 -141q-150 0 -262 77q-36 24 -76 64l-10 12l-142 -166v1178q0 72 -36 99.5t-95 8.5z" />
    <glyph glyph-name="c" unicode="c" horiz-adv-x="1099" 
d="M326 467q25 -142 117.5 -227t232.5 -86q255 -6 338 188q-21 -158 -137 -274q-114 -114 -304 -111q-208 3 -346 135q-138 135 -141 361q-1 90 24 170.5t70.5 140t108 106t134.5 69.5t150 29.5t156 -14.5q113 -25 188.5 -97t81.5 -167q4 -71 -33.5 -111.5t-101.5 -35.5
q-66 1 -97.5 54.5t-12.5 123.5q58 227 -115 233q-168 3 -256 -143q-91 -151 -57 -344z" />
    <glyph glyph-name="d" unicode="d" horiz-adv-x="1165" 
d="M750 145q-11 -35 -52 -92q-26 -38 -75 -61.5t-115 -24.5q-181 -6 -303 125q-123 132 -129 350q-9 248 121 387q134 143 315 146q70 2 140.5 -15.5t105.5 -46.5v224q0 75 -40.5 104t-92.5 10l395 228v-1200q0 -59 34.5 -87.5t75.5 -21.5l37 6l-409 -229v491q0 218 -58 367
q-59 155 -170 158q-72 3 -118 -72q-71 -120 -52 -410q15 -146 74 -264q58 -116 156 -141q56 -12 100 11t60 58z" />
    <glyph glyph-name="e" unicode="e" horiz-adv-x="1103" 
d="M694 147q117 0 199.5 49t118.5 138q-18 -156 -138 -264q-120 -105 -303 -99q-220 9 -348 146q-128 140 -131 348q-3 297 225 436q73 43 167.5 62t168.5 8q160 -26 256 -140t92 -292h-663q0 -177 97.5 -283.5t258.5 -108.5zM485 911q-80 -56 -114 -166q-33 -103 -33 -192
q170 0 242 10q103 15 163 78q55 52 52 154t-74 143q-40 27 -108.5 20t-127.5 -47z" />
    <glyph glyph-name="f" unicode="f" horiz-adv-x="798" 
d="M778 1450q203 -59 203 -240q0 -49 -35.5 -87t-85.5 -38q-71 0 -105.5 61t-21.5 146q7 92 -20 132.5t-88 35.5q-40 0 -66 -31t-37 -86q-10 -68 -10 -114v-62v-131v-114h313l-18 -19h-295v-684q0 -57 20 -103t48 -69q41 -29 81 -39t60 -8h-680q37 0 78 14q129 41 129 205
v684h-107l-24 19h131v127q0 123 38.5 215t100.5 135q59 42 134.5 59.5t139 13.5t117.5 -22z" />
    <glyph glyph-name="g" unicode="g" horiz-adv-x="987" 
d="M993 1006q40 0 61 -24t13 -54q-8 -32 -38.5 -42t-80.5 9q-20 20 -39 28.5t-51.5 0.5t-73.5 -41q108 123 209 123zM573 168q339 -21 369 -227q27 -191 -104 -316q-75 -71 -187.5 -109t-226.5 -28q-186 13 -293.5 91t-107.5 192q0 79 36.5 133t71.5 71l12 9
q-35 -155 72 -234q110 -81 305 -108q131 -21 236 4q103 24 125 78q38 95 -66 157q-104 63 -264 60q-108 -1 -188 8t-142.5 29.5t-97 56.5t-41.5 88q-9 50 31 96q35 43 73.5 68t94.5 49l-11 4q-200 86 -194 309q3 208 250 297q86 30 194 27q111 -3 187 -43q109 -51 155 -174
q47 -124 0 -226q-33 -75 -88 -121.5t-151 -76.5q-169 -49 -322 -2q-47 -23 -55.5 -57.5t22.5 -63.5q24 -24 67.5 -32t126 -7.5t111.5 -1.5zM389 942q-65 -35 -74 -160q-9 -132 35 -258q48 -124 115.5 -167.5t126.5 -8.5q50 24 59 111q16 134 -33 299q-42 129 -104.5 173
t-124.5 11z" />
    <glyph glyph-name="h" unicode="h" horiz-adv-x="1241" 
d="M1087 545v-346q0 -52 16 -93.5t38 -62.5q49 -43 114 -43h-1271q37 0 77 12q127 43 127 187v934q0 47 -10 77.5t-21.5 43t-31.5 15.5t-27 2t-22 -5l379 213v-1280q0 -41 12 -75t30.5 -55.5t42.5 -36.5t44.5 -21.5t40.5 -8.5q45 -4 71 4q18 4 38 15t41.5 32.5t34.5 59.5
t11 86v198q0 259 -16 318q-9 42 -35 65q-43 46 -139 31q-98 -16 -158 -84q66 91 178 166q118 77 250 65q122 -12 152 -102q23 -55 30 -131q4 -62 4 -72v-80v-28z" />
    <glyph glyph-name="i" unicode="i" horiz-adv-x="749" 
d="M481 1079q-43 -44 -107 -44t-108 44q-44 47 -44 110.5t44 106.5q44 44 108 44t107 -44q44 -43 44 -106.5t-44 -110.5zM518 973v-774q0 -56 16.5 -97t36.5 -59.5t48.5 -29.5t41.5 -12t25 -1h-620q36 0 71 12q115 42 115 187v473q0 71 -45 88q-44 21 -72 0z" />
    <glyph glyph-name="j" unicode="j" horiz-adv-x="624" 
d="M440 1079q-44 -44 -108.5 -44t-108.5 44q-43 47 -43 110.5t43 106.5q44 44 108.5 44t108.5 -44q44 -43 44 -106.5t-44 -110.5zM213 -131v797q0 42 -14 67t-35 30.5t-40 3.5t-36 -9l391 217v-1077q0 -95 -33.5 -164.5t-91.5 -102.5q-101 -57 -233 -57q-153 0 -260 66
q-105 64 -105 184q0 50 38 89.5t85 39.5q70 0 107.5 -64.5t25.5 -148.5q-6 -94 41 -129q48 -37 94 -19q45 16 54 66q12 50 12 211z" />
    <glyph glyph-name="k" unicode="k" horiz-adv-x="1087" 
d="M457 1479l-2 -1280q0 -54 14.5 -94.5t33 -59.5t42.5 -30t36 -13t21 -2h-600q11 0 26 2t45.5 13t54 30t42 59.5t18.5 94.5v964q0 63 -35.5 92.5t-84.5 4.5zM457 420l217 254q74 80 26 170q-47 93 -172 96h566q-51 -9 -183 -90q-126 -75 -194 -152l-35 -36q-16 -22 -16 -46
q0 -6 0.5 -9.5t1.5 -8t1.5 -6.5t2.5 -6.5t3 -6.5t4.5 -8t5.5 -8.5t8 -11.5t9 -14l43 -68l84 -129l99 -137q60 -80 86 -103q39 -36 86.5 -63t79.5 -33l26 -4h-588q48 0 63 35t-15 86l-50 76q-90 147 -127 184q-4 6 -8.5 12t-7 10t-5 7.5t-4 5.5t-3.5 3t-4 1z" />
    <glyph glyph-name="l" unicode="l" horiz-adv-x="624" 
d="M434 1479v-1280q0 -65 28 -111.5t73 -64.5q75 -23 108 -23h-680q38 0 78 12q127 43 127 187v934q0 47 -10 77.5t-21.5 43t-31.5 15.5t-27.5 2t-22.5 -5z" />
    <glyph glyph-name="m" unicode="m" horiz-adv-x="1841" 
d="M477 975v-776q0 -54 16.5 -94.5t38 -59.5t49 -30t41 -13t23.5 -2h-600q10 0 24 2t41 13t47.5 30t37 59.5t16.5 94.5v454q0 40 -10 66t-24.5 36.5t-31 13t-28 0t-17.5 -6.5zM481 729q226 247 424 232q59 -2 115 -43q30 -20 53 -97q12 -37 12 -129q3 -21 0 -76v-71v-346
q0 -54 16.5 -94.5t38 -59.5t49 -30t41 -13t23.5 -2h-600q10 0 24 2t41 13t47.5 30t37 59.5t16.5 94.5v307q0 152 -12 211q-9 57 -59 78q-116 49 -267 -66zM1094 729q99 105 200 168q113 70 219 61q72 -3 107 -38q3 -3 11.5 -10.5t12 -10.5t9.5 -10t9 -13t7 -15t6 -19
t8.5 -31t9 -36.5t3.5 -41.5q2 -27 2 -59q3 -15 0 -66v-63v-346q0 -54 16.5 -94.5t38 -59.5t49 -30t41 -13t23.5 -2h-600q10 0 24 2t41 13t47.5 30t37 59.5t16.5 94.5v290q0 145 -9 197q-10 57 -45 82q-122 87 -284 -39z" />
    <glyph glyph-name="n" unicode="n" horiz-adv-x="1296" 
d="M483 975v-776q0 -52 16 -93.5t38 -62.5q53 -43 116 -43h-602q33 0 66 12q102 42 102 187v473q-1 43 -15 67t-34.5 27.5t-34.5 2.5t-24 -5zM1100 545v-346q0 -52 15.5 -94t37.5 -62q53 -43 117 -43h-602q33 0 63 12q103 42 103 187v198v60q0 161 -9 225q-6 63 -41 98
q-46 46 -135 31q-88 -15 -151 -84q63 93 174 168q109 75 241 63q122 -12 152 -102q24 -58 31 -131q4 -62 4 -72v-80v-28z" />
    <glyph glyph-name="o" unicode="o" horiz-adv-x="1163" 
d="M621 -23q-140 -9 -289 60q-80 38 -141 121.5t-87 199.5q-44 210 58 379q101 168 303 221q238 55 414 -59q174 -113 198 -371q21 -231 -112 -385q-133 -151 -344 -166zM778 584q-38 188 -123 299q-82 114 -186 51q-73 -45 -88 -217q-15 -176 25 -344q40 -199 124 -295.5
t164 -71.5q63 21 90 121q51 175 -6 457z" />
    <glyph glyph-name="p" unicode="p" horiz-adv-x="1173" 
d="M1087 483q3 -208 -120 -358t-289 -150q-143 0 -262 72v-305q0 -60 25 -102t65 -56q62 -22 98 -22h-610q51 0 96 39q60 54 60 141v891q0 79 -31.5 108.5t-89.5 18.5l387 215v-191v-350q0 -214 92 -338q93 -121 213 -100q145 30 102 457q-35 332 -190 387q-101 34 -205 -70
l4 8q1 1 8 12.5t12 19t16 22.5t20 25.5t24 25.5t29.5 25.5t34 22t39 18.5t43.5 11.5t49 4.5q165 3 272 -131q105 -128 108 -351z" />
    <glyph glyph-name="q" unicode="q" horiz-adv-x="1167" 
d="M1020 963v-1223q0 -60 25 -102t65 -56q62 -22 98 -22h-643q35 0 97 22q42 14 66 55.5t24 102.5l2 754q0 173 -47 315q-25 80 -75.5 118.5t-121.5 26.5q-78 -12 -115 -149q-37 -136 -22 -328q14 -171 78.5 -284t169.5 -130q95 -15 116 29q-16 -28 -49 -61
q-60 -56 -158 -56q-191 -3 -317 123q-124 124 -127 367q-3 225 139 364q144 141 332 144q179 3 324 -133v2zM737 92v2v-2z" />
    <glyph glyph-name="r" unicode="r" horiz-adv-x="948" 
d="M799 969q73 -1 110 -46.5t37 -105.5q0 -56 -30.5 -96t-88.5 -41q-31 -3 -59 10.5t-44.5 31.5t-34.5 40t-27 29q-96 72 -185 -58v-553q0 -60 25 -101.5t65 -55.5q65 -23 99 -23h-639q31 0 96 23q42 14 66 55t24 102v27v465q0 119 -102 98l366 205v-135v-47v-27
q49 90 140 147.5t182 55.5zM446 682v-2v2z" />
    <glyph glyph-name="s" unicode="s" horiz-adv-x="958" 
d="M821 885v-281q-64 127 -176 223q-110 96 -217 105q-58 4 -91.5 -25.5t-33.5 -75.5q6 -133 254 -227q185 -73 260.5 -146.5t77.5 -168.5q3 -127 -78 -223q-81 -93 -268 -93q-214 0 -418 107l-6 334q94 -178 258 -295q115 -83 223 -101q109 -18 133 37q30 68 -40 141.5
t-238 139.5q-333 130 -324 342q5 125 106.5 208t278.5 83q75 0 151 -20.5t113 -43.5z" />
    <glyph glyph-name="t" unicode="t" horiz-adv-x="782" 
d="M569 104q72 -1 126 47t79 130q-19 -129 -92 -218q-73 -88 -213 -88q-180 0 -262 104t-82 318v506h-78l-24 19h102v252l270 151q0 -262 -2 -403h223l-18 -19h-205v-514q2 -146 41 -213.5t135 -71.5z" />
    <glyph glyph-name="u" unicode="u" horiz-adv-x="1191" 
d="M479 160q46 -46 144 -31q99 15 159 84q-71 -97 -182 -168q-115 -75 -250 -63q-114 11 -153 100q-23 67 -29 131q-4 44 -4 154v28v326q0 52 -15.5 94t-37.5 62q-49 43 -115 43h434v-199v-178q0 -267 14 -322q11 -37 35 -61zM791 102v637q0 60 -22 102t-58 56
q-60 23 -88 23h434v-682q0 -16 3.5 -29t8.5 -21t13 -14t14.5 -9t16.5 -4l15 -1.5t13 0.5h8l-358 -201v143z" />
    <glyph glyph-name="v" unicode="v" horiz-adv-x="956" 
d="M651 922h414q-104 -20 -176 -95q-46 -46 -72 -108l-325 -791l-379 832q-33 65 -82.5 108t-87.5 50l-33 4h588q-34 0 -69 -20q-78 -43 -38 -150l176 -385q18 -41 45 -41q17 0 25.5 8t21.5 39l140 334l8 22q26 80 -21 134t-135 59z" />
    <glyph glyph-name="w" unicode="w" horiz-adv-x="1472" 
d="M1178 922h413q-108 -21 -178 -97q-40 -40 -67 -104l-306 -787l-311 670l-225 -670l-406 824q-33 65 -83.5 107.5t-88.5 47.5l-35 7h555q-3 0 -7.5 -0.5t-17.5 -3.5t-24 -8t-23 -15.5t-18 -24t-5 -36t11 -50.5l177 -393q26 -63 53 -63q31 0 61 92l70 203l-66 139
q-33 65 -74.5 106.5t-68.5 46.5l-25 7h545q-3 0 -9.5 -0.5t-22 -4t-29 -9.5t-27.5 -18.5t-21 -29.5t-6 -44t13 -60l174 -387q20 -45 45 -45q26 0 53 67l125 320l8 22q27 80 -26 133q-55 55 -133 58z" />
    <glyph glyph-name="x" unicode="x" horiz-adv-x="1067" 
d="M1165 0h-573q30 0 56 17.5t34 51.5t-29 85l-178 233l-139 -160q-63 -72 -33 -143q11 -29 56.5 -52.5t93.5 -31.5h-461q103 36 176 90q94 68 168 160l129 149l-301 394q-40 53 -94.5 86.5t-94.5 38.5l-32 4h618q5 0 5.5 -0.5t-3.5 -1.5q-90 -18 -102 -58q-12 -48 28 -106
l15 -19l8 -12l125 -162l127 148q67 76 39 143q-5 11 -13 20t-20.5 16t-21.5 11.5t-27.5 8.5t-24.5 5.5t-26 5t-21 3.5h449l-11 -2q-3 -1 -38 -13t-67.5 -27t-59.5 -34q-71 -51 -142 -139l-133 -158l326 -420q93 -106 192 -131z" />
    <glyph glyph-name="y" unicode="y" horiz-adv-x="944" 
d="M657 922h412q-104 -20 -176 -95q-43 -45 -70 -108l-327 -791l-80 -194q-42 -107 -93 -140t-128 -22q-49 7 -75 50.5t-14 94.5q21 81 111 78q31 -3 57 -37q29 -33 41 -37q67 -27 111 82l55 140l-372 817q-30 67 -79 109t-89 49l-35 4h596q-16 0 -60 -15q-29 -10 -41 -28
q-43 -61 -6 -127l176 -385q18 -41 45 -41q18 0 26 8t22 39l141 334l8 22q24 79 -23.5 133.5t-132.5 59.5z" />
    <glyph glyph-name="z" unicode="z" horiz-adv-x="1093" 
d="M471 2l27 -2q139 3 309 123q59 44 121 115q65 74 92 122l31 50l-90 -426l-906 4l590 829q74 109 -31 109h-12q-123 3 -307 -125q-46 -31 -97.5 -75.5t-78.5 -74.5l-29 -28l82 319l858 -2l-590 -827q-35 -49 -26 -80t57 -31z" />
    <glyph glyph-name="braceleft" unicode="{" horiz-adv-x="700" 
d="M672 1432q-86 6 -138 -29.5t-81 -138.5q-37 -146 0 -363q34 -196 -62 -305q99 -108 72 -320l-14 -106l-17 -121q-17 -133 14 -225q21 -66 53 -96t72 -31.5t93 1.5q12 1 18 1q-218 -44 -322.5 60t-78.5 331l8 76q12 83 14 127q5 45 2 102q0 39 -18 84q-29 78 -125 113
q54 9 98 65q46 61 37 217q-1 6 -5 41.5t-7 65t-6 72t-3 75.5q1 97 44.5 170t107.5 99q155 66 244 35z" />
    <glyph glyph-name="bar" unicode="|" horiz-adv-x="274" 
d="M123 -115v1768h29v-1768h-29z" />
    <glyph glyph-name="braceright" unicode="}" horiz-adv-x="720" 
d="M29 1432q86 31 241 -35q64 -26 107.5 -99t44.5 -170q0 -33 -3 -75.5t-6 -72t-7 -65t-5 -41.5q-9 -156 37 -217q44 -56 99 -65q-96 -35 -125 -113q-19 -47 -21 -84q0 -51 2 -102l15 -127q2 -11 10 -76q26 -227 -78 -331t-322 -60q58 -3 101 -4t78 29.5t57 99.5
q31 92 14 225l-16 121l-14 106q-27 213 71 320q-95 108 -61 305q37 217 0 363q-29 104 -81.5 140t-137.5 28z" />
    <glyph glyph-name="asciitilde" unicode="~" horiz-adv-x="858" 
d="M123 582q1 89 54 139.5t128 44.5q55 -3 146 -57q91 -52 137 -52q124 0 149 97q6 -75 -35.5 -124.5t-113.5 -49.5q-74 0 -162 55q-86 57 -158 57q-111 0 -145 -110z" />
    <glyph glyph-name="exclamdown" unicode="&#xa1;" horiz-adv-x="559" 
d="M291 809q-56 0 -95.5 39t-39.5 94q0 54 40 93.5t95 39.5q54 0 92.5 -39.5t38.5 -93.5q0 -55 -38.5 -94t-92.5 -39zM295 745v5v-5zM295 745q0 -90 18 -204q20 -113 97 -424q18 -73 29 -130t16.5 -115t-1 -99t-23.5 -74t-51 -49.5t-83 -16.5q-186 0 -150 263q15 102 50 258
q15 58 65 303q33 162 33 288z" />
    <glyph glyph-name="cent" unicode="&#xa2;" horiz-adv-x="1101" 
d="M1034 346q-21 -156 -135 -270q-113 -110 -297 -113v-49h-20v49q-204 6 -338 137q-135 132 -138 357q-3 221 136 360q137 137 340 152v118h20v-116q70 3 148 -13q113 -25 189.5 -97.5t80.5 -166.5q4 -71 -33.5 -111.5t-99.5 -35.5q-68 4 -100 56t-13 122q58 227 -115 233
q-33 0 -57 -4v-784q59 -12 94 -12q255 -6 338 188zM348 471q40 -230 234 -295v774q-134 -35 -197 -170q-64 -137 -37 -309z" />
    <glyph glyph-name="sterling" unicode="&#xa3;" horiz-adv-x="1255" 
d="M930 1450q130 -7 201 -75t65 -169q-1 -46 -30.5 -74t-73.5 -28q-64 0 -95.5 47.5t-11.5 118.5q23 76 -8.5 124.5t-93.5 43.5q-42 -3 -78 -54q-34 -47 -52.5 -92t-47.5 -137l-175 -563h162l-18 -19h-150q-55 -170 -96 -276q86 -9 129 -27q40 -14 107 -59q105 -73 208 -88
q80 -9 146 8q67 21 76 70q6 35 -24.5 50t-104.5 21q-36 1 -62.5 28t-32.5 65q-3 84 72 108q45 12 88.5 -7t63.5 -60q54 -81 30 -191q-14 -66 -35 -112.5t-56 -82.5t-88 -51t-124 -10q-74 6 -136.5 48t-98.5 97q-87 144 -166 164q-65 -138 -101 -194q-67 -107 -174 -107
q-102 0 -140 48.5t-23 119.5q17 68 81.5 115.5t157.5 60.5l68 262h-158l-25 19h189q83 317 143 520q102 362 492 338zM139 147q28 16 39 43l12 29l25 68q-44 -5 -86 -39t-43 -70q-2 -19 15.5 -30t37.5 -1z" />
    <glyph glyph-name="currency" unicode="&#xa4;" horiz-adv-x="1073" 
d="M924 731q0 -142 -88 -246l116 -114l-55 -54l-113 117q-110 -90 -247 -90q-129 0 -238 80l-121 -121l-55 55l121 119q-97 111 -97 254q0 144 95 250l-121 117l55 55l119 -121q104 84 242 84q137 0 247 -90l121 125l58 -53l-125 -123q86 -109 86 -244zM219 731
q0 -133 92 -225q95 -92 226 -92t223 92q92 95 92 225q0 131 -92 223q-92 95 -223 95t-226 -95q-92 -92 -92 -223z" />
    <glyph glyph-name="yen" unicode="&#xa5;" horiz-adv-x="1169" 
d="M823 1434h502q-187 -12 -307 -240l-223 -418h256l-19 -24h-860l-25 24h193l-303 486q-44 68 -107.5 113t-109.5 52l-41 7h764q-34 0 -84 -29q-33 -20 -53.5 -47t-21 -72t33.5 -96l272 -414h72q75 128 207 381q38 76 34 137t-52.5 100t-127.5 40zM424 614h-252l-25 25h904
l-19 -25h-268q-4 -66 -4 -100v-289q0 -73 29.5 -125t78.5 -71q73 -29 121 -29h-782q48 0 121 29q49 19 78.5 71t29.5 125v289q0 48 -12 100z" />
    <glyph glyph-name="brokenbar" unicode="&#xa6;" horiz-adv-x="274" 
d="M123 838v559h29v-559h-29zM123 18v560h29v-560h-29z" />
    <glyph glyph-name="section" unicode="&#xa7;" horiz-adv-x="972" 
d="M506 1079q235 -59 301 -139q69 -81 57 -197q-12 -106 -88 -200q89 -95 80 -238q-9 -128 -106 -209q-100 -80 -240 -80q-194 0 -285 88q-92 89 -92 207q0 53 27 88t76 35t78.5 -36t21.5 -81q-1 -6 -9.5 -44.5t-9.5 -47.5q-6 -78 33 -110q53 -65 152 -74q102 -9 178 41
q79 52 82 147q1 79 -70 130.5t-233 89.5q-199 47 -264 126q-66 84 -60 205q3 112 86 195q-74 80 -71 205q3 124 102 209q97 87 262 84q127 -3 215 -76q92 -74 92 -166q0 -103 -84 -103q-58 0 -77.5 38t-6.5 94q21 78 -41 137q-57 60 -151 57l-47 -8q-32 -7 -69.5 -32
t-49.5 -58q-31 -79 18 -160q50 -83 193 -117zM231 897q-17 -68 52 -127t202 -88q168 -35 265 -113q10 30 10 60q1 79 -73.5 136.5t-211.5 82.5q-145 28 -225 96q-13 -19 -19 -47z" />
    <glyph glyph-name="dieresis" unicode="&#xa8;" horiz-adv-x="1228" 
d="M252 1110q-54 0 -91.5 38.5t-37.5 94.5q0 50 37.5 85.5t91.5 35.5q55 0 93 -35.5t38 -85.5q0 -57 -37.5 -95t-93.5 -38zM719 1110q-52 0 -90.5 39t-38.5 94q0 49 39 85t90 36q55 0 93 -35.5t38 -85.5q0 -57 -37 -95t-94 -38z" />
    <glyph glyph-name="copyright" unicode="&#xa9;" horiz-adv-x="1536" 
d="M1231 20q-194 -194 -469 -194q-274 0 -471 194q-195 198 -195 472t195 469q197 194 471 194q275 0 469 -194q196 -193 196 -469t-196 -472zM764 -154q268 0 457 189q190 190 190 459q0 267 -190 454q-188 191 -457 191q-268 0 -457 -189q-188 -188 -188 -456t188 -459
q192 -189 457 -189zM530 477q24 -121 97.5 -198.5t177.5 -98.5q130 -27 246 13q117 41 166 159q-30 -138 -150 -252q-115 -112 -299 -112q-200 0 -344 129q-145 130 -148 354q-3 191 99 320q100 126 249.5 172.5t315.5 13.5q111 -24 190 -100q80 -74 80 -164
q0 -73 -36 -113.5t-97 -34.5q-69 10 -99 59.5t-13 118.5q59 228 -115 234q-170 3 -264 -146q-96 -150 -56 -354z" />
    <glyph glyph-name="guillemotleft" unicode="&#xab;" horiz-adv-x="796" 
d="M119 563l342 291l-193 -293l172 -307zM332 563l342 291l-193 -293l172 -307z" />
    <glyph glyph-name="logicalnot" unicode="&#xac;" horiz-adv-x="948" 
d="M121 635v27h706v-238h-26v211h-680z" />
    <glyph glyph-name="registered" unicode="&#xae;" horiz-adv-x="1529" 
d="M291 961q197 194 471 194q275 0 469 -194q196 -193 196 -469t-196 -472q-194 -194 -469 -194q-274 0 -471 194q-195 198 -195 472t195 469zM764 -154q268 0 457 189q190 190 190 459q0 267 -190 454q-188 191 -457 191q-268 0 -457 -189q-188 -188 -188 -456t188 -459
q192 -189 457 -189zM1006 385l61 -115q27 -50 64 -86.5t65 -48.5l23 -8h-254q-42 54 -78 127l-90 164q-44 90 -109 90h-8v-313q0 -68 84 -68h-381q8 0 17.5 1t29 7t33.5 17t25.5 34t11.5 54v567q0 48 -27 78.5t-59 32.5l-31 4q4 0 164 4q130 7 184 4q217 -3 283 -72
q51 -51 51 -141q-3 -87 -64 -148q-22 -20 -46.5 -33.5t-36.5 -17.5t-15 -4q5 -1 14 -6.5t36 -38t53 -84.5zM776 537q117 41 117 186q0 210 -213 195v-396q52 0 96 15z" />
    <glyph glyph-name="overscore" unicode="&#xaf;" horiz-adv-x="956" 
d="M276 1188v20l404 2v-22h-404z" />
    <glyph glyph-name="degree" unicode="&#xb0;" horiz-adv-x="487" 
d="M252 1049q-49 0 -85 36t-36 86q0 51 35 88t86 37q55 0 90 -34.5t35 -90.5q-2 -50 -38 -86t-87 -36zM254 1081q38 0 65 28t27 65t-27.5 64.5t-64.5 27.5t-63.5 -27.5t-26.5 -64.5t27 -65t63 -28z" />
    <glyph glyph-name="plusminus" unicode="&#xb1;" 
d="M575 1128v-383h422v-26h-422v-383h-28v383h-424v26h424v383h28zM997 223h-874v27h874v-27z" />
    <glyph glyph-name="acute" unicode="&#xb4;" horiz-adv-x="1228" 
d="M305 1014l170 268q25 40 55 60.5t55.5 18.5t41.5 -24q12 -10 18 -25t4.5 -34.5t-21 -44t-55.5 -47.5z" />
    <glyph glyph-name="middot" unicode="&#xb7;" horiz-adv-x="460" 
d="M305 707q-32 -32 -80 -32t-80 32t-32 79.5t32 79.5t80 32t80 -32q35 -32 35 -79.5t-35 -79.5z" />
    <glyph glyph-name="cedilla" unicode="&#xb8;" horiz-adv-x="585" 
d="M227 -141l95 133l38 8l-61 -88q90 -6 132.5 -54t31.5 -114q-10 -62 -53 -98.5t-96 -42.5t-106.5 8.5t-84.5 46.5q58 -32 145 -10q83 21 92 94q6 56 -31.5 84t-101.5 33z" />
    <glyph glyph-name="guillemotright" unicode="&#xbb;" horiz-adv-x="796" 
d="M123 854l342 -291l-322 -309l172 307zM336 854l342 -291l-322 -309l172 307z" />
    <glyph glyph-name="questiondown" unicode="&#xbf;" horiz-adv-x="1007" 
d="M510 1059q55 0 95 -39.5t40 -93.5t-40 -93.5t-95 -39.5q-54 0 -92.5 39.5t-38.5 93.5t38.5 93.5t92.5 39.5zM510 754q22 -121 1 -246t-67 -215q-32 -65 -79 -187q-37 -104 -37 -188q-2 -134 48.5 -211t143.5 -78q87 -2 146.5 47t58.5 136q-3 36 -45 84t-45 77
q-8 61 26.5 106.5t90.5 45.5q55 0 94.5 -45.5t40.5 -116.5q9 -132 -96 -237q-101 -104 -273 -113q-189 -8 -302 77.5t-114 248.5q0 27 4.5 54.5t16 57t21 52.5t31 55.5t33 51t39 53.5t38 48.5t42 51.5t38.5 47q65 80 105 170t40 174z" />
    <glyph glyph-name="Agrave" unicode="&#xc0;" horiz-adv-x="1347" 
d="M829 1571l-268 172q-35 23 -54 47.5t-21 44.5t4 35.5t18 25.5q16 22 41.5 24t55 -18.5t54.5 -60.5zM653 1532l588 -1352q34 -75 92 -121q38 -27 71 -40.5t51 -16t44 -2.5h-805l7 2q7 1 20.5 4.5t29 9.5t32.5 16t32 22t26.5 30.5t17.5 40t3 50t-16 61.5l-125 317l-461 2
l-119 -291q-42 -100 2 -178.5t154 -85.5h-475q76 5 151.5 70.5t118.5 171.5l555 1308zM502 1059q-36 0 -119 -207l-111 -270h437l-121 317l-19 47q-49 107 -67 113zM1507 0h-8h8z" />
    <glyph glyph-name="Aacute" unicode="&#xc1;" horiz-adv-x="1347" 
d="M866 1884q12 -10 18 -25.5t4 -35.5t-21 -44.5t-54 -47.5l-270 -172l170 268q27 41 56.5 61t54.5 18.5t42 -22.5zM653 1532l588 -1352q34 -75 92 -121q38 -27 71 -40.5t51 -16t44 -2.5h-805l7 2q7 1 20.5 4.5t29 9.5t32.5 16t32 22t26.5 30.5t17.5 40t3 50t-16 61.5
l-125 317l-461 2l-119 -291q-42 -100 2 -178.5t154 -85.5h-475q76 5 151.5 70.5t118.5 171.5l555 1308zM502 1059q-36 0 -119 -207l-111 -270h437l-121 317l-19 47q-49 107 -67 113zM1507 0h-8h8z" />
    <glyph glyph-name="Acircumflex" unicode="&#xc2;" horiz-adv-x="1347" 
d="M748 1806l139 -282l-211 188l-238 -188l170 282h140zM653 1532l588 -1352q34 -75 92 -121q38 -27 71 -40.5t51 -16t44 -2.5h-805l7 2q7 1 20.5 4.5t29 9.5t32.5 16t32 22t26.5 30.5t17.5 40t3 50t-16 61.5l-125 317l-461 2l-119 -291q-42 -100 2 -178.5t154 -85.5h-475
q76 5 151.5 70.5t118.5 171.5l555 1308zM502 1059q-36 0 -119 -207l-111 -270h437l-121 317l-19 47q-49 107 -67 113zM1507 0h-8h8z" />
    <glyph glyph-name="Atilde" unicode="&#xc3;" horiz-adv-x="1347" 
d="M504 1749q-120 0 -150 -154q1 121 59 187.5t150 58.5q59 -6 129 -67q74 -59 121 -62q56 -5 100 33t56 108q0 -90 -49 -163q-51 -72 -132 -78q-44 -3 -87.5 17.5t-72.5 47t-63 49.5t-61 23zM653 1532l588 -1352q34 -75 92 -121q38 -27 71 -40.5t51 -16t44 -2.5h-805l7 2
q7 1 20.5 4.5t29 9.5t32.5 16t32 22t26.5 30.5t17.5 40t3 50t-16 61.5l-125 317l-461 2l-119 -291q-42 -100 2 -178.5t154 -85.5h-475q76 5 151.5 70.5t118.5 171.5l555 1308zM502 1059q-36 0 -119 -207l-111 -270h437l-121 317l-19 47q-49 107 -67 113zM1507 0h-8h8z" />
    <glyph glyph-name="Adieresis" unicode="&#xc4;" horiz-adv-x="1347" 
d="M424 1622q-54 0 -91.5 38t-37.5 93q0 51 37.5 86t91.5 35q55 0 92 -35t37 -86q0 -56 -37 -93.5t-92 -37.5zM891 1622q-52 0 -90.5 38t-38.5 93q0 49 39 85t90 36q57 0 94 -35t37 -86q0 -56 -37 -93.5t-94 -37.5zM653 1532l588 -1352q34 -75 92 -121q38 -27 71 -40.5
t51 -16t44 -2.5h-805l7 2q7 1 20.5 4.5t29 9.5t32.5 16t32 22t26.5 30.5t17.5 40t3 50t-16 61.5l-125 317l-461 2l-119 -291q-42 -100 2 -178.5t154 -85.5h-475q76 5 151.5 70.5t118.5 171.5l555 1308zM502 1059q-36 0 -119 -207l-111 -270h437l-121 317l-19 47
q-49 107 -67 113zM1507 0h-8h8z" />
    <glyph glyph-name="Aring" unicode="&#xc5;" horiz-adv-x="1347" 
d="M674 1599q-51 0 -87 37t-36 88t36 88t87 37q55 0 89.5 -34.5t33.5 -90.5q-2 -51 -38 -88t-85 -37zM584 1726q0 -38 27 -66t65 -28t64 27.5t26 66.5q0 37 -27 65t-63 28q-37 0 -64.5 -28t-27.5 -65zM653 1532l588 -1352q34 -75 92 -121q38 -27 71 -40.5t51 -16t44 -2.5
h-805l7 2q7 1 20.5 4.5t29 9.5t32.5 16t32 22t26.5 30.5t17.5 40t3 50t-16 61.5l-125 317l-461 2l-119 -291q-42 -100 2 -178.5t154 -85.5h-475q76 5 151.5 70.5t118.5 171.5l555 1308zM502 1059q-36 0 -119 -207l-111 -270h437l-121 317l-19 47q-49 107 -67 113zM1507 0h-8
h8z" />
    <glyph glyph-name="AE" unicode="&#xc6;" horiz-adv-x="1982" 
d="M1853 461l29 53l-117 -514h-1226q26 0 67 14q115 50 115 189v432h-354l-160 -295q-77 -154 -33 -246t186 -94h-536q20 0 63 18q52 23 126 93t124 163l623 1160h985l90 -471q-30 61 -119 163q-82 94 -162 144q-239 145 -405 145h-102v-661h30q68 2 126.5 30.5t94.5 66.5
t64 86.5t40.5 82t18.5 61.5l4 19v-709q-5 43 -39 117q-22 55 -59 104q-39 49 -106 84t-146 35h-28v-569q0 -71 35 -107.5t89 -36.5h23q66 0 190 48q121 49 224 120q82 60 147 140q72 84 98 135zM582 1040l-203 -381l342 3v393q0 141 -29 141q-22 0 -41 -27l-18 -30z" />
    <glyph glyph-name="Ccedilla" unicode="&#xc7;" horiz-adv-x="1554" 
d="M1024 170q273 -6 401 211l11 25q-4 -37 -47 -125q-26 -60 -72 -115q-45 -55 -125.5 -105.5t-173.5 -72.5q-99 -19 -166 -21l-41 -55q90 -6 132.5 -54t31.5 -114q-10 -62 -53 -98.5t-96 -42.5t-106.5 8.5t-84.5 46.5q58 -32 145 -10q85 21 94 94q6 56 -31.5 84t-101.5 33
l76 110q-302 9 -500 219t-204 488q-6 235 94 407t258.5 263.5t359.5 105.5q180 12 351 -33q123 -34 180 -71l20 -15l-4 -403q-126 253 -332 403q-207 154 -417 41q-122 -64 -174 -239q-52 -172 -21 -379q38 -266 203 -424q170 -159 393 -162z" />
    <glyph glyph-name="Egrave" unicode="&#xc8;" horiz-adv-x="1503" 
d="M819 1571l-268 172q-35 23 -54.5 47.5t-21.5 44.5t3.5 35.5t17.5 25.5q23 34 68 20t85 -75zM1137 168q89 68 161.5 142t100.5 116l22 37l-92 -463h-1311q45 0 121 35q47 21 77 73t30 123v986q0 72 -29 121t-78 67q-73 29 -121 29h1254l69 -437q-72 132 -294 289
q-101 72 -197 98.5t-234 26.5h-45v-655h37q65 1 120.5 21t91 47.5t65 64.5t43.5 64.5t24 54.5l9 28v-606q-4 30 -41 102q-25 49 -64 91t-106.5 73t-141.5 31h-37v-485q0 -224 187 -224h24q75 0 173.5 43t181.5 107z" />
    <glyph glyph-name="Eacute" unicode="&#xc9;" horiz-adv-x="1503" 
d="M983 1884q12 -10 18 -25.5t4 -35.5t-21 -44.5t-54 -47.5l-268 -172l169 268q37 61 82.5 76t69.5 -19zM1137 168q89 68 161.5 142t100.5 116l22 37l-92 -463h-1311q45 0 121 35q47 21 77 73t30 123v986q0 72 -29 121t-78 67q-73 29 -121 29h1254l69 -437q-72 132 -294 289
q-101 72 -197 98.5t-234 26.5h-45v-655h37q65 1 120.5 21t91 47.5t65 64.5t43.5 64.5t24 54.5l9 28v-606q-4 30 -41 102q-25 49 -64 91t-106.5 73t-141.5 31h-37v-485q0 -224 187 -224h24q75 0 173.5 43t181.5 107z" />
    <glyph glyph-name="Ecircumflex" unicode="&#xca;" horiz-adv-x="1503" 
d="M760 1806l139 -282l-211 188l-237 -188l170 282h139zM1137 168q89 68 161.5 142t100.5 116l22 37l-92 -463h-1311q45 0 121 35q47 21 77 73t30 123v986q0 72 -29 121t-78 67q-73 29 -121 29h1254l69 -437q-72 132 -294 289q-101 72 -197 98.5t-234 26.5h-45v-655h37
q65 1 120.5 21t91 47.5t65 64.5t43.5 64.5t24 54.5l9 28v-606q-4 30 -41 102q-25 49 -64 91t-106.5 73t-141.5 31h-37v-485q0 -224 187 -224h24q75 0 173.5 43t181.5 107z" />
    <glyph glyph-name="Edieresis" unicode="&#xcb;" horiz-adv-x="1503" 
d="M453 1622q-52 0 -90.5 38t-38.5 93q0 49 39 85t90 36q55 0 93 -35t38 -86q0 -55 -38 -93t-93 -38zM922 1622q-54 0 -91.5 38t-37.5 93q0 51 37.5 86t91.5 35q55 0 93 -35t38 -86q0 -55 -37.5 -93t-93.5 -38zM1137 168q89 68 161.5 142t100.5 116l22 37l-92 -463h-1311
q45 0 121 35q47 21 77 73t30 123v986q0 72 -29 121t-78 67q-73 29 -121 29h1254l69 -437q-72 132 -294 289q-101 72 -197 98.5t-234 26.5h-45v-655h37q65 1 120.5 21t91 47.5t65 64.5t43.5 64.5t24 54.5l9 28v-606q-4 30 -41 102q-25 49 -64 91t-106.5 73t-141.5 31h-37
v-485q0 -224 187 -224h24q75 0 173.5 43t181.5 107z" />
    <glyph glyph-name="Igrave" unicode="&#xcc;" horiz-adv-x="888" 
d="M551 1571l-270 172q-35 23 -54.5 47.5t-21 44.5t4 35.5t17.5 25.5q23 34 68.5 20t85.5 -75zM590 1188v-942q0 -63 21.5 -113.5t52.5 -77.5q71 -55 157 -55h-780q15 0 34 2.5t56 16t65 37.5t50 73.5t22 116.5v942q0 64 -21 114.5t-52 75.5q-29 26 -66 37q-52 19 -88 19
h780q-51 0 -123 -31q-49 -21 -78.5 -77t-29.5 -138z" />
    <glyph glyph-name="Iacute" unicode="&#xcd;" horiz-adv-x="888" 
d="M659 1884q12 -10 17.5 -25.5t3.5 -35.5t-21.5 -44.5t-54.5 -47.5l-268 -172l170 268q25 40 55 60.5t55.5 19t42.5 -22.5zM590 1188v-942q0 -63 21.5 -113.5t52.5 -77.5q71 -55 157 -55h-780q15 0 34 2.5t56 16t65 37.5t50 73.5t22 116.5v942q0 64 -21 114.5t-52 75.5
q-29 26 -66 37q-52 19 -88 19h780q-51 0 -123 -31q-49 -21 -78.5 -77t-29.5 -138z" />
    <glyph glyph-name="Icircumflex" unicode="&#xce;" horiz-adv-x="888" 
d="M528 1806l140 -282l-211 188l-238 -188l170 282h139zM590 1188v-942q0 -63 21.5 -113.5t52.5 -77.5q71 -55 157 -55h-780q15 0 34 2.5t56 16t65 37.5t50 73.5t22 116.5v942q0 64 -21 114.5t-52 75.5q-29 26 -66 37q-52 19 -88 19h780q-51 0 -123 -31q-49 -21 -78.5 -77
t-29.5 -138z" />
    <glyph glyph-name="Idieresis" unicode="&#xcf;" horiz-adv-x="888" 
d="M223 1622q-52 0 -89.5 38t-37.5 93q0 49 38 85t89 36q57 0 94 -35t37 -86q0 -56 -37 -93.5t-94 -37.5zM692 1622q-52 0 -90.5 38t-38.5 93q0 49 39 85t90 36q55 0 93 -35t38 -86q0 -55 -37.5 -93t-93.5 -38zM590 1188v-942q0 -63 21.5 -113.5t52.5 -77.5q71 -55 157 -55
h-780q15 0 34 2.5t56 16t65 37.5t50 73.5t22 116.5v942q0 64 -21 114.5t-52 75.5q-29 26 -66 37q-52 19 -88 19h780q-51 0 -123 -31q-49 -21 -78.5 -77t-29.5 -138z" />
    <glyph glyph-name="Eth" unicode="&#xd0;" horiz-adv-x="1648" 
d="M51 1434h746q773 21 776 -689q0 -347 -193 -540t-481 -205h-92h-756q41 0 96 16q65 18 109.5 68.5t44.5 140.5v496h-176l-25 18h201v469q0 58 -23.5 105t-56.5 69q-34 24 -74 35q-58 17 -96 17zM903 27q151 19 236.5 210t81.5 523q-6 620 -433 647q-70 3 -143 0v-668h168
l-18 -18h-150v-469q0 -227 166 -227q84 0 92 2z" />
    <glyph glyph-name="Ntilde" unicode="&#xd1;" horiz-adv-x="1632" 
d="M707 1749q-120 0 -150 -154q1 121 59 187.5t150 58.5q59 -6 129 -67q74 -59 121 -62q53 -5 98 33.5t57 107.5q0 -90 -49 -163q-51 -72 -131 -78q-44 -3 -87.5 17.5t-72.5 47t-63 49.5t-61 23zM1311 621v499q0 78 -25.5 141.5t-62.5 94.5q-36 31 -82 49q-55 25 -115 29
h600q-55 -4 -117 -27q-34 -14 -62 -35t-54 -54t-41 -84t-15 -114v-1177l-936 1108q-41 43 -62.5 28t-21.5 -80v-661q-1 -72 19.5 -130t49.5 -92t68.5 -59.5t67.5 -36t56 -16.5l30 -4h-610q29 0 100 29q80 28 134.5 104t58.5 205v680q0 69 -11 128t-28.5 99.5t-41 73.5
t-45.5 52t-46.5 33t-39 19.5t-26.5 8.5l-8 2h481l713 -852q34 -40 51 -37q21 3 21 76zM1337 -57v-2h-2z" />
    <glyph glyph-name="Ograve" unicode="&#xd2;" horiz-adv-x="1714" 
d="M854 1841l172 -270l-270 172q-35 23 -54.5 47.5t-21 44.5t4 35.5t17.5 25.5q16 22 41.5 24t55.5 -18.5t55 -60.5zM889 1452q173 0 309.5 -62.5t216.5 -170.5q159 -212 156 -504q-2 -114 -32 -220.5t-91 -200.5t-147.5 -164t-209 -110t-266.5 -38q-172 1 -312.5 70.5
t-225.5 183.5q-169 228 -160 495q3 320 217 522q217 202 545 199zM1188 764q-37 282 -164 483q-125 197 -297 170q-136 -21 -201 -211q-62 -189 -22 -475q40 -282 162 -491q125 -208 284 -220q165 -15 224 187q61 200 14 557z" />
    <glyph glyph-name="Oacute" unicode="&#xd3;" horiz-adv-x="1714" 
d="M776 1559l170 268q24 40 54.5 60.5t56.5 19t43 -22.5q12 -10 17.5 -25.5t3 -35.5t-22 -44.5t-54.5 -47.5zM889 1452q-328 3 -545 -199q-214 -202 -217 -522q-9 -267 160 -495q85 -114 225.5 -183.5t312.5 -70.5q144 -2 266.5 38t209 110t147.5 164t91 200.5t32 220.5
q3 292 -156 504q-80 108 -216.5 170.5t-309.5 62.5zM1188 764q47 -357 -14 -557q-59 -202 -224 -187q-159 12 -284 220q-122 209 -162 491q-40 286 22 475q65 190 201 211q172 27 297 -170q127 -201 164 -483z" />
    <glyph glyph-name="Ocircumflex" unicode="&#xd4;" horiz-adv-x="1714" 
d="M623 1524l170 282h139l139 -282l-209 188zM889 1452q-328 3 -545 -199q-214 -202 -217 -522q-9 -267 160 -495q85 -114 225.5 -183.5t312.5 -70.5q144 -2 266.5 38t209 110t147.5 164t91 200.5t32 220.5q3 292 -156 504q-80 108 -216.5 170.5t-309.5 62.5zM1188 764
q47 -357 -14 -557q-59 -202 -224 -187q-159 12 -284 220q-122 209 -162 491q-40 286 22 475q65 190 201 211q172 27 297 -170q127 -201 164 -483z" />
    <glyph glyph-name="Otilde" unicode="&#xd5;" horiz-adv-x="1714" 
d="M551 1595q1 122 58 188t149 58q59 -6 129 -67q74 -59 123 -62q53 -5 97 33.5t56 107.5q0 -90 -49 -163q-48 -72 -129 -78q-42 -2 -77.5 11t-60 33t-46.5 40.5t-48.5 35.5t-54.5 17q-117 0 -147 -154zM889 1452q-328 3 -545 -199q-214 -202 -217 -522q-9 -267 160 -495
q85 -114 225.5 -183.5t312.5 -70.5q144 -2 266.5 38t209 110t147.5 164t91 200.5t32 220.5q3 292 -156 504q-80 108 -216.5 170.5t-309.5 62.5zM1188 764q47 -357 -14 -557q-59 -202 -224 -187q-159 12 -284 220q-122 209 -162 491q-40 286 22 475q65 190 201 211
q172 27 297 -170q127 -201 164 -483z" />
    <glyph glyph-name="Odieresis" unicode="&#xd6;" horiz-adv-x="1714" 
d="M629 1622q-54 0 -91.5 38t-37.5 93q0 51 37.5 86t91.5 35q55 0 93 -35t38 -86q0 -55 -38 -93t-93 -38zM1098 1622q-54 0 -91.5 38t-37.5 93q0 51 37.5 86t91.5 35q55 0 92 -35t37 -86q0 -56 -37 -93.5t-92 -37.5zM889 1452q173 0 309.5 -62.5t216.5 -170.5
q159 -212 156 -504q-2 -114 -32 -220.5t-91 -200.5t-147.5 -164t-209 -110t-266.5 -38q-172 1 -312.5 70.5t-225.5 183.5q-169 228 -160 495q3 320 217 522q217 202 545 199zM1188 764q-37 282 -164 483q-125 197 -297 170q-136 -21 -201 -211q-62 -189 -22 -475
q40 -282 162 -491q125 -208 284 -220q165 -15 224 187q61 200 14 557z" />
    <glyph glyph-name="multiply" unicode="&#xd7;" horiz-adv-x="892" 
d="M469 719l303 -303l-24 -23l-302 303l-303 -303l-20 21l303 303l-297 295l25 22l295 -295l292 293l21 -20z" />
    <glyph glyph-name="Oslash" unicode="&#xd8;" horiz-adv-x="1757" 
d="M1458 1436l-102 -125q123 -101 185.5 -257.5t57.5 -338.5q-2 -143 -50 -273.5t-138 -234.5q-89 -106 -234.5 -166t-320.5 -59q-267 6 -444 157l-113 -139h-33l125 156q-119 108 -179 261.5t-54 313.5q3 320 217 522t545 199q246 0 417 -127l90 111h31zM535 731
q22 -164 75 -307l529 653q-68 175 -167.5 267.5t-213.5 72.5q-136 -21 -201 -211q-62 -189 -22 -475zM979 20q164 -15 223 187q62 203 15 557q-18 143 -68 289l-528 -656q64 -168 157.5 -269t200.5 -108z" />
    <glyph glyph-name="Ugrave" unicode="&#xd9;" horiz-adv-x="1542" 
d="M1008 1571l-271 172q-35 23 -54 47.5t-21 44.5t4 35.5t18 25.5q23 34 68.5 20t85.5 -75zM1266 659v457q0 95 -30 165.5t-79 100.5q-73 49 -131 52h490q-12 -2 -22 -4t-34.5 -11t-44 -22t-44 -39.5t-40.5 -60t-27.5 -86t-11.5 -115.5v-463q0 -78 -2 -105q0 -31 -10 -116
q-9 -76 -27 -129q-53 -157 -137 -220q-122 -94 -305 -94q-332 0 -463 168t-131 514v516q0 69 -20.5 124.5t-49.5 82.5q-41 37 -83 49.5t-66 10.5h788q-42 0 -96 -19q-55 -23 -93 -82.5t-38 -165.5v-594q0 -269 98.5 -399.5t286.5 -118.5q171 12 246.5 156t75.5 448z" />
    <glyph glyph-name="Uacute" unicode="&#xda;" horiz-adv-x="1542" 
d="M1194 1884q11 -11 16.5 -26t4 -35t-20.5 -44.5t-55 -47.5l-269 -172l170 268q24 40 54.5 60.5t56.5 19t43 -22.5zM1266 659v457q0 95 -30 165.5t-79 100.5q-73 49 -131 52h490q-12 -2 -22 -4t-34.5 -11t-44 -22t-44 -39.5t-40.5 -60t-27.5 -86t-11.5 -115.5v-463
q0 -78 -2 -105q0 -31 -10 -116q-9 -76 -27 -129q-53 -157 -137 -220q-122 -94 -305 -94q-332 0 -463 168t-131 514v516q0 69 -20.5 124.5t-49.5 82.5q-41 37 -83 49.5t-66 10.5h788q-42 0 -96 -19q-55 -23 -93 -82.5t-38 -165.5v-594q0 -269 98.5 -399.5t286.5 -118.5
q171 12 246.5 156t75.5 448z" />
    <glyph glyph-name="Ucircumflex" unicode="&#xdb;" horiz-adv-x="1542" 
d="M985 1806l141 -282l-211 188l-239 -188l170 282h139zM1266 659v457q0 95 -30 165.5t-79 100.5q-73 49 -131 52h490q-12 -2 -22 -4t-34.5 -11t-44 -22t-44 -39.5t-40.5 -60t-27.5 -86t-11.5 -115.5v-463q0 -78 -2 -105q0 -31 -10 -116q-9 -76 -27 -129q-53 -157 -137 -220
q-122 -94 -305 -94q-332 0 -463 168t-131 514v516q0 69 -20.5 124.5t-49.5 82.5q-41 37 -83 49.5t-66 10.5h788q-42 0 -96 -19q-55 -23 -93 -82.5t-38 -165.5v-594q0 -269 98.5 -399.5t286.5 -118.5q171 12 246.5 156t75.5 448z" />
    <glyph glyph-name="Udieresis" unicode="&#xdc;" horiz-adv-x="1542" 
d="M684 1622q-52 0 -90.5 38t-38.5 93q0 49 39 85t90 36q55 0 93 -35t38 -86q0 -55 -37.5 -93t-93.5 -38zM1153 1622q-54 0 -91.5 38t-37.5 93q0 51 37.5 86t91.5 35q55 0 93 -35t38 -86q0 -55 -38 -93t-93 -38zM1266 659v457q0 95 -30 165.5t-79 100.5q-73 49 -131 52h490
q-12 -2 -22 -4t-34.5 -11t-44 -22t-44 -39.5t-40.5 -60t-27.5 -86t-11.5 -115.5v-463q0 -78 -2 -105q0 -31 -10 -116q-9 -76 -27 -129q-53 -157 -137 -220q-122 -94 -305 -94q-332 0 -463 168t-131 514v516q0 69 -20.5 124.5t-49.5 82.5q-41 37 -83 49.5t-66 10.5h788
q-42 0 -96 -19q-55 -23 -93 -82.5t-38 -165.5v-594q0 -269 98.5 -399.5t286.5 -118.5q171 12 246.5 156t75.5 448z" />
    <glyph glyph-name="Yacute" unicode="&#xdd;" horiz-adv-x="1304" 
d="M768 1559l170 268q27 41 57 61t55 18.5t42 -22.5q12 -10 17.5 -25.5t4 -35.5t-21 -44.5t-54.5 -47.5zM979 1434q116 -13 149.5 -85t-24.5 -175l-199 -357q-73 -137 -143 -12l-234 399q-46 88 -10 157t125 71l-729 2q54 0 135.5 -59.5t149.5 -168.5l284 -467
q60 -97 60 -247l-2 -273q0 -65 -25 -114t-65 -70q-64 -35 -111 -35h731q-46 3 -115 37q-40 21 -65 72t-25 118v322q0 148 41 225l223 406q124 214 304 254h-455z" />
    <glyph glyph-name="Thorn" unicode="&#xde;" horiz-adv-x="1245" 
d="M1141 963q51 -123 16 -265q-34 -137 -123 -202q-76 -58 -221 -76q-141 -18 -258 4q143 0 237.5 95t100.5 276q4 154 -52.5 243.5t-166.5 106.5q-28 4 -133 4v-963q0 -61 24 -103t64 -60q65 -23 102 -23h-708q37 0 102 23q40 18 64 60t24 103v1061q0 62 -24.5 105
t-63.5 57q-55 25 -102 25h708q-47 0 -102 -25q-39 -14 -63.5 -57t-24.5 -105v-76l137 7q152 0 266 -35q135 -40 197 -180z" />
    <glyph glyph-name="germandbls" unicode="&#xdf;" horiz-adv-x="1144" 
d="M1090 336q4 -152 -88.5 -245t-241.5 -93q-103 0 -180 65q-76 64 -76 158q0 49 30 76t74 27q32 0 47 -15q54 -35 54 -131q0 -160 77 -160q76 0 76 224v12q3 224 -149 305q-111 62 -131 96q-3 6 -7.5 13t-6.5 12.5t-3 13.5q-2 18 -2 35v16q0 37 76 121q32 38 56 113t28 166
q2 51 -2 97.5t-16.5 94.5t-41 76.5t-69.5 28.5q-85 0 -112 -61t-27 -226v-995q0 -54 22 -91t58 -51q55 -18 90 -18h-602q35 0 88 18q36 14 57.5 51t21.5 91v948q0 101 36.5 173t102.5 110t143 53.5t171 13.5q168 -3 248 -117q80 -111 65 -237q-9 -70 -34 -125t-57.5 -87
t-70.5 -55t-74 -35t-65 -20.5t-47 -18t-18 -22.5q0 -23 43 -36q20 -3 75 -10t66 -9q150 -28 230 -124t86 -226z" />
    <glyph glyph-name="agrave" unicode="&#xe0;" 
d="M586 1319l172 -268l-271 172q-35 23 -54 47.5t-21 44.5t4 35.5t18 25.5q24 34 69.5 19t82.5 -76zM686 135v412q-178 -55 -252 -111q-73 -55 -76 -153q-2 -57 25.5 -103t77.5 -63q114 -30 215 63q-8 -10 -60 -71q-14 -16 -65 -64q-82 -76 -205 -76q-130 0 -188 76
q-59 77 -56 168q3 107 101 180q48 35 112 60q79 34 134 47l159 45q10 3 35.5 8.5t42.5 11.5v115q0 152 -48 220t-149 50q-31 -5 -50.5 -13.5t-37 -27t-27 -51.5t-12.5 -84q0 -21 17 -72t18 -67q3 -73 -63.5 -108t-132 -2.5t-60.5 122.5q3 129 119 213q120 84 240 105
q46 9 96 10t103.5 -6.5t100 -29t83.5 -53.5t56.5 -84.5t16.5 -117.5v-465q0 -134 86 -121q25 1 48.5 25t31.5 49l8 25q-14 -71 -55 -142q-53 -88 -182 -88q-92 0 -149.5 45.5t-57.5 122.5z" />
    <glyph glyph-name="aacute" unicode="&#xe1;" 
d="M496 1053l170 268q25 40 55 60.5t55.5 19t42.5 -22.5q12 -10 17.5 -25.5t3.5 -35.5t-21.5 -44.5t-54.5 -47.5zM686 135q0 -77 57.5 -122.5t149.5 -45.5q129 0 182 88q41 71 55 142l-8 -25q-8 -25 -31.5 -49t-48.5 -25q-86 -13 -86 121v465q3 65 -16.5 117.5t-56.5 84.5
t-83.5 53.5t-100 29t-103.5 6.5t-96 -10q-120 -21 -240 -105q-116 -84 -119 -213q-5 -90 60.5 -122.5t132 2.5t63.5 108q-1 16 -18 67t-17 72q3 51 12.5 84t27 51.5t37 27t50.5 13.5q101 18 149 -50t48 -220v-115q-17 -6 -42.5 -11.5t-35.5 -8.5l-159 -45q-55 -13 -134 -47
q-64 -25 -112 -60q-98 -73 -101 -180q-3 -91 56 -168q58 -76 188 -76q123 0 205 76q51 48 65 64q52 61 60 71q-101 -93 -215 -63q-50 17 -77.5 63t-25.5 103q3 98 76 153q74 56 252 111v-412z" />
    <glyph glyph-name="acircumflex" unicode="&#xe2;" 
d="M391 1008l170 282h139l140 -282l-209 188zM686 135q0 -77 57.5 -122.5t149.5 -45.5q129 0 182 88q41 71 55 142l-8 -25q-8 -25 -31.5 -49t-48.5 -25q-86 -13 -86 121v465q3 65 -16.5 117.5t-56.5 84.5t-83.5 53.5t-100 29t-103.5 6.5t-96 -10q-120 -21 -240 -105
q-116 -84 -119 -213q-5 -90 60.5 -122.5t132 2.5t63.5 108q-1 16 -18 67t-17 72q3 51 12.5 84t27 51.5t37 27t50.5 13.5q101 18 149 -50t48 -220v-115q-17 -6 -42.5 -11.5t-35.5 -8.5l-159 -45q-55 -13 -134 -47q-64 -25 -112 -60q-98 -73 -101 -180q-3 -91 56 -168
q58 -76 188 -76q123 0 205 76q51 48 65 64q52 61 60 71q-101 -93 -215 -63q-50 17 -77.5 63t-25.5 103q3 98 76 153q74 56 252 111v-412z" />
    <glyph glyph-name="atilde" unicode="&#xe3;" 
d="M309 1051q1 121 59 187t150 58q59 -6 129 -67q74 -59 121 -62q55 -5 99.5 34.5t56.5 107.5q0 -88 -50 -162t-131 -80q-44 -3 -87.5 17.5t-72.5 47t-63 49.5t-61 23q-120 0 -150 -153zM686 135q0 -77 57.5 -122.5t149.5 -45.5q129 0 182 88q41 71 55 142l-8 -25
q-8 -25 -31.5 -49t-48.5 -25q-86 -13 -86 121v465q3 65 -16.5 117.5t-56.5 84.5t-83.5 53.5t-100 29t-103.5 6.5t-96 -10q-120 -21 -240 -105q-116 -84 -119 -213q-5 -90 60.5 -122.5t132 2.5t63.5 108q-1 16 -18 67t-17 72q3 51 12.5 84t27 51.5t37 27t50.5 13.5
q101 18 149 -50t48 -220v-115q-17 -6 -42.5 -11.5t-35.5 -8.5l-159 -45q-55 -13 -134 -47q-64 -25 -112 -60q-98 -73 -101 -180q-3 -91 56 -168q58 -76 188 -76q123 0 205 76q51 48 65 64q52 61 60 71q-101 -93 -215 -63q-50 17 -77.5 63t-25.5 103q3 98 76 153
q74 56 252 111v-412z" />
    <glyph glyph-name="adieresis" unicode="&#xe4;" 
d="M375 1110q-54 0 -91.5 38.5t-37.5 94.5q0 50 37.5 85.5t91.5 35.5q55 0 93 -35.5t38 -85.5q0 -57 -37.5 -95t-93.5 -38zM842 1110q-52 0 -90.5 39t-38.5 94q0 49 39 85t90 36q55 0 93 -35.5t38 -85.5q0 -57 -37 -95t-94 -38zM686 135v412q-178 -55 -252 -111
q-73 -55 -76 -153q-2 -57 25.5 -103t77.5 -63q114 -30 215 63q-8 -10 -60 -71q-14 -16 -65 -64q-82 -76 -205 -76q-130 0 -188 76q-59 77 -56 168q3 107 101 180q48 35 112 60q79 34 134 47l159 45q10 3 35.5 8.5t42.5 11.5v115q0 152 -48 220t-149 50q-31 -5 -50.5 -13.5
t-37 -27t-27 -51.5t-12.5 -84q0 -21 17 -72t18 -67q3 -73 -63.5 -108t-132 -2.5t-60.5 122.5q3 129 119 213q120 84 240 105q46 9 96 10t103.5 -6.5t100 -29t83.5 -53.5t56.5 -84.5t16.5 -117.5v-465q0 -134 86 -121q25 1 48.5 25t31.5 49l8 25q-14 -71 -55 -142
q-53 -88 -182 -88q-92 0 -149.5 45.5t-57.5 122.5z" />
    <glyph glyph-name="aring" unicode="&#xe5;" 
d="M473 1171q0 51 35 88t86 37q55 0 89.5 -34.5t33.5 -90.5q-2 -50 -38 -86t-85 -36t-85 36t-36 86zM532 1108q26 -26 63.5 -26t63.5 26q26 29 26 66t-26 63q-26 29 -63.5 29t-63.5 -29q-26 -26 -26 -63t26 -66zM686 135v412q-178 -55 -252 -111q-73 -55 -76 -153
q-2 -57 25.5 -103t77.5 -63q114 -30 215 63q-8 -10 -60 -71q-14 -16 -65 -64q-82 -76 -205 -76q-130 0 -188 76q-59 77 -56 168q3 107 101 180q48 35 112 60q79 34 134 47l159 45q10 3 35.5 8.5t42.5 11.5v115q0 152 -48 220t-149 50q-31 -5 -50.5 -13.5t-37 -27t-27 -51.5
t-12.5 -84q0 -21 17 -72t18 -67q3 -73 -63.5 -108t-132 -2.5t-60.5 122.5q3 129 119 213q120 84 240 105q46 9 96 10t103.5 -6.5t100 -29t83.5 -53.5t56.5 -84.5t16.5 -117.5v-465q0 -134 86 -121q25 1 48.5 25t31.5 49l8 25q-14 -71 -55 -142q-53 -88 -182 -88
q-92 0 -149.5 45.5t-57.5 122.5z" />
    <glyph glyph-name="ae" unicode="&#xe6;" horiz-adv-x="1626" 
d="M735 160l-63 -56q-27 -25 -78 -65q-35 -24 -95 -44t-122 -20q-147 0 -213 72q-65 74 -62 168q2 63 27.5 111.5t57.5 78.5t104.5 59.5t125 45t161.5 43.5l73 18v115q0 149 -45 214.5t-127 57.5q-79 -7 -117.5 -57t-27.5 -129q1 -5 15.5 -49.5t15.5 -65.5q2 -52 -30.5 -88
t-88.5 -37q-56 -5 -93 35t-36 103q3 128 145 221q106 74 248 80q223 15 315 -127q0 6 45 39q46 34 84 51q94 46 240 37q160 -14 254 -132.5t90 -306.5h-620q0 -164 70 -270t202 -119q112 -12 208 32.5t138 135.5q-34 -129 -129 -229q-96 -96 -238 -102q-107 -3 -221 40
q-123 46 -205 154q-101 152 -92 385q-164 -62 -228 -123.5t-58 -163.5q5 -70 51.5 -120t118.5 -54q64 -5 104.5 7.5t95.5 54.5zM918 551q139 0 210 8q107 9 170 66q47 47 62 131q15 87 -37 151q-42 45 -115.5 44t-138.5 -50q-148 -109 -151 -350z" />
    <glyph glyph-name="ccedilla" unicode="&#xe7;" horiz-adv-x="1099" 
d="M1014 342q-21 -152 -131 -266q-107 -110 -283 -119l-33 -45q90 -6 132.5 -54t31.5 -114q-10 -62 -53 -98.5t-96 -42.5t-106.5 8.5t-84.5 46.5q58 -32 146 -10q85 21 94 94q6 56 -31.5 84t-101.5 33l67 98q-200 3 -340 137q-136 130 -139 359q-1 90 24 170.5t70.5 140
t108 106t134.5 69.5t150 29.5t156 -14.5q113 -25 188.5 -97t81.5 -167q4 -71 -33.5 -111.5t-101.5 -35.5q-66 1 -97.5 54.5t-12.5 123.5q58 227 -115 233q-168 3 -256 -143q-91 -151 -57 -344q25 -142 117.5 -227t232.5 -86q255 -6 338 188z" />
    <glyph glyph-name="egrave" unicode="&#xe8;" horiz-adv-x="1103" 
d="M592 1319l170 -268l-268 172q-35 23 -54.5 47.5t-21 44.5t4 35.5t17.5 25.5q24 34 69.5 19t82.5 -76zM694 147q117 0 199.5 49t118.5 138q-18 -156 -138 -264q-120 -105 -303 -99q-220 9 -348 146q-128 140 -131 348q-3 297 225 436q73 43 167.5 62t168.5 8
q160 -26 256 -140t92 -292h-663q0 -177 97.5 -283.5t258.5 -108.5zM485 911q-80 -56 -114 -166q-33 -103 -33 -192q170 0 242 10q103 15 163 78q55 52 52 154t-74 143q-40 27 -108.5 20t-127.5 -47z" />
    <glyph glyph-name="eacute" unicode="&#xe9;" horiz-adv-x="1103" 
d="M528 1053l170 268q37 61 82.5 76t69.5 -19q12 -10 18 -25.5t4 -35.5t-21 -44.5t-54 -47.5zM694 147q-161 2 -258.5 108.5t-97.5 283.5h663q4 178 -92 292t-256 140q-74 11 -168.5 -8t-167.5 -62q-228 -139 -225 -436q3 -208 131 -348q128 -137 348 -146q183 -6 303 99
q120 108 138 264q-36 -89 -118.5 -138t-199.5 -49zM485 911q59 40 127.5 47t108.5 -20q71 -41 74 -143t-52 -154q-60 -63 -163 -78q-72 -10 -242 -10q0 89 33 192q34 110 114 166z" />
    <glyph glyph-name="ecircumflex" unicode="&#xea;" horiz-adv-x="1103" 
d="M369 1008l170 282h139l141 -282l-211 188zM694 147q-161 2 -258.5 108.5t-97.5 283.5h663q4 178 -92 292t-256 140q-74 11 -168.5 -8t-167.5 -62q-228 -139 -225 -436q3 -208 131 -348q128 -137 348 -146q183 -6 303 99q120 108 138 264q-36 -89 -118.5 -138t-199.5 -49z
M485 911q59 40 127.5 47t108.5 -20q71 -41 74 -143t-52 -154q-60 -63 -163 -78q-72 -10 -242 -10q0 89 33 192q34 110 114 166z" />
    <glyph glyph-name="edieresis" unicode="&#xeb;" horiz-adv-x="1103" 
d="M360 1110q-54 0 -91.5 38.5t-37.5 94.5q0 50 37.5 85.5t91.5 35.5q55 0 93.5 -35.5t38.5 -85.5q0 -57 -38 -95t-94 -38zM827 1110q-52 0 -90.5 39t-38.5 94q0 49 39 85t90 36q55 0 93 -35.5t38 -85.5q0 -57 -37 -95t-94 -38zM694 147q117 0 199.5 49t118.5 138
q-18 -156 -138 -264q-120 -105 -303 -99q-220 9 -348 146q-128 140 -131 348q-3 297 225 436q73 43 167.5 62t168.5 8q160 -26 256 -140t92 -292h-663q0 -177 97.5 -283.5t258.5 -108.5zM485 911q-80 -56 -114 -166q-33 -103 -33 -192q170 0 242 10q103 15 163 78
q55 52 52 154t-74 143q-40 27 -108.5 20t-127.5 -47z" />
    <glyph glyph-name="igrave" unicode="&#xec;" horiz-adv-x="884" 
d="M600 1051l-268 172q-35 23 -54 47.5t-21 44.5t4 35.5t18 25.5q24 34 69 19t82 -76zM584 973v-774q0 -56 16.5 -97t36.5 -59.5t48.5 -29.5t41.5 -12t25 -1h-621q37 0 72 12q114 41 114 187v473q0 71 -45 88q-44 21 -71 0z" />
    <glyph glyph-name="iacute" unicode="&#xed;" horiz-adv-x="884" 
d="M612 1378q12 -10 17.5 -25.5t3.5 -35.5t-21.5 -44.5t-54.5 -47.5l-268 -172l170 268q25 40 55 60.5t55.5 19t42.5 -22.5zM584 973v-774q0 -56 16.5 -97t36.5 -59.5t48.5 -29.5t41.5 -12t25 -1h-621q37 0 72 12q114 41 114 187v473q0 71 -45 88q-44 21 -71 0z" />
    <glyph glyph-name="icircumflex" unicode="&#xee;" horiz-adv-x="884" 
d="M557 1290l139 -282l-209 188l-239 -188l170 282h139zM584 973v-774q0 -56 16.5 -97t36.5 -59.5t48.5 -29.5t41.5 -12t25 -1h-621q37 0 72 12q114 41 114 187v473q0 71 -45 88q-44 21 -71 0z" />
    <glyph glyph-name="idieresis" unicode="&#xef;" horiz-adv-x="884" 
d="M238 1110q-52 0 -90.5 39t-38.5 94q0 49 39 85t90 36q55 0 93 -35.5t38 -85.5q0 -57 -37.5 -95t-93.5 -38zM707 1364q55 0 92 -35.5t37 -85.5q0 -57 -37 -95t-92 -38q-54 0 -91.5 38.5t-37.5 94.5q0 50 37.5 85.5t91.5 35.5zM584 973v-774q0 -56 16.5 -97t36.5 -59.5
t48.5 -29.5t41.5 -12t25 -1h-621q37 0 72 12q114 41 114 187v473q0 71 -45 88q-44 21 -71 0z" />
    <glyph glyph-name="eth" unicode="&#xf0;" horiz-adv-x="1171" 
d="M1067 575q15 -247 -119 -419q-132 -169 -336 -181q-50 -3 -103.5 4.5t-116.5 33t-116 67t-97 114t-64 166.5q-46 223 49 388q99 163 293 213q74 18 142.5 14t102 -10.5t41.5 -10.5q-21 107 -61 201l-162 -92l-31 4l187 104q-76 172 -232 295q179 -81 326 -241l133 75
l-6 -24l-115 -66q264 -290 285 -635zM692 6q94 22 109 211q18 190 -25 367q-47 201 -125 301q-76 102 -176 49q-61 -32 -82 -137q-39 -174 8 -404q42 -201 122 -304.5t169 -82.5z" />
    <glyph glyph-name="ntilde" unicode="&#xf1;" horiz-adv-x="1296" 
d="M514 1204q-117 0 -147 -153q1 122 57.5 187.5t148.5 57.5q59 -6 129 -67q74 -59 123 -62q53 -5 97.5 35t56.5 107q0 -89 -49 -162q-47 -74 -129 -80q-42 -2 -77.5 11t-60 33t-46.5 40.5t-48.5 35.5t-54.5 17zM483 975v-776q0 -52 16 -93.5t38 -62.5q53 -43 116 -43h-602
q33 0 66 12q102 42 102 187v473q-1 43 -15 67t-34.5 27.5t-34.5 2.5t-24 -5zM1100 545v-346q0 -52 15.5 -94t37.5 -62q53 -43 117 -43h-602q33 0 63 12q103 42 103 187v198v60q0 161 -9 225q-6 63 -41 98q-46 46 -135 31q-88 -15 -151 -84q63 93 174 168q109 75 241 63
q122 -12 152 -102q24 -58 31 -131q4 -62 4 -72v-80v-28z" />
    <glyph glyph-name="ograve" unicode="&#xf2;" horiz-adv-x="1163" 
d="M608 1319l170 -268l-268 172q-35 23 -54 47.5t-21 44.5t4 35.5t18 25.5q24 34 69 19t82 -76zM621 -23q-140 -9 -289 60q-80 38 -141 121.5t-87 199.5q-44 210 58 379q101 168 303 221q238 55 414 -59q174 -113 198 -371q21 -231 -112 -385q-133 -151 -344 -166zM778 584
q-38 188 -123 299q-82 114 -186 51q-73 -45 -88 -217q-15 -176 25 -344q40 -199 124 -295.5t164 -71.5q63 21 90 121q51 175 -6 457z" />
    <glyph glyph-name="oacute" unicode="&#xf3;" horiz-adv-x="1163" 
d="M518 1053l170 268q24 40 54.5 60.5t56.5 19t43 -22.5q15 -15 20.5 -36t-12 -54t-64.5 -63zM621 -23q211 15 344 166q133 154 112 385q-24 258 -198 371q-176 114 -414 59q-202 -53 -303 -221q-102 -169 -58 -379q26 -116 87 -199.5t141 -121.5q149 -69 289 -60zM778 584
q57 -282 6 -457q-27 -100 -90 -121q-80 -25 -164 71.5t-124 295.5q-40 168 -25 344q15 172 88 217q104 63 186 -51q85 -111 123 -299z" />
    <glyph glyph-name="ocircumflex" unicode="&#xf4;" horiz-adv-x="1163" 
d="M383 1008l170 282h141l140 -282l-211 188zM621 -23q211 15 344 166q133 154 112 385q-24 258 -198 371q-176 114 -414 59q-202 -53 -303 -221q-102 -169 -58 -379q26 -116 87 -199.5t141 -121.5q149 -69 289 -60zM778 584q57 -282 6 -457q-27 -100 -90 -121
q-80 -25 -164 71.5t-124 295.5q-40 168 -25 344q15 172 88 217q104 63 186 -51q85 -111 123 -299z" />
    <glyph glyph-name="otilde" unicode="&#xf5;" horiz-adv-x="1163" 
d="M303 1051q1 121 58 187t149 58q59 -6 129 -67q74 -59 123 -62q52 -5 96.5 35t56.5 107q0 -89 -49 -162q-47 -74 -129 -80q-42 -2 -77.5 11t-59.5 33t-46 40.5t-48.5 35.5t-54.5 17q-118 0 -148 -153zM621 -23q211 15 344 166q133 154 112 385q-24 258 -198 371
q-176 114 -414 59q-202 -53 -303 -221q-102 -169 -58 -379q26 -116 87 -199.5t141 -121.5q149 -69 289 -60zM778 584q57 -282 6 -457q-27 -100 -90 -121q-80 -25 -164 71.5t-124 295.5q-40 168 -25 344q15 172 88 217q104 63 186 -51q85 -111 123 -299z" />
    <glyph glyph-name="odieresis" unicode="&#xf6;" horiz-adv-x="1163" 
d="M391 1110q-54 0 -91.5 38.5t-37.5 94.5q0 50 37.5 85.5t91.5 35.5q55 0 92 -35.5t37 -85.5q0 -57 -37 -95t-92 -38zM858 1110q-52 0 -90.5 39t-38.5 94q0 49 39 85t90 36q55 0 93 -35.5t38 -85.5q0 -57 -37 -95t-94 -38zM621 -23q-140 -9 -289 60q-80 38 -141 121.5
t-87 199.5q-44 210 58 379q101 168 303 221q238 55 414 -59q174 -113 198 -371q21 -231 -112 -385q-133 -151 -344 -166zM778 584q-38 188 -123 299q-82 114 -186 51q-73 -45 -88 -217q-15 -176 25 -344q40 -199 124 -295.5t164 -71.5q63 21 90 121q51 175 -6 457z" />
    <glyph glyph-name="divide" unicode="&#xf7;" horiz-adv-x="1073" 
d="M549 678q-43 0 -75 31t-32 75q0 41 32 72t75 31q41 0 72.5 -31t31.5 -72q0 -43 -31.5 -74.5t-72.5 -31.5zM123 532v19h827v-19h-827zM549 190q-43 0 -75 32t-32 73t32 72.5t75 31.5q41 0 72.5 -31.5t31.5 -72.5t-31.5 -73t-72.5 -32z" />
    <glyph glyph-name="oslash" unicode="&#xf8;" horiz-adv-x="1249" 
d="M1106 528q21 -230 -111 -383t-344 -168q-222 -15 -368 113l-82 -90h-27l94 104q-100 93 -135 254q-44 211 57 379t306 221q281 64 456 -94l54 60h24l-63 -72q118 -118 139 -324zM434 373q2 -20 17 -66l335 373q-48 155 -122 229q-78 77 -166 25q-73 -45 -88 -217
q-15 -179 24 -344zM723 6q63 21 90 121q52 182 -4 457q-2 14 -16 73l-336 -372q45 -156 120 -228.5t146 -50.5z" />
    <glyph glyph-name="ugrave" unicode="&#xf9;" horiz-adv-x="1191" 
d="M791 1051l-271 172q-35 23 -54 47.5t-21 44.5t4 35.5t18 25.5q17 21 42 22.5t55 -18.5t57 -61zM479 160q46 -46 144 -31q99 15 159 84q-71 -97 -182 -168q-115 -75 -250 -63q-114 11 -153 100q-23 67 -29 131q-4 44 -4 154v28v326q0 52 -15.5 94t-37.5 62q-49 43 -115 43
h434v-199v-178q0 -267 14 -322q11 -37 35 -61zM791 102v637q0 60 -22 102t-58 56q-60 23 -88 23h434v-682q0 -16 3.5 -29t8.5 -21t13 -14t14.5 -9t16.5 -4l15 -1.5t13 0.5h8l-358 -201v143z" />
    <glyph glyph-name="uacute" unicode="&#xfa;" horiz-adv-x="1191" 
d="M840 1378q12 -10 17.5 -25.5t4 -35.5t-21 -44.5t-54.5 -47.5l-270 -172l172 268q37 61 82.5 76t69.5 -19zM479 160q46 -46 144 -31q99 15 159 84q-71 -97 -182 -168q-115 -75 -250 -63q-114 11 -153 100q-23 67 -29 131q-4 44 -4 154v28v326q0 52 -15.5 94t-37.5 62
q-49 43 -115 43h434v-199v-178q0 -267 14 -322q11 -37 35 -61zM791 102v637q0 60 -22 102t-58 56q-60 23 -88 23h434v-682q0 -16 3.5 -29t8.5 -21t13 -14t14.5 -9t16.5 -4l15 -1.5t13 0.5h8l-358 -201v143z" />
    <glyph glyph-name="ucircumflex" unicode="&#xfb;" horiz-adv-x="1191" 
d="M694 1290l140 -282l-209 188l-240 -188l170 282h139zM479 160q46 -46 144 -31q99 15 159 84q-71 -97 -182 -168q-115 -75 -250 -63q-114 11 -153 100q-23 67 -29 131q-4 44 -4 154v28v326q0 52 -15.5 94t-37.5 62q-49 43 -115 43h434v-199v-178q0 -267 14 -322
q11 -37 35 -61zM791 102v637q0 60 -22 102t-58 56q-60 23 -88 23h434v-682q0 -16 3.5 -29t8.5 -21t13 -14t14.5 -9t16.5 -4l15 -1.5t13 0.5h8l-358 -201v143z" />
    <glyph glyph-name="udieresis" unicode="&#xfc;" horiz-adv-x="1191" 
d="M403 1110q-52 0 -90.5 39t-38.5 94q0 49 39 85t90 36q55 0 93.5 -35.5t38.5 -85.5q0 -57 -37.5 -95t-94.5 -38zM872 1110q-54 0 -91.5 38.5t-37.5 94.5q0 50 37.5 85.5t91.5 35.5q55 0 93.5 -35.5t38.5 -85.5q0 -57 -38 -95t-94 -38zM479 160q46 -46 144 -31
q99 15 159 84q-71 -97 -182 -168q-115 -75 -250 -63q-114 11 -153 100q-23 67 -29 131q-4 44 -4 154v28v326q0 52 -15.5 94t-37.5 62q-49 43 -115 43h434v-199v-178q0 -267 14 -322q11 -37 35 -61zM791 102v637q0 60 -22 102t-58 56q-60 23 -88 23h434v-682q0 -16 3.5 -29
t8.5 -21t13 -14t14.5 -9t16.5 -4l15 -1.5t13 0.5h8l-358 -201v143z" />
    <glyph glyph-name="yacute" unicode="&#xfd;" horiz-adv-x="944" 
d="M860 1378q12 -10 18 -25.5t4 -35.5t-21 -44.5t-54 -47.5l-270 -172l170 268q27 41 56.5 61t54.5 18.5t42 -22.5zM657 922h412q-104 -20 -176 -95q-43 -45 -70 -108l-327 -791l-80 -194q-42 -107 -93 -140t-128 -22q-49 7 -75 50.5t-14 94.5q21 81 111 78q31 -3 57 -37
q29 -33 41 -37q67 -27 111 82l55 140l-372 817q-30 67 -79 109t-89 49l-35 4h596q-16 0 -60 -15q-29 -10 -41 -28q-43 -61 -6 -127l176 -385q18 -41 45 -41q18 0 26 8t22 39l141 334l8 22q24 79 -23.5 133.5t-132.5 59.5z" />
    <glyph glyph-name="thorn" unicode="&#xfe;" horiz-adv-x="1177" 
d="M1094 483q3 -201 -125 -356q-128 -152 -293 -152q-146 0 -262 72v-334q0 -54 25 -90t65 -49q57 -20 98 -20h-641q39 0 96 20q42 12 66 48t24 91v1434q0 96 -63 106q-51 8 -74 0l404 228v-221v-846q0 -212 84 -328q83 -111 204 -90q96 5 129 194q10 44 7 103q0 72 -2 86
q0 9 -2 35t-3 41q-21 332 -200 385q-54 20 -105 2q-80 -32 -96 -64q15 34 70 99q33 42 88 68.5t117 27.5q166 3 276 -131q110 -131 113 -359z" />
    <glyph glyph-name="ydieresis" unicode="&#xff;" horiz-adv-x="944" 
d="M326 1110q-54 0 -91.5 38.5t-37.5 94.5q0 50 37.5 85.5t91.5 35.5q55 0 93 -35.5t38 -85.5q0 -57 -37.5 -95t-93.5 -38zM793 1110q-52 0 -90.5 39t-38.5 94q0 49 39 85t90 36q55 0 93 -35.5t38 -85.5q0 -57 -37 -95t-94 -38zM657 922h412q-104 -20 -176 -95
q-43 -45 -70 -108l-327 -791l-80 -194q-42 -107 -93 -140t-128 -22q-49 7 -75 50.5t-14 94.5q21 81 111 78q31 -3 57 -37q29 -33 41 -37q67 -27 111 82l55 140l-372 817q-30 67 -79 109t-89 49l-35 4h596q-16 0 -60 -15q-29 -10 -41 -28q-43 -61 -6 -127l176 -385
q18 -41 45 -41q18 0 26 8t22 39l141 334l8 22q24 79 -23.5 133.5t-132.5 59.5z" />
    <glyph glyph-name="Amacron" unicode="&#x100;" horiz-adv-x="1347" 
d="M463 1636l403 2v-22h-403v20zM653 1532l588 -1352q34 -75 92 -121q38 -27 71 -40.5t51 -16t44 -2.5h-805l7 2q7 1 20.5 4.5t29 9.5t32.5 16t32 22t26.5 30.5t17.5 40t3 50t-16 61.5l-125 317l-461 2l-119 -291q-42 -100 2 -178.5t154 -85.5h-475q76 5 151.5 70.5
t118.5 171.5l555 1308zM502 1059q-36 0 -119 -207l-111 -270h437l-121 317l-19 47q-49 107 -67 113zM1507 0h-8h8z" />
    <glyph glyph-name="amacron" unicode="&#x101;" 
d="M426 1106v20l403 2v-22h-403zM686 135v412q-178 -55 -252 -111q-73 -55 -76 -153q-2 -57 25.5 -103t77.5 -63q114 -30 215 63q-8 -10 -60 -71q-14 -16 -65 -64q-82 -76 -205 -76q-130 0 -188 76q-59 77 -56 168q3 107 101 180q48 35 112 60q79 34 134 47l159 45
q10 3 35.5 8.5t42.5 11.5v115q0 152 -48 220t-149 50q-31 -5 -50.5 -13.5t-37 -27t-27 -51.5t-12.5 -84q0 -21 17 -72t18 -67q3 -73 -63.5 -108t-132 -2.5t-60.5 122.5q3 129 119 213q120 84 240 105q46 9 96 10t103.5 -6.5t100 -29t83.5 -53.5t56.5 -84.5t16.5 -117.5v-465
q0 -134 86 -121q25 1 48.5 25t31.5 49l8 25q-14 -71 -55 -142q-53 -88 -182 -88q-92 0 -149.5 45.5t-57.5 122.5z" />
    <glyph glyph-name="Abreve" unicode="&#x102;" horiz-adv-x="1347" 
d="M668 1616q-94 0 -150.5 64t-58.5 159q13 -61 70 -94t135 -33q173 0 200 125q-3 -87 -53 -154q-52 -67 -143 -67zM653 1532l588 -1352q34 -75 92 -121q38 -27 71 -40.5t51 -16t44 -2.5h-805l7 2q7 1 20.5 4.5t29 9.5t32.5 16t32 22t26.5 30.5t17.5 40t3 50t-16 61.5
l-125 317l-461 2l-119 -291q-42 -100 2 -178.5t154 -85.5h-475q76 5 151.5 70.5t118.5 171.5l555 1308zM502 1059q-36 0 -119 -207l-111 -270h437l-121 317l-19 47q-49 107 -67 113zM1507 0h-8h8z" />
    <glyph glyph-name="abreve" unicode="&#x103;" 
d="M604 1180q174 0 201 125q-2 -91 -56 -157.5t-141 -66.5q-94 0 -150.5 65t-58.5 161q13 -61 70 -94t135 -33zM686 135q0 -77 57.5 -122.5t149.5 -45.5q129 0 182 88q41 71 55 142l-8 -25q-8 -25 -31.5 -49t-48.5 -25q-86 -13 -86 121v465q3 65 -16.5 117.5t-56.5 84.5
t-83.5 53.5t-100 29t-103.5 6.5t-96 -10q-120 -21 -240 -105q-116 -84 -119 -213q-5 -90 60.5 -122.5t132 2.5t63.5 108q-1 16 -18 67t-17 72q3 51 12.5 84t27 51.5t37 27t50.5 13.5q101 18 149 -50t48 -220v-115q-17 -6 -42.5 -11.5t-35.5 -8.5l-159 -45q-55 -13 -134 -47
q-64 -25 -112 -60q-98 -73 -101 -180q-3 -91 56 -168q58 -76 188 -76q123 0 205 76q51 48 65 64q52 61 60 71q-101 -93 -215 -63q-50 17 -77.5 63t-25.5 103q3 98 76 153q74 56 252 111v-412z" />
    <glyph glyph-name="Aogonek" unicode="&#x104;" horiz-adv-x="1347" 
d="M1499 0h-303q-123 -82 -92 -211q21 -81 94 -108q78 -28 127 4q-31 -34 -90 -49t-118.5 -7.5t-110.5 46.5t-66 104q-14 58 3.5 119t66.5 102h-316l7 2q7 1 20.5 4.5t29 9.5t32.5 16t32 22t26.5 30.5t17.5 40t3 50t-16 61.5l-125 317l-461 2l-119 -291q-42 -100 2 -178.5
t154 -85.5h-475q76 5 151.5 70.5t118.5 171.5l555 1308l6 -18l588 -1352q34 -75 92 -121q38 -27 71 -40.5t51 -16t44 -2.5zM502 1059q-36 0 -119 -207l-111 -270h437l-121 317l-19 47q-49 107 -67 113zM1507 0h-8h8z" />
    <glyph glyph-name="aogonek" unicode="&#x105;" 
d="M1042 98q25 1 48.5 25t31.5 49l8 25q-14 -71 -55 -142q-53 -88 -182 -88q-92 0 -149.5 45.5t-57.5 122.5v412q-178 -55 -252 -111q-73 -55 -76 -153q-2 -57 25.5 -103t77.5 -63q114 -30 215 63q-117 -146 -211 -188q-95 -95 -68 -209q21 -82 95 -109q77 -28 126 4
q-42 -47 -126 -57.5t-162 29.5t-97 123q-30 117 52 202q-92 18 -138.5 85.5t-44.5 152.5q3 107 101 180q48 35 112 60q79 34 134 47l159 45q10 3 35.5 8.5t42.5 11.5v115q0 152 -48 220t-149 50q-31 -5 -50.5 -13.5t-37 -27t-27 -51.5t-12.5 -84q0 -21 17 -72t18 -67
q3 -73 -63.5 -108t-132 -2.5t-60.5 122.5q3 129 119 213q120 84 240 105q46 9 96 10t103.5 -6.5t100 -29t83.5 -53.5t56.5 -84.5t16.5 -117.5v-465q0 -134 86 -121z" />
    <glyph glyph-name="Cacute" unicode="&#x106;" horiz-adv-x="1554" 
d="M756 1559l170 268q27 41 56.5 61t54.5 18.5t42 -22.5q12 -10 18 -25.5t4 -35.5t-21 -44.5t-54 -47.5zM428 756q-31 207 21 379q52 175 174 239q210 113 417 -41q206 -150 332 -403l4 403l-20 15q-57 37 -180 71q-171 45 -351 33q-201 -14 -359.5 -105.5t-258.5 -263.5
t-94 -407q4 -152 72.5 -293.5t185.5 -245.5q120 -106 291.5 -147.5t355.5 -1.5q93 22 173.5 72.5t125.5 105.5q46 55 72 115q43 88 47 125l-11 -25q-128 -217 -401 -211q-223 3 -393 162q-165 158 -203 424z" />
    <glyph glyph-name="cacute" unicode="&#x107;" horiz-adv-x="1099" 
d="M559 1053l170 268q37 61 82.5 76t69.5 -19q12 -10 17.5 -25.5t4 -35.5t-21 -44.5t-54.5 -47.5zM326 467q-34 193 57 344q88 146 256 143q173 -6 115 -233q-19 -70 12.5 -123.5t97.5 -54.5q64 -5 101.5 35.5t33.5 111.5q-6 95 -81.5 167t-188.5 97q-78 21 -156 14.5
t-150 -29.5t-134.5 -69.5t-108 -106t-70.5 -140t-24 -170.5q3 -226 141 -361q138 -132 346 -135q190 -3 304 111q116 116 137 274q-83 -194 -338 -188q-140 1 -232.5 86t-117.5 227z" />
    <glyph glyph-name="Cdotaccent" unicode="&#x10a;" horiz-adv-x="1554" 
d="M944 1667q-35 -37 -86 -37t-88 37q-37 38 -37 89.5t37 86.5q37 37 88 37t86 -37q37 -35 37 -86.5t-37 -89.5zM428 756q38 -266 203 -424q170 -159 393 -162q273 -6 401 211l11 25q-4 -37 -47 -125q-26 -60 -72 -115q-45 -55 -125.5 -105.5t-173.5 -72.5
q-184 -40 -355.5 1.5t-291.5 147.5q-117 104 -185.5 245.5t-72.5 293.5q-6 235 94 407t258.5 263.5t359.5 105.5q180 12 351 -33q123 -34 180 -71l20 -15l-4 -403q-126 253 -332 403q-207 154 -417 41q-122 -64 -174 -239q-52 -172 -21 -379z" />
    <glyph glyph-name="cdotaccent" unicode="&#x10b;" horiz-adv-x="1099" 
d="M635 1094q-55 0 -95 39.5t-40 93.5t40 93.5t95 39.5q54 0 92.5 -39.5t38.5 -93.5t-38.5 -93.5t-92.5 -39.5zM326 467q25 -142 117.5 -227t232.5 -86q255 -6 338 188q-21 -158 -137 -274q-114 -114 -304 -111q-208 3 -346 135q-138 135 -141 361q-1 90 24 170.5t70.5 140
t108 106t134.5 69.5t150 29.5t156 -14.5q113 -25 188.5 -97t81.5 -167q4 -71 -33.5 -111.5t-101.5 -35.5q-66 1 -97.5 54.5t-12.5 123.5q58 227 -115 233q-168 3 -256 -143q-91 -151 -57 -344z" />
    <glyph glyph-name="Ccaron" unicode="&#x10c;" horiz-adv-x="1554" 
d="M621 1827l239 -187l209 187l-139 -283h-139zM428 756q-31 207 21 379q52 175 174 239q210 113 417 -41q206 -150 332 -403l4 403l-20 15q-57 37 -180 71q-171 45 -351 33q-201 -14 -359.5 -105.5t-258.5 -263.5t-94 -407q4 -152 72.5 -293.5t185.5 -245.5
q120 -106 291.5 -147.5t355.5 -1.5q93 22 173.5 72.5t125.5 105.5q46 55 72 115q43 88 47 125l-11 -25q-128 -217 -401 -211q-223 3 -393 162q-165 158 -203 424z" />
    <glyph glyph-name="ccaron" unicode="&#x10d;" horiz-adv-x="1099" 
d="M422 1335l240 -188l208 188l-139 -282h-139zM326 467q-34 193 57 344q88 146 256 143q173 -6 115 -233q-19 -70 12.5 -123.5t97.5 -54.5q64 -5 101.5 35.5t33.5 111.5q-6 95 -81.5 167t-188.5 97q-78 21 -156 14.5t-150 -29.5t-134.5 -69.5t-108 -106t-70.5 -140
t-24 -170.5q3 -226 141 -361q138 -132 346 -135q190 -3 304 111q116 116 137 274q-83 -194 -338 -188q-140 1 -232.5 86t-117.5 227z" />
    <glyph glyph-name="Dcaron" unicode="&#x10e;" horiz-adv-x="1626" 
d="M911 1827l-139 -283h-141l-170 283l239 -187zM1503 745q0 -232 -94 -401q-178 -328 -580 -344h-92h-753q52 0 131 29q52 19 84 71t32 125v983q0 73 -32 125.5t-84 71.5q-79 29 -131 29h745q774 21 774 -689zM834 27q152 19 237.5 209.5t81.5 523.5q-6 620 -434 647
q-14 2 -72 2q-55 0 -69 -2v-1155q0 -227 165 -227q85 0 91 2z" />
    <glyph glyph-name="dcaron" unicode="&#x10f;" horiz-adv-x="1165" 
d="M418 1323q-55 -6 -97.5 28.5t-48.5 90.5q-6 57 28.5 98.5t88.5 46.5q50 6 92 -20l25 -23q16 -19 26 -45q20 -50 20 -123.5t-19 -150t-65 -149t-110 -115.5q73 63 109 174q40 111 18 213q-28 -22 -67 -25zM1130 170l37 6l-409 -229v491q0 218 -58 367q-59 155 -170 158
q-72 3 -118 -72q-71 -120 -52 -410q15 -146 74 -264q58 -116 156 -141q56 -12 100 11t60 58q-11 -35 -52 -92q-26 -38 -75 -61.5t-115 -24.5q-181 -6 -303 125q-123 132 -129 350q-9 248 121 387q134 143 315 146q70 2 140.5 -15.5t105.5 -46.5v224q0 75 -40.5 104t-92.5 10
l395 228v-1200q0 -59 34.5 -87.5t75.5 -21.5z" />
    <glyph glyph-name="Dcroat" unicode="&#x110;" horiz-adv-x="1685" 
d="M14 1434h746q774 21 774 -689q0 -347 -193 -540q-190 -193 -481 -205h-92h-754q52 0 131 29q53 19 85 71t32 125v496h-156l-24 18h180v469q0 73 -32.5 125.5t-84.5 71.5q-79 29 -131 29zM864 27q151 19 236.5 210t81.5 523q-6 620 -432 647q-70 3 -144 0v-668h187
l-19 -18h-168v-469q0 -227 166 -227q86 0 92 2z" />
    <glyph glyph-name="dslash" unicode="&#x111;" horiz-adv-x="1290" 
d="M1159 170l37 6l-408 -229v491q0 100 -13.5 191t-40 166.5t-71 121t-102.5 46.5q-73 3 -119 -72q-76 -129 -51 -410q18 -148 76 -264q58 -117 154 -141q104 -24 159 69q-13 -41 -51 -94q-26 -36 -76 -59.5t-114 -24.5q-181 -6 -306 125q-123 132 -129 350q-9 249 123 387
q134 143 316 146q70 2 140 -15.5t105 -46.5v172h-94v21h94v31q0 74 -42 103.5t-91 10.5l396 228v-371h125v-23h-125v-806q0 -59 33.5 -87.5t74.5 -21.5z" />
    <glyph glyph-name="Emacron" unicode="&#x112;" horiz-adv-x="1503" 
d="M524 1636l404 2v-22h-404v20zM1137 168q89 68 161.5 142t100.5 116l22 37l-92 -463h-1311q45 0 121 35q47 21 77 73t30 123v986q0 72 -29 121t-78 67q-73 29 -121 29h1254l69 -437q-72 132 -294 289q-101 72 -197 98.5t-234 26.5h-45v-655h37q65 1 120.5 21t91 47.5
t65 64.5t43.5 64.5t24 54.5l9 28v-606q-4 30 -41 102q-25 49 -64 91t-106.5 73t-141.5 31h-37v-485q0 -224 187 -224h24q75 0 173.5 43t181.5 107z" />
    <glyph glyph-name="emacron" unicode="&#x113;" horiz-adv-x="1103" 
d="M436 1106v20l404 2v-22h-404zM694 147q117 0 199.5 49t118.5 138q-18 -156 -138 -264q-120 -105 -303 -99q-220 9 -348 146q-128 140 -131 348q-3 297 225 436q73 43 167.5 62t168.5 8q160 -26 256 -140t92 -292h-663q0 -177 97.5 -283.5t258.5 -108.5zM485 911
q-80 -56 -114 -166q-33 -103 -33 -192q170 0 242 10q103 15 163 78q55 52 52 154t-74 143q-40 27 -108.5 20t-127.5 -47z" />
    <glyph glyph-name="Edotaccent" unicode="&#x116;" horiz-adv-x="1503" 
d="M834 1667q-35 -37 -86.5 -37t-88.5 37q-37 38 -37 89.5t37 86.5q37 37 88.5 37t86.5 -37q37 -35 37 -86.5t-37 -89.5zM1137 168q89 68 161.5 142t100.5 116l22 37l-92 -463h-1311q45 0 121 35q47 21 77 73t30 123v986q0 72 -29 121t-78 67q-73 29 -121 29h1254l69 -437
q-72 132 -294 289q-101 72 -197 98.5t-234 26.5h-45v-655h37q65 1 120.5 21t91 47.5t65 64.5t43.5 64.5t24 54.5l9 28v-606q-4 30 -41 102q-25 49 -64 91t-106.5 73t-141.5 31h-37v-485q0 -224 187 -224h24q75 0 173.5 43t181.5 107z" />
    <glyph glyph-name="edotaccent" unicode="&#x117;" horiz-adv-x="1103" 
d="M635 1094q-55 0 -95 39.5t-40 93.5q0 56 39 94.5t96 38.5q54 0 91.5 -39.5t37.5 -93.5t-37.5 -93.5t-91.5 -39.5zM694 147q117 0 199.5 49t118.5 138q-18 -156 -138 -264q-120 -105 -303 -99q-220 9 -348 146q-128 140 -131 348q-3 297 225 436q73 43 167.5 62t168.5 8
q160 -26 256 -140t92 -292h-663q0 -177 97.5 -283.5t258.5 -108.5zM485 911q-80 -56 -114 -166q-33 -103 -33 -192q170 0 242 10q103 15 163 78q55 52 52 154t-74 143q-40 27 -108.5 20t-127.5 -47z" />
    <glyph glyph-name="Eogonek" unicode="&#x118;" horiz-adv-x="1503" 
d="M1200 -217q21 -82 94 -109q78 -28 127 4q-42 -47 -126 -57.5t-162 29.5t-95 123q-35 139 76 227h-1096q45 0 121 35q47 21 77 73t30 123v986q0 72 -29 121t-78 67q-73 29 -121 29h1254l69 -437q-72 132 -294 289q-101 72 -197 98.5t-234 26.5h-45v-655h37q65 1 120.5 21
t91 47.5t65 64.5t43.5 64.5t24 54.5l9 28v-606q-4 30 -41 102q-25 49 -64 91t-106.5 73t-141.5 31h-37v-485q0 -224 187 -224h24q75 0 173.5 43t181.5 107q89 68 161.5 142t100.5 116l22 37l-92 -463h-29q-130 -84 -100 -217z" />
    <glyph glyph-name="eogonek" unicode="&#x119;" horiz-adv-x="1103" 
d="M645 -27q-92 -80 -65 -190q21 -82 94 -109q78 -28 127 4q-42 -47 -126 -57.5t-162 29.5t-97 123q-27 125 57 209q-175 36 -275.5 166.5t-105.5 316.5q-3 297 225 436q73 43 167.5 62t168.5 8q160 -26 256 -140t92 -292h-663q0 -177 97.5 -283.5t258.5 -108.5
q117 0 199.5 49t118.5 138q-18 -144 -116 -243.5t-251 -117.5zM485 911q-80 -56 -114 -166q-33 -103 -33 -192q170 0 242 10q103 15 163 78q55 52 52 154t-74 143q-40 27 -108.5 20t-127.5 -47z" />
    <glyph glyph-name="Ecaron" unicode="&#x11a;" horiz-adv-x="1503" 
d="M899 1827l-139 -283h-139l-170 283l237 -187zM1137 168q89 68 161.5 142t100.5 116l22 37l-92 -463h-1311q45 0 121 35q47 21 77 73t30 123v986q0 72 -29 121t-78 67q-73 29 -121 29h1254l69 -437q-72 132 -294 289q-101 72 -197 98.5t-234 26.5h-45v-655h37
q65 1 120.5 21t91 47.5t65 64.5t43.5 64.5t24 54.5l9 28v-606q-4 30 -41 102q-25 49 -64 91t-106.5 73t-141.5 31h-37v-485q0 -224 187 -224h24q75 0 173.5 43t181.5 107z" />
    <glyph glyph-name="ecaron" unicode="&#x11b;" horiz-adv-x="1103" 
d="M387 1335l238 -188l211 188l-140 -282h-139zM694 147q-161 2 -258.5 108.5t-97.5 283.5h663q4 178 -92 292t-256 140q-74 11 -168.5 -8t-167.5 -62q-228 -139 -225 -436q3 -208 131 -348q128 -137 348 -146q183 -6 303 99q120 108 138 264q-36 -89 -118.5 -138
t-199.5 -49zM485 911q59 40 127.5 47t108.5 -20q71 -41 74 -143t-52 -154q-60 -63 -163 -78q-72 -10 -242 -10q0 89 33 192q34 110 114 166z" />
    <glyph glyph-name="Gbreve" unicode="&#x11e;" horiz-adv-x="1593" 
d="M809 1712q174 0 201 125q-3 -86 -54 -154q-52 -67 -143 -67q-94 0 -150.5 64t-58.5 159q13 -61 70 -94t135 -33zM1544 598h-622l24 -2q21 -2 43.5 -8t53 -20.5t53.5 -35.5t39 -57t16 -80v-10v-72q0 -53 -8 -86q-16 -62 -33 -88q-29 -42 -72 -67q-58 -30 -127 -27
q-162 9 -305 193q-141 181 -182 481q-34 252 25 436q62 182 204 234q184 70 369 -62q108 -74 197 -194q86 -117 135 -224v430q-164 95 -434 107q-233 10 -441 -82q-111 -51 -200 -131q-90 -83 -143.5 -215.5t-53.5 -292.5q0 -327 186 -543q188 -215 500 -215q249 0 444 213
q31 -7 95 -80q67 -73 88 -137v432q0 40 8 73t21.5 53.5t29.5 36t31.5 23t29 11.5t21.5 5z" />
    <glyph glyph-name="gbreve" unicode="&#x11f;" horiz-adv-x="987" 
d="M555 1081q-94 0 -150.5 65t-58.5 161q13 -61 70 -94t135 -33q174 0 201 125q-2 -91 -56 -157.5t-141 -66.5zM993 1006q40 0 61 -24t13 -54q-8 -32 -38.5 -42t-80.5 9q-20 20 -39 28.5t-51.5 0.5t-73.5 -41q108 123 209 123zM573 168q339 -21 369 -227q27 -191 -104 -316
q-75 -71 -187.5 -109t-226.5 -28q-186 13 -293.5 91t-107.5 192q0 79 36.5 133t71.5 71l12 9q-35 -155 72 -234q110 -81 305 -108q131 -21 236 4q103 24 125 78q38 95 -66 157q-104 63 -264 60q-108 -1 -188 8t-142.5 29.5t-97 56.5t-41.5 88q-9 50 31 96q35 43 73.5 68
t94.5 49l-11 4q-200 86 -194 309q3 208 250 297q86 30 194 27q111 -3 187 -43q109 -51 155 -174q47 -124 0 -226q-33 -75 -88 -121.5t-151 -76.5q-169 -49 -322 -2q-47 -23 -55.5 -57.5t22.5 -63.5q24 -24 67.5 -32t126 -7.5t111.5 -1.5zM389 942q-65 -35 -74 -160
q-9 -132 35 -258q48 -124 115.5 -167.5t126.5 -8.5q50 24 59 111q16 134 -33 299q-42 129 -104.5 173t-124.5 11z" />
    <glyph glyph-name="Gdotaccent" unicode="&#x120;" horiz-adv-x="1593" 
d="M983 1667q-35 -37 -86 -37t-88 37q-37 38 -37 89.5t37 86.5q37 37 88 37t86 -37q37 -35 37 -86.5t-37 -89.5zM922 598h622q-6 0 -16 -1.5t-36 -13.5t-45.5 -31t-35.5 -60.5t-16 -96.5v-432q-21 64 -88 137q-64 73 -95 80q-195 -213 -444 -213q-312 0 -500 215
q-186 216 -186 543q0 160 53.5 292.5t143.5 215.5q89 80 200 131q208 92 441 82q270 -12 434 -107v-430q-49 107 -135 224q-89 120 -197 194q-185 132 -369 62q-142 -52 -204 -234q-59 -184 -25 -436q41 -300 182 -481q143 -184 305 -193q69 -3 127 27q43 25 72 67
q17 26 33 88q8 33 8 86v72v10q0 44 -16 80t-39 57t-53.5 35.5t-53 20.5t-43.5 8z" />
    <glyph glyph-name="gdotaccent" unicode="&#x121;" horiz-adv-x="987" 
d="M573 1094q-55 0 -95 39.5t-40 93.5t40 93.5t95 39.5q54 0 93 -39.5t39 -93.5t-39 -93.5t-93 -39.5zM993 1006q40 0 61 -24t13 -54q-8 -32 -38.5 -42t-80.5 9q-20 20 -39 28.5t-51.5 0.5t-73.5 -41q108 123 209 123zM573 168q339 -21 369 -227q27 -191 -104 -316
q-75 -71 -187.5 -109t-226.5 -28q-186 13 -293.5 91t-107.5 192q0 79 36.5 133t71.5 71l12 9q-35 -155 72 -234q110 -81 305 -108q131 -21 236 4q103 24 125 78q38 95 -66 157q-104 63 -264 60q-108 -1 -188 8t-142.5 29.5t-97 56.5t-41.5 88q-9 50 31 96q35 43 73.5 68
t94.5 49l-11 4q-200 86 -194 309q3 208 250 297q86 30 194 27q111 -3 187 -43q109 -51 155 -174q47 -124 0 -226q-33 -75 -88 -121.5t-151 -76.5q-169 -49 -322 -2q-47 -23 -55.5 -57.5t22.5 -63.5q24 -24 67.5 -32t126 -7.5t111.5 -1.5zM389 942q-65 -35 -74 -160
q-9 -132 35 -258q48 -124 115.5 -167.5t126.5 -8.5q50 24 59 111q16 134 -33 299q-42 129 -104.5 173t-124.5 11z" />
    <glyph glyph-name="Gcommaaccent" unicode="&#x122;" horiz-adv-x="1593" 
d="M946 596l-24 2h622q-6 0 -16 -1.5t-36 -13.5t-45.5 -31t-35.5 -60.5t-16 -96.5v-432q-21 64 -88 137q-64 73 -95 80q-195 -213 -444 -213q-312 0 -500 215q-186 216 -186 543q0 160 53.5 292.5t143.5 215.5q89 80 200 131q208 92 441 82q270 -12 434 -107v-430
q-49 107 -135 224q-89 120 -197 194q-185 132 -369 62q-142 -52 -204 -234q-59 -184 -25 -436q41 -300 182 -481q143 -184 305 -193q69 -3 127 27q43 25 72 67q17 26 33 88q8 33 8 86v72v10q0 44 -16 80t-39 57t-53.5 35.5t-53 20.5t-43.5 8zM915 -172q62 -35 74 -152
q15 -116 -39 -251t-155 -203q66 57 108 176q40 112 19 211q-28 -22 -68 -25q-55 -6 -97 28.5t-48 90.5q-6 57 27.5 99t88.5 46q48 6 90 -20z" />
    <glyph glyph-name="gcommaaccent" unicode="&#x123;" horiz-adv-x="987" 
d="M993 1006q40 0 61 -24t13 -54q-8 -32 -38.5 -42t-80.5 9q-20 20 -39 28.5t-51.5 0.5t-73.5 -41q108 123 209 123zM573 168q339 -21 369 -227q27 -191 -104 -316q-75 -71 -187.5 -109t-226.5 -28q-186 13 -293.5 91t-107.5 192q0 79 36.5 133t71.5 71l12 9
q-35 -155 72 -234q110 -81 305 -108q131 -21 236 4q103 24 125 78q38 95 -66 157q-104 63 -264 60q-108 -1 -188 8t-142.5 29.5t-97 56.5t-41.5 88q-9 50 31 96q35 43 73.5 68t94.5 49l-11 4q-200 86 -194 309q3 208 250 297q86 30 194 27q111 -3 187 -43q109 -51 155 -174
q47 -124 0 -226q-33 -75 -88 -121.5t-151 -76.5q-169 -49 -322 -2q-47 -23 -55.5 -57.5t22.5 -63.5q24 -24 67.5 -32t126 -7.5t111.5 -1.5zM389 942q-65 -35 -74 -160q-9 -132 35 -258q48 -124 115.5 -167.5t126.5 -8.5q50 24 59 111q16 134 -33 299q-42 129 -104.5 173
t-124.5 11zM602 -647l25 -23q16 -19 26 -45q20 -50 20 -123.5t-19 -150t-65 -149t-110 -115.5q67 59 109 176q39 111 18 211q-28 -22 -67 -25q-55 -6 -97.5 28.5t-48.5 90.5q-6 57 27.5 98.5t89.5 46.5q50 6 92 -20z" />
    <glyph glyph-name="Hbar" unicode="&#x126;" horiz-adv-x="1714" 
d="M1444 1098v-852q0 -63 19 -114.5t46 -78.5q40 -32 82 -43.5t64 -9.5h-744q15 0 31 2t49.5 15.5t58 37t45.5 73.5t23 118v481h-538v-481q0 -63 19 -114.5t46 -78.5q40 -32 82 -43.5t64 -9.5h-744q15 0 31 2t49.5 15.5t58 37t45.5 73.5t23 118v852h-180l-25 18h205v72
q0 82 -27 138t-71 77q-63 31 -111 31h746q-34 0 -84 -19q-52 -18 -89.5 -73.5t-37.5 -153.5v-72h538v72q0 82 -27 138t-71 77q-63 31 -111 31h746q-34 0 -84 -19q-52 -18 -89.5 -73.5t-37.5 -153.5v-72h211l-19 -18h-192zM580 1098v-342h538v342h-538z" />
    <glyph glyph-name="hbar" unicode="&#x127;" horiz-adv-x="1284" 
d="M1116 545v-346q0 -52 15.5 -94t37.5 -62q53 -43 117 -43h-1274q38 0 78 12q129 41 129 187v899h-86l-24 18h110v17q0 47 -10.5 77.5t-22 43t-32 15.5t-28 1.5l-22.5 -4.5l381 213v-363h158l-18 -18h-140v-899q0 -63 25 -107.5t65 -62.5q64 -29 113 -29q38 0 90 29
q34 18 54 62t20 108v198q0 259 -16 318q-9 42 -35 65q-46 46 -142 31q-95 -15 -155 -84q62 90 176 166q118 77 250 65q67 -5 102.5 -36.5t61.5 -87.5q13 -30 16 -80q4 -70 4 -84q2 -18 2 -92v-33z" />
    <glyph glyph-name="Imacron" unicode="&#x12a;" horiz-adv-x="888" 
d="M264 1636l404 2v-22h-404v20zM590 1188v-942q0 -63 21.5 -113.5t52.5 -77.5q71 -55 157 -55h-780q15 0 34 2.5t56 16t65 37.5t50 73.5t22 116.5v942q0 64 -21 114.5t-52 75.5q-29 26 -66 37q-52 19 -88 19h780q-51 0 -123 -31q-49 -21 -78.5 -77t-29.5 -138z" />
    <glyph glyph-name="imacron" unicode="&#x12b;" horiz-adv-x="884" 
d="M260 1126l404 2v-22h-404v20zM584 973v-774q0 -56 16.5 -97t36.5 -59.5t48.5 -29.5t41.5 -12t25 -1h-621q37 0 72 12q114 41 114 187v473q0 71 -45 88q-44 21 -71 0z" />
    <glyph glyph-name="Iogonek" unicode="&#x12e;" horiz-adv-x="888" 
d="M821 0h-178q-131 -82 -100 -217q21 -82 94 -109q78 -28 127 4q-42 -47 -125.5 -57.5t-161 29.5t-96.5 123q-35 139 76 227h-416q15 0 34 2.5t56 16t65 37.5t50 73.5t22 116.5v942q0 64 -21 114.5t-52 75.5q-29 26 -66 37q-52 19 -88 19h780q-51 0 -123 -31
q-49 -21 -78.5 -77t-29.5 -138v-942q0 -63 21.5 -113.5t52.5 -77.5q71 -55 157 -55z" />
    <glyph glyph-name="iogonek" unicode="&#x12f;" horiz-adv-x="884" 
d="M352 1192q0 50 37 86.5t88 36.5t87 -36.5t36 -86.5q0 -54 -36 -90.5t-87 -36.5t-88 38t-37 89zM549 -217q21 -82 94 -109q78 -28 127 4q-42 -47 -125.5 -57.5t-161 29.5t-96.5 123q-35 139 76 227h-332q37 0 72 12q114 41 114 187v473q0 71 -45 88q-44 21 -71 0l383 213
v-774q0 -56 16.5 -97t36.5 -59.5t48.5 -29.5t41.5 -12t25 -1h-103q-131 -82 -100 -217z" />
    <glyph glyph-name="Idot" unicode="&#x130;" horiz-adv-x="888" 
d="M539 1667q-35 -37 -86 -37t-88 37q-37 38 -37 89.5t37 86.5q37 37 88 37t86 -37q37 -35 37 -86.5t-37 -89.5zM590 1188v-942q0 -63 21.5 -113.5t52.5 -77.5q71 -55 157 -55h-780q15 0 34 2.5t56 16t65 37.5t50 73.5t22 116.5v942q0 64 -21 114.5t-52 75.5q-29 26 -66 37
q-52 19 -88 19h780q-51 0 -123 -31q-49 -21 -78.5 -77t-29.5 -138z" />
    <glyph glyph-name="dotlessi" unicode="&#x131;" horiz-adv-x="944" 
d="M614 973v-774q0 -56 16.5 -97t36.5 -59.5t48.5 -29.5t41.5 -12t25 -1h-620q36 0 71 12q115 42 115 187v473q0 36 -13 59t-32.5 30t-38.5 6.5t-33 -7.5z" />
    <glyph glyph-name="IJ" unicode="&#x132;" horiz-adv-x="2023" 
d="M590 1188v-942q0 -63 21.5 -113.5t52.5 -77.5q71 -55 157 -55h-780q15 0 34 2.5t56 16t65 37.5t50 73.5t22 116.5v942q0 64 -21 114.5t-52 75.5q-29 26 -66 37q-52 19 -88 19h780q-51 0 -123 -31q-49 -21 -78.5 -77t-29.5 -138zM1473 375v852q0 67 -24.5 114.5
t-64.5 65.5q-60 27 -102 27h707q-43 0 -103 -27q-39 -18 -63.5 -65.5t-24.5 -114.5v-865q0 -90 -33.5 -161.5t-85.5 -112.5q-52 -39 -118 -59q-61 -21 -111.5 -27t-122.5 -6q-111 0 -250 57q-76 33 -124.5 108t-49.5 175q-2 67 41.5 120.5t112.5 53.5q92 0 131.5 -70
t9.5 -166q-30 -108 12.5 -181t130.5 -73q82 -12 115 97q7 15 10 76q4 70 4 81q3 27 3 101z" />
    <glyph glyph-name="ij" unicode="&#x133;" horiz-adv-x="1353" 
d="M481 1079q-43 -44 -107 -44t-108 44q-44 47 -44 110.5t44 106.5q44 44 108 44t107 -44q44 -43 44 -106.5t-44 -110.5zM1169 1079q-43 -44 -107 -44t-108 44q-44 47 -44 110.5t44 106.5q44 44 108 44t107 -44q44 -43 44 -106.5t-44 -110.5zM942 -131v797q0 42 -14 67
t-35 30.5t-40 3.5t-36 -9l391 217v-1077q0 -95 -33.5 -164.5t-91.5 -102.5q-98 -57 -231 -57q-163 0 -265 66t-102 184q0 50 38 89.5t85 39.5q70 0 107.5 -64.5t25.5 -148.5q-6 -94 41 -129q49 -37 95 -19q44 15 53 66q12 50 12 211zM686 0h-620q36 0 71 12q115 42 115 187
v473q0 71 -45 88q-44 21 -72 0l383 213v-774q0 -56 16.5 -97t36.5 -59.5t48.5 -29.5t41.5 -12t25 -1z" />
    <glyph glyph-name="Kcommaaccent" unicode="&#x136;" horiz-adv-x="1437" 
d="M750 0h-746q45 0 113 31q43 20 69.5 66t26.5 110v1020q0 67 -27 114.5t-71 65.5q-65 27 -111 27h746q-46 0 -113 -27q-44 -18 -71 -65.5t-27 -114.5v-1020q0 -64 26.5 -110t69.5 -66q71 -31 115 -31zM844 1427h14h-14zM889 758l323 -424q91 -119 179 -207t129 -111
l36 -20l-458 4l-168 215l-275 363q-19 25 -37.5 38.5t-30.5 15.5t-22.5 -1.5t-15 -7.5t-6.5 -7l440 527q58 77 46.5 138.5t-61 101.5t-110.5 44h551l-12 -2q-143 -40 -297 -194l-60 -62l-28 -34l-138 -164q-35 -38 -38 -86q0 -40 10 -62t43 -65zM918 -170q63 -34 75 -149
q15 -118 -37 -252q-53 -138 -155 -207q67 59 106 176q40 112 19 211q-28 -22 -68 -25q-55 -6 -97 28.5t-48 90.5q-6 57 28 98.5t88 46.5q48 6 89 -18z" />
    <glyph glyph-name="kcommaaccent" unicode="&#x137;" horiz-adv-x="1087" 
d="M602 0h-600q11 0 26 2t45.5 13t54 30t42 59.5t18.5 94.5v964q0 63 -35.5 92.5t-84.5 4.5l389 219l-2 -1280q0 -54 14.5 -94.5t33 -59.5t42.5 -30t36 -13t21 -2zM457 420l217 254q74 80 26 170q-47 93 -172 96h566q-51 -9 -183 -90q-126 -75 -194 -152l-35 -36
q-16 -22 -16 -46q0 -6 0.5 -9.5t1.5 -8t1.5 -6.5t2.5 -6.5t3 -6.5t4.5 -8t5.5 -8.5t8 -11.5t9 -14l43 -68l84 -129l99 -137q60 -80 86 -103q39 -36 86.5 -63t79.5 -33l26 -4h-588q48 0 63 35t-15 86l-50 76q-90 147 -127 184q-4 6 -8.5 12t-7 10t-5 7.5t-4 5.5t-3.5 3t-4 1z
M684 -170q64 -34 76 -149q15 -118 -37 -252q-52 -137 -156 -207q69 60 107 176q39 111 18 211q-28 -22 -67 -25q-55 -6 -97.5 28.5t-48.5 90.5q-6 57 28.5 98.5t88.5 46.5q47 6 88 -18z" />
    <glyph glyph-name="Lacute" unicode="&#x139;" horiz-adv-x="1456" 
d="M668 1884q12 -10 17.5 -25.5t4 -35.5t-21 -44.5t-54.5 -47.5l-270 -172l170 268q27 41 57 61t55 18.5t42 -22.5zM743 18h19q161 0 366 175q210 179 267 317l-103 -510h-1288q39 0 88 18q60 22 99.5 81.5t39.5 166.5v922q0 82 -27 138t-71 77q-63 31 -110 31h743
q-34 0 -84 -19q-52 -18 -89.5 -73.5t-37.5 -153.5v-928q0 -242 188 -242z" />
    <glyph glyph-name="lacute" unicode="&#x13a;" horiz-adv-x="624" 
d="M489 1849q11 -11 16.5 -25t4 -33.5t-20.5 -44t-55 -48.5l-268 -172l170 268q25 40 55 60.5t55.5 18.5t42.5 -24zM434 1479v-1280q0 -65 28 -111.5t73 -64.5q75 -23 108 -23h-680q38 0 78 12q127 43 127 187v934q0 47 -10 77.5t-21.5 43t-31.5 15.5t-27.5 2t-22.5 -5z" />
    <glyph glyph-name="Lcommaaccent" unicode="&#x13b;" horiz-adv-x="1456" 
d="M743 18h19q161 0 366 175q210 179 267 317l-103 -510h-1288q39 0 88 18q60 22 99.5 81.5t39.5 166.5v922q0 82 -27 138t-71 77q-63 31 -110 31h743q-34 0 -84 -19q-52 -18 -89.5 -73.5t-37.5 -153.5v-928q0 -242 188 -242zM840 -172q61 -34 73 -152q15 -116 -39 -251
t-155 -203q66 57 108 176q40 112 19 211q-28 -22 -68 -25q-55 -6 -97 28.5t-48 90.5q-6 57 27.5 98.5t89.5 46.5q48 6 90 -20z" />
    <glyph glyph-name="lcommaaccent" unicode="&#x13c;" horiz-adv-x="624" 
d="M434 1479v-1280q0 -65 28 -111.5t73 -64.5q75 -23 108 -23h-680q38 0 78 12q127 43 127 187v934q0 47 -10 77.5t-21.5 43t-31.5 15.5t-27.5 2t-22.5 -5zM430 -170q63 -34 78 -149q15 -114 -39 -252q-52 -137 -156 -207q69 60 107 176q39 111 18 211q-28 -22 -67 -25
q-55 -6 -97 28.5t-47 90.5q-6 57 27.5 98.5t89.5 46.5q46 6 86 -18z" />
    <glyph glyph-name="Lcaron" unicode="&#x13d;" horiz-adv-x="1456" 
d="M946 1323q-55 -6 -97 28.5t-48 90.5q-6 57 28.5 98.5t88.5 46.5q50 6 92 -20l24 -23q18 -21 27 -45q20 -50 20 -123.5t-19 -150t-65 -149t-110 -115.5q71 62 108 174q40 113 19 213q-28 -22 -68 -25zM743 18h19q161 0 366 175q210 179 267 317l-103 -510h-1288
q39 0 88 18q60 22 99.5 81.5t39.5 166.5v922q0 82 -27 138t-71 77q-63 31 -110 31h743q-34 0 -84 -19q-52 -18 -89.5 -73.5t-37.5 -153.5v-928q0 -242 188 -242z" />
    <glyph glyph-name="lcaron" unicode="&#x13e;" horiz-adv-x="624" 
d="M831 1499q20 -50 20 -123.5t-19 -150t-65 -149t-110 -115.5q73 63 109 174q40 111 18 213q-28 -22 -67 -25q-55 -6 -97.5 28.5t-48.5 90.5q-6 57 28.5 98.5t88.5 46.5q50 6 92 -20l25 -23q16 -19 26 -45zM434 1479v-1280q0 -65 28 -111.5t73 -64.5q75 -23 108 -23h-680
q38 0 78 12q127 43 127 187v934q0 47 -10 77.5t-21.5 43t-31.5 15.5t-27.5 2t-22.5 -5z" />
    <glyph glyph-name="Ldot" unicode="&#x13f;" horiz-adv-x="1456" 
d="M743 18h19q161 0 366 175q210 179 267 317l-103 -510h-1288q39 0 88 18q60 22 99.5 81.5t39.5 166.5v922q0 82 -27 138t-71 77q-63 31 -110 31h743q-34 0 -84 -19q-52 -18 -89.5 -73.5t-37.5 -153.5v-928q0 -242 188 -242zM1012 707q-32 -32 -80 -32t-80 32
q-31 32 -31 79.5t31 79.5q32 32 80 32t80 -32q35 -32 35 -79.5t-35 -79.5z" />
    <glyph glyph-name="ldot" unicode="&#x140;" horiz-adv-x="940" 
d="M494 1479v-1280q0 -52 20 -93.5t47 -62.5q41 -27 81.5 -36t59.5 -7h-679q37 0 77 12q127 43 127 187v934q0 47 -10 77.5t-21.5 43t-31.5 15.5t-27 2t-22 -5zM625 866q32 32 79.5 32t79.5 -32q35 -32 35 -79.5t-35 -79.5q-32 -32 -79.5 -32t-79.5 32q-31 32 -31 79.5
t31 79.5z" />
    <glyph glyph-name="Lslash" unicode="&#x141;" horiz-adv-x="1495" 
d="M772 18h19q161 0 366 175q210 177 268 317l-104 -510h-1288q44 0 121 33q49 24 78.5 84.5t29.5 148.5v549l-137 -53l-33 8l170 66v352q0 82 -27 138t-71 77q-63 31 -111 31h744q-34 0 -84 -19q-52 -18 -89.5 -73.5t-37.5 -153.5v-230l180 70l-10 -24l-170 -66v-678
q0 -242 186 -242z" />
    <glyph glyph-name="lslash" unicode="&#x142;" horiz-adv-x="743" 
d="M465 907v-708q0 -52 19 -94t46 -62q30 -20 62 -31q42 -12 80 -12h-680q38 0 78 12q129 41 129 187v606l-113 -43l-33 8l146 55v308q0 47 -10 77.5t-21.5 43t-31.5 15.5t-27.5 2t-22.5 -5l379 213v-551l197 76l-11 -25z" />
    <glyph glyph-name="Nacute" unicode="&#x143;" horiz-adv-x="1632" 
d="M1176 1884q12 -10 17.5 -25.5t4 -35.5t-21 -44.5t-54.5 -47.5l-268 -172l170 268q37 61 82.5 76t69.5 -19zM1311 621v499q0 78 -25.5 141.5t-62.5 94.5q-36 31 -82 49q-55 25 -115 29h600q-55 -4 -117 -27q-34 -14 -62 -35t-54 -54t-41 -84t-15 -114v-1177l-936 1108
q-41 43 -62.5 28t-21.5 -80v-661q-1 -72 19.5 -130t49.5 -92t68.5 -59.5t67.5 -36t56 -16.5l30 -4h-610q29 0 100 29q80 28 134.5 104t58.5 205v680q0 69 -11 128t-28.5 99.5t-41 73.5t-45.5 52t-46.5 33t-39 19.5t-26.5 8.5l-8 2h481l713 -852q34 -40 51 -37q21 3 21 76z
M1337 -57v-2h-2z" />
    <glyph glyph-name="nacute" unicode="&#x144;" horiz-adv-x="1296" 
d="M891 1378q12 -10 17.5 -25.5t3.5 -35.5t-21.5 -44.5t-54.5 -47.5l-269 -172l170 268q24 40 54.5 60.5t56.5 19t43 -22.5zM483 975v-776q0 -52 16 -93.5t38 -62.5q53 -43 116 -43h-602q33 0 66 12q102 42 102 187v473q-1 43 -15 67t-34.5 27.5t-34.5 2.5t-24 -5zM1100 545
v-346q0 -52 15.5 -94t37.5 -62q53 -43 117 -43h-602q33 0 63 12q103 42 103 187v198v60q0 161 -9 225q-6 63 -41 98q-46 46 -135 31q-88 -15 -151 -84q63 93 174 168q109 75 241 63q122 -12 152 -102q24 -58 31 -131q4 -62 4 -72v-80v-28z" />
    <glyph glyph-name="Ncommaaccent" unicode="&#x145;" horiz-adv-x="1632" 
d="M1311 621v499q0 78 -25.5 141.5t-62.5 94.5q-36 31 -82 49q-55 25 -115 29h600q-55 -4 -117 -27q-34 -14 -62 -35t-54 -54t-41 -84t-15 -114v-1177l-936 1108q-41 43 -62.5 28t-21.5 -80v-661q-1 -72 19.5 -130t49.5 -92t68.5 -59.5t67.5 -36t56 -16.5l30 -4h-610
q29 0 100 29q80 28 134.5 104t58.5 205v680q0 69 -11 128t-28.5 99.5t-41 73.5t-45.5 52t-46.5 33t-39 19.5t-26.5 8.5l-8 2h481l713 -852q34 -40 51 -37q21 3 21 76zM1337 -57v-2h-2zM891 -170q63 -34 78 -149q15 -114 -39 -252q-52 -137 -156 -207q69 60 107 176
q39 111 18 211q-28 -22 -68 -25q-55 -6 -96 28.5t-47 90.5q-6 57 27.5 98.5t89.5 46.5q46 6 86 -18z" />
    <glyph glyph-name="ncommaaccent" unicode="&#x146;" horiz-adv-x="1296" 
d="M653 0h-602q33 0 66 12q102 42 102 187v473q-1 43 -15 67t-34.5 27.5t-34.5 2.5t-24 -5l372 211v-776q0 -52 16 -93.5t38 -62.5q53 -43 116 -43zM1100 545v-346q0 -52 15.5 -94t37.5 -62q53 -43 117 -43h-602q33 0 63 12q103 42 103 187v198v60q0 161 -9 225
q-6 63 -41 98q-46 46 -135 31q-88 -15 -151 -84q63 93 174 168q109 75 241 63q122 -12 152 -102q24 -58 31 -131q4 -62 4 -72v-80v-28zM752 -172l24 -23q18 -21 27 -45q20 -50 20 -123.5t-19 -150t-65 -149t-110 -115.5q70 61 108 176q40 112 19 211q-28 -22 -68 -25
q-55 -6 -97 28.5t-48 90.5q-6 57 28 98.5t88 46.5q51 6 93 -20z" />
    <glyph glyph-name="Ncaron" unicode="&#x147;" horiz-adv-x="1632" 
d="M1071 1827l-141 -283h-139l-170 283l239 -187zM1311 621v499q0 78 -25.5 141.5t-62.5 94.5q-36 31 -82 49q-55 25 -115 29h600q-55 -4 -117 -27q-34 -14 -62 -35t-54 -54t-41 -84t-15 -114v-1177l-936 1108q-41 43 -62.5 28t-21.5 -80v-661q-1 -72 19.5 -130t49.5 -92
t68.5 -59.5t67.5 -36t56 -16.5l30 -4h-610q29 0 100 29q80 28 134.5 104t58.5 205v680q0 69 -11 128t-28.5 99.5t-41 73.5t-45.5 52t-46.5 33t-39 19.5t-26.5 8.5l-8 2h481l713 -852q34 -40 51 -37q21 3 21 76zM1337 -57v-2h-2z" />
    <glyph glyph-name="ncaron" unicode="&#x148;" horiz-adv-x="1296" 
d="M862 1335l-139 -282h-139l-170 282l237 -188zM483 975v-776q0 -52 16 -93.5t38 -62.5q53 -43 116 -43h-602q33 0 66 12q102 42 102 187v473q-1 43 -15 67t-34.5 27.5t-34.5 2.5t-24 -5zM1100 545v-346q0 -52 15.5 -94t37.5 -62q53 -43 117 -43h-602q33 0 63 12
q103 42 103 187v198v60q0 161 -9 225q-6 63 -41 98q-46 46 -135 31q-88 -15 -151 -84q63 93 174 168q109 75 241 63q122 -12 152 -102q24 -58 31 -131q4 -62 4 -72v-80v-28z" />
    <glyph glyph-name="Eng" unicode="&#x14a;" horiz-adv-x="1712" 
d="M1341 621v499q0 78 -25.5 141.5t-62.5 94.5q-36 31 -82 49q-55 25 -114 29h600q-55 -4 -117 -27q-34 -14 -62 -35t-54 -54t-41 -84t-15 -114v-1222q0 -95 -33.5 -164.5t-91.5 -102.5q-101 -57 -233 -57q-153 0 -260 66q-105 64 -105 184q0 50 38 89.5t85 39.5
q70 0 107.5 -64.5t25.5 -148.5q-6 -94 41 -129q48 -37 94 -19q45 16 54 66q12 49 12 211v207q0 178 -193 407l-12 13h2l-469 555q-41 43 -62.5 28t-21.5 -80v-661q-1 -72 19.5 -130t49 -92t68 -59.5t67.5 -36t56 -16.5l31 -4h-610q29 0 100 29q80 28 134 104t58 205v680
q0 69 -11 128t-28 99.5t-40.5 73.5t-45 52t-45.5 33t-38.5 19.5t-26.5 8.5l-8 2h481l711 -852q37 -40 53 -37q20 3 20 76z" />
    <glyph glyph-name="eng" unicode="&#x14b;" horiz-adv-x="1273" 
d="M662 0h-601q34 0 64 12q102 42 102 187v473q0 85 -49 94q-34 7 -57 -2l373 211v-776q0 -52 15.5 -94t37.5 -62q49 -43 115 -43zM924 958q121 -12 151 -102q24 -58 31 -131q4 -62 4 -72v-80v-28v-721q0 -96 -27.5 -170t-69.5 -117.5t-99 -71.5t-108.5 -37.5t-105.5 -9.5
q-116 0 -251 58q-77 34 -125.5 107.5t-49.5 172.5q-2 67 41.5 120.5t112.5 53.5q94 0 132 -68.5t11 -164.5q-32 -117 7.5 -186.5t136.5 -69.5q43 -8 71.5 48t40.5 138q8 38 11 119q4 102 4 115q2 25 2 112v424q0 261 -15 320q-12 41 -34 63q-46 46 -136 31q-88 -15 -151 -84
q63 93 174 168q109 75 242 63z" />
    <glyph glyph-name="Omacron" unicode="&#x14c;" horiz-adv-x="1714" 
d="M659 1591v21l404 2v-23h-404zM889 1452q173 0 309.5 -62.5t216.5 -170.5q159 -212 156 -504q-2 -114 -32 -220.5t-91 -200.5t-147.5 -164t-209 -110t-266.5 -38q-172 1 -312.5 70.5t-225.5 183.5q-169 228 -160 495q3 320 217 522q217 202 545 199zM1188 764
q-37 282 -164 483q-125 197 -297 170q-136 -21 -201 -211q-62 -189 -22 -475q40 -282 162 -491q125 -208 284 -220q165 -15 224 187q61 200 14 557z" />
    <glyph glyph-name="omacron" unicode="&#x14d;" horiz-adv-x="1163" 
d="M410 1106v20l403 2v-22h-403zM621 -23q-140 -9 -289 60q-80 38 -141 121.5t-87 199.5q-44 210 58 379q101 168 303 221q238 55 414 -59q174 -113 198 -371q21 -231 -112 -385q-133 -151 -344 -166zM778 584q-38 188 -123 299q-82 114 -186 51q-73 -45 -88 -217
q-15 -176 25 -344q40 -199 124 -295.5t164 -71.5q63 21 90 121q51 175 -6 457z" />
    <glyph glyph-name="Ohungarumlaut" unicode="&#x150;" horiz-adv-x="1714" 
d="M588 1550l170 271q40 61 85 75t68 -20q12 -10 18 -25.5t4 -35.5t-21 -45t-54 -48zM879 1550l170 271q25 40 54.5 60.5t55 18.5t41.5 -24q12 -10 18 -25.5t4 -35.5t-21 -45t-54 -48zM889 1452q-328 3 -545 -199q-214 -202 -217 -522q-9 -267 160 -495
q85 -114 225.5 -183.5t312.5 -70.5q144 -2 266.5 38t209 110t147.5 164t91 200.5t32 220.5q3 292 -156 504q-80 108 -216.5 170.5t-309.5 62.5zM1188 764q47 -357 -14 -557q-59 -202 -224 -187q-159 12 -284 220q-122 209 -162 491q-40 286 22 475q65 190 201 211
q172 27 297 -170q127 -201 164 -483z" />
    <glyph glyph-name="ohungarumlaut" unicode="&#x151;" horiz-adv-x="1163" 
d="M416 1053l170 268q25 40 55 60.5t55.5 19t42.5 -22.5q12 -10 17.5 -25.5t3.5 -35.5t-21.5 -44.5t-54.5 -47.5zM664 1053l170 268q27 41 56.5 61t54.5 18.5t42 -22.5q12 -10 18 -25.5t4 -35.5t-21 -44.5t-54 -47.5zM621 -23q211 15 344 166q133 154 112 385
q-24 258 -198 371q-176 114 -414 59q-202 -53 -303 -221q-102 -169 -58 -379q26 -116 87 -199.5t141 -121.5q149 -69 289 -60zM778 584q57 -282 6 -457q-27 -100 -90 -121q-80 -25 -164 71.5t-124 295.5q-40 168 -25 344q15 172 88 217q104 63 186 -51q85 -111 123 -299z
" />
    <glyph glyph-name="OE" unicode="&#x152;" horiz-adv-x="2336" 
d="M1970 168q89 68 161.5 142t100.5 116l23 37l-92 -463h-957q-82 0 -186 -8q-127 -10 -160 -10q-141 2 -260.5 48.5t-200 122.5t-136 173.5t-79.5 200.5t-20 204q3 320 217 522t543 199q25 0 155 -10q107 -8 150 -8h874l72 -437q-30 56 -112.5 136t-184.5 153
q-102 72 -197 98.5t-233 26.5h-43v-655h35q65 1 120.5 21t91 47.5t65 64.5t43.5 64.5t24 54.5l8 28v-606q-4 30 -41 102q-27 52 -63 91q-39 42 -106.5 73t-141.5 31h-35v-485q0 -224 186 -224h25q72 0 170.5 43t183.5 107zM535 766q19 -174 75 -338q57 -166 148 -289
q86 -117 184 -114q137 6 137 208v930q0 218 -172 248q-194 31 -294.5 -139t-77.5 -506z" />
    <glyph glyph-name="oe" unicode="&#x153;" horiz-adv-x="1816" 
d="M1415 143q117 -6 202 42t118 137q-102 -348 -414 -345q-246 3 -385 160q-133 -148 -338 -160q-140 -9 -289 60q-80 38 -140.5 121.5t-86.5 199.5q-44 211 57 379t303 221q152 37 284 1t218 -138q39 42 109 88q65 41 161 56t168 6q159 -26 255 -140t92 -292h-650
q0 -97 27 -174q77 -213 309 -222zM672 6q63 21 90 121q51 175 -6 457q-38 188 -123 299q-83 114 -187 51q-73 -45 -88 -217q-15 -176 25 -344q40 -199 124.5 -295.5t164.5 -71.5zM1219 915q-82 -57 -111 -163q-29 -116 -29 -199q146 0 219 8q116 9 175 74q31 33 42.5 93
t-6 120t-63.5 86q-107 61 -227 -19z" />
    <glyph glyph-name="Racute" unicode="&#x154;" horiz-adv-x="1413" 
d="M907 1884q12 -10 18 -25.5t4 -35.5t-21 -44.5t-54 -47.5l-270 -172l170 268q27 41 56.5 61t54.5 18.5t42 -22.5zM1128 467l111 -207q32 -61 71 -110t75 -77.5t62.5 -44t47.5 -22.5l16 -6h-462q-81 118 -142 231l-157 295q-82 162 -193 162h-16l-4 -561q0 -54 34 -88
q23 -19 46 -28t34.5 -10t36.5 -1h-686q46 0 111 27q44 18 71 65.5t27 114.5v1020q0 54 -21.5 96.5t-52.5 62.5q-27 19 -60 31.5t-52.5 15.5t-22.5 1q106 0 299 8q218 9 332 6q212 -5 328.5 -32.5t181.5 -96.5q91 -91 88 -256q0 -165 -113 -266q-13 -12 -28 -23t-28 -19.5
t-26.5 -16.5t-25 -14t-22.5 -11t-18.5 -7.5t-14 -5t-9.5 -2.5h-2q6 0 23 -10q23 -13 69.5 -73.5t91.5 -147.5zM713 739q213 74 213 338q0 194 -96 278t-293 72l4 -714q98 0 172 26z" />
    <glyph glyph-name="racute" unicode="&#x155;" horiz-adv-x="948" 
d="M739 1378q12 -10 17.5 -25.5t3.5 -35.5t-21.5 -44.5t-54.5 -47.5l-268 -172l170 268q25 40 55 60.5t55.5 19t42.5 -22.5zM799 969q73 -1 110 -46.5t37 -105.5q0 -56 -30.5 -96t-88.5 -41q-31 -3 -59 10.5t-44.5 31.5t-34.5 40t-27 29q-96 72 -185 -58v-553
q0 -60 25 -101.5t65 -55.5q65 -23 99 -23h-639q31 0 96 23q42 14 66 55t24 102v27v465q0 119 -102 98l366 205v-135v-47v-27q49 90 140 147.5t182 55.5zM446 682v-2v2z" />
    <glyph glyph-name="Rcommaaccent" unicode="&#x156;" horiz-adv-x="1413" 
d="M1128 467l111 -207q32 -61 71 -110t75 -77.5t62.5 -44t47.5 -22.5l16 -6h-462q-81 118 -142 231l-157 295q-82 162 -193 162h-16l-4 -561q0 -54 34 -88q23 -19 46 -28t34.5 -10t36.5 -1h-686q46 0 111 27q44 18 71 65.5t27 114.5v1020q0 54 -21.5 96.5t-52.5 62.5
q-27 19 -60 31.5t-52.5 15.5t-22.5 1q106 0 299 8q218 9 332 6q212 -5 328.5 -32.5t181.5 -96.5q91 -91 88 -256q0 -165 -113 -266q-13 -12 -28 -23t-28 -19.5t-26.5 -16.5t-25 -14t-22.5 -11t-18.5 -7.5t-14 -5t-9.5 -2.5h-2q6 0 23 -10q23 -13 69.5 -73.5t91.5 -147.5z
M713 739q213 74 213 338q0 194 -96 278t-293 72l4 -714q98 0 172 26zM866 -170q63 -34 78 -149q15 -114 -39 -252q-53 -138 -155 -207q67 59 106 176q39 111 18 211q-28 -22 -67 -25q-55 -6 -97 28.5t-48 90.5q-5 57 28.5 99t87.5 46q47 6 88 -18z" />
    <glyph glyph-name="rcommaaccent" unicode="&#x157;" horiz-adv-x="948" 
d="M799 969q73 -1 110 -46.5t37 -105.5q0 -56 -30.5 -96t-88.5 -41q-31 -3 -59 10.5t-44.5 31.5t-34.5 40t-27 29q-96 72 -185 -58v-553q0 -60 25 -101.5t65 -55.5q65 -23 99 -23h-639q31 0 96 23q42 14 66 55t24 102v27v465q0 119 -102 98l366 205v-135v-47v-27
q49 90 140 147.5t182 55.5zM446 682v-2v2zM436 -172l25 -23q16 -19 26 -45q20 -50 20 -123.5t-19 -150t-65 -149t-110 -115.5q72 63 109 176q39 111 18 211q-28 -22 -67 -25q-55 -6 -97.5 28.5t-48.5 90.5q-6 57 28.5 98.5t88.5 46.5q50 6 92 -20z" />
    <glyph glyph-name="Rcaron" unicode="&#x158;" horiz-adv-x="1413" 
d="M907 1827l-139 -283h-139l-170 283l237 -187zM1128 467l111 -207q32 -61 71 -110t75 -77.5t62.5 -44t47.5 -22.5l16 -6h-462q-81 118 -142 231l-157 295q-82 162 -193 162h-16l-4 -561q0 -54 34 -88q23 -19 46 -28t34.5 -10t36.5 -1h-686q46 0 111 27q44 18 71 65.5
t27 114.5v1020q0 54 -21.5 96.5t-52.5 62.5q-27 19 -60 31.5t-52.5 15.5t-22.5 1q106 0 299 8q218 9 332 6q212 -5 328.5 -32.5t181.5 -96.5q91 -91 88 -256q0 -165 -113 -266q-13 -12 -28 -23t-28 -19.5t-26.5 -16.5t-25 -14t-22.5 -11t-18.5 -7.5t-14 -5t-9.5 -2.5h-2
q6 0 23 -10q23 -13 69.5 -73.5t91.5 -147.5zM713 739q213 74 213 338q0 194 -96 278t-293 72l4 -714q98 0 172 26z" />
    <glyph glyph-name="rcaron" unicode="&#x159;" horiz-adv-x="948" 
d="M748 1335l-140 -282h-139l-170 282l240 -188zM799 969q73 -1 110 -46.5t37 -105.5q0 -56 -30.5 -96t-88.5 -41q-31 -3 -59 10.5t-44.5 31.5t-34.5 40t-27 29q-96 72 -185 -58v-553q0 -60 25 -101.5t65 -55.5q65 -23 99 -23h-639q31 0 96 23q42 14 66 55t24 102v27v465
q0 119 -102 98l366 205v-135v-47v-27q49 90 140 147.5t182 55.5zM446 682v-2v2z" />
    <glyph glyph-name="Sacute" unicode="&#x15a;" horiz-adv-x="1361" 
d="M567 1559l170 268q37 61 82.5 76t69.5 -19q12 -10 18 -25.5t4 -35.5t-21 -44.5t-54 -47.5zM1139 981l-2 387l-50 23q-63 27 -157 45q-108 21 -225 24q-233 3 -390 -92q-156 -95 -174 -287q-19 -202 89.5 -329t379.5 -199q281 -76 381 -172q101 -94 86 -213
q-8 -60 -47 -96.5t-98 -46t-125 -3.5t-137 27q-171 51 -328 211q-155 161 -236 334v-483q225 -144 586 -150q95 -2 180 15.5t161.5 56.5t130 111t71.5 171q45 241 -80.5 384.5t-454.5 220.5q-160 37 -241.5 93t-106.5 148q-19 75 1 137t79 97q69 31 130 32.5t134 -28.5
q120 -49 238 -154q154 -142 205 -264z" />
    <glyph glyph-name="sacute" unicode="&#x15b;" horiz-adv-x="958" 
d="M375 1053l170 268q27 41 56.5 61t54.5 18.5t42 -22.5q12 -10 18 -25.5t4 -35.5t-21 -44.5t-54 -47.5zM821 604v281l-35 20q-37 23 -113 43.5t-151 20.5q-177 0 -278.5 -83t-106.5 -208q-9 -212 324 -342q168 -66 238 -139.5t40 -141.5q-24 -55 -133 -37q-108 18 -223 101
q-164 117 -258 295l6 -334q204 -107 418 -107q187 0 268 93q81 96 78 223q-2 95 -77.5 168.5t-260.5 146.5q-248 94 -254 227q0 46 33.5 75.5t91.5 25.5q107 -9 217 -105q112 -96 176 -223z" />
    <glyph glyph-name="Scedilla" unicode="&#x15e;" horiz-adv-x="1361" 
d="M700 920q329 -77 454.5 -220.5t80.5 -384.5q-35 -185 -176 -268q-142 -83 -338 -86l-35 -49q90 -6 132.5 -54t31.5 -114q-10 -62 -53 -98.5t-96 -42.5t-106.5 8.5t-84.5 46.5q58 -32 145 -10q86 22 95 94q6 56 -33 84t-103 33l72 102q-355 6 -580 150v483
q81 -173 236 -334q157 -160 328 -211q71 -21 137 -27t125 3.5t98 46t47 96.5q15 119 -86 213q-100 96 -381 172q-271 72 -379.5 199t-89.5 329q18 192 174 287q157 95 390 92q117 -3 225 -24q94 -18 157 -45l50 -23l2 -387q-51 122 -205 264q-118 105 -238 154
q-73 30 -134 28.5t-130 -32.5q-59 -35 -79 -97t-1 -137q25 -92 106.5 -148t241.5 -93z" />
    <glyph glyph-name="scedilla" unicode="&#x15f;" horiz-adv-x="958" 
d="M549 -27h-33l-45 -61q90 -6 132.5 -54t31.5 -114q-10 -62 -53 -98.5t-96 -42.5t-106.5 8.5t-84.5 46.5q58 -32 145 -10q86 21 95 94q6 56 -32 84t-102 33l82 116q-173 12 -352 105l-6 334q94 -178 258 -295q115 -83 223 -101q109 -18 133 37q30 68 -40 141.5t-238 139.5
q-333 130 -324 342q5 125 106.5 208t278.5 83q75 0 151 -20.5t113 -43.5l35 -20v-281q-64 127 -176 223q-110 96 -217 105q-58 4 -91.5 -25.5t-33.5 -75.5q6 -133 254 -227q185 -73 260.5 -146.5t77.5 -168.5q3 -127 -78 -223q-81 -93 -268 -93z" />
    <glyph glyph-name="Scaron" unicode="&#x160;" horiz-adv-x="1361" 
d="M438 1827l240 -187l209 187l-139 -283h-140zM1139 981l-2 387l-50 23q-63 27 -157 45q-108 21 -225 24q-233 3 -390 -92q-156 -95 -174 -287q-19 -202 89.5 -329t379.5 -199q281 -76 381 -172q101 -94 86 -213q-8 -60 -47 -96.5t-98 -46t-125 -3.5t-137 27
q-171 51 -328 211q-155 161 -236 334v-483q225 -144 586 -150q95 -2 180 15.5t161.5 56.5t130 111t71.5 171q45 241 -80.5 384.5t-454.5 220.5q-160 37 -241.5 93t-106.5 148q-19 75 1 137t79 97q69 31 130 32.5t134 -28.5q120 -49 238 -154q154 -142 205 -264z" />
    <glyph glyph-name="scaron" unicode="&#x161;" horiz-adv-x="958" 
d="M258 1335l238 -188l211 188l-140 -282h-139zM821 604v281l-35 20q-37 23 -113 43.5t-151 20.5q-177 0 -278.5 -83t-106.5 -208q-9 -212 324 -342q168 -66 238 -139.5t40 -141.5q-24 -55 -133 -37q-108 18 -223 101q-164 117 -258 295l6 -334q204 -107 418 -107
q187 0 268 93q81 96 78 223q-2 95 -77.5 168.5t-260.5 146.5q-248 94 -254 227q0 46 33.5 75.5t91.5 25.5q107 -9 217 -105q112 -96 176 -223z" />
    <glyph glyph-name="uni0162" unicode="&#x162;" horiz-adv-x="1499" 
d="M115 1434h1245l65 -410q-109 165 -196 240q-169 141 -309 141h-13v-1139q0 -69 23 -124.5t57 -84.5q29 -23 72 -39q57 -18 98 -18h-825q41 0 96 18q64 22 108 81.5t44 166.5v1139h-19q-126 0 -313 -152q-43 -35 -98 -96q-57 -63 -84 -100l-31 -41zM670 -141l94 133l39 8
l-64 -88q90 -6 132.5 -54t31.5 -114q-9 -62 -51.5 -98.5t-95.5 -42.5t-106.5 8.5t-84.5 46.5q58 -32 146 -10q83 21 92 94q6 56 -31.5 84t-101.5 33z" />
    <glyph glyph-name="uni0163" unicode="&#x163;" horiz-adv-x="782" 
d="M469 -25h-14l-45 -63q90 -6 132 -53.5t31 -114.5q-10 -62 -53 -98.5t-96 -42.5t-106.5 8.5t-84.5 46.5q58 -32 146 -10q85 22 94 94q6 56 -32.5 84t-102.5 33l84 118q-153 13 -225 117t-72 303v506h-78l-24 19h102v252l270 151q0 -262 -2 -403h223l-18 -19h-205v-514
q2 -146 41 -213.5t135 -71.5q72 -1 126 47t79 130q-19 -129 -92 -218q-73 -88 -213 -88z" />
    <glyph glyph-name="Tcaron" unicode="&#x164;" horiz-adv-x="1499" 
d="M989 1827l-139 -283h-139l-170 283l237 -187zM115 1434h1245l65 -410q-109 165 -196 240q-169 141 -309 141h-13v-1139q0 -69 23 -124.5t57 -84.5q29 -23 72 -39q57 -18 98 -18h-825q41 0 96 18q64 22 108 81.5t44 166.5v1139h-19q-126 0 -313 -152q-43 -35 -98 -96
q-57 -63 -84 -100l-31 -41z" />
    <glyph glyph-name="tcaron" unicode="&#x165;" horiz-adv-x="782" 
d="M700 1323q-55 -6 -96 28.5t-47 90.5q-6 57 27.5 98.5t89.5 46.5q46 6 86 -18q63 -34 78 -150q15 -113 -39 -254q-52 -134 -156 -204q70 61 107 174q40 111 18 213q-28 -22 -68 -25zM569 104q72 -1 126 47t79 130q-19 -129 -92 -218q-73 -88 -213 -88q-180 0 -262 104
t-82 318v506h-78l-24 19h102v252l270 151q0 -262 -2 -403h223l-18 -19h-205v-514q2 -146 41 -213.5t135 -71.5z" />
    <glyph glyph-name="Tbar" unicode="&#x166;" horiz-adv-x="1499" 
d="M575 1614l404 2v-23h-404v21zM115 1434h1245l65 -410q-109 165 -196 240q-169 141 -309 141h-13v-1139q0 -69 23 -124.5t57 -84.5q29 -23 72 -39q57 -18 98 -18h-825q41 0 96 18q64 22 108 81.5t44 166.5v1139h-19q-126 0 -313 -152q-43 -35 -98 -96q-57 -63 -84 -100
l-31 -41z" />
    <glyph glyph-name="tbar" unicode="&#x167;" horiz-adv-x="782" 
d="M121 1411l403 2v-22h-403v20zM569 104q72 -1 126 47t79 130q-19 -129 -92 -218q-73 -88 -213 -88q-180 0 -262 104t-82 318v506h-78l-24 19h102v252l270 151q0 -262 -2 -403h223l-18 -19h-205v-514q2 -146 41 -213.5t135 -71.5z" />
    <glyph glyph-name="Umacron" unicode="&#x16a;" horiz-adv-x="1542" 
d="M682 1636l403 2v-22h-403v20zM1266 659v457q0 95 -30 165.5t-79 100.5q-73 49 -131 52h490q-12 -2 -22 -4t-34.5 -11t-44 -22t-44 -39.5t-40.5 -60t-27.5 -86t-11.5 -115.5v-463q0 -78 -2 -105q0 -31 -10 -116q-9 -76 -27 -129q-53 -157 -137 -220q-122 -94 -305 -94
q-332 0 -463 168t-131 514v516q0 69 -20.5 124.5t-49.5 82.5q-41 37 -83 49.5t-66 10.5h788q-42 0 -96 -19q-55 -23 -93 -82.5t-38 -165.5v-594q0 -269 98.5 -399.5t286.5 -118.5q171 12 246.5 156t75.5 448z" />
    <glyph glyph-name="umacron" unicode="&#x16b;" horiz-adv-x="1191" 
d="M406 1126l403 2v-22h-403v20zM479 160q46 -46 144 -31q99 15 159 84q-71 -97 -182 -168q-115 -75 -250 -63q-114 11 -153 100q-23 67 -29 131q-4 44 -4 154v28v326q0 52 -15.5 94t-37.5 62q-49 43 -115 43h434v-199v-178q0 -267 14 -322q11 -37 35 -61zM791 102v637
q0 60 -22 102t-58 56q-60 23 -88 23h434v-682q0 -16 3.5 -29t8.5 -21t13 -14t14.5 -9t16.5 -4l15 -1.5t13 0.5h8l-358 -201v143z" />
    <glyph glyph-name="Uring" unicode="&#x16e;" horiz-adv-x="1542" 
d="M926 1540q-51 0 -86 37t-35 88t35 88t86 37q55 0 89.5 -34.5t33.5 -90.5q-2 -51 -38 -88t-85 -37zM838 1667q0 -38 26.5 -66t63.5 -28q38 0 64 27.5t26 66.5q0 37 -26.5 64.5t-63.5 27.5t-63.5 -27.5t-26.5 -64.5zM1266 659v457q0 95 -30 165.5t-79 100.5q-73 49 -131 52
h490q-12 -2 -22 -4t-34.5 -11t-44 -22t-44 -39.5t-40.5 -60t-27.5 -86t-11.5 -115.5v-463q0 -78 -2 -105q0 -31 -10 -116q-9 -76 -27 -129q-53 -157 -137 -220q-122 -94 -305 -94q-332 0 -463 168t-131 514v516q0 69 -20.5 124.5t-49.5 82.5q-41 37 -83 49.5t-66 10.5h788
q-42 0 -96 -19q-55 -23 -93 -82.5t-38 -165.5v-594q0 -269 98.5 -399.5t286.5 -118.5q171 12 246.5 156t75.5 448z" />
    <glyph glyph-name="uring" unicode="&#x16f;" horiz-adv-x="1191" 
d="M500 1171q0 51 35 88t86 37q55 0 89 -34.5t33 -90.5q-2 -50 -37.5 -86t-84.5 -36t-85 36t-36 86zM530 1174q0 -37 28 -65t65 -28q36 0 63 28t27 65t-26.5 64.5t-63.5 27.5t-65 -28t-28 -64zM479 160q46 -46 144 -31q99 15 159 84q-71 -97 -182 -168q-115 -75 -250 -63
q-114 11 -153 100q-23 67 -29 131q-4 44 -4 154v28v326q0 52 -15.5 94t-37.5 62q-49 43 -115 43h434v-199v-178q0 -267 14 -322q11 -37 35 -61zM791 102v637q0 60 -22 102t-58 56q-60 23 -88 23h434v-682q0 -16 3.5 -29t8.5 -21t13 -14t14.5 -9t16.5 -4l15 -1.5t13 0.5h8
l-358 -201v143z" />
    <glyph glyph-name="Uhungarumlaut" unicode="&#x170;" horiz-adv-x="1542" 
d="M948 1876q12 -10 18 -25.5t4 -35.5t-21 -45t-54 -48l-270 -172l170 271q40 61 85 75t68 -20zM1184 1722l-271 -172l172 271q25 40 55 60.5t55.5 18.5t41.5 -24q12 -10 18 -25.5t4 -35.5t-21 -45t-54 -48zM1266 659v457q0 95 -30 165.5t-79 100.5q-73 49 -131 52h490
q-12 -2 -22 -4t-34.5 -11t-44 -22t-44 -39.5t-40.5 -60t-27.5 -86t-11.5 -115.5v-463q0 -78 -2 -105q0 -31 -10 -116q-9 -76 -27 -129q-53 -157 -137 -220q-122 -94 -305 -94q-332 0 -463 168t-131 514v516q0 69 -20.5 124.5t-49.5 82.5q-41 37 -83 49.5t-66 10.5h788
q-42 0 -96 -19q-55 -23 -93 -82.5t-38 -165.5v-594q0 -269 98.5 -399.5t286.5 -118.5q171 12 246.5 156t75.5 448z" />
    <glyph glyph-name="uhungarumlaut" unicode="&#x171;" horiz-adv-x="1191" 
d="M727 1378q12 -10 18 -25.5t4 -35.5t-21 -44.5t-54 -47.5l-271 -172l170 268q27 41 57 61t55 18.5t42 -22.5zM922 1225l-269 -172l170 268q24 40 54.5 60.5t56.5 19t43 -22.5q11 -11 16.5 -26t4 -35t-20.5 -44.5t-55 -47.5zM479 160q46 -46 144 -31q99 15 159 84
q-71 -97 -182 -168q-115 -75 -250 -63q-114 11 -153 100q-23 67 -29 131q-4 44 -4 154v28v326q0 52 -15.5 94t-37.5 62q-49 43 -115 43h434v-199v-178q0 -267 14 -322q11 -37 35 -61zM791 102v637q0 60 -22 102t-58 56q-60 23 -88 23h434v-682q0 -16 3.5 -29t8.5 -21t13 -14
t14.5 -9t16.5 -4l15 -1.5t13 0.5h8l-358 -201v143z" />
    <glyph glyph-name="Uogonek" unicode="&#x172;" horiz-adv-x="1542" 
d="M1266 659v457q0 95 -30 165.5t-79 100.5q-73 49 -131 52h490q-12 -2 -22 -4t-34.5 -11t-44 -22t-44 -39.5t-40.5 -60t-27.5 -86t-11.5 -115.5v-463q0 -73 -2 -98q0 -46 -8 -111q-11 -84 -22 -121q-13 -54 -44.5 -115t-70.5 -100q-95 -95 -258 -115q-93 -84 -66 -190
q21 -82 94 -109q78 -28 127 4q-42 -47 -126 -57.5t-162 29.5t-97 123q-27 117 50 200q-264 26 -377 190t-113 488v516q0 69 -20.5 124.5t-49.5 82.5q-41 37 -83 49.5t-66 10.5h788q-42 0 -96 -19q-55 -23 -93 -82.5t-38 -165.5v-594q0 -269 98.5 -399.5t286.5 -118.5
q171 12 246.5 156t75.5 448z" />
    <glyph glyph-name="uogonek" unicode="&#x173;" horiz-adv-x="1191" 
d="M479 160q46 -46 144 -31q99 15 159 84q-96 -137 -247 -201q-51 -41 -79.5 -102t-11.5 -127q21 -82 95 -109q78 -28 127 4q-42 -47 -126 -57.5t-162 29.5t-95 123q-30 124 57 211q-89 11 -139 88q-19 38 -27 90q-4 27 -10 94v111v28v326q0 52 -15.5 94t-37.5 62
q-49 43 -115 43h434v-199v-178q0 -267 14 -322q11 -37 35 -61zM791 102v637q0 60 -22 102t-58 56q-60 23 -88 23h434v-682q0 -16 3.5 -29t8.5 -21t13 -14t14.5 -9t16.5 -4l15 -1.5t13 0.5h8l-358 -201v143z" />
    <glyph glyph-name="Wcircumflex" unicode="&#x174;" horiz-adv-x="2271" 
d="M1260 1806l139 -282l-209 188l-240 -188l170 282h140zM1851 1434h537q-44 -15 -59.5 -20.5t-40.5 -18t-52 -31.5q-78 -55 -131 -195l-479 -1269l-477 1005l-377 -1005q-632 1329 -639 1349q-83 185 -291 185h856h41h856q-3 0 -9 -1t-24 -5t-34.5 -9t-38 -14.5t-38.5 -22
t-32 -30.5t-22 -39.5t-5 -51t15 -63.5q72 -173 248 -545q71 -151 114 -151q30 0 48.5 22.5t50.5 96.5l198 516q47 125 -14.5 210.5t-200.5 86.5zM1012 621l123 317l-72 152q-21 46 -40 85t-27 55.5t-9 18.5q-76 174 -256 183q-13 -2 -28.5 -5t-40 -11.5t-46 -19.5t-41.5 -30
t-30.5 -41.5t-10 -55.5t16.5 -71q85 -200 248 -545q71 -151 114 -151q32 0 50.5 21.5t48.5 97.5z" />
    <glyph glyph-name="wcircumflex" unicode="&#x175;" horiz-adv-x="1472" 
d="M905 1290l139 -282l-210 188l-238 -188l170 282h139zM1178 922h413q-108 -21 -178 -97q-40 -40 -67 -104l-306 -787l-311 670l-225 -670l-406 824q-33 65 -83.5 107.5t-88.5 47.5l-35 7h555q-3 0 -7.5 -0.5t-17.5 -3.5t-24 -8t-23 -15.5t-18 -24t-5 -36t11 -50.5
l177 -393q26 -63 53 -63q31 0 61 92l70 203l-66 139q-33 65 -74.5 106.5t-68.5 46.5l-25 7h545q-3 0 -9.5 -0.5t-22 -4t-29 -9.5t-27.5 -18.5t-21 -29.5t-6 -44t13 -60l174 -387q20 -45 45 -45q26 0 53 67l125 320l8 22q27 80 -26 133q-55 55 -133 58z" />
    <glyph glyph-name="Ycircumflex" unicode="&#x176;" horiz-adv-x="1304" 
d="M590 1524l170 282h139l139 -282l-209 188zM979 1434q116 -13 149.5 -85t-24.5 -175l-199 -357q-73 -137 -143 -12l-234 399q-46 88 -10 157t125 71l-729 2q54 0 135.5 -59.5t149.5 -168.5l284 -467q60 -97 60 -247l-2 -273q0 -65 -25 -114t-65 -70q-64 -35 -111 -35h731
q-46 3 -115 37q-40 21 -65 72t-25 118v322q0 148 41 225l223 406q124 214 304 254h-455z" />
    <glyph glyph-name="ycircumflex" unicode="&#x177;" horiz-adv-x="944" 
d="M657 1290l140 -282l-211 188l-238 -188l168 282h141zM657 922h412q-104 -20 -176 -95q-43 -45 -70 -108l-327 -791l-80 -194q-42 -107 -93 -140t-128 -22q-49 7 -75 50.5t-14 94.5q21 81 111 78q31 -3 57 -37q29 -33 41 -37q67 -27 111 82l55 140l-372 817
q-30 67 -79 109t-89 49l-35 4h596q-16 0 -60 -15q-29 -10 -41 -28q-43 -61 -6 -127l176 -385q18 -41 45 -41q18 0 26 8t22 39l141 334l8 22q24 79 -23.5 133.5t-132.5 59.5z" />
    <glyph glyph-name="Ydieresis" unicode="&#x178;" horiz-adv-x="1304" 
d="M571 1622q-54 0 -91.5 38.5t-37.5 94.5q0 50 37.5 85.5t91.5 35.5q55 0 93 -35.5t38 -85.5q0 -57 -37.5 -95t-93.5 -38zM1038 1622q-52 0 -90.5 39t-38.5 94q0 49 39 85t90 36q55 0 93 -35.5t38 -85.5q0 -57 -37 -95t-94 -38zM979 1434h455q-180 -40 -304 -254l-223 -406
q-41 -77 -41 -225v-322q0 -67 25 -118t65 -72q69 -34 115 -37h-731q47 0 111 35q40 21 65 70t25 114l2 273q0 150 -60 247l-284 467q-68 109 -149.5 168.5t-135.5 59.5l729 -2q-89 -2 -125 -71t10 -157l234 -399q70 -125 143 12l199 357q58 103 24.5 175t-149.5 85z" />
    <glyph glyph-name="Zacute" unicode="&#x179;" horiz-adv-x="1409" 
d="M633 1559l170 268q27 41 56.5 61t54.5 18.5t42 -22.5q12 -10 17.5 -25.5t3.5 -35.5t-21.5 -44.5t-54.5 -47.5zM543 20q-79 0 -94 55t40 130l797 1229l-1126 2l-127 -459l33 43q35 45 106.5 112.5t142.5 118.5q228 158 443 158h30q41 0 55.5 -14t3.5 -51.5t-54 -104.5
l-811 -1239l1214 -2l109 508l-23 -35q-22 -40 -94 -112.5t-160 -137.5q-147 -106 -250 -153t-217 -48h-18z" />
    <glyph glyph-name="zacute" unicode="&#x17a;" horiz-adv-x="1093" 
d="M498 1053l170 268q25 40 55 60.5t55.5 19t42.5 -22.5q12 -10 17.5 -25.5t3.5 -35.5t-21.5 -44.5t-54.5 -47.5zM498 0l-27 2q-48 0 -57 31t26 80l590 827l-858 2l-82 -319l29 28q27 30 78.5 74.5t97.5 75.5q184 128 307 125h12q105 0 31 -109l-590 -829l906 -4l90 426
l-31 -50q-27 -48 -92 -122q-62 -71 -121 -115q-170 -120 -309 -123z" />
    <glyph glyph-name="Zdotaccent" unicode="&#x17b;" horiz-adv-x="1409" 
d="M811 1667q-35 -37 -86 -37t-88 37q-37 38 -37 89.5t37 86.5q37 37 88 37t86 -37q37 -35 37 -86.5t-37 -89.5zM543 20h18q114 1 217 48t250 153q88 65 160 137.5t94 112.5l23 35l-109 -508l-1214 2l811 1239q43 67 54 104.5t-3.5 51.5t-55.5 14h-30q-215 0 -443 -158
q-71 -51 -142.5 -118.5t-106.5 -112.5l-33 -43l127 459l1126 -2l-797 -1229q-55 -75 -40 -130t94 -55z" />
    <glyph glyph-name="zdotaccent" unicode="&#x17c;" horiz-adv-x="1093" 
d="M623 1094q-55 0 -95.5 39.5t-40.5 93.5t40.5 93.5t95.5 39.5q54 0 92.5 -39.5t38.5 -93.5t-38.5 -93.5t-92.5 -39.5zM471 2l27 -2q139 3 309 123q59 44 121 115q65 74 92 122l31 50l-90 -426l-906 4l590 829q74 109 -31 109h-12q-123 3 -307 -125q-46 -31 -97.5 -75.5
t-78.5 -74.5l-29 -28l82 319l858 -2l-590 -827q-35 -49 -26 -80t57 -31z" />
    <glyph glyph-name="Zcaron" unicode="&#x17d;" horiz-adv-x="1409" 
d="M461 1827l237 -187l211 187l-139 -283h-139zM543 20q-79 0 -94 55t40 130l797 1229l-1126 2l-127 -459l33 43q35 45 106.5 112.5t142.5 118.5q228 158 443 158h30q41 0 55.5 -14t3.5 -51.5t-54 -104.5l-811 -1239l1214 -2l109 508l-23 -35q-22 -40 -94 -112.5
t-160 -137.5q-147 -106 -250 -153t-217 -48h-18z" />
    <glyph glyph-name="zcaron" unicode="&#x17e;" horiz-adv-x="1093" 
d="M403 1335l240 -188l209 188l-139 -282h-140zM498 0l-27 2q-48 0 -57 31t26 80l590 827l-858 2l-82 -319l29 28q27 30 78.5 74.5t97.5 75.5q184 128 307 125h12q105 0 31 -109l-590 -829l906 -4l90 426l-31 -50q-27 -48 -92 -122q-62 -71 -121 -115q-170 -120 -309 -123z
" />
    <glyph glyph-name="Scommaaccent" unicode="&#x218;" horiz-adv-x="1361" 
d="M700 920q329 -77 454.5 -220.5t80.5 -384.5q-18 -99 -71.5 -171t-130 -111t-161.5 -56.5t-180 -15.5q-361 6 -586 150v483q81 -173 236 -334q157 -160 328 -211q71 -21 137 -27t125 3.5t98 46t47 96.5q15 119 -86 213q-100 96 -381 172q-271 72 -379.5 199t-89.5 329
q18 192 174 287q157 95 390 92q117 -3 225 -24q94 -18 157 -45l50 -23l2 -387q-51 122 -205 264q-118 105 -238 154q-73 30 -134 28.5t-130 -32.5q-59 -35 -79 -97t-1 -137q25 -92 106.5 -148t241.5 -93zM768 -170q64 -34 76 -149q15 -118 -37 -252q-52 -137 -156 -207
q69 60 107 176q39 111 18 211q-28 -22 -67 -25q-55 -6 -97.5 28.5t-48.5 90.5q-6 57 28.5 98.5t88.5 46.5q47 6 88 -18z" />
    <glyph glyph-name="scommaaccent" unicode="&#x219;" horiz-adv-x="958" 
d="M895 289q3 -127 -78 -223q-81 -93 -268 -93q-214 0 -418 107l-6 334q94 -178 258 -295q115 -83 223 -101q109 -18 133 37q30 68 -40 141.5t-238 139.5q-333 130 -324 342q5 125 106.5 208t278.5 83q75 0 151 -20.5t113 -43.5l35 -20v-281q-64 127 -176 223
q-110 96 -217 105q-58 4 -91.5 -25.5t-33.5 -75.5q6 -133 254 -227q185 -73 260.5 -146.5t77.5 -168.5zM547 -172q62 -35 74 -152q15 -116 -39 -251q-53 -134 -156 -203q67 59 109 176q39 111 18 211q-28 -22 -68 -25q-55 -6 -97 28.5t-48 90.5q-6 57 27.5 98.5t89.5 46.5
q48 6 90 -20z" />
    <glyph glyph-name="uni021A" unicode="&#x21a;" horiz-adv-x="1499" 
d="M115 1434h1245l65 -410q-109 165 -196 240q-169 141 -309 141h-13v-1139q0 -69 23 -124.5t57 -84.5q29 -23 72 -39q57 -18 98 -18h-825q41 0 96 18q64 22 108 81.5t44 166.5v1139h-19q-126 0 -313 -152q-43 -35 -98 -96q-57 -63 -84 -100l-31 -41zM829 -170
q63 -34 78 -149q15 -114 -39 -252q-53 -138 -155 -207q67 59 106 176q40 112 19 211q-28 -22 -68 -25q-55 -6 -96 28.5t-47 90.5q-6 57 27.5 99t88.5 46q46 6 86 -18z" />
    <glyph glyph-name="uni021B" unicode="&#x21b;" horiz-adv-x="782" 
d="M569 104q72 -1 126 47t79 130q-19 -129 -92 -218q-73 -88 -213 -88q-180 0 -262 104t-82 318v506h-78l-24 19h102v252l270 151q0 -262 -2 -403h223l-18 -19h-205v-514q2 -146 41 -213.5t135 -71.5zM481 -170q63 -34 78 -149q15 -114 -39 -252q-53 -138 -155 -207
q67 59 106 176q39 111 18 211q-28 -22 -67 -25q-55 -6 -97.5 28.5t-48.5 90.5q-4 57 29.5 98.5t87.5 46.5q47 6 88 -18z" />
    <glyph glyph-name="circumflex" unicode="&#x2c6;" horiz-adv-x="690" 
d="M121 1012l170 282h141l139 -282l-211 188z" />
    <glyph glyph-name="caron" unicode="&#x2c7;" horiz-adv-x="690" 
d="M121 1339l239 -188l211 188l-139 -282h-141z" />
    <glyph glyph-name="breve" unicode="&#x2d8;" horiz-adv-x="647" 
d="M326 1180q173 0 200 125q-2 -91 -55.5 -157.5t-140.5 -66.5q-94 0 -150.5 65t-58.5 161q13 -61 70 -94t135 -33z" />
    <glyph glyph-name="dotaccent" unicode="&#x2d9;" horiz-adv-x="503" 
d="M133 1192q0 50 37 86.5t88 36.5t87 -36.5t36 -86.5q0 -54 -36 -90.5t-87 -36.5q-52 0 -88.5 36.5t-36.5 90.5z" />
    <glyph glyph-name="ring" unicode="&#x2da;" horiz-adv-x="1228" 
d="M356 1171q0 51 35 88t86 37q55 0 89.5 -34.5t33.5 -90.5q-2 -50 -38 -86t-85 -36t-85 36t-36 86zM387 1174q0 -37 27.5 -65t64.5 -28q36 0 63 28t27 65t-26.5 64.5t-63.5 27.5q-36 0 -64 -28t-28 -64z" />
    <glyph glyph-name="ogonek" unicode="&#x2db;" horiz-adv-x="585" 
d="M162 0h184q-128 -88 -98 -217q18 -82 92 -109q80 -28 129 4q-42 -47 -126 -57.5t-162 29.5t-97 123q-14 63 5.5 124.5t72.5 102.5z" />
    <glyph glyph-name="tilde" unicode="&#x2dc;" horiz-adv-x="765" 
d="M80 1051q1 122 58.5 187.5t150.5 57.5q57 -6 127 -67q74 -59 123 -62q53 -5 98 35t55 107q3 -88 -47 -162t-131 -80q-44 -3 -87.5 17.5t-72.5 47t-63.5 49.5t-61.5 23q-119 0 -149 -153z" />
    <glyph glyph-name="hungarumlaut" unicode="&#x2dd;" horiz-adv-x="831" 
d="M324 1014l170 268q25 40 55 60.5t55.5 18.5t42.5 -24q11 -11 16.5 -25t4 -33.5t-20.5 -44t-55 -48.5zM571 1014l170 268q25 40 55 60.5t56 18.5t43 -24q12 -10 17.5 -25t3.5 -34.5t-21.5 -44t-54.5 -47.5z" />
    <glyph glyph-name="Wgrave" unicode="&#x1e80;" horiz-adv-x="2271" 
d="M1251 1571l-268 172q-35 23 -54 47.5t-21 44.5t4 35.5t18 25.5q16 22 41.5 24t55 -18.5t54.5 -60.5zM1851 1434h537q-44 -15 -59.5 -20.5t-40.5 -18t-52 -31.5q-78 -55 -131 -195l-479 -1269l-477 1005l-377 -1005q-632 1329 -639 1349q-83 185 -291 185h856h41h856
q-3 0 -9 -1t-24 -5t-34.5 -9t-38 -14.5t-38.5 -22t-32 -30.5t-22 -39.5t-5 -51t15 -63.5q72 -173 248 -545q71 -151 114 -151q30 0 48.5 22.5t50.5 96.5l198 516q47 125 -14.5 210.5t-200.5 86.5zM1012 621l123 317l-72 152q-21 46 -40 85t-27 55.5t-9 18.5
q-76 174 -256 183q-13 -2 -28.5 -5t-40 -11.5t-46 -19.5t-41.5 -30t-30.5 -41.5t-10 -55.5t16.5 -71q85 -200 248 -545q71 -151 114 -151q32 0 50.5 21.5t48.5 97.5z" />
    <glyph glyph-name="wgrave" unicode="&#x1e81;" horiz-adv-x="1472" 
d="M938 1051l-268 172q-47 30 -64.5 63t-12 54t20.5 36q17 21 43 22.5t56.5 -19t54.5 -60.5zM1178 922h413q-108 -21 -178 -97q-40 -40 -67 -104l-306 -787l-311 670l-225 -670l-406 824q-33 65 -83.5 107.5t-88.5 47.5l-35 7h555q-3 0 -7.5 -0.5t-17.5 -3.5t-24 -8
t-23 -15.5t-18 -24t-5 -36t11 -50.5l177 -393q26 -63 53 -63q31 0 61 92l70 203l-66 139q-33 65 -74.5 106.5t-68.5 46.5l-25 7h545q-3 0 -9.5 -0.5t-22 -4t-29 -9.5t-27.5 -18.5t-21 -29.5t-6 -44t13 -60l174 -387q20 -45 45 -45q26 0 53 67l125 320l8 22q27 80 -26 133
q-55 55 -133 58z" />
    <glyph glyph-name="Wacute" unicode="&#x1e82;" horiz-adv-x="2271" 
d="M1395 1884q15 -15 20.5 -36t-12 -54t-64.5 -63l-268 -172l170 268q24 40 54.5 60.5t56.5 19t43 -22.5zM1851 1434h537q-44 -15 -59.5 -20.5t-40.5 -18t-52 -31.5q-78 -55 -131 -195l-479 -1269l-477 1005l-377 -1005q-632 1329 -639 1349q-83 185 -291 185h856h41h856
q-3 0 -9 -1t-24 -5t-34.5 -9t-38 -14.5t-38.5 -22t-32 -30.5t-22 -39.5t-5 -51t15 -63.5q72 -173 248 -545q71 -151 114 -151q30 0 48.5 22.5t50.5 96.5l198 516q47 125 -14.5 210.5t-200.5 86.5zM1012 621l123 317l-72 152q-21 46 -40 85t-27 55.5t-9 18.5
q-76 174 -256 183q-13 -2 -28.5 -5t-40 -11.5t-46 -19.5t-41.5 -30t-30.5 -41.5t-10 -55.5t16.5 -71q85 -200 248 -545q71 -151 114 -151q32 0 50.5 21.5t48.5 97.5z" />
    <glyph glyph-name="wacute" unicode="&#x1e83;" horiz-adv-x="1472" 
d="M1063 1378q12 -10 18 -25.5t4 -35.5t-21 -44.5t-54 -47.5l-271 -172l170 268q27 41 57 61t55 18.5t42 -22.5zM1178 922h413q-108 -21 -178 -97q-40 -40 -67 -104l-306 -787l-311 670l-225 -670l-406 824q-33 65 -83.5 107.5t-88.5 47.5l-35 7h555q-3 0 -7.5 -0.5
t-17.5 -3.5t-24 -8t-23 -15.5t-18 -24t-5 -36t11 -50.5l177 -393q26 -63 53 -63q31 0 61 92l70 203l-66 139q-33 65 -74.5 106.5t-68.5 46.5l-25 7h545q-3 0 -9.5 -0.5t-22 -4t-29 -9.5t-27.5 -18.5t-21 -29.5t-6 -44t13 -60l174 -387q20 -45 45 -45q26 0 53 67l125 320
l8 22q27 80 -26 133q-55 55 -133 58z" />
    <glyph glyph-name="Wdieresis" unicode="&#x1e84;" horiz-adv-x="2271" 
d="M915 1622q-52 0 -90.5 38t-38.5 93q0 49 39 85t90 36q56 0 94 -35t38 -86q0 -55 -38 -93t-94 -38zM1384 1622q-54 0 -91.5 38t-37.5 93q0 51 37.5 86t91.5 35q55 0 92 -35t37 -86q0 -56 -37 -93.5t-92 -37.5zM1851 1434h537q-44 -15 -59.5 -20.5t-40.5 -18t-52 -31.5
q-78 -55 -131 -195l-479 -1269l-477 1005l-377 -1005q-632 1329 -639 1349q-83 185 -291 185h856h41h856q-3 0 -9 -1t-24 -5t-34.5 -9t-38 -14.5t-38.5 -22t-32 -30.5t-22 -39.5t-5 -51t15 -63.5q72 -173 248 -545q71 -151 114 -151q30 0 48.5 22.5t50.5 96.5l198 516
q47 125 -14.5 210.5t-200.5 86.5zM1012 621l123 317l-72 152q-21 46 -40 85t-27 55.5t-9 18.5q-76 174 -256 183q-13 -2 -28.5 -5t-40 -11.5t-46 -19.5t-41.5 -30t-30.5 -41.5t-10 -55.5t16.5 -71q85 -200 248 -545q71 -151 114 -151q32 0 50.5 21.5t48.5 97.5z" />
    <glyph glyph-name="wdieresis" unicode="&#x1e85;" horiz-adv-x="1472" 
d="M584 1110q-52 0 -90.5 39t-38.5 94q0 49 39 85t90 36q55 0 93 -35.5t38 -85.5q0 -57 -37 -95t-94 -38zM1053 1110q-54 0 -91.5 38.5t-37.5 94.5q0 50 37.5 85.5t91.5 35.5q55 0 93 -35.5t38 -85.5q0 -57 -37.5 -95t-93.5 -38zM1178 922h413q-108 -21 -178 -97
q-40 -40 -67 -104l-306 -787l-311 670l-225 -670l-406 824q-33 65 -83.5 107.5t-88.5 47.5l-35 7h555q-3 0 -7.5 -0.5t-17.5 -3.5t-24 -8t-23 -15.5t-18 -24t-5 -36t11 -50.5l177 -393q26 -63 53 -63q31 0 61 92l70 203l-66 139q-33 65 -74.5 106.5t-68.5 46.5l-25 7h545
q-3 0 -9.5 -0.5t-22 -4t-29 -9.5t-27.5 -18.5t-21 -29.5t-6 -44t13 -60l174 -387q20 -45 45 -45q26 0 53 67l125 320l8 22q27 80 -26 133q-55 55 -133 58z" />
    <glyph glyph-name="uni1EA0" unicode="&#x1ea0;" horiz-adv-x="1347" 
d="M653 1532l588 -1352q34 -75 92 -121q38 -27 71 -40.5t51 -16t44 -2.5h-805l7 2q7 1 20.5 4.5t29 9.5t32.5 16t32 22t26.5 30.5t17.5 40t3 50t-16 61.5l-125 317l-461 2l-119 -291q-42 -100 2 -178.5t154 -85.5h-475q76 5 151.5 70.5t118.5 171.5l555 1308zM502 1059
q-36 0 -119 -207l-111 -270h437l-121 317l-19 47q-49 107 -67 113zM1507 0h-8h8zM514 -180q41 38 96 38t92 -38q38 -38 38 -94.5t-38 -94.5q-37 -39 -92 -39t-96 41q-38 38 -38 92t38 95z" />
    <glyph glyph-name="uni1EA1" unicode="&#x1ea1;" 
d="M686 135v412q-178 -55 -252 -111q-73 -55 -76 -153q-2 -57 25.5 -103t77.5 -63q114 -30 215 63q-8 -10 -60 -71q-14 -16 -65 -64q-82 -76 -205 -76q-130 0 -188 76q-59 77 -56 168q3 107 101 180q48 35 112 60q79 34 134 47l159 45q10 3 35.5 8.5t42.5 11.5v115
q0 152 -48 220t-149 50q-31 -5 -50.5 -13.5t-37 -27t-27 -51.5t-12.5 -84q0 -21 17 -72t18 -67q3 -73 -63.5 -108t-132 -2.5t-60.5 122.5q3 129 119 213q120 84 240 105q46 9 96 10t103.5 -6.5t100 -29t83.5 -53.5t56.5 -84.5t16.5 -117.5v-465q0 -134 86 -121q25 1 48.5 25
t31.5 49l8 25q-14 -71 -55 -142q-53 -88 -182 -88q-92 0 -149.5 45.5t-57.5 122.5zM608 -408q-55 0 -95 40t-40 94t40 93.5t95 39.5q54 0 92.5 -39.5t38.5 -93.5t-38.5 -94t-92.5 -40z" />
    <glyph glyph-name="uni1EB8" unicode="&#x1eb8;" horiz-adv-x="1503" 
d="M1137 168q89 68 161.5 142t100.5 116l22 37l-92 -463h-1311q45 0 121 35q47 21 77 73t30 123v986q0 72 -29 121t-78 67q-73 29 -121 29h1254l69 -437q-72 132 -294 289q-101 72 -197 98.5t-234 26.5h-45v-655h37q65 1 120.5 21t91 47.5t65 64.5t43.5 64.5t24 54.5l9 28
v-606q-4 30 -41 102q-25 49 -64 91t-106.5 73t-141.5 31h-37v-485q0 -224 187 -224h24q75 0 173.5 43t181.5 107zM723 -141q54 0 91.5 -39.5t37.5 -93.5t-37.5 -94t-91.5 -40q-55 0 -95 40t-40 94t40 93.5t95 39.5z" />
    <glyph glyph-name="uni1EB9" unicode="&#x1eb9;" horiz-adv-x="1103" 
d="M694 147q117 0 199.5 49t118.5 138q-18 -156 -138 -264q-120 -105 -303 -99q-220 9 -348 146q-128 140 -131 348q-3 297 225 436q73 43 167.5 62t168.5 8q160 -26 256 -140t92 -292h-663q0 -177 97.5 -283.5t258.5 -108.5zM485 911q-80 -56 -114 -166q-33 -103 -33 -192
q170 0 242 10q103 15 163 78q55 52 52 154t-74 143q-40 27 -108.5 20t-127.5 -47zM600 -408q-55 0 -95 40t-40 94t40 93.5t95 39.5q54 0 92.5 -39.5t38.5 -93.5t-38.5 -94t-92.5 -40z" />
    <glyph glyph-name="uni1ECA" unicode="&#x1eca;" horiz-adv-x="888" 
d="M590 1188v-942q0 -63 21.5 -113.5t52.5 -77.5q71 -55 157 -55h-780q15 0 34 2.5t56 16t65 37.5t50 73.5t22 116.5v942q0 64 -21 114.5t-52 75.5q-29 26 -66 37q-52 19 -88 19h780q-51 0 -123 -31q-49 -21 -78.5 -77t-29.5 -138zM444 -141q54 0 92.5 -39.5t38.5 -93.5
t-38.5 -94t-92.5 -40q-55 0 -95 40t-40 94t40 93.5t95 39.5z" />
    <glyph glyph-name="uni1ECB" unicode="&#x1ecb;" horiz-adv-x="749" 
d="M481 1079q-43 -44 -107 -44t-108 44q-44 47 -44 110.5t44 106.5q44 44 108 44t107 -44q44 -43 44 -106.5t-44 -110.5zM518 973v-774q0 -56 16.5 -97t36.5 -59.5t48.5 -29.5t41.5 -12t25 -1h-620q36 0 71 12q115 42 115 187v473q0 71 -45 88q-44 21 -72 0zM307 -180
q38 38 94 38t93 -38q38 -38 38 -94.5t-38 -94.5q-37 -39 -93 -39t-94 41q-38 38 -38 92t38 95z" />
    <glyph glyph-name="Ygrave" unicode="&#x1ef2;" horiz-adv-x="1304" 
d="M729 1841l170 -270l-268 172q-35 23 -54.5 47.5t-22 44.5t3 35.5t17.5 25.5q17 22 43 24t56 -18.5t55 -60.5zM979 1434h455q-180 -40 -304 -254l-223 -406q-41 -77 -41 -225v-322q0 -67 25 -118t65 -72q69 -34 115 -37h-731q47 0 111 35q40 21 65 70t25 114l2 273
q0 150 -60 247l-284 467q-68 109 -149.5 168.5t-135.5 59.5l729 -2q-89 -2 -125 -71t10 -157l234 -399q70 -125 143 12l199 357q58 103 24.5 175t-149.5 85z" />
    <glyph glyph-name="ygrave" unicode="&#x1ef3;" horiz-adv-x="944" 
d="M692 1051l-268 172q-36 23 -55 47.5t-20.5 44.5t4 35t16.5 26q17 21 42.5 22.5t55.5 -19t55 -60.5zM657 922h412q-104 -20 -176 -95q-43 -45 -70 -108l-327 -791l-80 -194q-42 -107 -93 -140t-128 -22q-49 7 -75 50.5t-14 94.5q21 81 111 78q31 -3 57 -37q29 -33 41 -37
q67 -27 111 82l55 140l-372 817q-30 67 -79 109t-89 49l-35 4h596q-16 0 -60 -15q-29 -10 -41 -28q-43 -61 -6 -127l176 -385q18 -41 45 -41q18 0 26 8t22 39l141 334l8 22q24 79 -23.5 133.5t-132.5 59.5z" />
    <glyph glyph-name="uni1EF4" unicode="&#x1ef4;" horiz-adv-x="1304" 
d="M979 1434h455q-180 -40 -304 -254l-223 -406q-41 -77 -41 -225v-322q0 -67 25 -118t65 -72q69 -34 115 -37h-731q47 0 111 35q40 21 65 70t25 114l2 273q0 150 -60 247l-284 467q-68 109 -149.5 168.5t-135.5 59.5l729 -2q-89 -2 -125 -71t10 -157l234 -399
q70 -125 143 12l199 357q58 103 24.5 175t-149.5 85zM690 -408q-55 0 -95 40t-40 94t40 93.5t95 39.5q54 0 92.5 -39.5t38.5 -93.5t-38.5 -94t-92.5 -40z" />
    <glyph glyph-name="uni1EF5" unicode="&#x1ef5;" horiz-adv-x="944" 
d="M657 922h412q-104 -20 -176 -95q-43 -45 -70 -108l-327 -791l-80 -194q-42 -107 -93 -140t-128 -22q-49 7 -75 50.5t-14 94.5q21 81 111 78q31 -3 57 -37q29 -33 41 -37q67 -27 111 82l55 140l-372 817q-30 67 -79 109t-89 49l-35 4h596q-16 0 -60 -15q-29 -10 -41 -28
q-43 -61 -6 -127l176 -385q18 -41 45 -41q18 0 26 8t22 39l141 334l8 22q24 79 -23.5 133.5t-132.5 59.5zM639 -625q0 -55 -38 -94t-93 -39t-94 39.5t-39 93.5q0 55 38.5 94t94.5 39q55 0 93 -38.5t38 -94.5z" />
    <glyph glyph-name="uni1EF9" unicode="&#x1ef9;" horiz-adv-x="944" 
d="M446 1204q-119 0 -149 -153q1 122 58.5 187.5t150.5 57.5q57 -6 127 -67q74 -59 123 -62q53 -5 98 35t57 107q0 -89 -49 -162q-50 -74 -131 -80q-44 -3 -87.5 17.5t-72.5 47t-63.5 49.5t-61.5 23zM657 922h412q-104 -20 -176 -95q-43 -45 -70 -108l-327 -791l-80 -194
q-42 -107 -93 -140t-128 -22q-49 7 -75 50.5t-14 94.5q21 81 111 78q31 -3 57 -37q29 -33 41 -37q67 -27 111 82l55 140l-372 817q-30 67 -79 109t-89 49l-35 4h596q-16 0 -60 -15q-29 -10 -41 -28q-43 -61 -6 -127l176 -385q18 -41 45 -41q18 0 26 8t22 39l141 334l8 22
q24 79 -23.5 133.5t-132.5 59.5z" />
    <glyph glyph-name="endash" unicode="&#x2013;" horiz-adv-x="1222" 
d="M123 553v27h977v-27h-977z" />
    <glyph glyph-name="emdash" unicode="&#x2014;" horiz-adv-x="1484" 
d="M123 553v27h1239v-27h-1239z" />
    <glyph glyph-name="quoteleft" unicode="&#x2018;" horiz-adv-x="526" 
d="M403 1333q6 -55 -28 -96.5t-88 -46.5q-49 -6 -89.5 19.5t-54.5 70.5q-23 83 -20 174q3 97 55 201q51 102 139 162q-65 -57 -108 -177q-40 -113 -19 -213q28 22 68 25q56 6 97.5 -28t47.5 -91z" />
    <glyph glyph-name="quoteright" unicode="&#x2019;" horiz-adv-x="526" 
d="M328 1569q63 -34 75 -150q15 -119 -36 -254q-52 -134 -156 -204q68 60 106 174q40 113 19 213q-28 -22 -68 -25q-55 -6 -97 28.5t-48 90.5q-6 57 28.5 98.5t88.5 46.5q47 6 88 -18z" />
    <glyph glyph-name="quotesinglbase" unicode="&#x201a;" horiz-adv-x="526" 
d="M328 244q63 -34 75 -152q15 -120 -36 -252q-54 -138 -156 -207q67 58 106 177q40 113 19 213q-28 -22 -68 -25q-55 -6 -97 28.5t-48 90.5q-6 55 28.5 97.5t88.5 47.5q47 6 88 -18z" />
    <glyph glyph-name="quotedblleft" unicode="&#x201c;" horiz-adv-x="876" 
d="M258 1257q55 6 97 -28t48 -90t-28 -99t-88 -47q-51 -6 -94 23l-13 12q-25 22 -39 57q-43 112 4 283q46 169 172 254q-66 -57 -108 -176q-40 -113 -19 -213q27 21 68 24zM637 993q-51 -6 -94 23l-13 12q-23 20 -38 57q-43 112 4 283q46 169 172 254q-67 -59 -109 -176
q-40 -111 -18 -213q27 21 67 24q55 6 97.5 -28t48.5 -90q6 -55 -28.5 -98t-88.5 -48z" />
    <glyph glyph-name="quotedblright" unicode="&#x201d;" horiz-adv-x="849" 
d="M338 1567l24 -23q18 -21 27 -45q20 -50 20 -123.5t-19 -150t-65 -149t-110 -115.5q68 60 109 174q40 111 18 213q-28 -22 -68 -25q-55 -6 -97 28.5t-48 90.5q-6 57 27.5 98.5t89.5 46.5q50 6 92 -20zM713 1499q20 -50 20 -123.5t-19 -150t-65 -149t-110 -115.5
q71 62 108 174q40 113 19 213q-28 -22 -68 -25q-55 -6 -97 28.5t-48 90.5q-6 57 28 98.5t88 46.5q51 6 93 -20l24 -23q18 -21 27 -45z" />
    <glyph glyph-name="quotedblbase" unicode="&#x201e;" horiz-adv-x="854" 
d="M713 170q43 -112 -4 -283q-46 -169 -172 -254q65 57 108 177q40 113 19 213q-28 -22 -68 -25q-55 -6 -97 28.5t-48 90.5q-6 55 28 98t88 47q53 6 95 -22l12 -13q25 -22 39 -57zM328 244q63 -34 75 -152q15 -120 -36 -252q-54 -138 -156 -207q67 58 106 177q40 113 19 213
q-28 -22 -68 -25q-55 -6 -97 28.5t-48 90.5q-6 55 28.5 97.5t88.5 47.5q47 6 88 -18z" />
    <glyph glyph-name="dagger" unicode="&#x2020;" horiz-adv-x="946" 
d="M496 1186h327v-27h-327v-1274h-29v1274h-344v27h344v467h29v-467z" />
    <glyph glyph-name="daggerdbl" unicode="&#x2021;" horiz-adv-x="946" 
d="M823 1186v-27h-344v-731h344v-27h-344v-516h-28v516h-328v27h328v731h-328v27h328v467h28v-467h344z" />
    <glyph glyph-name="bullet" unicode="&#x2022;" horiz-adv-x="565" 
d="M395 512q-47 -44 -112.5 -44t-112.5 44q-47 47 -47 112.5t47 112.5t112.5 47t112.5 -47t47 -112.5t-47 -112.5z" />
    <glyph glyph-name="ellipsis" unicode="&#x2026;" horiz-adv-x="1200" 
d="M291 31q-37 -38 -92.5 -38t-96.5 38q-38 41 -38 94.5t38 91.5q41 41 96.5 41t92.5 -39q38 -38 38 -94t-38 -94zM610 -8q-57 0 -96 38.5t-39 94.5t39 94.5t96 38.5q54 0 92.5 -39.5t38.5 -93.5t-38.5 -93.5t-92.5 -39.5zM1116 31q-37 -38 -92.5 -38t-93.5 38
q-38 41 -38 94.5t38 91.5q38 41 93.5 41t92.5 -39q38 -38 38 -94t-38 -94z" />
    <glyph glyph-name="perthousand" unicode="&#x2030;" horiz-adv-x="2052" 
d="M426 870q-31 -1 -62 2.5t-70 17.5t-70.5 37.5t-58 67t-38.5 101.5q-25 123 34.5 220t178.5 128q144 33 242.5 -33t111.5 -215q13 -135 -63 -226.5t-205 -99.5zM551 1221q-27 123 -83 180.5t-124 25.5q-42 -24 -62 -81.5t-19 -118t16 -115.5q24 -127 76.5 -183t113.5 -38
q71 15 92 115q20 99 -10 215zM236 0h-39l940 1436h34zM1004 0q-31 -1 -62 2.5t-70 17t-70.5 37t-58 67t-38.5 101.5q-25 123 34.5 220t178.5 128q144 33 242.5 -32.5t111.5 -214.5q13 -135 -63 -226.5t-205 -99.5zM1659 0q-31 -1 -62 2.5t-70 17t-70.5 37t-58 67
t-38.5 101.5q-25 123 34.5 220t178.5 128q144 33 242.5 -32.5t111.5 -214.5q13 -135 -63 -226.5t-205 -99.5zM1128 350q-27 124 -82.5 181.5t-123.5 25.5q-61 -34 -76 -139q-14 -101 8 -176q25 -127 78.5 -183.5t114.5 -38.5q71 15 92 115q20 94 -11 215zM1784 350
q-27 123 -83 181t-124 26q-61 -34 -76 -139q-14 -101 8 -176q25 -127 78.5 -183.5t114.5 -38.5q71 15 92 115q20 96 -10 215z" />
    <glyph glyph-name="guilsinglleft" unicode="&#x2039;" horiz-adv-x="583" 
d="M119 563l342 291l-193 -293l172 -307z" />
    <glyph glyph-name="guilsinglright" unicode="&#x203a;" horiz-adv-x="583" 
d="M121 854l342 -291l-322 -309l172 307z" />
    <glyph glyph-name="Euro" unicode="&#x20ac;" horiz-adv-x="1357" 
d="M944 764h-899l-22 18h131q8 194 97.5 352t252.5 250q95 53 223 62.5t242 -23.5q120 -33 197 -126t77 -220q0 -65 -38.5 -103t-94.5 -36q-66 1 -98.5 61t-14.5 134q29 129 0.5 197.5t-91 87t-131.5 3.5t-122 -53q-108 -79 -146 -219.5t-38 -366.5h494zM1106 469
q59 2 98 -38.5t39 -113.5q0 -139 -119 -233q-116 -94 -221 -109q-53 -13 -198 -4q-137 9 -218 47q-141 66 -230 221t-101 386h-111l-22 18h940l-19 -18h-475q0 -193 80 -402q39 -101 111.5 -165t160.5 -68q125 -5 174.5 66t14.5 204q-20 86 5 147t91 62z" />
    <glyph glyph-name="trademark" unicode="&#x2122;" horiz-adv-x="2144" 
d="M98 1432h727l74 -275q-74 116 -129 168q-28 28 -49 43q-21 19 -65.5 33t-98.5 14h-6v-674q0 -52 18.5 -88.5t48.5 -50.5q46 -18 78 -18h-463q34 0 80 18q32 14 51 50.5t19 88.5v674h-12q-111 0 -205 -82q-54 -51 -119 -149l-22 -35zM2118 1432h2h-2zM1976 1286v-555
q0 -103 64 -129q44 -18 71 -18h-436q28 0 72 18q63 26 63 129v469q0 92 -12 92q-24 0 -45 -55l-289 -711l-385 734q-21 24 -31 -24q0 -4 -1 -7q-3 -12 -3 -27v-450q0 -34 10 -62t24.5 -45t34.5 -29.5t36.5 -18.5t35 -9t25 -3.5t11.5 -0.5h-357q8 0 20.5 1t41 10.5t51 25.5
t40 50t17.5 81v505q0 42 -13 74.5t-31 50.5t-41 29.5t-39.5 15t-28.5 3.5l-11 2h310l288 -533q42 -70 62 -88q16 -10 28 3.5t31 55.5l226 562h303q-30 0 -76 -19q-30 -12 -48 -45.5t-18 -81.5z" />
    <glyph glyph-name="partialdiff" unicode="&#x2202;" horiz-adv-x="1167" 
d="M631 -25q-130 -9 -279 64q-77 39 -136 123t-83 198q-46 223 49 388q99 163 293 210q75 18 143 15t102.5 -9t41.5 -10q-9 139 -107 283q-94 140 -260 227q278 -67 475 -323q200 -256 215 -566q15 -248 -118 -419q-132 -169 -336 -181zM795 584q-47 201 -125 301
q-76 102 -176 49q-60 -31 -84 -137q-40 -180 10 -404q42 -201 122 -304.5t169 -82.5q93 21 108 211q18 193 -24 367z" />
    <glyph glyph-name="emptyset" unicode="&#x2205;" horiz-adv-x="1241" 
d="M1108 528q21 -230 -113 -385q-133 -151 -344 -166q-212 -12 -356 105l-72 -80h-41l90 98q-102 99 -137 258q-44 210 58 379q101 168 303 221q288 68 465 -100l55 62h43l-76 -84q107 -116 125 -308zM436 373q0 -1 6.5 -32t10.5 -40l338 369q-47 158 -123 237
q-78 81 -168 27q-73 -45 -88 -217q-15 -179 24 -344zM725 6q63 21 90 121q52 182 -4 457l-12 51l-336 -369q47 -146 120.5 -213t141.5 -47z" />
    <glyph glyph-name="product" unicode="&#x220f;" horiz-adv-x="1325" 
d="M127 -442v1976h1069v-1972h-29v1945h-1011v-1947z" />
    <glyph glyph-name="summation" unicode="&#x2211;" horiz-adv-x="1212" 
d="M1051 -174h-928v33l594 901l-592 809v35h965v-33h-924l598 -807l-600 -907h887v-31z" />
    <glyph glyph-name="minus" unicode="&#x2212;" horiz-adv-x="952" 
d="M123 690v27h706v-27h-706z" />
    <glyph glyph-name="radical" unicode="&#x221a;" horiz-adv-x="1134" 
d="M1014 1432l-467 -1850l-301 697h-123v28h149l269 -629l438 1756z" />
    <glyph glyph-name="infinity" unicode="&#x221e;" horiz-adv-x="1435" 
d="M684 772l66 98q111 169 319 154q150 -9 209 -133q62 -124 22 -254q-27 -91 -98 -144.5t-178 -52.5q-170 3 -256 183q-37 -69 -137 -136q-103 -68 -232 -65q-145 3 -217 106q-71 106 -59 234q7 116 86 184.5t192 63.5q124 -3 199 -97q34 -43 48.5 -67.5t35.5 -73.5z
M827 725l-49 -84q35 -77 258 -68q175 9 236 103q15 34 18 63q15 76 -41 123q-60 42 -131 41.5t-143 -35.5q-50 -27 -90 -73q-47 -51 -58 -70zM373 592q103 7 183 51t116 109q-25 46 -82 75q-50 24 -85.5 30.5t-98.5 8.5q-115 5 -190 -34t-75 -117q0 -63 57.5 -96.5
t174.5 -26.5z" />
    <glyph glyph-name="integral" unicode="&#x222b;" horiz-adv-x="831" 
d="M655 1640q144 -1 218.5 -75.5t74.5 -196.5q0 -61 -34.5 -99t-88.5 -38q-72 0 -110 59q-35 62 6 133q47 78 27.5 139.5t-91.5 63.5q-93 1 -133.5 -67.5t-40.5 -219.5v-1470q0 -167 -159 -266q-158 -98 -353 -39q-94 30 -150.5 96.5t-56.5 136.5q0 66 37.5 106t92.5 40
q77 0 107.5 -54.5t6.5 -132.5q-25 -87 4 -141.5t107 -54.5q66 0 92.5 71.5t26.5 229.5v1411q0 86 25 153t65 107.5t96 65.5t112 34t119 8z" />
    <glyph glyph-name="approxequal" unicode="&#x2248;" horiz-adv-x="866" 
d="M131 664q1 89 54 139.5t128 44.5q55 -3 146 -57q91 -52 137 -52q125 0 147 97q8 -75 -33.5 -124.5t-113.5 -49.5q-74 0 -162 55q-86 57 -160 57q-109 0 -143 -110zM123 489q1 88 53.5 139t128.5 46q59 -6 146 -58q89 -51 137 -51q125 0 149 94q6 -73 -37 -122.5
t-112 -49.5q-73 0 -162 56q-86 57 -158 57q-110 0 -145 -111z" />
    <glyph glyph-name="notequal" unicode="&#x2260;" horiz-adv-x="1218" 
d="M1094 862v-28h-412l-172 -281h584v-29h-602l-142 -229h-31l142 229h-338v29h356l174 281h-530v28h549l131 213h28l-131 -213h394z" />
    <glyph glyph-name="lessequal" unicode="&#x2264;" horiz-adv-x="1003" 
d="M121 608l710 291v-29l-645 -264l645 -278v-29zM174 197v26h707v-26h-707z" />
    <glyph glyph-name="greaterequal" unicode="&#x2265;" horiz-adv-x="1005" 
d="M152 899l710 -291l-710 -309v29l645 278l-645 264v29zM811 223v-26h-707v26h707z" />
    <glyph glyph-name="NULL" horiz-adv-x="0" 
 />
    <glyph glyph-name="CR" horiz-adv-x="681" 
 />
    <glyph glyph-name="zero.osf" horiz-adv-x="1230" 
d="M651 -20q-147 -10 -291 57q-80 38 -140.5 121.5t-86.5 199.5q-41 213 60 381q102 169 303 222q238 52 411 -62q175 -114 199 -371q21 -233 -111 -383t-344 -165zM809 582q-34 185 -121 301q-85 113 -188 51q-73 -42 -88 -215q-15 -179 24 -344q40 -211 127 -301
q86 -89 160 -68q63 20 90 123q53 180 -4 453z" />
    <glyph glyph-name="one.osf" horiz-adv-x="903" 
d="M573 578v-398q0 -60 28.5 -103t72.5 -57q74 -20 108 -20h-661q31 0 96 23q42 14 66 55t24 102v297q-3 27 0 144q1 113 -40 153.5t-117 9.5l425 238q0 -85 -1 -194.5t-1 -135.5v-114z" />
    <glyph glyph-name="two.osf" horiz-adv-x="991" 
d="M555 162h313l-206 -385q63 127 30.5 175t-186.5 48h-383q171 85 346 260q173 173 149 385q-10 91 -74.5 141t-152.5 39q-53 -7 -112 -39.5t-93 -66.5l-30 -31q16 37 51 90q105 170 268 193q151 18 238 -72q86 -89 86 -197q0 -51 -11.5 -89t-46.5 -85q-27 -39 -57 -73
l-92 -99l-105 -106q-17 -17 -28 -30.5t-15.5 -22.5t-6.5 -16t4 -10.5t11.5 -6t19 -3t23 -0.5t29 0.5t31.5 0.5z" />
    <glyph glyph-name="three.osf" horiz-adv-x="1208" 
d="M823 332q296 -91 287 -416q-6 -158 -102 -274q-61 -73 -146 -113.5t-180 -45.5t-203 15q-121 30 -209.5 131t-126.5 242q52 -101 146.5 -170.5t222.5 -79.5q130 -9 219 68t98 207q9 135 -81 239q-89 103 -226 94l-82 -16q290 144 314 377q11 89 -32 154t-132 83
q-93 22 -184 -10.5t-162 -105.5q149 214 377 223q164 9 264 -84q98 -88 98 -207q0 -205 -160 -311z" />
    <glyph glyph-name="four.osf" horiz-adv-x="1277" 
d="M1358 213l-213 -211h-195v-207l-243 -284v491h-603l846 1143v-932h408zM354 211h351v405q0 68 -27 76t-70 -47l-272 -373q-37 -55 18 -61z" />
    <glyph glyph-name="five.osf" horiz-adv-x="1128" 
d="M270 580l-30 -140q-6 -35 0 -41q5 -5 20 4q84 60 156.5 81.5t177.5 23.5q183 3 307 -109q127 -115 127 -309q0 -172 -172 -344q-96 -95 -274 -178q-183 -85 -308 -121l-131 -35q257 85 426 260q171 177 174 355q3 205 -163 262q-53 17 -108 17t-97.5 -12t-83.5 -33
t-65.5 -39.5t-45.5 -37.5l-20 -22l162 782h688l-174 -227h-447q-37 0 -57 -8.5t-33 -32.5q-18 -38 -29 -96z" />
    <glyph glyph-name="six.osf" horiz-adv-x="1214" 
d="M422 1225q237 252 545 252q-216 -21 -357 -252q-96 -153 -123 -324l17 4q15 6 16 6q147 31 271 4q130 -27 217 -133t104 -268q21 -221 -111 -377q-133 -154 -331 -157q-144 0 -283 63q-80 38 -138.5 119t-82.5 194q-31 141 -6 363q18 124 85 255.5t177 250.5zM733 8
q94 28 115 201q21 175 -19 354q-41 192 -129 283q-88 93 -170 35q-56 -38 -77 -138q-41 -177 6 -395q13 -63 31 -116t37.5 -89.5t42 -65t44 -43t43 -24t40.5 -8t36 5.5z" />
    <glyph glyph-name="seven.osf" horiz-adv-x="1107" 
d="M254 938h913q-181 -230 -331 -547q-111 -240 -121 -399q-3 -52 -8 -330q-6 -131 -101 -158q-75 -24 -133 31q-43 46 -37 115q9 109 66 233q59 119 172 301q118 190 184 318q31 57 46.5 97.5t10 65.5t-14 39t-43.5 20.5t-60 7.5t-80 1h-4h-47h-80q-188 0 -291 -43.5
t-152 -157.5z" />
    <glyph glyph-name="eight.osf" horiz-adv-x="1196" 
d="M737 836l117 -62q112 -59 184 -174q76 -116 52 -276q-12 -87 -68 -157.5t-137.5 -112t-180.5 -58t-198 -2.5q-182 20 -277 119t-82 262q10 123 83.5 199t224.5 143q-50 23 -109 76q-52 49 -100 151q-42 99 -27 209q21 156 156 240q134 85 295 73q157 -7 249.5 -99
t92.5 -234q0 -214 -275 -297zM436 1171q14 -103 81 -179t208 -148q90 137 96 291q3 50 -7.5 102t-34 99t-67.5 78t-100 34q-49 2 -86 -18t-54 -52.5t-28.5 -71.5t-10 -74t2.5 -61zM471 709q-93 -128 -84 -336q3 -84 27 -160q28 -80 92.5 -136.5t150.5 -60.5q88 -4 140.5 38
t60.5 112q15 140 -27 256q-21 56 -69.5 109.5t-89.5 76.5q-42 26 -115 60q-23 12 -43.5 21.5t-31.5 14.5z" />
    <glyph glyph-name="nine.osf" horiz-adv-x="1210" 
d="M836 -317q-236 -254 -545 -254q213 24 356 254q92 153 121 325q-12 -12 -31 -12q-147 -31 -272 -4q-128 27 -215.5 133.5t-104.5 267.5q-21 222 111 375q133 157 332 160q142 0 282 -66q80 -36 139 -117t83 -194q99 -489 -256 -868zM524 899q-93 -27 -114 -203t18 -352
q41 -192 127 -283q88 -94 172 -34q58 39 78 137q40 172 -8 395q-13 63 -30.5 116t-37 89.5t-41.5 65t-43.5 43t-43.5 24t-41 8t-36 -5.5z" />
    <glyph glyph-name="ampersand.001" horiz-adv-x="1871" 
d="M1616 993q53 0 86 -22.5t33 -63.5q0 -27 -16 -45t-42 -18q-37 0 -71 37t-84 37q-61 0 -131 -41q-36 -23 -115 -113q-15 -17 -55 -78l-52 -82l-57 -92l-55 -94q98 -137 143 -244q74 -171 74 -324q0 -243 -154 -432q-86 -105 -183.5 -152.5t-234.5 -47.5q-48 0 -88 4
q-60 6 -112 33t-86 64t-54.5 69.5t-29.5 58.5l-10 23q1 -1 4.5 -8t7 -12.5t12.5 -17.5t23 -26q113 -121 286 -121q246 0 396 193q151 195 151 450q0 210 -162 463q-158 -261 -215 -330q-150 -187 -344 -196h-24q-144 0 -254 90q-107 88 -107 254q0 69 27 137q30 68 66.5 118
t103.5 111q77 67 119 99l135 98q78 54 129 92q-152 190 -152 340q0 130 80 219q79 88 199 88q100 0 161 -58.5t62 -162.5q1 -92 -52.5 -174t-162.5 -178q-7 -6 -21.5 -17t-40 -30.5t-47.5 -36.5l285 -344q10 -11 60 -78l61 100l68 109l55 90q82 125 147 174q104 88 238 88z
M555 1204q0 -85 27.5 -158t103.5 -174l72 58q109 93 155 174t45 180q-1 69 -46 116t-113 52q-92 6 -168 -70q-76 -73 -76 -178zM500 -59q162 0 297 147q66 68 118 143q62 89 115 177q-12 22 -49 73q-58 86 -133 174q-32 42 -74 88l-84 103q-142 -103 -188 -139
q-158 -124 -232.5 -232t-74.5 -237t81.5 -213t223.5 -84z" />
    </font>
</defs>
</svg>
