<?xml version="1.0" standalone="no"?>
<!DOCTYPE svg PUBLIC "-//W3C//DTD SVG 1.1//EN" "http://www.w3.org/Graphics/SVG/1.1/DTD/svg11.dtd" >
<svg xmlns="http://www.w3.org/2000/svg" xmlns:xlink="http://www.w3.org/1999/xlink" version="1.1">
<metadata>
Created by FontForge 20170731 at Wed Jun 22 17:24:05 2022
 By Aleksey,,,
Copyright (c) 2017 by Rakel Tomas. All rights reserved.
</metadata>
<defs>
<font id="SilkSerif-LightItalic" horiz-adv-x="1402" >
  <font-face 
    font-family="Silk Serif"
    font-weight="300"
    font-style="italic"
    font-stretch="normal"
    units-per-em="2048"
    panose-1="0 0 4 0 0 0 0 0 0 0"
    ascent="1507"
    descent="-541"
    x-height="934"
    cap-height="1434"
    bbox="-534 -782 2353 1869.53"
    underline-thickness="102"
    underline-position="-307"
    unicode-range="U+0020-2265"
  />
<missing-glyph horiz-adv-x="937" 
d="M174 1434h594v-1874h-594v1874zM625 1247v62h-310v-62h121v-69h-123v-64h312v64h-125v69h125zM500 936v131h-187v-195h312v64h-125zM375 1004h61v-68h-61v68zM625 760v61h-312v-61h123v-70h-123v-61h187v131h125zM625 520v189h-62v-123h-250v-66h312zM625 268v211h-189
v-104h64v43h63v-88h-188v149h-62v-211h312zM625 -55v211h-312v-211h312zM375 94h188v-88h-188v88zM625 -162v64h-312v-64h131l-131 -88v-61h312v61h-193l131 88h62z" />
    <glyph glyph-name=".notdef" horiz-adv-x="937" 
d="M174 1434h594v-1874h-594v1874zM625 1247v62h-310v-62h121v-69h-123v-64h312v64h-125v69h125zM500 936v131h-187v-195h312v64h-125zM375 1004h61v-68h-61v68zM625 760v61h-312v-61h123v-70h-123v-61h187v131h125zM625 520v189h-62v-123h-250v-66h312zM625 268v211h-189
v-104h64v43h63v-88h-188v149h-62v-211h312zM625 -55v211h-312v-211h312zM375 94h188v-88h-188v88zM625 -162v64h-312v-64h131l-131 -88v-61h312v61h-193l131 88h62z" />
    <glyph glyph-name=".null" horiz-adv-x="0" 
 />
    <glyph glyph-name="nonmarkingreturn" horiz-adv-x="682" 
 />
    <glyph glyph-name="space" unicode=" " horiz-adv-x="569" 
 />
    <glyph glyph-name="exclam" unicode="!" horiz-adv-x="468" 
d="M117 276q79 230 119 361q16 54 48.5 160t45.5 149q32 107 69 221q47 162 111 196q36 19 55 -12l4 -10q8 -45 -25 -133t-114 -262q-112 -225 -207 -430q-72 -158 -106 -240zM43 156q-48 2 -68 -40t0 -83.5t68 -38.5q32 0 57 24t25 56q0 33 -23.5 57.5t-58.5 24.5z" />
    <glyph glyph-name="quotedbl" unicode="&#x22;" horiz-adv-x="290" 
d="M436 1473q26 -7 28.5 -36t-18.5 -55l-147 -235l49 186l-119 -188l72 274q6 31 26 46t40 5q5 0 20 -12q21 30 49 15z" />
    <glyph glyph-name="numbersign" unicode="#" horiz-adv-x="1308" 
d="M1362 1436h27l-293 -512h243l-6 -19h-248l-233 -405h365l-7 -21h-370l-287 -499h-29l287 499h-422l-287 -499h-28l286 499h-233l6 21h240l233 407h-354l6 19h360l293 510h27l-293 -510l422 -2zM401 500h422l234 405l-422 2z" />
    <glyph glyph-name="dollar" unicode="$" horiz-adv-x="1150" 
d="M1073 1501l-26 -63q133 -12 195.5 -82t41.5 -172q-11 -65 -59 -114.5t-105 -43.5q-45 4 -62.5 40.5t3.5 68.5q9 21 55 51q44 29 60 74q35 95 -68 139q-38 15 -70 18l-247 -612q164 -69 208 -209q43 -136 -34 -274q-150 -295 -498 -316l-35 -86h-18l301 744q-38 20 -84 38
l-31 13l-321 -795h-17l41 100q-3 3 -8 3q-126 38 -193 122q-50 67 -59 156q-9 86 18 139q27 67 80 117.5t111 50.5q38 0 53.5 -28.5t6.5 -62.5t-33 -52q-17 -11 -50.5 -27t-54 -31t-33.5 -40q-41 -89 -6 -177q34 -84 113 -129q35 -17 63 -20l275 682q-81 40 -126.5 99
t-54 121t1 117.5t33.5 104.5q52 113 176 181q119 65 256 81l29 74h19l-258 -639q55 -30 88 -41l24 -8l279 688h20zM733 1374q-56 -24 -102.5 -69t-72.5 -101t-30.5 -115t25.5 -117t94 -100l217 537q-84 -14 -131 -35zM874 305q24 81 15 154q-9 106 -160 194l-256 -630
q129 9 248 88q118 78 153 194z" />
    <glyph glyph-name="percent" unicode="%" horiz-adv-x="1288" 
d="M582 1415q100 34 157.5 -12.5t57.5 -142.5q-3 -160 -113 -291q-109 -128 -233 -113q-48 4 -77.5 33.5t-38.5 72t-5.5 90t18.5 93.5q36 109 99.5 176.5t134.5 93.5zM-74 0h39l1516 1436h-35zM592 1405q-99 -43 -166 -268q-25 -100 -23 -179q2 -46 26 -72t67 -22
q79 9 143 140t76 258q11 97 -27 134t-96 9zM844 561q99 34 157 -13t58 -142q-3 -160 -113 -291q-109 -128 -233 -113q-49 4 -79.5 33t-39.5 72.5t-5 90.5t19 93q35 108 100 176t136 94zM852 551q-46 -23 -91 -97t-75 -171q-23 -90 -20 -177q2 -48 26 -74t66 -22
q79 9 143 140t76 258q11 97 -28 134t-97 9z" />
    <glyph glyph-name="ampersand" unicode="&#x26;" horiz-adv-x="1552" 
d="M1505 866q-71 -40 -129 -90q-76 -63 -174 -155l-180 -162l-53 -45l49 -162q14 -47 22 -67.5t25 -49.5q31 -52 109 -55q70 -5 144.5 38.5t123.5 117.5q-44 -89 -133 -166t-195 -80q-87 -2 -133.5 26.5t-69.5 100.5l-57 196q-65 -56 -209 -176q-62 -52 -178 -108
q-107 -52 -207 -52q-139 -3 -209 82q-66 85 -2 240q15 36 49 94q14 21 37.5 45.5t41.5 41t46.5 41.5t36.5 32q45 36 107 72l104 59q53 29 121 64q102 53 115 59l-9 27l-8 26l-31 111q-21 109 25 225q52 129 169.5 201.5t258.5 77.5q111 3 170 -62t12 -180
q-69 -177 -303 -299l-86 -47l-74 -37l132 -424l149 129q268 238 231 319q-14 32 -63 46h383q-53 0 -158 -54zM797 1208q-21 -56 -21 -110q0 -47 10 -92q1 -3 35 -121l6 -21q58 35 103 64q114 76 179 149.5t101 173.5q13 37 16.5 72.5t-4.5 68t-37 52.5t-77 20
q-103 0 -185.5 -65t-125.5 -191zM348 88q179 -6 500 244l-137 461q-6 -3 -17.5 -9.5t-33 -19.5t-39.5 -23q-171 -103 -279 -194q-96 -78 -145 -201q-29 -71 -25.5 -128t49.5 -93t127 -37z" />
    <glyph glyph-name="quotesingle" unicode="'" horiz-adv-x="126" 
d="M348 1380l-155 -227l81 270q7 30 28 44t42 3q54 -22 4 -90z" />
    <glyph glyph-name="parenleft" unicode="(" horiz-adv-x="598" 
d="M238 -324l14 -59q-39 56 -82 256q-26 124 -37 244q-9 137 8 297q18 167 74 319q58 155 145.5 292t176.5 220q79 75 163.5 134t132 81.5t52.5 16.5l-43 -25q-17 -9 -103 -82q-65 -55 -145 -145q-71 -80 -154 -219q-88 -147 -143 -301q-53 -143 -79 -311t-21 -306
q9 -267 41 -412z" />
    <glyph glyph-name="parenright" unicode=")" horiz-adv-x="591" 
d="M-254 -401l49 43q42 38 117 118q89 92 158 189q72 97 153 250q80 148 125 307q43 159 58 320.5t2 277.5q-24 225 -70 330l-19 43q6 -1 19.5 -20t34.5 -63t41 -100q33 -85 55 -204q24 -108 15 -275t-52 -328q-42 -148 -124 -295t-173 -253q-80 -95 -171 -177
t-146.5 -121.5t-71.5 -41.5z" />
    <glyph glyph-name="asterisk" unicode="*" horiz-adv-x="489" 
d="M469 1319l-78 -160l8 184q1 29 17 46t35 12q46 -9 18 -82zM272 1294l119 -135l-168 86q-26 12 -36 34.5t3 35.5q18 18 40.5 11.5t41.5 -32.5zM571 1149l-180 10l174 62q66 15 72 -27q1 -25 -17 -37.5t-49 -7.5zM225 1090l166 69l-133 -135q-50 -47 -78 -8q-25 44 45 74z
M432 983l-41 176l111 -151q30 -53 -4 -80q-48 -19 -66 55z" />
    <glyph glyph-name="plus" unicode="+" horiz-adv-x="1153" 
d="M676 729h426l-8 -20h-426l-174 -430h-21l174 430h-428l8 20h428l172 424h21z" />
    <glyph glyph-name="comma" unicode="," horiz-adv-x="145" 
d="M20 150q32 -5 51 -31.5t15 -61.5q-15 -81 -86 -149q-72 -69 -152 -96q58 24 113 82q55 55 70 102q-14 -6 -39 -2q-35 4 -53.5 31.5t-10.5 62.5q6 33 33 51t59 11z" />
    <glyph glyph-name="hyphen" unicode="-" horiz-adv-x="825" 
d="M135 537v20h596v-20h-596z" />
    <glyph glyph-name="period" unicode="." horiz-adv-x="200" 
d="M35 156q33 0 56.5 -23.5t23.5 -58.5q0 -53 -50 -73.5t-88 15.5q-22 27 -23 58t22.5 56.5t58.5 25.5z" />
    <glyph glyph-name="slash" unicode="/" horiz-adv-x="651" 
d="M-123 0l-24 4l1044 1432l25 2z" />
    <glyph glyph-name="zero" unicode="0" horiz-adv-x="1232" 
d="M1010 1415q115 -35 183.5 -139.5t74.5 -274.5t-80 -395q-88 -225 -233 -386.5t-322.5 -221t-364.5 26.5q-112 51 -168 204q-53 151 -32 351q21 198 116 381q151 287 377 403q229 116 449 51zM895 1423q-117 16 -266 -77q-84 -52 -169 -173.5t-149 -289.5
q-111 -289 -90 -555q24 -261 170 -320q37 -16 79 -19.5t90.5 8.5t98 38.5t101 75.5t98.5 115t93 161.5t83 210.5q107 355 66 576q-41 222 -205 249z" />
    <glyph glyph-name="one" unicode="1" horiz-adv-x="716" 
d="M430 1253l391 213l-139 -338l-47 -114l-277 -703l-61 -159q-9 -28 -9 -51.5t7 -38.5t20.5 -26.5t27.5 -18t32 -10.5t30 -5t25 -2h-532q25 0 54 5.5t69 19.5t75.5 47.5t55.5 81.5l342 852l59 143q25 64 14.5 97t-47 31.5t-90.5 -24.5zM-102 0h-15h15zM444 0h-14h14z" />
    <glyph glyph-name="two" unicode="2" horiz-adv-x="1048" 
d="M850 1450q91 10 158.5 -9t103 -58.5t51 -92.5t9.5 -110.5t-29 -114.5q-31 -76 -74 -137t-121 -133q-78 -75 -131 -119q-77 -64 -194 -154l-211 -166q-240 -191 -252 -227q-7 -17 20 -23q10 -2 105 -2h159q178 0 273 31q96 35 178 148l-193 -283h-843q297 184 604 434
q212 168 352 318q132 145 189 303q51 141 -27 231q-76 88 -225 64q-106 -18 -217 -84q-107 -64 -164 -121l-56 -55q25 40 95 114q62 65 112 105q65 51 153.5 91t174.5 50z" />
    <glyph glyph-name="three" unicode="3" horiz-adv-x="1071" 
d="M817 1460q58 5 105 -3t79 -25.5t55 -43t35 -55t17 -62.5t3 -64t-9 -60q-25 -109 -114.5 -201.5t-203.5 -138.5q116 -41 150 -178q37 -134 -25 -273q-93 -222 -282 -325q-186 -101 -414 -39q-233 64 -233 379q19 -98 83 -189q66 -91 177 -112q146 -27 290 36
q148 68 224 230q77 173 0 305q-77 136 -238 115l25 6q79 22 200 88q71 38 130.5 101t89.5 136q23 53 23 107.5t-21 99t-69 73t-116 28.5q-73 0 -143 -25q-53 -17 -111 -51q-41 -24 -125 -92q75 75 113 106q56 46 139.5 83.5t165.5 43.5z" />
    <glyph glyph-name="four" unicode="4" horiz-adv-x="1255" 
d="M1219 442l-154 -112h-217l-109 -273l-194 -129l164 402h-705l1309 1143l-418 -1031h324zM254 440l502 2l307 711q28 65 5 63q-5 0 -13 -4q-14 -7 -51 -36l-744 -654q-71 -61 -35 -77q10 -5 29 -5z" />
    <glyph glyph-name="five" unicode="5" horiz-adv-x="1097" 
d="M516 1190l-164 -262q-40 -71 -24 -71q7 -1 32 13q194 108 371 111q186 3 279 -115q93 -119 14 -315q-82 -204 -334 -350q-130 -78 -352 -158q-208 -75 -354 -111l-144 -34q180 57 312 110q138 56 290 133q154 80 261.5 182t156.5 216q23 59 24.5 115.5t-18.5 103.5
t-70.5 77t-125.5 33q-121 9 -242 -32q-122 -41 -174 -82l-57 -43l446 725h657l-137 -121h-479q-42 0 -78 -19q-6 -3 -11.5 -7t-9.5 -6.5t-9 -7.5t-7.5 -7t-7.5 -9t-7 -9.5t-8.5 -12t-8.5 -13t-10 -16.5t-11 -18z" />
    <glyph glyph-name="six" unicode="6" horiz-adv-x="1069" 
d="M655 1217q353 266 674 266q-101 -11 -270 -84q-165 -71 -332 -225q-195 -183 -289 -326q0 5 30 16.5t78.5 21.5t88.5 9q80 4 152.5 -23.5t126 -84.5t73 -143.5t-5.5 -201.5q-55 -215 -215 -348q-160 -130 -354 -133q-160 -3 -269 109q-109 115 -75 319q71 443 587 828z
M463 -18q138 18 239 155q99 133 134 326q35 195 -26 306t-196 99q-108 -9 -198 -96q-145 -143 -193 -379q-43 -209 29 -319q73 -107 211 -92z" />
    <glyph glyph-name="seven" unicode="7" horiz-adv-x="1050" 
d="M471 1438h897q-260 -233 -537 -547q-59 -66 -137 -166l-98 -133q-43 -66 -82 -137l-61 -113q-15 -24 -62 -127q-48 -105 -55 -117q-49 -98 -127 -110q-57 -6 -66 39q-6 23 13 59q87 172 266 391q172 207 477 524q235 241 248 297q6 30 -39 39q-10 2 -147 2h-222
q-179 0 -272 -34q-96 -35 -182 -152z" />
    <glyph glyph-name="eight" unicode="8" horiz-adv-x="1112" 
d="M858 737q55 -42 90 -100q26 -43 40 -94.5t9.5 -118t-34.5 -129.5q-83 -189 -293 -281q-208 -88 -439 -24q-137 34 -192 153q-56 120 12 271q52 107 166 190q45 33 111 64q98 46 229 88q-25 13 -52 36.5t-56 63t-46.5 84.5t-17 105.5t26.5 121.5q68 169 229 238
q162 70 334 55q145 -15 203 -119q59 -107 2 -233q-21 -51 -68 -102q-66 -69 -137 -105q-57 -32 -96 -47l-43 -16l-45 -17q-34 -9 -37 -12q1 -1 17 -11.5t41.5 -28.5t45.5 -32zM524 1182q-30 -107 27.5 -201t183.5 -162q127 62 197 123q73 67 123 164q57 109 22 219
q-34 110 -151 119q-140 12 -251 -56t-151 -206zM578 743q-303 -130 -388 -333q-62 -129 -18 -256q47 -126 184 -150q226 -41 369 84q145 127 139 313q-3 190 -286 342z" />
    <glyph glyph-name="nine" unicode="9" horiz-adv-x="1087" 
d="M549 213q-177 -132 -369 -201q-67 -23 -143 -39q-102 -20 -143 -20q114 14 274.5 91t325.5 218q159 132 282 316q-8 -12 -67 -24.5t-121 -12.5q-182 -9 -289 125q-104 133 -57 346t209 338t360 125q157 0 258 -107q100 -106 70 -305q-73 -463 -590 -850zM760 1454
q-140 -12 -242 -147q-100 -132 -135 -326q-34 -191 29 -311q65 -116 194 -101q82 6 153.5 55.5t117.5 125.5q87 138 116 292q42 205 -25 314.5t-208 97.5z" />
    <glyph glyph-name="colon" unicode=":" horiz-adv-x="495" 
d="M299 858q-1 29 16 49t41.5 24.5t49 0t41.5 -24.5t16 -49q2 -50 -40 -70.5t-84 0t-40 70.5zM119 16q-15 -15 -33 -20.5t-34.5 -1.5t-31.5 13.5t-24.5 24.5t-13.5 31.5t1.5 34.5t20.5 33q33 38 78.5 21.5t57.5 -58t-21 -78.5z" />
    <glyph glyph-name="semicolon" unicode=";" horiz-adv-x="428" 
d="M305 776q-35 0 -58.5 23.5t-23.5 58.5q0 52 51 72.5t86 -17.5q38 -35 17.5 -86t-72.5 -51zM39 150q32 -4 51.5 -32.5t13.5 -60.5q-11 -78 -80.5 -146t-156.5 -99q56 23 115 82q55 55 67 102q-14 -6 -39 -2q-32 5 -50.5 32t-12.5 62q6 33 33 51t59 11z" />
    <glyph glyph-name="less" unicode="&#x3c;" horiz-adv-x="1005" 
d="M780 434l-594 291l836 309v-22l-778 -289l536 -264v-25z" />
    <glyph glyph-name="equal" unicode="=" horiz-adv-x="1189" 
d="M313 864l11 21h829l-10 -21h-830zM184 541l9 20h829l-8 -20h-830z" />
    <glyph glyph-name="greater" unicode="&#x3e;" horiz-adv-x="1021" 
d="M387 1018l594 -291l-836 -309v22l779 289l-537 264v25z" />
    <glyph glyph-name="question" unicode="?" horiz-adv-x="792" 
d="M240 262q0 60 13.5 117.5t40.5 110.5t53.5 95.5t68.5 90.5t69 76t70 71q172 172 180 291q7 122 -47 191.5t-158 74.5q-157 3 -184 -125q-6 -29 8 -73q16 -45 13 -64q-5 -43 -34.5 -66t-70.5 -16q-34 7 -48.5 40.5t-6.5 82.5q21 103 109 171t221 67q161 -5 249 -92.5
t70 -237.5q-4 -37 -23.5 -76t-46.5 -71t-69 -71.5t-77 -68.5t-86 -71t-83 -70q-92 -78 -155 -176t-76 -201zM186 156q-35 0 -58.5 -24.5t-23.5 -57.5q0 -32 25 -56t57 -24q48 -3 68 38.5t0 83.5t-68 40z" />
    <glyph glyph-name="at" unicode="@" horiz-adv-x="1488" 
d="M1137 1178q231 3 325 -134q99 -135 0 -356q-108 -246 -313 -387q-204 -139 -363 -145q-66 -1 -79.5 31.5t28.5 88.5l314 404q53 68 77 133q37 94 -43 94q-65 0 -174 -69q-107 -67 -207 -170q-150 -156 -210 -301q-44 -108 24 -117q62 -10 141 35q78 44 134 100l53 51
q-15 -21 -88 -94q-53 -53 -92 -82q-48 -38 -107 -66t-104 -28q-68 0 -87.5 50.5t13.5 125.5q56 133 176 262q308 329 549 314q71 -3 86 -66l115 57l-455 -608q-71 -83 -33 -98q12 -4 23 -4q158 9 319 133q165 127 248 334q26 64 31 128.5t-13 122.5t-55.5 103t-101.5 71.5
t-146 26.5q-150 -1 -299.5 -60.5t-267.5 -160.5q-115 -98 -201 -212t-133 -232q-90 -239 -7.5 -369.5t310.5 -128.5q357 0 703 301q-370 -364 -781 -367q-106 0 -184 30t-120 82t-57.5 122.5t-4.5 151t45 167.5q122 299 410 516q293 217 602 220z" />
    <glyph glyph-name="A" unicode="A" horiz-adv-x="1202" 
d="M1130 2h-489q71 0 131 45q62 47 59 135l-12 404h-479l-246 -377q-43 -68 -35.5 -114t41.5 -69.5t82 -23.5h-426q73 3 168 68q96 66 154 153l852 1293l55 -1356q1 -82 37 -117.5t108 -40.5zM723 1169l-371 -565h467l-12 440q-3 161 -14 168q-30 15 -70 -43z" />
    <glyph glyph-name="B" unicode="B" horiz-adv-x="1357" 
d="M432 1434h512q213 0 312 -100.5t63 -262.5q-31 -136 -145 -223.5t-269 -95.5q170 -21 252 -144q81 -123 41 -272q-22 -88 -69 -151.5t-109.5 -98.5t-141 -57t-164.5 -27t-178.5 -7.5t-183.5 1.5l-514 4q196 3 246 127l471 1165q25 63 -10.5 100t-112.5 42zM758 1419
l-256 -647q44 0 256 4q172 8 276 77t150 218q44 142 -33 244q-76 104 -274 104h-119zM340 12h74h129q160 5 241 37q92 39 154 99.5t92 166.5q49 163 -37 297q-84 135 -288 138l-209 6l-258 -629q-20 -50 4 -82t98 -33z" />
    <glyph glyph-name="C" unicode="C" horiz-adv-x="1292" 
d="M1423 1257l-104 -229q0 81 -21 156q-14 59 -43 108q-28 54 -87 93t-134 45q-174 15 -329 -113q-155 -125 -261 -336q-56 -114 -83 -248t-19 -260q8 -129 70 -223t168 -119q184 -43 348 49q164 95 272 279q-108 -224 -280 -359q-174 -133 -402 -96q-117 19 -197.5 89
t-115 170.5t-37 220t30 244.5t92.5 237q83 156 187.5 261t215.5 150q192 78 377 66q217 -18 352 -185z" />
    <glyph glyph-name="D" unicode="D" horiz-adv-x="1505" 
d="M1411 586q-231 -586 -956 -586h-621q210 3 270 156l465 1153q23 50 -16.5 85t-116.5 40h297q186 5 302.5 -9t207.5 -55q95 -44 158 -143q65 -100 80 -264q18 -166 -70 -377zM1026 260q143 148 227 365q82 213 70 401q-27 347 -336 377q-124 14 -221 10l-508 -1257
q-64 -129 94 -129h90q360 0 584 233z" />
    <glyph glyph-name="E" unicode="E" 
d="M877 1409h-117l-260 -645h155q184 0 265 67q40 33 59 56.5t51 75.5l-188 -488q7 33 7.5 65.5t-9 70t-31.5 65.5t-66.5 46.5t-107.5 18.5h-143l-242 -600q-20 -54 -3.5 -85t64.5 -31h189q268 0 489 96q198 91 301 221l-186 -342h-1272q81 0 160 43t106 102l471 1166
q17 50 -22 84t-115 39h965l37 -301l-25 45q-10 17 -66 84q-53 62 -100 84q-86 42 -162 51q-77 12 -204 12z" />
    <glyph glyph-name="F" unicode="F" horiz-adv-x="1267" 
d="M446 1434h961l35 -304l-25 46q-20 36 -65 86q-52 61 -99 84q-81 39 -156.5 51t-211.5 12h-113l-262 -647h154q183 0 264 67q40 33 59 56.5t51 75.5l-188 -488q7 33 7.5 65.5t-9 70t-31.5 65.5t-66.5 46.5t-107.5 18.5h-141l-248 -612q-24 -59 13.5 -90.5t123.5 -36.5
h-545q85 0 158.5 34.5t95.5 92.5l480 1182q20 53 -18.5 86.5t-115.5 38.5z" />
    <glyph glyph-name="G" unicode="G" 
d="M1440 1268l-97 -236q0 93 -47 213q-25 68 -81 116.5t-128 61.5q-409 83 -663 -489q-55 -124 -76 -272.5t-4 -282.5q18 -138 94 -230t195 -102q189 -15 309 96q121 115 164 258q24 77 -27 111q-49 34 -112 37h479l-39 -4q-43 -5 -90.5 -37t-69.5 -80q-31 -67 -180 -434
l-2 29q-5 32 -29.5 60t-60.5 32q-5 -1 -44.5 -23t-84.5 -44t-112 -38.5t-126 -11.5q-167 6 -277 99t-143 239q-31 141 -11.5 302.5t85.5 303.5q82 182 203.5 295.5t251.5 161.5q181 73 407 39q208 -38 316 -170z" />
    <glyph glyph-name="H" unicode="H" horiz-adv-x="1517" 
d="M1354 1434h524q-190 0 -248 -129l-469 -1178q-24 -59 16.5 -90.5t127.5 -36.5h-555q80 3 159 45q89 46 109 100l231 584h-735l-242 -602q-22 -59 17.5 -90.5t128.5 -36.5h-555q83 3 162 45q84 44 104 100l463 1164q20 53 -15.5 86.5t-111.5 38.5h524q-191 0 -246 -129
l-219 -549h738l219 553q20 53 -16 86.5t-111 38.5z" />
    <glyph glyph-name="I" unicode="I" horiz-adv-x="677" 
d="M459 1434h536q-197 0 -252 -129l-475 -1178q-24 -59 17.5 -90.5t128.5 -36.5h-568q88 3 168 41q87 41 121 129l449 1116q26 63 -7.5 103.5t-117.5 44.5z" />
    <glyph glyph-name="J" unicode="J" horiz-adv-x="612" 
d="M459 1434h502q-197 0 -250 -134l-426 -1067q-103 -254 -295 -409q-200 -159 -492 -162q100 0 283 111q97 59 192.5 181.5t159.5 278.5l436 1092q19 51 -9 78.5t-101 30.5z" />
    <glyph glyph-name="K" unicode="K" horiz-adv-x="1327" 
d="M483 1434h521q-188 0 -244 -129l-473 -1178q-25 -59 14.5 -90.5t126.5 -36.5h-557q87 2 166.5 45t112.5 125l460 1130q24 59 -11.5 94t-115.5 40zM817 745l195 -403q170 -342 245 -342h-223q-41 64 -82 147l-250 510q-19 37 -54.5 50t-65.5 7t-50 -20l658 520
q63 49 85.5 100.5t-4 85.5t-95.5 34h454q-151 -12 -508 -297l-233 -189q-69 -55 -84.5 -98t12.5 -105z" />
    <glyph glyph-name="L" unicode="L" horiz-adv-x="1249" 
d="M735 1303l-465 -1166q-23 -55 7.5 -81.5t109.5 -26.5h94q193 3 393 102q171 80 287 242l-192 -373h-1106q87 2 159.5 44.5t102.5 115.5l467 1149q20 53 -16.5 86.5t-112.5 38.5h520q-190 0 -248 -131z" />
    <glyph glyph-name="M" unicode="M" horiz-adv-x="2088" 
d="M2048 1434h305q-75 0 -134 -47t-91 -132l-420 -1046q-36 -96 6 -151.5t139 -57.5h-583q85 0 161 52t111 145l400 979q31 78 10 84q-15 6 -84 -72l-1018 -1202l-186 1159q-18 125 -39 125q-25 0 -60 -86l-387 -953q-40 -101 4 -163t152 -68h-508q87 3 184 66t144 172
l397 972q37 86 -6.5 154.5t-151.5 69.5h393l170 -1096q15 -91 52 -94q26 -7 84 63z" />
    <glyph glyph-name="N" unicode="N" horiz-adv-x="1521" 
d="M1384 1434h447q-205 0 -307 -244l-496 -1202l-379 1171q-30 105 -51 105q-22 3 -63 -99l-375 -925q-42 -104 1 -169t148 -71h-495q92 6 186 70q96 65 141 176l391 962q31 81 -10 152t-147 74h352l336 -1053q28 -72 45 -78q13 -5 27 13.5t39 76.5l331 805
q38 116 5.5 173.5t-126.5 62.5z" />
    <glyph glyph-name="O" unicode="O" horiz-adv-x="1443" 
d="M1188 1419q92 -26 156.5 -97t95.5 -177q32 -103 13 -255t-87 -317q-91 -229 -256 -387q-164 -155 -350.5 -198.5t-378.5 28.5q-121 52 -180 203q-56 154 -29 354q27 204 129 388q162 286 406 407q243 119 481 51zM1073 1419q-128 22 -291 -78q-91 -53 -185 -173
t-167 -285q-127 -291 -106 -555q21 -258 180 -318q44 -17 96 -18t113 13.5t125.5 56.5t126.5 106t122 168t107 237q127 359 90 586q-35 233 -211 260z" />
    <glyph glyph-name="P" unicode="P" horiz-adv-x="1261" 
d="M1303 1266q41 -74 20 -205q-21 -129 -92 -215q-87 -102 -195 -148t-233.5 -46t-286.5 20q174 -9 301 16q129 26 224.5 105.5t138.5 210.5q40 120 4 251q-18 72 -86.5 117.5t-173.5 46.5q-74 0 -152 -4l-518 -1272q-24 -60 17 -99t122 -44h-561q92 2 171.5 48t115.5 134
l446 1094q29 71 -2 112t-110 46h327h154q150 0 236 -39t133 -129z" />
    <glyph glyph-name="Q" unicode="Q" horiz-adv-x="1478" 
d="M1184 1419q90 -26 154.5 -97t95.5 -177q32 -104 13.5 -255.5t-85.5 -316.5q-142 -350 -428 -514q-283 -160 -559 -43q-122 52 -178 203q-55 152 -31 354q27 204 129 388q161 286 407 407q244 119 482 51zM1069 1419q-128 22 -291 -78q-91 -53 -185 -173t-167 -285
q-130 -297 -109 -555t183 -318q44 -17 96 -18t113 13.5t125.5 56.5t126.5 106t122 168t107 237q127 359 90 586q-35 233 -211 260zM442 -88q73 -23 133 -86q28 -29 76 -87.5t87 -100.5t73 -64q82 -58 195 -55q114 0 192 69q-64 -87 -161 -125.5t-214 -7.5
q-82 23 -146.5 78.5t-98.5 118.5q-35 62 -90 119t-119 84q-113 32 -190.5 28.5t-112.5 -30.5q173 124 376 59z" />
    <glyph glyph-name="R" unicode="R" horiz-adv-x="1306" 
d="M1307 995q-54 -137 -188.5 -211t-323.5 -82q70 -43 110 -137l123 -282q66 -156 113 -209q48 -54 100 -74h-227q-46 37 -105 182l-139 342q-50 121 -102 158q-50 39 -179 57l-237 -581q-28 -70 11 -114t112 -44h-529q53 0 102.5 17t96 60.5t72.5 108.5l444 1104
q23 60 -9.5 101.5t-105.5 42.5h504q240 0 332 -136q92 -135 25 -303zM1169 1014q53 136 11 256q-24 68 -104 108t-206 41l-104 2l-270 -667q178 -21 305 -2q132 19 229 86.5t139 175.5z" />
    <glyph glyph-name="S" unicode="S" horiz-adv-x="1128" 
d="M1225 1313l-84 -191q-10 101 -60 183q-52 88 -168 118q-174 40 -278 -51q-103 -90 -88 -256q9 -78 47 -133q24 -36 158 -164q47 -43 84 -80q249 -249 168 -469q-54 -141 -177 -213q-126 -72 -256 -75q-283 -9 -475 168q-48 43 -78 94l111 243l2 -32q0 -36 18 -96.5
t48 -112.5q64 -111 172.5 -177.5t244.5 -66.5q153 3 220 119q70 117 36 252q-16 69 -65 135q-50 74 -86 110q-30 32 -107 103q-141 133 -186 236t-8 227q82 257 432 266q161 3 291 -70q59 -32 84 -67z" />
    <glyph glyph-name="T" unicode="T" horiz-adv-x="1417" 
d="M328 1434h1196l-35 -277q0 3 -2.5 15t-11 36.5t-22 50t-40 54t-59.5 49.5q-60 35 -112 45t-146 10h-92l-7 -18l-491 -1223q-29 -76 18 -123.5t138 -52.5h-580q69 0 151 43q87 49 125 145l488 1211q-3 15 -88 18h-72q-121 0 -272 -80q-52 -27 -108 -76t-89 -90l-31 -34z
" />
    <glyph glyph-name="U" unicode="U" 
d="M1325 1434h461q-109 0 -188.5 -64.5t-145.5 -228.5l-272 -678q-187 -469 -592 -469q-129 0 -220.5 59.5t-131.5 157.5q-73 190 86 580l198 477q32 67 3 116t-109 50h501q-185 0 -249 -166l-246 -613q-60 -150 -68.5 -271t31.5 -185q80 -131 233 -146q355 -34 543 424
l297 731q96 220 -131 226z" />
    <glyph glyph-name="V" unicode="V" horiz-adv-x="1331" 
d="M516 -76l-57 1323q-6 178 -164 187h506q-71 0 -133 -45q-61 -43 -58 -136l33 -854q5 -91 10 -117t21 -32q17 -8 38.5 14t65.5 94l570 867q45 67 40 113.5t-37.5 71t-78.5 24.5h416q-79 -5 -166.5 -62.5t-153.5 -157.5z" />
    <glyph glyph-name="W" unicode="W" horiz-adv-x="1867" 
d="M1804 1434h418q-71 -3 -168 -66q-93 -61 -153 -154l-852 -1290l-43 1006l-664 -1006l-57 1354q-1 81 -37 116t-109 40h490q-71 0 -131 -45q-63 -45 -60 -136l27 -768q0 -61 4 -127q7 -87 15 -102q6 -11 14 -10q26 -9 82 78l424 647l-13 307q-4 82 -38.5 116.5
t-106.5 39.5h485q-71 0 -133 -45q-60 -42 -57 -136l37 -854v-9q0 -43 0.5 -63.5t3 -45.5t8.5 -35t16 -10q13 -4 27 10t34 45.5t27 40.5l586 893q45 67 40 113.5t-37.5 71t-78.5 24.5z" />
    <glyph glyph-name="X" unicode="X" horiz-adv-x="1212" 
d="M1096 1434h436q-78 -8 -180.5 -73t-190.5 -163l-403 -444l162 -604q19 -70 90 -110t157 -40h-538q75 6 114.5 44.5t26.5 84.5l-145 543l-408 -441q-80 -103 -61 -164t112 -67h-446q68 3 180 80t182 153l434 463l-163 611q-18 58 -71 92.5t-130 34.5h487
q-72 -5 -109 -38.5t-24 -84.5l144 -535l395 434q82 101 55 160q-25 61 -106 64z" />
    <glyph glyph-name="Y" unicode="Y" horiz-adv-x="1124" 
d="M1010 1434h389q-121 -15 -312 -236l-354 -412q-50 -60 -88 -155l-186 -463q-28 -70 12.5 -116t114.5 -52h-514q57 0 131 45q72 44 108 127l183 467q31 75 10 166l-107 471q-19 77 -72.5 117.5t-113.5 40.5h434q-66 -7 -93 -50t-13 -108l100 -445q12 -46 33 -49
q34 -3 69 41l332 387q77 103 47 162q-27 62 -110 62z" />
    <glyph glyph-name="Z" unicode="Z" horiz-adv-x="1292" 
d="M367 18h168q209 0 413 107q185 104 262 217l-153 -342h-1090l1254 1339q72 78 -27 78h-174q-221 0 -402 -96q-170 -92 -249 -215l151 328h969l-1190 -1278q-40 -42 -50.5 -70t7.5 -41.5t43.5 -19t67.5 -7.5z" />
    <glyph glyph-name="bracketleft" unicode="[" horiz-adv-x="548" 
d="M211 -375l-348 -2l737 1807l348 -5l-317 -30l-707 -1737z" />
    <glyph glyph-name="backslash" unicode="\" horiz-adv-x="702" 
d="M621 -16h-27l-561 1452h26z" />
    <glyph glyph-name="bracketright" unicode="]" horiz-adv-x="532" 
d="M326 1434l348 2l-737 -1807l-349 4l318 31l706 1737z" />
    <glyph glyph-name="asciicircum" unicode="^" horiz-adv-x="796" 
d="M408 1262l290 -527l-292 461l-308 -440z" />
    <glyph glyph-name="underscore" unicode="_" horiz-adv-x="829" 
d="M-82 4v21h813v-21h-813z" />
    <glyph glyph-name="grave" unicode="`" horiz-adv-x="495" 
d="M127 1298l59 -284l-147 258q-18 42 -13.5 68t25.5 32q29 12 50 -9t26 -65z" />
    <glyph glyph-name="a" unicode="a" horiz-adv-x="1007" 
d="M696 61q27 -9 92 41q69 56 117 107l49 53l-65 -78l-84 -96q-22 -22 -78 -61q-47 -33 -88 -33q-69 0 -85 57.5t26 149.5l198 467q89 239 -26 266q-82 21 -193 -68q-113 -90 -207 -239q-76 -110 -120.5 -231.5t-37.5 -211.5t74 -102q50 -10 104.5 7.5t96.5 55.5
q72 62 117 125q-38 -70 -109 -161q-49 -59 -114.5 -92.5t-135.5 -32.5q-103 0 -141.5 91t-7 227.5t120.5 266.5q129 198 273 291.5t269 87.5q103 -3 138 -84l57 27l86 49l-309 -743q-53 -127 -17 -136z" />
    <glyph glyph-name="b" unicode="b" horiz-adv-x="925" 
d="M377 709q43 72 131 151q97 84 194 90q61 7 107 -17.5t68.5 -76t24 -121.5t-27 -161t-83.5 -187q-87 -155 -183 -244q-174 -171 -334 -168q-83 0 -132.5 41.5t-62 111t0.5 155t51 178.5l322 796q52 119 34 140q-10 12 -58.5 21.5t-94.5 11.5l-45 4h373l-408 -1004
q-38 -90 -59 -178q-22 -89 -13 -166t64 -92q91 -24 198 74q113 107 195 256q65 115 102 227q37 113 25 203q-9 91 -90 106q-73 19 -162 -37q-92 -55 -137 -114z" />
    <glyph glyph-name="c" unicode="c" horiz-adv-x="819" 
d="M670 950q69 -1 114 -39t56 -92q9 -72 -25 -112q-23 -26 -59 -30t-54 15q-24 24 -21 56.5t30 50.5q41 27 41 67q0 73 -88 76q-85 3 -185 -86q-117 -102 -196 -285q-79 -180 -76 -307q6 -185 147 -194q57 -4 111.5 15.5t94.5 53.5t65.5 62.5t42.5 54.5l14 23
q-14 -39 -59 -103q-48 -79 -126 -135.5t-178 -63.5q-99 -5 -166 60.5t-73 173.5q-7 134 49.5 283t157.5 266q175 196 383 190z" />
    <glyph glyph-name="d" unicode="d" horiz-adv-x="1007" 
d="M692 74q18 -11 76 35q70 53 113 96l51 49q-212 -258 -322 -258q-34 0 -48.5 22.5t-10.5 56.5t20 79l197 487q94 260 -29 295q-84 21 -194 -66q-105 -80 -195 -233q-72 -122 -117 -242q-43 -112 -40 -217q6 -95 81 -110q65 -12 138 28q46 27 82.5 59t54.5 54t45 59
q-7 -18 -16.5 -33t-49.5 -73q-43 -61 -75 -90q-43 -41 -105 -71.5t-119 -29.5q-61 -1 -101 35t-52 99t-4 140t40.5 164t84.5 166q244 392 532 377q87 -3 135 -75l156 387q43 114 29 131q-8 11 -62 20q-81 14 -98 15l-47 2h372l-518 -1289q-22 -60 -4 -69z" />
    <glyph glyph-name="e" unicode="e" horiz-adv-x="876" 
d="M719 952q53 -3 93.5 -34.5t56.5 -77t-1.5 -104.5t-72.5 -111q-78 -78 -238 -113q-149 -33 -276 -33q320 24 452 223q32 47 45.5 100t-0.5 93.5t-57 46.5q-95 15 -201 -82q-100 -90 -192 -246q-50 -85 -88 -211q-31 -117 -13 -217q21 -104 109 -125q58 -14 119 2
t110.5 53.5t82 69.5t57.5 64l18 29q-26 -51 -70 -111q-49 -64 -84 -94q-49 -45 -120.5 -75t-141.5 -26q-80 2 -133 52.5t-71 131t2 190.5t79 224q60 116 134.5 199t148.5 121q140 73 252 61z" />
    <glyph glyph-name="f" unicode="f" horiz-adv-x="569" 
d="M1098 1311q6 -53 -19.5 -83.5t-62.5 -25.5q-37 1 -52.5 32.5t5.5 57.5q33 38 17.5 85.5t-73.5 60.5q-101 24 -173.5 -57t-151.5 -283l-70 -176h234l-35 -21h-207l-377 -948q-102 -259 -231 -336q-59 -35 -107 -48t-106 -11q-158 9 -207 102q-20 35 -15 73.5t31 55.5
q29 20 64.5 6.5t36.5 -49.5q1 -19 -12 -49.5t-13 -34.5q-5 -33 24.5 -59.5t84.5 -30.5q160 -12 323 399l373 930h-78l-27 21h113l53 135q93 230 210 324t272 71q77 -11 123 -52t53 -89z" />
    <glyph glyph-name="g" unicode="g" horiz-adv-x="911" 
d="M627 948q120 -7 187 -78.5t65 -177.5q-3 -184 -142 -299q-136 -112 -311 -88q-89 9 -143 47q-100 -51 -84 -112q5 -37 80 -84l180 -103q111 -60 162 -114q82 -76 73 -191q-12 -128 -129 -202t-291 -66q-104 3 -215 33q-103 31 -166 101t-57 165q3 50 27 94.5t56 74
t72 52.5t72.5 35.5t59.5 17.5l33 8q-199 -108 -205 -270q-3 -138 106 -215t262 -80q80 0 138.5 23.5t83.5 62.5q44 61 47 125q9 149 -187 258l-98 49l-88 45q-28 17 -47.5 31t-40 34.5t-29 43t-2.5 45.5q3 60 60 94q54 35 118 51q-98 76 -92 209q6 168 131 281
q124 112 314 100zM764 668q21 229 -131 264q-130 27 -221 -80q-92 -109 -113 -264q-13 -110 20 -181t115 -88q126 -27 221 78q97 108 109 271zM999 936q48 0 48 -39q0 -18 -13 -30t-35 -11q-14 0 -35 11.5t-28 11.5q-40 3 -84 -41q18 24 22 28q23 25 58.5 47.5t66.5 22.5z
" />
    <glyph glyph-name="h" unicode="h" horiz-adv-x="1091" 
d="M702 1434l-579 -1434h-117l467 1192l31 80q45 114 28 131q-7 10 -54.5 17.5t-96.5 9.5l-47 4h368zM772 63q16 -9 78 41q57 47 119 105l55 55l-61 -74q-57 -66 -72 -77q-117 -117 -186 -117q-117 0 -43 188l151 381q39 95 53 168q11 56 -1.5 86.5t-55.5 42.5
q-149 46 -422 -262q67 90 156 188q73 78 161.5 121.5t174.5 32.5q198 -27 61 -379l-68 -172l-79 -207q-47 -112 -21 -121z" />
    <glyph glyph-name="i" unicode="i" horiz-adv-x="628" 
d="M627 1118q-25 -25 -60 -25t-61 25q-25 26 -25 61t25 60q36 40 83 23.5t59 -60.5t-21 -84zM113 141l262 639q31 72 10 78q-14 8 -80 -39q-74 -53 -117 -94l-55 -51q225 261 334 264q58 1 72 -46.5t-19 -113.5l-266 -649q-27 -59 -6 -68q16 -8 82 39q60 43 119 99l55 51
q-227 -266 -346 -266q-110 0 -45 157z" />
    <glyph glyph-name="j" unicode="j" horiz-adv-x="585" 
d="M649 1118q-25 -25 -60 -25t-61 25q-25 26 -25 61t25 60q36 40 83 23.5t59 -60.5t-21 -84zM537 793l-387 -955q-126 -311 -474 -270q-45 6 -93 32t-66 56q-25 36 -23.5 68.5t25.5 50.5q26 26 65.5 14t46.5 -53q3 -16 -12 -82q0 -55 51 -64q201 -47 336 273l371 893
q46 106 20 116q-15 9 -80 -41q-54 -41 -118 -102l-56 -51q212 247 314 262q67 11 89 -27t-9 -120z" />
    <glyph glyph-name="k" unicode="k" horiz-adv-x="897" 
d="M647 78q41 -10 85.5 11.5t66.5 53.5l18 27q-73 -192 -215 -180q-148 15 -172 250q-8 64 -10 108q-2 65 -7 93.5t-22 47.5q-23 30 -51 33l-211 -522h-125l500 1255q4 11 10.5 27.5t10.5 27t9 24.5t7.5 23t4.5 18t2 15t-3 9q-10 11 -59.5 20t-100.5 11l-47 4h373l-365 -897
q113 15 148 -76q10 -30 16 -131q8 -107 40 -171.5t97 -80.5zM909 934q50 -17 41 -64q-9 -44 -51 -47q-7 0 -45.5 -5.5t-60.5 -10.5q-71 -14 -166 -64q-55 -28 -120 -75.5t-106 -85.5l-34 -33q125 151 225 229q219 183 317 156z" />
    <glyph glyph-name="l" unicode="l" horiz-adv-x="542" 
d="M715 1434l-520 -1293q-27 -83 -13 -86q20 -7 80 39q64 46 117 99l53 49q-218 -258 -332 -258q-106 0 -39 172l453 1112q48 116 33 131q-10 11 -59 20t-97 11l-45 4h369z" />
    <glyph glyph-name="m" unicode="m" horiz-adv-x="1685" 
d="M1391 53q18 -9 77 41q55 47 113 105l49 53l-43 -51q-16 -18 -35 -41.5t-32.5 -39t-34.5 -36.5q-88 -88 -164 -96q-110 0 -43 184l147 395q35 92 47.5 141t4.5 89.5t-47 60.5q-73 24 -175.5 -46t-259.5 -257q160 223 222 285q135 132 272 108q200 -36 63 -385l-137 -385
q-49 -119 -24 -125zM428 586q119 174 225 270q127 115 260 88q192 -40 66 -381l-217 -565h-121l207 569q32 92 43.5 143.5t2 89t-47.5 54.5q-156 50 -418 -268zM487 774l-311 -774h-119l301 776q35 68 9 78q-15 9 -78 -39q-85 -67 -113 -94l-53 -51q219 263 309 266
q59 4 73 -43t-18 -119z" />
    <glyph glyph-name="n" unicode="n" horiz-adv-x="1146" 
d="M829 66q21 -9 82 43q62 53 113 104l53 55q-5 -5 -29 -35.5t-32 -39.5q-1 -2 -30 -33t-40 -45q-117 -117 -182 -115q-61 0 -73.5 57t24.5 129l155 383q101 250 -2 291q-148 54 -426 -280q69 96 117 157q54 65 109 117q124 116 260 92q214 -41 76 -375l-154 -378
q-43 -118 -21 -127zM498 758l-301 -758h-127l290 756q35 80 13 86q-17 10 -76 -37q-54 -40 -109 -92l-49 -49q216 259 320 262q55 1 63.5 -49.5t-24.5 -118.5z" />
    <glyph glyph-name="o" unicode="o" horiz-adv-x="935" 
d="M532 934q171 52 267 -35q95 -83 92 -246q-2 -127 -56.5 -258t-137 -229t-190.5 -152.5t-210 -36.5q-83 10 -133.5 62t-65 126t-7.5 155t34 159q36 109 89 196t112 138q112 95 206 121zM551 920q-87 -38 -168 -168q-78 -125 -127 -289q-43 -169 -35 -309q6 -80 47 -124
t111 -40q89 6 174 119q90 116 141 262q54 147 70 293q24 173 -49 237q-72 66 -164 19z" />
    <glyph glyph-name="p" unicode="p" horiz-adv-x="1030" 
d="M827 952q79 1 121.5 -54t44.5 -140.5t-31.5 -193t-97.5 -208.5q-239 -394 -520 -376q-102 6 -129 92l-137 -340q-52 -125 -35 -142q10 -10 66 -16q57 -9 106 -12l51 -2h-590q98 0 172 22q18 6 27 12q20 17 70 138l428 1052q30 67 10 76q-19 8 -84 -39q-67 -50 -115 -96
l-53 -51q225 267 336 264q91 -3 39 -143l-191 -473q-23 -64 -36 -115q-13 -62 -5 -127q9 -71 68 -86q81 -23 186.5 64.5t200.5 250.5q70 124 109 241.5t29.5 206t-81.5 103.5q-44 10 -94 -11t-95 -64.5t-73.5 -77.5t-56.5 -72l-21 -29q0 3 18 38t53.5 88t79.5 103t106 84.5
t124 32.5z" />
    <glyph glyph-name="q" unicode="q" horiz-adv-x="983" 
d="M518 -410q10 -14 162 -28l47 -2h-586q161 3 197 34q23 23 68 125l370 910q103 274 -24 309q-80 20 -197 -70q-111 -89 -203 -239q-71 -121 -119 -246q-46 -119 -43 -213q3 -96 78 -111q49 -10 103.5 12t102 65.5t79.5 79.5t57 71l19 30q0 -1 -10 -20t-30 -51t-46 -69
t-61.5 -74t-73 -67t-84 -48.5t-91.5 -16.5q-64 -1 -105 34t-54 96t-5 137t41.5 163t86.5 168q254 395 546 383q103 -6 144 -86q142 71 155 84l-495 -1224q-46 -119 -29 -136z" />
    <glyph glyph-name="r" unicode="r" horiz-adv-x="835" 
d="M35 0l315 788q8 21 11.5 33t5 22.5t-2.5 15t-12 5.5q-23 0 -82 -47q-65 -52 -108 -92l-49 -47q73 84 168 170q97 84 141 90q80 15 86 -45q6 -38 -23 -109l-319 -784h-131zM451 676l18 24q65 81 121 134q114 99 213 96q48 0 75 -23.5t27 -60.5q-2 -36 -26.5 -56.5
t-61.5 -13.5q-27 3 -47 33q-19 28 -59 31q-101 6 -260 -164z" />
    <glyph glyph-name="s" unicode="s" horiz-adv-x="829" 
d="M559 954q102 3 172 -41q77 -47 80 -122q2 -34 -16.5 -62t-49.5 -29q-30 0 -49.5 18.5t-17.5 43.5q0 12 14.5 41t14.5 41q0 44 -40 73.5t-106 28.5q-69 -3 -117 -63q-44 -55 -38 -121q3 -48 24 -94l19 -39l30 -49l31 -52l41 -67q36 -55 43 -70q43 -79 43 -145
q3 -134 -100 -205q-100 -69 -250 -66q-114 1 -180.5 63t-71.5 161q-6 63 25.5 107t82.5 46q35 0 54.5 -23t11.5 -53q-9 -34 -41 -45q-33 -13 -41 -38q-35 -65 10 -134q42 -66 133 -75q104 -9 172 59t62 160q-3 79 -109 250q-77 129 -90 159q-20 47 -20 107q0 98 77.5 163.5
t196.5 71.5z" />
    <glyph glyph-name="t" unicode="t" horiz-adv-x="610" 
d="M666 903h-140l-303 -768q-28 -72 -6 -78q17 -9 80 39q61 50 115 103l53 53l-49 -62l-62 -73q-35 -40 -57 -62q-66 -66 -131 -69q-62 -5 -86 40.5t4 120.5l305 756h-76l-14 19h96l86 211l181 112l-127 -323h149z" />
    <glyph glyph-name="u" unicode="u" horiz-adv-x="1079" 
d="M356 872q-14 9 -73 -41q-58 -46 -107 -98l-49 -53l57 70q31 40 66 75q54 54 94.5 83.5t75.5 29.5q59 0 70.5 -55t-23.5 -127q-26 -62 -152 -398q-30 -72 -45 -137q-30 -128 43 -149q128 -46 396 280q-61 -88 -111 -153q-41 -53 -100 -115q-113 -116 -242 -92
q-202 34 -70 370q115 303 154 394q40 107 16 116zM1073 922l-305 -783q-30 -77 -10 -86q19 -6 78 41q56 45 112 101l51 51q-132 -163 -200 -215q-62 -47 -107 -47q-53 1 -69.5 50.5t10.5 110.5l309 777h131z" />
    <glyph glyph-name="v" unicode="v" horiz-adv-x="911" 
d="M848 936q49 -6 67.5 -43t7.5 -95.5t-43 -131.5t-83 -154q-87 -142 -222 -295q-141 -160 -243 -242l10 76q4 31 14 178q8 124 2 244q-15 364 -147 385q-34 5 -67.5 -22.5t-51.5 -79.5q11 70 51 122t97 58q111 12 173.5 -107t73.5 -348q9 -233 -6 -344q66 60 170 195
q103 133 140 203q85 166 20 243q-44 59 -41 96q2 27 23.5 46.5t54.5 15.5z" />
    <glyph glyph-name="w" unicode="w" horiz-adv-x="1329" 
d="M1282 936q52 -3 63 -72t-31 -197.5t-136 -279.5q-88 -143 -222 -262q-131 -116 -225 -150q0 1 3 11.5t7.5 31t8.5 50.5q9 53 12 104q12 146 -21 297l-20 -41q-58 -94 -162 -205q-54 -54 -143 -129q-88 -71 -121 -90l-45 -29q39 227 45 474q6 217 -19 309q-24 89 -75 98
q-39 11 -65.5 -14.5t-51.5 -96.5q18 117 55 154q29 34 78 37q107 8 159 -108t48 -355q-9 -230 -31 -377q219 157 344 389q-5 23 -21.5 74t-19.5 64q-18 70 -20 100q-15 184 143 205q49 6 69.5 -29t14.5 -100q-7 -71 -69 -199q77 -245 43 -518q99 66 213 207q109 135 151 248
q52 141 -2 241l-33 49q-13 22 -10 58q5 27 28 41t58 10zM874 805q-3 97 -45 100q-11 0 -24 -10q-29 -32 -14 -150l36 -135l4 4q1 2 7.5 21t11.5 35.5t11 40t9.5 48t3.5 46.5z" />
    <glyph glyph-name="x" unicode="x" horiz-adv-x="964" 
d="M905 944q42 1 70 -14.5t39.5 -37.5t14.5 -53t0 -56t-9 -52q4 54 -28 87.5t-83 35.5q-115 3 -247 -172q-4 -5 -123 -170l20 -197q19 -144 41.5 -201t73.5 -63q92 -9 143 96q0 -3 -4.5 -17.5t-17.5 -39t-31.5 -47.5t-50.5 -41t-70 -20q-160 -3 -186 208l-25 209
q-61 -94 -139 -198q-89 -121 -146 -172q-55 -49 -131 -49q-110 3 -125 83t68 154q-32 -47 -13.5 -92t72.5 -53q63 -6 123 27t140 122q65 71 149 193l-35 284q-15 159 -96 168q-105 6 -166 -129q5 25 27 70q69 132 174 137q87 1 128 -55t58 -197l19 -170l114 185l39 61
q31 51 45 68q29 44 76 79.5t92 28.5z" />
    <glyph glyph-name="y" unicode="y" horiz-adv-x="884" 
d="M827 940q76 -5 77 -101q1 -130 -123 -341q-33 -55 -72 -111q-128 -184 -291 -362q-159 -177 -336 -312q-141 -106 -238 -121q-112 -12 -147 19q-27 24 -13.5 64.5t56.5 52.5q6 0 27 2t28 -2q29 -9 78 -33q49 -19 120.5 2.5t141.5 81.5l58 49q58 50 161 156q0 28 2 67
q2 41 2 121q4 145 -10 311q-24 208 -52.5 289.5t-84.5 87.5q-78 6 -121 -100q41 164 141 176q114 12 169.5 -92t76.5 -348q20 -242 8 -367q122 140 181 223q96 135 120 199q30 74 31 136.5t-26 96.5q-4 5 -14.5 19t-14 20t-9.5 16.5t-8 20.5t-2 21q2 27 25 46t59 13z" />
    <glyph glyph-name="z" unicode="z" horiz-adv-x="784" 
d="M195 774l26 41q27 47 82.5 87t108.5 40q59 -3 116 -35q65 -30 107 -30q57 0 127 18q75 21 84 37q-24 -65 -129 -203q-102 -139 -250 -250l-135 -98l-119 -86q-92 -66 -143 -129l16 8q59 26 115 23q73 -6 153 -56q84 -47 140 -53q141 -15 211 76l-25 -45q-21 -47 -80 -94
q-55 -46 -119 -43q-86 0 -182 51q-93 52 -164 55q-121 6 -207 -68l23 33q24 37 69.5 91.5t90.5 93.5q55 47 227 168q186 131 258 206q100 100 145 185l-24 -11q-61 -26 -162 -12q-45 9 -104 39q-60 32 -84 35q-107 15 -172 -74z" />
    <glyph glyph-name="braceleft" unicode="{" horiz-adv-x="665" 
d="M993 1430q-147 15 -227 -15q-73 -30 -125 -100q-54 -70 -90 -187q-32 -103 -45 -196q-13 -94 -61 -178t-128 -131q34 -46 19 -150q-15 -107 -60 -192q-2 -3 -9 -17t-19 -37t-25 -47q-39 -70 -63 -123q-23 -45 -44 -113t-22 -122q0 -60 27.5 -106t73.5 -72.5t93.5 -41
t100.5 -20.5q-134 1 -220 44.5t-116.5 117.5t-17.5 171.5t71 209.5l44 84q27 50 67 135q24 52 31.5 85.5t7.5 80.5q0 104 -92 131q68 9 141 66q75 60 121 225q1 2 26 108.5t48 165.5q40 101 109 164.5t145 75.5q141 23 239 -16z" />
    <glyph glyph-name="bar" unicode="|" horiz-adv-x="274" 
d="M4 -115l143 1768h15l-142 -1768h-16z" />
    <glyph glyph-name="braceright" unicode="}" horiz-adv-x="598" 
d="M-391 -406q147 -15 227 15q73 30 125 100q76 101 123 324q15 75 29.5 126t41.5 113.5t70.5 110.5t102.5 82q-31 36 -31 129q3 101 39 168q11 26 65 125q56 103 79.5 171.5t27.5 143.5q0 60 -27.5 106t-73.5 72.5t-93.5 41t-100.5 20.5q108 -2 186 -30t119 -77.5
t52.5 -117t-7.5 -148t-67 -170.5l-58 -104l-37 -78q-1 -3 -10.5 -30.5t-9.5 -33.5q0 -2 -3.5 -33t1.5 -38q0 -104 92 -131q-68 -9 -141 -66q-37 -31 -84 -121q-45 -85 -70 -172q-1 -2 -26 -108.5t-48 -165.5q-40 -101 -109 -164.5t-145 -75.5q-141 -23 -239 16z" />
    <glyph glyph-name="asciitilde" unicode="~" horiz-adv-x="794" 
d="M137 588q38 77 100.5 118.5t129.5 36.5q49 -3 108 -59q62 -53 103 -53q128 0 178 102q-14 -53 -76 -106q-59 -47 -123 -47q-65 0 -125 57q-57 57 -121 57q-93 0 -174 -106z" />
    <glyph glyph-name="exclamdown" unicode="&#xa1;" horiz-adv-x="436" 
d="M391 870q2 -50 -40 -70.5t-84 0t-40 70.5q-1 29 16 49t41.5 24.5t49 0t41.5 -24.5t16 -49zM236 668q-80 -230 -119 -361q-16 -54 -48.5 -160t-45.5 -149q-23 -78 -70 -221q-47 -162 -111 -196q-36 -19 -55 12l-4 10q-8 45 25 133t114 262q112 225 207 430q85 187 107 240
z" />
    <glyph glyph-name="cent" unicode="&#xa2;" horiz-adv-x="839" 
d="M836 928q9 -67 -25 -101q-23 -26 -54 -31t-48 13q-24 19 -21.5 50t29.5 48q16 8 23 13t12.5 18.5t3.5 34.5q-9 63 -94 63q-3 0 -31 -4l-328 -809q27 -15 66 -18q55 -4 108.5 16.5t93 55t65.5 65.5t42 59l14 23q-22 -43 -65 -107q-49 -81 -125.5 -139t-165.5 -65
q-47 0 -74 8l-51 -127h-21l54 133q-131 53 -140 209q-7 130 48.5 276.5t154.5 259.5q139 160 311 181l56 137h20l-55 -135h35q69 -1 111.5 -37t50.5 -90zM287 233l321 795q-64 -19 -121 -67q-114 -94 -190 -269q-73 -174 -70 -301q3 -110 60 -158z" />
    <glyph glyph-name="sterling" unicode="&#xa3;" horiz-adv-x="1146" 
d="M1343 1450q70 -11 101.5 -58t5.5 -106q-11 -27 -37 -44.5t-55 -16.5q-43 5 -54 36t15 74q28 51 15 78t-62 29q-57 0 -125 -53q-74 -57 -109 -103q-23 -28 -96 -131l-414 -563h238l-27 -19h-225l-268 -340q144 9 231 -57l90 -70q36 -28 97 -43q59 -20 143 -2q86 19 113 80
q14 35 -4.5 62t-61.5 33q-28 4 -42 26t-9 49q15 60 74 66q65 9 86 -53q14 -50 -7 -125q-26 -111 -118 -181q-87 -67 -228 -36q-41 9 -72.5 29t-50 43.5t-42 50t-47.5 49t-67 39t-100 20.5q-13 -19 -54.5 -68t-67.5 -75q-79 -76 -146 -76q-35 0 -53 13t-17.5 32.5t10 40.5
t25.5 39q77 89 252 119l236 335h-131l-17 19h160q54 81 96 149q95 155 262 398q121 172 270.5 254.5t286.5 56.5zM29 84q54 21 135 131q-42 -3 -105 -35q-56 -30 -71 -65q-11 -19 3 -30t38 -1z" />
    <glyph glyph-name="currency" unicode="&#xa4;" horiz-adv-x="962" 
d="M1020 1049l24 -39l-157 -111q46 -98 -6 -223q-52 -131 -181 -230l68 -106l-45 -33l-64 111q-131 -88 -268 -88q-129 0 -192 84l-152 -109l-22 39l149 109q-44 102 8 223q51 127 180 229l-69 109l45 30l65 -112q140 90 269 90t194 -86zM831 676q34 87 27 154t-59.5 108
t-139.5 41q-120 0 -251 -90q-129 -91 -177 -213q-52 -125 -2 -215q49 -88 172 -88q125 0 250 88q127 87 180 215z" />
    <glyph glyph-name="yen" unicode="&#xa5;" horiz-adv-x="1267" 
d="M1255 1434h367q-149 -27 -324 -211l-411 -447h289l-27 -20h-813l-17 20h248l-100 486q-16 69 -52.5 113.5t-70.5 51.5l-29 7h471q-56 0 -122 -54q-62 -53 -41 -137l43 -203l61 -264h131l367 393q59 61 87 118.5t14.5 98t-71.5 48.5zM592 614h-313l-17 21h856l-26 -21
h-320q-26 -37 -51 -100l-150 -367q-14 -26 -14 -51t5 -34.5t16 -28.5q13 -13 37 -21t39.5 -10t25.5 -2h-485q43 0 98 18q39 12 73 46t54 83l149 367q23 64 23 100z" />
    <glyph glyph-name="brokenbar" unicode="&#xa6;" horiz-adv-x="405" 
d="M231 838l228 559h16l-227 -559h-17zM-98 18l225 560h16l-225 -560h-16z" />
    <glyph glyph-name="section" unicode="&#xa7;" horiz-adv-x="942" 
d="M788 1470q119 -3 173 -75q56 -71 18 -164q-35 -86 -105 -86q-27 0 -37 17.5t-3 43.5t26 54q46 76 -2 133q-47 56 -149 53q-76 -5 -151.5 -47t-117.5 -107q-18 -29 -29 -58t-10 -63t18 -61t62.5 -48t116.5 -28q73 -9 124 -30.5t78.5 -51t37.5 -68t4.5 -81t-25.5 -90.5
q-54 -118 -168 -201q41 -83 -12 -207q-52 -125 -180 -207t-267 -82q-179 0 -245 90q-64 88 -23 193q18 45 51 74.5t72 29.5q41 0 54 -31.5t-11 -66.5q-68 -121 -25 -190q38 -62 132 -74q93 -12 194 37q99 48 143 151q94 230 -198 267q-300 43 -193 284q52 119 174 203
q-51 69 2 197q56 123 185 209q127 84 286 81zM512 895q-131 15 -184 74q-53 -41 -80 -90q-17 -29 -26 -57.5t-5.5 -60t22.5 -56.5t64.5 -44t114.5 -26q161 -18 221 -105q44 41 68 99q92 231 -195 266z" />
    <glyph glyph-name="dieresis" unicode="&#xa8;" horiz-adv-x="1179" 
d="M195 1098q-33 0 -56.5 23.5t-23.5 58.5q0 32 23.5 54.5t56.5 22.5q35 0 58 -22t23 -55q0 -35 -23 -58.5t-58 -23.5zM600 1098q-33 0 -56.5 23.5t-23.5 58.5q0 32 23.5 54.5t56.5 22.5q35 0 58.5 -22.5t23.5 -54.5q0 -35 -23.5 -58.5t-58.5 -23.5z" />
    <glyph glyph-name="copyright" unicode="&#xa9;" horiz-adv-x="1542" 
d="M1038 20q-274 -194 -549 -194q-274 0 -391 194q-118 198 -6 472q112 276 385 469q274 194 549 194q274 0 391 -194q118 -195 6 -469q-112 -276 -385 -472zM1409 494q108 267 -6 454q-114 191 -381 191t-535 -191q-261 -186 -370 -454q-109 -270 4 -459q115 -189 379 -189
q263 0 532 189q269 192 377 459zM408 442q-37 -150 23 -241t194 -103q123 -11 249.5 38.5t231.5 160.5q-89 -127 -234 -213q-147 -84 -294 -84q-196 0 -285 123q-87 124 -4 344q70 175 211 301q139 124 295 175.5t297 27.5q89 -14 138 -74t19 -133q-19 -43 -54 -69t-67 -21
q-45 3 -52.5 40.5t22.5 80.5q44 78 17.5 119.5t-111.5 46.5q-189 9 -365 -144q-175 -150 -231 -375z" />
    <glyph glyph-name="guillemotleft" unicode="&#xab;" horiz-adv-x="681" 
d="M309 279l-178 290l358 310l-290 -318zM514 279l-178 290l358 310l-291 -318z" />
    <glyph glyph-name="logicalnot" unicode="&#xac;" horiz-adv-x="935" 
d="M180 651h707l-8 -16l-86 -211h-17l86 211h-690z" />
    <glyph glyph-name="registered" unicode="&#xae;" horiz-adv-x="1503" 
d="M461 961q274 194 549 194q274 0 391 -194q118 -195 6 -469q-112 -276 -385 -472q-274 -194 -549 -194q-274 0 -391 194q-118 198 -6 472q112 276 385 469zM1393 494q107 266 -7 454q-114 191 -380 191q-267 0 -535 -191q-263 -187 -371 -454q-109 -270 4 -459
q115 -189 379 -189t533 189q269 192 377 459zM883 952q131 -2 189 -23t65 -79q15 -54 -19 -121q-52 -117 -157 -178q-68 -35 -142 -47q44 -15 62 -107l41 -213q7 -35 26.5 -62.5t38.5 -35.5l17 -6h-150q-22 40 -37 123l-37 200q-9 49 -37 70q-17 15 -36.5 21.5t-33.5 7
t-61 0.5h-14l-141 -344q-10 -22 -5.5 -36.5t10.5 -23t19.5 -12.5t21.5 -5t15 -1h-276q96 0 131 86l282 696q5 22 7 36.5t-7 24t-15.5 14.5t-19 7.5t-17.5 3t-11 0.5q79 0 145 2q122 4 146 2zM1032 727q52 130 -12 175.5t-246 37.5l-172 -428q15 0 117 4q108 6 191.5 62
t121.5 149z" />
    <glyph glyph-name="overscore" unicode="&#xaf;" horiz-adv-x="1228" 
d="M322 1090l8 14l403 2l-8 -16h-403z" />
    <glyph glyph-name="degree" unicode="&#xb0;" horiz-adv-x="350" 
d="M272 1044q-51 0 -89 38t-38 89q0 55 37.5 93.5t89.5 38.5q56 0 94 -38.5t37 -93.5q0 -54 -37.5 -90.5t-93.5 -36.5zM203 1104q31 -31 71.5 -31t71.5 31t31 71.5t-31 71.5t-71.5 31t-71.5 -31q-29 -31 -29 -71.5t29 -71.5z" />
    <glyph glyph-name="plusminus" unicode="&#xb1;" horiz-adv-x="1153" 
d="M848 1159l-172 -426h428l-8 -18h-426l-142 -348h-20l141 348h-428l8 18h426l172 426h21zM913 260h-874l6 21h875z" />
    <glyph glyph-name="acute" unicode="&#xb4;" horiz-adv-x="481" 
d="M285 1040l174 238q23 37 51.5 46.5t48.5 -13.5q18 -13 9.5 -42t-40.5 -55z" />
    <glyph glyph-name="middot" unicode="&#xb7;" horiz-adv-x="415" 
d="M127 584q0 35 24.5 58.5t57.5 23.5q32 0 56 -25t24 -57q3 -48 -38.5 -68t-83.5 0t-40 68z" />
    <glyph glyph-name="cedilla" unicode="&#xb8;" horiz-adv-x="1228" 
d="M-8 -115l135 111l25 8l-105 -88q58 -5 86.5 -29.5t25 -58.5t-33.5 -72q-40 -60 -100 -96.5t-115.5 -43.5t-101 5t-62.5 41q33 -22 86 -25t117.5 28t109.5 97q22 30 23 54.5t-14 38t-34.5 21t-41.5 9.5z" />
    <glyph glyph-name="guillemotright" unicode="&#xbb;" horiz-adv-x="686" 
d="M213 854l178 -291l-358 -309l291 317zM406 848l178 -291l-359 -309l291 317z" />
    <glyph glyph-name="questiondown" unicode="&#xbf;" horiz-adv-x="600" 
d="M461 813q-35 0 -58.5 23.5t-23.5 58.5q0 52 51 72.5t86 -17.5q38 -35 17.5 -86t-72.5 -51zM438 707q-1 -88 -29 -171t-81.5 -157.5t-97 -123t-109.5 -112.5q-170 -170 -178 -288q-7 -122 47 -192t157 -75q158 -3 185 125q6 29 -8 74q-16 45 -13 63q5 43 34.5 66t70.5 16
q34 -7 48.5 -40.5t6.5 -81.5q-21 -103 -109 -171t-221 -67q-161 5 -249 92.5t-70 237.5q5 43 28.5 87t69.5 91t83.5 80t105 87.5t98.5 80.5q92 80 155 178t76 201z" />
    <glyph glyph-name="Agrave" unicode="&#xc0;" horiz-adv-x="1202" 
d="M971 1778l59 -285l-147 258q-18 41 -15 67.5t27 32.5q26 12 48 -8.5t28 -64.5zM1130 2h-489q71 0 131 45q62 47 59 135l-12 404h-479l-246 -377q-43 -68 -35.5 -114t41.5 -69.5t82 -23.5h-426q73 3 168 68q96 66 154 153l852 1293l55 -1356q1 -82 37 -117.5t108 -40.5z
M723 1169l-371 -565h467l-12 440q-3 161 -14 168q-30 15 -70 -43z" />
    <glyph glyph-name="Aacute" unicode="&#xc1;" horiz-adv-x="1202" 
d="M1077 1825q20 -13 12 -42t-42 -54l-242 -175l172 238q23 37 51.5 46.5t48.5 -13.5zM1130 2h-489q71 0 131 45q62 47 59 135l-12 404h-479l-246 -377q-43 -68 -35.5 -114t41.5 -69.5t82 -23.5h-426q73 3 168 68q96 66 154 153l852 1293l55 -1356q1 -82 37 -117.5
t108 -40.5zM723 1169l-371 -565h467l-12 440q-3 161 -14 168q-30 15 -70 -43z" />
    <glyph glyph-name="Acircumflex" unicode="&#xc2;" horiz-adv-x="1202" 
d="M1083 1802l-4 -258l-65 193l-322 -197l295 262h96zM1130 2h-489q71 0 131 45q62 47 59 135l-12 404h-479l-246 -377q-43 -68 -35.5 -114t41.5 -69.5t82 -23.5h-426q73 3 168 68q96 66 154 153l852 1293l55 -1356q1 -82 37 -117.5t108 -40.5zM723 1169l-371 -565h467
l-12 440q-3 161 -14 168q-30 15 -70 -43z" />
    <glyph glyph-name="Atilde" unicode="&#xc3;" horiz-adv-x="1202" 
d="M1067 1614q45 -5 94 24.5t78 79.5q-32 -76 -97 -124t-122 -38q-44 9 -80 60q-34 51 -76 57q-36 2 -83.5 -25t-88.5 -85q45 83 110 126t130 31q39 -9 69 -55q31 -48 66 -51zM930 1516l55 -1356q1 -82 37 -117.5t108 -40.5h-489q71 0 131 45q62 47 59 135l-12 404h-479
l-246 -377q-43 -68 -35.5 -114t41.5 -69.5t82 -23.5h-426q73 3 168 68q96 66 154 153zM723 1169l-371 -565h467l-12 440q-3 161 -14 168q-30 15 -70 -43z" />
    <glyph glyph-name="Adieresis" unicode="&#xc4;" horiz-adv-x="1202" 
d="M748 1634q-33 0 -56.5 23.5t-23.5 58.5q0 32 24 55t56 23q35 0 58 -22.5t23 -55.5q0 -35 -23 -58.5t-58 -23.5zM1153 1794q35 0 58.5 -22.5t23.5 -55.5q0 -35 -23.5 -58.5t-58.5 -23.5q-33 0 -56.5 23.5t-23.5 58.5q0 32 24 55t56 23zM930 1516l55 -1356q1 -82 37 -117.5
t108 -40.5h-489q71 0 131 45q62 47 59 135l-12 404h-479l-246 -377q-43 -68 -35.5 -114t41.5 -69.5t82 -23.5h-426q73 3 168 68q96 66 154 153zM723 1169l-371 -565h467l-12 440q-3 161 -14 168q-30 15 -70 -43z" />
    <glyph glyph-name="Aring" unicode="&#xc5;" horiz-adv-x="1202" 
d="M825 1692q0 55 37.5 93t91.5 38q56 0 93.5 -37.5t37.5 -93.5q-1 -54 -39 -90.5t-92 -36.5t-91.5 37.5t-37.5 89.5zM956 1798q-42 0 -72 -30t-30 -72t30 -72.5t72 -30.5q41 0 71 31t30 72t-30 71.5t-71 30.5zM1130 2h-489q71 0 131 45q62 47 59 135l-12 404h-479
l-246 -377q-43 -68 -35.5 -114t41.5 -69.5t82 -23.5h-426q73 3 168 68q96 66 154 153l852 1293l55 -1356q1 -82 37 -117.5t108 -40.5zM723 1169l-371 -565h467l-12 440q-3 161 -14 168q-30 15 -70 -43z" />
    <glyph glyph-name="AE" unicode="&#xc6;" horiz-adv-x="1941" 
d="M969 1434h1026l37 -297q-8 21 -21 41q-15 24 -61 79q-47 56 -101 84q-58 30 -127 45q-62 16 -106 19.5t-133 3.5h-62q-90 0 -110 -2q-16 -43 -37 -90l-219 -553h159q180 0 256 65q40 35 58.5 58t50.5 74l-184 -486q8 33 9 66t-8.5 70t-31 65t-65 46.5t-105.5 18.5h-147
l-238 -600q-46 -116 96 -116h146q280 3 487 98q110 49 177 98t124 121l-182 -342h-1260q72 0 152 45q83 47 117 131l188 465h-399l-408 -432q-47 -50 -57.5 -90.5t9.5 -65t56 -38t82 -15.5h-502q74 0 170 50t179 136l1046 1119q36 33 21 79q-15 47 -82 50zM866 670l250 614
q15 39 6 45q-5 0 -7.5 1t-10.5 -5.5t-13 -10.5t-14.5 -14t-15.5 -16t-16 -16.5t-15 -16.5l-549 -581h385z" />
    <glyph glyph-name="Ccedilla" unicode="&#xc7;" horiz-adv-x="1499" 
d="M1462 1257l-104 -229q3 55 -19 156q-9 45 -28 84t-50 74t-79 58.5t-109 29.5q-173 15 -328 -113q-156 -126 -262 -336q-56 -114 -83 -248t-19 -260q8 -129 70 -223t167 -119q186 -43 351 49q161 93 270 279q-103 -211 -258 -342t-367 -119l-94 -80q58 -5 86.5 -29
t25 -57.5t-33.5 -71.5q-53 -81 -136.5 -117.5t-151.5 -27t-91 48.5q33 -22 86 -25t117.5 28t109.5 97q22 30 23 54.5t-14 38t-34.5 21t-41.5 9.5l135 111h2l-45 6q-117 19 -197.5 89t-115 170.5t-37 220t30 244.5t92.5 237q83 156 187.5 261t215.5 150q192 78 377 66
q217 -18 352 -185z" />
    <glyph glyph-name="Egrave" unicode="&#xc8;" 
d="M997 1778l60 -285l-148 258q-18 41 -14.5 67.5t27.5 32.5q26 12 47.5 -8.5t27.5 -64.5zM877 1409h-117l-260 -645h155q184 0 265 67q40 33 59 56.5t51 75.5l-188 -488q7 33 7.5 65.5t-9 70t-31.5 65.5t-66.5 46.5t-107.5 18.5h-143l-242 -600q-20 -54 -3.5 -85t64.5 -31
h189q268 0 489 96q198 91 301 221l-186 -342h-1272q81 0 160 43t106 102l471 1166q17 50 -22 84t-115 39h965l37 -301l-25 45q-10 17 -66 84q-53 62 -100 84q-86 42 -162 51q-77 12 -204 12z" />
    <glyph glyph-name="Eacute" unicode="&#xc9;" 
d="M1317 1825q20 -13 11.5 -42t-42.5 -54l-242 -175l173 238q25 37 52 46.5t48 -13.5zM877 1409h-117l-260 -645h155q184 0 265 67q40 33 59 56.5t51 75.5l-188 -488q7 33 7.5 65.5t-9 70t-31.5 65.5t-66.5 46.5t-107.5 18.5h-143l-242 -600q-20 -54 -3.5 -85t64.5 -31h189
q268 0 489 96q198 91 301 221l-186 -342h-1272q81 0 160 43t106 102l471 1166q17 50 -22 84t-115 39h965l37 -301l-25 45q-10 17 -66 84q-53 62 -100 84q-86 42 -162 51q-77 12 -204 12z" />
    <glyph glyph-name="Ecircumflex" unicode="&#xca;" 
d="M1278 1810l-4 -258l-68 193l-319 -197l293 262h98zM877 1409h-117l-260 -645h155q184 0 265 67q40 33 59 56.5t51 75.5l-188 -488q7 33 7.5 65.5t-9 70t-31.5 65.5t-66.5 46.5t-107.5 18.5h-143l-242 -600q-20 -54 -3.5 -85t64.5 -31h189q268 0 489 96q198 91 301 221
l-186 -342h-1272q81 0 160 43t106 102l471 1166q17 50 -22 84t-115 39h965l37 -301l-25 45q-10 17 -66 84q-53 62 -100 84q-86 42 -162 51q-77 12 -204 12z" />
    <glyph glyph-name="Edieresis" unicode="&#xcb;" 
d="M866 1634q-33 0 -56.5 23.5t-23.5 58.5q0 32 24 55t56 23q35 0 58.5 -22.5t23.5 -55.5q0 -35 -23.5 -58.5t-58.5 -23.5zM1272 1634q-33 0 -56.5 23.5t-23.5 58.5q0 32 24 55t56 23q35 0 58.5 -22.5t23.5 -55.5q0 -35 -23.5 -58.5t-58.5 -23.5zM877 1409h-117l-260 -645
h155q184 0 265 67q40 33 59 56.5t51 75.5l-188 -488q7 33 7.5 65.5t-9 70t-31.5 65.5t-66.5 46.5t-107.5 18.5h-143l-242 -600q-20 -54 -3.5 -85t64.5 -31h189q268 0 489 96q198 91 301 221l-186 -342h-1272q81 0 160 43t106 102l471 1166q17 50 -22 84t-115 39h965l37 -301
l-25 45q-10 17 -66 84q-53 62 -100 84q-86 42 -162 51q-77 12 -204 12z" />
    <glyph glyph-name="Igrave" unicode="&#xcc;" horiz-adv-x="677" 
d="M719 1778l59 -285l-147 258q-18 41 -15 67.5t27 32.5q26 12 48 -8.5t28 -64.5zM459 1434h536q-197 0 -252 -129l-475 -1178q-24 -59 17.5 -90.5t128.5 -36.5h-568q88 3 168 41q87 41 121 129l449 1116q26 63 -7.5 103.5t-117.5 44.5z" />
    <glyph glyph-name="Iacute" unicode="&#xcd;" horiz-adv-x="677" 
d="M713 1554l172 238q25 37 52 46.5t48 -13.5q20 -13 11.5 -42t-42.5 -54zM995 1434h-536q84 -4 117.5 -44.5t7.5 -103.5l-449 -1116q-34 -88 -121 -129q-80 -38 -168 -41h568q-87 5 -128.5 36.5t-17.5 90.5l475 1178q55 129 252 129z" />
    <glyph glyph-name="Icircumflex" unicode="&#xce;" horiz-adv-x="677" 
d="M551 1540l293 262h98l-4 -258l-68 193zM995 1434h-536q84 -4 117.5 -44.5t7.5 -103.5l-449 -1116q-34 -88 -121 -129q-80 -38 -168 -41h568q-87 5 -128.5 36.5t-17.5 90.5l475 1178q55 129 252 129z" />
    <glyph glyph-name="Idieresis" unicode="&#xcf;" horiz-adv-x="677" 
d="M580 1634q-33 0 -56.5 23.5t-23.5 58.5q0 32 24 55t56 23q35 0 58.5 -22.5t23.5 -55.5q0 -35 -23.5 -58.5t-58.5 -23.5zM985 1634q-33 0 -56.5 23.5t-23.5 58.5q0 32 24 55t56 23q35 0 58.5 -22.5t23.5 -55.5q0 -35 -23.5 -58.5t-58.5 -23.5zM459 1434h536
q-197 0 -252 -129l-475 -1178q-24 -59 17.5 -90.5t128.5 -36.5h-568q88 3 168 41q87 41 121 129l449 1116q26 63 -7.5 103.5t-117.5 44.5z" />
    <glyph glyph-name="Eth" unicode="&#xd0;" horiz-adv-x="1478" 
d="M1270 1370q92 -44 155 -143q65 -100 80 -264q18 -166 -67 -377q-234 -586 -957 -586h-620q210 3 270 156l229 567h-217l-12 18h236l229 568q23 50 -17.5 85t-117.5 40h299q355 6 510 -64zM1053 260q143 148 227 365q82 213 70 401q-27 347 -336 377q-124 13 -223 10
l-271 -672h191l-17 -18h-182l-227 -567q-33 -62 -11.5 -95.5t103.5 -33.5h92q360 0 584 233z" />
    <glyph glyph-name="Ntilde" unicode="&#xd1;" horiz-adv-x="1521" 
d="M887 1563q44 82 110 125.5t129 31.5q44 -10 70 -55q31 -48 66 -51q45 -5 94.5 24.5t79.5 79.5q-33 -76 -98 -124t-124 -38q-43 8 -79 60q-34 51 -76 57q-35 2 -81.5 -25.5t-90.5 -84.5zM1831 1434h-447q94 -5 126.5 -62.5t-5.5 -173.5l-331 -805q-25 -58 -39 -76.5
t-27 -13.5q-17 6 -45 78l-336 1053h-352q106 -3 147 -74t10 -152l-391 -962q-45 -111 -141 -176q-94 -64 -186 -70h495q-105 6 -148 71t-1 169l375 925q41 102 63 99q21 0 51 -105l379 -1171l496 1202q102 244 307 244z" />
    <glyph glyph-name="Ograve" unicode="&#xd2;" horiz-adv-x="1443" 
d="M1057 1778l59 -285l-147 258q-18 42 -13.5 68t25.5 32q29 12 50 -8.5t26 -64.5zM1188 1419q92 -26 156.5 -97t95.5 -177q32 -103 13 -255t-87 -317q-91 -229 -256 -387q-164 -155 -350.5 -198.5t-378.5 28.5q-121 52 -180 203q-56 154 -29 354q27 204 129 388
q162 286 406 407q243 119 481 51zM1073 1419q-128 22 -291 -78q-91 -53 -185 -173t-167 -285q-127 -291 -106 -555q21 -258 180 -318q44 -17 96 -18t113 13.5t125.5 56.5t126.5 106t122 168t107 237q127 359 90 586q-35 233 -211 260z" />
    <glyph glyph-name="Oacute" unicode="&#xd3;" horiz-adv-x="1443" 
d="M1032 1554l172 238q25 37 53 46.5t48 -13.5q20 -13 11.5 -42t-42.5 -54zM1188 1419q-238 68 -481 -51q-244 -121 -406 -407q-102 -184 -129 -388q-27 -200 29 -354q59 -151 180 -203q192 -72 378.5 -28.5t350.5 198.5q165 158 256 387q68 165 87 317t-13 255
q-31 106 -95.5 177t-156.5 97zM1073 1419q176 -27 211 -260q37 -227 -90 -586q-47 -133 -107 -237t-122 -168t-126.5 -106t-125.5 -56.5t-113 -13.5t-96 18q-159 60 -180 318q-21 264 106 555q73 165 167 285t185 173q163 100 291 78z" />
    <glyph glyph-name="Ocircumflex" unicode="&#xd4;" horiz-adv-x="1443" 
d="M938 1548l295 262h96l-4 -258l-65 193zM1188 1419q-238 68 -481 -51q-244 -121 -406 -407q-102 -184 -129 -388q-27 -200 29 -354q59 -151 180 -203q192 -72 378.5 -28.5t350.5 198.5q165 158 256 387q68 165 87 317t-13 255q-31 106 -95.5 177t-156.5 97zM1073 1419
q176 -27 211 -260q37 -227 -90 -586q-47 -133 -107 -237t-122 -168t-126.5 -106t-125.5 -56.5t-113 -13.5t-96 18q-159 60 -180 318q-21 264 106 555q73 165 167 285t185 173q163 100 291 78z" />
    <glyph glyph-name="Otilde" unicode="&#xd5;" horiz-adv-x="1443" 
d="M797 1567q45 82 110.5 125t128.5 30q44 -10 70 -55q30 -46 65 -49q44 -6 93.5 23.5t78.5 80.5q-31 -75 -96.5 -123t-122.5 -38q-47 9 -80 59q-34 52 -75 55q-34 5 -81 -22t-91 -86zM1188 1419q-238 68 -481 -51q-244 -121 -406 -407q-102 -184 -129 -388
q-27 -200 29 -354q59 -151 180 -203q192 -72 378.5 -28.5t350.5 198.5q165 158 256 387q68 165 87 317t-13 255q-31 106 -95.5 177t-156.5 97zM1073 1419q176 -27 211 -260q37 -227 -90 -586q-47 -133 -107 -237t-122 -168t-126.5 -106t-125.5 -56.5t-113 -13.5t-96 18
q-159 60 -180 318q-21 264 106 555q73 165 167 285t185 173q163 100 291 78z" />
    <glyph glyph-name="Odieresis" unicode="&#xd6;" horiz-adv-x="1443" 
d="M907 1634q-33 0 -56.5 23.5t-23.5 58.5q0 32 24 55t56 23q35 0 58.5 -22.5t23.5 -55.5q0 -35 -23.5 -58.5t-58.5 -23.5zM1313 1634q-33 0 -56.5 23.5t-23.5 58.5q0 32 24 55t56 23q35 0 58.5 -22.5t23.5 -55.5q0 -35 -23.5 -58.5t-58.5 -23.5zM1188 1419
q92 -26 156.5 -97t95.5 -177q32 -103 13 -255t-87 -317q-91 -229 -256 -387q-164 -155 -350.5 -198.5t-378.5 28.5q-121 52 -180 203q-56 154 -29 354q27 204 129 388q162 286 406 407q243 119 481 51zM1073 1419q-128 22 -291 -78q-91 -53 -185 -173t-167 -285
q-127 -291 -106 -555q21 -258 180 -318q44 -17 96 -18t113 13.5t125.5 56.5t126.5 106t122 168t107 237q127 359 90 586q-35 233 -211 260z" />
    <glyph glyph-name="multiply" unicode="&#xd7;" horiz-adv-x="911" 
d="M948 1026l13 -18l-422 -301l178 -299l-23 -17l-178 299l-424 -301l-12 19l424 303l-178 299l22 16l178 -299z" />
    <glyph glyph-name="Oslash" unicode="&#xd8;" horiz-adv-x="1699" 
d="M1356 1438l-43 -56q151 -93 178 -296t-86 -513q-91 -229 -256 -387q-164 -155 -350.5 -198.5t-378.5 28.5q-61 26 -111 82l-76 -98l-28 4l90 115q-101 134 -92 377q12 242 137 465q162 287 405 407q244 119 482 51q26 -7 67 -26l33 43zM469 883q-78 -177 -102 -356
t12 -302l872 1114q-53 65 -139 80q-128 22 -291 -78q-91 -53 -185 -173t-167 -285zM1233 573q91 248 98.5 450.5t-65.5 297.5l-879 -1124q47 -147 156 -187q44 -17 96 -18t113 13.5t125.5 56.5t126.5 106t122 168t107 237z" />
    <glyph glyph-name="Ugrave" unicode="&#xd9;" 
d="M1106 1778l59 -285l-147 258q-18 41 -15 67.5t27 32.5q29 12 50 -8.5t26 -64.5zM1333 1434h461q-109 0 -188.5 -64.5t-145.5 -228.5l-272 -678q-187 -469 -592 -469q-129 0 -220.5 59.5t-131.5 157.5q-73 190 86 580l198 477q32 67 3 116t-109 50h502q-186 0 -250 -166
l-246 -613q-60 -150 -68.5 -271t31.5 -185q80 -131 234 -146q354 -34 542 424l297 731q96 220 -131 226z" />
    <glyph glyph-name="Uacute" unicode="&#xda;" 
d="M1112 1554l172 238q25 37 52 46.5t48 -13.5q20 -13 12 -42t-42 -54zM1794 1434h-461q227 -6 131 -226l-297 -731q-188 -458 -542 -424q-154 15 -234 146q-40 64 -31.5 185t68.5 271l246 613q64 166 250 166h-502q80 -1 109 -50t-3 -116l-198 -477q-159 -390 -86 -580
q40 -98 131.5 -157.5t220.5 -59.5q405 0 592 469l272 678q66 164 145.5 228.5t188.5 64.5z" />
    <glyph glyph-name="Ucircumflex" unicode="&#xdb;" 
d="M977 1540l293 262h98l-4 -258l-68 193zM1794 1434h-461q227 -6 131 -226l-297 -731q-188 -458 -542 -424q-154 15 -234 146q-40 64 -31.5 185t68.5 271l246 613q64 166 250 166h-502q80 -1 109 -50t-3 -116l-198 -477q-159 -390 -86 -580q40 -98 131.5 -157.5
t220.5 -59.5q405 0 592 469l272 678q66 164 145.5 228.5t188.5 64.5z" />
    <glyph glyph-name="Udieresis" unicode="&#xdc;" 
d="M969 1634q-33 0 -56.5 23.5t-23.5 58.5q0 32 24 55t56 23q35 0 58.5 -22.5t23.5 -55.5q0 -35 -23.5 -58.5t-58.5 -23.5zM1374 1634q-33 0 -56.5 23.5t-23.5 58.5q0 32 24 55t56 23q35 0 58.5 -22.5t23.5 -55.5q0 -35 -23.5 -58.5t-58.5 -23.5zM1333 1434h461
q-109 0 -188.5 -64.5t-145.5 -228.5l-272 -678q-187 -469 -592 -469q-129 0 -220.5 59.5t-131.5 157.5q-73 190 86 580l198 477q32 67 3 116t-109 50h502q-186 0 -250 -166l-246 -613q-60 -150 -68.5 -271t31.5 -185q80 -131 234 -146q354 -34 542 424l297 731
q96 220 -131 226z" />
    <glyph glyph-name="Yacute" unicode="&#xdd;" horiz-adv-x="1124" 
d="M848 1554l174 238q23 37 50.5 46.5t47.5 -13.5q20 -13 12 -42t-42 -54zM1407 1434h-389q83 0 110 -62q30 -59 -47 -162l-331 -387q-35 -44 -70 -41q-21 3 -33 49l-100 445q-14 65 13 108t93 50h-434q60 0 114 -41t73 -117l106 -471q21 -91 -10 -166l-183 -467
q-36 -83 -108 -127q-74 -45 -131 -45h514q-74 6 -114.5 52t-12.5 116l186 463q38 95 88 155l355 412q191 221 311 236z" />
    <glyph glyph-name="Thorn" unicode="&#xde;" horiz-adv-x="1118" 
d="M1075 936q23 -41 25.5 -100t-23.5 -131t-80 -130q-191 -206 -583 -139q35 2 78 2q98 5 172 27q113 39 163 86q83 79 119 180q47 130 -12 232q-55 102 -227 102h-97l-377 -938q-25 -59 17 -90.5t129 -36.5h-565q34 0 72 9t78.5 27.5t76 53t55.5 80.5l455 1116
q26 63 -8.5 103t-116.5 45h532q-196 0 -251 -129l-89 -220h109q144 0 222 -34t126 -115z" />
    <glyph glyph-name="germandbls" unicode="&#xdf;" horiz-adv-x="919" 
d="M-70 -12l430 1065q91 225 203.5 308t280.5 58q100 -15 137 -88t31 -151q-3 -57 -47 -152q-25 -58 -91.5 -106.5t-156.5 -71.5q-9 -2 -66 -11t-76 -14q-26 -5 -47 -22.5t-22 -42.5q-3 -37 22 -68q26 -33 82 -80q58 -49 95 -92q112 -124 100 -280q-9 -125 -107 -201
q-102 -79 -229 -76q-115 1 -180.5 61t-67.5 158q-4 59 25 103t73 49q37 1 56 -22.5t8 -53.5q-5 -16 -40 -41.5t-40 -42.5q-18 -54 16 -115t115 -73q98 -12 167 56t71 177q6 71 -5.5 125t-52.5 123q-12 18 -33.5 50.5t-35.5 52.5t-21 28q-31 51 -41 86q-25 78 19 131
q21 24 84 51l114 47q128 52 187 201q15 37 22.5 80t5 86.5t-24 76t-61.5 42.5q-105 25 -181.5 -56.5t-155.5 -279.5l-424 -1075h-138z" />
    <glyph glyph-name="agrave" unicode="&#xe0;" horiz-adv-x="1007" 
d="M762 1298l59 -284l-147 258q-18 41 -15 67.5t27 32.5q26 12 48 -9t28 -65zM696 61q27 -9 92 41q69 56 117 107l49 53l-65 -78l-84 -96q-22 -22 -78 -61q-47 -33 -88 -33q-69 0 -85 57.5t26 149.5l198 467q89 239 -26 266q-82 21 -193 -68q-113 -90 -207 -239
q-76 -110 -120.5 -231.5t-37.5 -211.5t74 -102q50 -10 104.5 7.5t96.5 55.5q72 62 117 125q-38 -70 -109 -161q-49 -59 -114.5 -92.5t-135.5 -32.5q-103 0 -141.5 91t-7 227.5t120.5 266.5q129 198 273 291.5t269 87.5q103 -3 138 -84l57 27l86 49l-309 -743
q-53 -127 -17 -136z" />
    <glyph glyph-name="aacute" unicode="&#xe1;" horiz-adv-x="1007" 
d="M1055 1319q20 -13 11.5 -42t-42.5 -54l-242 -174l172 237q25 37 53 46.5t48 -13.5zM944 891l86 49l-309 -743q-53 -127 -16 -136q27 -9 92 41q64 52 116 107l50 53l-66 -78l-84 -96q-22 -22 -78 -61q-47 -33 -88 -33q-69 0 -85 57.5t26 149.5l198 467q89 239 -26 266
q-82 21 -193 -68q-113 -90 -207 -239q-76 -110 -120.5 -231.5t-37.5 -211.5t74 -102q50 -10 104.5 7.5t96.5 55.5q72 62 117 125q-38 -70 -109 -161q-49 -59 -114 -92.5t-135 -32.5q-77 0 -119 54.5t-43.5 138.5t33 189.5t100.5 202.5q129 198 273.5 291.5t269.5 87.5
q102 -3 137 -84z" />
    <glyph glyph-name="acircumflex" unicode="&#xe2;" horiz-adv-x="1007" 
d="M1008 1298l-4 -258l-66 193l-322 -197l295 262h97zM696 61q27 -9 92 41q69 56 117 107l49 53l-65 -78l-84 -96q-22 -22 -78 -61q-47 -33 -88 -33q-69 0 -85 57.5t26 149.5l198 467q89 239 -26 266q-82 21 -193 -68q-113 -90 -207 -239q-76 -110 -120.5 -231.5
t-37.5 -211.5t74 -102q50 -10 104.5 7.5t96.5 55.5q72 62 117 125q-38 -70 -109 -161q-49 -59 -114.5 -92.5t-135.5 -32.5q-103 0 -141.5 91t-7 227.5t120.5 266.5q129 198 273 291.5t269 87.5q103 -3 138 -84l57 27l86 49l-309 -743q-53 -127 -17 -136z" />
    <glyph glyph-name="atilde" unicode="&#xe3;" horiz-adv-x="1007" 
d="M698 1186q-35 2 -81.5 -25.5t-90.5 -85.5q44 82 110.5 126t129.5 32q44 -10 70 -55q32 -49 65 -52q47 -4 95 25t77 80q-31 -75 -96.5 -123.5t-122.5 -38.5q-45 9 -80 59q-34 52 -76 58zM936 891l86 49l-309 -743q-53 -127 -17 -136q27 -9 92 41q69 56 117 107l49 53
l-65 -78l-84 -96q-22 -22 -78 -61q-47 -33 -88 -33q-69 0 -85 57.5t26 149.5l198 467q89 239 -26 266q-82 21 -193 -68q-113 -90 -207 -239q-76 -110 -120.5 -231.5t-37.5 -211.5t74 -102q50 -10 104.5 7.5t96.5 55.5q72 62 117 125q-38 -70 -109 -161q-49 -59 -114.5 -92.5
t-135.5 -32.5q-103 0 -141.5 91t-7 227.5t120.5 266.5q129 198 273 291.5t269 87.5q103 -3 138 -84z" />
    <glyph glyph-name="adieresis" unicode="&#xe4;" horiz-adv-x="1007" 
d="M573 1098q-33 0 -56 23.5t-23 58.5q0 32 23.5 54.5t55.5 22.5q35 0 58.5 -22.5t23.5 -54.5q0 -35 -23.5 -58.5t-58.5 -23.5zM979 1257q35 0 58.5 -22.5t23.5 -54.5q0 -35 -23.5 -58.5t-58.5 -23.5q-33 0 -56.5 23.5t-23.5 58.5q0 32 23.5 54.5t56.5 22.5zM936 891l86 49
l-309 -743q-53 -127 -17 -136q27 -9 92 41q69 56 117 107l49 53l-65 -78l-84 -96q-22 -22 -78 -61q-47 -33 -88 -33q-69 0 -85 57.5t26 149.5l198 467q89 239 -26 266q-82 21 -193 -68q-113 -90 -207 -239q-76 -110 -120.5 -231.5t-37.5 -211.5t74 -102q50 -10 104.5 7.5
t96.5 55.5q72 62 117 125q-38 -70 -109 -161q-49 -59 -114.5 -92.5t-135.5 -32.5q-103 0 -141.5 91t-7 227.5t120.5 266.5q129 198 273 291.5t269 87.5q103 -3 138 -84z" />
    <glyph glyph-name="aring" unicode="&#xe5;" horiz-adv-x="1007" 
d="M868 1044q-54 0 -90.5 36.5t-36.5 90.5q0 56 36.5 94t90.5 38q56 0 93.5 -37.5t37.5 -94.5q0 -54 -37.5 -90.5t-93.5 -36.5zM942 1247q-31 31 -71.5 31t-71.5 -31q-29 -31 -29 -71.5t29 -71.5q31 -31 71.5 -31t71.5 31t31 71.5t-31 71.5zM696 61q27 -9 92 41
q69 56 117 107l49 53l-65 -78l-84 -96q-22 -22 -78 -61q-47 -33 -88 -33q-69 0 -85 57.5t26 149.5l198 467q89 239 -26 266q-82 21 -193 -68q-113 -90 -207 -239q-76 -110 -120.5 -231.5t-37.5 -211.5t74 -102q50 -10 104.5 7.5t96.5 55.5q72 62 117 125q-38 -70 -109 -161
q-49 -59 -114.5 -92.5t-135.5 -32.5q-103 0 -141.5 91t-7 227.5t120.5 266.5q129 198 273 291.5t269 87.5q103 -3 138 -84l57 27l86 49l-309 -743q-53 -127 -17 -136z" />
    <glyph glyph-name="ae" unicode="&#xe6;" horiz-adv-x="1366" 
d="M1221 950q51 -2 91 -33.5t57 -77t0.5 -104t-71.5 -108.5q-78 -81 -229 -115q-146 -33 -270 -33q305 24 434 223q53 78 54.5 147t-56.5 91q-88 15 -193 -80q-97 -90 -190 -244q-52 -88 -88 -208q-30 -114 -15 -215q18 -100 105 -115q56 -12 114.5 4t105 50t78 64.5
t52.5 59.5l19 25q-33 -52 -76 -107q-52 -62 -88 -94q-50 -43 -115.5 -73.5t-124.5 -29.5q-63 -1 -110 30t-71.5 88.5t-29 131.5t18.5 164t71 180q10 19 56 97q27 49 42.5 102t7.5 103t-52 63q-77 20 -187 -70q-108 -88 -196 -241q-73 -122 -112.5 -240.5t-31 -204
t71.5 -102.5q69 -18 139 22t111 93l39 51q0 -2 -15.5 -29t-46.5 -68t-70 -80t-95 -65.5t-113 -24.5q-100 -2 -140 88t-11 228t116 270q248 401 528 383q126 -9 144 -125q163 144 342 129z" />
    <glyph glyph-name="ccedilla" unicode="&#xe7;" horiz-adv-x="819" 
d="M840 819q9 -72 -25 -112q-23 -26 -59 -30t-54 15q-24 24 -21 56.5t30 50.5q41 27 41 67q0 73 -88 76q-85 3 -185 -86q-117 -102 -196 -285q-79 -180 -76 -307q6 -185 147 -194q57 -4 111.5 15.5t94.5 53.5t65.5 62.5t42.5 54.5l14 23q-12 -32 -57 -103
q-49 -78 -124 -133.5t-171 -65.5l-74 -61q58 -4 86.5 -28.5t25.5 -59t-32 -72.5q-41 -60 -101 -96.5t-115.5 -43.5t-101 5t-63.5 41q36 -22 88.5 -25t116 27.5t108.5 97.5q22 30 23 54.5t-14 38t-34.5 21t-41.5 9.5l112 92q-98 -1 -162.5 63.5t-70.5 170.5q-7 134 49.5 283
t157.5 266q175 196 383 190q69 -1 114 -39t56 -92z" />
    <glyph glyph-name="egrave" unicode="&#xe8;" horiz-adv-x="876" 
d="M686 1303l59 -287l-147 260q-19 38 -15 65t27 35q26 12 48 -9t28 -64zM719 952q53 -3 93.5 -34.5t56.5 -77t-1.5 -104.5t-72.5 -111q-78 -78 -238 -113q-149 -33 -276 -33q320 24 452 223q32 47 45.5 100t-0.5 93.5t-57 46.5q-95 15 -201 -82q-100 -90 -192 -246
q-50 -85 -88 -211q-31 -117 -13 -217q21 -104 109 -125q58 -14 119 2t110.5 53.5t82 69.5t57.5 64l18 29q-26 -51 -70 -111q-49 -64 -84 -94q-49 -45 -120.5 -75t-141.5 -26q-80 2 -133 52.5t-71 131t2 190.5t79 224q60 116 134.5 199t148.5 121q140 73 252 61z" />
    <glyph glyph-name="eacute" unicode="&#xe9;" horiz-adv-x="876" 
d="M721 1049l174 237q24 37 50 46.5t50 -13.5q18 -13 9.5 -41.5t-39.5 -54.5zM719 952q-112 12 -252 -61q-74 -38 -148.5 -121t-134.5 -199q-59 -114 -79 -224t-2 -190.5t71 -131t133 -52.5q70 -4 141.5 26t120.5 75q35 30 84 94q44 60 70 111l-18 -29q-25 -32 -57.5 -64
t-82 -69.5t-110.5 -53.5t-119 -2q-88 21 -109 125q-18 100 13 217q38 126 88 211q92 156 192 246q106 97 201 82q43 -6 57 -46.5t0.5 -93.5t-45.5 -100q-132 -199 -452 -223q127 0 276 33q160 35 238 113q55 52 72.5 111t1.5 104.5t-56.5 77t-93.5 34.5z" />
    <glyph glyph-name="ecircumflex" unicode="&#xea;" horiz-adv-x="876" 
d="M516 1036l293 262h98l-4 -258l-67 193zM719 952q-112 12 -252 -61q-74 -38 -148.5 -121t-134.5 -199q-59 -114 -79 -224t-2 -190.5t71 -131t133 -52.5q70 -4 141.5 26t120.5 75q35 30 84 94q44 60 70 111l-18 -29q-25 -32 -57.5 -64t-82 -69.5t-110.5 -53.5t-119 -2
q-88 21 -109 125q-18 100 13 217q38 126 88 211q92 156 192 246q106 97 201 82q43 -6 57 -46.5t0.5 -93.5t-45.5 -100q-132 -199 -452 -223q127 0 276 33q160 35 238 113q55 52 72.5 111t1.5 104.5t-56.5 77t-93.5 34.5z" />
    <glyph glyph-name="edieresis" unicode="&#xeb;" horiz-adv-x="876" 
d="M573 1098q-33 0 -56 23.5t-23 58.5q0 32 23.5 54.5t55.5 22.5q35 0 58.5 -22.5t23.5 -54.5q0 -35 -23.5 -58.5t-58.5 -23.5zM979 1098q-33 0 -56.5 23.5t-23.5 58.5q0 32 23.5 54.5t56.5 22.5q35 0 58.5 -22.5t23.5 -54.5q0 -35 -23.5 -58.5t-58.5 -23.5zM719 952
q53 -3 93.5 -34.5t56.5 -77t-1.5 -104.5t-72.5 -111q-78 -78 -238 -113q-149 -33 -276 -33q320 24 452 223q32 47 45.5 100t-0.5 93.5t-57 46.5q-95 15 -201 -82q-100 -90 -192 -246q-50 -85 -88 -211q-31 -117 -13 -217q21 -104 109 -125q58 -14 119 2t110.5 53.5t82 69.5
t57.5 64l18 29q-26 -51 -70 -111q-49 -64 -84 -94q-49 -45 -120.5 -75t-141.5 -26q-80 2 -133 52.5t-71 131t2 190.5t79 224q60 116 134.5 199t148.5 121q140 73 252 61z" />
    <glyph glyph-name="igrave" unicode="&#xec;" horiz-adv-x="610" 
d="M455 1298l59 -284l-147 258q-18 41 -15 67.5t27 32.5q26 12 48 -9t28 -65zM106 141l263 639q31 72 10 78q-14 8 -80 -39q-71 -51 -119 -94l-53 -51q89 102 176 178q95 83 158 86q56 1 70.5 -46.5t-17.5 -113.5l-266 -649q-27 -59 -6 -68q14 -8 80 39q64 46 120 99l56 51
q-227 -266 -346 -266q-111 0 -46 157z" />
    <glyph glyph-name="iacute" unicode="&#xed;" horiz-adv-x="618" 
d="M528 1040l174 238q23 37 52 46.5t49 -13.5q18 -13 9.5 -42t-40.5 -55zM369 780l-263 -639q-65 -157 46 -157q119 0 346 266l-56 -51q-56 -53 -120 -99q-66 -47 -80 -39q-21 9 6 68l266 649q32 66 17.5 113.5t-70.5 46.5q-63 -3 -158 -86q-87 -76 -176 -178l53 51
q48 43 119 94q66 47 80 39q21 -6 -10 -78z" />
    <glyph glyph-name="icircumflex" unicode="&#xee;" horiz-adv-x="618" 
d="M295 1036l293 262h98l-4 -258l-68 193zM377 780l-262 -639q-65 -157 45 -157q119 0 346 266l-55 -51q-52 -49 -121 -99q-66 -47 -80 -39q-21 9 6 68l266 649q32 66 17.5 113.5t-70.5 46.5q-63 -3 -158 -86q-87 -76 -176 -178l53 51q48 43 119 94q66 47 80 39
q21 -6 -10 -78z" />
    <glyph glyph-name="idieresis" unicode="&#xef;" horiz-adv-x="643" 
d="M324 1098q-33 0 -56.5 23.5t-23.5 58.5q0 32 23.5 54.5t56.5 22.5q35 0 58.5 -22.5t23.5 -54.5q0 -35 -23.5 -58.5t-58.5 -23.5zM729 1098q-33 0 -56.5 23.5t-23.5 58.5q0 32 23.5 54.5t56.5 22.5q35 0 58.5 -22.5t23.5 -54.5q0 -35 -23.5 -58.5t-58.5 -23.5zM115 141
l262 639q31 72 10 78q-14 8 -80 -39q-71 -51 -119 -94l-53 -51q89 102 176 178q95 83 158 86q56 1 70.5 -46.5t-17.5 -113.5l-266 -649q-27 -59 -6 -68q14 -8 80 39q69 50 121 99l55 51q-227 -266 -346 -266q-110 0 -45 157z" />
    <glyph glyph-name="eth" unicode="&#xf0;" horiz-adv-x="921" 
d="M813 1112h107l-21 -18h-80q61 -207 49 -447q-15 -270 -196 -481q-182 -213 -391 -189q-108 12 -162 97q-91 151 -8 397q67 193 173.5 303.5t229.5 149.5q153 46 252 -21q-3 114 -16 191h-127l-15 18h140q-26 171 -99 313q106 -130 164 -313zM748 657q24 171 -48 234
q-70 64 -163 20q-86 -38 -175 -170q-85 -127 -133 -284q-42 -155 -30 -305q6 -78 46.5 -122t110.5 -40q88 6 176 116q86 110 144 260.5t72 290.5z" />
    <glyph glyph-name="ntilde" unicode="&#xf1;" horiz-adv-x="1146" 
d="M575 1075q44 82 110.5 126t129.5 32q44 -10 70 -55q32 -49 65 -52q45 -5 94 25t78 80q-31 -75 -96.5 -123.5t-122.5 -38.5q-45 9 -80 59q-34 52 -75 58q-35 2 -82 -25.5t-91 -85.5zM829 66q-22 9 21 127l154 378q138 334 -76 375q-136 24 -260 -92q-55 -52 -109 -117
q-48 -61 -117 -157q278 334 426 280q103 -41 2 -291l-155 -383q-37 -72 -24.5 -129t73.5 -57q65 -2 182 115q11 14 40 45t30 33q8 9 32 39.5t29 35.5l-53 -55q-51 -51 -113 -104q-61 -52 -82 -43zM498 758q33 68 24.5 118.5t-63.5 49.5q-104 -3 -320 -262l49 49
q55 52 109 92q59 47 76 37q22 -6 -13 -86l-290 -756h127z" />
    <glyph glyph-name="ograve" unicode="&#xf2;" horiz-adv-x="935" 
d="M684 1298l59 -284l-147 258q-18 42 -13.5 68t25.5 32q29 12 50 -9t26 -65zM532 934q171 52 267 -35q95 -83 92 -246q-2 -127 -56.5 -258t-137 -229t-190.5 -152.5t-210 -36.5q-83 10 -133.5 62t-65 126t-7.5 155t34 159q36 109 89 196t112 138q112 95 206 121zM551 920
q-87 -38 -168 -168q-78 -125 -127 -289q-43 -169 -35 -309q6 -80 47 -124t111 -40q89 6 174 119q90 116 141 262q54 147 70 293q24 173 -49 237q-72 66 -164 19z" />
    <glyph glyph-name="oacute" unicode="&#xf3;" horiz-adv-x="935" 
d="M657 1049l174 237q23 37 51 46.5t48 -13.5q20 -13 11.5 -42t-42.5 -54zM532 934q171 52 267 -35q95 -83 92 -246q-2 -127 -56.5 -258t-137 -229t-190.5 -152.5t-210 -36.5q-83 10 -133.5 62t-65 126t-7.5 155t34 159q36 109 89 196t112 138q112 95 206 121zM551 920
q-87 -38 -168 -168q-78 -125 -127 -289q-43 -169 -35 -309q6 -80 47 -124t111 -40q89 6 174 119q90 116 141 262q54 147 70 293q24 173 -49 237q-72 66 -164 19z" />
    <glyph glyph-name="ocircumflex" unicode="&#xf4;" horiz-adv-x="935" 
d="M485 1036l295 262h97l-5 -258l-67 193zM532 934q171 52 267 -35q95 -83 92 -246q-2 -127 -56.5 -258t-137 -229t-190.5 -152.5t-210 -36.5q-83 10 -133.5 62t-65 126t-7.5 155t34 159q36 109 89 196t112 138q112 95 206 121zM551 920q-87 -38 -168 -168
q-78 -125 -127 -289q-43 -169 -35 -309q6 -80 47 -124t111 -40q89 6 174 119q90 116 141 262q54 147 70 293q24 173 -49 237q-72 66 -164 19z" />
    <glyph glyph-name="otilde" unicode="&#xf5;" horiz-adv-x="935" 
d="M444 1075q44 82 110.5 126t129.5 32q44 -10 70 -55q32 -49 65 -52q45 -5 94.5 24.5t79.5 80.5q-33 -76 -97.5 -124t-123.5 -38q-45 9 -80 59q-34 52 -76 58q-34 2 -81 -26t-91 -85zM532 934q171 52 267 -35q95 -83 92 -246q-2 -127 -56.5 -258t-137 -229t-190.5 -152.5
t-210 -36.5q-83 10 -133.5 62t-65 126t-7.5 155t34 159q36 109 89 196t112 138q112 95 206 121zM551 920q-87 -38 -168 -168q-78 -125 -127 -289q-43 -169 -35 -309q6 -80 47 -124t111 -40q89 6 174 119q90 116 141 262q54 147 70 293q24 173 -49 237q-72 66 -164 19z" />
    <glyph glyph-name="odieresis" unicode="&#xf6;" horiz-adv-x="935" 
d="M492 1098q-33 0 -56.5 23.5t-23.5 58.5q0 32 23.5 54.5t56.5 22.5q35 0 58 -22t23 -55q0 -35 -23 -58.5t-58 -23.5zM897 1098q-33 0 -56.5 23.5t-23.5 58.5q0 32 23.5 54.5t56.5 22.5q35 0 58.5 -22.5t23.5 -54.5q0 -35 -23.5 -58.5t-58.5 -23.5zM532 934q171 52 267 -35
q95 -83 92 -246q-2 -127 -56.5 -258t-137 -229t-190.5 -152.5t-210 -36.5q-83 10 -133.5 62t-65 126t-7.5 155t34 159q36 109 89 196t112 138q112 95 206 121zM551 920q-87 -38 -168 -168q-78 -125 -127 -289q-43 -169 -35 -309q6 -80 47 -124t111 -40q89 6 174 119
q90 116 141 262q54 147 70 293q24 173 -49 237q-72 66 -164 19z" />
    <glyph glyph-name="divide" unicode="&#xf7;" horiz-adv-x="1058" 
d="M623 651q-49 -2 -61 42q-11 41 16 75q24 29 61 27q29 0 48 -21.5t15 -50.5q-5 -30 -27.5 -51t-51.5 -21zM147 532l9 19h796l-8 -19h-797zM471 287q-31 0 -49 21t-14 52q1 29 25 50.5t54 21.5t49 -21.5t15 -50.5q-1 -30 -25.5 -51.5t-54.5 -21.5z" />
    <glyph glyph-name="oslash" unicode="&#xf8;" horiz-adv-x="909" 
d="M936 924l29 2l-93 -90q42 -74 39 -183q-2 -127 -56.5 -258t-137 -229t-190.5 -152.5t-210 -36.5q-126 15 -178 127l-104 -104l-29 4l125 123q-53 148 14 352q36 109 89 196t112 138q112 95 207 121q215 65 309 -82zM276 463q-30 -114 -36 -227l548 540q-12 111 -81 148
q-70 37 -136 -4q-87 -38 -168 -168q-78 -125 -127 -289zM784 664q7 58 7 88l-551 -547q2 -108 40 -164.5t119 -50.5q89 6 174 119q86 110 141.5 260t69.5 295z" />
    <glyph glyph-name="ugrave" unicode="&#xf9;" horiz-adv-x="1079" 
d="M690 1298l60 -284l-148 258q-18 42 -13.5 68t25.5 32q29 12 50 -9t26 -65zM356 872q-14 9 -73 -41q-58 -46 -107 -98l-49 -53l57 70q31 40 66 75q54 54 94.5 83.5t75.5 29.5q59 0 70.5 -55t-23.5 -127q-26 -62 -152 -398q-30 -72 -45 -137q-30 -128 43 -149
q128 -46 396 280q-61 -88 -111 -153q-41 -53 -100 -115q-113 -116 -242 -92q-202 34 -70 370q115 303 154 394q40 107 16 116zM1073 922l-305 -783q-30 -77 -10 -86q19 -6 78 41q56 45 112 101l51 51q-132 -163 -200 -215q-62 -47 -107 -47q-53 1 -69.5 50.5t10.5 110.5
l309 777h131z" />
    <glyph glyph-name="uacute" unicode="&#xfa;" horiz-adv-x="1079" 
d="M655 1049l172 237q25 37 53 46.5t48 -13.5q20 -13 11.5 -42t-42.5 -54zM356 872q24 -9 -16 -116q-39 -91 -154 -394q-132 -336 70 -370q129 -24 242 92q59 62 100 115q50 65 111 153q-268 -326 -396 -280q-73 21 -43 149q15 65 45 137q126 336 152 398q35 72 23.5 127
t-70.5 55q-35 0 -75.5 -29.5t-94.5 -83.5q-35 -35 -66 -75l-57 -70l49 53q49 52 107 98q59 50 73 41zM768 139l305 783h-131l-309 -777q-27 -61 -10.5 -110.5t69.5 -50.5q45 0 107 47q68 52 200 215l-51 -51q-56 -56 -112 -101q-59 -47 -78 -41q-20 9 10 86z" />
    <glyph glyph-name="ucircumflex" unicode="&#xfb;" horiz-adv-x="1079" 
d="M518 1036l293 262h98l-4 -258l-67 193zM356 872q24 -9 -16 -116q-39 -91 -154 -394q-132 -336 70 -370q129 -24 242 92q59 62 100 115q50 65 111 153q-268 -326 -396 -280q-73 21 -43 149q15 65 45 137q126 336 152 398q35 72 23.5 127t-70.5 55q-35 0 -75.5 -29.5
t-94.5 -83.5q-35 -35 -66 -75l-57 -70l49 53q49 52 107 98q59 50 73 41zM768 139l305 783h-131l-309 -777q-27 -61 -10.5 -110.5t69.5 -50.5q45 0 107 47q68 52 200 215l-51 -51q-56 -56 -112 -101q-59 -47 -78 -41q-20 9 10 86z" />
    <glyph glyph-name="udieresis" unicode="&#xfc;" horiz-adv-x="1079" 
d="M545 1098q-33 0 -56.5 23.5t-23.5 58.5q0 32 23.5 54.5t56.5 22.5q35 0 58.5 -22.5t23.5 -54.5q0 -35 -23.5 -58.5t-58.5 -23.5zM950 1098q-33 0 -56.5 23.5t-23.5 58.5q0 32 23.5 54.5t56.5 22.5q35 0 58.5 -22.5t23.5 -54.5q0 -35 -23.5 -58.5t-58.5 -23.5zM356 872
q-14 9 -73 -41q-58 -46 -107 -98l-49 -53l57 70q31 40 66 75q54 54 94.5 83.5t75.5 29.5q59 0 70.5 -55t-23.5 -127q-26 -62 -152 -398q-30 -72 -45 -137q-30 -128 43 -149q128 -46 396 280q-61 -88 -111 -153q-41 -53 -100 -115q-113 -116 -242 -92q-202 34 -70 370
q115 303 154 394q40 107 16 116zM1073 922l-305 -783q-30 -77 -10 -86q19 -6 78 41q56 45 112 101l51 51q-132 -163 -200 -215q-62 -47 -107 -47q-53 1 -69.5 50.5t10.5 110.5l309 777h131z" />
    <glyph glyph-name="yacute" unicode="&#xfd;" horiz-adv-x="884" 
d="M791 1319q20 -13 11.5 -42t-42.5 -54l-242 -174l174 237q23 37 51 46.5t48 -13.5zM827 940q76 -5 77 -101q1 -130 -123 -341q-33 -55 -72 -111q-128 -184 -291 -362q-159 -177 -336 -312q-141 -106 -238 -121q-112 -12 -147 19q-27 24 -13.5 64.5t56.5 52.5q6 0 27 2
t28 -2q29 -9 78 -33q49 -19 120.5 2.5t141.5 81.5l58 49q58 50 161 156q0 28 2 67q2 41 2 121q4 145 -10 311q-24 208 -52.5 289.5t-84.5 87.5q-78 6 -121 -100q41 164 141 176q114 12 169.5 -92t76.5 -348q20 -242 8 -367q122 140 181 223q96 135 120 199q30 74 31 136.5
t-26 96.5q-4 5 -14.5 19t-14 20t-9.5 16.5t-8 20.5t-2 21q2 27 25 46t59 13z" />
    <glyph glyph-name="thorn" unicode="&#xfe;" horiz-adv-x="991" 
d="M780 954q80 -1 123 -54.5t45.5 -138t-30 -191t-95.5 -210.5q-236 -395 -526 -383q-94 3 -135 78l-135 -334q-47 -115 -31 -131q14 -14 156 -28l47 -2h-555q152 3 188 34q18 15 72 144l620 1530q46 114 29 131q-10 10 -59 19.5t-95 11.5l-45 4h365l-477 -1180
q-73 -223 51 -260q82 -21 188 69q111 97 199 246q70 120 109 239.5t28.5 208.5t-80.5 103q-43 10 -93.5 -10.5t-93.5 -60t-75 -76.5t-53 -70l-21 -31q-1 1 8.5 20.5t27.5 50.5t42.5 67.5t58 73t70 66t82 47.5t90.5 17z" />
    <glyph glyph-name="ydieresis" unicode="&#xff;" horiz-adv-x="884" 
d="M344 1098q-33 0 -56.5 23.5t-23.5 58.5q0 32 23.5 54.5t56.5 22.5q35 0 58.5 -22.5t23.5 -54.5q0 -35 -23.5 -58.5t-58.5 -23.5zM750 1098q-33 0 -56.5 23.5t-23.5 58.5q0 32 23.5 54.5t56.5 22.5q35 0 58 -22t23 -55q0 -35 -23 -58.5t-58 -23.5zM827 940q76 -5 77 -101
q1 -130 -123 -341q-33 -55 -72 -111q-128 -184 -291 -362q-159 -177 -336 -312q-141 -106 -238 -121q-112 -12 -147 19q-27 24 -13.5 64.5t56.5 52.5q6 0 27 2t28 -2q29 -9 78 -33q49 -19 120.5 2.5t141.5 81.5l58 49q58 50 161 156q0 28 2 67q2 41 2 121q4 145 -10 311
q-24 208 -52.5 289.5t-84.5 87.5q-78 6 -121 -100q41 164 141 176q114 12 169.5 -92t76.5 -348q20 -242 8 -367q122 140 181 223q96 135 120 199q30 74 31 136.5t-26 96.5q-4 5 -14.5 19t-14 20t-9.5 16.5t-8 20.5t-2 21q2 27 25 46t59 13z" />
    <glyph glyph-name="Amacron" unicode="&#x100;" horiz-adv-x="1202" 
d="M723 1606l403 2l-8 -17h-403zM1130 2h-489q71 0 131 45q62 47 59 135l-12 404h-479l-246 -377q-43 -68 -35.5 -114t41.5 -69.5t82 -23.5h-426q73 3 168 68q96 66 154 153l852 1293l55 -1356q1 -82 37 -117.5t108 -40.5zM723 1169l-371 -565h467l-12 440q-3 161 -14 168
q-30 15 -70 -43z" />
    <glyph glyph-name="amacron" unicode="&#x101;" horiz-adv-x="1007" 
d="M590 1104l403 2l-8 -16h-403zM696 61q27 -9 92 41q69 56 117 107l49 53l-65 -78l-84 -96q-22 -22 -78 -61q-47 -33 -88 -33q-69 0 -85 57.5t26 149.5l198 467q89 239 -26 266q-82 21 -193 -68q-113 -90 -207 -239q-76 -110 -120.5 -231.5t-37.5 -211.5t74 -102
q50 -10 104.5 7.5t96.5 55.5q72 62 117 125q-38 -70 -109 -161q-49 -59 -114.5 -92.5t-135.5 -32.5q-103 0 -141.5 91t-7 227.5t120.5 266.5q129 198 273 291.5t269 87.5q103 -3 138 -84l57 27l86 49l-309 -743q-53 -127 -17 -136z" />
    <glyph glyph-name="Abreve" unicode="&#x102;" horiz-adv-x="1202" 
d="M1243 1800q-42 -76 -124.5 -131t-160.5 -55q-86 0 -112.5 50.5t16.5 135.5q-24 -125 125 -125t256 125zM930 1516l55 -1356q1 -82 37 -117.5t108 -40.5h-489q71 0 131 45q62 47 59 135l-12 404h-479l-246 -377q-43 -68 -35.5 -114t41.5 -69.5t82 -23.5h-426q73 3 168 68
q96 66 154 153zM723 1169l-371 -565h467l-12 440q-3 161 -14 168q-30 15 -70 -43z" />
    <glyph glyph-name="abreve" unicode="&#x103;" horiz-adv-x="1007" 
d="M1106 1266q-42 -77 -124.5 -132t-160.5 -55q-86 0 -112.5 51t16.5 136q-24 -125 125 -125t256 125zM936 891l86 49l-309 -743q-53 -127 -17 -136q27 -9 92 41q69 56 117 107l49 53l-65 -78l-84 -96q-22 -22 -78 -61q-47 -33 -88 -33q-69 0 -85 57.5t26 149.5l198 467
q89 239 -26 266q-82 21 -193 -68q-113 -90 -207 -239q-76 -110 -120.5 -231.5t-37.5 -211.5t74 -102q50 -10 104.5 7.5t96.5 55.5q72 62 117 125q-38 -70 -109 -161q-49 -59 -114.5 -92.5t-135.5 -32.5q-103 0 -141.5 91t-7 227.5t120.5 266.5q129 198 273 291.5t269 87.5
q103 -3 138 -84z" />
    <glyph glyph-name="Aogonek" unicode="&#x104;" horiz-adv-x="1202" 
d="M1130 2h-489q71 0 131 45q62 47 59 135l-12 404h-479l-246 -377q-43 -68 -35.5 -114t41.5 -69.5t82 -23.5h-426q73 3 168 68q96 66 154 153l852 1293l55 -1356q1 -82 37 -117.5t108 -40.5zM723 1169l-371 -565h467l-12 440q-3 161 -14 168q-30 15 -70 -43zM815 0h125
q-176 -89 -197 -197q-15 -74 43 -114q60 -44 134 -11q-49 -35 -112.5 -37t-111 34.5t-49.5 101.5q-3 135 168 223z" />
    <glyph glyph-name="aogonek" unicode="&#x105;" horiz-adv-x="1030" 
d="M727 61q27 -9 92 41q71 58 115 107l51 53l-65 -78l-84 -96q-22 -22 -78 -61q-47 -33 -88 -33q-21 0 -27 2q-171 -104 -186 -193q-12 -74 43 -114q59 -44 133 -11q-48 -35 -112.5 -37t-112.5 34.5t-48 101.5q-3 149 226 270q-16 61 24 154l199 467q89 239 -27 266
q-81 21 -192 -68q-113 -90 -207 -239q-76 -110 -120.5 -231.5t-37.5 -211.5t74 -102q50 -10 104.5 7.5t96.5 55.5q69 59 116 125q-40 -74 -108 -161q-49 -59 -114.5 -92.5t-135.5 -32.5q-77 0 -119 54.5t-43.5 138.5t33 189.5t100.5 202.5q129 198 273.5 291.5t269.5 87.5
q102 -3 137 -84l58 27l86 49l-310 -743q-53 -127 -16 -136z" />
    <glyph glyph-name="Cacute" unicode="&#x106;" horiz-adv-x="1300" 
d="M1098 1554l172 238q25 37 52 46.5t48 -13.5q20 -13 11.5 -42t-42.5 -54zM1432 1257l-105 -229q3 59 -18 156q-14 59 -43 108q-28 53 -88.5 92.5t-135.5 45.5q-172 15 -327 -113q-156 -126 -262 -336q-57 -115 -84 -249t-19 -259q8 -129 70 -223t168 -119q186 -43 350 49
q161 93 270 279q-108 -224 -280 -359q-174 -133 -402 -96q-117 19 -197.5 89t-115 170.5t-37 220t30 244.5t92.5 237q83 156 187.5 261t215.5 150q192 78 377 66q218 -18 353 -185z" />
    <glyph glyph-name="cacute" unicode="&#x107;" horiz-adv-x="819" 
d="M700 1049l172 237q25 37 53 46.5t48 -13.5q20 -13 11.5 -42t-42.5 -54zM670 950q-208 6 -383 -190q-101 -117 -157.5 -266t-49.5 -283q6 -108 73 -173.5t166 -60.5q100 7 178 63.5t126 135.5q45 64 59 103l-14 -23q-17 -26 -42.5 -54.5t-65.5 -62.5t-94.5 -53.5
t-111.5 -15.5q-141 9 -147 194q-3 127 76 307q79 183 196 285q100 89 185 86q88 -3 88 -76q0 -40 -41 -67q-27 -18 -30 -50.5t21 -56.5q18 -19 54 -15t59 30q34 40 25 112q-11 54 -56 92t-114 39z" />
    <glyph glyph-name="Cdotaccent" unicode="&#x10a;" horiz-adv-x="1300" 
d="M1055 1690q18 0 18 -17q0 -18 -18 -18q-17 0 -17 18q0 17 17 17zM1432 1257l-105 -229q3 59 -18 156q-14 59 -43 108q-28 53 -88.5 92.5t-135.5 45.5q-172 15 -327 -113q-156 -126 -262 -336q-57 -115 -84 -249t-19 -259q8 -129 70 -223t168 -119q186 -43 350 49
q161 93 270 279q-108 -224 -280 -359q-174 -133 -402 -96q-117 19 -197.5 89t-115 170.5t-37 220t30 244.5t92.5 237q83 156 187.5 261t215.5 150q192 78 377 66q218 -18 353 -185z" />
    <glyph glyph-name="cdotaccent" unicode="&#x10b;" horiz-adv-x="819" 
d="M813 1257q35 0 58.5 -24t23.5 -57q0 -32 -25 -56t-57 -24q-48 -3 -68 38.5t0 83t68 39.5zM670 950q69 -1 114 -39t56 -92q9 -72 -25 -112q-23 -26 -59 -30t-54 15q-24 24 -21 56.5t30 50.5q41 27 41 67q0 73 -88 76q-85 3 -185 -86q-117 -102 -196 -285
q-79 -180 -76 -307q6 -185 147 -194q57 -4 111.5 15.5t94.5 53.5t65.5 62.5t42.5 54.5l14 23q-14 -39 -59 -103q-48 -79 -126 -135.5t-178 -63.5q-99 -5 -166 60.5t-73 173.5q-7 134 49.5 283t157.5 266q175 196 383 190z" />
    <glyph glyph-name="Ccaron" unicode="&#x10c;" horiz-adv-x="1300" 
d="M1040 1819l86 -207l308 203l-283 -267h-98zM1432 1257l-105 -229q3 59 -18 156q-14 59 -43 108q-28 53 -88.5 92.5t-135.5 45.5q-172 15 -327 -113q-156 -126 -262 -336q-57 -115 -84 -249t-19 -259q8 -129 70 -223t168 -119q186 -43 350 49q161 93 270 279
q-108 -224 -280 -359q-174 -133 -402 -96q-117 19 -197.5 89t-115 170.5t-37 220t30 244.5t92.5 237q83 156 187.5 261t215.5 150q192 78 377 66q218 -18 353 -185z" />
    <glyph glyph-name="ccaron" unicode="&#x10d;" horiz-adv-x="819" 
d="M686 1325l88 -205l305 203l-280 -266h-101zM670 950q-208 6 -383 -190q-101 -117 -157.5 -266t-49.5 -283q6 -108 73 -173.5t166 -60.5q100 7 178 63.5t126 135.5q45 64 59 103l-14 -23q-17 -26 -42.5 -54.5t-65.5 -62.5t-94.5 -53.5t-111.5 -15.5q-141 9 -147 194
q-3 127 76 307q79 183 196 285q100 89 185 86q88 -3 88 -76q0 -40 -41 -67q-27 -18 -30 -50.5t21 -56.5q18 -19 54 -15t59 30q34 40 25 112q-11 54 -56 92t-114 39z" />
    <glyph glyph-name="Dcaron" unicode="&#x10e;" horiz-adv-x="1505" 
d="M1323 1817l-281 -267h-98l-14 269l88 -205zM1411 586q-231 -586 -956 -586h-621q210 3 270 156l465 1153q23 50 -16.5 85t-116.5 40h297q186 5 302.5 -9t207.5 -55q95 -44 158 -143q65 -100 80 -264q18 -166 -70 -377zM1026 260q143 148 227 365q82 213 70 401
q-27 347 -336 377q-124 14 -221 10l-508 -1257q-64 -129 94 -129h90q360 0 584 233z" />
    <glyph glyph-name="dcaron" unicode="&#x10f;" horiz-adv-x="1007" 
d="M692 74q18 -11 76 35q70 53 113 96l51 49q-212 -258 -322 -258q-34 0 -48.5 22.5t-10.5 56.5t20 79l197 487q94 260 -29 295q-84 21 -194 -66q-105 -80 -195 -233q-72 -122 -117 -242q-43 -112 -40 -217q6 -95 81 -110q65 -12 138 28q46 27 82.5 59t54.5 54t45 59
q-7 -18 -16.5 -33t-49.5 -73q-43 -61 -75 -90q-43 -41 -105 -71.5t-119 -29.5q-61 -1 -101 35t-52 99t-4 140t40.5 164t84.5 166q244 392 532 377q87 -3 135 -75l156 387q43 114 29 131q-8 11 -62 20q-81 14 -98 15l-47 2h372l-518 -1289q-22 -60 -4 -69zM1303 1337
q32 -5 50.5 -31t14.5 -61q-11 -78 -81 -146.5t-157 -99.5q56 23 113 80q58 58 70 105q-14 -6 -39 -2q-33 5 -52 32t-12 62q6 32 33.5 50t59.5 11z" />
    <glyph glyph-name="Dcroat" unicode="&#x110;" horiz-adv-x="1505" 
d="M1411 586q-231 -586 -956 -586h-621q210 3 270 156l230 567h-191l-12 18h209l229 568q23 50 -16.5 85t-116.5 40h297q186 5 302.5 -9t207.5 -55q95 -44 158 -143q65 -100 80 -264q18 -166 -70 -377zM1026 260q143 148 227 365q82 213 70 401q-27 347 -336 377
q-124 14 -221 10l-270 -672h215l-17 -18h-207l-229 -567q-64 -129 94 -129h90q360 0 584 233z" />
    <glyph glyph-name="dslash" unicode="&#x111;" horiz-adv-x="1007" 
d="M842 1432h372l-131 -326h111l-8 -16h-109l-381 -947q-22 -60 -4 -69q18 -11 76 35q70 53 113 96l51 49q-212 -258 -322 -258q-34 0 -48.5 22.5t-10.5 56.5t20 79l197 487q94 260 -29 295q-84 21 -194 -66q-105 -80 -195 -233q-72 -122 -117 -242q-43 -112 -40 -217
q6 -95 81 -110q65 -12 138 28q46 27 82.5 59t54.5 54t45 59q-7 -18 -16.5 -33t-49.5 -73q-43 -61 -75 -90q-43 -41 -105 -71.5t-119 -29.5q-61 -1 -101 35t-52 99t-4 140t40.5 164t84.5 166q244 392 532 377q87 -3 135 -75l86 213h-168l9 14h165l64 160q43 114 29 131
q-8 11 -62 20q-81 14 -98 15z" />
    <glyph glyph-name="Emacron" unicode="&#x112;" 
d="M887 1604l403 2l-8 -17h-403zM877 1409h-117l-260 -645h155q184 0 265 67q40 33 59 56.5t51 75.5l-188 -488q7 33 7.5 65.5t-9 70t-31.5 65.5t-66.5 46.5t-107.5 18.5h-143l-242 -600q-20 -54 -3.5 -85t64.5 -31h189q268 0 489 96q198 91 301 221l-186 -342h-1272
q81 0 160 43t106 102l471 1166q17 50 -22 84t-115 39h965l37 -301l-25 45q-10 17 -66 84q-53 62 -100 84q-86 42 -162 51q-77 12 -204 12z" />
    <glyph glyph-name="emacron" unicode="&#x113;" horiz-adv-x="876" 
d="M545 1090l8 14l403 2l-8 -16h-403zM719 952q53 -3 93.5 -34.5t56.5 -77t-1.5 -104.5t-72.5 -111q-78 -78 -238 -113q-149 -33 -276 -33q320 24 452 223q32 47 45.5 100t-0.5 93.5t-57 46.5q-95 15 -201 -82q-100 -90 -192 -246q-50 -85 -88 -211q-31 -117 -13 -217
q21 -104 109 -125q58 -14 119 2t110.5 53.5t82 69.5t57.5 64l18 29q-26 -51 -70 -111q-49 -64 -84 -94q-49 -45 -120.5 -75t-141.5 -26q-80 2 -133 52.5t-71 131t2 190.5t79 224q60 116 134.5 199t148.5 121q140 73 252 61z" />
    <glyph glyph-name="Edotaccent" unicode="&#x116;" horiz-adv-x="1347" 
d="M1077 1642q-16 0 -16 17q0 18 16 18q19 0 19 -18q0 -17 -19 -17zM915 1409h-116l-260 -645h155q183 0 264 67q40 33 59.5 57t51.5 75l-188 -488q7 33 7.5 65.5t-9 70t-31.5 65.5t-66.5 46.5t-107.5 18.5h-144l-241 -600q-20 -54 -3.5 -85t64.5 -31h189q268 0 489 96
q198 91 301 221l-186 -342h-1272q81 0 160 43t106 102l471 1166q17 50 -22 84t-115 39h965l37 -301l-25 45q-10 17 -66 84q-53 62 -100 84q-86 42 -162 51q-76 12 -205 12z" />
    <glyph glyph-name="edotaccent" unicode="&#x117;" horiz-adv-x="876" 
d="M838 1257q35 0 58.5 -24t23.5 -57q0 -32 -25 -56t-57 -24q-48 -3 -68 38.5t0 83t68 39.5zM719 952q53 -3 93.5 -34.5t56.5 -77t-1.5 -104.5t-72.5 -111q-78 -78 -238 -113q-149 -33 -276 -33q320 24 452 223q32 47 45.5 100t-0.5 93.5t-57 46.5q-95 15 -201 -82
q-100 -90 -192 -246q-50 -85 -88 -211q-31 -117 -13 -217q21 -104 109 -125q58 -14 119 2t110.5 53.5t82 69.5t57.5 64l18 29q-26 -51 -70 -111q-49 -64 -84 -94q-49 -45 -120.5 -75t-141.5 -26q-80 2 -133 52.5t-71 131t2 190.5t79 224q60 116 134.5 199t148.5 121
q140 73 252 61z" />
    <glyph glyph-name="Eogonek" unicode="&#x118;" 
d="M877 1409h-117l-260 -645h155q184 0 265 67q40 33 59 56.5t51 75.5l-188 -488q7 33 7.5 65.5t-9 70t-31.5 65.5t-66.5 46.5t-107.5 18.5h-143l-242 -600q-20 -54 -3.5 -85t64.5 -31h189q268 0 489 96q198 91 301 221l-186 -342h-49q-176 -89 -197 -197q-15 -74 43 -114
q59 -44 133 -11q-49 -35 -112 -37t-110.5 34.5t-49.5 101.5q-3 138 166 223h-1096q81 0 160 43t106 102l471 1166q17 50 -22 84t-115 39h965l37 -301l-25 45q-10 17 -66 84q-53 62 -100 84q-86 42 -162 51q-77 12 -204 12z" />
    <glyph glyph-name="eogonek" unicode="&#x119;" horiz-adv-x="876" 
d="M719 952q53 -3 93.5 -34.5t56.5 -77t-1.5 -104.5t-72.5 -111q-78 -78 -238 -113q-149 -33 -276 -33q320 24 452 223q32 47 45.5 100t-0.5 93.5t-57 46.5q-95 15 -201 -82q-100 -90 -192 -246q-50 -85 -88 -211q-31 -117 -13 -217q21 -104 109 -125q58 -14 119 2
t110.5 53.5t82 69.5t57.5 64l18 29q-23 -46 -64 -103q-50 -76 -131.5 -134t-181.5 -69q-134 -82 -149 -170q-15 -74 43 -114q59 -44 133 -11q-49 -35 -112.5 -37t-111 34.5t-49.5 101.5q-3 120 142 209q-125 43 -146 209q-18 171 88 376q60 116 134.5 199t148.5 121
q140 73 252 61z" />
    <glyph glyph-name="Ecaron" unicode="&#x11a;" 
d="M1427 1815l-280 -267h-100l-13 271l88 -207zM877 1409h-117l-260 -645h155q184 0 265 67q40 33 59 56.5t51 75.5l-188 -488q7 33 7.5 65.5t-9 70t-31.5 65.5t-66.5 46.5t-107.5 18.5h-143l-242 -600q-20 -54 -3.5 -85t64.5 -31h189q268 0 489 96q198 91 301 221
l-186 -342h-1272q81 0 160 43t106 102l471 1166q17 50 -22 84t-115 39h965l37 -301l-25 45q-10 17 -66 84q-53 62 -100 84q-86 42 -162 51q-77 12 -204 12z" />
    <glyph glyph-name="ecaron" unicode="&#x11b;" horiz-adv-x="876" 
d="M649 1325l86 -205l307 203l-282 -266h-98zM719 952q-112 12 -252 -61q-74 -38 -148.5 -121t-134.5 -199q-59 -114 -79 -224t-2 -190.5t71 -131t133 -52.5q70 -4 141.5 26t120.5 75q35 30 84 94q44 60 70 111l-18 -29q-25 -32 -57.5 -64t-82 -69.5t-110.5 -53.5t-119 -2
q-88 21 -109 125q-18 100 13 217q38 126 88 211q92 156 192 246q106 97 201 82q43 -6 57 -46.5t0.5 -93.5t-45.5 -100q-132 -199 -452 -223q127 0 276 33q160 35 238 113q55 52 72.5 111t1.5 104.5t-56.5 77t-93.5 34.5z" />
    <glyph glyph-name="Gbreve" unicode="&#x11e;" 
d="M1024 1798q-24 -127 125 -127t256 125q-42 -76 -124.5 -131t-160.5 -55q-86 0 -112.5 51t16.5 137zM1440 1268l-97 -236q0 93 -47 213q-25 68 -81 116.5t-128 61.5q-409 83 -663 -489q-55 -124 -76 -272.5t-4 -282.5q18 -138 94 -230t195 -102q189 -15 309 96
q121 115 164 258q24 77 -27 111q-49 34 -112 37h479l-39 -4q-43 -5 -90.5 -37t-69.5 -80q-31 -67 -180 -434l-2 29q-5 32 -29.5 60t-60.5 32q-5 -1 -44.5 -23t-84.5 -44t-112 -38.5t-126 -11.5q-167 6 -277 99t-143 239q-31 141 -11.5 302.5t85.5 303.5q82 182 203.5 295.5
t251.5 161.5q181 73 407 39q208 -38 316 -170z" />
    <glyph glyph-name="gbreve" unicode="&#x11f;" horiz-adv-x="911" 
d="M674 1079q-86 0 -112.5 51t16.5 136q-27 -125 122 -125q148 0 258 125q-44 -77 -125 -132t-159 -55zM627 948q120 -7 187 -78.5t65 -177.5q-3 -184 -142 -299q-136 -112 -311 -88q-89 9 -143 47q-100 -51 -84 -112q5 -37 80 -84l180 -103q111 -60 162 -114
q82 -76 73 -191q-12 -128 -129 -202t-291 -66q-104 3 -215 33q-103 31 -166 101t-57 165q3 50 27 94.5t56 74t72 52.5t72.5 35.5t59.5 17.5l33 8q-199 -108 -205 -270q-3 -138 106 -215t262 -80q80 0 138.5 23.5t83.5 62.5q44 61 47 125q9 149 -187 258l-98 49l-88 45
q-28 17 -47.5 31t-40 34.5t-29 43t-2.5 45.5q3 60 60 94q54 35 118 51q-98 76 -92 209q6 168 131 281q124 112 314 100zM764 668q21 229 -131 264q-130 27 -221 -80q-92 -109 -113 -264q-13 -110 20 -181t115 -88q126 -27 221 78q97 108 109 271zM999 936q48 0 48 -39
q0 -18 -13 -30t-35 -11q-14 0 -35 11.5t-28 11.5q-40 3 -84 -41q18 24 22 28q23 25 58.5 47.5t66.5 22.5z" />
    <glyph glyph-name="Gdotaccent" unicode="&#x120;" 
d="M1042 1690q19 0 19 -17q0 -18 -19 -18q-16 0 -16 18q0 17 16 17zM1440 1268l-97 -236q0 93 -47 213q-25 68 -81 116.5t-128 61.5q-409 83 -663 -489q-55 -124 -76 -272.5t-4 -282.5q18 -138 94 -230t195 -102q189 -15 309 96q121 115 164 258q24 77 -27 111
q-49 34 -112 37h479l-39 -4q-43 -5 -90.5 -37t-69.5 -80q-31 -67 -180 -434l-2 29q-5 32 -29.5 60t-60.5 32q-5 -1 -44.5 -23t-84.5 -44t-112 -38.5t-126 -11.5q-167 6 -277 99t-143 239q-31 141 -11.5 302.5t85.5 303.5q82 182 203.5 295.5t251.5 161.5q181 73 407 39
q208 -38 316 -170z" />
    <glyph glyph-name="gdotaccent" unicode="&#x121;" horiz-adv-x="911" 
d="M788 1176q3 -48 -38.5 -68t-83 0t-39.5 68q0 32 25 56.5t57 24.5q33 0 56 -23t23 -58zM627 948q120 -7 187 -78.5t65 -177.5q-3 -184 -142 -299q-136 -112 -311 -88q-89 9 -143 47q-100 -51 -84 -112q5 -37 80 -84l180 -103q111 -60 162 -114q82 -76 73 -191
q-12 -128 -129 -202t-291 -66q-104 3 -215 33q-103 31 -166 101t-57 165q3 50 27 94.5t56 74t72 52.5t72.5 35.5t59.5 17.5l33 8q-199 -108 -205 -270q-3 -138 106 -215t262 -80q80 0 138.5 23.5t83.5 62.5q44 61 47 125q9 149 -187 258l-98 49l-88 45q-28 17 -47.5 31
t-40 34.5t-29 43t-2.5 45.5q3 60 60 94q54 35 118 51q-98 76 -92 209q6 168 131 281q124 112 314 100zM764 668q21 229 -131 264q-130 27 -221 -80q-92 -109 -113 -264q-13 -110 20 -181t115 -88q126 -27 221 78q97 108 109 271zM999 936q48 0 48 -39q0 -18 -13 -30t-35 -11
q-14 0 -35 11.5t-28 11.5q-40 3 -84 -41q18 24 22 28q23 25 58.5 47.5t66.5 22.5z" />
    <glyph glyph-name="Gcommaaccent" unicode="&#x122;" 
d="M967 549h479q-5 0 -17 -1t-39 -8t-51.5 -18.5t-51 -36t-40.5 -57.5l-180 -434q0 7 -4 31q-2 24 -27.5 55t-60.5 35q-5 -1 -44.5 -23t-84.5 -44t-112 -38.5t-126 -11.5q-167 6 -277 99t-143 239q-31 141 -11.5 302.5t85.5 303.5q82 182 203.5 295.5t251.5 161.5
q181 73 407 39q208 -38 316 -170l-97 -236q0 93 -47 213q-25 68 -81 116.5t-128 61.5q-409 83 -663 -489q-55 -124 -76 -272.5t-4 -282.5q18 -138 94 -230t195 -102q189 -15 309 96q121 115 164 258q24 77 -27 111q-49 34 -112 37zM580 -88q32 -5 50.5 -31t14.5 -61
q-15 -82 -86 -150q-72 -69 -151 -96q56 23 112 82q56 56 68 102q-13 -5 -37 -2q-35 4 -53.5 31.5t-10.5 62.5q4 32 32.5 51t60.5 11z" />
    <glyph glyph-name="gcommaaccent" unicode="&#x123;" horiz-adv-x="911" 
d="M627 948q120 -7 187 -78.5t65 -177.5q-3 -184 -142 -299q-136 -112 -311 -88q-89 9 -143 47q-100 -51 -84 -112q5 -37 80 -84l180 -103q111 -60 162 -114q82 -76 73 -191q-12 -128 -129 -202t-291 -66q-104 3 -215 33q-103 31 -166 101t-57 165q3 50 27 94.5t56 74
t72 52.5t72.5 35.5t59.5 17.5l33 8q-199 -108 -205 -270q-3 -138 106 -215t262 -80q80 0 138.5 23.5t83.5 62.5q44 61 47 125q9 149 -187 258l-98 49l-88 45q-28 17 -47.5 31t-40 34.5t-29 43t-2.5 45.5q3 60 60 94q54 35 118 51q-98 76 -92 209q6 168 131 281
q124 112 314 100zM764 668q21 229 -131 264q-130 27 -221 -80q-92 -109 -113 -264q-13 -110 20 -181t115 -88q126 -27 221 78q97 108 109 271zM999 936q48 0 48 -39q0 -18 -13 -30t-35 -11q-14 0 -35 11.5t-28 11.5q-40 3 -84 -41q18 24 22 28q23 25 58.5 47.5t66.5 22.5z
" />
    <glyph glyph-name="Hbar" unicode="&#x126;" horiz-adv-x="1523" 
d="M1393 1434h524q-189 0 -248 -129l-86 -218h41l-20 -24h-31l-373 -936q-24 -59 16.5 -90.5t126.5 -36.5h-555q81 3 160 45q89 46 109 100l231 584h-735l-242 -602q-22 -59 17.5 -90.5t128.5 -36.5h-555q81 3 161 45q85 45 105 100l364 918h-233l20 24h224l88 222
q20 53 -15.5 86.5t-111.5 38.5h524q-190 0 -246 -129l-86 -218h736l88 222q20 53 -16 86.5t-111 38.5zM563 756h737l121 307h-735z" />
    <glyph glyph-name="hbar" unicode="&#x127;" horiz-adv-x="1091" 
d="M758 1106l-8 -16h-187l-440 -1090h-117l426 1090h-86l8 14h84l35 88l31 80q45 114 28 131q-7 10 -54.5 17.5t-96.5 9.5l-47 4h368l-133 -328h189zM772 63q16 -9 78 41q57 47 119 105l55 55l-61 -74q-57 -66 -72 -77q-117 -117 -186 -117q-117 0 -43 188l151 381
q39 95 53 168q11 56 -1.5 86.5t-55.5 42.5q-149 46 -422 -262q67 90 156 188q73 78 161.5 121.5t174.5 32.5q198 -27 61 -379l-68 -172l-79 -207q-47 -112 -21 -121z" />
    <glyph glyph-name="Imacron" unicode="&#x12a;" horiz-adv-x="677" 
d="M608 1591l8 15l404 2l-8 -17h-404zM459 1434h536q-197 0 -252 -129l-475 -1178q-24 -59 17.5 -90.5t128.5 -36.5h-568q88 3 168 41q87 41 121 129l449 1116q26 63 -7.5 103.5t-117.5 44.5z" />
    <glyph glyph-name="imacron" unicode="&#x12b;" horiz-adv-x="618" 
d="M358 1090l9 14l403 2l-8 -16h-404zM106 141l263 639q31 72 10 78q-14 8 -80 -39q-71 -51 -119 -94l-53 -51q89 102 176 178q95 83 158 86q56 1 70.5 -46.5t-17.5 -113.5l-266 -649q-27 -59 -6 -68q14 -8 80 39q64 46 120 99l56 51q-227 -266 -346 -266q-111 0 -46 157z
" />
    <glyph glyph-name="Iogonek" unicode="&#x12e;" horiz-adv-x="677" 
d="M459 1434h536q-197 0 -252 -129l-475 -1178q-24 -59 17.5 -90.5t128.5 -36.5h-107q-175 -88 -196 -197q-15 -74 43 -114q59 -44 133 -11q-49 -35 -112.5 -37t-111 34.5t-49.5 101.5q-3 135 168 223h-336q88 3 168 41q87 41 121 129l449 1116q26 63 -7.5 103.5
t-117.5 44.5z" />
    <glyph glyph-name="iogonek" unicode="&#x12f;" horiz-adv-x="628" 
d="M575 1147q19 0 19 -17q0 -18 -19 -18q-16 0 -16 18q0 17 16 17zM485 938q56 1 71 -46.5t-17 -113.5l-267 -649q-27 -59 -6 -68q14 -8 80 39q69 50 121 99l55 51q-199 -237 -323 -264q-149 -91 -168 -183q-15 -71 43 -114q59 -44 133 -11q-49 -35 -112.5 -37t-111 34.5
t-49.5 101.5q-1 58 49.5 122t133.5 115q-20 39 14 127l262 639q31 72 10 78q-14 8 -79 -39q-71 -51 -119 -94l-53 -51q89 102 176 178q95 83 157 86z" />
    <glyph glyph-name="Idot" unicode="&#x130;" horiz-adv-x="677" 
d="M829 1690q19 0 19 -17q0 -18 -19 -18q-16 0 -16 18q0 17 16 17zM459 1434h536q-197 0 -252 -129l-475 -1178q-24 -59 17.5 -90.5t128.5 -36.5h-568q88 3 168 41q87 41 121 129l449 1116q26 63 -7.5 103.5t-117.5 44.5z" />
    <glyph glyph-name="dotlessi" unicode="&#x131;" horiz-adv-x="622" 
d="M106 141l263 639q31 72 10 78q-14 8 -80 -39q-71 -51 -119 -94l-53 -51q89 102 176 178q95 83 158 86q56 1 70.5 -46.5t-17.5 -113.5l-266 -649q-27 -59 -6 -68q14 -8 80 39q64 46 120 99l56 51q-227 -266 -346 -266q-111 0 -46 157z" />
    <glyph glyph-name="IJ" unicode="&#x132;" horiz-adv-x="1267" 
d="M743 1305l-475 -1178q-24 -59 17.5 -90.5t128.5 -36.5h-568q88 3 168 41q87 41 121 129l449 1116q26 63 -7.5 103.5t-117.5 44.5h536q-197 0 -252 -129zM1116 1434h500q-197 0 -250 -134l-424 -1067q-102 -253 -299 -409q-197 -159 -487 -162q86 0 211 70q82 44 147 100
q74 62 148 168t126 233l439 1092q19 51 -9 78.5t-102 30.5z" />
    <glyph glyph-name="ij" unicode="&#x133;" horiz-adv-x="1202" 
d="M627 1118q-25 -25 -60 -25t-61 25q-25 26 -25 61t25 60q36 40 83 23.5t59 -60.5t-21 -84zM1264 1118q-25 -25 -59.5 -25t-59.5 25q-25 26 -25 61t25 60q34 40 80.5 23.5t59 -60.5t-20.5 -84zM1151 793l-387 -955q-126 -311 -473 -270q-45 6 -93.5 32t-66.5 56
q-24 36 -23 68.5t25 50.5q26 26 66 14t47 -53q2 -15 0 -30t-6 -32.5t-4 -19.5q-3 -55 49 -64q204 -46 336 273l370 893q46 107 21 116q-15 9 -80 -41q-59 -45 -119 -102l-55 -51q213 247 313 262q68 11 89.5 -27t-9.5 -120zM115 141l262 639q31 72 10 78q-14 8 -80 -39
q-71 -51 -119 -94l-53 -51q89 102 176 178q95 83 158 86q56 1 70.5 -46.5t-17.5 -113.5l-266 -649q-27 -59 -6 -68q14 -8 80 39q69 50 121 99l55 51q-227 -266 -346 -266q-110 0 -45 157z" />
    <glyph glyph-name="Kcommaaccent" unicode="&#x136;" horiz-adv-x="1327" 
d="M760 1305l-473 -1178q-25 -59 14.5 -90.5t126.5 -36.5h-557q87 2 166.5 45t112.5 125l460 1130q24 59 -11.5 94t-115.5 40h521q-188 0 -244 -129zM817 745l195 -403q170 -342 245 -342h-223q-41 64 -82 147l-250 510q-19 37 -54.5 50t-65.5 7t-50 -20l658 520
q63 49 85.5 100.5t-4 85.5t-95.5 34h454q-151 -12 -508 -297l-233 -189q-69 -55 -84.5 -98t12.5 -105zM633 -88q32 -4 51.5 -32t13.5 -60q-11 -78 -80.5 -146.5t-156.5 -99.5q56 23 112 82q58 55 70 102q-14 -6 -39 -2q-32 5 -50.5 32t-12.5 62q6 33 33 51t59 11z" />
    <glyph glyph-name="kcommaaccent" unicode="&#x137;" horiz-adv-x="897" 
d="M647 78q41 -10 85.5 11.5t66.5 53.5l18 27q-73 -192 -215 -180q-148 15 -172 250q-8 64 -10 108q-2 65 -7 93.5t-22 47.5q-23 30 -51 33l-211 -522h-125l500 1255q4 11 10.5 27.5t10.5 27t9 24.5t7.5 23t4.5 18t2 15t-3 9q-10 11 -59.5 20t-100.5 11l-47 4h373l-365 -897
q113 15 148 -76q10 -30 16 -131q8 -107 40 -171.5t97 -80.5zM909 934q50 -17 41 -64q-9 -44 -51 -47q-7 0 -45.5 -5.5t-60.5 -10.5q-71 -14 -166 -64q-55 -28 -120 -75.5t-106 -85.5l-34 -33q125 151 225 229q219 183 317 156zM354 -88q32 -5 51 -31t15 -61
q-15 -82 -86 -150q-72 -69 -152 -96q58 24 113 82q55 55 67 102q-13 -5 -36 -2q-35 4 -53.5 31.5t-10.5 62.5q5 32 32.5 50.5t59.5 11.5z" />
    <glyph glyph-name="Lacute" unicode="&#x139;" horiz-adv-x="1249" 
d="M655 1554l172 238q25 37 53 46.5t48 -13.5q20 -13 11.5 -42t-42.5 -54zM270 137l465 1166q58 131 248 131h-520q76 -5 112.5 -38.5t16.5 -86.5l-467 -1149q-30 -73 -102.5 -115.5t-159.5 -44.5h1106l192 373q-116 -162 -287 -242q-200 -99 -393 -102h-94
q-79 0 -109.5 26.5t-7.5 81.5z" />
    <glyph glyph-name="lacute" unicode="&#x13a;" horiz-adv-x="542" 
d="M588 1556l172 238q23 37 51.5 46.5t48.5 -13.5q20 -13 11.5 -42t-42.5 -54zM195 141l520 1293h-369l45 -4q48 -2 97 -11t59 -20q15 -15 -33 -131l-453 -1112q-67 -172 39 -172q114 0 332 258l-53 -49q-53 -53 -117 -99q-60 -46 -80 -39q-14 3 13 86z" />
    <glyph glyph-name="Lcommaaccent" unicode="&#x13b;" horiz-adv-x="1249" 
d="M874 131q171 80 287 242l-192 -373h-1106q87 2 159.5 44.5t102.5 115.5l467 1149q20 53 -16.5 86.5t-112.5 38.5h520q-190 0 -248 -131l-465 -1166q-23 -55 7.5 -81.5t109.5 -26.5h94q193 3 393 102zM506 -88q32 -4 51.5 -32t13.5 -60q-11 -78 -80.5 -146.5t-156.5 -99.5
q56 23 112 82q58 55 70 102q-14 -6 -39 -2q-32 5 -50.5 32t-12.5 62q6 33 33 51t59 11z" />
    <glyph glyph-name="lcommaaccent" unicode="&#x13c;" horiz-adv-x="542" 
d="M182 55q20 -7 80 39q64 46 117 99l53 49q-218 -258 -332 -258q-106 0 -39 172l453 1112q48 116 33 131q-10 11 -59 20t-97 11l-45 4h369l-520 -1293q-27 -83 -13 -86zM47 -88q33 -5 52.5 -31t13.5 -61q-11 -78 -80 -146.5t-156 -99.5q55 27 113 82q55 55 67 102
q-14 -6 -39 -2q-32 5 -50.5 32t-12.5 62q6 33 33 51t59 11z" />
    <glyph glyph-name="Lcaron" unicode="&#x13d;" horiz-adv-x="1249" 
d="M874 131q171 80 287 242l-192 -373h-1106q87 2 159.5 44.5t102.5 115.5l467 1149q20 53 -16.5 86.5t-112.5 38.5h520q-190 0 -248 -131l-465 -1166q-23 -55 7.5 -81.5t109.5 -26.5h94q193 3 393 102zM899 1276q6 32 33 50t59 11q32 -5 51 -31t15 -61q-11 -78 -81 -146.5
t-157 -99.5q56 23 113 80q56 56 69 105q-14 -5 -38 -2q-33 5 -52 32t-12 62z" />
    <glyph glyph-name="lcaron" unicode="&#x13e;" horiz-adv-x="575" 
d="M182 55q20 -7 80 39q64 46 117 99l53 49q-218 -258 -332 -258q-106 0 -39 172l453 1112q48 116 33 131q-10 11 -59 20t-97 11l-45 4h369l-520 -1293q-27 -83 -13 -86zM846 1337q32 -5 50.5 -31t14.5 -61q-11 -78 -80.5 -146.5t-156.5 -99.5q54 22 112 80t70 105
q-14 -6 -39 -2q-33 5 -51.5 32t-11.5 62q6 32 33 50t59 11z" />
    <glyph glyph-name="Ldot" unicode="&#x13f;" horiz-adv-x="1249" 
d="M735 1303l-465 -1166q-23 -55 7.5 -81.5t109.5 -26.5h94q193 3 393 102q171 80 287 242l-192 -373h-1106q87 2 159.5 44.5t102.5 115.5l467 1149q20 53 -16.5 86.5t-112.5 38.5h520q-190 0 -248 -131zM784 709q-31 0 -53 23.5t-22 55.5q0 31 22 53.5t53 22.5
q32 0 56 -22.5t24 -53.5q0 -35 -22.5 -57t-57.5 -22z" />
    <glyph glyph-name="ldot" unicode="&#x140;" horiz-adv-x="579" 
d="M715 1434l-520 -1293q-27 -83 -13 -86q20 -7 80 39q64 46 117 99l53 49q-218 -258 -332 -258q-106 0 -39 172l453 1112q48 116 33 131q-10 11 -59 20t-97 11l-45 4h369zM612 788q0 31 23 53.5t55 22.5t55 -22.5t23 -53.5q3 -48 -37.5 -68t-81 0t-37.5 68z" />
    <glyph glyph-name="Lslash" unicode="&#x141;" horiz-adv-x="1253" 
d="M915 131q171 80 287 242l-192 -373h-1106q87 2 159.5 44.5t102.5 115.5l272 669l-57 2l-199 -51l15 23l200 51l52 -2l184 457q20 53 -16.5 86.5t-112.5 38.5h520q-190 0 -248 -131l-166 -416l97 24l-11 -22l-94 -25l-291 -727q-23 -55 7.5 -81.5t109.5 -26.5h94
q194 3 393 102z" />
    <glyph glyph-name="lslash" unicode="&#x142;" horiz-adv-x="598" 
d="M432 1434h367l-238 -594l187 41l-19 -39l-184 -41l-264 -660q-35 -80 -13 -86q20 -7 80 39q66 50 115 99l53 49q-217 -258 -330 -258q-109 0 -39 172l248 612l-100 -23l-25 29l142 31l186 463q50 116 35 131q-10 11 -59 20t-97 11z" />
    <glyph glyph-name="Nacute" unicode="&#x143;" horiz-adv-x="1521" 
d="M1090 1554l172 238q25 37 52 46.5t48 -13.5q20 -13 11.5 -42t-42.5 -54zM1831 1434h-447q94 -5 126.5 -62.5t-5.5 -173.5l-331 -805q-25 -58 -39 -76.5t-27 -13.5q-17 6 -45 78l-336 1053h-352q106 -3 147 -74t10 -152l-391 -962q-45 -111 -141 -176q-94 -64 -186 -70
h495q-105 6 -148 71t-1 169l375 925q41 102 63 99q21 0 51 -105l379 -1171l496 1202q102 244 307 244z" />
    <glyph glyph-name="nacute" unicode="&#x144;" horiz-adv-x="1146" 
d="M743 1049l175 237q23 37 51.5 46.5t48.5 -13.5q18 -13 9.5 -41.5t-40.5 -54.5zM829 66q-22 9 21 127l154 378q138 334 -76 375q-136 24 -260 -92q-55 -52 -109 -117q-48 -61 -117 -157q278 334 426 280q103 -41 2 -291l-155 -383q-37 -72 -24.5 -129t73.5 -57
q65 -2 182 115q11 14 40 45t30 33q8 9 32 39.5t29 35.5l-53 -55q-51 -51 -113 -104q-61 -52 -82 -43zM498 758q33 68 24.5 118.5t-63.5 49.5q-104 -3 -320 -262l49 49q55 52 109 92q59 47 76 37q22 -6 -13 -86l-290 -756h127z" />
    <glyph glyph-name="Ncommaaccent" unicode="&#x145;" horiz-adv-x="1521" 
d="M1384 1434h447q-205 0 -307 -244l-496 -1202l-379 1171q-30 105 -51 105q-22 3 -63 -99l-375 -925q-42 -104 1 -169t148 -71h-495q92 6 186 70q96 65 141 176l391 962q31 81 -10 152t-147 74h352l336 -1053q28 -72 45 -78q13 -5 27 13.5t39 76.5l331 805
q38 116 5.5 173.5t-126.5 62.5zM575 -88q32 -5 51 -31t15 -61q-15 -82 -86 -150q-72 -69 -152 -96q58 24 113 82q56 56 68 102q-13 -5 -37 -2q-35 4 -53.5 31.5t-10.5 62.5q5 32 32.5 50.5t59.5 11.5z" />
    <glyph glyph-name="ncommaaccent" unicode="&#x146;" horiz-adv-x="1146" 
d="M829 66q21 -9 82 43q62 53 113 104l53 55q-5 -5 -29 -35.5t-32 -39.5q-1 -2 -30 -33t-40 -45q-117 -117 -182 -115q-61 0 -73.5 57t24.5 129l155 383q101 250 -2 291q-148 54 -426 -280q69 96 117 157q54 65 109 117q124 116 260 92q214 -41 76 -375l-154 -378
q-43 -118 -21 -127zM459 926q55 1 63.5 -49.5t-24.5 -118.5l-301 -758h-127l290 756q35 80 13 86q-17 10 -76 -37q-54 -40 -109 -92l-49 -49q216 259 320 262zM453 -88q32 -5 50.5 -31t14.5 -61q-15 -82 -86 -150q-72 -69 -151 -96q56 23 112 82q56 56 68 102q-13 -5 -37 -2
q-35 4 -53.5 31.5t-10.5 62.5q4 32 32.5 51t60.5 11z" />
    <glyph glyph-name="Ncaron" unicode="&#x147;" horiz-adv-x="1521" 
d="M1075 1817l86 -205l307 203l-282 -267h-99zM1831 1434h-447q94 -5 126.5 -62.5t-5.5 -173.5l-331 -805q-25 -58 -39 -76.5t-27 -13.5q-17 6 -45 78l-336 1053h-352q106 -3 147 -74t10 -152l-391 -962q-45 -111 -141 -176q-94 -64 -186 -70h495q-105 6 -148 71t-1 169
l375 925q41 102 63 99q21 0 51 -105l379 -1171l496 1202q102 244 307 244z" />
    <glyph glyph-name="ncaron" unicode="&#x148;" horiz-adv-x="1146" 
d="M786 1325l88 -205l306 203l-281 -266h-98zM829 66q-22 9 21 127l154 378q138 334 -76 375q-136 24 -260 -92q-55 -52 -109 -117q-48 -61 -117 -157q278 334 426 280q103 -41 2 -291l-155 -383q-37 -72 -24.5 -129t73.5 -57q65 -2 182 115q11 14 40 45t30 33q8 9 32 39.5
t29 35.5l-53 -55q-51 -51 -113 -104q-61 -52 -82 -43zM498 758q33 68 24.5 118.5t-63.5 49.5q-104 -3 -320 -262l49 49q55 52 109 92q59 47 76 37q22 -6 -13 -86l-290 -756h127z" />
    <glyph glyph-name="Eng" unicode="&#x14a;" horiz-adv-x="1490" 
d="M1389 1434h446q-205 0 -307 -244l-496 -1202l-10 32l-45 -110q-125 -315 -461 -268q-44 5 -91.5 30t-64.5 54q-24 33 -23 64.5t25 49.5q25 26 63.5 14.5t45.5 -51.5q1 -14 -4.5 -46t-5.5 -33q-3 -53 47 -62q103 -24 184 44t150 226l119 275l-308 952q-30 105 -51 105
q-12 1 -25.5 -20.5t-37.5 -78.5l-375 -925q-42 -104 1 -169t148 -71h-495q90 6 184 70q96 65 141 176l394 962q30 80 -11 152q-41 71 -149 74h352l338 -1053q28 -72 45 -78q8 -2 15.5 3t20 26t30.5 61l329 805q40 116 8.5 173.5t-126.5 62.5z" />
    <glyph glyph-name="eng" unicode="&#x14b;" horiz-adv-x="1077" 
d="M891 911q201 -35 82 -336l-268 -665q-33 -82 -81.5 -141t-95.5 -86q-45 -26 -92 -37.5t-78.5 -11t-54.5 7.5q-45 6 -91.5 30.5t-64.5 53.5q-24 33 -22.5 64.5t25.5 49.5q25 26 63 14.5t45 -51.5q1 -14 -4.5 -46t-5.5 -33q-3 -47 49 -62q85 -24 150 40.5t135 229.5
l102 246l154 371q94 243 -2 282q-142 50 -412 -272q79 111 113 152q40 51 104 112q115 112 250 88zM186 0h-125l289 750q35 80 12 86q-16 10 -75 -37q-63 -50 -107 -94l-51 -48q214 258 317 261q51 3 60.5 -38.5t-21.5 -127.5z" />
    <glyph glyph-name="Omacron" unicode="&#x14c;" horiz-adv-x="1443" 
d="M860 1599l8 15l404 2l-8 -17h-404zM1188 1419q92 -26 156.5 -97t95.5 -177q32 -103 13 -255t-87 -317q-91 -229 -256 -387q-164 -155 -350.5 -198.5t-378.5 28.5q-121 52 -180 203q-56 154 -29 354q27 204 129 388q162 286 406 407q243 119 481 51zM1073 1419
q-128 22 -291 -78q-91 -53 -185 -173t-167 -285q-127 -291 -106 -555q21 -258 180 -318q44 -17 96 -18t113 13.5t125.5 56.5t126.5 106t122 168t107 237q127 359 90 586q-35 233 -211 260z" />
    <glyph glyph-name="omacron" unicode="&#x14d;" horiz-adv-x="935" 
d="M496 1090l8 14l403 2l-8 -16h-403zM532 934q171 52 267 -35q95 -83 92 -246q-2 -127 -56.5 -258t-137 -229t-190.5 -152.5t-210 -36.5q-83 10 -133.5 62t-65 126t-7.5 155t34 159q36 109 89 196t112 138q112 95 206 121zM551 920q-87 -38 -168 -168q-78 -125 -127 -289
q-43 -169 -35 -309q6 -80 47 -124t111 -40q89 6 174 119q90 116 141 262q54 147 70 293q24 173 -49 237q-72 66 -164 19z" />
    <glyph glyph-name="Ohungarumlaut" unicode="&#x150;" horiz-adv-x="1443" 
d="M922 1583l172 238q25 37 52.5 46t47.5 -14q20 -13 11.5 -42t-42.5 -54zM1090 1583l172 238q25 37 52.5 46t47.5 -14q20 -13 11.5 -42t-42.5 -54zM1188 1419q-238 68 -481 -51q-244 -121 -406 -407q-102 -184 -129 -388q-27 -200 29 -354q59 -151 180 -203
q192 -72 378.5 -28.5t350.5 198.5q165 158 256 387q68 165 87 317t-13 255q-31 106 -95.5 177t-156.5 97zM1073 1419q176 -27 211 -260q37 -227 -90 -586q-47 -133 -107 -237t-122 -168t-126.5 -106t-125.5 -56.5t-113 -13.5t-96 18q-159 60 -180 318q-21 264 106 555
q73 165 167 285t185 173q163 100 291 78z" />
    <glyph glyph-name="ohungarumlaut" unicode="&#x151;" horiz-adv-x="935" 
d="M510 1081l174 238q24 37 50 46.5t50 -13.5q18 -13 9.5 -42t-39.5 -55zM725 1081l174 238q23 37 51.5 46.5t48.5 -13.5q18 -13 9.5 -42t-39.5 -55zM532 934q171 52 267 -35q95 -83 92 -246q-2 -127 -56.5 -258t-137 -229t-190.5 -152.5t-210 -36.5q-83 10 -133.5 62
t-65 126t-7.5 155t34 159q36 109 89 196t112 138q112 95 206 121zM551 920q-87 -38 -168 -168q-78 -125 -127 -289q-43 -169 -35 -309q6 -80 47 -124t111 -40q89 6 174 119q90 116 141 262q54 147 70 293q24 173 -49 237q-72 66 -164 19z" />
    <glyph glyph-name="OE" unicode="&#x152;" horiz-adv-x="2228" 
d="M1307 1434h974l37 -304l-24 46q-13 23 -66 86q-53 62 -100 84q-86 42 -162 51q-76 12 -205 12h-166l-260 -647h170q183 0 264 67q41 33 64 60q18 21 49 72l-188 -488q7 33 7.5 65.5t-9 70t-31.5 65.5t-66.5 46.5t-107.5 18.5h-160l-242 -600q-20 -54 -3.5 -85t63.5 -31
h188q271 0 492 96q198 91 301 221l-187 -342h-1116q-47 0 -118 -6q-140 -15 -259 8q-157 24 -247 176q-91 157 -88 363q3 207 98 393q141 271 335.5 395t471.5 119q28 0 110 -6l129 -6h45h7zM481 27q243 -79 398 116q51 68 92 156l37 84q43 109 45 113l49 122l45 109l45 109
q52 119 76 192q72 197 43 262q-27 142 -285 133q-112 0 -229 -55q-74 -33 -146 -90q-73 -58 -146 -161.5t-126 -231.5q-124 -294 -100 -549q24 -251 202 -309z" />
    <glyph glyph-name="oe" unicode="&#x153;" horiz-adv-x="1366" 
d="M467 934q117 46 158.5 -34t15.5 -265q-21 -256 -162 -473q122 233 146 477q7 52 6.5 93.5t-8 73.5t-19.5 55.5t-26.5 38t-31 21.5t-32 6.5t-29.5 -7.5q-52 -20 -116 -144q-63 -130 -107 -289q-41 -181 -51 -325q-12 -172 88 -172q-36 -16 -68 -13q-93 3 -43 267l56 254
q50 188 110.5 298.5t112.5 137.5zM1186 780q-116 21 -211 -47q163 228 278 219q44 -5 49 -57.5t-36 -140.5q-35 17 -80 26zM809 379q46 9 164 80q119 70 196 159q60 69 97 136q83 -41 24 -131q-61 -92 -180 -166q-118 -75 -301 -78zM975 733q-48 -65 -98 -155
q-41 -71 -68 -136q6 95 53 172q52 81 113 119zM809 379q18 -130 127 -154q51 -12 102.5 0.5t91 41t61.5 49t36 38.5q-36 -62 -115 -153q-51 -57 -121 -92.5t-143 -36.5q-92 0 -102.5 102t63.5 268q-3 -29 0 -63zM1231 358l-4 -4zM313 -10h-14q93 36 180 172
q-88 -163 -166 -172z" />
    <glyph glyph-name="Racute" unicode="&#x154;" horiz-adv-x="1306" 
d="M1219 1825q20 -13 11.5 -42t-42.5 -54l-242 -175l172 238q25 37 53 46.5t48 -13.5zM1307 995q-54 -137 -188.5 -211t-323.5 -82q70 -43 110 -137l123 -282q66 -156 113 -209q48 -54 100 -74h-227q-46 37 -105 182l-139 342q-50 121 -102 158q-50 39 -179 57l-237 -581
q-28 -70 11 -114t112 -44h-529q53 0 102.5 17t96 60.5t72.5 108.5l444 1104q23 60 -9.5 101.5t-105.5 42.5h504q240 0 332 -136q92 -135 25 -303zM1169 1014q53 136 11 256q-24 68 -104 108t-206 41l-104 2l-270 -667q178 -21 305 -2q132 19 229 86.5t139 175.5z" />
    <glyph glyph-name="racute" unicode="&#x155;" horiz-adv-x="835" 
d="M616 1049l175 237q23 37 51.5 46.5t48.5 -13.5q18 -13 9.5 -41.5t-40.5 -54.5zM350 788l-315 -788h131l319 784q29 71 23 109q-6 60 -86 45q-44 -6 -141 -90q-95 -86 -168 -170l49 47q43 40 108 92q59 47 82 47q8 -1 12 -5.5t2.5 -15t-5 -22.5t-11.5 -33zM451 676l18 24
q65 81 121 134q114 99 213 96q48 0 75 -23.5t27 -60.5q-2 -36 -26.5 -56.5t-61.5 -13.5q-27 3 -47 33q-19 28 -59 31q-101 6 -260 -164z" />
    <glyph glyph-name="Rcommaaccent" unicode="&#x156;" horiz-adv-x="1306" 
d="M1307 995q-54 -137 -188.5 -211t-323.5 -82q70 -43 110 -137l123 -282q66 -156 113 -209q48 -54 100 -74h-227q-46 37 -105 182l-139 342q-50 121 -102 158q-50 39 -179 57l-237 -581q-28 -70 11 -114t112 -44h-529q53 0 102.5 17t96 60.5t72.5 108.5l444 1104
q23 60 -9.5 101.5t-105.5 42.5h504q240 0 332 -136q92 -135 25 -303zM1169 1014q53 136 11 256q-24 68 -104 108t-206 41l-104 2l-270 -667q178 -21 305 -2q132 19 229 86.5t139 175.5zM629 -88q32 -4 51.5 -32t13.5 -60q-11 -78 -80.5 -146.5t-156.5 -99.5q56 23 112 82
q58 55 70 102q-14 -6 -39 -2q-32 5 -50.5 32t-12.5 62q6 33 33 51t59 11z" />
    <glyph glyph-name="rcommaaccent" unicode="&#x157;" horiz-adv-x="835" 
d="M508 893q6 -38 -23 -109l-319 -784h-131l315 788q8 21 11.5 33t5 22.5t-2.5 15t-12 5.5q-23 0 -82 -47q-65 -52 -108 -92l-49 -47q73 84 168 170q97 84 141 90q80 15 86 -45zM803 930q48 0 75 -23.5t27 -60.5q-2 -36 -26.5 -56.5t-61.5 -13.5q-27 3 -47 33q-19 28 -59 31
q-101 6 -260 -164q66 91 139 158q114 99 213 96zM4 -88q32 -5 52 -32.5t14 -59.5q-11 -78 -81 -146.5t-157 -99.5q56 23 115 82q55 55 67 102q-14 -6 -39 -2q-32 5 -50.5 32t-12.5 62q6 33 33 51t59 11z" />
    <glyph glyph-name="Rcaron" unicode="&#x158;" horiz-adv-x="1306" 
d="M1262 1815l-283 -267h-98l-13 269l86 -205zM1307 995q-54 -137 -188.5 -211t-323.5 -82q70 -43 110 -137l123 -282q66 -156 113 -209q48 -54 100 -74h-227q-46 37 -105 182l-139 342q-50 121 -102 158q-50 39 -179 57l-237 -581q-28 -70 11 -114t112 -44h-529
q53 0 102.5 17t96 60.5t72.5 108.5l444 1104q23 60 -9.5 101.5t-105.5 42.5h504q240 0 332 -136q92 -135 25 -303zM1169 1014q53 136 11 256q-24 68 -104 108t-206 41l-104 2l-270 -667q178 -21 305 -2q132 19 229 86.5t139 175.5z" />
    <glyph glyph-name="rcaron" unicode="&#x159;" horiz-adv-x="835" 
d="M602 1325l86 -205l307 203l-282 -266h-99zM350 788l-315 -788h131l319 784q29 71 23 109q-6 60 -86 45q-44 -6 -141 -90q-95 -86 -168 -170l49 47q43 40 108 92q59 47 82 47q8 -1 12 -5.5t2.5 -15t-5 -22.5t-11.5 -33zM451 676l18 24q65 81 121 134q114 99 213 96
q48 0 75 -23.5t27 -60.5q-2 -36 -26.5 -56.5t-61.5 -13.5q-27 3 -47 33q-19 28 -59 31q-101 6 -260 -164z" />
    <glyph glyph-name="Sacute" unicode="&#x15a;" horiz-adv-x="1128" 
d="M926 1554l172 238q25 37 52 46.5t48 -13.5q20 -13 11.5 -42t-42.5 -54zM1225 1313l-84 -191q-10 101 -60 183q-52 88 -168 118q-174 40 -278 -51q-103 -90 -88 -256q9 -78 47 -133q24 -36 158 -164q47 -43 84 -80q249 -249 168 -469q-54 -141 -177 -213
q-126 -72 -256 -75q-283 -9 -475 168q-48 43 -78 94l111 243l2 -32q0 -36 18 -96.5t48 -112.5q64 -111 172.5 -177.5t244.5 -66.5q153 3 220 119q70 117 36 252q-16 69 -65 135q-50 74 -86 110q-30 32 -107 103q-141 133 -186 236t-8 227q82 257 432 266q161 3 291 -70
q59 -32 84 -67z" />
    <glyph glyph-name="sacute" unicode="&#x15b;" horiz-adv-x="829" 
d="M608 1049l174 237q23 37 52 46.5t49 -13.5q18 -13 9.5 -41.5t-40.5 -54.5zM559 954q-119 -6 -196.5 -71.5t-77.5 -163.5q0 -60 20 -107q13 -30 90 -159q106 -171 109 -250q6 -92 -62 -160t-172 -59q-91 9 -133 75q-45 69 -10 134q8 25 41 38q32 11 41 45q8 30 -11.5 53
t-54.5 23q-51 -2 -82.5 -46t-25.5 -107q5 -99 71.5 -161t180.5 -63q150 -3 250 66q103 71 100 205q0 66 -43 145q-7 15 -43 70l-41 67l-31 52l-30 49l-19 39q-21 46 -24 94q-6 66 38 121q48 60 117 63q66 1 106 -28.5t40 -73.5q0 -12 -14.5 -41t-14.5 -41q-2 -25 17.5 -43.5
t49.5 -18.5q31 1 49.5 29t16.5 62q-3 75 -80 122q-70 44 -172 41z" />
    <glyph glyph-name="Scedilla" unicode="&#x15e;" horiz-adv-x="1255" 
d="M1255 1313l-84 -191q-10 103 -59 183q-52 88 -168 118q-174 40 -278 -51q-103 -90 -88 -256q9 -78 47 -133q26 -39 157 -164q47 -43 84 -80q249 -249 168 -469q-54 -142 -176 -213q-126 -72 -256 -75q-283 -9 -475 168q-48 43 -78 94l111 243v-32q2 -37 19.5 -97.5
t47.5 -111.5q64 -111 173 -177.5t245 -66.5q152 3 219 119q71 118 37 252q-16 69 -65 135q-50 74 -86 110q-30 32 -107 103q-141 133 -186 236t-8 227q82 257 432 266q160 3 290 -70q59 -32 84 -67zM528 -4l-137 -111q22 -2 41.5 -9.5t34.5 -21t14.5 -38t-20.5 -54.5
q-46 -67 -110.5 -97.5t-117 -27.5t-88.5 25q18 -29 63.5 -41t101 -5t115.5 43.5t101 96.5q30 38 33.5 72t-24.5 58.5t-86 29.5l102 88z" />
    <glyph glyph-name="scedilla" unicode="&#x15f;" horiz-adv-x="829" 
d="M811 791q2 -34 -16.5 -62t-49.5 -29q-30 0 -49.5 18.5t-17.5 43.5q0 12 14.5 41t14.5 41q0 44 -40 73.5t-106 28.5q-69 -3 -117 -63q-44 -55 -38 -121q3 -48 24 -94l19 -39l30 -49l31 -52l41 -67q36 -55 43 -70q43 -79 43 -145q1 -108 -70.5 -177.5t-191.5 -88.5l-78 -64
q58 -5 86.5 -29.5t25 -58.5t-33.5 -72q-40 -60 -100 -96.5t-115.5 -43.5t-101 5t-62.5 41q33 -22 86 -25t117.5 28t109.5 97q22 30 23 54.5t-14 38t-34.5 21t-41.5 9.5l118 92q-16 -2 -73 -2q-114 1 -180.5 63t-71.5 161q-6 63 25.5 107t82.5 46q35 0 54.5 -23t11.5 -53
q-9 -34 -41 -45q-33 -13 -41 -38q-35 -65 10 -134q42 -66 133 -75q104 -9 172 59t62 160q-3 79 -109 250q-77 129 -90 159q-20 47 -20 107q0 98 77.5 163.5t196.5 71.5q102 3 172 -41q77 -47 80 -122z" />
    <glyph glyph-name="Scaron" unicode="&#x160;" horiz-adv-x="1128" 
d="M848 1817l86 -205l307 203l-283 -267h-98zM1233 1313l-84 -191q-10 103 -59 183q-52 88 -168 118q-174 40 -279 -51q-103 -90 -88 -256q9 -78 47 -133q24 -36 158 -164q47 -43 84 -80q249 -249 168 -469q-54 -142 -176 -213q-126 -72 -256 -75q-284 -9 -476 168
q-46 41 -77 94l110 243l2 -32q0 -36 18 -96.5t48 -112.5q64 -111 173 -177.5t245 -66.5q152 3 219 119q71 118 37 252q-16 67 -66 135q-49 74 -86 110q-35 38 -106 103q-141 133 -186.5 236t-8.5 227q82 257 432 266q161 3 291 -70q59 -32 84 -67z" />
    <glyph glyph-name="scaron" unicode="&#x161;" horiz-adv-x="829" 
d="M573 1325l89 -205l305 203l-281 -266h-100zM559 954q-119 -6 -196.5 -71.5t-77.5 -163.5q0 -60 20 -107q13 -30 90 -159q106 -171 109 -250q6 -92 -62 -160t-172 -59q-91 9 -133 75q-45 69 -10 134q8 25 41 38q32 11 41 45q8 30 -11.5 53t-54.5 23q-51 -2 -82.5 -46
t-25.5 -107q5 -99 71.5 -161t180.5 -63q150 -3 250 66q103 71 100 205q0 66 -43 145q-7 15 -43 70l-41 67l-31 52l-30 49l-19 39q-21 46 -24 94q-6 66 38 121q48 60 117 63q66 1 106 -28.5t40 -73.5q0 -12 -14.5 -41t-14.5 -41q-2 -25 17.5 -43.5t49.5 -18.5q31 1 49.5 29
t16.5 62q-3 75 -80 122q-70 44 -172 41z" />
    <glyph glyph-name="uni0162" unicode="&#x162;" horiz-adv-x="1417" 
d="M195 1137l141 297h1196l-35 -277q0 3 -2.5 15t-11 36.5t-22 50t-40 54t-59.5 49.5q-60 35 -112 45t-146 10h-92l-6 -18l-492 -1223q-29 -76 18 -123.5t138 -52.5h-271l-100 -84q58 -5 86.5 -29.5t25 -58.5t-33.5 -72q-41 -60 -101 -96.5t-114.5 -43.5t-100 5t-63.5 41
q33 -22 86 -25t117.5 28t109.5 97q20 30 21 54.5t-14 38t-34.5 21t-41.5 9.5l137 111l12 4h-301q70 0 152 43q87 49 125 145l487 1211q-3 15 -88 18h-72q-121 0 -272 -80q-52 -27 -108 -76t-89 -90z" />
    <glyph glyph-name="uni0163" unicode="&#x163;" horiz-adv-x="610" 
d="M666 903h-140l-303 -768q-28 -72 -6 -78q17 -9 80 39q61 50 115 103l53 53q-3 -3 -8.5 -10t-16 -20.5t-20.5 -26.5l-58 -72q-117 -133 -180 -135l-84 -72q58 -5 86.5 -29.5t25 -58.5t-33.5 -72q-40 -60 -100 -96.5t-115.5 -43.5t-101 5t-62.5 41q33 -22 86 -25t118 28
t110 97q22 30 23 54.5t-14.5 38t-35 21t-41.5 9.5l123 101q-62 -5 -86 40.5t4 120.5l305 756h-76l-14 19h96l86 211l181 112l-127 -323h149z" />
    <glyph glyph-name="Tcaron" unicode="&#x164;" horiz-adv-x="1417" 
d="M909 1817l86 -205l308 203l-283 -267h-98zM1532 1434h-1196l-141 -297l30 34q33 41 89 90t108 76q151 80 272 80h72q85 -3 88 -18l-487 -1211q-38 -96 -125 -145q-82 -43 -152 -43h580q-91 5 -138 52.5t-18 123.5l492 1223l6 18h92q94 0 146 -10t112 -45
q33 -21 59.5 -49.5t40 -54t22 -50t11 -36.5t2.5 -15z" />
    <glyph glyph-name="tcaron" unicode="&#x165;" horiz-adv-x="610" 
d="M852 1337q32 -5 51 -31t15 -61q-11 -78 -81 -146.5t-157 -99.5q56 23 113 80q56 56 69 105q-14 -6 -39 -2q-33 5 -51.5 32t-11.5 62q6 32 33 50t59 11zM481 1133l181 112l-127 -323h149l-18 -19h-140l-303 -768q-28 -72 -6 -78q17 -9 80 39q61 50 115 103l53 53l-49 -62
l-62 -73q-35 -40 -57 -62q-66 -66 -131 -69q-62 -5 -86 40.5t4 120.5l305 756h-76l-14 19h96z" />
    <glyph glyph-name="Tbar" unicode="&#x166;" horiz-adv-x="1417" 
d="M774 1591l8 15l404 2l-8 -17h-404zM336 1434h1196l-35 -277q0 3 -2.5 15t-11 36.5t-22 50t-40 54t-59.5 49.5q-60 35 -112 45t-146 10h-92l-6 -18l-492 -1223q-29 -76 18 -123.5t138 -52.5h-580q70 0 152 43q87 49 125 145l487 1211q-3 15 -88 18h-72q-121 0 -272 -80
q-52 -27 -108 -76t-89 -90l-30 -34z" />
    <glyph glyph-name="tbar" unicode="&#x167;" horiz-adv-x="610" 
d="M756 1106l-8 -16h-148l-65 -168h149l-18 -19h-140l-303 -768q-28 -72 -6 -78q17 -9 80 39q61 50 115 103l53 53l-49 -62l-62 -73q-35 -40 -57 -62q-66 -66 -131 -69q-62 -5 -86 40.5t4 120.5l305 756h-76l-14 19h96l70 168h-121l8 14h117l12 29l181 112l-56 -139h150z
" />
    <glyph glyph-name="Umacron" unicode="&#x16a;" 
d="M862 1591l8 15l404 2l-8 -17h-404zM1333 1434h461q-109 0 -188.5 -64.5t-145.5 -228.5l-272 -678q-187 -469 -592 -469q-129 0 -220.5 59.5t-131.5 157.5q-73 190 86 580l198 477q32 67 3 116t-109 50h502q-186 0 -250 -166l-246 -613q-60 -150 -68.5 -271t31.5 -185
q80 -131 234 -146q354 -34 542 424l297 731q96 220 -131 226z" />
    <glyph glyph-name="umacron" unicode="&#x16b;" horiz-adv-x="1079" 
d="M573 1090l9 14l403 2l-8 -16h-404zM356 872q-14 9 -73 -41q-58 -46 -107 -98l-49 -53l57 70q31 40 66 75q54 54 94.5 83.5t75.5 29.5q59 0 70.5 -55t-23.5 -127q-26 -62 -152 -398q-30 -72 -45 -137q-30 -128 43 -149q128 -46 396 280q-61 -88 -111 -153
q-41 -53 -100 -115q-113 -116 -242 -92q-202 34 -70 370q115 303 154 394q40 107 16 116zM1073 922l-305 -783q-30 -77 -10 -86q19 -6 78 41q56 45 112 101l51 51q-132 -163 -200 -215q-62 -47 -107 -47q-53 1 -69.5 50.5t10.5 110.5l309 777h131z" />
    <glyph glyph-name="Uring" unicode="&#x16e;" 
d="M1180 1565q-51 0 -89 38t-38 89q0 55 37.5 93t89.5 38q56 0 94 -38t37 -93q0 -54 -37.5 -90.5t-93.5 -36.5zM1110 1624q31 -31 71.5 -31t71.5 31t31 71.5t-31 71.5t-71.5 31t-71.5 -31q-29 -31 -29 -71.5t29 -71.5zM1333 1434h461q-109 0 -188.5 -64.5t-145.5 -228.5
l-272 -678q-187 -469 -592 -469q-129 0 -220.5 59.5t-131.5 157.5q-73 190 86 580l198 477q32 67 3 116t-109 50h502q-186 0 -250 -166l-246 -613q-60 -150 -68.5 -271t31.5 -185q80 -131 234 -146q354 -34 542 424l297 731q96 220 -131 226z" />
    <glyph glyph-name="uring" unicode="&#x16f;" horiz-adv-x="1079" 
d="M764 1044q-52 0 -89.5 37t-37.5 90q0 56 36.5 94t90.5 38q55 0 93 -38t38 -94q0 -51 -38.5 -89t-92.5 -38zM694 1104q31 -31 72 -31t70 31q31 31 31 71.5t-31 71.5q-29 31 -70 31t-72 -31t-31 -71.5t31 -71.5zM356 872q-14 9 -73 -41q-58 -46 -107 -98l-49 -53l57 70
q31 40 66 75q54 54 94.5 83.5t75.5 29.5q59 0 70.5 -55t-23.5 -127q-26 -62 -152 -398q-30 -72 -45 -137q-30 -128 43 -149q128 -46 396 280q-61 -88 -111 -153q-41 -53 -100 -115q-113 -116 -242 -92q-202 34 -70 370q115 303 154 394q40 107 16 116zM1073 922l-305 -783
q-30 -77 -10 -86q19 -6 78 41q56 45 112 101l51 51q-132 -163 -200 -215q-62 -47 -107 -47q-53 1 -69.5 50.5t10.5 110.5l309 777h131z" />
    <glyph glyph-name="Uhungarumlaut" unicode="&#x170;" 
d="M918 1571l174 237q23 37 51.5 46.5t48.5 -13.5q18 -13 9.5 -41.5t-40.5 -54.5zM1085 1571l175 237q23 37 51.5 46.5t48.5 -13.5q18 -13 9.5 -41.5t-40.5 -54.5zM1794 1434h-461q227 -6 131 -226l-297 -731q-188 -458 -542 -424q-154 15 -234 146q-40 64 -31.5 185
t68.5 271l246 613q64 166 250 166h-502q80 -1 109 -50t-3 -116l-198 -477q-159 -390 -86 -580q40 -98 131.5 -157.5t220.5 -59.5q405 0 592 469l272 678q66 164 145.5 228.5t188.5 64.5z" />
    <glyph glyph-name="uhungarumlaut" unicode="&#x171;" horiz-adv-x="1079" 
d="M559 1081l174 238q24 37 50.5 46.5t50.5 -13.5q18 -13 9.5 -42t-40.5 -55zM774 1081l174 238q23 37 52 46.5t49 -13.5q18 -13 9.5 -42t-40.5 -55zM356 872q24 -9 -16 -116q-39 -91 -154 -394q-132 -336 70 -370q129 -24 242 92q59 62 100 115q50 65 111 153
q-268 -326 -396 -280q-73 21 -43 149q15 65 45 137q126 336 152 398q35 72 23.5 127t-70.5 55q-35 0 -75.5 -29.5t-94.5 -83.5q-35 -35 -66 -75l-57 -70l49 53q49 52 107 98q59 50 73 41zM768 139l305 783h-131l-309 -777q-27 -61 -10.5 -110.5t69.5 -50.5q45 0 107 47
q68 52 200 215l-51 -51q-56 -56 -112 -101q-59 -47 -78 -41q-20 9 10 86z" />
    <glyph glyph-name="Uogonek" unicode="&#x172;" 
d="M1333 1434h461q-109 0 -188.5 -64.5t-145.5 -228.5l-272 -678q-187 -469 -592 -469h-6q-163 -82 -184 -191q-15 -74 43 -114q59 -44 133 -11q-49 -35 -112.5 -37t-111 34.5t-49.5 101.5q-3 135 168 223h41q-201 35 -274 211q-73 190 86 580l198 477q32 67 3 116t-109 50
h502q-186 0 -250 -166l-246 -613q-60 -150 -68.5 -271t31.5 -185q80 -131 234 -146q354 -34 542 424l297 731q96 220 -131 226z" />
    <glyph glyph-name="uogonek" unicode="&#x173;" horiz-adv-x="1079" 
d="M356 -4q-167 -84 -188 -193q-15 -74 43 -114q59 -44 133 -11q-48 -34 -111 -36t-111 34t-50 101q-6 136 155 223q-164 56 -41 362q115 303 154 394q40 107 16 116q-14 9 -73 -41q-58 -46 -107 -98l-49 -53l57 70q31 40 66 75q54 54 94.5 83.5t75.5 29.5q59 0 70.5 -55
t-23.5 -127q-26 -62 -152 -398q-30 -72 -45 -137q-30 -128 43 -149q128 -46 396 280q-69 -102 -117 -166q-41 -52 -109 -114t-127 -76zM758 53q19 -6 78 41q56 45 112 101l51 51q-132 -163 -200 -215q-62 -47 -107 -47q-53 1 -69.5 50.5t10.5 110.5l309 777h131l-305 -783
q-30 -77 -10 -86z" />
    <glyph glyph-name="Wcircumflex" unicode="&#x174;" horiz-adv-x="1849" 
d="M1356 1802l-4 -258l-68 193l-319 -197l292 262h99zM1812 1434h418q-71 -3 -168 -66q-93 -61 -153 -154l-852 -1290l-43 1006l-664 -1006l-57 1354q-1 81 -37 116t-109 40h490q-71 0 -131 -45q-63 -45 -60 -136l27 -768q0 -61 4 -127q7 -87 15 -102q6 -11 14 -10
q26 -9 82 78l424 647l-13 307q-4 82 -38.5 116.5t-106.5 39.5h485q-71 0 -133 -45q-60 -42 -57 -136l37 -854v-9q0 -43 0.5 -63.5t3 -45.5t8.5 -35t16 -10q13 -4 27 10t34.5 45.5t27.5 40.5l585 893q45 67 40 113.5t-37.5 71t-78.5 24.5z" />
    <glyph glyph-name="wcircumflex" unicode="&#x175;" horiz-adv-x="1329" 
d="M602 1036l293 262h98l-4 -258l-67 193zM1282 936q-35 4 -58 -10t-28 -41q-3 -36 10 -58l33 -49q54 -100 2 -241q-42 -113 -151 -248q-114 -141 -213 -207q34 273 -43 518q62 128 69 199q6 65 -14.5 100t-69.5 29q-158 -21 -143 -205q2 -30 20 -100q3 -13 19.5 -64
t21.5 -74q-125 -232 -344 -389q22 147 31 377q4 239 -48 355t-159 108q-49 -3 -78 -37q-37 -37 -55 -154q25 71 51.5 96.5t65.5 14.5q51 -9 75 -98q25 -92 19 -309q-6 -247 -45 -474l45 29q33 19 121 90q89 75 143 129q104 111 162 205l20 41q33 -151 21 -297
q-3 -51 -12 -104q-4 -30 -8.5 -50.5t-7.5 -31t-3 -11.5q94 34 225 150q134 119 222 262q94 151 136 279.5t31 197.5t-63 72zM874 805q0 -22 -3.5 -46.5t-9.5 -48t-11 -40t-11.5 -35.5t-7.5 -21l-4 -4l-36 135q-15 118 14 150q13 10 24 10q42 -3 45 -100z" />
    <glyph glyph-name="Ycircumflex" unicode="&#x176;" horiz-adv-x="1124" 
d="M690 1540l293 262h98l-4 -258l-67 193zM1407 1434h-389q83 0 110 -62q30 -59 -47 -162l-331 -387q-35 -44 -70 -41q-21 3 -33 49l-100 445q-14 65 13 108t93 50h-434q60 0 114 -41t73 -117l106 -471q21 -91 -10 -166l-183 -467q-36 -83 -108 -127q-74 -45 -131 -45h514
q-74 6 -114.5 52t-12.5 116l186 463q38 95 88 155l355 412q191 221 311 236z" />
    <glyph glyph-name="ycircumflex" unicode="&#x177;" horiz-adv-x="884" 
d="M805 1298l-4 -258l-68 193l-319 -197l293 262h98zM827 940q76 -5 77 -101q1 -130 -123 -341q-33 -55 -72 -111q-128 -184 -291 -362q-159 -177 -336 -312q-141 -106 -238 -121q-112 -12 -147 19q-27 24 -13.5 64.5t56.5 52.5q6 0 27 2t28 -2q29 -9 78 -33
q49 -19 120.5 2.5t141.5 81.5l58 49q58 50 161 156q0 28 2 67q2 41 2 121q4 145 -10 311q-24 208 -52.5 289.5t-84.5 87.5q-78 6 -121 -100q41 164 141 176q114 12 169.5 -92t76.5 -348q20 -242 8 -367q122 140 181 223q96 135 120 199q30 74 31 136.5t-26 96.5
q-4 5 -14.5 19t-14 20t-9.5 16.5t-8 20.5t-2 21q2 27 25 46t59 13z" />
    <glyph glyph-name="Ydieresis" unicode="&#x178;" horiz-adv-x="1124" 
d="M709 1634q-33 0 -56.5 23.5t-23.5 58.5q0 32 24 55t56 23q35 0 58.5 -22.5t23.5 -55.5q0 -35 -23.5 -58.5t-58.5 -23.5zM1114 1634q-33 0 -56.5 23.5t-23.5 58.5q0 32 24 55t56 23q35 0 58.5 -22.5t23.5 -55.5q0 -35 -23.5 -58.5t-58.5 -23.5zM1018 1434h389
q-120 -15 -311 -236l-355 -412q-50 -60 -88 -155l-186 -463q-28 -70 12.5 -116t114.5 -52h-514q57 0 131 45q72 44 108 127l183 467q31 75 10 166l-106 471q-19 76 -73 117t-114 41h434q-66 -7 -93 -50t-13 -108l100 -445q12 -46 33 -49q35 -3 70 41l331 387q77 103 47 162
q-27 62 -110 62z" />
    <glyph glyph-name="Zacute" unicode="&#x179;" horiz-adv-x="1292" 
d="M965 1554l172 238q25 37 52 46.5t48 -13.5q20 -13 11.5 -42t-42.5 -54zM375 18q-42 2 -67.5 7.5t-43.5 19t-7.5 41.5t50.5 70l1190 1278h-969l-151 -328q78 122 250 215q181 96 401 96h174q99 0 27 -78l-1254 -1339h1090l154 342q-76 -112 -263 -217q-204 -107 -413 -107
h-168z" />
    <glyph glyph-name="zacute" unicode="&#x17a;" horiz-adv-x="784" 
d="M518 1049l174 237q23 37 52 46.5t49 -13.5q18 -13 9.5 -41.5t-40.5 -54.5zM195 774l26 41q27 47 82.5 87t108.5 40q59 -3 116 -35q65 -30 107 -30q57 0 127 18q75 21 84 37q-24 -65 -129 -203q-102 -139 -250 -250l-135 -98l-119 -86q-92 -66 -143 -129l16 8
q59 26 115 23q73 -6 153 -56q84 -47 140 -53q141 -15 211 76l-25 -45q-21 -47 -80 -94q-55 -46 -119 -43q-86 0 -182 51q-93 52 -164 55q-121 6 -207 -68l23 33q24 37 69.5 91.5t90.5 93.5q55 47 227 168q186 131 258 206q100 100 145 185l-24 -11q-61 -26 -162 -12
q-45 9 -104 39q-60 32 -84 35q-107 15 -172 -74z" />
    <glyph glyph-name="Zdotaccent" unicode="&#x17b;" horiz-adv-x="1292" 
d="M922 1690q18 0 18 -17q0 -18 -18 -18q-17 0 -17 18q0 17 17 17zM375 18h168q209 0 413 107q187 105 263 217l-154 -342h-1090l1254 1339q72 78 -27 78h-174q-220 0 -401 -96q-172 -93 -250 -215l151 328h969l-1190 -1278q-40 -42 -50.5 -70t7.5 -41.5t43.5 -19t67.5 -7.5
z" />
    <glyph glyph-name="zdotaccent" unicode="&#x17c;" horiz-adv-x="784" 
d="M600 1257q35 0 58.5 -24t23.5 -57q0 -32 -25 -56t-57 -24q-48 -3 -68 38.5t0 83t68 39.5zM195 774l26 41q27 47 82.5 87t108.5 40q59 -3 116 -35q65 -30 107 -30q57 0 127 18q75 21 84 37q-24 -65 -129 -203q-102 -139 -250 -250l-135 -98l-119 -86q-92 -66 -143 -129
l16 8q59 26 115 23q73 -6 153 -56q84 -47 140 -53q141 -15 211 76l-25 -45q-21 -47 -80 -94q-55 -46 -119 -43q-86 0 -182 51q-93 52 -164 55q-121 6 -207 -68l23 33q24 37 69.5 91.5t90.5 93.5q55 47 227 168q186 131 258 206q100 100 145 185l-24 -11q-61 -26 -162 -12
q-45 9 -104 39q-60 32 -84 35q-107 15 -172 -74z" />
    <glyph glyph-name="Zcaron" unicode="&#x17d;" horiz-adv-x="1292" 
d="M973 1817l86 -205l307 203l-283 -267h-98zM375 18q-42 2 -67.5 7.5t-43.5 19t-7.5 41.5t50.5 70l1190 1278h-969l-151 -328q78 122 250 215q181 96 401 96h174q99 0 27 -78l-1254 -1339h1090l154 342q-76 -112 -263 -217q-204 -107 -413 -107h-168z" />
    <glyph glyph-name="zcaron" unicode="&#x17e;" horiz-adv-x="784" 
d="M522 1325l86 -205l307 203l-282 -266h-98zM195 774l26 41q27 47 82.5 87t108.5 40q59 -3 116 -35q65 -30 107 -30q57 0 127 18q75 21 84 37q-24 -65 -129 -203q-102 -139 -250 -250l-135 -98l-119 -86q-92 -66 -143 -129l16 8q59 26 115 23q73 -6 153 -56q84 -47 140 -53
q141 -15 211 76l-25 -45q-21 -47 -80 -94q-55 -46 -119 -43q-86 0 -182 51q-93 52 -164 55q-121 6 -207 -68l23 33q24 37 69.5 91.5t90.5 93.5q55 47 227 168q186 131 258 206q100 100 145 185l-24 -11q-61 -26 -162 -12q-45 9 -104 39q-60 32 -84 35q-107 15 -172 -74z" />
    <glyph glyph-name="Scommaaccent" unicode="&#x218;" horiz-adv-x="1128" 
d="M1149 1380q58 -32 76 -57l8 -10l-84 -191q-10 103 -59 183q-52 88 -168 118q-174 40 -279 -51q-103 -90 -88 -256q5 -52 35 -110q28 -49 55 -76l115 -111q143 -137 188 -201q125 -180 64 -348q-54 -142 -176 -213q-126 -72 -256 -75q-284 -9 -476 168q-43 38 -69 79
l-8 15l110 243q-3 -114 68 -241q64 -111 173 -177.5t245 -66.5q152 3 219 119q71 118 37 252q-16 67 -66 135q-49 74 -86 110q-35 38 -106 103q-141 133 -186.5 236t-8.5 227q82 257 432 266q161 3 291 -70zM526 -88q33 -5 52.5 -31t13.5 -61q-11 -78 -80 -146.5t-156 -99.5
q56 27 111 82q58 55 70 102q-14 -6 -39 -2q-32 5 -51 32t-13 62q6 33 33 51t59 11z" />
    <glyph glyph-name="scommaaccent" unicode="&#x219;" horiz-adv-x="829" 
d="M811 791q2 -34 -16.5 -62t-49.5 -29q-30 0 -49.5 18.5t-17.5 43.5q0 12 14.5 41t14.5 41q0 44 -40 73.5t-106 28.5q-69 -3 -117 -63q-44 -55 -38 -121q3 -48 24 -94l19 -39l30 -49l31 -52l41 -67q36 -55 43 -70q43 -79 43 -145q3 -134 -100 -205q-100 -69 -250 -66
q-114 1 -180.5 63t-71.5 161q-6 63 25.5 107t82.5 46q35 0 54.5 -23t11.5 -53q-9 -34 -41 -45q-33 -13 -41 -38q-35 -65 10 -134q42 -66 133 -75q104 -9 172 59t62 160q-3 79 -109 250q-77 129 -90 159q-20 47 -20 107q0 98 77.5 163.5t196.5 71.5q102 3 172 -41
q77 -47 80 -122zM238 -88q32 -5 50.5 -31t14.5 -61q-15 -82 -86 -150q-72 -69 -151 -96q56 23 112 82q56 56 68 102q-13 -5 -37 -2q-35 4 -53.5 31.5t-10.5 62.5q4 32 32.5 51t60.5 11z" />
    <glyph glyph-name="uni021A" unicode="&#x21a;" horiz-adv-x="1417" 
d="M195 1137l141 297h1196l-35 -277q0 3 -2.5 15t-11 36.5t-22 50t-40 54t-59.5 49.5q-60 35 -112 45t-146 10h-92l-6 -18l-492 -1223q-29 -76 18 -123.5t138 -52.5h-580q70 0 152 43q87 49 125 145l487 1211q-3 15 -88 18h-72q-121 0 -272 -80q-52 -27 -108 -76t-89 -90z
M322 -88q32 -5 50.5 -31t14.5 -61q-15 -82 -86 -150q-72 -69 -151 -96q56 23 112 82q56 56 68 102q-13 -5 -37 -2q-35 4 -53.5 31.5t-10.5 62.5q4 32 32.5 51t60.5 11z" />
    <glyph glyph-name="uni021B" unicode="&#x21b;" horiz-adv-x="610" 
d="M666 903h-140l-303 -768q-28 -72 -6 -78q17 -9 80 39q61 50 115 103l53 53l-49 -62l-62 -73q-35 -40 -57 -62q-66 -66 -131 -69q-62 -5 -86 40.5t4 120.5l305 756h-76l-14 19h96l86 211l181 112l-127 -323h149zM55 -88q32 -5 51 -31t15 -61q-15 -82 -86 -150
q-72 -69 -152 -96q58 24 113 82q55 55 70 102q-14 -6 -39 -2q-35 4 -53.5 31.5t-10.5 62.5q6 33 33 51t59 11z" />
    <glyph glyph-name="circumflex" unicode="&#x2c6;" horiz-adv-x="1228" 
d="M311 1036l293 262h98l-4 -258l-67 193z" />
    <glyph glyph-name="caron" unicode="&#x2c7;" horiz-adv-x="1228" 
d="M395 1325l86 -205l307 203l-282 -266h-98z" />
    <glyph glyph-name="breve" unicode="&#x2d8;" horiz-adv-x="1228" 
d="M424 1266q-24 -125 125 -125t256 125q-42 -77 -123.5 -132t-161.5 -55q-86 0 -112.5 51t16.5 136z" />
    <glyph glyph-name="dotaccent" unicode="&#x2d9;" horiz-adv-x="1228" 
d="M428 1147q18 0 18 -17q0 -18 -18 -18q-16 0 -16 18q0 17 16 17z" />
    <glyph glyph-name="ring" unicode="&#x2da;" horiz-adv-x="1228" 
d="M432 1044q-52 0 -89.5 37t-37.5 90q0 56 36.5 94t90.5 38q55 0 93 -38t38 -94q0 -51 -38.5 -89t-92.5 -38zM362 1104q31 -31 72 -31t70 31q31 31 31 71.5t-31 71.5q-29 31 -70 31t-72 -31t-31 -71.5t31 -71.5z" />
    <glyph glyph-name="ogonek" unicode="&#x2db;" horiz-adv-x="1228" 
d="M-2 0h125q-176 -89 -197 -197q-15 -74 43 -114q59 -44 133 -11q-49 -35 -112 -37t-110.5 34.5t-49.5 101.5q-3 135 168 223z" />
    <glyph glyph-name="tilde" unicode="&#x2dc;" horiz-adv-x="1228" 
d="M311 1075q44 82 110.5 126t129.5 32q44 -10 70 -55q32 -49 65 -52q47 -4 95 25t79 80q-33 -76 -97.5 -124t-123.5 -38q-45 9 -80 59q-34 52 -76 58q-34 2 -81 -26t-91 -85z" />
    <glyph glyph-name="hungarumlaut" unicode="&#x2dd;" horiz-adv-x="1228" 
d="M313 1040l174 238q23 37 52 46.5t49 -13.5q18 -13 9.5 -42t-40.5 -55zM481 1040l174 238q23 37 52 46.5t49 -13.5q18 -13 9.5 -42t-40.5 -55z" />
    <glyph glyph-name="Wgrave" unicode="&#x1e80;" horiz-adv-x="1849" 
d="M1087 1778l60 -285l-148 258q-18 42 -13 68t26 32q29 12 49.5 -8.5t25.5 -64.5zM1812 1434h418q-71 -3 -168 -66q-93 -61 -153 -154l-852 -1290l-43 1006l-664 -1006l-57 1354q-1 81 -37 116t-109 40h490q-71 0 -131 -45q-63 -45 -60 -136l27 -768q0 -61 4 -127
q7 -87 15 -102q6 -11 14 -10q26 -9 82 78l424 647l-13 307q-4 82 -38.5 116.5t-106.5 39.5h485q-71 0 -133 -45q-60 -42 -57 -136l37 -854v-9q0 -43 0.5 -63.5t3 -45.5t8.5 -35t16 -10q13 -4 27 10t34.5 45.5t27.5 40.5l585 893q45 67 40 113.5t-37.5 71t-78.5 24.5z" />
    <glyph glyph-name="wgrave" unicode="&#x1e81;" horiz-adv-x="1329" 
d="M707 1298l59 -284l-148 258q-18 41 -14.5 67.5t27.5 32.5q26 12 48 -9t28 -65zM1282 936q52 -3 63 -72t-31 -197.5t-136 -279.5q-88 -143 -222 -262q-131 -116 -225 -150q0 1 3 11.5t7.5 31t8.5 50.5q9 53 12 104q12 146 -21 297l-20 -41q-58 -94 -162 -205
q-54 -54 -143 -129q-88 -71 -121 -90l-45 -29q39 227 45 474q6 217 -19 309q-24 89 -75 98q-39 11 -65.5 -14.5t-51.5 -96.5q18 117 55 154q29 34 78 37q107 8 159 -108t48 -355q-9 -230 -31 -377q219 157 344 389q-5 23 -21.5 74t-19.5 64q-18 70 -20 100q-15 184 143 205
q49 6 69.5 -29t14.5 -100q-7 -71 -69 -199q77 -245 43 -518q99 66 213 207q109 135 151 248q52 141 -2 241l-33 49q-13 22 -10 58q5 27 28 41t58 10zM874 805q-3 97 -45 100q-11 0 -24 -10q-29 -32 -14 -150l36 -135l4 4q1 2 7.5 21t11.5 35.5t11 40t9.5 48t3.5 46.5z" />
    <glyph glyph-name="Wacute" unicode="&#x1e82;" horiz-adv-x="1849" 
d="M1368 1825q20 -13 11.5 -42t-42.5 -54l-241 -175l172 238q25 37 52 46.5t48 -13.5zM1812 1434h418q-71 -3 -168 -66q-93 -61 -153 -154l-852 -1290l-43 1006l-664 -1006l-57 1354q-1 81 -37 116t-109 40h490q-71 0 -131 -45q-63 -45 -60 -136l27 -768q0 -61 4 -127
q7 -87 15 -102q6 -11 14 -10q26 -9 82 78l424 647l-13 307q-4 82 -38.5 116.5t-106.5 39.5h485q-71 0 -133 -45q-60 -42 -57 -136l37 -854v-9q0 -43 0.5 -63.5t3 -45.5t8.5 -35t16 -10q13 -4 27 10t34.5 45.5t27.5 40.5l585 893q45 67 40 113.5t-37.5 71t-78.5 24.5z" />
    <glyph glyph-name="wacute" unicode="&#x1e83;" horiz-adv-x="1329" 
d="M780 1049l174 237q23 37 52 46.5t49 -13.5q18 -13 9.5 -41.5t-40.5 -54.5zM1282 936q-35 4 -58 -10t-28 -41q-3 -36 10 -58l33 -49q54 -100 2 -241q-42 -113 -151 -248q-114 -141 -213 -207q34 273 -43 518q62 128 69 199q6 65 -14.5 100t-69.5 29q-158 -21 -143 -205
q2 -30 20 -100q3 -13 19.5 -64t21.5 -74q-125 -232 -344 -389q22 147 31 377q4 239 -48 355t-159 108q-49 -3 -78 -37q-37 -37 -55 -154q25 71 51.5 96.5t65.5 14.5q51 -9 75 -98q25 -92 19 -309q-6 -247 -45 -474l45 29q33 19 121 90q89 75 143 129q104 111 162 205l20 41
q33 -151 21 -297q-3 -51 -12 -104q-4 -30 -8.5 -50.5t-7.5 -31t-3 -11.5q94 34 225 150q134 119 222 262q94 151 136 279.5t31 197.5t-63 72zM874 805q0 -22 -3.5 -46.5t-9.5 -48t-11 -40t-11.5 -35.5t-7.5 -21l-4 -4l-36 135q-15 118 14 150q13 10 24 10q42 -3 45 -100z
" />
    <glyph glyph-name="Wdieresis" unicode="&#x1e84;" horiz-adv-x="1849" 
d="M864 1716q-4 47 39 66.5t86 0t39 -66.5q4 -50 -39 -70.5t-86 0t-39 70.5zM1270 1716q-4 47 39 66.5t86 0t39 -66.5q4 -50 -39 -70.5t-86 0t-39 70.5zM1812 1434h418q-71 -3 -168 -66q-93 -61 -153 -154l-852 -1290l-43 1006l-664 -1006l-57 1354q-1 81 -37 116t-109 40
h490q-71 0 -131 -45q-63 -45 -60 -136l27 -768q0 -61 4 -127q7 -87 15 -102q6 -11 14 -10q26 -9 82 78l424 647l-13 307q-4 82 -38.5 116.5t-106.5 39.5h485q-71 0 -133 -45q-60 -42 -57 -136l37 -854v-9q0 -43 0.5 -63.5t3 -45.5t8.5 -35t16 -10q13 -4 27 10t34.5 45.5
t27.5 40.5l585 893q45 67 40 113.5t-37.5 71t-78.5 24.5z" />
    <glyph glyph-name="wdieresis" unicode="&#x1e85;" horiz-adv-x="1329" 
d="M569 1098q-33 0 -56.5 23.5t-23.5 58.5q0 32 23.5 54.5t56.5 22.5q35 0 58.5 -22.5t23.5 -54.5q0 -35 -23.5 -58.5t-58.5 -23.5zM975 1098q-33 0 -56.5 23.5t-23.5 58.5q0 32 23.5 54.5t56.5 22.5q35 0 58.5 -22.5t23.5 -54.5q0 -35 -23.5 -58.5t-58.5 -23.5zM1282 936
q52 -3 63 -72t-31 -197.5t-136 -279.5q-88 -143 -222 -262q-131 -116 -225 -150q0 1 3 11.5t7.5 31t8.5 50.5q9 53 12 104q12 146 -21 297l-20 -41q-58 -94 -162 -205q-54 -54 -143 -129q-88 -71 -121 -90l-45 -29q39 227 45 474q6 217 -19 309q-24 89 -75 98
q-39 11 -65.5 -14.5t-51.5 -96.5q18 117 55 154q29 34 78 37q107 8 159 -108t48 -355q-9 -230 -31 -377q219 157 344 389q-5 23 -21.5 74t-19.5 64q-18 70 -20 100q-15 184 143 205q49 6 69.5 -29t14.5 -100q-7 -71 -69 -199q77 -245 43 -518q99 66 213 207q109 135 151 248
q52 141 -2 241l-33 49q-13 22 -10 58q5 27 28 41t58 10zM874 805q-3 97 -45 100q-11 0 -24 -10q-29 -32 -14 -150l36 -135l4 4q1 2 7.5 21t11.5 35.5t11 40t9.5 48t3.5 46.5z" />
    <glyph glyph-name="uni1EA0" unicode="&#x1ea0;" horiz-adv-x="1202" 
d="M1130 2h-489q71 0 131 45q62 47 59 135l-12 404h-479l-246 -377q-43 -68 -35.5 -114t41.5 -69.5t82 -23.5h-426q73 3 168 68q96 66 154 153l852 1293l55 -1356q1 -82 37 -117.5t108 -40.5zM723 1169l-371 -565h467l-12 440q-3 161 -14 168q-30 15 -70 -43zM266 -240
q0 35 24.5 58.5t57.5 23.5q32 0 56 -25t24 -57q3 -48 -38.5 -68t-83.5 0t-40 68z" />
    <glyph glyph-name="uni1EA1" unicode="&#x1ea1;" horiz-adv-x="1007" 
d="M696 61q27 -9 92 41q69 56 117 107l49 53l-65 -78l-84 -96q-22 -22 -78 -61q-47 -33 -88 -33q-69 0 -85 57.5t26 149.5l198 467q89 239 -26 266q-82 21 -193 -68q-113 -90 -207 -239q-76 -110 -120.5 -231.5t-37.5 -211.5t74 -102q50 -10 104.5 7.5t96.5 55.5
q72 62 117 125q-38 -70 -109 -161q-49 -59 -114.5 -92.5t-135.5 -32.5q-103 0 -141.5 91t-7 227.5t120.5 266.5q129 198 273 291.5t269 87.5q103 -3 138 -84l57 27l86 49l-309 -743q-53 -127 -17 -136zM231 -158q34 0 57 -25t22.5 -55.5t-23.5 -56.5q-35 -38 -86 -17.5
t-51 72.5q0 35 23 58.5t58 23.5z" />
    <glyph glyph-name="uni1EB8" unicode="&#x1eb8;" 
d="M877 1409h-117l-260 -645h155q184 0 265 67q40 33 59 56.5t51 75.5l-188 -488q7 33 7.5 65.5t-9 70t-31.5 65.5t-66.5 46.5t-107.5 18.5h-143l-242 -600q-20 -54 -3.5 -85t64.5 -31h189q268 0 489 96q198 91 301 221l-186 -342h-1272q81 0 160 43t106 102l471 1166
q17 50 -22 84t-115 39h965l37 -301l-25 45q-10 17 -66 84q-53 62 -100 84q-86 42 -162 51q-77 12 -204 12zM389 -240q0 35 24.5 58.5t57.5 23.5q32 0 56 -25t24 -57q3 -48 -38.5 -68t-83.5 0t-40 68z" />
    <glyph glyph-name="uni1EB9" unicode="&#x1eb9;" horiz-adv-x="876" 
d="M719 952q53 -3 93.5 -34.5t56.5 -77t-1.5 -104.5t-72.5 -111q-78 -78 -238 -113q-149 -33 -276 -33q320 24 452 223q32 47 45.5 100t-0.5 93.5t-57 46.5q-95 15 -201 -82q-100 -90 -192 -246q-50 -85 -88 -211q-31 -117 -13 -217q21 -104 109 -125q58 -14 119 2
t110.5 53.5t82 69.5t57.5 64l18 29q-26 -51 -70 -111q-49 -64 -84 -94q-49 -45 -120.5 -75t-141.5 -26q-80 2 -133 52.5t-71 131t2 190.5t79 224q60 116 134.5 199t148.5 121q140 73 252 61zM119 -240q-2 50 40 70.5t83.5 0t38.5 -70.5q3 -48 -38.5 -68t-83.5 0t-40 68z" />
    <glyph glyph-name="uni1ECA" unicode="&#x1eca;" horiz-adv-x="677" 
d="M459 1434h536q-197 0 -252 -129l-475 -1178q-24 -59 17.5 -90.5t128.5 -36.5h-568q88 3 168 41q87 41 121 129l449 1116q26 63 -7.5 103.5t-117.5 44.5zM-37 -240q0 35 24.5 58.5t57.5 23.5q32 0 56 -25t24 -57q3 -48 -38.5 -68t-83.5 0t-40 68z" />
    <glyph glyph-name="uni1ECB" unicode="&#x1ecb;" horiz-adv-x="628" 
d="M627 1118q-25 -25 -60 -25t-61 25q-25 26 -25 61t25 60q36 40 83 23.5t59 -60.5t-21 -84zM106 141l263 639q31 72 10 78q-14 8 -80 -39q-71 -51 -119 -94l-53 -51q89 102 176 178q95 83 158 86q56 1 70.5 -46.5t-17.5 -113.5l-266 -649q-27 -59 -6 -68q14 -8 80 39
q64 46 120 99l56 51q-227 -266 -346 -266q-111 0 -46 157zM-23 -240q0 35 23.5 58.5t58.5 23.5q34 0 57 -25t22.5 -55.5t-23.5 -56.5q-35 -38 -86.5 -17.5t-51.5 72.5z" />
    <glyph glyph-name="Ygrave" unicode="&#x1ef2;" horiz-adv-x="1124" 
d="M829 1778l60 -285l-148 258q-18 41 -14.5 67.5t27.5 32.5q26 12 47.5 -8.5t27.5 -64.5zM1018 1434h389q-120 -15 -311 -236l-355 -412q-50 -60 -88 -155l-186 -463q-28 -70 12.5 -116t114.5 -52h-514q57 0 131 45q72 44 108 127l183 467q31 75 10 166l-106 471
q-19 76 -73 117t-114 41h434q-66 -7 -93 -50t-13 -108l100 -445q12 -46 33 -49q35 -3 70 41l331 387q77 103 47 162q-27 62 -110 62z" />
    <glyph glyph-name="ygrave" unicode="&#x1ef3;" horiz-adv-x="884" 
d="M451 1298l59 -284l-148 258q-18 41 -14.5 67.5t27.5 32.5q29 12 50 -9t26 -65zM827 940q76 -5 77 -101q1 -130 -123 -341q-33 -55 -72 -111q-128 -184 -291 -362q-159 -177 -336 -312q-141 -106 -238 -121q-112 -12 -147 19q-27 24 -13.5 64.5t56.5 52.5q6 0 27 2t28 -2
q29 -9 78 -33q49 -19 120.5 2.5t141.5 81.5l58 49q58 50 161 156q0 28 2 67q2 41 2 121q4 145 -10 311q-24 208 -52.5 289.5t-84.5 87.5q-78 6 -121 -100q41 164 141 176q114 12 169.5 -92t76.5 -348q20 -242 8 -367q122 140 181 223q96 135 120 199q30 74 31 136.5
t-26 96.5q-4 5 -14.5 19t-14 20t-9.5 16.5t-8 20.5t-2 21q2 27 25 46t59 13z" />
    <glyph glyph-name="uni1EF4" unicode="&#x1ef4;" horiz-adv-x="1124" 
d="M1018 1434h389q-120 -15 -311 -236l-355 -412q-50 -60 -88 -155l-186 -463q-28 -70 12.5 -116t114.5 -52h-514q57 0 131 45q72 44 108 127l183 467q31 75 10 166l-106 471q-19 76 -73 117t-114 41h434q-66 -7 -93 -50t-13 -108l100 -445q12 -46 33 -49q35 -3 70 41
l331 387q77 103 47 162q-27 62 -110 62zM147 -240q0 35 24.5 58.5t57.5 23.5q32 0 56 -25t24 -57q3 -48 -38.5 -68t-83.5 0t-40 68z" />
    <glyph glyph-name="uni1EF5" unicode="&#x1ef5;" horiz-adv-x="884" 
d="M827 940q76 -5 77 -101q1 -130 -123 -341q-33 -55 -72 -111q-128 -184 -291 -362q-159 -177 -336 -312q-141 -106 -238 -121q-112 -12 -147 19q-27 24 -13.5 64.5t56.5 52.5q6 0 27 2t28 -2q29 -9 78 -33q49 -19 120.5 2.5t141.5 81.5l58 49q58 50 161 156q0 28 2 67
q2 41 2 121q4 145 -10 311q-24 208 -52.5 289.5t-84.5 87.5q-78 6 -121 -100q41 164 141 176q114 12 169.5 -92t76.5 -348q20 -242 8 -367q122 140 181 223q96 135 120 199q30 74 31 136.5t-26 96.5q-4 5 -14.5 19t-14 20t-9.5 16.5t-8 20.5t-2 21q2 27 25 46t59 13z
M240 -487q-35 0 -58.5 24t-23.5 57q0 32 25 56t57 24q48 3 68 -38.5t0 -83t-68 -39.5z" />
    <glyph glyph-name="uni1EF9" unicode="&#x1ef9;" horiz-adv-x="909" 
d="M391 1212q-43 0 -81 -30.5t-50 -96.5q0 88 56 139t133 46q48 -6 114 -68q64 -61 105 -61q58 0 95 34t38 91q9 -69 -37 -127q-45 -60 -117 -60q-61 -3 -133 66q-67 67 -123 67zM680 922h297q-63 -15 -111 -72q-34 -43 -59 -100l-318 -781l-127 -309q-25 -61 -56.5 -81.5
t-80.5 -14.5q-35 6 -53 34.5t-10 61.5q15 56 78 53q14 -1 39.5 -21t31.5 -20q38 -3 68 64l102 246l-368 837q-24 42 -59.5 69.5t-61.5 29.5l-25 4h357q0 1 -10.5 -1t-24.5 -8t-26.5 -17.5t-16.5 -30t4 -46.5l227 -530q34 -70 66 -70q9 0 17.5 5.5t16 17t13 21t13 26.5
t11.5 24l170 422l9 25q52 138 -113 162z" />
    <glyph glyph-name="endash" unicode="&#x2013;" horiz-adv-x="1210" 
d="M135 537v20h977v-20h-977z" />
    <glyph glyph-name="emdash" unicode="&#x2014;" horiz-adv-x="1480" 
d="M143 537v20h1239v-20h-1239z" />
    <glyph glyph-name="quoteleft" unicode="&#x2018;" horiz-adv-x="210" 
d="M281 1262q35 -4 53 -31.5t10 -63.5q-4 -32 -32 -50.5t-60 -10.5q-32 5 -51 31t-15 61q15 82 86 150q72 69 152 96q-58 -24 -113 -82q-55 -55 -67 -102q13 5 37 2z" />
    <glyph glyph-name="quoteright" unicode="&#x2019;" horiz-adv-x="200" 
d="M313 1337q32 -5 51 -31t15 -61q-11 -78 -81 -146.5t-157 -99.5q56 23 113 80q58 58 70 105q-14 -6 -39 -2q-33 5 -52 32t-12 62q6 32 33 50t59 11z" />
    <glyph glyph-name="quotesinglbase" unicode="&#x201a;" horiz-adv-x="190" 
d="M37 150q32 -4 51.5 -32.5t13.5 -60.5q-11 -78 -80.5 -146t-156.5 -99q56 23 115 82q55 55 67 102q-14 -6 -39 -2q-32 5 -50.5 32t-12.5 62q6 33 33 51t59 11z" />
    <glyph glyph-name="quotedblleft" unicode="&#x201c;" horiz-adv-x="413" 
d="M416 1262q32 -5 50.5 -32.5t12.5 -62.5q-6 -32 -33 -50t-59 -11q-19 3 -31 12q-30 -21 -61 -12q-33 5 -52.5 31t-13.5 61q11 78 80 146.5t156 99.5q-55 -27 -113 -82q-55 -55 -67 -102q14 6 39 2q1 0 16 -5q28 61 89.5 112t129.5 75q-56 -23 -115 -82q-55 -55 -67 -102
q14 6 39 2z" />
    <glyph glyph-name="quotedblright" unicode="&#x201d;" horiz-adv-x="382" 
d="M301 1337q32 -5 51 -31t15 -61q-15 -81 -86 -149q-73 -70 -152 -97q56 23 113 80q55 58 67 105q-13 -5 -37 -2q-35 4 -53 31t-10 63q4 32 32 50.5t60 10.5zM500 1337q32 -5 50.5 -31t14.5 -61q-15 -81 -86 -149q-74 -71 -151 -97q54 22 112 80q56 59 68 105
q-13 -5 -37 -2q-35 4 -53 31t-10 63q4 32 32 50.5t60 10.5z" />
    <glyph glyph-name="quotedblbase" unicode="&#x201e;" horiz-adv-x="395" 
d="M25 150q32 -4 51.5 -32.5t13.5 -60.5q-11 -78 -80.5 -146t-156.5 -99q54 22 114 82q56 56 68 102q-14 -6 -39 -2q-32 5 -51 32t-13 62q6 32 33.5 50.5t59.5 11.5zM223 150q32 -4 52 -32.5t14 -60.5q-11 -78 -81 -146t-157 -99q58 24 113 82q57 54 69 102q-14 -5 -38 -2
q-32 5 -51 32t-13 62q6 33 33 51t59 11z" />
    <glyph glyph-name="dagger" unicode="&#x2020;" horiz-adv-x="798" 
d="M522 1186h340l-6 -15h-340l-518 -1286h-16l518 1286h-344l6 15h344l188 467h17z" />
    <glyph glyph-name="daggerdbl" unicode="&#x2021;" horiz-adv-x="946" 
d="M977 1186l-6 -15h-344l-299 -743h344l-8 -14h-342l-213 -529h-17l213 529h-342l8 14h340l299 743h-340l6 15h340l189 467h16l-188 -467h344z" />
    <glyph glyph-name="bullet" unicode="&#x2022;" horiz-adv-x="499" 
d="M336 557q-15 -15 -33 -20.5t-34.5 -1.5t-31.5 13.5t-24.5 24.5t-13.5 31.5t1.5 34.5t20.5 33q33 38 78.5 21.5t57.5 -58t-21 -78.5z" />
    <glyph glyph-name="ellipsis" unicode="&#x2026;" horiz-adv-x="919" 
d="M170 156q35 0 58.5 -24.5t23.5 -57.5q0 -32 -25 -56t-57 -24q-48 -3 -68 38.5t0 83.5t68 40zM485 16q-25 -23 -57 -23t-57 23q-25 25 -25 57.5t23 57.5q25 25 59 25t57 -25q25 -25 25 -57.5t-25 -57.5zM678 156q35 0 58.5 -24.5t23.5 -57.5q0 -32 -25 -56t-57 -24
q-48 -3 -68 38.5t0 83.5t68 40z" />
    <glyph glyph-name="perthousand" unicode="&#x2030;" horiz-adv-x="1761" 
d="M582 1415q100 34 157.5 -12.5t57.5 -142.5q-3 -160 -113 -291q-109 -128 -233 -113q-48 4 -77.5 33.5t-38.5 72t-5.5 90t18.5 93.5q36 109 99.5 176.5t134.5 93.5zM-74 0h39l1516 1436h-35zM592 1405q-99 -43 -166 -268q-25 -100 -23 -179q2 -46 26 -72t67 -22
q79 9 143 140t76 258q11 97 -27 134t-96 9zM844 561q99 34 157 -13t58 -142q-3 -160 -113 -291q-109 -128 -233 -113q-49 4 -79.5 33t-39.5 72.5t-5 90.5t19 93q35 108 100 176t136 94zM1421 561q99 34 157 -13t58 -142q-3 -161 -112 -291q-110 -128 -234 -113
q-49 4 -79.5 33t-39 72.5t-4.5 90.5t19 93q35 108 99.5 176t135.5 94zM852 551q-46 -23 -91 -97t-75 -171q-23 -90 -20 -177q2 -48 26 -74t66 -22q79 9 143 140t76 258q11 97 -28 134t-97 9zM1430 551q-46 -23 -91 -97t-75 -171q-24 -93 -21 -177q2 -48 26 -74t66 -22
q80 9 144 140q63 128 75 258q11 97 -27.5 134t-96.5 9z" />
    <glyph glyph-name="guilsinglleft" unicode="&#x2039;" horiz-adv-x="460" 
d="M293 279l-178 290l358 310l-291 -318z" />
    <glyph glyph-name="guilsinglright" unicode="&#x203a;" horiz-adv-x="514" 
d="M240 854l178 -291l-359 -309l289 317z" />
    <glyph glyph-name="Euro" unicode="&#x20ac;" horiz-adv-x="1263" 
d="M913 1395q73 34 150.5 48.5t144 9t123 -27t89 -61t42 -92.5t-19.5 -121q-18 -48 -53.5 -75t-73.5 -25q-47 0 -50.5 47t31.5 94q102 163 -2 221q-88 53 -252 -6q-42 -13 -94 -43q-259 -149 -459 -578h527l-27 -18h-772l-14 18h127q84 191 230.5 351t352.5 258zM1034 377
q40 2 52 -24t-7 -81q-39 -99 -178 -188q-136 -87 -235 -102q-233 -30 -336 45q-220 158 -64 600h-106l-17 18h813l-24 -18h-506q-89 -247 -74 -432q8 -96 68.5 -150t167.5 -53q124 0 213 71q92 71 110 170q6 57 40.5 100t82.5 44z" />
    <glyph glyph-name="trademark" unicode="&#x2122;" horiz-adv-x="1505" 
d="M1102 948l403 482h135q-72 0 -102 -76l-205 -510q-4 -11 -6 -20.5t0 -16.5t4 -12.5t7.5 -9.5t9.5 -6.5t10 -4t9.5 -2.5t8.5 -2h6h-225q80 0 107 74l182 446q6 17 8.5 26.5t3.5 16t0 8.5t-4 2q-7 0 -47 -43l-451 -540l-59 559q-1 15 -9 16.5t-18 -10.5q-12 -13 -22 -41
l-162 -395q-14 -36 -13 -58.5t10.5 -35.5t22.5 -18.5t22.5 -6.5t10.5 0h-196q6 0 26 4q24 6 58.5 37.5t52.5 77.5l166 405q23 56 15.5 86.5t-19.5 40t-25 9.5l-4 2h152l55 -482q3 -29 13.5 -39.5t28 -1t40.5 38.5zM547 1419l-232 -571q-18 -34 -2 -53q25 -25 54 -25h-234
q80 0 115 78l231 571h-47q-111 0 -182 -51q-57 -40 -90 -82l-13 -16l95 160h540l-34 -158q3 50 -21 96q-34 51 -139 51h-41z" />
    <glyph glyph-name="partialdiff" unicode="&#x2202;" horiz-adv-x="1251" 
d="M430 -18q-36 -2 -71.5 0.5t-76 11.5t-73.5 27t-64 46t-46.5 68t-21.5 94.5t11 124.5q41 209 201 369q162 162 377 209q129 26 227.5 15t142.5 -58q9 69 10.5 134.5t-18.5 127.5t-55.5 112.5t-100.5 87.5t-153 54q161 -14 266.5 -83.5t148.5 -182t35.5 -258.5t-65.5 -320
q-85 -253 -275 -411q-187 -156 -399 -168zM961 541q51 209 -24 313.5t-261 58.5q-117 -26 -217 -122q-164 -157 -221 -385q-53 -220 22 -320q77 -99 223 -84q173 18 299 174q129 155 179 365z" />
    <glyph glyph-name="emptyset" unicode="&#x2205;" horiz-adv-x="1060" 
d="M969 920h43l-105 -109q38 -67 35 -168q-9 -277 -188 -477q-182 -203 -392 -176q-110 15 -159 100l-86 -88h-41l112 117q-61 143 7 356q28 84 68 154.5t81 116.5t88 82t85 54.5t75 30.5q198 61 299 -73zM330 459q-34 -127 -37 -234l514 529q-4 56 -24.5 93t-50.5 51
t-63.5 13t-66.5 -18q-79 -35 -151 -153.5t-121 -280.5zM803 651q4 54 4 60l-514 -529q5 -94 42 -138t107 -40q86 6 166 115q79 105 130 248t65 284z" />
    <glyph glyph-name="product" unicode="&#x220f;" horiz-adv-x="1445" 
d="M-213 -442l799 1976h1069l-797 -1972h-29l787 1945h-1012l-788 -1947z" />
    <glyph glyph-name="summation" unicode="&#x2211;" horiz-adv-x="1130" 
d="M709 -174h-928l12 33l959 901l-265 809l15 35h964l-14 -33h-924l273 -807l-967 -907h887z" />
    <glyph glyph-name="minus" unicode="&#x2212;" horiz-adv-x="1001" 
d="M221 713l8 20h707l-8 -20h-707z" />
    <glyph glyph-name="radical" unicode="&#x221a;" horiz-adv-x="1169" 
d="M1436 1432l-1215 -1850l-20 697h-123l12 28h150l14 -629l1147 1756z" />
    <glyph glyph-name="infinity" unicode="&#x221e;" horiz-adv-x="1505" 
d="M897 793q180 168 383 153q74 -4 114 -43t43.5 -96t-18 -122.5t-65.5 -125.5q-64 -91 -160 -144.5t-209 -52.5q-98 1 -142 54.5t-52 156.5q-63 -68 -189 -147q-121 -74 -235 -68q-133 6 -168 109q-35 105 28 217q55 119 162 186q109 68 217 62q177 -9 189 -244l11 12
q10 11 23 25t32 33.5t36 34.5zM881 674l-68 -76q5 -76 54.5 -120.5t140.5 -45.5q98 -2 196.5 46.5t157.5 135.5q100 151 12 226q-20 54 -96 60.5t-170 -40.5q-64 -33 -117 -76q-49 -40 -110 -110zM383 436q165 -3 391 232q-30 173 -196 182q-102 6 -203 -49
q-102 -53 -146 -148q-17 -38 -18.5 -75t14.5 -68.5t56.5 -52t101.5 -21.5z" />
    <glyph glyph-name="integral" unicode="&#x222b;" horiz-adv-x="1054" 
d="M1260 1636q74 -11 105 -56t5 -107q-12 -31 -40.5 -52.5t-57.5 -21.5q-41 0 -47.5 35.5t24.5 78.5q31 51 15 81t-68 32q-91 1 -154.5 -65.5t-126.5 -221.5l-172 -424h2l-423 -1046q-64 -165 -207 -252q-142 -89 -281 -51q-62 17 -89 59.5t-7 95.5q13 32 43 54t59 22
q28 0 38.5 -17t5.5 -42t-21 -55q-28 -51 -9 -81t72 -30q85 -1 147 66t124 223l172 424h-2l243 602l13 28l163 404q68 173 201 256q134 85 273 61z" />
    <glyph glyph-name="approxequal" unicode="&#x2248;" horiz-adv-x="811" 
d="M180 670q41 77 103 118.5t129 36.5q50 -3 110 -57q61 -52 101 -55q56 -6 105 23t73 79q-18 -66 -74 -111.5t-125 -41.5q-63 3 -125 59q-58 55 -123 55q-93 0 -174 -106zM127 514q41 77 105 119t128 37q53 -6 111 -58q58 -49 98 -55q56 -7 105.5 21.5t73.5 80.5
q-18 -71 -70.5 -115t-128.5 -38q-66 3 -123 57q-58 55 -123 55q-94 0 -176 -104z" />
    <glyph glyph-name="notequal" unicode="&#x2260;" horiz-adv-x="1157" 
d="M1130 885l-10 -21h-321l-322 -303h522l-8 -20h-534l-183 -172l-28 4l178 168h-262l8 20h276l324 303h-479l10 21h490l151 141l29 2l-152 -143h311z" />
    <glyph glyph-name="lessequal" unicode="&#x2264;" horiz-adv-x="995" 
d="M813 428l-594 291l836 309v-22l-779 -289l537 -264v-25zM94 332l-8 -19h707l8 19h-707z" />
    <glyph glyph-name="greaterequal" unicode="&#x2265;" horiz-adv-x="1056" 
d="M397 1010l594 -291l-835 -309v22l778 289l-537 264v25zM836 332l-11 -19h-706l10 19h707z" />
    <glyph glyph-name="NULL" horiz-adv-x="0" 
 />
    <glyph glyph-name="CR" horiz-adv-x="681" 
 />
    <glyph glyph-name="zero.osf" horiz-adv-x="1138" 
d="M387 4q-31 -2 -62 -0.5t-66 7.5t-65 18t-59.5 31.5t-49 47.5t-34.5 66t-15 87t9 110q42 205 201 360q166 162 372 207q254 56 373 -51q124 -106 47 -355q-69 -221 -256 -370q-187 -146 -395 -158zM909 555q46 198 -24 305q-71 108 -258 62q-117 -28 -211 -119
q-166 -161 -219 -385q-56 -218 22 -314q76 -94 217 -79q172 18 299 172q128 159 174 358z" />
    <glyph glyph-name="one.osf" horiz-adv-x="604" 
d="M209 788l336 197l-135 -330l-45 -114l-93 -230l-79 -196q-9 -24 -9 -42.5t6.5 -30.5t18.5 -20.5t23 -12.5t25.5 -6t20.5 -2.5t13 -0.5h-408q141 0 187 117l163 403l50 121q25 61 35 98.5t9 57t-17.5 22t-38.5 -5t-62 -25.5z" />
    <glyph glyph-name="two.osf" horiz-adv-x="927" 
d="M623 946q73 12 121.5 0.5t76.5 -36.5t37.5 -62t5.5 -76t-20 -78q-30 -76 -113 -159q-84 -84 -151 -134q-52 -38 -265 -184q-122 -82 -125 -100q0 -14 52 -17q30 0 63 -2h357l-316 -319q115 136 123 168q9 38 -45 47q-34 6 -94 6h-447q261 115 484 274q162 116 243 199
q85 85 127 209q30 102 -22 152.5t-162 33.5q-70 -11 -149 -52.5t-121 -82.5l-39 -35q32 40 73 78q36 36 82 70q120 86 224 100z" />
    <glyph glyph-name="three.osf" horiz-adv-x="1103" 
d="M618 948q58 5 105 -3t79 -25.5t55 -43t35 -55t17 -62.5t3 -64t-9 -60q-26 -109 -114.5 -201.5t-202.5 -138.5q115 -41 149 -178q37 -135 -24 -273q-92 -219 -283 -323q-189 -103 -414 -41q-233 64 -233 379q19 -97 84 -187q66 -93 176 -114q146 -27 291 39
q147 64 223 227q77 173 0 305q-77 136 -238 115l25 6q81 23 201 88q71 38 130 101t89 136q23 53 23.5 107.5t-20.5 99t-69 73t-116 28.5q-74 0 -144 -25q-50 -16 -110 -51q-41 -24 -125 -92q79 79 112 106q56 46 139.5 83.5t165.5 43.5z" />
    <glyph glyph-name="four.osf" horiz-adv-x="1255" 
d="M1094 115l-154 -113h-217l-109 -272l-194 -129l164 401h-705l1309 1143l-418 -1030h324zM129 113l502 2l307 710q35 81 -8 60q-10 -5 -51 -37l-744 -653q-71 -61 -35 -77q10 -5 29 -5z" />
    <glyph glyph-name="five.osf" horiz-adv-x="1097" 
d="M672 698l-162 -262q-38 -58 -29 -67q2 -5 37 10q189 107 369 110q186 3 278 -114q94 -120 15 -316q-83 -206 -332 -350q-130 -78 -352 -158q-200 -72 -357 -110l-141 -35q164 52 311 111q142 57 289 135q155 78 262 179t156 216q24 59 25.5 115.5t-19 104t-71.5 77.5
t-126 33q-118 9 -241 -33q-119 -41 -174 -82l-58 -43l447 725h657l-135 -121h-479q-44 0 -78 -18q-29 -16 -45 -35t-47 -72z" />
    <glyph glyph-name="six.osf" horiz-adv-x="1069" 
d="M664 1217q353 266 673 266q-101 -11 -270 -84q-165 -71 -332 -225q-195 -183 -289 -326q0 5 30 16.5t78.5 21.5t88.5 9q80 4 152.5 -23.5t126 -84.5t73 -143.5t-5.5 -201.5q-55 -215 -215 -348q-160 -130 -354 -133q-159 -3 -268 109q-110 116 -76 319q71 442 588 828z
M471 -18q139 18 240 155q97 132 133 326q35 195 -25.5 306t-195.5 99q-109 -9 -199 -96q-145 -143 -193 -379q-43 -209 29 -319q73 -107 211 -92z" />
    <glyph glyph-name="seven.osf" horiz-adv-x="950" 
d="M279 938h897q-260 -233 -537 -547q-59 -66 -137 -166l-99 -133q-38 -57 -81 -137l-62 -111q-17 -31 -61 -127q-47 -103 -56 -118q-49 -99 -127 -111q-56 -6 -65 39q-6 24 12 59q87 172 266 391q172 207 478 525q234 240 247 297q6 30 -39 39q-10 2 -147 2h-221
q-177 0 -273 -35t-182 -152z" />
    <glyph glyph-name="eight.osf" horiz-adv-x="1142" 
d="M866 737q55 -42 90 -100q26 -43 40 -94.5t9.5 -118t-34.5 -129.5q-83 -189 -293 -281q-208 -88 -438 -24q-138 35 -193 153q-56 120 12 271q52 107 166 190q45 33 111 64q98 46 229 88q-25 13 -52 36.5t-56 63t-46.5 84.5t-17 105.5t26.5 121.5q68 169 229 238
q162 70 334 55q145 -15 203 -119q59 -107 2 -233q-21 -51 -68 -102q-66 -69 -137 -105q-57 -32 -96 -47l-43 -16l-45 -17q-34 -9 -37 -12q1 -1 17 -11.5t41.5 -28.5t45.5 -32zM532 1182q-30 -107 27.5 -201t183.5 -162q127 62 197 123q73 67 123 164q57 109 22 219
q-34 110 -151 119q-140 12 -251 -56t-151 -206zM586 743q-302 -129 -387 -333q-62 -131 -19 -256q46 -126 185 -150q226 -41 368 84q145 127 139 313q-3 190 -286 342z" />
    <glyph glyph-name="nine.osf" horiz-adv-x="1038" 
d="M332 -336q-142 -108 -314 -174q-173 -68 -233 -76q-78 -10 -109 -10q114 14 275.5 91t327.5 218q169 141 280 316q-8 -12 -67 -24.5t-121 -12.5q-182 -9 -289 125q-104 133 -57 346q47 214 208 338q162 125 361 125q157 0 258 -107q100 -106 70 -305q-73 -463 -590 -850z
M543 905q-141 -12 -242 -149q-97 -128 -133 -324q-35 -195 29 -311q65 -116 194 -101q82 6 153.5 55.5t117.5 125.5q78 133 116 293q41 204 -27 313.5t-208 97.5z" />
    <glyph glyph-name="ampersand.001" horiz-adv-x="1595" 
d="M1616 993q53 0 86 -22.5t33 -63.5q0 -27 -16 -45t-42 -18q-37 0 -71 37t-84 37q-61 0 -131 -41q-36 -23 -115 -113q-15 -17 -55 -78l-52 -82l-57 -92l-55 -94q98 -137 143 -244q74 -171 74 -324q0 -243 -154 -432q-86 -105 -183.5 -152.5t-234.5 -47.5q-48 0 -88 4
q-60 6 -112 33t-86 64t-54.5 69.5t-29.5 58.5l-10 23q1 -1 4.5 -8t7 -12.5t12.5 -17.5t23 -26q113 -121 286 -121q246 0 396 193q151 195 151 450q0 210 -162 463q-158 -261 -215 -330q-150 -187 -344 -196h-24q-144 0 -254 90q-107 88 -107 254q0 69 27 137q30 68 66.5 118
t103.5 111q77 67 119 99l135 98q78 54 129 92q-152 190 -152 340q0 130 80 219q79 88 199 88q100 0 161 -58.5t62 -162.5q1 -92 -52.5 -174t-162.5 -178q-7 -6 -21.5 -17t-40 -30.5t-47.5 -36.5l285 -344q10 -11 60 -78l61 100l68 109l55 90q82 125 147 174q104 88 238 88z
M555 1204q0 -85 27.5 -158t103.5 -174l72 58q109 93 155 174t45 180q-1 69 -46 116t-113 52q-92 6 -168 -70q-76 -73 -76 -178zM500 -59q162 0 297 147q66 68 118 143q62 89 115 177q-12 22 -49 73q-58 86 -133 174q-32 42 -74 88l-84 103q-142 -103 -188 -139
q-158 -124 -232.5 -232t-74.5 -237t81.5 -213t223.5 -84z" />
    </font>
</defs>
</svg>
